<svg xmlns="http://www.w3.org/2000/svg" width="398.661" height="395.596" viewBox="0 0 105.479 104.668" fill-rule="evenodd"><path fill="currentColor" d="M52.233 26.807c-.486.026-.95.03-1.182-.197v-.6c.46-.404 1.458-.145 1.182.788zm-.985 6.693c1.003 1.896.12 5.48.396 7.688.657.324.572.803 1.182.788-.18.477-.792.52-1.38.6.788-.6.044-1.136-.395-1.578.857-.474-.302-1.22-.394-2.167-.056-.585.1-1.888.198-2.563.012-.1.394-.478.394-.6-.002-.36-.94-1.16.197-.985-.062-.463-.934-.117-.788-.788.158.105.32.205.6.197l-.004-.592zm-.984 8.68h.985c.092.422-.28.376-.6.395.103.158.205.32.197.6-.412.083-.522-.135-.788-.197-.03-.353.236-.418.194-.8z"/><path fill="currentColor" d="M54.994 30.75c-.904.017-.752 1.087-1.774.985 1.902.74 3.533 3.066 3.943 5.915 3.528-1.162 5.825-4.063 9.462-5.125.653-.192 1.323.037 1.774-.6.24-2.53 1.223-5.195 1.773-7.688.418-1.9.158-4.07 1.578-5.322.026.852-.73 2.447 0 2.76-1.293 1.663-1.613 4.3-2.17 6.7 1.253-1.968 1.552-4.888 2.76-6.9-1.503-.175 2.193-3.853 2.956-4.927.303-.426.387-1.878 1.183-1.775.033-.623-.522-.66-.393-1.38.258.07.3.347.6.394.267-.492.597-1.495 0-1.774 1.137-1.6.743-2.746.788-4.337.23.032.35-.044.394-.197.674-.084.593.6.985.788-.826 1.093.1 1.756-.788 2.956-.06.616.57-.5.6.197-.2 1.082-1.623 2.03-.788 2.957-.452.337-.792.784-1.183 1.183.144.185.358.3.6.394-4.734 3.02-5.686 9.82-7.688 15.573-.05.576.447.605.394 1.182-2.373 1.725-4.696 3.696-7.884 4.73-1.516.492-3.22.546-4.534 1.577.12 1.838.777 4 .6 6.703.335.32 1 .325 1.183.788-.07.653-1.136.3-1.774.394.447 1.335-.74 3.096.985 3.153.2.715-.85.2-.985.6.408.725-.052 1.1-.197 1.775 2.02 1.88 5.134-.934 7.687-1.97.4-.16.84-.033 1.184-.197l3.744-1.775c2.212-.092 3.08-1.342 5.52-.788 1.032.234 2.626 1.308 3.943 1.773 1.08.385 1.935.48 2.956.987 1.852.918 5.9 3.945 7.5 4.14.96.116 2.02-.278 3.35-.394 3.003-.262 5.697-2.038 8.476-2.957.185-.145.3-.358.394-.6 1.206-.312 2.746-.722 3.35.394.135.66-.33.72-.788.788.048.528.83.75.394 1.183-1.22-1.6-2.672-.97-4.534-.394.085.244.252.405.6.394-.368.945-1.08-.42-1.774.2-.6.13.188.42 0 .788-.84-.117-1.304.14-1.972.197-.464 1.018-3.4 1.125-5.52 1.38-2.366.285-2.665.27-4.928-.6-4.202-1.603-8.498-3.87-12.22-6.1-2.046.404-3.188 1.966-4.93 2.956-.525.3-1.356.485-1.97.788-.568.28-1.087.823-1.577.985-1.64.546-3.273.046-5.322.788-.368-.026-.66-.13-.788-.394-.692.95-2.48.808-3.35 1.578-.748 3.065-.507 6.455 1.97 7.095.313.08.695-.2.987-.197 4.553-.096 12.358-2.143 16.557 0 .86 1.388 1.487 2.725 2.17 4.14 1.14 2.37 2.154 4.782 3.35 7.688.342.827.96 1.6 1.184 2.365.462 1.6.313 3.4.985 4.928.9 2.013 3.124 3.74 4.534 5.52.364.462.405 1.1.788 1.578.212.265.707.503.985.788 1.805 1.844 4.08 4.266 6.1 6.1.2-.128.204-.453.6-.394 1.534 2.803 5.082 3.6 7.5 5.52-.155.974-1.422-.383-1.577.592-.56-.36-.688-1.153-1.184-1.578-.3.017-.75-.095-.788.197-1.5-1.072-3.06-2.064-4.335-3.35-2.884-.93-3.907-3.715-6.3-5.126-.204-1.116-1.328-1.604-1.97-2.365-1.02-1.2-1.694-2.757-2.76-3.943-.146-.163-.634-.205-.788-.394-1.154-1.404-2.335-3.324-3.153-5.125-1.14-2.5-2.162-4.796-3.154-7.5-.96-2.608-1.368-6.07-3.35-8.475-3.35 1.016-7.825 1.377-12.42.985-.885-.076-2-.504-2.76-.593-.222-.023-.657.18-.6.2-1.324-.35-1.823-1.517-2.957-1.184-.102-.3-.3-.496-.394-.788-1.08.028-1.963-.14-2.76-.394-.58.98.143 2.348.6 2.957.035.692-.666.648-.788 1.183.227.495.785.66.788 1.38.96-.12 1.013-.12 1.97 0 .245.652.933.464 1.38.8 2.752 1.997 3.474 6.152 5.126 9.265.34 3.28 1.28 6.058.788 9.657-.068.497-.215 1.027-.394 1.972-.046.236-.37.62-.394.788-1 6.68-4.85 11.6-9.462 14.784-5.93-3.072-9.88-8.124-10.645-16.36-.032-.23-.358-.165-.6-.197-.37-8.78 1.657-15.164 5.322-19.9.963-.224 2-.96 3.155-.394.256-.466.33-1.116.6-1.576.034-.494-.44-.478-.6-.788.224-1.222.93-1.962.985-3.35-2.522-1.36-3.105 2.43-4.73 1.38a6.73 6.73 0 0 0-.985.987c-4.775 1.246-11.16.533-16.95.197-1.688 1.925-1.666 5.562-2.957 7.884v1.38c-1.644 3.17-1.902 6.704-3.744 9.462-.426.635-1.076 1.265-1.578 1.97-1.262 1.782-2.518 3.42-3.943 5.322-1.014 1.356-1.867 2.744-3.153 3.548-.238.813-1.008 1.096-1.38 1.774h-.6c-2.708 1.9-4.928 4.27-8.08 5.716-.1.643.98.42.394.987-.84-.32-1.28-.27-1.972-.395-.026-1.108 1.446-1.214.985-2.168 1.47.022 2.18-.713 3.35-.985-.13-.265-.42-.368-.788-.394 2.048-.714 3.66-1.86 4.73-3.55.62.094.77-.28 1.182-.394 3.072-3.274 5.915-6.9 8.673-10.644.357-.486.958-1.13 1.183-1.578.865-1.713.93-3.962 1.578-5.913.1-.338.463-.447.6-.788.543-1.448.627-3.138 1.183-4.534.193-.484.594-.87.8-1.38.894-2.35 1.82-4.582 2.956-6.703 5.013-2.6 13.472.282 17.938-.787 1.54-1.698 2.444-4.175 1.182-6.703-2.458-1.444-8.186-1.165-11.038-2.365-.792-.333-1.743-.88-2.563-1.38-.718-.437-1.34-1.353-2.168-1.773-.438-.222-1.3.236-1.38-.6-3.562 1.428-6.707 3.163-10.053 5.125-3.087 1.8-5.514 2.76-10.25 1.578-.62.092-.52-.53-.985-.6-2.496.327-3.23-1.108-5.322-1.184 1.145-.777-1.087-.633-1.38-1.183-.455-.06-.22.57-.6.6A1.74 1.74 0 0 1 0 52.827c2.383-.697 3.554.38 5.52 1.184 2.723 1.115 4.996 1.577 8.477 2.167 2.862-1.474 5.442-3.23 8.28-4.73.455-.06.22.57.6.6.757-.7 1.964-.927 2.76-1.577-.444-.368-1.385.445-1.97.6.853-1.13 2.5-1.418 4.337-1.97.413-.124.84-.537 1.184-.6 6.455-1.013 10.7 4.447 15.966 5.125.6-.047.765-.55 1.182-.788-.146-.905-.592-1.5-1.38-1.773-.007-.73 1.225-.22 1.183-.985-.464-.72-.55-1.814-.6-2.957-.065-.654-.86.52-.985-.197-.192-.78.57-.612.985-.788-.66-1.802-.565-5.3.197-6.898-1.06-1.458-3.602-1.076-5.716-1.775-2.708-.894-4.368-2.727-6.505-4.14-1.203-3.17-1.167-6.383-2.76-9.66-.94-1.935-2.348-3.5-3.35-5.125-1.422-2.307-2.992-4.198-3.35-7.293-.084-.725-.103-2.107.788-2.366.455 1.2.38 2.006.394 3.35.028 2.494 2.573 5.207 3.746 7.5.64 1.246 1.52 2.025 2.365 2.76.7-1.1-.466-2.026-.6-2.957 1.76 1.397 1.647 4.215 2.17 6.703.405 1.932.945 3.887 1.183 5.716 1.54 1.906 4.76 2.075 7.293 3.35.452.227.747.744 1.184.987 1.027.57 2.158 1.134 3.35 1.577.56-2.332 1.057-4.727 3.35-5.322.03-.5.037-.956-.394-.985.06-.533.83-.354.985-.8-.422-.398-.643.515-1.38.394.485.234-.404.745.197.986-.43.274-2.085-.125-.6-.394-.083-.444-1.046-.005-1.184-.395-.143-.537.393-.397.395-.788-.28.017-.56.033-.592-.197-.292.087.078.252 0 .6-.633.174-.408-.5-.788-.6-.485.436.48 1.084.985 1.184-2.157.052-2.402-2.847-3.153-5.52-.183-.652-.593-1.2-.6-1.577.006-2.315 2.074-2.7 2.956-4.14-2.068-1.124-6.15.054-8.476-1.183.244-2.45.635-4.754 1.38-6.7-.543-.562.04-.653 0-.985-.16-1.286-1.4-2.716-1.184-3.942-.12-.4-.76-.374-.985-.6-.1-.098.1-.482 0-.6-.635-.76-2.3-1.687-2.956-2.563-.566-.745-.9-1.88-1.184-2.956 1.976-.442 2.593 2.12 4.14 2.76.573 2.275 2.235 3.497 2.957 5.913.146.492-.15 1.46.6 1.775-.356 2.015-1.198 4.18-1.775 6.504 1.992 1.162 5.468.84 7.688 1.774 1.98-1.626 2.8-5.266 6.505-4.534.155.176.212.445.198.788 1.997.302 2 2.6 3.153 3.746-.383.165-2.075 1.2-1.97 0-.303.222-.485.566-.788.788-.064.522 1.104-.185.788.6-.797.2-1.08.893-2.365.6.956-.16.125-2.1 1.577-1.774.092-.683-1.07-.113-1.183-.6-.06-.805.4-.106.788-.197.378-.254-.466-.408 0-.985.94.298.5-.158 1.38-.197-.22-.438-.78-.534-.985-.985-.664.317.62.623 0 .985-.532-.55-1.862-.8-2.76-.394-.025.353.24.415.197.788a.54.54 0 0 1-.394-.591c-.672.547-.577.776-1.577.788.223.635 1.35.984.197 1.38.336.387 1.384.064 1.576.6-.3 1.308-2.36 1.804-3.153 1.972-.07.715.507 1.262.197 1.97.158-.105.32-.205.6-.197.478-.24-.404-.76-.394-1.182.85-.26.244.938.985.788-.55 1.04-1.066.995-1.773 1.97-.1.322 1.074.322.985 0 .328.525-.134.876.788.985-.34.528.14.75-.394 1.184.058.6 1.042.272 1.182.788.536.14-.14-.93.394-.788 1.135-.15.802 1.17 1.972.985.055.32-.188.34-.197.6.9-.095 1.528-.817 1.97-.788-.103-1.2-1.054.62-1.38-.197-.588-.688.464-.995.985-1.184-.283-.288-.3-.763.394-.6.15-.863-.14-1.144.6-1.577-.4-.65-.98.788-1.577 0-.3.75.88.04.6.788-.6-.057-1.345.03-1.38-.6.853.083.258-1.324 1.182-.985-.037-1.03-1.655-.936-2.167-.394.168.62 1.138.438 1.182 1.182-.464.006-.58-.34-1.182-.197.128.2.452.204.394.6-.3.283-.626.152-.6-.394-.874.278.25 1.395-.6 1.774-.893.147.3-.54-.593-.394-.427-.033-.088.7-.197.985-.797-.5.043-.802 0-1.576-.335-.073-.372.154-.394.394-.742-1.736 1.108-2.412.788-4.335.23.164.53.26.985.195.015.473-1.446 1.136-.394 1.38-.058.664-.874.57-.985 1.183.3.6.692-.912 1.182-.197.46-.773-.24-.733-.197-1.576 1.147.326 3-.312 3.943.6-.682-1.202.15-2.243.197-2.957 1.464-.64 3.397-.808 5.125-1.183-.864-.464-2.054.438-3.153.394 2.32-.9 4.647-1.8 7.5-2.167-.077-1.46-1.637-3.23-.788-4.337.108-.7-.697-.485-.6-1.184.212-.958.416-.87 0-1.773.703-.54 1.216-1.893.985-2.76.16-.103.32-.205.6-.197-.385-.842.427-.888.593-1.38.2-.602.176-1.068.6-1.773.143-.247.68-.533.788-.8.088-.207-.117-.597 0-.788.815-1.326 2.352-2.6 3.55-2.562-.296 2.07-1.35 3.38-2.76 4.337.134.987-.526 1.183-.985 1.577-.795 2.1-2.046 3.927-1.972 6.504.062 2.114 1.144 4.545.8 6.506-2.592.496-5.3.876-7.885 1.38.128 1.45 1.805 1.348 2.365 2.365-.1 2.038-.615 3.914-1.182 5.915-.478 1.687-1.455 2.88-3.35 3.35.377-.3-.278-.77.2-1.185zM16.162 55.587c2.153-.513 3.667-2 5.322-2.957.24-.14.737.12.6-.394-2.562.526-3.992 2.185-5.913 3.354zm15.572-30.16c.468 1.413.314 3.15 1.38 4.14-.845-1.575-.56-5.826-2.563-7.294.017 1.13.826 2.077 1.183 3.154zM66.428 4.14c1.746-.094 1.218-2.46 2.562-2.957-.372.044-.434-.222-.788-.197-.46 1.184-1.913 1.373-1.775 3.155zm-30.16.6c-.624-1.28-1.305-2.505-2.76-2.957.424 1.48 1.4 2.4 2.76 2.957zm12.616 12.812c.943-.174 1.662-.572 2.365-.985v-.985c-.294.033-.727-.07-.788.197.8.678-.82.612-.985.985.526.23-.515.515-.593.788zm11.038 1.578c1.388-.352 3.27-.2 3.94-.985-1.157-.3-2.957.455-3.943.985zm-20.107-.6c-.5-.01-1.253-.176-1.38.394 1.265.05 2.34.263 3.943.394-.24-.422-1.747-.772-2.563-.788zm7.096 8.673c.062.463.934.117.788.788-.343.015-.613-.044-.788-.197-.203.66.613.306.985.394-.156-.682.22-.833.394-1.184-1.102.137.12-.83-.788-.788.276 1.563-.533.23-.592.987zm-1.178 2.562c-.422-.73-.22-2.1-.788-2.167-.268.564-.022 2.045.787 2.167zm2.56 4.337c-.155.044-.4.006-.395.197.347.113 1.16-.238 1.184.197h-.394c-.12.35.577.818 0 .985-.12-.273-.76-.03-.788-.394-.404-.635 1.12-.277.394-.6H47.9c-.335 1.076-1.662 1.942 0 .985-.2.83.968-.32.985.6-.22.043-.307.22-.394.394.287.1 1.018-.23.985.198-.182.343-.616.434-1.182.394-.176.692.037.648-.395 1.183.748-.145 1.73.5 1.38.788-.66-.37-1.46-.296-1.972-1.182-.163.557.278.5.197.985-.24.022-.466.06-.394.394.5.507.703-.134.985-.394.12.273.76.03.8.394-.043.222-.22.307-.394.394-.56-.24-1.304-.16-1.578.394.765.1.525 2.276-.197 2.17.12.01.233.03.197.197.01.12.03.234.197.197-.172-.692.5-.205.6 0-.022.78.273 1.535 0 2.17-.372-.737-.145-.8-.985-.394-.283-.94.824-.5.6-1.38-.674.552-.616.06-1.183-.394.295.907-.004.814-.6 1.184.65.087.67.168.197.788.55.226 1.024.226 1.577 0 .01.252.253.273.197.6-1.05-.2-.048.415-.6.6-.375-.085-.495-.424-.985-.394-.024.876.843.865 1.38 1.183-.1-1.242 1.118-.028 1.972-.394-.218-2.15-1.352-4.43-1.578-5.914.486.55.572.464.394-.394.194.17 1.242.083 1.578-.197-.24-.022-.467-.058-.394-.394.554.17.756.688.985 1.184-.514.064-1.837-.496-1.578.6.178-.533.477.415.593.6-.532-.466-.948.38-.593 0 1.444.207 1.244.954.8 1.97.707.277.72 1.626.394 2.366 1.65.4 2.177-.218 3.746.197-.26-1.186.9-1.972.394-2.76.05.85-.84.62-.394 1.38-.76.588-1.605-.132-1.775.987-.165-.23-.26-.53-.197-.987.675-.04.592-.65.985 0 .058-.4.533-.386.592-.788-1.014.273-1.645.128-2.17-.788.27.008.433-.092.6-.197.026.63.448.868 1.184.788.303-.83-1.02-.03-.987-.6.26-.001.18-.346.395-.394 1.024.427.86-.628 1.97-.6.112-.638-.06-.992-.394-1.183.03-.693 1.206-.24 1.183-.987-.63-.117-.6.37-.985 0 .055.576-.048.678-.394.395-.115.64.133.917.197 1.38-.98-.004-1.473-.5-1.97-.985h1.183c.033.295-.07.728.197.788.372-.306-.282-.768.197-1.183-.295-.034-.728.07-.788-.198.62-.43.13-1.972 1.38-1.774.344-1.133-1.104-.47-1.183-1.182.663.202.307-.613.394-.985.395.482.917.385.985-.394-.65-.15-.485-.974-.6-1.184-.003.26-.547.25-.6 0 1.065-.373-.792-.34 0-.985-.92-.198-1.705-.53-1.97-1.38.442.996-1.384 1.384-1.775.788v.394c-.12.01-.233.03-.197.197.3.02.683-.026.6.394-1.2.467-.797-1.087-.985-.6-.324.008-.1.552-.395.597zm-11.237.985c1.034.605 2.538.953 3.35 1.578v-.8c-1.345-.474-2.227-1.287-3.154-1.38.215.047.474.325.197.394-.8-.7-1.556-1.466-2.76-1.774.758.97 1.305 1.35 2.365 1.97zm23.658 1.38c1.56-.147 2.27-1.147 3.94-1.183.415-.617 1.14-1.366 1.972-.985-.648-.715.845-.634.197-1.183-1.705 1.45-4.52 1.8-6.1 3.35zm-4.34 9.46c.5.03.6-.3.987-.394.004-.465-.34-.58-.2-1.183.272-.008.434.092.593.197-.328-.395.017-1.462-.394-1.774-.565 1.25-.2 2.213-.985 3.156zm-2.365 0c.624-.032.66.524 1.38.394-.577-.64-.183-2.263-.987-2.167.273.222-.416 1.15-.395 1.772zm-4.93 3.153c.84-.605 1.823-1.068 2.366-1.97-.524-1.32-2.365-.548-3.55-.394.115.346-.238 1.157.197 1.183.328-.44 1.1.332.985.985-.1 0-.226.16 0 .198zm2.955-1.38c.634.033 1.217 1.136 1.775.6-.745-.448.68-.35.788-.6-.144-.602.2-.72.197-1.184h-2.563c.032.488.036.95-.194 1.182zm-2.562 1.97c-.004.763 1.246.976.6 1.773.3.02.683-.026.6.396.72.1 1.06-.17 1.576-.788-.07.083-.244-.25-.197-.395.124-.377.765-.488.788-.6-.007.032-.645-.1-.394-.394.96-.303.6.724.985.985-.05-.706.593-.722.6-1.38-.98-.463-1.48-1.408-2.956-1.38-.205.9-1.514.716-1.574 1.775zm-3.35-.6c.565.04 1.148 1.07 1.577.6-.55-.502-1.126-.977-1.577-1.577v.988zm24.642-.395c-1.967.836-4.624 2.106-6.307 2.957-.393.198-1.302.18-1.38.788 1.634.32 2.107-.38 2.957-.788-.03.014.197.284.394.197.06-.026.08-.33.197-.394.345-.2 1.04-.34 1.578-.6.504-.238 1.036-.68 1.38-.788.01-.004.167.3.394.197.3-.14.354-.45.6-.6.818-.492 1.9-.648 2.562-1.38-.878.047-1.242.6-2.372.4zm-36.863.8c-1.335.048-2.093-.358-3.35-.788-.084.376-.563.357-.394.985 1.3-.708 3.116.6 3.745 1.775-.022-1.197.54-.285.985-.197.626.122 1.964-.064 2.17.6.346-1.433-2.42-1.367-3.153-2.37zm47.505 1.772c-.533-.328-1.923-.83-2.366-.6.488.37 1.818.932 2.365.6zM50.46 55.785c.4-.138-.048-1.1.394-1.184.553.835 1.18.174 2.17.197.107.287-.23 1.02.197.987.514-.745.2-1.113.394-2.17-1.14.245-.047-.656-.6-.788-.32.273-.776.407-.987.788.45-.055.74.047.788.394-1.53.408-3.134.08-3.94-.788.055.45-.048.74-.394.788-.044-.153-.007-.4-.198-.394.452.992 1.96.93 2.172 2.166zm5.125.787c.012-.06.386.098.394.197.004.047-.442.78-.197 1.183-.73-.138-.87.312-.788.985-.292-.228-.496-.228-.788 0 .33.682-.3 1.294.6 1.578.888-1.053 2.03-4.354 1.38-5.322.3.84-.5.96-.597 1.38zm-4.14.588v.592c.7-.08.4-.863 1.183-.394-.515-.72-.305-.652.394-.985-1.04-.743-1.265.765-2.563.394-.303.747-.495 1.605-.788 2.365.72.12.157-1.33.987-1.576.267.522-.226-.724.787-.395zm-4.928 5.126c1.2.03 2.052-1.747 1.183-2.563.03 1.277-.9 1.598-1.183 2.563zm2.365-1.97c.434.566.924-.147.788.987.286-.1 1.018.23.985-.2-.34-.58-1.006-.834-1.38-1.38-.046.283-.32.336-.392.593zm7.885 2.366c.328-.35.286-1.444-.394-1.38-.272.6-.233 1.207.395 1.38zm7.685.197c-1.4.12-3-.423-3.745.394.134.576 2.32-.25 1.577.592.638.243.15-.64.788-.395 2.937.374 6.496-.015 10.053-1.182-2.763-.872-5.78.346-8.672.6zm-23.26.395c-.96-.055-1.917.077-2.76 0-2.87-.262-6.012-1.012-8.278.197 3.97.128 8.625.526 13 .394-.127-1-1.408-.56-1.97-.592zm9.856 1.97c.526-.212 1.804-.6 1.97 0-.008-.78-.434-1.143-.6-1.774-.557.163-.5-.277-.985-.197-.192.47-.834 1.517-.393 1.97zm-.2 1.776c.627.93 1.5.163 2.17.394-.1-.35-.102-.818-.394-.987-.06.283-1.5-.028-1.772.6zm4.537 2.365c.107-.287-.23-1.02.197-.985.126.165.922.617.985.197-.756-.23-1.235-.736-2.365-.6.452.398.836.87 1.183 1.38zm-31.933 6.307c.865-2.448 2.252-5.223 2.365-7.293-.93 2.16-2.133 5.1-2.365 7.293zM54.6 70.37c-.517-.127-1.632.408-2.17-.394.084-.376.564-.357.394-.987-1.342.434-2.992-.207-4.335-.394-.16.367-.255.796-.592.987.7-.072.938-.314.986-.593.22.043.308.22.394.394-.274.42-.682 1.083-.985.394-.463 1-.04 1.76-1.184 2.17-.25 1.523-.187 3.36-1.182 4.14.285.874.192 1.517-.6 1.773.44.086.08.972.197 1.38-.475.183-.737.577-.985.986-.353 0-1.147-.532-1.38 0 .994.3 1.396.001 1.97.6.252 1.356-.9 1.884 0 2.365.043-.153.165-.23.394-.197.495-2.078 2.656-5.028 2.562-7.687.874-.944.076-2.42.987-3.155.08-.475-.36-.43-.2-.985.283-.048.334-.325.6-.394.448.294-.468 1.5 0 1.773.6-.83.4-2.08.395-2.76.515.45.67.04 1.183.394-.054.407-.874.048-.788.593.295.033.727-.07.788.197-.336.08.04.253 0 .6h-.6c.022.5.37.6 0 .985.776.316.07-.852.6-.788.07.588.595.718.985.985.12.66-1.262.823-.6 1.38.418-.298.65-1.552 1.183-.593a5 5 0 0 0-.394-1.576c.4.06.392-.266.6-.394.2.337.62.433.987.6.2-.382.667-.515.985-.788-.943-.175-1.57.1-1.972-.197.113-1.076 1.783.04 1.772-.787zm3.745 1.77c.034-.9.453.558.985.396.143-.604-.34-.58-.197-1.184-.577.178-.606.178-1.182 0-.054.45.05.742.395.787zm23.458 5.72c-.112-1.638-.954-2.8-1.38-3.744-.306-.68-.183-1.677-.985-1.972.748 1.95 1.458 3.933 2.365 5.72zm-24.84-3.942c-.285.306-.655.528-.788.985.538-.144.397.4.788.394.072-.517.172-1.154.197-2.17h-.985c-.145.67.728.325.787.788zm1.578 0c.032-.232-.033-.56.197-.6.34.448.816.76.788 1.577 1.058-.23 1.105.55.788 1.182.35-.117.818.58.987 0-.663-.783-1.274-1.618-1.578-2.76-.602.142-.718-.2-1.183-.197-.265.02-.265 1.418.004.8zm-9.067 2.167c-.01-.34.152-.506.394-.593.273.12.03.76.394.8.084-.376.563-.357.394-.987-.515.055-.987.067-.788-.6.183.12.728.46.6-.197-.137-.492-.526.365-.985.197.568.504-.6 1.578-.004 1.384zm1.578.395c-.06-.24.57-.68.6-.198-.246.543-1.008.57-1.38.987.526.86-.492 1.345 0 1.97.4-.576.373-2.427 1.38-1.774-.013-.736.198-1.247.394-1.775-.88.405-.628-1.322-1.183-.6.724.244-.477 1.186.197 1.38zm9.662 1.578c.286-.1 1.018.23.985-.2-.793.07.102-1.547-.985-1.182-.152.442.9.628.197.985-.284.106-.48-.768-.593-.197.276.054.226.434.396.594zm-12.225-.395c-.044-.153-.005-.4-.197-.394.477 1.018.178 1.352-.197 2.365.692-.116.648.933 1.183.394-.425-.733-.233-.364.197-.985-.286-.108-1.018.23-.985-.197.376-.084.357-.563.985-.394-.132-.524-.3-1.004-.6-1.38.014.342-.147.507-.4.593zm34.11 2.562c.083-.814-.16-2.326-.788-1.773.437.416.084 1.62.787 1.772zm-35.088.8c.48.846.2.648-.197 1.38.27-.008.434.093.592.197.15-.5.6-1.304.196-1.773.155-.044.4-.006.395-.197-.633-.17-.612.3-1 .395zm5.522 2.365c-.496.294-1.086.492-1.38.987 1.05.5 1.53-.688 2.17-1.184-.577-.532-.17-.765 0-1.38-.4-.003-.25-.537-.788-.394.68 1.44-.82 1.295 0 1.973zm3.547.985c-.055.515.072.847.6.788.035-.295-.07-.727.197-.788.346.962.23.018.985.394.18-.504.32-1.118-.197-1.38-.547.295.343.806-.197.985-.525-.254-.145-1.107-.394-1.183-.423.292-.3 1.13-.98 1.183zm-9.66-.593c-.044.153-.006.4-.197.394-.037-.292-.477-.18-.788-.197.06.387-.266.4-.394.6.233.095.447.2.6.394-.343-.015-.613.044-.788.197.125-.85-.73-.715-1.38-.788.256-.262.26-.733-.197-.788-.4.743.23 1.53.197 1.97-.007.094-.445-.047-.394.197.03.138 1.04.5.394.788 1.297.26 2.37-.4 3.745-.6-.12-.01-.233-.03-.197-.197-.01-.12-.03-.233-.197-.197-.167.465-1.017-.012-1.183-.197.68.014 1.4-.95.8-1.575zm-27.003.787c-2.9 3.352-5.525 6.96-8.28 10.447 3.314-2.675 6.435-7.808 8.28-10.448zm24.444 3.156c.296-.55.85-.353 1.182 0-.026-.685 1-.316.987-.985-1.1-.234-1.08.627-2.17.394.077.338-.294.504 0 .588zm3.15-.395c.334.668.8.442 0 .985.558-.163.5.278.987.197-.226-.62.3-.478.394-.788-.354.026-.46-.196-.394-.6-.474-.077-.427.364-.985.197zm10.84 2.365c.18-.715.58-.12 1.182-.197.06-.387-.266-.4-.394-.6.01-.252.252-.273.197-.6-.66.01-1.404.952-.984 1.384zM44.35 91.66c.648-.3.87-.292 1.38-.394.048-1.046-.732-.043-1.183-.6.163.56-.278.5-.197.988zm15.966 1.578c.334-.192.506-.544.394-1.182-.852.003-1.3.408-1.972.6.605.193-.226.525-.197.788.588-.053 1.2.55 1.38-.197-.513.117-.7-.08-.592-.592.373.088 1.188-.267.985.395-.1.003-.226.16 0 .2zm-14.194 3.547c.387.06.4-.266.6-.394.127-.784-.522-.792-.394-1.577h-.593c.036 1.013.823.96.4 1.973zm5.325-78.453c.036-.168-.077-.186-.197-.197.696-.7-.03.577.394.6-.128.2-.454.204-.394.6-.286-.37-1.3-.025-1.576-.394.525-1.066 1.08.186 1.775-.6z"/></svg>