<svg xmlns="http://www.w3.org/2000/svg" width="608.409" height="399.666" viewBox="0 0 160.975 105.745"><path fill="currentColor" d="M120.03.02c-1.955-.226-2.74 1.518-3.144 3.034-2.53.646-3.504 2.846-4.526 4.995-.472-.116-.465.265-.94.15.096.816-.207 1.25-.3 1.873-1.476.097-1.317 1.804-2.34 2.342-.368-.226-.29-.33-.777-.162-.2 1.683-1.696 3.294-1.405 5.15-.414.001-.89-.097-1.094.15l.465 4.526a6.63 6.63 0 0 1-2.027 0c0 .882-.702 1.07-1.716.938-.74.608-.778 1.93-2.03 2.03-.654 1.532-1.158 3.2-3.12 3.433.22-.2.15-.683.162-1.095-.75-.55-1.498-1.103-1.873-2.027-.825 0-1.007-.135-1.405-.777.806-1.27 1.703-2.645 1.873-4.215.446-4.12-3.582-5.576-7.8-5.62 1.142-.882 2.665-1.388 3.432-2.65 1.3-.207 2.297-.72 3.275-1.252 1.17.485 3.088.155 4.526 0 .853 1.074 2.608 1.244 4.214 1.562.485-1.094-.35-1.553-.778-2.184-4.133-1.07-8.514-.825-12.02.3-1.444 1.625-3.913 2.224-5.306 3.9-1.17-.187-2.005-.758-2.963-.627v-.94H81c0 1.182-.787 1.61-1.562 2.027-.343-.388-.2-1.25-.94-1.248-.683-.22-.33.608-.94.465-.758-2.62-4.198-2.563-5.773-4.37-1.08-.097-1.808-.485-3.12-.3-2.005-1-3.752-.3-6.4-.465-1.99.664-4.564.74-5.774 2.185.74.097.938.207 1.56.627 1.534-1.054 3.215-.18 4.837-1.248.49-.097.362.485.94.3 2.966-.265 7.28-.388 9.206 2.342.825.38 1.556.835 2.34 1.248-3.3.097-7.962.646-8.272 4.994-.104 1.442.097 3.756.778 4.837.51.787 1.536.73 2.03 1.563-.627.104-.627-.407-1.248-.3-.278.246-.207.835-.465 1.09h-1.094c-.142.278 0 .843-.465.787-.74.097-.862-1.13-1.715-.465-.3-.853-.73-1.55-1.716-.94-.49-.654-.882-1.406-1.252-2.185-.595-.124-.472.452-.93.465-.097-.758-1.02-1-1.563-.465-.683-1.707-2.334-2.45-2.496-4.68-.24 0-.575.097-.627-.162.097-1.63-.49-2.877-.3-4.525-.872-.097-.692-.76-1.094-1.56-.683-.35-.692.74-.94.3.168-1.31 0-1.997 0-3.432-.806-.226-1.398-.683-1.716-1.405-.168.097-.504.825-.465.162-.524-3.532-4.477-5-5.62-8.427-.683 0-1.443-.097-1.716.3-.22 1.203.768 1.213.94 2.03-.627.683-1.8-.155-2.653.3 0 2.126 2.405 1.116 3.6 1.562.75.284.71 1.104 1.405 1.248h1.09c.446 1.236 1.844 3.243 1.095 4.212.627-.103.954.097.938.627-.323-.103-.692-.407-.938-.155-.446 1.4-.155 2.26-.94 3.275.465.42.7 1.072 1.094 1.562-.863 1.132.99 1.823.155 2.963.117.35.595.343.627.778-.633 1.473 1.803 1.702 1.405 2.966.304 0 .3-.22.465-.323.362.35-.097.608 0 1.094.75.343 1.363.825 2.184 1.094.407 1.087.29 1.88.3 2.806 1.184.74 2.635 1.22 3.277 2.498-.853.122-1.136-.323-1.72-.465-12.595-5.093-22.526-12.847-37.92-15.14-3.813-2.53-9.296-1.99-14.514-2.027C2.31 11.75.793 12.727 0 14.433c.26 4.897 2.447 7.854 4.7 10.775 4.916 4.552 7.546 11.386 14.98 13.42 4.817 2.844 12.998-1.963 17 1.248 1.754.096 2.47 1.176 4.372 1.094.768.683 2.363.55 3.432.94-6.494 1.465-14.002 1.915-17 6.867 0 3.054 1.938 6.14 3.744 7.022 3.178 1.553 7.658.22 11.86.777-.485 1.338-2.4 1.233-2.653 2.8.18.53 1.433.162 1.562.3-.097.844-1.177.702-1.252 1.563.18 0 .168.246.162.472.15.362.853.188 1.094.465-.74 2.067-2.17 3.45-3.28 5.148-2.36.096-3.585 1.305-4.215 3.122.343.24.362.787.938.787.73-.414 2.025-1.568 3.12-.627-.362 1.085 0 2.26 1.405 2.027.806-1.513 0-3.187.3-4.522.4-1.844 3.15-4.112 4.373-5.308.758-.097.683.664 1.4.627.987-.73 2.003-1.432 2.03-3.12 1.004-.702 1.514-2.595 1.248-4.058 2.46-.453 5.086-.74 7.5-1.248 3.338-2.54 4.67-7.09 8.74-8.898-.24.654.806 0 .778.465-.207.265-.407.524-.3 1.093.2.38 1.23-.097 1.405.3-.627 0-.595.71-.472 1.093 1.46 0 2.445 1.116 3.12 2.34-1.053.2-.9 1.588-1.405 2.342-.7.29-1.26-.226-1.716.3 0 1.092.76 1.2.3 2.342-1.388 0-3.49.835-2.184 2.027-1.06.595-1.682-.465-2.5-.627-.446.627-.882.265-1.716.162-.304.168-.22.72-.465.938-1.9-.27-2.718 2.094-2.184 2.81-.835.096-1.2.582-1.56 1.09-2.24.674-4.312 1.514-5.462 3.277-.097.49.414.407.465.778a9.5 9.5 0 0 0-1.404.939c-.097.543.097.872.155 1.248-.362.427-1.026.543-1.09 1.252.18.692.778.92 1.248.94-.683.33-1.004 1.225-.627 2.184.446 0 .796 0 .94.3-.24.284-.556.472-.465 1.09.278.297.96.187 1.094.627-1.472 1.49-4.094 1.835-4.37 4.526.427.35.692.4 1.09.465-.863.692-1.922 1.198-2.497 2.184.097.588.9.446.94 1.095-.168.453-.663.588-.627 1.247.882 1.464-.95 2.33-.777 4.057.246.323.787.362 1.405.3-.117 1 .633 1.134 1.248 1.405v1.405c.207.3.825.22.94.627-.284 2.382.362 3.794 1.404 5.46-.646 1.548-1.053 3.026-.94 4.683 1.12-.2 1.607.94 2.652.3-.117-.962-.207-1.848.162-2.655 1.528.825 3.013 1.81 4.523.3 0-2.374-2.715-1.976-4.054-2.967-.72-.53-.485-1.444-1.408-1.716-.37-.75-.683-2.123-.465-2.964h1.248c.388-.4-.24-.853.3-1.094.18.18.55.18.94.162.407-.53.72-1.158.627-2.187 2.168.187.872-3.074 1.716-4.212.692-.168 1.136.38 1.56 0 .265-.778-.097-2.18-.3-2.967.265-.26.633-.407.627-.94-.882-1.617-2.023-3.8-2.342-5.46.4.33.673.787 1.405.778.304-.38.15-1.196 1.1-.94.323-.702-.097-1.195.162-1.873.304-.207.89-.155 1.248-.3.097-1.774.524-3.03-.3-4.058 1.255-.94-.097-4.458 2.026-5.15.674.72 1.477.673 2.342.155-.446 1.84-1.56 4.663-.162 6.4 0 .368-.543.29-.465.777.155 4.053.35 7.614 3.277 8.584 1.255-.72 3.873.49 5.463-.162-.778-.246 1.223-.162.94-.94-.142-.278-.582-.26-.627-.627.51-.096 1-.135 1.095-.627.097-.608-.646-.4-.778-.778.226-.13.608-.122.465-.627-.24-.882-.504-.9-.3-2.028-.683-1.036-3.058.096-4.215-1.093.304-.162.407-.53.627-.778 1.447.33 2.86-.37 3.904-1.248-.207-.3-1.092.096-1.094-.465 1.025-.892-.73-1.23-.627-2.188h1.562c.265-.51.097-.996 0-1.56.55-.096.853-1.22 1.248-.94-.097.614 0 1.153.3 1.404 1.476.33 1.604-1.515 2.498-1.248 0 .155.135.187.162.3 0 .343-.664.096-.938.162-.097.543.097.873.15 1.248.29.226 1.036 0 1.25.3-.188.446-.188.964 0 1.405-.452 0-.543.29-.778.465.13 1.166.9 1.69 1.716 2.184-.29.33-.806.446-.627 1.248 1.65.74 3.76.556 5.616.778-2.43.33-3.403.575-5.774.162.207 1.3-1.16 1.022-1.1 2.184.29.278 1.03.117 1.56.162-1.2.94 0 2.192-.155 3.6.633.35 1.818.162 2.027.94 1.197.155 1.768-.3 2.496-.627 5.31.2 11.31.096 15.14-2.338.226.388.74.504.627 1.248-.97-.24-.815.633-1.09 1.09-.55-.304-.9 0-1.562 0-4.265 1.79-10.663 1.828-16.385 1.248-.49-.187-.778-.588-1.562-.472-.76 1.22.673 2.18.162 3.436.472.3 1.353.2 1.56.778-.18.284-.407.53-.627.777-.452-.168-.806-.446-1.562-.3-.097.38-.22.71-.155 1.248.297.168.74.2 1.09.3-.343.362 0 .882.162 1.248 2.25-.427 4.026.71 5.928.778 2.375.096 4.598-1.06 7.336-.94 1.396-.582 2.555-1.398 4.526-1.404 2.12-1.387 3.1-5.15 2.653-8.115 1.83-1.52 1.944-5.516 1.562-8.738-.427-.155-.892-.26-1.25-.465-.097-.3-.388-1.158 0-1.405.26.323.787.362 1.405.3.983-1.217-.74-2.91-.15-4.214.504.226.692.768 1.56.627.155-1.076 1.044-.543 1.248-1.405.26-.633-.93-.614-.465-.94.407.55 1.532-.33 1.72 0 .096.972 0 1.782-.627 2.03.26 3.213-.683 6.856 1.248 8.895.142-.433.608-.543.94-.778-.117.472.278.465.162.94.38.096.71.226 1.248.155.246.692.57 1.305.777 2.03-.37.135.3.265.627.627-.524 2.288-2.04 3.58-2.5 5.93.304.55 1.02.543 1.405.627-.137.863-.504 1.474-.778 2.185.844.4 1.197 2.073 1.716 2.184-.683.93.096 1.898.627 2.5-.57 1.667 1.536 1.85 1.09 3.9.265.7 1.376.15 1.56.627-1.11.972-.472 3.685-1.405 4.84-.368-.096-.588-.246-1.1-.162-1.067.853-1.42 2.428-1.874 3.9.207.465.614.74 1.405.627.362-1.41.882-2.652 2.963-2.34.137.805.207 1.67.162 2.652.38.246.663.582 1.402.465.825-1.056.104-2.23.162-3.746-1.52-.963-.627-4.393.3-5.616.427.35.55.53 1.248.3.4-1.525 1.103-3.624.3-4.995.388 0 .485-.29.778 0v-.777c2.515-.414.92-3.5.3-4.837a1.51 1.51 0 0 0 1.251 0c.187-.9-.485-.97-.627-1.562.446 0 1.02.096 1.248-.15 0-2.027-2.127-2.432-1.716-4.37-1.56-.627-1.936-2.436-3.6-2.967-.2-.485-.24-1.11-.3-1.716.388 0 .75 0 .94-.162.142-.71-.265-.882-.3-1.405.646-.13 1.92.362 1.873-.465-1.892-1.697-2.66-3.814-4.214-5.616.246-.226.543-.388.627-.778-.3-.57-.977-.796-1.405-1.25 1-3.356-4.178-2.913-5.773-4.68v-1.405c-.504-.168-.55-.796-1.405-.627.3-.29.096-.74 0-1.094-.504-.26-.844-.096-1.405 0 .162-.575-.323-.504-.465-.777-1.584-.18-1.585 1.226-3.125 1.1-.096.226.188.806-.155.787-.646-.51-.3-.778 0-1.405-.98-.997-2.533-1.424-3.278-2.657.53 0 1.264.122 1.56-.15.246-1.595-1.62-1.08-1.4-2.653-.323-.452-1.2-.362-1.405-.94.627-.155.963-.595.778-1.562.51.26.595 0 1.248 0 .097-.504-.104-.72-.15-1.09.207.278.9.485 1.248.155.122-.646-.24-.796-.155-1.402 1.148-.15 1.197-1.406 2.184-1.72 5.325 4.402 8.525 10.93 16.074 13.1-.18 1.527.37 2.33.627 3.432 1.124-.187.9.977 1.405 1.408 1.23-.137 1.5.892 2.498.155.92 1.9 1.912 3.704 2.963 5.462-.35 1.107-.57 2.342-1.1 3.28.343.124.614.3.627.777-.207-.096-.29-.226-.627-.162.097 1.13 1.373.9 2.184.627.246-.863-.55-2.313.3-3.12.683.663 1.807.9 2.653 1.405-.162-.73.73-.414.627-1.094-.873-1.38-2.212-2.893-3.904-2.964-.407-1.908-1.37-3.707-2.027-5.776 2.36-.097 1.61-2.246.465-3.12 5.085-.74 9.196-2.458 13.42-4.058.26-.787.768-1.31 1.405-1.716 1.334-4.346-1.842-6.475-4.058-8.27-2.912-1.615-7.27-1.786-10.457-3.124-.504-.135-.207.51-.627.465 0-.323-.3-.42-.465-.627 2.798-.096 5.06-.664 7.5-1.095 1.003-1.485 2.71-2.028 4.058-2.8 0 .53.575 0 .162.627 1.776.53 2.676 1.635 4.522 1.873 5.124.664 9.9-1.16 12.33-3.28 1.67-1.455 2.734-3.608 4.37-5.305 1.472-1.527 3.067-3.652 4.058-5.462.35-.646.93-.796 1.248-1.248.343-.485.407-1.214.778-1.873.844-1.515 1.94-2.82 2.03-4.215.135-2.123-1.183-3.413-1.562-4.37-3.22-2.106-8.25-1.534-12.638-.778-5.65.972-11.08 3.478-15.762 4.68-6.016 2.568-11.198 5.97-17.946 7.805-4.335 1.804-8.955 4.157-13.267 5.462 0-.4.284-.55.465-.778 1.093.097.89-.29 1.562-.777.9-.654 2.804-1.843 3.6-2.342.627-.4 1.004-.104 1.405 0 .278-.975 1.045-1.453 1.405-2.34-.38-2.777 3.27-2.862 3.9-5.148.155-.627-.465-.472-.3-1.093.654-1.43 1.934-2.228 2.496-3.747-.75-1.805.465-3.39.15-5.616-.226-.097-.805.18-.777-.162.096-2.293 2.04-3.367 3.434-4.526.94-.778 1.888-1.134 3.122-.465.097-.75 1.687 0 2.026-.465.42-1.325-.777-1.24-1.873-.94-.26-.265-.654-.388-.627-.94.187-.9 1.526-.654 1.248-2.028-.33-.123-.634-.187-.9-.226zM10.926 12.728c.588 1.13 2.848.588 3.905 1.25.097.226-.188.806.15.778 1.118-1.02 2.616.26 4.054.3-.3.116-.446.654-.162.93.758 0 .38-.55.627-.777 3.886.796 7.29 2.07 10.922 3.12.465.787 1.87.627 2.342 1.405C39.9 22.24 45.45 26.303 51.49 29.887c1.226.284 2.262.758 3.124 1.405 2.776.758 5.734 1.34 8.427 2.184.18.465-.117 1.07.3 1.562-2.456.427-5.014-1.264-7.804-1.873-2.428-.53-5.176-.407-7.643-1.405-2.123.93-4.167-.654-6.557-.472-.38-.3.265-.74-.15-1.093 0-.465-1.157.22-.94-.472-.4.72-1.747 1.175-2.5.627-1.344.646-3.157 1.058-4.68.778-.633-.117-1.02-.674-1.715-1.09-2.195-1.32-4.16-2.324-5.463-4.215V24.73c-.284-.49-.862-.702-1.405-.93-.226.137-.49.226-.465.627 1.696 3.244 4.407 5.477 7.647 7.18-.13.758.142 1.105.3 1.56-.768-.142-.446.796-.778 1.092-3.543-2.226-6.677-4.126-10.14-5.774-.265 1.04.9 1.134 1.716 1.562.93.49 2.018 1.325 3.12 2.027 1.93 1.23 3.543 2.336 5.462 3.435-.187.872 1.028 1.147.778 1.56-4.372.3-9.792 1.657-13.732-.3-5.622-2.8-9.146-9.11-13.266-13.264-.465-2.124-3.844-4.553-3.6-7.336.3-3.374 5.624-2.835 9.05-2.8.297 0 .097-.53.3-.627zM8.14 13.966c-.2 0-.38.168-.343.323.104.123.93.407.777-.162 0-.168-.246-.207-.446-.168zm-3.656.097c-.446.097-.504.787.2.9.097-.297.343-.388.3-.778-.104-.097-.207-.103-.29-.116h-.22zm149.7.362c2.73.001 4.074 1.162 5.296 3.038.162 3.178-1.623 4.406-2.65 6.396-.38.4-.33-.323-.94-.155-.556.504.614.683.155 1.09-1.01 2.106-2.816 4.26-4.526 6.4-1.62 2.028-3.28 4.26-5.305 5.62-.882.595-1.686.683-3.122 1.09-1.57.452-3.883 1.094-6.552.777-2.136-.26-4.49-1.573-4.526-2.495 0-.825 2.848-3.2 3.59-3.747 1.78-1.337 3.64-1.798 4.994-3.12.9-.137 1.844-.24 2.184-.94-.097-.226-.24-.388-.3-.627-6.983 2.483-10.966 7.967-16.695 11.704-1.06-.096-1.965 0-2.652.304.562-2.51-.595-4.026-1.09-5.93 1.58-1.853 5.447-2.252 8.115-2.496.18 0 .135-.284.155-.465 3.524-.95 6.71-2.24 7.96-5.463 1.73-.168 2.513.608 3.432 1.248 1.152-1.673-2.995-1.677-3.747-2.964-.646 1.454-2.977 0-3.743.94-.778-.097.427-.38.3-.787 0-.485-.407-.633-.627-.94.72-1.45 3.75-2.91 5.152-1.716.142-.53.37-.978.777-1.248.323.2.284.76.94.627.608 0 0-.787.3-.787 3.432-.72 8.368-1.3 12.174-1.873.9-.136 1.705-.634 2.8.162.226-1.813-3.53-1.396-4.837-.94-.543 0-.226-.92-1.094-.627-.343 0-.096.664-.155.94-4.638.873-9.66 1.37-14.046 2.5-.964 1.118-3.07 1.092-3.433 2.8.265.556.55 1.112 1.09 1.405-.588.504-2.07.117-2.81.465.284.38.92-.22 1.562 0-.304.582-1.65.117-2.184.465.104-.4-.097-1.202-.627-1.405-.122 0-.155.155-.3.155-.627.2.465.75 0 .787-.872.265-1.917.37-3.12.3 0-1.344.882-1.82 1.09-2.967 3.333-1.682 7.6-3.29 12.33-4.526 2.204-.582 4.433-1.723 7.18-2.18.72-.123 1.78-.278 2.495-.3.246 0 .446.3.465.3-.22 0 2.557-.702 3.278-.787.446-.097.863-.097 1.257-.097zm-140.775.097c-.137.18-.207.42-.155.787h.627c0-.446 0-.853-.465-.787zm141.278.74c-.57 0-.73.89 0 .825.226-.136.343-.388.3-.777-.096 0-.188-.097-.265 0zm-145.8 0c.117.427-.3.3-.3.627.2.22.93.278.94-.15-.207-.155-.304-.427-.627-.472zm8.426.778c-.188.24-.504.608-.162.94.29 0 .343-.18.627-.162.097-.49-.187-.634-.465-.778zm-7.724.323c-.142 0-.284.097-.388.15 0 .297.168.343.155.627.4 0 .608-.226.627-.627-.104-.103-.246-.15-.388-.15zm-6.74 0c-.18 0-.4 0-.524.142 0 .465.562.55.787.3.097-.278-.097-.407-.265-.453zm11.36.097c-.22 0-.388.155-.168.674 1.015-.142.53-.654.168-.674zm58.817 0c.524-.103.57.26.627.627-.524.103-.57-.26-.627-.627zm-67.574.155c-.137.504.24.49.465.627.097-.207.226-.304.162-.627zm14.672.162c0 .362 0 .588.3.627.097-.207.226-.304.162-.627zm71.315 0c.673 0 .446.825-.155.778-.135-.446.22-.407.155-.778zm66.638 0a.77.77 0 0 0-.778.162c0 .796.892.683.778-.162zm-68.355.162c.122.24-.524 1.03-.94 1.248 0-.74.664-.796.94-1.248zm56.73.162c-.142 0-.284.097-.388.155 0 .388.35.38.465.627 0-.3.427-.2.3-.627-.104-.097-.246-.155-.388-.155zm-72.49.465h.627c-.137.446.22.407.162.787-.562 0-.815-.226-.778-.787zm16.575.368c.137-.001.284.097.433.26-.15.323-.323.614-.465.94-.388 0-.75 0-.94-.155.24-.35.556-1.032.97-1.037zm-74.94.103c-.692 1.114-.588 3.43 1.1 3.435.097-.825-.654-1.624-.15-2.342 3.432.55 6.748.992 10.143 2.184-2.096-1.73-6.497-3.46-10.143-2.652-.26-.26-.407-.633-.94-.627zm5.927 0c-.207.2-.24.768.162.778.207-.2.24-.768-.162-.778zm49.625 0c.582 0 .4.226.3.627-.582 0-.388-.226-.3-.627zm-60.392.162c-.304.304-.162.955.465.778 0-.446 0-.853-.465-.778zm14.203.155c.304.582.297 1.473 1.248 1.405.226-.844-.485-.76-.465-1.405zm131.557 0v.627c.49.096.7-.137.627-.627zm-3.837.2c-.096 0-.162.097-.22.117-.162.524.485.246.777.3 0-.35-.304-.485-.556-.427zm-59.212.117v.778c-.35-.097-.556-.278-.627-.627.142-.122.35-.162.627-.155zm-87.198 0c-.104 0-.226.097-.35.117 0 .446.2.74.777.627.097-.57-.117-.778-.427-.74zm-1.167.26c-.35 0-.633.472-.278.796.4 0 .608-.226.627-.627-.104-.122-.226-.168-.35-.168zm142.357.168c-.097.226-.226.4-.3.627.18.135.42.207.787.155.096-.49-.2-.633-.472-.778zm2.814 0c0 .22-.097.343-.162.465.207 0 .304.226.627.162v-.627zm-120.792.162c0 .207-.22.29-.155.627h.778c.104-.524-.265-.57-.627-.627zm124.224.155c-.24.226-.15.815.3.778.18-.453.096-.575-.3-.778zm-61.473.246a.59.59 0 0 1 .768.381c0 .27-.187.323-.155.627-.414-.001-.89.097-1.094-.155 0-.446.2-.74.485-.844zm52.1.097c-.2.94.815.9.778.155-.18-.137-.42-.207-.778-.155zM70.85 19.9h.778c.155.627-.93.627-.778 0zm80.682 0c-.246.24-.24.89.3.777.24-.226.15-.815-.3-.777zm-9.17 0c-.104 0-.226 0-.35.142-.096.49.135.692.627.627.24-.35.096-.76-.278-.768zm-48.885.768h.465c0 .407-.097.673-.465.627zm54.78 0c-.097.608.278.768.155 1.405 1.012 0 .485-.872.465-1.405zM32.435 21c-.22 0-.42.097-.446.304.097.38.955.805.938 0-.097-.162-.278-.284-.49-.304zM155.9 21c-.188 0-.38.155-.3.453h.627c.096-.304-.122-.453-.3-.453zm-23.72.137c0 .29.18.343.162.627.407 0 .4-.323.465-.627zm-.543.122c-.504.155-.646 1.223.388.97.137-.18.207-.42.155-.778-.104-.104-.207-.162-.304-.187h-.24zm14.45.38a.51.51 0 0 0-.491.433c.13.137 1.22.427 1.094-.155-.117-.24-.368-.323-.595-.284zm-136.73.122c0 .168-.168.246-.3.3-.485 0-1.014-.37-1.402 0 .38 1.833 3.29 1.473 5.148 1.72.796.104 1.464.51 2.184.465 1.35-.097 2.77-1.003 3.9-.94.38.097.33.608.938.472.472-.155.49-.76 1.094-.778 6.44.096 12.933 1.65 17.164 4.836-.097.368-.673.26-.465.94.51.26.595 0 1.248 0 0-.278-.162-.787.3-.627.53.246.49 1.074.938 1.405-.388-2.213-1.385-3.927-1.873-5.62.104-.3.93.096.778-.466 0-.2-.2-.22-.155-.465-.777.524-.692-.162-1.248 0-.168.948.49 1.064.465 1.873-.433.187-.588.664-.778 1.094-1.768-1.04-4.133-1.484-5.46-2.967-.575-.162-.246.588-.777.465-4.204-1.715-10.205-1.743-15.138-.778-.362 0-.168-.446-.465-.465-.37.453.29.575 0 .777-2.506.097-4.8-.096-6.09-1.248zm19.663 0c-.18 0-.362.097-.465.162-.142.71.323.815.93.778v-.778c-.104-.104-.284-.162-.465-.162zm114.235.162c0 .407.097.664.472.627 0-.22.097-.343.15-.466-.207-.097-.29-.22-.627-.15zm-108.3.3c-.104.575.246.692.778.627v-.627zm102.284 0c-.29 0-.608.188-.543.614.187.18.55.168.94.15.162-.504-.104-.75-.4-.777zm-8.68.096c-.2 0-.35.24-.284.71.29 0 .343.18.627.162.407-.485 0-.92-.343-.872zm-121.852.246c-.097.673.388.608.787.465.097-.49-.33-.504-.787-.465zm129.062.3c-.758.787.9 1.486.627.162-.29 0-.343-.18-.627-.162zm-10.3.162c-1.01 3.466-2.513 6.435-4.21 9.2-5.528 1.362-11.64 1.32-17.324 2.338-.614 0-.472-.663-1.094-.627-.24.96-1.658.73-2.59.993 2.807-1.347 5.855-3.032 8.828-3.646.57-.94 1.902-1.116 2.66-1.874.35.097-.096.9.627.627.543-.29-.278-.93.3-1.56 4.57-1.516 8.706-3.465 12.796-5.463zm17.792 0c-.097.304-.446.284-.3.787h.627c0-.388-.096-.654-.3-.787zm-2.813.627c0 .388 0 .75.3.778.001-.3.427-.2.3-.627-.207 0-.29-.226-.627-.162zm9.834 0c0 .097 0 .18-.162.162 0 .407.22.51.627.465 0-.407-.097-.673-.465-.627zm-2.656.162c0 .29.18.343.162.627.485.097.692-.135.627-.627zm-65.946 0c3.127.097 6.207.73 8.363 1.983 1.623-.74 2.65 1.193 4.21 1.094.097.362 0 .595-.155.777.104.465.614.524 1.248.465-.162.446-.162.654 0 1.094h1.094c-.504 1.152.49 1.532 1.402 1.716-.096.853-.524.22-.778 0 .29.74 0 1.192.627 1.716-1.197.654-3.05.504-4.058-.155-.207.096-.246.278-.465.3.453 1.49-.815 2.107.155 3.277-.94.388-.24 1.733-.3 2.495-1.288-.2-.608 1.576-.778 2.496 1.026.9 2.648 1.205 3.6 2.188.096.414-.465.974 0 1.248-.135.226-.504.226-.778.3-.096.627-.096.472 0 1.094-.75 0-.362-1.096-1.093-1.094-.343-.096-.226.29-.465.3-.096.844.633.92.627 1.716-.692-.168-.777.265-1.248.3-.407-.472-.135-1.638-1.094-1.563-.49.654.142 1.514.3 2.03.57.142.834-.278 1.094 0v.3c-.284.55-1.488.18-1.094 1.405-.633.284-.92.304-1.716.155-.524.446-.097.9-.15 1.72-.9-.22-2.53-.452-3.122-.465.265.673 1.17.72 1.72.3.097.37.22.71.155 1.248-.49-.24-.614-.844-1.405-.778-.407 0-.407.33-.472.627-.53-.096-.872.096-1.248.155a1.74 1.74 0 0 1 .939-1.247c.117-.787-.278-1.074-.465-1.563-.388 0-.758 0-.777.3-.3-.155-.246-.692-.778-.627-.485.096-.778.368-.94.777-.265-.2-.2-.74-.627-.777-.427.096-.872.162-.778.777-.575.162-.246-.588-.777-.472-.768.168-.76 1.112-.94 1.874-.543-.137-.343-1-.778-1.248 0-.284.524-.096.627-.3-.155-.524 0-1.387-.777-1.248-.304.117-.226 1.152.162 1.09-.673.104-1.074.49-1.72.627-.304-.873-.38-1.076-.465-2.03-1.3-.323-.504 1.46-.93 2.02-.278-.142-.4-.433-.938-.304.168 1.343 1.132 1.89 2.03 2.5-.73.51-1.288 1.206-1.715 2.027-.33-.504.75-.9.465-1.87 0-.362-.453-.168-.465-.465-.407.168-.75.388-.94.778-1.266-.806-1.2-2-2.968-2.342-.2-.595.26-1.282-.938-1.093.51-.608 1.626-1.35 1.093-2.495-.9 0-1.09.787-1.25 1.56-1.275-.673 1.272-1.612.3-2.964-.646.188-1.35 1.144-.94 1.873-.72.168-1.715.692-1.873.465.93-.407-.485-1.263.3-1.72-.162-.608-.543 0-1.094-.155 0-.453.595-.343.465-.94 0-.122-.162-.15-.162-.3-.663-.096-.633.51-1.248.465.543-1.873 3.965-2.378 4.215-4.214.155-1.09-1.034-1.367-.3-2.495 1.433-.18 1.976-1.253 2.342-2.5-1.378-.35-1.613 2.496-3.275 1.873.187-.388.633-.51.777-.94-.246-1.11-1.143-2.834-.777-3.9-.806-1.22-1.83-2.233-3.747-2.342.465-.992 1.372-1.538 1.715-2.652.853.096 1.396-.168 1.405-.94.882.323 1.772.104 1.56-1.093 1.063-.304 1.768.362 2.188-.778 2.347-1.083 5.52-1.6 8.647-1.515zm-5.84 26.172c.168-1.028.096-1.476-.627-2.027-.787.362-.543 2.246.627 2.027zm78.343-25.905c-.362 0-.588 0-.627.3.207.096.304.226.627.162zm-1.405 0c-.187 0-.368.155-.3.452h.627c.096-.304-.122-.452-.3-.452zm-133.588.142v.778c.664.142.787-.26.938-.627-.18-.18-.55-.168-.938-.15zm-9.673.15c-.388 0-.758 0-.777.3.26.323.844.427.777-.3zm69.133.465c-.4.29-.187.768 0 1.248.414 0 .892.096 1.094-.155-.155-.575-.362-1.096-1.094-1.094zm-55.538.29h-.33c-.26.42-.362.588 0 .94.362-.096.673-.162.787-.472-.207-.104-.22-.407-.452-.485zm-13.905.168c.097.38-.284.343-.162.778h.627c0-.4 0-.806-.465-.778zm20.9 0c-.117.633.155.892.778.778v-.778zm10.925 0c-.246.825 1.03.825.778 0zm40.8 0c-.407.137-.427.664-.388 1.256.265.207.524.407 1.09.3.097-.627-.278-.862-.155-1.56-.24-.096-.414-.096-.55 0zm55.332 0c-.278 1.184-1.312 1.603-2.03 2.342-.388 0-.38-.35-.627-.465-.524 0-.162.882-.465 1.09-2.706 1.317-6.887 2.767-10.142 2.5-.74-.117-.207 1.042-1.093.778.096-1.198 1.72-1.015 1.248-2.342.427-.543.796-.168 1.093-.778.117-.53-.634-.2-.466-.777.33-.55.562-1.213.778-1.873 4.046.162 7.318-.608 11.705-.465zm-108.324.226c-.24 0-.465.168-.446.55.588 0 .446.168.938 0 0-.35-.26-.543-.49-.55zm15.207.104c-.18 0-.4 0-.524.142.097.55.407.407.787.3.097-.278-.097-.407-.265-.453zm79.697 0c-.188 0-.38.15-.3.453h.627c.096-.304-.124-.453-.3-.453zm-106.973 0c-.265 0-.51 0-.71.122.246.692 2.488.692 1.72 1.405.472-.117.452.265.94.162.097-.226.226-.4.3-.627-.485-.504-1.464-1.008-2.257-1.056zm-4.84.117c-.207 0-.388.104-.388.323.187.168.284.446.777.3 0-.22.097-.343.162-.465-.104-.104-.343-.18-.55-.162zm141.836.207h-.207c-.104 0-.207.096-.323.104-.18.633.472.768.777.465.096-.4-.097-.55-.246-.575zm-14.106.117c-.137.18-.207.42-.15.778h.627v-.778zm-48.61.137c-.524-.096-1.024.4-1.953.343-.142.453-.142.485 0 .94 1.1 0 2.086-.2 2.498-.94-.188-.207-.37-.304-.55-.343zm58.054.18h-.4c-.33.57.796.702.627.155 0-.117-.117-.155-.226-.162zm-71.558 0c-.38 0-.75 0-.94.155-.097.815.226 1.227.778 1.405.3-.362.427-1.03.15-1.562zm-65.117.155c-.4.096-.33.74.2.627 0-.427.26-.3 0-.627h-.2zm20.485 0c-.362-.097-.595 0-.778.162.097.588.524.633.938.465 0-.29-.18-.343-.162-.627zm39.952 0c-.595 1.12 1.52 1.6 2.03.787-.452-.472-1.285-.588-2.03-.787zm70.07.162c-.097.53.096.89.627.777 0-.29.168-.35.155-.627-.18-.137-.42-.207-.778-.15zm-11.81 0c-.18 0-.4 0-.524.142-.117.543.55.556.778.3.096-.265-.097-.407-.26-.452zm-46.243.142c-.137.18-.207.414-.15.777.882.26 1.002-.9.15-.777zm34.96 0c-.2.692.4 1 .778.627 0-.29-.18-.343-.162-.627zm-110.18.15c-.343.362-.097.975.472.94 0-.122 0-.304.15-.3 0-.4-.226-.608-.627-.627zm120.398.162c-.142 0-.284.096-.388.15.097.35.272.55.627.627 0-.29.18-.343.162-.627a.54.54 0 0 0-.388-.149zm-83.256.142c-.4 0-.608.226-.627.627.207.096.304.226.627.162.117-.485.117-.29 0-.778zm71.63 0c0 .122-.13.18-.3.15-.117.472.265.465.162.94.388 0 .75 0 .94-.162-.104-.472-.246-.892-.778-.93zm9.524 0c-.096.29-.446.284-.3.777.2.22.74.22.94 0 0-.504-.188-.75-.627-.777zm-36.65.265c-.73 0-1.476.37-1.274 1.138.7.24 1.936-.207 2.34-.777-.207-.24-.633-.362-1.067-.362zm-66.04 0c-.362-.096-.595 0-.777.162-.122.7 1.04.588.777-.162zm-9.52 0c-.246.226-.226.892.3.778.246-.24.226-.89-.3-.778zm16.546 0c-.368.524.3 1 .777.627v-.465c-.18-.137-.42-.207-.777-.162zm83.648 0c.104.835-1.14.323-.94 1.248h.94c-.162-.524.22-.51.627-.465 0-.504-.188-.75-.627-.777zm-44.872.33c-.15 0-.29.096-.388.135-.22 1.096 1.242 1.404 1.405.465 0-.465-.57-.654-1.018-.595zm49.55.135c0 .49-.362.692-.3 1.248.3 0 .2.427.627.3 0-.122.13-.18.3-.162-.135-.627.226-1.15 0-1.402h-.627zm-85.204.15c-.362 0-.608 0-.787.162-.117.7 1.044.588.787-.162zm5.616.162c-.485.427.2 1.11.627.627-.097-.362-.104-.73-.627-.627zm1.716 0c-.137.49.142.588.3.777.433 0 .663-.278.627-.787zm95.5 0c0 .37-.543.29-.466.777.246 0 .122.4.466.3 0-.187 0-.368.3-.3 0-.388-.097-.646-.3-.777zm12.016 0c0 .388.24.49.465.627.096-.207.226-.304.162-.627zm-105.05.142h-.29c-.097.226-.226.388-.3.614.446 0 1.07.13 1.1-.3-.22-.097-.265-.278-.485-.33zm47.17.284c-.57 0-1.197.18-1.42.362.097 1.2 1.912.768 2.495.3 0-.504-.504-.673-1.074-.673zm-74.145 0c0 .096 0 .188-.162.15 0 .407.22.51.627.465 0-.407-.097-.664-.472-.627zm51.422.104c-.135 0-.265.097-.388.207-.097.9.787.882 1.405 1.094.142-.278.433-.4.3-.94-.51-.117-.93-.427-1.325-.362zm-54.858.097c-.278 0-.485 0-.627.162 0 .22.097.343.155.465.407 0 .51-.22.465-.627zm33.655.142c-.29.096-.4.304-.414.633.18.137.414.207.777.162v-.787h-.362zm-22.642 0h-.246v.627c.702.18.73-.543.246-.627zm88.866 0c-.863.226-1.53.654-1.716 1.56h.627c.407-.22.278-.967 1.09-.777zm29.734.142h-.24c-.096.207-.226.29-.162.627h.472c0-.207.096-.543-.096-.627zm-109.59.188c-.24 0-.452.26-.362.595.433.137.407-.22.777-.162.097-.35-.188-.485-.414-.433zm12.437.137c0 .278-.524.096-.627.3 0 .504.35.682.93.627 0-.414.097-.9-.3-.93zm103.62 0c.096.362.104.73.627.627v-.627zm-15.256.142c-.117 0-.24 0-.35.168-.104.524.265.582.627.627.362-.323.096-.787-.278-.796zm12.915 0c-.362.362 0 .835.472.778 0-.446 0-.853-.466-.778zm-79.557.562c-.188 0-.362 0-.504.096-.33 1.054 1.467 1.494 1.873.787-.097-.543-.796-.825-1.375-.844zm-18.76.096c-.265 0-.485 0-.627.155 0 .388.24.49.472.627.135-.18.207-.42.162-.778zm42.678 0c-.323 0-.614.097-.853.137-.122.543.18.664.3.94 1.705-.51 2.818 1.376 3.275-.777-.608-.2-1.783-.343-2.736-.285zm17.662.117h-.26c.097.853-.948.614-.778 1.563 1.058.097 1.315-.664 1.56-1.405-.284 0-.33-.13-.524-.18zm6.345 0c-.187 0-.388.001-.51.137v.465c.24.24 1.07.278.94-.3-.096-.155-.24-.26-.414-.29zm13.842.297c-.22.92-.815 2.77-.155 3.9 1.334-.226.633-2.484 1.092-3.59-.323-.097-.446-.388-.94-.3zm-10.925.15a.77.77 0 0 0-.778.162c.096.304.096.673.472.627.226-.137.343-.4.3-.787zm-45.568.162c-.22.2-.22.74 0 .94.362.097.595 0 .777-.162.135-.446-.22-.407-.162-.777zm-21.38.15c0 .446 0 .853.472.778.097-.207.22-.297.15-.627-.207-.096-.29-.226-.627-.155zm58.012.155c-.4.096-.33.74.2.627.26-.3 0-.2 0-.627h-.2zm1.3 0c-.168.627.472.768.778.465.097-.49-.33-.504-.778-.465zm-4.53.15c-.407.323-.758.692-.777 1.405.614-.142.388.543 1.1.3.096-.633.096-1.247-.3-1.716zm41.283.155h-.388c-.33.582.787.7.627.155 0-.117-.117-.155-.226-.162zm-133.51 0c-.097.207-.226.304-.162.627.446.137.407-.22.787-.162 0-.407-.22-.51-.627-.465zm125.268 0h-.18c-.097 0-.155.097-.24.137 0 .29.18.343.162.627.702.097.646-.683.265-.768zm-100.296.142c.446.796.284 2.213.3 3.436h-1.094c0 1.074.446 1.742.94 2.338 1.02-.278 1.555-.38 2.184.3.575.097.284-.75.777-.778 3.806.407 8.163 1.507 12.642.938 2.067-.265 4.182-1.2 6.24-.627-4.82.9-10.03 3.066-15.447 2.34-.55 0 .33.51-.162.472-.427 0-1.156.22-.94-.472-3.616.265-6.95-1.043-9.674-2.187-.29-.29 0-.388 0-.778-3.078.3-3.855-1.742-3.746-4.208 2.376-.595 5.362-.844 7.96-.787zm105.026 0c0 .388.24.49.465.627.096-.207.226-.29.162-.627zm-89.19.162c-.142 0-.284.096-.388.155 0 .407.22.51.627.465 0-.22.097-.343.155-.465-.104-.104-.246-.155-.388-.155zm-38.66 0c-.104 0-.2.096-.278.142-.097.49.33.504.777.472.137-.472-.2-.674-.504-.614zm4.095.142c0 .207-.097.343-.162.472.207.096.304.22.627.15v-.627zm19.977 0c5.13.44 10.043 1.087 14.357 2.34.304-.362-.89-.562-1.405-.627 2.983-.368 5.256 1.4 7.333 2.027-4.3 1.172-11.1 1.233-16.542.465-.75-.104-2.435-.22-3.274-.778-.452-.71.485-.42.465-1.094.137-.654-.692-.343-.93-.627v-1.716zm66.946.155c-.097.323-.388.446-.3.94.18.13.42.207.778.155.343-.38.122-1.155-.465-1.09zm-34.77.188c-.168 0-.35.135-.504.433 0 .595.22 1.025.777 1.09.654-.485.226-1.542-.284-1.526zm-54.907 0c-.137 0-.284 0-.524.104 0 .446.2.74.777.627 0-.22.097-.343.155-.465-.162-.135-.278-.226-.407-.26zm16.946.122c-.362 0-.787.187-.777.595.4.362 1.146.38 1.094-.465-.097-.096-.2-.122-.323-.13zm24.82.13c-.407 0-.673.096-.627.465.265.284.614 0 .627-.465zm45.033.096c-.42 0-.92.104-1.178.097-.137.504.246.485.3.777.614-.096 1.343 0 1.248-.777-.117-.097-.24-.097-.38-.097zm-47.063.097c0 .407.097.663.472.627.226-.22.097-.74-.465-.627zm-33.896.452c-.35 0-.646.472-.278.796.49.097.692-.137.627-.627a.44.44 0 0 0-.343-.168zm37.02 0c-.388 0-.758 0-.777.3.29.096.284.446.777.3zm59.145 0c.155.74.524 1.246.627 2.024-1.077-.226-2.453-.142-3.747-.155-.595.097-.104-.94-.627-.94-.692-.097-.304.863-.465.94-.768 0-1.502 0-1.874-.3-.614-.246-.097.673-.465.627-3.764.835-9.105 0-13.267.778 1.407-1.87 5.9-.646 7.96-1.873 3.86 0 7.33-.472 10.922-.778.323-.097.446-.388.94-.3zm15.606 0c0 .407.096.663.465.627.097-.207.226-.29.162-.627zm4.994 0c-.278 0-.485 0-.627.15-.137.504.24.49.472.627.137-.18.207-.414.155-.777zm-13.417.15h-.3v.627h.627c.096-.368-.097-.575-.3-.627zm-87.93 0c-.663-.117.097 1.323.38.162-.162-.097-.284-.142-.38-.162zm105.013 0c-.142 0-.284.096-.388.15 0 .4.226.595.627.627 0-.207.226-.29.155-.627a.54.54 0 0 0-.388-.149zm-19.354.117c-.265 0-.49.104-.388.35.246.284.92.452.938-.15 0-.122-.297-.207-.55-.2zm-60.35 0h.973c.226.862.692 1.493 1.1 2.184-.097.097-.142.097-.22.097h-.265c-.38-.137-.872-.51-1.48-.673a1.69 1.69 0 0 0-.997 0c-.097-.2-.097-.35-.117-.51v-.142c-.001-.187 0-.35.122-.472.162-.265.485-.407.9-.452zm-28.675 0c-.362 1.048 1.294 1.048.93 0zm109.707 0c-.096.226-.226.388-.3.627.18.137.42.207.778.162.097-.49-.188-.633-.465-.778zm-128.28.15h-.3v.627h.627c.097-.368-.097-.575-.3-.627zm26.316.168c-.188 0-.388.104-.57.142.097.38.135.806.627.778.3-.104.414-.414.472-.778-.15-.15-.33-.168-.524-.142zm-16.8.142c-.504.72.835 1.13.627 0zm29.035.26c-.142 0-.26 0-.323.096.9.246-.162.683.3 1.25h.465c.097-.825.343-.89.938-.94-.265-.168-.96-.362-1.394-.37zm-9.382.35c-.674.097-.768.968 0 .957.407-.207.485-.51.3-.94h-.323zm-9.354 0c-.362-.096-.595 0-.778.155 0 .407.097.673.465.627.226-.137.343-.4.3-.787zm-12.915 0c-.097 0-.117.097-.187.122 0 .844.614.446.3 1.405.407 0 .673-.096.627-.465-.407-.2-.304-.51-.155-.94-.297 0-.42-.168-.588-.122zm9.487.284c-.37.427-.35.98.465.938.22-.2.22-.74 0-.938zm102.26 0c-.142 0-.284.142-.362.278.122 0 .18.137.162.3.407 0 .673-.096.627-.465-.117-.122-.278-.15-.414-.117zm-85.966 0c-.278 0-.57.187-.53.575.18 0 .24.18.3.3.29 0 .343-.18.627-.162.122-.485-.135-.72-.4-.74zm-30.498.117c-.362-.097-.595 0-.777.15-.207.93 1.115.76.777-.15zm44.136.226c.226 0 .323.117.805.096.097.38-1.22.57-1.094 0 .122-.096.207-.096.284-.096zm-34.147.096c-.278 0-.485 0-.627.162-.162.472.35.278.627.3v-.465zm-2.288.22a1.14 1.14 0 0 0-.524.104c-.097.362 0 .595.162.778.465 0 .654-.278.778-.627-.162-.137-.284-.226-.414-.26zm112.98.122c-.18 0-.4 0-.524.137-.117.543.55.556.778.3.096-.265-.096-.407-.26-.446zm-117.875.137c-.3 1.018 1.1 1.018.787 0zm29.03 0c0 .22-.097.343-.162.465.304.304.957.162.777-.465zm86.765 0c0 .3-.427.2-.3.627.18.137.42.207.778.162-.142-.278 0-.835-.465-.778zm4.683 0v.777h.627v-.777zm-45.764.142c.7.096 1.424.18 1.913.168 0 .188-.35.278-.588.38-.117.097-.22.117-.24.207 0 .097 0 .2.207.35-.155.137-.407.162-.595.26s-.304.265-.18.683h.362c.104 0 .2 0 .278-.096.096 0 .096-.096.104-.142v-.446h1.56v.284c0 .096 0 .142-.096.207-.096.117-.2.187-.323.26-.13.096-.278.122-.4.187-.124.097-.226.162-.278.304-1.59-.096-2.826-.504-4.37-.627v-.94c.862.414.414-.49.777-.778.433-.343 1.127-.38 1.833-.33zm18.74.188h1.6a12.56 12.56 0 0 1 3.89.608c-.096.368.284.343.155.777.104.57-.74.188-.778.627-.207.778.9.24.627 1.09-6.046 1.21-13.128.246-19.037-.3-.692-.096-1.404.162-2.03-.155 0-.388.998-1.17.162-1.41.815-.49 2.195-.627 2.653.162.575 0 .304-.504.465-.627 4.212.122 8.5-.654 12.3-.758zm9.862.29c-.096.53-.427.825-.465 1.405h.94c-.155-.646.388-1 0-1.405zm-14.535.608c-.38.097-.504.44-1.073.323.104 1.1 1.5.452 1.562-.3-.207-.096-.362 0-.485 0zm-2.843.3c-.29.096-.4.304-.407.633.18.135.414.207.778.162v-.777h-.37zm-63.77 0c-.097.226-.226.388-.3.627.18.18.55.18.94.155.097-.38-.284-.343-.162-.778zm59.925 0c-.137.18-.207.42-.162.778h.787c.097-.38-.284-.343-.162-.787zm-37.613.778c0 .407.33.407.627.465-.49.53-.427 1.02-.162 1.72-1.14.162-1.767.835-2.496 1.402-.588.162-.246-.588-.787-.465-.7 0-.627.835-.627 1.562-1.51 1.036-2.964 2.135-3.747 3.9.938.155.777-.787 1.562-.778-1.848 1.77-2.593 4.248-4.215 5.773-.575.55-1.89 1.43-2.652 1.716-1.528.582-3.416.096-5.773.3-1.162.137-2.28.693-3.436.778-2.192.162-4.402-.137-6.707 0-1.6.097-3.486.142-4.998 0-2.642-.246-6.277-3.16-5.148-5.93.674-1.656 4.885-3.747 7.178-4.212 3.5-.71 6.912-1.317 9.99-1.72-1.59 1.063-3.328 1.98-4.84 3.12-.26 0 .246-.74-.15-.94-.226.096-.4.24-.627.3.097.304.097.673.465.627-.787.882-1.92 1.4-2.495 2.5 2.162-.44 3.142-2.058 5.148-2.653.3.94.265 2.224 1.248 2.496-1.268.504-1.785 1.752-3.6 1.716-.097 1.468-2.148 1.784-2.342 3.6.996-.096 1.014-1.17 2.342-.94.646-1.646 2.14-2.44 3.904-2.964-.304.304-.162.955.465.778.29-.673.15-1.275.3-2.027 2.936.388 3.63-1.47 6.085-1.563.343 0 .33-.388.3-.778 3.944-1.83 8.07-3.475 12.327-4.994-.278-1.262 1.213-2.487 2.8-2.8zm38.546 0v.627h.787v-.627zm11.394 0c-.104.485-.104.304 0 .778h1.248v-.787zm-70.535 0c-.37-.097-.595 0-.778.155-.117.575.246.692.778.627zm26.132.778c-.226 0-.427 0-.543.162v.465c.543.38 1.4.433 1.248-.627h-.702zm-12.4.323c-.452.24-.988.4-1.57.51-.588.117-1.217.187-1.847.26.427-.272 1.005-.4 1.616-.485.608-.096 1.254-.15 1.817-.29zm2.807.3c.188.816-.33.92-.938.94-2.33 1.207-4.694 2.38-7.49 3.122-.33.29-.796.446-1.248.627-.53.117-.2-.633-.787-.465-.427.414.117.55.162.938-2.443.973-4.51 3.037-7.958 2.495-2.364-3.163 2.912-3.056 3.59-5.148 5.52-.2 10.602-.844 14.668-2.498zm31.615.768c.278 0 .627.3 1.003.18-.26.778-.796.246-1.25 0 .096-.122.15-.168.246-.18zm-19.596 0c-.74-.122-.92.323-.93.93.778.155 1.014-.24.94-.938zm21.694.627c3.53.162 5.84 1.55 9.99 1.093 2.33 1.176 6.43-.226 8.737 1.094 0 .614-1.1.096-.777.93.284.343.92.33 1.563.3-.162.892.683.768.777 1.402-.2.582-.38 1.2-.627 1.72-3.767-.162-7.553-1.904-11.236-3.12-3.114-1.026-6.726-1.512-8.427-3.434zm-19.977.3c-.72 0-.9.55-.94 1.248.284.388.965.388 1.248 0-.097-.767-.304-.595-.3-1.248zm1.56 0c-.278.51-.768 1.45-.3 2.185 1.287.343 1.008-1.936.3-2.185zm3.588 0c-.863.18-1.15.93-1.247 1.874.18 0 .246.168.3.3.692.096.825-.427 1.247-.627-.168-.452-.446-.805-.3-1.56zm1.563 0c-.168.453-.664.588-.627 1.248.825.155 1.058-.29 1.248-.777-.407 0-.122-.608-.627-.465zm-11.86.466c-.778.29-1.83.853-1.405 1.867.796-.304 1.477-.7 1.716-1.56 0-.168-.168-.246-.3-.3zm17.48.465c-.304.452 0 1.4.627 1.405.4-.55 0-1.4-.627-1.405zm16.835.304h-.29c-.137.18-.207.414-.155.778.796.29 1.026-.683.452-.796zm-33.07 0c-.965.304-2.142 1.457-1.56 2.342.758-.543 1.53-1.074 1.56-2.342zm17.946 0c-.53.38-.29 1.294.627 1.094.135-.71-.168-.974-.627-1.094zm11.86 0c0 .388.24.49.472.627 0-.29.168-.35.155-.627zm14.05.3c2.287.72 5.138.3 7.8.778 1.84.323 3.36 1.5 4.994 1.56-.117.485.543.188.3.778 3.586.155 5.18 5.36 2.342 7.49-6.088 2.728-16 5.02-22.473 1.562-1.9-1.016-3.226-3.693-5.148-5.15-2.348-1.783-4.805-4.295-6.71-6.085 1.304-.427 5.045.75 6.864 1.404.71.26 1.037.472 2.03.777.882.278 1.742.51 2.653.778 1.05.3 2.782.75 3.274 1.562h.787c1.47 2.065 3.908 3.158 6.703 3.897.388-.155-.22-.595 0-1.087-1.12.207-2.572-.22-3.278-1.25 2.917-1.906 6.368.674 7.803 2.652.433-1.58-2.256-3.724-4.214-4.212-.96-.24-2.07-.096-3.12-.155.155-1.205.74-2.096.465-3.28-.22-.955-1.422-1.174-1.09-2.026zm3.432 8.272c.465 0 .53.582.94.155.226-.278-.15-.892-.627-.94-.55.097-.4.407-.3.778zm-10.614-8.115c-.323.49-.633.096-1.094.304 0 1.184.73.207 1.405.3 0-.362 0-.588-.3-.627zm-48.782.162c-.117 0-.246 0-.38.15.097.29.097.674.465.627.446-.168.26-.73-.097-.777zm13.043.15c-1.087-.104-1.32 1.144-1.09 1.874 1.073.096.93-1.042 1.09-1.874zm13.153.2c-.162 0-.33 0-.51.117.265.57.485 1.184 1.248 1.248.104-.692-.26-1.286-.74-1.362zM69.8 43.7c-.9.18-1.09 1.658-.35 2.038.49-.446.673-1.2.778-2.028h-.427zm45.028.3c-.35 0-.646.472-.272.796.49.096.692-.135.627-.627a.44.44 0 0 0-.343-.168zm-14.796 0c0 .427-.265.3 0 .627 2.26 1.693 4.927 2.98 7.336 4.525-.37 0-.096.683 0 .778.72.15.948-.2 1.404-.3 3.112 1.83 7.088 2.796 9.52 5.305.673-.2.892-1.544.627-2.184-.796-.278-.362.673-.94.627-.608-.53-1.54-.75-2.184-1.248.097-.246.49-.137.3-.627-2.19.38-4.07-1.168-6.087-1.873.252-.42.362-.595 0-.94-.692-.168-.778.265-1.248.3-1.232-1.173-4.133-1.3-4.058-3.275-1.885.835-2.858-1.495-4.683-1.716zm-49.53 0c-.22-.096-.446.096-.72.137 0 .29.18.343.162.627.51 0 .75-.188.778-.627-.097-.096-.142-.117-.22-.137zm24.567.137c-.33.49-.446 1.422 0 1.873.93-.142.872-.35 1.716 0 .097-.362.3-.938 0-1.248-.388 0-.75 0-.938.155 0-.55-.226-.816-.778-.778zm7.18.162c0 .768.38 1.178.93 1.405.226 0 .265-.26.466-.3-.246-.588-.504-1.167-1.403-1.093zm2.77.096c-.097 0-.18 0-.278.097.097.75.343 1.32 1.093 1.4.35-.588-.187-1.555-.815-1.494zm-37.73.097c-.18.226-.446.38-.465.777.427-.117.3.3.627.3 0-.188 0-.37.3-.3 0-.446 0-.853-.465-.777zm64.92 0c-.117.485-.117.304 0 .777h.778v-.777zm7.795.362a.58.58 0 0 0-.614.414c.504.22.816.452.94-.3-.117-.097-.22-.097-.323-.104zm1.646 0c-.096 0-.155 0-.388.096.096.304.096.663.465.627.207-.104.29-.33.3-.627-.24-.096-.3-.096-.388-.096zm-61.58.096h-.29c-.137.18-.207.414-.155.777.796.29 1.026-.683.452-.796zm50.823.162c-.142 0-.284 0-.4.162 0 .562.226.816.777.778.407-.4 0-.92-.38-.94zm3.968 0v.627c.49.097.7-.137.627-.627zm9.797.614c-.35 0-.646.472-.272.796.49.096.7-.142.627-.627-.104-.122-.226-.168-.35-.168zm1.595 0c0 .388.35.38.465.627 0-.29.18-.343.162-.627zm-69.224.29c-.33.097-.465.323-.38.796h.778v-.777h-.4zm-9.246.246c-.24 0-.343.096-.646.24-.117.427.3.3.3.627.433 0 .663-.278.627-.777-.117 0-.207-.096-.284-.096zm77.7.096v1.252c.485.117.304.117.777 0-.162-.362-.097-.948-.3-1.252zm-35.9 0c-.7.93 1.037 2.687 1.56 1.402-.692-.29-.844-1.125-1.56-1.402zm-54.79.096c-.504 0-1.054.57-1.24 1.023.18.18.55.168.94.155-.162-.524.22-.51.627-.465 0-.22.097-.35.162-.472-.142-.168-.304-.24-.472-.24zm.796.097c-.097.207-.22.304-.162.627.2.207.73.207.93 0 0-.433-.265-.664-.778-.627zm2.024 0c-.097.53.097.89.627.777 0-.278 0-.485.162-.627-.18-.13-.42-.207-.787-.15zm18.73 0c-.362-.097-.595 0-.777.15 0 .407.22.51.627.472 0-.29.18-.343.162-.627zm66.166 0c0 .446.2.74.787.627v-.627zm-6.874.096c-.097 0-.187 0-.304.096-.168.634.485.778.787.472-.097-.407-.207-.575-.485-.562zm-83.578.096c-.104 0-.226.097-.37.18v.472c.99.7 1.113-.796.37-.646zm55.342 0c0 1.15.285 2.11 1.405 2.184-.278-.93-.44-1.956-1.405-2.188zm-28.872.627c-.44.096-.873.168-.778.778.57.304 1.087-.207.778-.778zm26.684 0c-.097 1.063.614 2.038 1.56 1.56-.26-.683-.608-1.264-1.25-1.562zm-47.44.162c-.097.633.427 1.215.94.778-.097-.472-.343-.796-.94-.778zm35.74 0c-.75.388-.844 1.978.155 2.18.362-.26.673-2.19-.155-2.184zm54.15.162c-.265 0-.485 0-.627.15-.137.504.24.49.465.627.137-.18.207-.414.162-.777zm-84.505.207c-.24 0-.472.188-.388.582h.778c.097-.388-.155-.582-.388-.582zm89.342.42c-.297 0-.343.168-.627.15-.097.49.13.692.627.627zm-99.88.15c0 .297-.168.343-.155.627a.58.58 0 0 0 .778 0c0-.4-.226-.595-.627-.627zm26.687 0c-.37.096-.73.207-.777.627 0 .2.2.22.162.472.768.096.89-.562.627-1.092zm52.75 0c-.104.38-.3.806.3.778 0-.388-.096-.646-.3-.778zm17 0c0 .297.18.343.162.627.49.096.692-.13.627-.627zm-14.203.155c.278-.096.74 0 1.173.187.22.097.427.2.608.323s.323.265.407.414c-.187.096-.38.096-.57 0s-.38-.142-.562-.26c-.368-.226-.73-.524-1.05-.692zm-61.644.297a.81.81 0 0 0-.778.491c.297.627 1.9.362 1.716-.465-.26 0-.614-.096-.938 0zm-21.7 0c-.097.362 0 .595.155.777.4 0 .608-.226.627-.627-.18-.13-.42-.207-.778-.162zm101.88.096c-.343 0-.633.168-.595.702.38-.097.343.284.777.162.135-.18.207-.414.155-.787-.117 0-.226-.096-.343-.096zm-98.906.427c-.407 0-.654.485-.633 1.06.122 0 .304 0 .3.155.524-.096.71-.53.778-1.094-.168-.096-.323-.137-.452-.122zm15.986.124c-.142 0-.284.096-.388.155 0 .446.2.74.778.627v-.627c-.104-.104-.246-.155-.388-.155zm80.762.304c-.137.18-.207.42-.162.778.29 0 .343.168.627.15-.096-.38.284-.343.162-.777-.29 0-.343-.18-.627-.162zm-5.402 0c-.122 0-.246.096-.37.155v.465c.614 0 1.71.57 1.716-.465-.55.122-.964-.168-1.345-.155zm-70.13.155c0 .188 0 .37-.3.3 0 .872.414.75.94.465-.097-.368-.207-.73-.627-.777zm-19.38.75c-.692 0-.682.768-.75 1.432.38-.096.343.284.778.155-.2-.825.452-.796.3-1.56h-.343zm73.844 0c-.122.543.096.75.627.627v-.627zm-71.476.3c-.18 0-.368.096-.465.162 0 .29.18.343.162.627.51 0 .75-.188.778-.627-.104-.104-.284-.162-.465-.162zm-4.37.162c-.137.18-.207.414-.162.777h.777c.097-.53 0-.89-.627-.777zm19.82 0c-.362-.096-.595 0-.777.15 0 .446.187.74.777.627zm-3.472.15c-.278.097-.323.382-.278.778.683.2.995-.4.627-.778h-.35zm58.245.162c-.654 0-.844.304-.627.777.582.117.683-.246.627-.777zm21.54 0c-.117.575.246.692.778.627v-.627zm-98.396 0c-.24 0-.485.246-.388.73h.778c.097-.49-.155-.73-.388-.73zm18.338.575c-.446 0-.74.2-.627.778h.777a.77.77 0 0 0-.162-.778zm-3.027 0c-.22-.096-.446.104-.72.135 0 .51.187.75.627.777.097-.29.446-.284.3-.777-.097-.097-.142-.122-.22-.135zm-2.553 0c-.097 0-.124.097-.2.122-.15.627.93.627.778 0-.297 0-.414-.168-.588-.122zm-2.536.122c0 .3-.427.2-.3.627a.58.58 0 0 0 .778 0c-.097-.304-.097-.664-.465-.627zm-9.363.162c-.097.562-.24.75 0 1.248h.627c.407-.51 0-1.22-.627-1.248zm95.5 0c-.22.2-.278.93.155.93.097-.2.2-.323.465-.3 0-.4-.226-.608-.627-.627zm-18.007.595h-.407c-.427.582.433 1.02.94.627 0-.407-.168-.608-.524-.646zm-73.242.097c-.22 0-.452.284-.51.57.2.22.73.22.93 0 0-.472-.2-.614-.414-.57zm87.034.26a.81.81 0 0 0-.787.155c.096.304.096.673.465.627.33 0 .343-.388.3-.778zm-41.202.465c.3.104.414.414.472.777-.49-.097-.633.2-.777.465-.504-.414.135-1 .3-1.248zm6.868 0h.627c0 .53.304.834.627 1.094-.51.343-1.386-.278-1.248-1.094zm-10.61.465c.246.15 0 1.12-.465 1.094a2.75 2.75 0 0 1 .472-1.094zm33.394.162c-.304.304-.162.96.465.787.124-.543-.142-.693-.465-.787zm3.623.097h-.207c-.096 0-.2 0-.29.096-.096.49.33.504.778.465 0-.38-.096-.524-.284-.55zM93.06 56.204c1.713.226 2.798 1.886 3.38 3.283-.096.33-.246-.472-.778-.155-.844 1.367-1.923 2.7-2.184 4.215-.853-.135-.646-1.333-1.873-1.095-.343.285-.33.92-.3 1.56-.692 0-1.035-.414-1.25-.94-.142.122-.35.162-.627.155-.35.096-.097.768-.162 1.093-1.168.49-1.27-1.157-2.5-1.093-.3.15-.33.595-.3 1.093-.4 0-.55-.284-.777-.465-.664 0-.57.787-.778 1.248-.51-.38-.284-1.486-1.405-1.248-.55.18-.485.977-.472 1.716-.646.122-.984-.53-.627-.94-.35 0-1.643-.433-2.027.3-.388-.137-.35-.692-.94-.627-1.017.096-1.162 1.022-2.026 1.248-.097-.646-.582-.872-1.405-.777-.207.51-.562.9-1.252.94.18-.18.18-.55.162-.94-1.642-.71-3.08-.427-5.305-.938.135-.654-.427-.614-.627-.94-1.186.834-2.125-.343-3.12-.627-.758-1.552.24-1.403.627-2.807 0-.407-.22-.51-.627-.465a6.47 6.47 0 0 1 1.094-.939c0-.646-.207-.608 0-1.09 1.3-.168 2.265.278 2.964-.465.683.588 1.27.42 2.187.162-.33.608-.097 1.215.472 1.402.825 0 .863-.692 1.56-.778-.162.582.53.3.627.627.278-.187.825-.117.938-.465.796.265 1.215.872 1.87.15.472.26.57.892 1.25.94.465-.096.57-.472.778-.777.44 0 .446.49.778.627.575-.155.777-.683 1.248-.94.633.368 1.81.51 1.873-.472.504.768 2.888.825 2.653-.162.472-.246 2.187.758 2.184-.627.692.226 1.975 1.255 2.03 0 .485-.117.304.427.778.3.71-.3 1.355-.4 1.926-.323zm-27.363 6.253c.543 0 .595.55 1.09.627-.446.124-.71.427-1.09.627 0-.614-.633-.863 0-1.247zm4.927 1.853c.135 0 .29.096.465.124.096 0 .168.097.265.097h.278c-.096.187-.18.33-.323.453-.135.122-.29.226-.452.323-.323-.104-.104-.73-.465-.778.096-.122.15-.168.246-.168zm26.908 4.854c.104.096.18.117.246.18.096.097.104.142.142.226.096.168.096.38.096.614v1.612c-4.405-1.2-10.43 2.054-17 .94.104 0 .226 0 .33-.096 4.504-.815 10.187-.453 13.926-2.044.882-.37 1.657-.853 2.28-1.49zm-33.708.162c.796.863 1.51 1.82 2.653 2.34-.097 0-.168 0-.265.096-.27 0-.575-.117-.9-.246-.427-.18-.882-.407-1.328-.427.122-.75-.246-1.005-.162-1.716zm9.246 3.69c-.446 0-.796.284-.973.835 1.094.472 3.444 1.62 4.676.472-.74-.24-2.135-1.135-3.23-1.292h-.472zm-8.543 0c.33 0 .73.18 1.127.343s.796.323 1.134.33H66.2l-1.278-.304c-.097 0-.13 0-.2-.096a2.24 2.24 0 0 0-.74-.124c.137-.162.323-.226.543-.207zm22.864.99h1.402c-1.908.452-3.397.51-5.3.777.097-.104.187-.2.3-.278.614-.362 1.628-.323 2.552-.368.368 0 .73-.096 1.034-.135zm-15.073 6.3c-.22 0-.446 0-.692.096.472 2.082 4.09 2.25 5.62 1.09-.2-1.158-2.415-.29-2.967-1.09-.75.226-1.316-.096-1.964-.096zm-5.612.702h-.485c-.4.097-.692.35-.835.953-.097.26.265 2.903.162 2.342.29 1.508 1.24 3.005 2.027 4.212 0-.38-.683-.76-.155-1.09.72 1.353 2.126 3.173 4.057 2.338.33.142.453.472.94.472.142-1.314 2.59-.323 2.655-1.72-.168-.304-.72-.22-.938-.465-.096-.3.304-.595.3-1.248-.097-.368-.683-.155-.777-.465.57-.595.304-1.826.777-2.8-1.233-.853-2.818.343-3.747-.627 0-.3.427-.2.3-.627-1.318.097-3.08-1.116-4.295-1.272zM52.45 88.506s.097 0 .104.096c0 .096.097.142.097.26 0 .207-.097.485 0 .646-.097 0-.168 0-.22-.096-.142-.168-.097-.524-.097-.844h.168zm42.118.633c-1.16.142-1.928.674-2.652 1.248-4.8.096-9.464.72-13.424.778-.278 1.317.646 1.44 1.404 1.72h-1.09c-.485 1.006-.24 2.06.778 2.338-.427.097-.388.654-.94.627-1.426-1.175-2.484-2.72-3.588-4.215.608.135 1.45.278 2.026 0 .427-.608-.446-.787.162-1.1-1.82-.162-2.954-.414-4.37.3-.523-.608-1.817-.407-2.652-.3.588 2.152.524 1.682 1.1 2.34 1.495 2.303 4.752 2.844 6.245 5.155 1.47.246 2.29 1.142 3.743 1.405.433 0 .2-.74.777-.627.504-.187.122.504.627.3 2.64-.627 4.2-2.836 6.71-3.12 1.48-1.485 3.937-3.195 4.994-5.15.22-.407.627-1.222.155-1.716z" fill-rule="evenodd"/></svg>