<svg xmlns="http://www.w3.org/2000/svg" width="584.428" height="638.101" viewBox="0 0 154.63 168.831"><path fill="currentColor" d="M93.29 168.566c-1.463-.502-1.958-1-1.69-1.706.112-.292.5-.447 1.104-.447.828 0 .98-.117 1.353-1.054.387-.962.382-1.258-.054-3.405-.262-1.293-.62-2.5-.8-2.677-.386-.39-.436-2.297-.06-2.525.157-.098.09-.526-.175-1.077-.295-.618-.375-1.228-.25-1.887.223-1.194.553-1.466.614-.504.022.39.267.87.54 1.07.58.425.784.104.53-.822-.302-1.108-.902-1.6-2.084-1.714-1.708-.164-1.8-.258-3.013-3.513-.284-.747-.512-1.586-.512-1.864s-.245-.572-.548-.65c-.683-.178-.93-1.092-.564-2.063.227-.593.202-.74-.117-.74-.218 0-.47.302-.564.67s-.338.81-.548.986c-.662.547-.724-.36-.122-1.766.654-1.525.686-1.83.183-1.637-.3.117-.373-.307-.36-2.13.007-1.253-.077-2.426-.19-2.61s-.056-.776.12-1.318c.183-.556.26-1.564.17-2.305-.085-.722-.038-1.386.103-1.476s.26-.585.26-1.11a4.68 4.68 0 0 1 .444-1.811c.267-.515.335-.897.17-.95-.18-.06-.15-.75.085-1.986l1.775-7.4c.396-.75.29-2.767-.2-3.742-.245-.494-.498-1.586-.558-2.427-.187-2.51-.337-2.65-1.67-1.53-.81.684-.843.78-1.647 4.9-.117.6-.35 1.52-.515 2.043l-.648 2.18c-.19.676-.646 1.962-1.01 2.86-.556 1.38-.665 2.128-.692 4.766-.028 2.825-.077 3.127-.506 3.054-.47-.08-.64.237-.305.57.096.096.207.575.25 1.068s.23 1.63.416 2.528c.335 1.632.488 4.222.297 5.09-.173.798-.798.23-1.1-1.02-.167-.663-.235-1.665-.15-2.228.1-.684-.033-1.517-.406-2.517-.672-1.8-.69-2.5-.123-4.253.572-1.757.942-3.682 1.095-5.696.1-1.313.017-1.806-.428-2.52-.304-.5-.78-.885-1.062-.885-.57 0-.813.86-1.027 3.637-.155 1.99.29 1.975 1.04-.038.3-.8.698-1.42.918-1.42.497 0 .5.288-.016 1.264-.226.43-.412 1.21-.414 1.733-.008 1.297-.338 1.745-1.128 1.547-1.145-.285-1.27.03-1.01 2.54l.403 3.478c.1.72.04 1.3-.155 1.548-.248.297-.194.656.24 1.613.31.68.562 1.468.562 1.757s.242.828.537 1.206c.556.703.604 1.052.552 3.947-.025 1.52-.12 1.796-.906 2.628-.668.71-1.197.98-2.188 1.13-1.555.232-2.626-.158-2.626-.956 0-.564.063-.585 2.003-.705 1.297-.082 1.55-.324 1.808-1.74.172-.94.12-1.18-.324-1.5-.332-.234-.6-.86-.724-1.695-.17-1.133-.278-1.313-.773-1.262-.5.052-.602-.126-.766-1.362-.112-.84-.42-1.673-.746-2.027-.428-.465-.575-1.054-.643-2.587-.175-3.93-.33-4.895-.87-5.4-.46-.428-.496-.673-.283-2.02.155-1.005.142-1.714-.047-2.065-.157-.294-.272-.934-.255-1.422s-.044-1.133-.136-1.433c-.115-.367.05-.78.52-1.28.815-.87.942-1.736.215-1.452-.915.356-1.02.274-1.03-.8-.01-1.146.806-2.315 1.62-2.315.44 0 1.12-1.994.836-2.457-.283-.454-.635-.297-1.534.687-.93 1.024-1.8 1.307-1.457.477.466-1.133.474-1.506.03-1.754-.337-.188-.42-.485-.307-1.122.082-.478.025-1.052-.13-1.278-.237-.34-.412-.253-1.082.546-.44.525-.838 1.198-.882 1.498s-.202.545-.352.545-.313-.245-.365-.545-.204-.653-.332-.79c-.333-.348-1.08.333-.893.813.093.24-.025.386-.31.386-.316 0-.433-.187-.38-.613.104-.8-.23-1.307-.73-1.114-.468.176-.52-.265-.117-1.014.218-.408.2-.53-.115-.53-.218 0-.44-.136-.498-.307-.213-.635-1.593.964-1.678 1.942-.046.525-.25 1.487-.45 2.136-.246.79-.28 1.332-.106 1.634.354.616.253 4.372-.13 4.75-.35.354-.367 2.656-.035 4.827.228 1.482.218 1.51-.7 2.316-.513.45-.932.902-.932 1.002s.368.262.817.36c1.194.265 1.057 1.092-.414 2.5-.676.65-1.297 1.177-1.38 1.177-.932 0-2.838-2.596-2.838-3.863 0-.417-.15-1.316-.333-2-.255-.965-.258-1.357-.005-1.763.272-.436.24-.586-.21-.9-.297-.207-.463-.453-.37-.546s-.033-.365-.275-.607c-.302-.302-.44-.926-.44-1.99 0-1.22-.11-1.615-.512-1.868-.325-.202-.58-.796-.703-1.632-.142-.962-.412-1.515-1.02-2.073-.675-.627-.795-.91-.665-1.572.1-.45-.002-1.2-.212-1.69-1.34-3.15-2.55-8.496-3.065-13.54-.098-.97-.406-2.143-.68-2.61-.602-1.02-1.033-5.026-.543-5.026a.31.31 0 0 0 .314-.305c0-.22-.103-.218-.382.01-.552.46-.768 1.907-.86 5.787-.098 4.124-.893 7.812-2.27 10.525-.28.555-.593 1.517-.698 2.138-.175 1.04-.264 1.14-1.128 1.243-1.3.152-2.26-.32-3.44-1.716l-1.567-1.823c-.305-.343-.553-.866-.553-1.163 0-.314-.286-.673-.68-.853-.376-.168-.68-.39-.68-.487s-.373-.556-.83-1.024c-1.99-2.035-3.53-4.968-3.53-6.728 0-.665-.117-1.512-.258-1.886-.2-.503-.155-.763.136-1.005.218-.18.392-.465.387-.634s-.183-.077-.396.204c-.545.716-1.334.373-1.166-.504.07-.368-.005-.714-.166-.768-.405-.134-.215-2.408.246-2.92.215-.24.365-1.005.36-1.815-.008-1.145-.106-1.424-.532-1.536-.62-.164-.676-.806-.11-1.277.526-.436.526-1.26 0-1.46-.646-.248-.48-.883.43-1.648.803-.676.822-.747.506-1.706s-1.142-1.925-2.318-2.7c-.504-.332-.744-.28-2.18.5-.89.474-1.908 1.087-2.266 1.362-.367.28-1.1.496-1.686.496-.57 0-1.105.112-1.188.245s-.796.398-1.583.58-1.958.57-2.602.857a5.53 5.53 0 0 1-2.452.455c-.704-.038-1.71.07-2.234.24s-3.543.356-6.774.416l-5.82.112-.502-.826c-.383-.628-.43-.912-.194-1.198.948-1.142 3.176-1.455 10.78-1.523 2.918-.028 4.503-.145 4.63-.344.107-.166 1.325-.51 2.706-.76s3.22-.684 4.087-.956a80.58 80.58 0 0 1 2.904-.85c1.463-.39 4.527-2.095 4.527-2.52 0-.164-.504-.2-1.295-.087-4.16.583-9.65.736-12.54.352-1.405-.188-2.18-.174-2.655.04-.48.218-1.453.23-3.462.033l-4.423-.403c-1.865-.153-2.197-.232-4.16-.998-1.7-.664-1.837-1.22-.6-2.457.887-.885.86-.885 3.8-.212 3.67.838 10.296 1.06 23.634.803 1.896-.038 2.686.057 3.173.38.717.47 2.34 3.258 2.34 4.02 0 .69.438.864 1.152.463l.618-.346-.613-.093c-.782-.12-.77-.477.06-1.827.37-.6.675-1.283.68-1.52.016-.8 3-3.06 3.715-2.8.2.08.766-.1 1.255-.398.6-.362 1.073-.47 1.44-.33.335.13.77.073 1.128-.153.616-.386 2.36-.106 2.69.433.1.145.44.262.78.262s.875.278 1.188.613c.937 1.014 1.977 3.223 1.977 4.206 0 .59.155.98.436 1.087.518.2.95-.376.86-1.138-.055-.44.075-.534.697-.5l.763.054-.695-1.248c-.705-1.26-.904-2.267-.447-2.267.136 0 .474.46.75 1.022.318.656.72 1.054 1.1 1.108.848.123.806-.672-.068-1.36-.76-.6-.942-1.86-.27-1.86.23 0 .627-.13.885-.29.59-.365 1.972.098 1.972.66 0 .455.76 1.142.998.905.092-.093-.036-.474-.28-.848-.5-.743-.594-1.937-.194-2.185.322-.2.605.254.82 1.305.1.452.335.878.54.946.272.092.328-.052.204-.543-.092-.365-.04-1.117.112-1.67.223-.812.406-1.005.954-1.005.37 0 .746.185.833.408.223.586.62.24.453-.4-.1-.38.297-1.038 1.353-2.247.823-.94 1.577-2.095 1.68-2.566s.422-1.073.714-1.338.53-.672.532-.913c.005-.784 2.128-3.84 2.667-3.84.403 0 .482-.16.39-.793-.093-.615.033-.9.553-1.23.368-.24.896-.956 1.174-1.59.46-1.054 2.468-4.232 2.876-4.557.096-.074.635-1.096 1.2-2.27s1.18-2.196 1.367-2.267.42-.43.513-.792.515-1.183.942-1.82c1.675-2.492 2.482-3.855 2.482-4.192 0-.194.23-.57.512-.84s.602-.792.717-1.17.283-.74.373-.817c.168-.138 1.124-1.942 3.953-7.465.836-1.635 1.688-3.167 1.9-3.405s.675-.985 1.054-1.66 1.5-2.54 2.476-4.15 1.83-3.26 1.876-3.674c.057-.5.27-.786.632-.85.728-.13 1.706-1.055 2.35-2.222 1.362-2.473 2.384-3.814 2.904-3.814.114 0 .61-.364 1.094-.808.88-.803 2.902-1.612 3.223-1.29.335.336-.17 1-1.047 1.375-.492.2-1.478.948-2.2 1.638-1.247 1.208-1.56 1.956-1.054 2.503.13.142.4.73.575 1.304.243.765.454 1.012.782.916 2.272-.66 3.018-.8 3.43-.64.725.28.012.996-.99.996-.44 0-1.408.2-2.148.44-1.016.332-1.39.604-1.515 1.102-.215.852.02 1.066.784.72.338-.153.837-.2 1.11-.102.356.127.022.32-1.17.676-1.225.367-1.84.73-2.335 1.377-.787 1.033-.866 1.602-.193 1.404 1.2-.353 4.045-1.035 4.808-1.152 4.54-.7 5.44-.765 5.203-.38-.093.15-.65.272-1.232.272-.798 0-1.142.14-1.367.566-.166.3-.457.506-.65.434-.47-.18-.72.037-1.593 1.384-.414.636-.864 1.157-1 1.157-.542 0-1.105.904-1.105 1.774 0 .504-.126.994-.28 1.09-.596.37-1.775 3.274-1.686 4.15.106 1.023.365 1.076 2.35.474 1.25-.38 1.844-.363 1.44.04-.094.095-.942.383-1.885.64-1.362.372-1.73.587-1.798 1.054-.1.68.558.772 2.133.3 1.16-.35 2.645-.547 4.628-.616 1.326-.046 1.51-.123 1.586-.665.098-.7.065-.7-2.335-.62-3.045.1-1.784-.777 1.362-.946.736-.04 1.436-.18 1.553-.3.426-.467.548-3.786.166-4.52-.3-.578-.302-.765-.008-1.07.196-.202.398-.613.447-.912.08-.485-.085-.554-1.476-.627-.862-.045-1.567-.18-1.567-.297s.705-.326 1.567-.463c1.773-.282 1.713-.14 1.69-3.926-.016-2.75-.044-2.8-1.817-2.57-1.22.152-1.487.117-1.387-.187.068-.207.605-.483 1.194-.613 1.896-.42 1.827-.35 1.69-1.744-.08-.813-.445-1.787-.986-2.637-.474-.74-.86-1.568-.86-1.838 0-.336-.205-.492-.65-.492-.893 0-1.44-.68-.986-1.226.518-.624 1.316-.492 2.457.413 1.342 1.065 1.74 2.353 2.72 8.84.237 1.563.098 3.794-.575 9.27l-.597 5.175c-.183 1.65-.422 3.14-.534 3.31s-.463 1.768-.78 3.54c-.834 4.68-.965 5.318-1.27 6.222-.152.45-.547 1.8-.88 2.996-.578 2.087-1.724 4.52-2.604 5.522-1.946 2.22-2.17 2.95-1.005 3.228.412.098.932.326 1.157.51s.624.406.886.5c.744.264.578 1.416-.478 3.3-.526.937-.953 1.85-.953 2.03s-.43.962-.953 1.74c-.962 1.427-1.18 2.103-.684 2.103.15 0 1.405-.58 2.795-1.295s3.38-1.658 4.43-2.105 2.93-1.335 4.187-1.972 2.663-1.275 3.133-1.417c1.595-.487 3.203-1.12 4.478-1.765a19.05 19.05 0 0 1 2.637-1.055c.75-.225 2.342-.806 3.54-1.293s2.452-.915 2.782-.956.994-.272 1.473-.51 1.223-.435 1.656-.435 1.14-.18 1.564-.4 1.3-.47 1.96-.555c1.195-.158 4.775-.774 7.038-1.213.673-.13 3.063-.185 5.312-.122 3.405.094 4.36.218 5.688.727 2.013.77 2.81 1.506 3.054 2.803.354 1.885-2.14 7.98-4.49 10.964-1.757 2.232-10.16 10.202-12.64 11.984-1.187.855-2.73 2.018-3.42 2.585s-1.8 1.29-2.46 1.6-1.577.915-2.043 1.32-1.272.83-1.794.945-1.073.357-1.226.542-1.073.496-2.046.69c-2.967.588-2.977.597-2.642 1.857.26.97.22 1.194-.373 2.07-.403.6-1.492 1.473-2.787 2.236l-2.128 1.253.602.558c.33.31 1.033.632 1.558.717 1.244.2 1.443.787.346 1.007-1.576.314-.604 1.188 1.32 1.188 1.305 0 1.503.558.36 1.01-.712.28-.684.297.51.325 1.01.02 1.35.157 1.687.675.318.485.6.613 1.124.512.872-.166 1.5.324 1.316 1.03-.098.38-.002.534.326.534.256 0 .53.246.608.545s.304.546.503.546.52.223.717.496.572.575.833.672c.553.207.65 1.01.12 1.01-.196 0-.578.164-.85.363-.46.337-.425.403.493.945.54.32.986.76.986.98s.152.45.34.517c.27.1.272.24.005.692-.224.38-.243.623-.054.74a.43.43 0 0 1 .18.478c-.054.166.215.585.6.93.68.61.686.637.178 1.03s-.51.42-.022.956.482.57-.093 1.18c-.8.852-.74 1.4.23 2.09.53.376.817.82.817 1.25 0 .447.224.77.665.973.787.36 1.1.983.703 1.45-.196.234-.117.477.267.825.866.784.71 1.3-.34 1.098l-.885-.17.784.663c.773.653.782 1.266.016 1.266-.506 0-.496.28.04 1.043.344.5.365.698.098 1.02s-.245.5.112.893c.387.428.4.67.11 1.9-.255 1.076-.457 1.408-.847 1.408-.408 0-.475.136-.335.69.096.38.414.93.7 1.226.64.64.692 1.08.13 1.08-.59 0-.504.377.272 1.153.376.376.68.974.672 1.332s.07 1.05.167 1.534c.212 1.073-.316 1.225-.703.204-.14-.373-.384-.68-.54-.68-.43 0-.338.332.403 1.42 1.046 1.54.926 1.926-.34 1.098l-.728-.477.635.862c.676.915.572 1.75-.14 1.157-.58-.48-.813-.057-.286.523.7.784.547 1.136-.527 1.136-.746 0-1.012-.13-1.12-.537-.112-.424-.246-.482-.637-.272-.276.147-.88.264-1.343.264s-1.327.246-1.915.546c-1.063.54-2.615.656-4.18.3-.597-.133-.86-.42-1.152-1.264l-.382-1.16c-.003-.04.28-.002.632.085.586.147.627.09.52-.744l-.112-.905.583.923c.834 1.314 1.202.747.6-.93-.496-1.39-1.265-1.918-1.493-1.03-.103.395-.133.373-.157-.112a1.01 1.01 0 0 1 .512-.896c.32-.17.545-.57.545-.962 0-.74-.397-.905-.643-.265-.087.227-.395.408-.69.408s-.58.155-.642.34c-.087.26-.2.267-.5.033-.62-.498-1.597.038-1.785.98-.09.452-.28.75-.42.662s-.178-.513-.082-.948c.133-.602.077-.793-.24-.793-.23 0-.493.13-.59.286-.106.175-.635.218-1.354.11-1.9-.284-2.18.032-2.18 2.457 0 1.17-.128 2.154-.292 2.266-.55.368-.828 1.48-.69 2.766.05.46 1.112.608 2.085.286.735-.242 1.05-.242 1.35.005.435.362 3.922.534 4.127.2.07-.117.25-.138.397-.046s1.15-.022 2.228-.248 2.51-.488 3.18-.58 1.405-.335 1.634-.534.862-.438 1.4-.536c1.318-.235 1.732.267 1.515 1.838-.1.725-.04 1.297.147 1.488.223.223.23.484.02.948a2.71 2.71 0 0 0-.15 1.389c.12.62.057.735-.368.662s-.504.068-.46.864c.028.525-.013.8-.09.613s-.333-.34-.562-.34c-.422 0-.41.258.077 1.907.196.67.19.672-.36.187-.733-.646-1.054-.15-.477.733.55.84.057 1.25-.69.575-.494-.447-.51-.44-.408.176.262 1.588.262 1.784.005 1.76-.15-.013-.275-.272-.277-.57-.003-.344-.216-.576-.578-.627-.436-.063-.62.103-.763.68-.104.42-.687 1.223-1.295 1.787-1.04.96-1.098 1.09-.93 2.13.164 1.027.134 1.1-.376.935-.387-.122-.55-.052-.55.237 0 .564-.526.84-.896.474-.44-.442-1.283-.37-1.283.106 0 .227-.494.61-1.098.85s-1.22.67-1.37.953-.457.51-.683.51c-.537 0-.818-.768-.425-1.16.76-.76-.02-1.36-1.422-1.092-.604.118-.675.237-.54.92.164.82-.2 1.03-.956.548-.367-.232-.5-.43-1.588-2.378-.326-.583-1.337-1.833-2.25-2.778-1.286-1.33-1.782-1.68-2.2-1.548-.65.204-.686.494-.134.95.223.188.4.545.4.798a1.22 1.22 0 0 0 .294.75c.16.163.253.646.204 1.075-.068.595-.232.782-.68.782-1.018 0-.988.328.158 1.777.613.776 1.166 1.675 1.232 1.997l.272 1.32c.1.47-.038 1.056-.384 1.644-.464.785-.5 1.07-.246 1.99.164.59.314 2.144.335 3.452.044 2.64-.326 3.437-1.43 3.09-1.272-.403-1.29-1.923-.03-2.6.453-.243.51-.474.37-1.572-.1-.71-.316-1.534-.504-1.836s-.417-1.885-.51-3.517c-.13-2.25-.302-3.2-.714-3.888-.3-.504-.73-1.74-.956-2.75-.433-1.904-.85-2.934-1.438-3.557-.87-.916-1.248-2.183-1.36-4.54-.093-1.945-.264-2.756-.84-3.928-.398-.81-.847-1.517-.997-1.566-.174-.057-.24.953-.18 2.794.052 1.66-.033 3.2-.2 3.6-.164.398-.428 1.644-.59 2.768l-.5 3.47c-.265 1.844-.907 2.607-1.834 2.185-.572-.262-.763-.21-1.323.356-.65.654-.652.682-.223 1.973.362 1.09.376 1.42.087 1.96-.284.53-.284.813-.003 1.488.2.484.286 1.365.204 2.094-.1.78.005 1.6.245 2.185.54 1.296.553 5.48.02 6.513-.78 1.51-1.23 1.7-2.778 1.174zm21.465-17.992c.29.05.47-.068.433-.277-.032-.2.036-.578.153-.843s.127-.817.03-1.225c-.246-1.033-.248-1.223-.022-1.768.32-.766-.47-.576-1.23.302-.37.425-.714 1.194-.762 1.703s-.202 1.04-.338 1.18c-.323.337.54 1.3.94 1.04.17-.106.525-.155.798-.112zm2.433-.907c.073-.376.038-.686-.074-.686-.242 0-.537.695-.537 1.266 0 .627.464.186.61-.58zm-24.097-.705c.073-.64.063-.643-.34-.13-.504.64-.54 1.054-.077.9.188-.062.377-.408.417-.77zm1.717-.883c-.16-.164-.295-.754-.295-1.316s-.136-1.103-.302-1.206c-.218-.134-.248.302-.106 1.552.215 1.894.747 2.996.907 1.885.05-.34-.04-.75-.204-.915zm2.94.675c.52-.727.53-.86.158-2.247-.215-.812-.392-1.82-.395-2.236-.006-1.092-.733-2.35-1.534-2.656-.485-.185-.64-.4-.532-.744.218-.692-.72-2.288-1.644-2.8-.434-.243-.83-.672-.886-.962s-.264-.616-.466-.733-.302-.38-.223-.585.014-.455-.147-.553-.292-.428-.292-.728c0-.405-.127-.506-.492-.39-.426.133-.548-.106-.853-1.642-.297-1.496-.297-1.99.005-2.907.346-1.04.333-1.127-.237-1.503-.332-.22-.602-.57-.602-.777 0-.537-.36-.464-.74.15-.508.808-.218 8.768.332 9.176.227.166.408.494.408.724s.077.624.17.864c.15.396.204.39.53-.046.34-.46.38-.458.773.06a2.29 2.29 0 0 1 .406 1.225c-.014 1.043.457 3.8.69 4.02.115.114.18.02.15-.204-.138-.975.028-2.452.277-2.452.153 0 .272.768.272 1.757 0 1.874.523 2.836.576 1.05.014-.57.054-1.22.09-1.446a23.5 23.5 0 0 0 .106-.885c.025-.262.166-.477.31-.477.16 0 .204.877.115 2.248-.1 1.52-.063 2.124.12 1.866.148-.213.216-.523.153-.69s.046-.53.248-.806c.32-.44.37-.283.395 1.293.03 1.946.253 2.986.597 2.773.117-.074.155-.44.084-.82-.2-1.003.32-.843.627.196.148.487.417.855.602.817.43-.084.436.272.012.694-.455.455-1.036.412-1.036-.082 0-.224-.122-.408-.272-.408-.876 0 .436 1.5 1.412 1.616.103.01.433-.326.735-.752zm-7.32-11.76c0-.15.123-.272.272-.272s.272.122.272.272-.122.272-.272.272-.272-.122-.272-.272zm0-1.482c0-.532.123-.97.272-.97s.272.362.272.803-.122.874-.272.967c-.164.1-.272-.223-.272-.8zm22.874 9.836c.768-1.827.738-2.634-.106-2.634-.363 0-.706-.143-.763-.314-.183-.548-1.5-.008-2.127.87-.387.545-.515.986-.377 1.293.115.256.232.668.258.912s.455.95.95 1.567l.902 1.122.354-.75c.194-.415.602-1.343.907-2.068zm4.46 1.852c-.084-.217-.264-.4-.398-.4-.277 0-.326.642-.068.902.292.29.63-.074.466-.502zm-25.406-1.304c-.21-.21-.295-.057-.295.534 0 1.075.382 1.46.5.5.05-.408-.044-.872-.204-1.035zm14.838-.477c.272-.44-.997-1.65-1.637-1.558-.373.054-.583.318-.64.81-.073.642.023.744.817.84.496.06.986.13 1.1.153s.27-.087.37-.248zm9.52-.8c-.093-.15-.224-.272-.288-.272s-.12.122-.12.272.13.272.29.272.212-.123.12-.272zm-25.36-.498c-.016-.175-.046-.692-.068-1.15-.05-.98-.585-.825-.585.166 0 .368-.14.665-.305.665-.21 0-.196.133.04.42.382.46.962.398.918-.1zm.834-.063c-.234-.38-.398-.31-.398.168 0 .235.126.35.278.254s.204-.284.12-.422zm11.967-.415c.3-.806.18-1.75-.243-1.75-.447 0-.452.014-.56 1.295-.077.94.496 1.263.803.454zm17.328-.196c0-.196-.18-.597-.4-.885s-.403-.73-.4-.973-.193-.596-.416-.784c-.668-.553-.52.926.204 2.045.637.984 1.02 1.207 1.02.597zm-32.008-.2c-.093-.15-.224-.272-.288-.272s-.12.122-.12.272.13.272.29.272.212-.123.12-.272zm18.75-.115c.307.117.455.033.455-.264 0-.24-.12-.44-.267-.44-.305 0-1.474-2.432-1.27-2.64.254-.253 1.218.86 1.408 1.62.21.836.72 1.293.883.795.06-.176.28-.32.494-.32.623 0 .444-.53-.295-.866-.773-.35-.834-.68-.267-1.424.37-.5.426-.497.897-.068.9.803 1.304.547 1.945-1.202.33-.9.534-1.827.452-2.042-.196-.513-2.073-.534-2.073-.026 0 .363-1.086.998-1.716 1-.18.003-.62.436-.98.962-.744 1.095-1.213 1.103-1.34.025-.07-.6-.194-.705-.613-.57-.295.093-.526.037-.526-.126s.187-.29.416-.29c.677 0 .788-.8.224-1.586-.57-.798-2.274-3.974-2.274-4.24 0-.1.122-.166.272-.166s.272.185.272.408c0 .395.305.523 1.022.43.187-.026.34.084.34.24s-.122.283-.272.283-.272.122-.272.272.248.272.552.272c.65 0 1.043.78.548 1.085-.243.15-.253.264-.04.398.166.103.302.425.302.713 0 .53.295.69.632.352.1-.1.042-.35-.127-.553-.393-.47-.06-.84.373-.408.38.38 1.302.433 1.302.074 0-.136-.363-.553-.806-.923-.77-.65-1.414-2.1-.926-2.092.127 0 .512.43.85.953 1.002 1.548 1.263 1.357 3.048-2.203.99-1.98 1.027-2.433.218-2.937-1.092-.68-2.08-.77-2.932-.267-.667.395-.78.613-.686 1.332.06.47.362 1.3.672 1.86.668 1.2.703 1.528.153 1.528-.227 0-.4-.133-.4-.297 0-.53-.868-2.155-1.152-2.155-.15 0-.22.358-.155.8.155 1.06-.482.822-.697-.26-.18-.902-.72-1.092-.72-.257 0 .36-.183.545-.532.545-.468 0-.498-.093-.25-.8.152-.44.454-.946.667-1.123s.387-.482.387-.678.215-.436.477-.532c1.114-.405 2.794-3.108 3.754-6.03.52-1.59.945-3.183.945-3.536 0-.51.148-.65.682-.65 1.313 0 2.407 1.68 2.707 4.154.136 1.106.31 1.567.588 1.567.286 0 .382-.27.335-.95-.035-.523.082-1.1.265-1.28.395-.398.43-1.485.054-1.72-.506-.3-.28-.72.295-.537.512.164.56.085.484-.784-.093-1.098.207-1.577.62-.986.234.34.302.343.43.02.115-.288.275-.22.654.272l.504.65.005-.613c.002-.335.248-.855.548-1.152.54-.54.54-.54.983.136.246.373.676.675.956.675s.515.123.515.272c0 .5.504.288.68-.272.21-.656 1.1-.717 1.45-.096.136.246.39.36.558.256.438-.272.38-.978-.082-.978-.213 0-.588-.2-.834-.444-.295-.294-.54-.354-.716-.177-.48.482-1.602.074-1.602-.58 0-1.106-.553-1.307-1.53-.564-.504.384-1.068.605-1.313.51-.235-.1-.428-.033-.428.128s-.265.537-.59.84c-.552.515-.6.52-.948.08-.262-.34-.42-.38-.57-.15-.333.498-2.373 1.105-3.277.972-.45-.066-.9.016-1 .18s-.55.297-1 .297-1.145.158-1.55.35a3.47 3.47 0 0 1-1.553.264 60.61 60.61 0 0 0-1.714-.145c-.724-.046-.88-.163-.817-.604.068-.47.297-.548 1.714-.572.9-.014 2.64-.122 3.868-.243 2.223-.213 2.237-.218 2.406-1.06.093-.468.23-1.06.3-1.316.093-.33-.074-.52-.564-.643-.828-.207-.925-.923-.152-1.128.74-.193.69-.623-.07-.623-.337 0-.773-.25-.964-.558-.232-.373-.52-.504-.858-.398-.42.134-.703-.22-1.583-1.96-1.007-1.993-1.87-4.628-1.604-4.895.065-.065.326.47.583 1.2.454 1.286 1.332 3.38 1.74 4.157.115.216.37.447.57.513.27.09.3-.05.16-.53a14.8 14.8 0 0 1-.343-1.389c-.08-.408-.31-.883-.52-1.057-.493-.408-.488-1.065.01-1.065.33 0 1.1 1.92 1.405 3.497.115.6.978 1.406 1.5 1.406.267 0 .562.122.654.272.332.54.953.277.953-.398 0-.724-.798-1.33-1.435-1.087-.542.21-.85-.267-1.68-2.602-.398-1.122-1.024-2.644-1.39-3.383-.66-1.33-.69-1.918-.066-1.297.5.498.712.39.825-.428.103-.747.103-.744.567.272.457 1.01.82 1.26 1.122.77.264-.43-.967-2.248-1.406-2.08a2.98 2.98 0 0 1-.863.149c-.256 0-.98.5-1.602 1.1-1.302 1.253-1.438 1.288-2.108.545-.52-.574-1.226-.73-1.226-.272 0 .15.123.272.272.272s.272.122.272.27-.274.24-.613.205c-.566-.06-.623.068-.75 1.705-.077.974-.237 1.925-.36 2.114-.188.295.703 2.604 1.182 3.06.27.262.83 1.708.708 1.83-.218.22-1.53-.79-1.53-1.178 0-.607-.47-.433-.64.235-.17.686.117 2.138.65 3.27.463.984.087 1.33-.57.523-.926-1.145-1.337-.108-.653 1.654.11.283.057.477-.126.477-.17 0-.38-.36-.468-.8a1.28 1.28 0 0 0-.945-1.073c-.632-.22-.787-.436-.787-1.1 0-.974-.42-1.33-.766-.65-.365.706-.583 2.776-.313 2.942.255.158.144 1.564-.164 2.062-.106.175-.213.97-.232 1.77s-.185 1.607-.37 1.792c-.264.265-.335.21-.335-.267 0-.348-.17-.6-.408-.6-.253 0-.408.26-.408.676 0 .438-.262.84-.75 1.152-.95.605-1.15.888-1.153 1.646-.002.338-.236.845-.517 1.128-.782.782-.308 1.14 1.876 1.412 1.096.14 2.052.313 2.128.387s.272-.14.44-.474c.352-.703.81-.59.823.202.005.304.23.583.522.64.44.085.485-.013.32-.677a3.13 3.13 0 0 0-.747-1.291c-.55-.513-.566-1.103-.098-3.572.52-2.726.515-2.86-.087-2.86-.69 0-.773-.68-.13-1.04.34-.2.41-.487.29-1.223-.2-1.25.457-1.974.88-.964.33.792 1.24 1.866 1.583 1.866.14 0 .445.215.68.477.33.37.405.995.34 2.792-.06 1.662.035 2.572.338 3.218.316.675.343.98.11 1.21-.407.408-.398 1.37.016 1.782.253.256.227.326-.122.326-.248 0-.56.202-.698.445-.17.305-.307.346-.438.136-.103-.17-.368-.31-.583-.31-.728 0-.384 1.213.692 2.438 1.143 1.3 1.168 1.65.124 1.65-.408 0-.664.157-.664.408 0 .256.255.408.68.408.75 0 .918.398.272.646-.227.084-.408.365-.408.618 0 .616 1.547 3.773 2.054 4.195.438.365.54 1.506.15 1.747-.37.23-.022 1.222.536 1.522.27.145.574.54.68.874.258.855 1.27 1.916 1.487 1.56.098-.155.38-.204.632-.11zm-.997-.61a.75.75 0 0 1-.183-.464c0-.17.13-.155.32.042.178.176.26.384.183.463s-.224.057-.32-.04zm1.043-3.635c-.093-.15-.038-.272.12-.272s.29.122.29.272-.054.272-.12.272-.196-.122-.288-.272zm-3.51-2.576c-.248-.382-.354-.692-.237-.692.264 0 .97 1.1.806 1.262-.063.065-.32-.2-.57-.57zm3.68-6.593c-.02-.176-.112-.545-.21-.817-.136-.387-.1-.43.164-.188.185.172.278.54.206.818s-.144.362-.16.187zm-2.517-4.66c-.608-.758-1.106-1.738-.96-1.886s1.787 1.564 1.8 1.877c.02.436-.493.444-.84.01zm-.16-3.027c-.33-.58-.526-1.13-.43-1.222.35-.35.897-.153.897.32 0 .272.18.733.4 1.02.496.656.518.94.077.937-.188-.003-.61-.477-.942-1.057zm.534-2.674c-.436-.162-.457-1.526-.02-1.382.176.06.45.31.607.56.325.515-.038 1.02-.588.82zm-.51-5.108c-.17-.438.07-.967.438-.967.314 0 1.092.79 1.092 1.112 0 .414-1.367.286-1.53-.145zm2.143.215c-.47-.188-.43-1.182.05-1.182.435 0 1.244.72 1.244 1.112 0 .264-.717.304-1.295.07zm2.166-.642c-.444-.417-.522-.738-.4-1.684.082-.642.19-1.22.243-1.28.084-.096 1.466 2.817 1.466 3.086 0 .38-.855.297-1.308-.122zm-1.762-2.898l-1.373-2.72c-.39-.774-.787-1.755-.88-2.18l-.17-.776.5.616c.274.337.72 1.195.988 1.906a37.56 37.56 0 0 0 1.194 2.73c.39.792.637 1.506.555 1.6s-.45-.44-.814-1.166zm-3.195.724c0-.15.122-.272.272-.272s.272.122.272.272-.122.272-.272.272-.272-.123-.272-.272zm1.135-1.39c-.348-.607-.576-1.16-.508-1.228.168-.172 1.323 1.814 1.222 2.103-.044.128-.365-.267-.714-.874zm-1.386-3.35c-.01-.29.052-.45.142-.358s.1.325.022.52c-.087.218-.15.153-.164-.163zm.523-2.5c0-.234.122-.35.272-.258s.272.286.272.424-.122.257-.272.257-.272-.2-.272-.422zm2.718-.276c-.147-.384-.267-.893-.267-1.133 0-.376.07-.368.546.06.566.513.754 1.77.267 1.77-.155 0-.4-.314-.546-.698zm11.32 37.756c-.28-.31-.504-1.218-.608-2.46-.164-1.928-.152-1.967.422-1.784.463.147.585.073.585-.35 0-.646-.316-.782-2.375-1.014-1.54-.175-1.61-.155-1.925.542-.183.398-.33 1.138-.33 1.646s-.13 1.005-.29 1.103-.4.473-.54.833-.435.654-.664.654c-.556 0-.532.717.032.932.246.094.673.1.95.01s.776.033 1.112.267c.798.558 1.57.54 2-.05.318-.436.373-.414.68.262.185.403.53.773.773.82.608.122.722-.8.175-1.414zm-2.248-1.577c-.098-.262-.35-.602-.553-.758-.31-.232-.278-.37.188-.792.684-.62.722-.586.962.87.196 1.185-.225 1.67-.597.68zm3.76-2.335c-.2-.2-.294-.057-.294.534 0 1.077.38 1.46.498.5.05-.408-.044-.87-.204-1.035zm-21.473-.597c.07-.376.117-1.263.098-1.974-.022-.95-.136-1.29-.438-1.29-.33 0-.398.37-.352 1.906l.068 1.975c.005.038.12.068.25.068s.3-.307.373-.684zm-1.607-.822c-.216-.562-.368-.496-.368.16 0 .31.117.5.262.4s.2-.34.106-.56zm-19.708.13c0-.16-.123-.216-.273-.122s-.272.223-.272.288.123.12.272.12.273-.13.273-.286zm47.533-.26c0-.198-.152-.414-.34-.477-.2-.065-.34.13-.34.477s.14.546.34.478c.188-.06.34-.276.34-.478zm-23.584-.477c-.028-.98-.616-2.595-.994-2.72-.52-.17-.68.975-.225 1.623.234.333.424.886.424 1.228 0 .37.167.62.408.62.27 0 .4-.254.387-.75zm-9.183-1.427c-.112-.765-.602-.9-.602-.177 0 .264.508.99.69.99.02 0-.02-.365-.087-.815zm1.708-1.32c-.204-.206-.676.286-.676.706 0 .372.063.36.386-.082.213-.29.344-.572.29-.624zm-17.347.158c.202-.24.2-.65-.033-1.363-.35-1.12-.6-1.263-.926-.54-.597 1.323.175 2.852.96 1.904zm22.467-1.825c.155-.594-.435-1.244-.882-.97-.155.096-.284.474-.284.84 0 .825.956.935 1.166.13zm-3.367-.35c-.01-.335-.082-.46-.157-.272s-.31.34-.523.34-.387.122-.387.272.246.272.545.272c.4 0 .54-.175.523-.613zm2.103-.613c.087-.223.052-.956-.077-1.626-.23-1.207-.242-1.216-.915-.83-.376.215-.866.48-1.09.586-.65.305-1.82 1.29-1.327 1.117.243-.087.567-.033.72.12.187.186.473.17.885-.05.635-.338 1.07-.036 1.08.752.008.477.534.428.724-.068zm3.52-.834c-.8-.597-1.033-.47-.526.305.332.51.534.613.754.39s.16-.41-.228-.694zm22.73.016c.447 0 .515-.988.13-1.885-.183-.422-.136-.5.232-.35.395.153.454-.044.454-1.452 0-1.433-.063-1.626-.534-1.626-.515 0-1.288.98-1.15 1.455.035.126.112.717.17 1.313.08.853.02 1.054-.28.94-.47-.183-.485.196-.052 1.394.2.534.393.77.477.567a.64.64 0 0 1 .553-.358zm0-4.086c0-.223.123-.408.272-.408s.272.185.272.408-.122.408-.272.408-.272-.183-.272-.408zm5.993 4.51c0-.32-.53-.665-.728-.47s.15.724.47.724c.142 0 .256-.114.256-.255zm-54.28-1.792c-.354-1.15-.848-1.1-.965.094-.075.76-.005.864.586.864.646 0 .66-.04.38-.958zm30.378.346c.07-.185.05-.567-.052-.84-.16-.455-.212-.464-.536-.07-.37.443-.234 1.253.21 1.253.14 0 .31-.152.38-.34zm-10.817-.766c.27-.438-.665-.994-1.97-1.173-2.07-.284-2.644.304-.97.99 1.212.498 2.688.588 2.94.182zm30.915-1.098c-.07-.36-.126-1.113-.124-1.677.003-.656-.12-1.022-.35-1.022-.397 0-.433.445-.18 2.29.104.75.3 1.23.478 1.17.166-.057.245-.398.175-.76zm-11.847-.66c1.792-.23 3.503-.523 3.803-.654.68-.302 4.16-1.36 4.94-1.503.32-.06 1.082-.363 1.69-.676s1.272-.567 1.47-.567 1.01-.428 1.806-.953 1.552-.954 1.68-.954c.487 0 .53-.53.063-.78-.504-.27-2.574.477-2.935 1.057-.215.348-1.955 1.084-2.56 1.084-.25 0-.934.245-1.522.545s-1.275.482-1.525.4c-.73-.23-2.697.322-3.362.95-.72.676-1.618.5-1.375-.267.085-.27.077-.8-.024-1.202-.136-.54-.3-.672-.692-.55-.284.1-.512.033-.512-.127s-.11-.292-.243-.292-.237.155-.23.34c.05 1.353-.103 1.838-.585 1.838a1.28 1.28 0 0 1-.856-.414c-.465-.562-.656-.31-.285.38.248.466.496.534 1.588.433.71-.065 1.105-.044.882.05a3.88 3.88 0 0 0-.822.529c-.556.482-3.682.812-3.928.414-.256-.41-.583-.372-1.087.13-.733.733-.526.96 1.082 1.17.155.02 1.75-.15 3.54-.38zm-53.8-.414c0-.155.267-.643.59-1.085.57-.77.575-.817.103-1.34-.32-.35-.44-.795-.35-1.266.215-1.117-.3-4.61-.902-6.138-.297-.752-.47-1.48-.387-1.616s.17-1.64.19-3.347c.032-2.806-.022-3.174-.558-3.855-.328-.417-.595-.9-.595-1.098s-.313-.545-.69-.792-.81-.754-.948-1.122c-.4-1.027-1.085-.853-1.085.272 0 .515.112 1.005.248 1.09s.4 1.04.565 2.128.506 2.392.74 2.902c.38.836.38 1 .003 1.634-.4.663-.347.91.683 3.975.766 2.274 1.115 3.808 1.155 5.04.063 1.998.66 4.904 1.01 4.904.125 0 .228-.126.228-.283zm29.177-.33c.014-.185.01-.708-.008-1.158-.035-.74-.002-.773.34-.34.52.656.727.6.727-.204 0-.424-.155-.68-.414-.68-.314 0-.37-.18-.234-.75.25-1.046.337-1.155.8-.975.256.098.35.35.246.67-.11.346-.003.575.332.7.272.1.646.376.83.61.3.384.332.38.34-.017.016-.9-.796-2.405-1.218-2.244-.225.087-.408.025-.408-.136s-.185-.22-.408-.136c-.457.178-.6-.84-.155-1.114.142-.087.395-.834.567-1.66.223-1.082.498-1.623.974-1.937.47-.305.586-.53.398-.76-.18-.213-.168-.687.025-1.394.46-1.687 1.95-5.13 2.35-5.438.2-.152.43-.705.513-1.225s.302-1.253.492-1.63c.856-1.69 1.583-4.24 1.632-5.72.1-2.93.738-4.295 1.66-3.53.264.218.38.17.455-.2.2-1.02-.098-1.72-.763-1.72-.458 0-.594.118-.483.4.085.225.07.623-.035.885-.17.417-.225.393-.45-.185-.25-.654-.262-.656-.76-.136-.28.288-.815 1.57-1.188 2.84-.84 2.868-2.337 7.33-2.67 7.965-.136.262-.248.667-.248.907s-.29 1.2-.65 2.114c-.96 2.482-1.534 4.222-1.95 5.903l-.67 2.717c-.167.667-.41 1.346-.545 1.506s-.376 1.375-.542 2.697c-.256 2.068-.237 2.495.128 3.056.464.703.942.856.99.31zm12.228-.082c0-.068-.122-.122-.272-.122s-.272.13-.272.288.122.213.272.12.272-.22.272-.286zm-1.125-.463c.122-.335.196-1.387.164-2.335-.063-1.77.323-2.016.51-.324.056.512.243.978.414 1.035.398.134.393.052-.11-2.394-.564-2.75-.627-2.92-1.12-3.1-.36-.136-.4-.005-.246.81.1.536.248 1.152.333 1.367.09.237-.022.387-.29.387-.536 0-.624 1.888-.112 2.398.218.22.23.326.03.326-.4 0-.654 1.08-.453 1.847.205.78.59.774.877-.008zm-25.298.243c0-.055.13-.76.29-1.567.288-1.46.406-2.485.635-5.508.065-.874.2-1.66.278-1.75s.157-.343.157-.567.202-.635.45-.91c.428-.47.408-.5-.354-.5-.443 0-1.04.17-1.326.382-.44.32-.47.48-.2 1.08.253.555.24.852-.077 1.46-.218.417-.398 1.2-.398 1.738a4.92 4.92 0 0 1-.43 1.836c-.428.86-.436 3.394-.012 4.082.178.288.984.47.984.223zm36.07-1.13c-.103-.408-.054-.68.122-.68.403 0 .087-.738-.395-.923-.3-.115-.352.008-.22.523.126.506.06.672-.27.672-.438 0-.6.567-.256.91.098.098.408.18.686.18.4 0 .47-.136.333-.682zm6.154-1.906c0-.223-.123-.408-.272-.408s-.272.185-.272.408.122.408.272.408.272-.183.272-.408zm-5.72-1.338c0-.6-.302-1.25-.575-1.25-.134 0-.242.368-.242.817 0 .545.136.817.408.817.223 0 .408-.17.408-.384zm4.768-.705c-.175-.545.267-.99.54-.548.253.408.684.335.684-.117s-.147-.558-1.15-.798c-.7-.17-.74-.134-.7.847.035 1.195.164 1.506.53 1.28.145-.1.194-.39.106-.665zm3.677-1.51c0-.965-.422-1.226-1.02-.63-.232.234-.417.08-.738-.613l-.428-.923.13 1.468c.155 1.735.288 1.94.825 1.237.392-.513.406-.51.574.084.246.872.654.482.654-.623zm6.703.032c-.144-.57-.9-1.143-1.163-.882-.098.098.307.97.845 1.806.337.528.536-.05.318-.924zm-69.6-.503c-.22-.223-.302-.194-.302.114 0 .542.365.907.5.5.057-.17-.033-.45-.2-.615zm24.064-.13c.103-.335.07-.613-.074-.613-.237 0-.58.866-.59 1.485-.005.422.46-.188.665-.872zm-.754-.817c.253-.56.477-1.145.496-1.293.098-.825.572-1.678 1.384-2.5.77-.77.907-1.098.888-2.11-.02-.95-.115-1.18-.466-1.108a7.86 7.86 0 0 1-.774.106c-.182.01-.468.542-.64 1.177s-.408 1.28-.53 1.43-.31.855-.414 1.566-.298 1.294-.425 1.294-.22.552-.207 1.225.07 1.225.123 1.225.307-.457.564-1.02zm14.857-.686c-.04-.237.175-.87.477-1.412.673-1.195.673-1.143.022-1.313-.83-.218-1.46.95-1.234 2.288.108.643.31 1.038.498.972.172-.06.28-.302.237-.536zm-38.882-.676a28.13 28.13 0 0 1-.845-2.452c-.213-.84-.65-.218-.65.923 0 .885.145 1.373.477 1.626.703.534 1.26.48 1.017-.098zm68.056.095c.082-.21-.025-.607-.234-.885-.53-.698-.5-1.735.08-2.166.44-.332.44-.363.02-.37-.253-.005-.536-.257-.632-.556s-.37-.545-.61-.545c-.548 0-1.434.785-1.434 1.27 0 .444.33.473.738.065.385-.387.78.305 1.03 1.803.25 1.48.352 1.766.646 1.766.14 0 .32-.172.398-.382zm-31.02-.677c.082-.134-.022-.31-.232-.4-.398-.152-.705.022-.705.406 0 .306.746.292.937-.016zm20.256-.793c.395.396.566.24.662-.604.103-.92-.82-1.066-1.463-.227-.682.883-.69 1.572-.014.96.38-.34.57-.37.815-.13zm-52.14-1.21l.286-2.316c.057-.485.02-.885-.087-.885-.326 0-.815 1.7-.857 2.996-.055 1.555-.04 1.634.245 1.634.13 0 .32-.643.414-1.43zm60.912 1.157c0-.15-.13-.272-.29-.272s-.212.122-.12.272.224.272.288.272.12-.123.12-.272zm-44.238-.74c-.275-.28-.504.138-.28.506.172.278.237.278.33 0 .063-.188.04-.417-.05-.506zm42.184.18c-.234-.38-.398-.31-.398.168 0 .235.125.35.277.254s.204-.284.12-.422zm-4.122-.643c.194-.498-.5-1.084-1.04-.877-.422.163-.55.763-.228 1.084s1.117.194 1.27-.207zm-27.565-1.11c.17-.178.335-.14.488.103.318.515.836.13.836-.618 0-.586 1.068-3.485 1.72-4.663.166-.3.51-1.34.765-2.316s.556-2 .668-2.283c.147-.368.1-.48-.164-.392-.2.068-.787.912-1.304 1.877s-1.022 1.814-1.115 1.887c-.365.29-1.114 1.635-1.114 2.002 0 .216-.29.578-.643.8-.536.35-.664.72-.79 2.258-.145 1.803.068 3.354.294 2.15.055-.3.218-.665.36-.815zm-.016-1.34c-.01-.29.052-.45.14-.358s.1.324.022.52c-.087.217-.15.152-.164-.164zm5.97 2.277c0-.16-.122-.215-.272-.122s-.272.223-.272.288.123.12.272.12.272-.13.272-.286zm5.816-1.07c.2-.955-.035-1.702-.468-1.56-.485.158-.565 2.373-.085 2.373.215 0 .464-.363.553-.813zm17.97.104c-.185-.483-.746-.5-1.142-.014-.4.482-.17.672.632.52.422-.082.605-.262.51-.506zm-41.922.272c.245-.096.43-.482.43-.9 0-.403.133-.867.297-1.03.212-.216.212-.35 0-.48-.164-.1-.297-.466-.297-.815 0-.74.983-3.067 1.35-3.197.138-.05.517-1.806.84-3.904l.936-5.993c.194-1.2.298-2.267.235-2.375s.016-.45.18-.755.362-1.438.444-2.522.21-2.065.284-2.187c.182-.295-.434-1.014-.867-1.014-.457 0-.787 1.362-.422 1.73s.38 1.54.017 1.54c-.15 0-.276-.152-.28-.34s-.145-.106-.3.183c-.223.38-.22.65.008 1.016.403.646.392.776-.066.776-.425 0-.806 1.45-.42 1.6.138.05.25.267.25.48 0 .642-.662 2.56-.882 2.56-.115 0-.207.422-.207.94s-.115 1.008-.253 1.092-.34.86-.447 1.72-.357 1.803-.564 2.1-.37.946-.37 1.447-.144 1.18-.318 1.506-.352 1.555-.387 2.73c-.046 1.406-.204 2.288-.468 2.588-.28.316-.33.64-.167 1.065.235.62.665.752 1.455.45zm-22.364-.586c.185-.31-.305-1.43-.624-1.43-.307 0-.39 1.162-.098 1.454.24.24.575.228.722-.025zm18.164-.044c0-.138-.077-.447-.17-.69-.126-.33-.255-.362-.53-.138-.2.166-.29.474-.21.69.164.424.907.54.907.138zm24.38-.025c-.093-.15-.223-.272-.288-.272s-.12.122-.12.272.13.272.288.272.213-.123.12-.272zm23.24-.75c-.05-.262-.272-.477-.492-.477s-.442.215-.494.477c-.065.335.082.477.494.477s.558-.142.492-.477zm5.18-.292c.056-.4-.057-.593-.354-.593-.358 0-.406-.185-.257-1.022.1-.56.368-1.23.59-1.487s.335-.654.245-.885a.63.63 0 0 0-1.169-.011c-.086.225-.297.414-.468.42s-.578.43-.902.937c-.5.788-.53.975-.206 1.246.3.25.42.224.553-.12.288-.76.6-.482.798.717.103.637.248 1.258.32 1.377.23.4.758.028.848-.58zm-51.014.288c.373-.258.932-2.76.657-2.93-.7-.433-1.897 1.112-1.897 2.447 0 .697.6.93 1.24.484zm41.255-.714c0-.42-.193-.7-.545-.79-.66-.174-.67-.096-.106.768.55.836.65.84.65.02zm6.476-.44c-.188-.3-.496-.546-.684-.546s-.343.246-.343.546c0 .4.183.545.684.545.616 0 .648-.052.344-.545zm-61.122-.158c.288-.752.2-1.016-.243-.66-.447.37-.555 1.1-.166 1.1.133 0 .318-.194.408-.43zm40.242-1.52c.232-1.466-.002-2.136-.746-2.136-.434 0-.46 2.506-.036 3.36.347.694.52.42.782-1.225zm-47.54.665c-.09-.093-.152.068-.14.356.014.316.077.382.164.164.08-.196.07-.43-.022-.52zm61.384-.057c.33-.21.332-.318.02-.69-.32-.387-.417-.392-.763-.047-.218.218-.313.532-.212.695.223.36.435.37.953.044zm-1.77-.536c.22-.357-.094-1.05-.56-1.226-.455-.174-.782.457-.55 1.063.175.452.872.553 1.112.164zm-45.303-.485c.33-.406.313-.44-.126-.272-.276.103-.55.185-.613.185s-.115.122-.115.272c0 .42.436.324.853-.185zm16.58-.087c0-.15-.123-.272-.272-.272s-.272.122-.272.272.122.272.272.272.272-.122.272-.272zm26.696-.545c0-.303-.183-.546-.408-.546-.74 0-.485.8.34 1.07.038.01.068-.227.068-.525zm-50.542-.254c.272-.44-.32-.574-.673-.15-.272.33-.255.403.1.403.234 0 .496-.112.583-.254zm21.667-.428c0-.372-.11-.68-.243-.68-.318 0-.62.8-.422 1.117.295.48.665.24.665-.436zm3.577-.613c3.166-2.977 3.25-3.105 2.677-4.17-.368-.69-.795-.677-.613.017.17.653-.005.68-.84.136-.588-.387-.646-.368-.934.262-.17.37-.202.738-.074.817s.304-.038.39-.262c.218-.56.72-.512.7.068-.014.724-1.08 1.778-2.39 2.365-1.378.618-1.576.86-1.133 1.394.515.624 1.035.477 2.204-.627zm-12.294.068c0-.223-.122-.408-.272-.408s-.272.185-.272.408.122.408.272.408.272-.182.272-.408zm38.954.172c0-.134-.168-.38-.376-.55s-.373-.62-.373-1c0-.857-.142-1.002-.888-.9l-.597.1.572.724c.316.398.572.9.572 1.136 0 .372.35.65.885.707.112.012.204-.086.204-.217zm13.797-.183c.1-.232.1-.494 0-.583-.236-.237-1.016.474-.838.763.23.376.66.283.838-.18zm-72.908-.398c0-.3-.172-.545-.38-.545s-.455-.194-.545-.43c-.256-.665-.197-1.476.105-1.476.515 0 .272-.9-.416-1.527-.523-.485-.646-.8-.512-1.327.096-.38.054-.844-.087-1.03-.24-.307-1.05-3.004-1.3-4.342-.06-.307-.187-.637-.283-.73-.224-.213.12 3.02.474 4.462.588 2.413.75 3.312.763 4.206.016 1.318 1.016 3.285 1.67 3.285.337 0 .52-.187.52-.545zm47.823-.57c.204-.333-.588-1.264-.853-1-.223.227.13 1.297.43 1.297.13 0 .32-.133.422-.297zm8.458-1.492c-.172-.445-.984-.532-.984-.106 0 .155.215.61.477 1.013.474.728.477.728.567.106.05-.343.02-.798-.06-1.012zm4.737.822c0-.234-.123-.35-.272-.258s-.272.286-.272.424.122.257.272.257.272-.2.272-.422zm-39.795-1.81c.623-1.85.67-2.128.362-2.128-.258 0-1.124 1.967-1.337 3.03-.29 1.452.395.817.975-.902zm-5.862.984c.37-.965.168-1.278-.38-.583-.643.817-.675 1.014-.167 1.014.2 0 .455-.194.546-.43zm58.46.157c0-.15-.13-.272-.288-.272s-.213.123-.12.272.224.273.29.273.12-.123.12-.273zm-55.913-.803c.227-.363.24-.588.047-.71-.344-.213-.4-.157-.64.627-.232.755.14.806.593.082zm41.013.087c.27-.27-.327-1.2-.773-1.2-.47 0-.5.136-.115.836.29.54.583.66.888.354zm1.417-.1c-.093-.15-.284-.272-.426-.272s-.255.122-.255.272.2.272.424.272.35-.122.257-.272zm-75.2-1.293c-.286-1.297-.362-1.425-.765-1.27-.324.126-.29.314.194 1.073.72 1.13.78 1.15.57.197zm63.76-.063c1.438-1.05 4.333-2.73 4.705-2.73.41 0 2.648-2.2 2.882-2.84.12-.318.06-.607-.155-.743-.613-.39-1.032-.248-1.35.45-.17.376-.447.68-.613.68s-.76.376-1.316.836-1.47.904-2.038.995-1.12.32-1.236.515-.393.288-.614.204-.4-.02-.4.147-.232.3-.515.3c-.602 0-1.337 1.024-1.57 2.182-.145.725-.1.815.482.806.358-.005 1.14-.367 1.738-.803zm12.827-.174c-.138-.365-.25-.395-.506-.136s-.242.384.068.574c.506.314.667.155.438-.438zm-24.916-.074c.62-.578.365-.9-.532-.665-.66.175-.653.158-.424.75.21.548.283.542.956-.084zm-47.423-1.863c.48-.335 1.528-1.98 1.264-1.98-.06 0-.643.43-1.302.954-1.234.98-2.114 1.16-3.354.69-.58-.22-.743-.17-1.002.314-.267.496-.245.553.158.398.327-.126.506-.012.613.392.126.478.292.542 1.032.403.755-.14.907-.075 1.057.452.166.584.202.567.586-.313.223-.512.65-1.103.948-1.3zm28.18 1.654c.27.025.553-.13.626-.338.104-.294-.056-.344-.702-.215-.466.094-.874.05-.923-.104-.056-.16-.303-.117-.605.106-.698.51-.338 1.057.487.744.347-.13.848-.217 1.117-.193zm40.637-.483c-.09-.234-.288-.428-.444-.428-.314 0-.384.897-.096 1.185.3.3.72-.288.54-.758zm8.537.595c0-.185-.297-.358-.662-.377-.46-.027-.616.077-.515.34.18.47 1.177.502 1.177.036zm-54.306-.937c-.112-.112-.32-.025-.46.196-.42.665-.294.96.2.466.254-.253.37-.55.26-.66zm-6.44.038c0-.068-.123-.123-.272-.123s-.273.13-.273.29.124.213.273.12.272-.22.272-.285zm5.72-.396c0-.15-.186-.272-.4-.272s-.408.122-.408.272.183.272.408.272.4-.122.4-.272zm50.666-.014c0-.16-.123-.215-.272-.122s-.272.223-.272.29.123.12.272.12.272-.128.272-.286zm-44.513-1.277c-.188-.187-.706.197-.706.526 0 .18.155.158.415-.057.228-.188.36-.4.29-.47zm1.54.335c-.1-.395-.684-.326-.825.1-.08.24.054.332.384.27.28-.054.48-.22.44-.368zm20.024-.136c.077-.39-.95-1.248-1.2-1-.065.068-.04.45.06.85.197.78 1.003.886 1.14.15zm17.908.276c-.093-.15-.284-.272-.426-.272s-.255.122-.255.272.2.272.424.272.35-.122.257-.272zm-47.135-.8c.246-.47.31-.866.158-.962-.29-.18-.83.69-.83 1.337 0 .638.2.52.672-.376zm-25.567.052c.428-.564.493-1.872.106-2.11-.158-.096-.273.175-.273.65 0 .45-.122.9-.272.984-.3.185-.38.953-.098.953.096 0 .338-.213.537-.477zm37.697.204c0-.15-.13-.272-.288-.272s-.213.122-.12.272.223.272.288.272.12-.122.12-.272zm25.434-1.22c.142-1.196.082-1.6-.297-2.042-.258-.302-.58-.55-.714-.55s-.09.19.1.42c.262.316.272.564.044 1.02-.452.902-.475 1.357-.098 2.033.53.96.773.735.964-.88zm-64.115-.086c0-1.237-.572-2.57-.942-2.2-.294.297-.492 2.087-.3 2.81.112.452.363.695.714.695.464 0 .54-.185.54-1.307zm24.102-1.055c-.2-1.784-.22-1.822-.466-.918-.316 1.172-.025 3.476.39 3.062.186-.185.213-.937.077-2.144zm55.284 1.502c.515-1.033.4-1.248-.33-.624-.32.272-.482.667-.403.972.18.684.232.66.733-.348zM53 97.3c-.1-.092-.153.068-.14.358.013.316.075.38.163.163.08-.196.07-.43-.02-.52zm2.016-.077c0-.15-.123-.272-.272-.272s-.272.123-.272.272.122.272.272.272.272-.122.272-.272zm15.37.008c.93-.354.897-.883-.046-.773-.45.05-.782.274-.837.56-.106.556-.05.567.883.213zm33.252-.28c.093-.15.047-.272-.103-.272s-.35.122-.44.272-.047.272.103.272.35-.122.44-.272zm10.215.017c0-.322-.53-.665-.727-.47s.15.724.47.724c.142 0 .255-.114.255-.255zm-41.404-.67c0-.523-.112-.627-.546-.513-.822.213-.672 1.166.183 1.166.202 0 .363-.288.363-.653zm32.786-.224c-.1-.164-.26-.126-.4.1-.373.59-.28.874.164.507.224-.185.33-.457.237-.608zm-52.127-.38c0-.38.12-.608.267-.515.325.2.05-1.506-.302-1.893-.13-.142-.243-1.368-.248-2.724-.01-1.787-.14-2.705-.48-3.34-.54-1-1.02-.882-1.262.333-.086.45-.086.665 0 .477.118-.246.305-.262.684-.057.447.24.523.588.523 2.408 0 3.04.3 6.306.583 6.138.128-.082.234-.452.234-.825zm38.68.628c0-.196-.16-.578-.356-.847s-.31-.83-.246-1.248c.085-.59.295-.798.93-.926.45-.1.93-.095 1.063-.01s.234-.133.218-.48c-.035-.792-.452-2.13-.496-1.583-.022.32-.08.333-.253.06-.234-.37-1.13-.172-1.13.25 0 .14.183.324.408.408.684.265.457.864-.4 1.052-.654.145-.843.356-.986 1.122-.13.68-.056 1.08.264 1.43.243.27.44.632.44.806s.123.318.272.318.272-.157.272-.354zm-49.577-.2c0-.15-.123-.272-.273-.272s-.272.122-.272.272.123.272.272.272.273-.122.273-.272zm13.162-.108c.082-.21.082-.447.002-.527-.25-.25-.906.134-.906.53 0 .496.716.493.904-.002zm28.788.108c0-.15-.13-.272-.29-.272s-.213.122-.12.272.223.272.29.272.12-.122.12-.272zm8.716-.708c0-.06-.185-.11-.408-.11s-.408.12-.408.264.183.194.408.11.408-.207.408-.265zm22.065.164c0-.15-.115-.272-.257-.272s-.332.122-.424.272.02.272.255.272.426-.122.426-.272zM36.49 94.47c0-.15-.123-.2-.272-.106s-.273.292-.273.44.123.197.273.104.272-.29.272-.44zm76.504-.206c1.02-1.103 1.787-2.487 1.384-2.487-.343 0-2.977 2.7-2.977 3.065 0 .482.925.147 1.593-.578zm-28.38-.65c-.077-.186-.134.03-.13.48s.068.602.136.338.066-.635-.007-.817zm20.795-.13c0-.58.1-.662.686-.55.38.074.762.014.853-.134.236-.384-.507-.768-.883-.457-.174.145-.53.18-.8.08-.405-.155-.447-.066-.288.65.106.5.063.904-.106 1.01-.158.098-.29.307-.29.468 0 .183.15.164.4-.052.223-.185.408-.642.408-1.016zm10.623 1.016c0-.15-.123-.272-.272-.272s-.272.123-.272.272.122.273.272.273.272-.123.272-.273zm-49.305-.272c0-.15-.19-.272-.425-.272s-.35.123-.255.272.283.272.425.272.256-.122.256-.272zm35.085-1.258c-.642-.642-1.204-.196-.597.477.328.36.565.436.755.243s.145-.416-.158-.72zm1.776-1.07c-.272-.207-.588-.382-.7-.384-.436-.02-.175.915.408 1.46l.613.572.087-.635a1.11 1.11 0 0 0-.408-1.013zM41.666 93c0-.223-.122-.408-.272-.408s-.272.185-.272.408.122.408.272.408.272-.182.272-.408zm26.682.068c-.005-.185-.173-.708-.375-1.157-.28-.633-.403-.72-.543-.387-.215.515.26 1.885.654 1.885.152 0 .272-.152.264-.34zm-2.487-.836c.068-.583-.027-.73-.477-.73-.572 0-.702.412-.395 1.218.25.646.77.354.87-.487zm19.4.243c0-.2.183-.513.406-.698s.334-.45.248-.59c-.096-.152-.303-.133-.518.047-.278.23-.407.164-.55-.29-.17-.53-.23-.547-.605-.17-.506.506-.245 1.4.344 1.176.325-.124.373-.01.23.556-.128.5-.086.656.13.52a.72.72 0 0 0 .314-.55zm-47.83.185a.81.81 0 0 1 .499-.204c.164 0 .346-.153.408-.34.142-.422-.648-.452-.907-.033-.13.2-.27.17-.438-.136-.28-.504-.466-.537-1.02-.188-.325.207-.33.32-.033.68.376.452 1.147.57 1.492.223zm5.88-.34c0-.15-.122-.272-.272-.272s-.272.122-.272.272.122.272.272.272.272-.122.272-.272zm12.356-.408c-.087-.223-.204-.4-.264-.4s-.106.186-.106.4.12.408.264.408.194-.183.106-.408zm33.076-.093c.08-.235-.052-.333-.363-.273-.267.052-.542.26-.608.46-.08.234.052.333.363.272.267-.05.542-.258.608-.46zm-46.074-.183c.087-.227.007-.59-.175-.812-.213-.256-.27-.773-.155-1.427a22.43 22.43 0 0 0 .234-1.763c.033-.403.207-.885.392-1.068.243-.245.253-.43.032-.694s-.2-.468.03-.758c.182-.218.255-.515.168-.66-.175-.277.42-.99.994-1.2.276-.098.278-.24.01-.69-.21-.357-.236-.63-.068-.733.415-.257.316-1.408-.16-1.883-.583-.583-.932-1.904-.627-2.367.202-.308.328-.28.687.166.39.48.42.487.267.046a3.7 3.7 0 0 1-.178-.953c-.002-.35-.054-.373-.234-.09-.17.272-.272.2-.4-.272-.255-.962-.21-1.864.096-1.864.39 0 .338-.97-.068-1.295-.188-.15-.616-.356-.953-.46-.496-.153-.614-.082-.614.367 0 .344-.313.72-.814.98-.45.23-.99.695-1.202 1.03-.515.808-.697 4.328-.23 4.487.22.073.34-.167.34-.695 0-.445.2-1.466.438-2.27l.537-1.803c.206-.728.72-.335.536.408-.103.414-.36 1.648-.572 2.743s-.463 2.12-.558 2.274c-.32.518-.108 3.977.32 5.176.398 1.128.393 1.2-.14 1.555-.717.48-.705.975.038 1.72.457.457.58.867.526 1.75-.057.918.028 1.177.425 1.277.844.218.918.204 1.08-.22zm8.536-.338c0-.4-.108-.918-.24-1.124-.322-.51-.677.57-.434 1.33.254.796.682.668.675-.204zm20.708-.408c0-.318-.397-.237-.512.104-.054.168.038.26.204.204s.307-.194.307-.31zm34.323.158c0-.1-.202-.406-.452-.68-.27-.298-.325-.5-.136-.5.174 0 .316-.122.316-.272s-.17-.272-.377-.272c-.372 0-.782 1.302-.536 1.702.158.253 1.185.276 1.185.022zm-61.953-.635c0-.54-.2-.69-.498-.38-.197.196.05.925.313.925.103 0 .185-.245.185-.545zm52 .272c.212-.342-.148-.342-.682 0-.35.23-.346.267.052.27.253.002.537-.12.63-.27zm7.763.017c0-.322-.53-.665-.728-.47s.15.724.47.724c.142 0 .256-.114.256-.255zM75.445 89.53c0-.26-.18-.48-.398-.48-.47 0-1.063.983-.83 1.362.243.393 1.226-.316 1.226-.883zm40.86.72c0-.06-.185-.11-.408-.11s-.408.12-.408.264.183.194.408.11.408-.207.408-.265zm-83.628-.11c0-.15-.114-.272-.255-.272s-.333.123-.426.272.022.272.257.272.424-.122.424-.272zm40.915-.054c-.18-.18-.33-.578-.335-.885-.008-.52-.027-.523-.294-.066-.305.523.087 1.277.66 1.277.19 0 .18-.112-.033-.326zm21.8-.32c.112-.167.204-.575.204-.907.005-.428-.114-.558-.403-.45-.283.11-.408-.02-.408-.417 0-.326-.174-.575-.408-.575-.227 0-.408-.117-.408-.262s-.256-.4-.572-.57c-.468-.25-.662-.204-1.098.264-.57.61-1.054.745-1.054.29 0-.153.306-.417.68-.588.755-.344.904-.768.272-.768-.225 0-.408.093-.408.206 0 .3-1.634.975-1.847.763-.098-.1-.02-.28.175-.4.618-.382-.396-.578-1.316-.258-.927.323-1.063.707-.35.974a2.06 2.06 0 0 1 .771.572c.237.32.4.33.907.063.707-.38 1.206-.103.515.283-.415.235-.398.32.17.935.75.808.907.822 1.79.13.916-.717 1.1-.68 1.1.23 0 .425.082.855.185.956.237.236 1.253-.08 1.512-.47zm-33.568-.033c0-.223-.122-.408-.272-.408s-.272.185-.272.408.123.408.272.408.272-.183.272-.408zm27.774.014c.183-.218.25-.526.155-.682-.32-.517-.896-.297-1.027.396-.148.768.34.927.87.286zm8.017-.115c.408-.452.414-.53.04-.672-.7-.27-.564-2.553.194-3.215l.613-.537-.888.104c-.765.093-.866.035-.727-.403s.056-.483-.61-.324c-.424.103-.956.274-1.18.384s-.56.142-.75.077-.34.002-.34.155c0 .47.506.623 1.068.323.373-.2.588-.2.714.005.1.162-.077.36-.392.44-.74.194-.722.518.07 1.256.57.53 1.033 1.424 1.158 2.234l.073.477c.057.356.477.224.956-.305zm14.603-.065c0-.15-.122-.2-.272-.106s-.272.292-.272.44.122.196.272.103.272-.288.272-.438zm-76.068-.72c.065-.2-.12-.34-.455-.34s-.567.178-.567.43c0 .5.85.428 1.022-.09zm52.317-.14c.145-.74-.648-1.335-1.648-1.24-.68.065-.907.23-.975.697-.07.5.044.614.597.614.376 0 .766.13.86.288.267.428 1.063.185 1.166-.36zm12.687-.77c.63-.575.732-.777.39-.784-.25-.003-.64.176-.866.4-.564.564-.8.513-.64-.136.207-.8-.64-.69-1.25.15-.518.71-.42 1.283.182 1.054.197-.077.526.066.73.314.27.32.405.353.487.114.063-.185.496-.686.965-1.112zm4.908.572c.15-.15.532-.276.848-.276.637 0 1.29-.566 2.312-2 .698-.986 1.3-1.405 1.604-1.098.093.096-.108.358-.447.586-.6.4-.86 1.433-.362 1.433.136 0 .534-.245.882-.548s.883-.738 1.183-.97c.38-.298.444-.466.204-.565-.474-.198-.428-.642.068-.642.223 0 .408.17.408.38 0 .215.382.438.885.52.673.1 1.246-.068 2.384-.733.823-.482 1.9-1.054 2.387-1.27s.955-.608 1.04-.87.262-.48.398-.48.417-.33.628-.733c.417-.798.13-2.227-.463-2.3-.358-.044-6.76-.175-15.636-.316-5.824-.093-6.06-.077-6.06.424 0 .464-.126.5-1.157.31-.637-.117-1.7-.22-2.384-.23-.896-.012-1.225-.123-1.225-.42 0-.444 1.024-.656 5.175-1.065 1.553-.155 2.635-.145 2.953.022.682.362 3.244.002 2.98-.417a1.24 1.24 0 0 1-.131-.738c.06-.365-.313-.408-2.73-.316-4.494.168-7.1.452-7.84.85-1.332.724-1.378.817-.942 1.866.224.53.373.986.332 1.008-.95.54-1.75 1.13-1.923 1.417-.12.202-.44.365-.716.365-.542 0-1.29.73-1.02.998.09.093.47-.033.844-.28.962-.628 1.337-.583.96.123s-.12 1.008.512.613c.26-.16.866-.382 1.348-.488.708-.155.848-.114.722.21-.227.588 2.192.754 2.76.2.365-.368.5-.363 1.218.05.95.545 2.14.273 3.26-.75.635-.58.88-.62 3.54-.54 3.76.11 5.392.365 6.473 1.018.98.59.962.886-.07 1.147-.913.23-3.057 1.806-3.272 2.406-.21.6-.912.623-1.13.054-.138-.363-.248-.344-.765.14-.68.64-2.237 1.164-2.863.965-.302-.096-.43.095-.47.695l-.06.825 1.542-.148c.848-.08 1.665-.27 1.817-.42zm-13.555-7.22c.085-.224.48-.403.878-.398.69.008.697.025.2.408-.69.52-1.27.515-1.068-.01zm2.277-.665c0-.157.123-.288.272-.288s.272.054.272.122-.122.194-.272.286-.272.04-.272-.12zm7.356 7.475c.187-.225.217-.408.065-.408s-.424.185-.61.408c-.187.23-.217.408-.065.408s.424-.182.61-.408zm-27.666-.477c-.258-.84-.384-.932-.665-.477-.147.24-.128.53.05.74.464.558.823.405.616-.265zm-39.346-.033c0-.206-.152-.503-.34-.658-.256-.21-.35-.117-.38.376-.025.4.11.656.34.656.207 0 .38-.168.38-.373zm26.055-.026c-.2-.548.452-2.02 1.32-2.942.736-.78.744-1.833.014-1.833-.196 0-.545-.276-.773-.614-.387-.57-.45-.58-.88-.163-.513.496-.272 1.185.41 1.185.738 0 .594.91-.38 2.356-.9 1.335-.935 1.463-.52 1.92.536.594 1.02.646.808.1zm8.673-.14c.213-.667-.17-1.408-.588-1.15-.34.2-.17 1.688.196 1.688.123 0 .3-.242.392-.54zm43.742.26c.61-.328.7-1.226.145-1.44-.64-.246-1.345.46-1.133 1.13.215.678.27.695.988.31zm-27.42-.51c.553-.61.272-.872-.588-.548-.616.232-.768.548-.43.885.29.292.52.216 1.02-.337zm-48.924-.368c.068-.35-.09-.477-.6-.477-.384 0-.7.05-.7.114s-.08.32-.173.567c-.143.368-.028.436.61.363.485-.055.82-.27.874-.567zm1.414-.218c0-.487-.114-.766-.272-.667-.15.093-.272.468-.272.833s.122.665.272.665.272-.373.272-.83zm23.97.558c0-.15-.13-.272-.288-.272s-.213.123-.12.272.224.272.29.272.12-.122.12-.272zm17.298-.136c0-.305-3.065-.84-3.326-.578-.274.276.12.515 1.213.73 1.293.26 2.114.2 2.114-.152zm-20.294-.422c0-.31-.112-.493-.25-.408s-.564.035-.954-.112c-.857-.326-.885-.202-.105.526.763.712 1.31.71 1.31-.005zM85.2 86.14c.13-.918-.833-1.307-1.476-.594-.496.548-.496.57.028.95.716.525 1.345.37 1.45-.358zm17.758.447c0-.16-.122-.215-.272-.123s-.272.224-.272.288.122.12.272.12.272-.127.272-.286zm-35.55-.703c.408.155.433.12.142-.23a1.4 1.4 0 0 0-.953-.417c-.508 0-.588.12-.48.69.117.62.166.643.47.23.212-.294.512-.392.822-.272zm31.84.286c.104-.264.04-.39-.157-.324-.406.137-.63.755-.272.755.147 0 .34-.194.43-.43zm-17.063-.38c.912-.558 1.15-1.357.545-1.85-.578-.47-2.253-.15-3.506.662l-1.192.773 1.02.087c.667.055 1.02.218 1.02.478 0 .56 1.068.484 2.11-.15zm6.06-.142c0-.223-.106-.41-.24-.41s-.393.186-.578.41c-.284.343-.246.408.24.408.332 0 .578-.172.578-.408zm-35.57-.028c.236-.093.43-.47.43-.84 0-.964-.927-.735-1.04.256-.092.8-.054.836.61.583zM109.7 84c-.038-.035-.408 0-.828.082-.483.093-.913.44-1.183.965l-.422.817 1.25-.9c.686-.492 1.217-.926 1.182-.965zm-49.24 1.117c.477-.574.136-1.23-.637-1.23-.36 0-.806-.18-.99-.403-.28-.335-.204-.455.444-.703l.78-.297-.954-.406c-.703-.3-1.078-.33-1.427-.114-.258.157-.77.288-1.133.288-.874 0-1.525.265-1.525.616 0 .155.417.69.93 1.185l.926.902.787-1.185 1.063.866c1.23 1.005 1.29 1.022 1.74.482zm32.964-.435c0-.39-.853-1.068-1.34-1.068-.265 0-.694.234-.954.52-.45.5-.438.536.3.904.754.377 1.994.155 1.994-.356zm12.958.452c.558-.558.48-.768-.155-.43-.3.16-.545.41-.545.556 0 .37.248.327.7-.125zm-61.173-.31c0-.068-.123-.122-.273-.122s-.272.13-.272.29.123.212.272.12.273-.22.273-.286zm31.99.006c.292-.218.384-.4.204-.4-.618 0-.32-.806.36-.978.376-.093.926-.513 1.223-.93s.847-.833 1.223-.926.683-.35.683-.56.213-.51.474-.656.39-.35.283-.457-.75.346-1.438 1.002c-1.204 1.15-1.9 1.515-2.95 1.574-.422.022-.47-.11-.31-.86.106-.485.36-.983.567-1.1.36-.21.54-1.012.227-1.012-.218 0-1.42 1.382-1.954 2.245-.253.41-.988.962-1.628 1.225s-1.17.635-1.17.82c0 .523 1.013.405 1.414-.16.436-.61 1.564-1.24 1.803-1.003.096.096.033.26-.136.363s-.294.65-.278 1.213c.033 1.122.468 1.3 1.403.602zm10.054.02c.085-.22.03-.477-.122-.572-.45-.28-1.607.13-1.607.566 0 .54 1.523.542 1.73.006zm14.07.125c0-.15-.122-.272-.272-.272s-.272.122-.272.272.122.272.272.272.272-.123.272-.272zm-34.81-1.672c.578-1.087.68-1.512.46-1.92-.408-.76-.937-.433-.86.532.04.53-.082.885-.34.983-.408.158-.593 1.81-.202 1.806.112-.002.537-.632.942-1.4zm-19.544.567c-.234-.38-.398-.31-.398.168 0 .235.126.35.277.254s.204-.284.12-.422zm20.705.04c.2-.654 1.316-1.397 1.717-1.152.166.103.428.52.583.932.337.885.59.925 1.25.196.272-.3.777-.545 1.125-.545.376 0 .815-.278 1.08-.68.246-.374.607-.682.806-.682.387 0 1.485-1.39 1.485-1.88 0-.452-1.008-.356-1.188.1-.087.225-.463.408-.84.408-.477 0-.806.237-1.086.784-.466.9-1.47 1.296-1.706.675-.086-.222-.018-.545.153-.713.387-.387.405-.837.025-.602-.155.095-.8.173-1.452.173-1.133 0-1.194.044-1.902 1.408-.4.774-.727 1.562-.727 1.747.007.53.496.4.677-.18zm22.362-.234c-.1-.1-.377.057-.635.326-.45.47-.444.48.166.166.35-.18.562-.4.47-.493zm-4.247.22c.546-.343.257-.564-.934-.714-1.274-.158-1.763.117-1.09.61.58.424 1.45.468 2.023.103zm11.994-.01c.33-.213.292-.264-.204-.267-.338-.003-.613.117-.613.267 0 .343.288.343.817 0zm-62.704-1.02c-.112-.59-1.583-.843-1.583-.267 0 .547.27.744 1.018.744.478 0 .633-.13.565-.477zm12.042.136c.003-.248.066-.243.237.03s.286.283.428.057c.106-.175.044-.494-.138-.714-.29-.35-.38-.338-.695.08-.44.58-.478.888-.11.888.15 0 .276-.153.277-.34zm5.443-.62c0-.38.183-.76.408-.844.624-.24.515-1.2-.136-1.2-.4 0-.545-.18-.545-.69 0-.773.66-1.16 1.33-.78.634.36 1.94.148 1.94-.318s-.136-.485-.864-.093c-.403.215-.64.215-.855 0-.164-.164-.517-.3-.787-.3s-.5-.123-.5-.272c0-.25 1.127-.412 2.248-.32.26.025.477-.08.477-.23s-.093-.248-.204-.223-.543-.095-.953-.267c-.518-.213-.97-.225-1.464-.038-.777.298-1.465-.046-1.465-.727 0-.47-.532-.496-.65-.036a40.24 40.24 0 0 1-.406 1.326c-.202.633-.227 1.22-.068 1.635l.245.65.35-.75c.68-1.47 1.476-.686 1.18 1.17-.196 1.22.073 2.986.455 2.986.142 0 .26-.31.26-.69zm-14.165-.29c0-.39-.262-1.075-.583-1.525-.435-.613-.498-.87-.25-1.026.525-.325-.485-.608-1.03-.292-.417.245-.415.267.025.272.597.01.602.237.02.88-.433.477-.405.555.46 1.452 1.098 1.13 1.356 1.176 1.356.24zm8.31.16c.093-.15-.02-.272-.257-.272s-.424.123-.424.272.114.272.256.272.332-.123.425-.272zm39.59-.613c1.136-.913 1.552-1.52 1.242-1.808-.1-.1-.235-.01-.303.175-.144.405-1.335.457-1.574.068-.262-.426-1.15-.32-1.332.16-.276.714-.194.765.38.248.3-.272.635-.403.747-.295s-.2.53-.686.93-.883.883-.883 1.068c.005.638 1.302.347 2.408-.545zm-29.324-.166c.77-.096 1.454-.32 1.512-.5.082-.242-.4-.286-1.883-.166-1.098.087-2.04.196-2.095.246-.286.243.27.9.637.757.232-.1 1.054-.24 1.83-.338zm8.61-1.127c.18 0 .33-.1.33-.246s.243-.182.542-.106.73.068.965-.02c.695-.267-.012-1.26-.905-1.27-.628-.006-.667-.05-.264-.284.32-.185.643-.182 1.002.01.586.316 2.237.373 3.487.122.747-.15.81-.253.825-1.362.017-1.008-.065-1.202-.503-1.202a2.44 2.44 0 0 0-.998.265c-1.105.618-3.152 1.122-3.337.822-.108-.176-.482-.225-.907-.117-.904.227-.918 0-.044-.81.373-.346.682-.758.682-.9 0-.548.787-.59.96-.052.2.633.752.687 1.22.12.186-.223.478-.408.646-.412s.597-.31.95-.68.808-.68 1.012-.68c.438 0 2.806-1.26 3.375-1.8.558-.527-.02-.494-1.29.073-.558.248-1.12.428-1.253.398s-.435.12-.68.332c-.468.414-1.66.872-2.016.776-.117-.03-.698.18-1.29.466s-1.326.457-1.63.38c-.382-.1-.546-.01-.546.303 0 .53-1.332 2.613-1.67 2.613s-.295-.48.054-.595c.157-.054.326-.602.373-1.22s.17-1.264.28-1.44.13-.392.04-.477-.234.044-.326.29-.382.447-.635.447c-.64 0-1.115.54-1.115 1.266 0 .79-.39 1.02-.83.5-.19-.23-.498-.36-.683-.288s-.542-.02-.79-.2c-.4-.295-.408-.412-.057-1.09.387-.74.33-1.815-.095-1.815-.118 0-.36.4-.54.885s-.384.74-.454.56-.302-.256-.52-.174-.58-.002-.806-.2c-.47-.387-.534-.35-.78.447-.185.604.428 1.37.874 1.092.134-.082.53.152.878.522.6.638.604.67.093.67-.295 0-.654-.105-.796-.236s-.84-.31-1.553-.403c-1.023-.13-1.293-.082-1.293.23 0 .55.872.956 2.454 1.143.867.104 1.5.044 1.74-.163.313-.26.452-.227.686.166.284.473.31.47.684-.014.215-.276.523-.42.686-.32.197.123.11.42-.253.883-.588.75-.72 1.44-.278 1.44.15 0 .272.43.272.954 0 1.054.455 1.313.594.34.074-.508.267-.616 1.134-.64 1.185-.035 1.623.526.852 1.09-.305.223-.403.488-.262.714.17.272.363.183.8-.367.32-.4.728-.728.91-.728zm13.407.677c.512-.545.575-.75.305-1.02s-.444-.196-.86.344c-1 1.302-.548 1.852.555.677zm4.22.412c.093-.15-.02-.272-.255-.272s-.425.122-.425.272.115.272.256.272.332-.123.425-.272zm5.947-.114c.264.1.386-.01.36-.325-.025-.277.3-.654.776-.904l.93-.496c.063-.036.038-.143-.054-.232s-.51.074-.93.365-1.164.703-1.65.912-.885.54-.885.733c0 .264.133.28.525.07.288-.152.705-.2.927-.124zm-55.497-.627c-.274-.28-.503.138-.278.506.17.278.237.278.33 0 .063-.188.04-.417-.052-.506zm48.19.468c.093-.15.046-.272-.104-.272s-.348.122-.44.272-.047.272.103.272.35-.123.44-.272zm-27.376-.817c0-.15-.124-.272-.272-.272s-.273.122-.273.272.123.272.273.272.272-.123.272-.272zm5.56-.232c.08-.128-.032-.463-.248-.75-.37-.5-.39-.477-.4.232-.01.72.35 1.004.648.517zm-1.32-1.386c.314.258.392.234.392-.118 0-.255-.223-.444-.53-.444-.29 0-.607-.126-.705-.283s-.438-.202-.763-.1c-.85.26-.885.346-.302.77.368.27.667.305 1.02.114.34-.182.62-.163.887.06zM84.913 78c-.27-.27-.75.145-.75.64 0 .414.035.414.46-.01.254-.254.384-.537.29-.63zm-39.432.155c0-.15-.123-.272-.272-.272s-.273.122-.273.272.123.272.273.272.272-.123.272-.272zm43.26-.253c.068-.204-.032-.31-.236-.24a.85.85 0 0 0-.478.477c-.068.204.033.307.237.24a.85.85 0 0 0 .477-.477zm-15.747-.155c.185-.224.447-.408.578-.408s.24.185.24.408.115.408.253.408c.398 0 1.44-1.602 1.29-1.977-.106-.258-.142-.258-.158-.005-.01.182-.27.463-.574.627-.504.27-.54.234-.38-.398.095-.384.068-.694-.06-.692-.242.005-2.004 2.022-2.004 2.294 0 .3.482.15.817-.256zm19.092-.302c.253-.305.188-.38-.346-.38-.623 0-1.313.438-1.313.836 0 .307 1.33-.057 1.658-.457zm24.764.166c0-.248-1.138-.455-3.813-.7l-2.724-.265c-4.28-.468-4.916-.477-4.756-.06.17.444 1.454.698 4.756.932 1.122.082 2.082.185 2.13.23.204.197 4.407.063 4.407-.138zm6.13-.428c.6-.204 1.42-.44 1.82-.518s.913-.326 1.14-.553.58-.408.792-.408.607-.245.88-.545.773-.545 1.117-.545.692-.115.78-.253c.194-.314 3.822-2.743 4.094-2.743.1 0 .44-.305.733-.68s.673-.682.843-.682.64-.32 1.05-.714c.755-.72 1.66-1.323 2.424-1.613.23-.087.66-.517.954-.955s.632-.8.75-.8c.33-.003 2.932-2.122 3.522-2.872.29-.37.706-.672.923-.672s.523-.335.68-.75.81-1.3 1.457-1.975c2.667-2.782 3.32-3.6 4.015-4.96 1.417-2.792 1.833-3.91 2.11-5.652.272-1.714.258-1.785-.447-2.52-.398-.417-.99-.76-1.31-.76s-.675-.09-.785-.2c-.305-.302-3.195-.828-3.756-.683-.3.08-.493.38-.493.77 0 .942-.852 2.563-1.346 2.563-.237 0-1.005.308-1.7.684-1.436.763-3.694 1.443-5.933 1.784-1.866.284-5.4 1.057-6.13 1.34-.492.194-3.138.684-5.58 1.035-.855.123-.912.093-.578-.31.202-.245.59-.447.864-.447s.558-.1.635-.224.852-.384 1.718-.574 1.886-.45 2.26-.572 1.293-.304 2.043-.405 1.484-.28 1.634-.4 1.253-.36 2.452-.534 2.547-.484 2.996-.697 1.558-.643 2.466-.956c1.683-.583 2.42-1.28 2.133-2.024-.34-.885-2.727-.956-4.598-.136-.3.13-1.22.438-2.043.684s-1.743.545-2.042.67c-.864.365-2.673.902-3.27.97-.3.035-1.036.196-1.635.356-1.48.395-1.782.376-1.597-.106.11-.286-.02-.408-.447-.408-.51 0-.578.108-.43.69.112.447.05.72-.178.782-.2.052-1.515.48-2.944.948s-2.86.85-3.18.85-.926.18-1.35.4c-2.278 1.173-4.576 2.075-4.66 1.827-.122-.368-2.018-.084-2.375.354-.398.487-2.48 1.503-3.075 1.503-.28 0-.597.085-.698.188-.204.204-1.91.855-2.735 1.04-.69.158-.806.31-.618.8.087.23.335.35.55.267s.475-.02.572.145c.126.198.37.163.77-.118.738-.517 1.313-.534 1.12-.03-.416 1.084 2.678.525 4.764-.857.508-.338 1.145-.616 1.415-.616s.557-.11.64-.24.488-.323.902-.422 1.95-.664 3.413-1.255c2.797-1.133 4.36-1.417 3.75-.684-.18.218-.747.534-1.258.703s-.932.405-.932.525c0 .605 2.1 1.716 4.282 2.27 1.316.333 2.874.888 3.462 1.237.978.578 1.272.616 3.304.447 1.6-.134 2.286-.096 2.433.14.32.52-.152.773-2.007 1.07-.956.155-1.948.468-2.2.698s-.67.416-.924.416-.6.305-.768.68c-.256.558-.87.978-1.588 1.087-.44.068-1.13.754-2.326 2.32-.743.975-1.473 1.852-1.623 1.953-1.907 1.262-4.223 3.136-4.223 3.413 0 .243.417.354 1.32.354a11.03 11.03 0 0 1 2.656.405c.735.223 1.658.408 2.054.408.72.003 1.54.66 1.136.905-.422.26-3.29.035-3.675-.286-.412-.34-3.092-.562-9.21-.755-2.024-.065-4.485-.253-5.47-.42-3.013-.51-4.88.278-4.88 2.062 0 .503-.122.99-.272 1.084-.452.28-.31.607.34.79.338.096 2.144.218 4.018.27s3.6.185 3.86.288 1.6.363 2.996.567c4.288.635 5.244.825 5.81 1.158.3.173.726.248.953.163s.9-.327 1.498-.53zm-10.76-21.536c0-.444 2.356-1.735 3.166-1.735.77 0 .33.433-1.2 1.166-1.597.768-1.975.877-1.975.57zm-33 21.06c.084-.434.027-.447-.47-.136-.692.433-.747.844-.096.72.258-.052.515-.314.567-.583zm2.44.133c.082-.248-.08-.335-.5-.272-.343.05-.675.256-.74.455-.082.248.08.335.5.272.344-.05.676-.257.74-.455zm1.967.227c0-.15-.122-.272-.272-.272s-.272.122-.272.272.122.272.272.272.272-.123.272-.272zm-35.324-.894c-.082-.136-.27-.123-.422.03s-.18.42-.07.597c.152.248.253.24.422-.03.12-.197.152-.466.07-.597zm29.604-.073c0-.068-.122-.123-.272-.123s-.272.13-.272.29.123.213.272.12.272-.22.272-.285zm11.242-.123c.256-.3.436-.553.4-.566-.428-.145-1.637-.08-1.744.093-.147.237.39 1.018.697 1.018.1 0 .4-.245.646-.545zm-44.18-.57c-.24-.6-.262-.608-.278-.085-.008.3.065.65.166.75.324.324.38.003.112-.664zm49.31.465c6.954-.433 6.878-.422 7.53-1.15.338-.373.614-.984.614-1.354 0-.744-.635-1.142-1.16-.724-.185.144-1.014.283-1.836.302s-2.11.158-2.86.305l-3.498.667c-2.707.51-3.12.806-2.296 1.662.332.347.67.59.746.542s1.32-.16 2.76-.25zm-40.463-.29c.5-.38.487-.4-.297-.408-.626-.007-.945-.2-1.314-.83-.566-.958-1.117-.806-.866.237.313 1.302 1.463 1.768 2.476 1.002zm31.718-.01c0-.223-.05-.408-.106-.408s-.18.185-.264.408-.038.408.106.408.264-.182.264-.408zm-49.578-.433c0-.417-1.672-1.133-1.964-.84-.417.416.71 1.403 1.4 1.223.31-.08.564-.25.564-.382zm2.452-.112c0-.223-.12-.408-.264-.408s-.194.185-.106.408.204.408.264.408.106-.182.106-.408zm40.975-.44c-.215-.35-.658-.016-.658.493 0 .346.075.362.405.087.223-.186.338-.447.253-.58zm-5.747-.2c.42-.17.88-.313 1.02-.313.545 0 .216-.542-.43-.706-.428-.105-.937-.002-1.37.28-.377.246-.777.393-.892.32s-.506.106-.876.387l-.673.512 1.225-.084c.673-.05 1.572-.225 1.994-.398zm9.447.096c.284-.338.248-.408-.2-.408-.302 0-.62.185-.705.408-.092.24-.005.408.2.408.2 0 .52-.183.705-.408zm-44.947-.408c0-.15-.13-.272-.288-.272s-.213.122-.12.272.223.272.29.272.12-.122.12-.272zm49.714-.272c.15-.1 1.152-.276 2.23-.37s2.29-.3 2.7-.454 1.305-.34 1.994-.4a54.31 54.31 0 0 0 2.201-.269l2.996-.433c2.277-.325 4.86-1.218 5.382-1.86.3-.384.276-1.525-.084-2.74-.115-.38-1.302-1.09-1.83-1.09-.13 0-.42-.18-.64-.4-.346-.347-.54-.352-1.41-.028-2.122.8-4.8 1.242-5.855.994-1.014-.237-1.06-.21-2.983 1.64-1.073 1.033-2.17 1.948-2.44 2.035s-.5.27-.5.4-.185.253-.408.253-.408-.123-.408-.272c0-.393-.63-.333-1.243.12-.522.387-.522.398.014.793.53.392.52.415-.286.877-.454.262-.96.754-1.122 1.1-.28.597-.256.618.558.466.47-.1.975-.25 1.125-.36zm-34.113.112c.258-.262-.398-1.474-.8-1.474-.436 0-.442.04-.098.937.258.68.567.866.897.537zm28.607-.657c.106-.403.008-.545-.376-.545-.286 0-.52.052-.52.115s-.074.307-.167.545c-.117.305-.005.43.38.43.314 0 .602-.23.684-.546zm-5.5-.623c-.35-.35-.703-.08-.444.338.1.163.308.217.46.124.185-.114.18-.267-.016-.463zm-18.823.096c0-.322-.532-.665-.727-.47s.15.724.47.724c.142 0 .256-.114.256-.255zm21.242-.22c-.003-.112-.25-.51-.55-.885-.52-.654-.534-.597-.134.68.127.414.694.583.684.204zM31.91 71.56c-.194-.196-.32-.213-.32-.04 0 .362.32.686.504.503.075-.08-.005-.285-.183-.463zm30.17-.86c.017-.422-.05-.452-.39-.172-.43.36-.545 1.14-.213 1.47.223.223.572-.534.602-1.297zm2.47.477c0-.845-.057-.937-.408-.65-.422.352-.545 1.136-.227 1.455.408.41.635.126.635-.806zm1.82.033c.027-.523-.052-.954-.175-.954-.29 0-.62 1.314-.41 1.65.314.51.537.245.586-.695zm16.576.126c.07-.118.613-.295 1.204-.396s1.217-.354 1.39-.566.537-.4.8-.4.765-.218 1.124-.485c.872-.653 3.647-1.967 4.157-1.967.227 0 .5-.13.588-.29s.415-.376.7-.482c.477-.176.484-.237.093-.798-.436-.62-1.59-.826-1.894-.335-.092.15-.414.272-.712.272-.588 0-2.37.72-4.328 1.743-.676.35-1.386.58-1.583.5s-.564.044-.817.256-.8.533-1.237.716c-.646.276-.75.447-.607 1.01.14.553.044.724-.517.94-.377.14-.687.307-.687.365 0 .204 2.195.103 2.324-.103zm-35.557-.398c0-.223-.122-.4-.272-.4s-.272.186-.272.4.122.408.272.408.272-.183.272-.408zm70.964-.864c2.74-1.555 6.477-4.702 7.213-6.075.41-.773-.986-1.498-2.084-1.08a4.38 4.38 0 0 1-1.583.224c-.474-.038-1.23.2-1.778.534-.527.33-1.262.67-1.635.76s-1.206.33-1.847.537-1.66.38-2.26.38-1.46.2-1.904.42-.962.395-1.143.365c-.335-.054-1.085.096-3.005.605-1.188.316-1.537.962-1.345 2.492.138 1.14-.267 1.02 3.97 1.174 1.174.04 2.176.117 2.225.166.213.215 4.68-.218 5.18-.5zm-80.362-.1c-.093-.15-.223-.272-.288-.272s-.12.122-.12.272.13.272.288.272.213-.122.12-.272zm52.007-.175c.093-.245.11-.508.035-.583-.174-.175-.967.478-.967.793 0 .422.752.253.932-.21zm-28.99-.25c0-.354-.583-1.21-.83-1.21-.367 0-.326.646.066 1.035.34.343.762.438.762.174zm7.082-.95c0-.14-.122-.258-.272-.258s-.272.194-.272.425.122.35.272.256.272-.283.272-.422zm-12.802-.817c0-.14-.123-.26-.272-.26s-.272.194-.272.426.122.35.272.256.272-.284.272-.422zm20.664.316c.27-.17.283-.286.054-.428-.39-.24-1.106.01-1.106.39 0 .34.546.36 1.052.038zm4.154-.953c.542-.096 1.74-.542 2.662-.987s1.766-.814 1.877-.814c.393-.003 3.38-1.302 3.68-1.6.168-.17.424-.31.57-.31.354 0 2.645-1.082 3.166-1.496.635-.506 2.752-1.264 3.6-1.288.657-.02.736-.1.597-.662-.124-.507-.05-.64.37-.64s1.162-.942 1.162-1.48c0-.23-1.054-.332-1.403-.136-.215.12-.564.115-.773-.016-.286-.178-.178-.28.42-.408 1.588-.338 2.57-.956 3.264-2.057.53-.836.663-1.32.532-1.915-.14-.637-.093-.766.234-.64.564.218.962-.643.798-1.724-.114-.747-.294-.975-.686-.864-.038.008-.414-.114-.836-.274-1.482-.562-2.928.47-2.084 1.49.255.308.245.42-.047.523-4.34 1.517-5.138 1.876-5.067 2.282.1.59-1.158 1.1-5.848 2.356-1.305.35-2.766.83-3.242 1.068s-1.038.433-1.24.433c-.627 0-1.975 1.38-1.8 1.84.142.365.204.356.506-.057.194-.264.5-.384.67-.275.174.11.417.044.534-.147.24-.39 6.017-2.367 7.897-2.702 2.48-.445 4.116-.897 6.647-1.83.768-.283 1.147-.31 1.36-.096.403.4-.044.654-1.967 1.106-.85.2-1.912.586-2.36.855s-1.04.5-1.3.5c-.624.003-2.733.646-5.364 1.637-1.124.422-2.45.853-2.948.953-.675.14-.863.298-.74.616.17.44-.262.87-.874.877-.188.002-.34-.12-.34-.27s.2-.272.424-.272.35-.122.257-.272c-.292-.468-.665-.297-.836.387a1.16 1.16 0 0 1-.823.822c-.473.117-.656.354-.656.84 0 .78.493.87 1.593.302 1.665-.866 2.2-1.024 5.217-1.553 2.144-.376 4.103-.615 4.977-.607.785.006 1.22.24.95.512-.194.19-3.68.87-4.43.864-.3-.003-1.22.2-2.043.428l-2.86.822c-2.2.632-2.86.96-2.86 1.42 0 .763-1.405 2.357-1.953 2.212-.59-.155-.885.218-.653.822.15.387.217.39.637.022.26-.227.915-.5 1.454-.588zM93.423 59.9c0-.245 1.365-.63 1.557-.435.07.07.06.248-.027.386-.2.31-1.53.35-1.53.05zm6.066-8.878c.09-.09.326-.1.522-.02.218.087.153.152-.166.166-.286.01-.447-.054-.356-.145zM69.545 64.86c-.104-.864-.29-1.39-.47-1.332-.43.14-.537 2.33-.14 2.81.542.653.8.05.61-1.48zm4.538 1.433c0-.234-.126-.35-.278-.255s-.204.285-.12.424c.235.38.398.307.398-.17zm-11.17-.918c0-.16-.122-.294-.272-.294s-.272.193-.272.425-.122.35-.272.256c-.294-.183-.38.213-.103.487.207.207.92-.47.92-.874zm43.972.834c.08-.13.545-.314 1.037-.406s1.564-.367 2.39-.6 1.99-.54 2.588-.66c1.57-.314 7.595-1.915 7.734-2.054.065-.065-.087-.343-.335-.618-.558-.616-.572-.867-.055-.867.22 0 .523.232.673.513.25.463.548.5 3.21.39 1.616-.068 2.977-.24 3.03-.382s.258-.422.46-.623.405-.722.452-1.155c.082-.747-.003-.81-1.798-1.394-1.035-.335-2.087-.796-2.338-1.02s-.602-.412-.784-.412-.785-.228-1.34-.512c-1.13-.575-3.677-.515-4.415.106-.227.188-.673.422-.998.523s-.744.363-.93.59c-.46.553.258 1.223 1.997 1.86.7.262 1.293.6 1.293.752 0 .163-.2.194-.477.075-.262-.114-1.194-.343-2.07-.512-.902-.174-1.74-.513-1.937-.78-.518-.712-1.457-.558-3.457.56-2.005 1.12-6.23 4.247-6.592 4.88-.507.885 2.124 2.62 2.662 1.754zm12.143-5.76c0-.15.054-.272.12-.272s.196.123.288.272.038.272-.12.272-.29-.122-.29-.272zm-42.37 4.656c.262-.51.705-.862 1.23-.975.567-.126.823-.344.823-.703 0-.485-.632-.71-1.5-.534a18.62 18.62 0 0 1-1.397.131c-.616.044-1.246.153-1.396.246-.405.25-.558 1.065-.318 1.68.2.51.212.504.23-.074.012-.335.13-.614.27-.614s.444-.073.68-.163c.333-.13.43.016.43.634 0 .7.176 1.164.447 1.164.046 0 .27-.357.496-.792zm21.855.46c.626.035 1.218-.06 1.3-.2s.422-.274.735-.274c.972 0 8.118-4.93 8.118-5.604 0-.207-.44-.44-1.022-.542-.56-.098-1.297-.35-1.634-.564-.9-.564-3.2-.024-4.955 1.158-.572.39-1.164.577-1.518.487-.35-.087-.724.028-.937.28-.194.234-.47.424-.616.424s-.558.232-.918.515c-.547.43-.6.567-.272.83.262.218.44.227.558.03.098-.154.43-.285.738-.285.47 0 .507.068.223.408-.185.225-.583.408-.882.408-.744 0-2.71 2-2.504 2.544.188.485 1.092.716 1.888.487.3-.087 1.056-.128 1.686-.095zm1.77-4.588a.85.85 0 0 1 .477-.477c.204-.068.305.035.237.24-.066.197-.28.41-.478.477-.204.068-.304-.035-.236-.24zm1.582-.635c0-.057.19-.18.422-.27.243-.092.352-.047.256.11-.157.258-.68.382-.68.16zm1.1-.444c0-.32 1.362-.902 1.585-.68.188.188-.796.937-1.244.948-.188.005-.34-.117-.34-.27zm-36.774 5.045c0-.673-.37-.912-.665-.434-.2.32.103 1.115.422 1.115.133 0 .242-.305.242-.68zm12.854-.05c-.196-.08-.433-.068-.522.022s.07.155.356.145c.32-.014.384-.08.166-.166zm10.982-.087c.093-.15.046-.273-.104-.273s-.35.123-.44.273-.046.272.104.272.348-.123.44-.272zm3.486-.478c.08-.41.1-.782.07-.825-.18-.182-2.36.314-2.8.635-.7.513-.188.83.763.47.648-.242.883-.228 1.147.07.5.558.66.485.822-.352zm-29.3-.326c.22-.354.237-.59.055-.703-.352-.217-1.073.363-1.073.862 0 .553.634.454 1.018-.158zm7.698-.695c.186-.223.53-.408.764-.408.496 0 3.323-1.9 3.323-2.223 0-.126.122-.23.272-.23s1.065-.55 2.03-1.225 1.923-1.226 2.13-1.226.644-.283.968-.628 1.02-.8 1.547-1.003c.542-.212.953-.566.953-.814 0-.556.526-1.092 1.076-1.1.542-.01 2.51-1.493 2.283-1.72-.093-.096-.46-.098-.812-.01-.384.098-.64.04-.64-.14 0-.167.092-.305.204-.314.27-.016 1.964-.4 4.155-.94l2.922-.687c.635-.138 1.474-.457 1.86-.714.6-.392.642-.498.277-.702-.237-.134-.43-.358-.43-.5 0-.43 1.046-.292 1.305.174.428.763 1.496.35 2.168-.844.338-.6.69-1.302.782-1.567s.27-.477.393-.477.387-.288.583-.646l.826-1.473c.6-1.052 1.844-5.328 1.844-6.337 0-.42.182-.95.408-1.174s.408-.677.408-1.004c0-.565-.09-.59-1.567-.453-3.402.322-5.864.83-6.004 1.246-.09.272.042.313.523.157 1.087-.35 2.17-.326 2.555.057.202.202.63.365.95.365.412 0 .558.145.493.477-.068.352-.38.488-1.18.515a24.83 24.83 0 0 0-2.383.242c-1.142.18-1.28.15-1.13-.242.096-.25.036-.447-.138-.447s-.387.2-.48.44c-.18.464-2.644 1.733-3.377 1.738-.6.003-1.738 1.253-1.357 1.5.5.302.038.69-.798.69-.553 0-.948.234-1.345.792-.31.436-.564.918-.564 1.07s-.276.365-.613.468a3.46 3.46 0 0 0-1.073.588c-.572.504-2.4.63-2.4.166 0-.182.262-.512.58-.738.392-.272.534-.588.436-.967-.082-.3-.036-.632.103-.716.548-.34-.152-.717-1.087-.583-.542.08-.834.082-.646.007.62-.245.352-.56-.362-.422-.387.075-.78.33-.872.57s-.48.73-.86 1.09l-.698.656.818-.2c.45-.103 1.185-.253 1.634-.332l.817-.142-.88.56c-.485.307-1.28.61-1.77.67-1.237.152-2.166.56-2.75 1.206-.34.38-.398.607-.188.738.395.242-.515.95-.986.77-.408-.158-1.305 1.14-1.063 1.536.117.188.42.155.912-.098.406-.21 1.506-.534 2.447-.72C80.92 47.3 82.49 46.404 82.07 46c-.122-.117-.532-.26-.904-.313-.677-.1-.677-.1.2-.567 1.136-.613 1.716-.597 1.716.05 0 .447.15.5 1.087.373.67-.1 1.244-.017 1.496.194s.69.264 1.16.144c1.288-.33 2.03-.438 3.457-.506.76-.035 1.637-.207 1.95-.38s.804-.316 1.1-.316 1.103-.084 1.814-.188c1.073-.152 1.295-.112 1.295.246 0 .234-.123.5-.27.594-.297.183-2.36.787-4.467 1.307-.735.18-1.318.45-1.3.6.038.29-1.406.9-2.215.934-.27.01-.752.267-1.073.567-.578.536-.578.55-.057.942.368.278.412.403.145.408-.2.005-.804.332-1.32.728-.853.65-.927.808-.78 1.732.15.937.117 1.005-.447.905-.414-.074-1.16.302-2.312 1.166-.937.7-1.703 1.38-1.703 1.51s-.117.234-.258.234-.826.384-1.515.85c-.87.588-1.206.978-1.094 1.272.193.503-.292.866-1.17.87-.346.003-1.02.297-1.498.654-.973.728-2.092 1.147-2.092.782 0-.428 1.466-1.613 2.792-2.258 1.394-.68 1.72-1.226.607-1.014-.38.074-.75.033-.825-.09-.18-.29.902-.867 1.234-.663.142.087.475.052.744-.08l2.033-.986c1.315-.635 2.1-1.37 1.792-1.677-.047-.047-.57.04-1.166.193-2.146.548-2.308.57-2.308.322 0-.14 1.134-.54 2.52-.888 2.523-.638 4.02-1.534 4.02-2.41 0-.447-.408-.38-2.836.47-.883.31-1.84.564-2.12.564-.74 0-3.12 1.265-3.31 1.76-.126.32.027.42.646.42 1.28 0 .942.428-.62.79-.907.21-1.81.665-2.468 1.242-1.076.948-.99 1.38.206 1.08 1.142-.286.793.093-.803.874-1.052.513-1.5.89-1.5 1.262 0 .29-.316.78-.702 1.084-.523.412-.616.61-.358.768.194.12.562.104.823-.037.664-.354 1.12-.314.986.087-.066.187-.4.343-.747.348-.847.008-1.32.757-.84 1.333.447.536.68.54 1.108.02zm10.012-7.398c.188-.073.492-.073.68 0s.033.138-.34.138-.53-.063-.34-.138zm6.328-6.088c-.558-.344-.328-.45 1.466-.667 1.122-.136 1.545-.104 1.414.103-.1.164-.5.294-.864.294s-.897.115-1.158.254c-.274.147-.634.155-.857.016zm3.274-2.45c0-.15.338-.27.75-.267.583.002.66.063.34.267-.534.346-1.09.346-1.09 0zm-12.432-1.5c.99-.515 1.288-.515 1.09 0-.093.246-.5.408-1.013.408l-.855-.002zm9.164-2.503c0-.417 2.628-.98 3.166-.68.398.224.35.285-.328.42-2.135.428-2.838.5-2.838.262zm4.3-.81c.188-.074.494-.074.682 0s.032.14-.34.14-.527-.063-.34-.14zM91.4 41.14c-.084-.134.16-.32.54-.417.836-.2 1.443.073.902.417-.485.307-1.253.307-1.44 0zm2.21-.202c-.386-.39.188-.642 1.396-.613.702.016 1.032.1.732.164s-.66.242-.803.375c-.3.286-1.068.328-1.324.074zM66.407 62.693c.05-.356-.057-.61-.26-.61-.27 0-.272-.07-.02-.328.18-.18.328-.52.328-.754s.245-.64.545-.897c.69-.594.703-1.3.02-1.3-.618 0-2.04 1.353-2.637 2.506-.47.9-.332 1.288.28.78.578-.48 1.05-.08.848.717-.136.547-.077.656.318.583.267-.052.526-.368.576-.706zm29.233-.326c.643-.536.643-.536.05-.545-.512-.008-1.45.616-1.45.964 0 .305.826.06 1.4-.42zm-25.984-.1c.466-.29.428-.634-.093-.833-.398-.153-2.02.58-2.02.915 0 .227 1.73.158 2.11-.082zm8.8-.454c.297 0 .695-.347.937-.818.5-.964.23-1.054-1.283-.422-1.166.485-1.763 1.122-1.248 1.33.194.077.515.1.714.028s.597-.117.88-.117zm-8.24-1.888c.068-.204-.032-.31-.237-.24-.196.065-.41.28-.477.477-.068.204.033.307.237.24.196-.065.41-.28.477-.477zm1.577-2.16c.35-.395.57-.923.496-1.17-.087-.295.06-.518.412-.63.65-.206 1.708-1.47 1.503-1.798-.353-.578-2.972 1.204-2.723 1.855.1.264-.205.73-.844 1.283-.63.545-.93.994-.8 1.202.288.466 1.204.12 1.958-.74zm-3.42-.18c.975-.504 1.13-1.36.2-1.063-.83.265-1.838.94-1.838 1.237 0 .368.754.288 1.648-.174zm2.098-3.092c.654-.787.43-1.135-.485-.75s-1.75 1.387-1.493 1.803c.182.293 1.403-.356 1.977-1.054zM85.4 55.59c.142-.124.934-.373 1.763-.55 1.098-.234 1.576-.482 1.77-.915.267-.595 2.613-1.43 3.3-1.177.417.15 3.152-1.253 3.293-1.69.18-.555-1.157-.398-2.454.29-.652.346-1.8.792-2.534.99-1.59.428-4.876 1.96-5.843 2.73-.638.504-.646.54-.123.545.307.003.676-.095.817-.223zm-10.923-2.528c.142-.13.517-.24.833-.24.586 0 2.04-1.29 2.04-1.81 0-.155.5-.504 1.1-.776 1.046-.47 2.114-1.883 1.644-2.17-.12-.074-.596.054-1.06.286s-1.304.492-1.87.583c-1.25.2-2.8 1.316-2.8 2.016 0 .283.14.482.305.444s.365.087.433.272-.074.34-.316.34c-.575 0-1.697.74-1.9 1.248-.12.308.01.357.59.22.405-.096.857-.284 1-.412zm1.027-1.647c.065-.2.46-.4.877-.45.534-.063.72.016.637.272-.066.2-.46.4-.877.45-.534.063-.72-.017-.637-.272zm-4.05 1.012c.904-.836.918-1.24.04-1.24-1.002 0-2.1 1.204-1.588 1.727.338.337.825.185 1.548-.488zm10.07-1.57c.274-.138.997-.305 1.61-.365 1.847-.185 2.16-.36 2.076-1.166-.04-.4.008-.86.11-1.02.36-.586-.597-1.476-1.583-1.476-.515 0-.937.12-.937.26s-.332.572-.74.95c-1.055.98-.55 1.403 1.02.86 1.155-.397 1.626-.37 1.626.1 0 .218-.812.47-2.27.698-2.022.32-3.452.942-3.452 1.503 0 .267 1.836.017 2.54-.346zm-8.797-.95c.93-.64 1.32-1.21 1.145-1.67-.082-.213.123-.59.452-.84.395-.3.54-.613.422-.92-.27-.702-.74-.558-1.345.414l-1.147 1.837c-.98 1.57-.787 2.048.473 1.18zm58.422-1.988c.093-.15-.075-.272-.376-.272s-.62.122-.714.272.077.272.376.272.62-.123.714-.272zm-41.63-1.517c.722-.385 1.005-.63.633-.54s-1.202.235-1.84.328c-.714.106-1.157.313-1.157.54 0 .572.918.445 2.363-.33zm56.203-.663c0-.15-.122-.272-.272-.272s-.272.122-.272.272.122.272.272.272.272-.122.272-.272zm-68.237-1.707l1.864-1.597c.684-.586.782-.792.515-1.115s-.196-.517.35-1.032c.46-.43.677-.93.677-1.545 0-.572.202-1.082.546-1.375.3-.256.545-.684.545-.95 0-.302.204-.485.545-.485.3 0 .545-.122.545-.272 0-.357-.068-.35-1.39.18-.858.344-1.246.38-1.6.152-.38-.234-.578-.196-.92.183-.24.264-.435.597-.435.738s-.3.697-.668 1.237-.75 1.334-.855 1.768a5.42 5.42 0 0 1-.653 1.463c-.913 1.348-1.357 2.527-1.194 3.176.204.817.733.686 2.143-.526zm.743-2.7c.17-.507.755-.588.755-.11a.43.43 0 0 1-.431.431c-.237 0-.384-.145-.325-.32zm10.017-.286l.953-.607-.754-.1c-.84-.103-.75-.602.114-.602.305 0 .867-.245 1.248-.545s.905-.545 1.164-.545c.558 0 1.906-1.003 1.906-1.42 0-.455-2.69-.06-4.004.585-.63.31-1.286.562-1.457.562-.428 0-1.893 1.07-1.893 1.38 0 .142.36.253.8.253.902 0 1.365.464.714.714-.506.194-.572.923-.085.92.188 0 .77-.276 1.295-.608zm-3.76-2.288c1.21-.843 1.394-1.736.354-1.736-.377 0-.68-.09-.68-.204.003-.272 1.35-.885 1.953-.885.513 0 1.13-.796 1.452-1.878.213-.7.227-.7-1.773-.016-1.512.526-1.777.712-1.69 1.183.046.24-.06.438-.234.438-.194 0-.256.237-.16.602.106.4-.065.896-.512 1.482-1.307 1.716-.567 2.3 1.29 1.014zm4.536-1.6c.847-.232 1.72-.517 1.948-.637s1.054-.373 1.845-.564c1.402-.335 1.97-.843 1.97-1.766 0-.54-1.22-.57-2.204-.054-.39.202-1.166.455-1.724.558-1.78.335-3.698 1.567-3.698 2.373 0 .615-.052.613 1.866.09zm-7.712-2.47c.708-.466.883-.923.35-.923-.38 0-1.316.806-1.316 1.134s.204.285.965-.2zm16.74.1a3.06 3.06 0 0 1 .817-.158c.224-.005 1.387-.193 2.583-.42 2.163-.408 2.865-.847 2.865-1.784 0-.616-.983-1.14-1.773-.94-.398.098-.68.052-.68-.115 0-.294.338-.428 1.84-.73.487-.098.885-.343.885-.545 0-.29-.527-.343-2.52-.25-3.795.178-5.53.583-5.893 1.377-.245.54-.2.75.248 1.2l.546.545-.58.787c-.32.433-.5.918-.4 1.082.176.283 1.217.26 2.06-.05zm-.545-2.13c0-.267.047-.28 1.2-.34.44-.022.837.082.886.232s-.4.29-1 .313-1.087-.068-1.087-.204zM89.88 34.36c0-.23 1.692-.74 3.338-1.008.56-.09 1.332-.436 1.716-.765.597-.518.646-.668.34-1.076-.324-.436-.422-.44-1.152-.06-.438.23-1.506.5-2.373.583-1.272.133-1.705.313-2.266.94-.83.935-.894 1.6-.148 1.6.3 0 .545-.095.545-.212zm-2.876-1.5c.913-.26 1.594-.68 2.122-1.308l.777-.93-1.033-.136-1.032-.136 1.634-.602c1.47-.545 2.596-1.522 2.204-1.915-.256-.256-4.072 1.267-4.928 1.967l-.817.667.953.014.954.014-1.703 1.01c-1.136.672-1.702 1.18-1.702 1.525 0 .558-.02.56 2.57-.17zm-3.947-.46c.272-.147.747-.688 1.054-1.21l.556-.942-.594-.098c-.518-.087-.47-.152.36-.526a5.99 5.99 0 0 0 1.623-1.158c.57-.615.62-.808.34-1.256-.436-.702-.417-1.082.06-1.082.518 0 2-1.825 2.197-2.705.086-.385.533-1.13.993-1.653s1.134-1.536 1.494-2.248.78-1.294.925-1.294c.513 0 .265-1.053-.29-1.23-.768-.245-.248-.85 1.07-1.244.978-.293 2.328-1.747 2.046-2.203-.077-.124-.406-.23-.735-.232-.586-.006-.586-.015.084-.557.373-.303.967-.67 1.316-.813.98-.404.553-.934-.792-.983-1.308-.047-1.948.347-2.593 1.595-.53 1.02-.488 1.12.367.925l.75-.17-.818.702c-.45.386-1.086.813-1.42.947s-.932.77-1.337 1.412-1.06 1.66-1.46 2.258c-.602.907-1.896 3.29-2.735 5.04l-1.463 2.996c-.698 1.423-1.265 2.922-1.262 3.327.003.466-.196.848-.54 1.03-.662.354-.754 1.635-.117 1.635.234 0 .648-.117.92-.265zm10.502-1.6c1.726-.473 2.032-.697 2.037-1.482.012-1.204-2.484-.722-3.972.768-1.084 1.084-1.21 1.643-.313 1.357.338-.106 1.35-.398 2.248-.644zm5.448-1.408c.75-.158 2.332-.316 3.517-.35 1.923-.06 2.184-.13 2.42-.668.19-.428.167-.72-.084-1.023-.29-.352-.782-.4-2.83-.268-4.07.262-4.6.412-5.124 1.478-.512 1.023-.408 1.48.283 1.26.25-.08 1.068-.272 1.818-.428zm-4.473-1.525c.236-.207.57-.38.75-.38s.318-.05.318-.112.075-.31.167-.546c.127-.337-.025-.43-.698-.43-.515 0-.792-.112-.69-.276a.32.32 0 0 1 .44-.11c.29.178 1.327-.625 1.327-1.026 0-.132-.19-.312-.422-.4-.47-.18-1.757.88-1.757 1.443 0 .193-.246.482-.545.642-.36.194-.546.57-.546 1.118 0 .73.07.804.614.638a3.34 3.34 0 0 0 1.043-.561zm-5.92-.008c1.6-.832 1.803-.914 2.3-.914.27 0 .63-.136.798-.304s.578-.442.913-.613.855-.64 1.155-1.046c.447-.6.485-.81.207-1.146-.485-.584-.145-.95 1.056-1.143 1.256-.2 2.44-1.52 1.926-2.143-.237-.284-.2-.432.157-.632.586-.33.317-1.145-.378-1.145-.28 0-.796.306-1.148.68-.574.61-.588.68-.138.68.82 0 .294.288-1.965 1.08-2.667.933-3.246 1.295-3.653 2.275-.25.607-.25.828.005.986.22.137.022.413-.615.85-.844.58-1.806 2.027-1.806 2.72 0 .362.2.332 1.185-.186zm2.476-3.783c.29-.22.78-.396 1.09-.39.553.008.553.015.033.408-.29.22-.782.397-1.1.39-.553-.008-.553-.015-.032-.408zm2.386-4.114c1.05-.73 1.313-1.182.694-1.198-.188-.005.272-.26 1.02-.567 2.4-.984 4.157-1.877 4.5-2.29.182-.22.482-.402.667-.402.44 0 1.333-.997 1.047-1.173-.123-.075-1.45.154-2.946.51l-3.454.792c-.43.084-.888.45-1.117.893-.885 1.71-1.45 2.633-1.91 3.117-.493.52-.42 1.037.15 1.037.17 0 .773-.323 1.346-.718zm.762-9.792c0-.237-.145-.383-.324-.323-.504.168-.588.755-.106.755.237 0 .43-.195.43-.432zm2.87-.965c.305-.962-.722-1.367-1.66-.655-.444.336-.457.4-.084.408.243.004.596.193.782.417.465.56.746.513.964-.17zm21.182 123.94c-.183-.218-.335-.637-.343-.93s-.074-1.084-.147-1.76c-.098-.88-.063-1.07.117-.68.14.3.262.858.272 1.24s.152.83.314.992.255.575.204.915c-.077.53-.14.56-.417.223zm-2.806-.243c0-.152-.307-.395-.68-.54s-.68-.444-.68-.672c0-.64.353-.502 1.362.536.69.717.81.953.463.953-.255 0-.463-.124-.463-.278zm.84-1.002c-.305-1.286-.262-3.473.08-3.81.093-.096.17.433.17 1.174 0 .782.18 1.602.428 1.956.466.667.436 1.724-.056 1.885-.178.06-.44-.452-.62-1.204zm3.413.852c-.232-.6.02-.852.438-.438.23.23.237.408.03.613s-.344.155-.468-.174zm-.513-1.915c-.108-.108-.2-.387-.2-.616 0-.307.082-.337.302-.114.167.166.256.444.2.615s-.193.223-.302.115zm.918-.754c-.253-.305-.3-.744-.152-1.46l.21-1.027.23 1.225c.276 1.482.196 1.84-.286 1.262zM98.547 22.24c.403-.487 2.318-.596 2.162-.122-.06.183-.642.37-1.297.42-.99.072-1.13.023-.866-.297zm3.94-3.284c.13-.392 1.014-.597 1.014-.235 0 .144-.253.326-.56.407-.356.094-.52.03-.452-.172zm-2.255-7.503c0-.337 1.3-.734 1.555-.477.237.237.054.37-.806.585-.473.12-.75.08-.75-.108z" /></svg>