<svg xmlns="http://www.w3.org/2000/svg" width="215.146" height="881.866" viewBox="0 0 56.924 233.327"><path fill="currentColor" d="M0 208.98c.114-3.776 2.044-7.155 3.71-10.456 3.008-7.02 4.78-14.565 4.77-22.2.622-10.182.585-20.197 1.918-30.233.724-8.602 1.95-17.16 2.55-25.787.55-7.824.99-15.617 1.237-23.514-.023-6.114.3-12.34.278-18.463.112-8.25.51-16.458-.126-24.65.186-3.41-.885-6.772-1.237-10.154-.676-2.723-1.018-5.464-2.145-8.083-1.674-4.36-4.956-7.857-7.35-11.77-.28-2.015-.554-4.208-.303-6.213 2.623-2.338.075-5.982.808-8.765.057-2.386 1.25-5.085 3.864-5.456 2.065-.603 3.956-1.687 6.088-2.12 2.775-.373 6.582-.07 7.83 3.02 1.255 2.547 4.636 1.66 6.82 1.172 3.003-1.544 5.576-4.253 8.966-5.025 3.45-.222 8.368-1.208 10.406 2.55 1.166 1.653 2.632 3.258 2.374 5.43.707 2.17 1.105 4.42 2.197 6.49.82 3.9.687 8.296-1.287 11.846-2.044 2.177-4.72 3.706-6.366 6.314-2.4 3.788-3.555 8.16-4.85 12.402-1.73 5.896-2.992 11.87-3.89 17.983-2.38 10.125-3.025 20.655-3.08 30.938.038 7.626-.472 15.215-1 22.81.197 6.423-.994 12.705-.91 19.145l.783 27c.265 3.23 1.498 6.42 2.4 9.502 1.56 3.046 2.503 6.395 4.47 9.24.84 3.327-3.2 5.278-3.08 8.587-.23 4.748 3.037 8.825 6.136 12.073 2.27 2.4 6.097.725 8.513 2.93 3.833 1.56 5.984 5.72 6.44 9.598.01 4.607-.912 9.458-3.4 13.412-2.71 2.945-6.525 4.986-10.583 4.698-3.428.517-7.43-1.017-8.587-4.54-1.294-2.422-3.215-4.53-4.747-6.774-1.438-1.772-3.437-2.702-5.53-3.334-1.236-1.044-2.356.034-2.177 1.414-1.04 2.718-4.16 2.938-6.416 4.117-3.544-.025-7.8-.7-9.7-4.213-1.603-2.88-3.437-5.676-5-8.547-.26-.756-.747-1.557-.777-2.37zm2.324.657c.167 1.208 1.448 2.124.707.404.127-.67-.745-1.67-.707-.404zm1.036-4.824c.555-.6.54-2.516.025-.91.2.253-.34.825-.025.91zm.732-183.44c.045.833 1.34 3.33 1.566 1.617-.514-1.396.132-3.432-.934-4.294-.904.526-.46 1.854-.63 2.677zm.758 193.923c1.035 1.545.333-1.015 0 0zM5.37 18.2c.245-.052-.095-.262 0 0zm.693 194.883c1.003 1.933.944-.947 0 0zm.354-201.6c.647 2.323 2.732-1.922 1.086-1.257-.57 1.347-1.073-.476-1.086 1.257zm.1-2.677c1.028 1.788.735-1.857 0 0zM7.02 209.99c1.54 1.306-.336-2.588 0 0zM7.274 7.53c.935 1.647 2.282-1.284.606-1.06-.415.134-.74.625-.606 1.06zm.05 5.506c.728 1.702.204 3.62 1.388 5.203 1.008 2.442 2.832 4.887 5.657 5.152 1.547.597 1.672-1.532 3.233-1.414 1.88-.946 2.3-3.405.98-4.99 1.114-1.453.62-3.25 1.218-4.86.463-1.122 1.924-2.978.732-4.243.336.914-.55 3.293-.555 1.187-.46-.842-.432-1.91.632-1.844.642-1.512-.495-3.782-2.096-3.99.797.24 2.254 2.23 1 1.58-1.62-1.782-.038 1.442-1.5 1.857-.894.26-1.05.42-1.212 1.263-.407.82.06 2.087-1.238 1.313-.256.745-1.85 1.155-1.288-.1.6-1.232-.243-1.682-1.086-.505.156-1.285-.948-1.77-1.11-.366-1.352.81-.08 1.284.91 1.376 2.048 1.14-2.27 2.186-.323 3.24-1.658 1.6-2.606-1.976-4.425-.562-.327.183-1.087.152-.933.708zm2.538 2.658c1.424-1 2.012.345 2.59 1.432 1.267 1.52-1.446.33-1.868-.352-.186-.313-.83-.62-.72-1.08zm-2.235 199.7c.183.664 1.878 2.35.43 1.604 1.06.887 2.633 1.038 2.98 2.603 1.065 1.408-2.096-.52-.645.945 1.547.32 1.138 2.916 3.196 2.425 1.54.324 2.432-.775 3.56-1.54 2.3.58 4.303-2.172 2.526-4.005-2.574-2.4-2.22-6.3-1.515-9.38.658-2.153-1.682-4.13-.152-6.137.518-1.69-.626-3.263.328-4.875-.094-1.415 1.734-1.58 1.515-3.182-.466-1.715 1-3.038.682-4.698.068-1.92-1.222.807-.808 1.56-.318-.507-1.254.08-1.06-.45-.336-1-1.427 1.087-1.717 1.768-.53.95-.6 2.017.758 1.97.068 1.38-1.494.773-1.958.416-.924 1.286.896 2.627.392 3.676-.432-1.252-1.6-.617-.96.53-.74-.754-1.52-.54-.935.732.855 1.067-.322.55-.43 1.288.016.823 1.543 1.963 1.136 2.197-.895-.898-1.6-.127-2.273.404.048.87.634 1.525-.62 1.313-.255 1.012 1.833 1.506 1.1 2.83-.337 1.508.01 3.84 2.12 3.556.394 1.452.09 3.105 1.11 4.45.002 1.002-1.443-.85-1.667-1.554-.992-.326-.15 1.83.303 2.36.758.657 1.56 2.31.05 1.34-1.193-1.194-2.103-3-2.273-4.673.213-.604.235-2.163-.177-.808.23 1.686-.636 3.458.328 4.996.54 1.18 3.214 1.66 1.743 2.934-.85.523-2.563.15-3.056-1.06-1.036-1.48-3.05-2.812-4.014-3.537zm5.848 5.512c.897-.566 2.324 1.12.644.625-.263-.096-.73-.28-.644-.625zm3.396-5.058c.043-1.836 1.728 1.392.24.455-.15-.075-.333-.275-.24-.455zm.808-22.605c.247-.333.244.393 0 0zm.202-.86c.562-1.3.156.84 0 0zm.253-.657c.538-.993.392-.627 0 0zm.316-.827c.297-.06-.077.303 0 0zm-10.772 28.99c.236.832 2.223 2.527 1.92 1.162-.65-.083-1.773-1.4-1.92-1.162zM7.98 9.198c.927.46 1.194-1.74.266-.303-.103.067-.307.204-.266.303zm0 18.31c.256 1.176 1.298 1.623.63.152-.086-.438-.527-1.01-.63-.152zm.455 185.967c.167.845 1.768 2.38 2.172 1.97-.99-.916.696-1.137.278-2.248 1.072-1.34-.22-2.514-1.162-3.31-.54-1.112-.216 1.424-.86 1.654.095.888.797 1.843-.43 1.68.017-.012-.085.266 0 .253zm.1-6.314c1.1.848-.018-2.035 0 0zM9.446 5.46c.15 1.337 1.645 1.122 1.086-.2-.138-.5-1.262-.383-1.086.2zm.025 4.925c1.03 1.564 1.76-2.16.43-1.086-.007.42-.558.696-.43 1.086zm-.025 170.08c.65-1.5.167-.286 0 0zm.354-6.264c.803.82.67-2.534.05-1.06.055.277-.12.823-.05 1.06zm.455-13.386c-.18 2.425 1.058-.817 0 0zm0 5.9c-.04 2.05.348 2.095.328.202.232-.7-.392-1.864-.328-.202zm.076-139.04c.804 1.6 1.692 3.685 2.272 5.027-.575-1.668-1.232-4.016-2.297-5.102l.025.076zm.112-16.125c.868.774 2.4-1.135 1.25-1.2-.218.588-1.56.412-1.25 1.2zm.277 160.28c.74.28.475-2.477-.01-1.126l-.025.545.036.58zm.04-16.684c.29 2.305.77-1.814 0-.354l-.025.177.025.177zm.1-4.496c.105.788.215 3.342.606 1.414.265-.63-.15-4.312-.606-1.414zm.177-143.687c.89.143.033-.555 0 0zm.34 157.693c.925-1.83.25-.2 0 0zm.09 53.203c.63 1.73 2.18.337.26-.404.002.045-.36.266-.26.404zm.05-71.048c-.187 1.272.363 3.012.505.657.336-.793-.568-2.73-.505-.657zm0 13.538c.802 1.285 1.048-3.365.05-1.616.05.532-.084 1.08-.05 1.616zm.32-7.003c1.23-.05.145-3.58.008-1.18-.075.358-.238.893-.008 1.18zm.297 3.885c.86.05.596-3.718.065-1.58-.065.543.005 1.058-.065 1.58zm.14-15.7c.306 2.12.933-3.454.05-1.11.015.368-.1.75-.05 1.11zm.05-113.732c.658 1.838.408-.74 0 0zm.29 107.053c.57-.007.88-3.006.064-1.858.055.625-.214 1.244-.064 1.858zM12.78 3.44c.413 1.752 2.014-.717.278-.63-.42-.132-.285.43-.278.63zm.05 2.122c.587 1.752 2.377-.556.586-.758-.4-.004-.764.323-.586.758zm.1 139.47c-.265.963.36 3.375.505 1 .123-.284-.075-2.077-.505-1zm.253 7.5c.923.66.374-3.278.025-.884.022.296-.103.6-.025.884zm0 40.3c.106 1.677.443 1.007.38-.253.1-1.472 1.276-3.603.606-4.572-.586 1.566-.73 3.205-.984 4.824zm.303-54.227c.615.9.926-3.035.15-2.728-.2.9-.02 1.846-.15 2.728zm.152 48.115c.696.533.7-1.63 1.136-2.248.472-.938-.185-3.003-.48-1.137-.228 1.114-.553 2.255-.656 3.384zm.087-37.644c1.032-.13.392-3.468.064-1.25-.073.41-.202.838-.064 1.25zm.317-17.744c-.128 1.682.574 1.006.53-.177.348-.754-.21-2.023-.455-.606.13.276-.184.52-.076.783zm.162-12.665c.833.036.7-2.716.1-1.025.014.356-.147.674-.1 1.025zm.04 5.946c-.203 1.486.454 1.617.455.1.455-1.653-.484-1.473-.455-.1zm.076-117.32c.72.71 1.037-1.47.013-.423l-.062.222.05.2zm-.025 135.807c-.018 2.387 1.384-1.727.1-1-.035.358-.09.655-.1 1zm.062 38.682c.55-.196.392-2.072 1.618-1.63 1.497-2.184 1.387-5.162 2.814-7.375.334 1.793-1.366 3.852-.793 5.538 1.498-1.305-1.004 3.003.77 1.46.54-1.053 1.4-2.225 1.402-3.348-1.076.575-1.53 1.35-1.075-.466.718-2.77.188-5.904 1.318-8.537.93-.39.584-2.864-.03-2.6-.665-.196.374-2.607-.025-3.51-.405-2.652-.487-5.317.505-7.83.37-4.615 1.87-9.067 2.448-13.664.15-3.228.22-6.562.252-9.8.1-.91-.482-3.557-.934-1.515-.174 2.632-.262 5.34-1.262 7.83-.66 5.856-1.973 11.7-2.27 17.604-1.538 2.615-1.3 5.916-1.085 8.815.12 3.545-1.193 7.07-.883 10.633-.626.594-1.006 2.39-1.59 2.237-.013-1.004.547-3.52-.278-3.5-.545 3.21-.63 6.478-.897 9.662zm.14-67.778c.087 1.812.557.82.58-.55.173-.896-.445-2.152-.48-.56.017.37-.125.753-.1 1.11zm.24 25.195c1.07-.64.343-2.64 1.074-3.777.265-1.79-.806-.86-.555.253-.095 1.24-1.076 2.147-.52 3.524zm.216-31.307c-.122 2.074 1.248-1.068.076-.52-.044.163-.14.35-.076.52zM15.04 5.146c1.276.88 1.596-1.626.253-1-.288.213-.365.68-.253 1zm.064 34.033c.278 1.563.826 3.29 1.363 4.445-.856.683.925.686.682-.348-.63-1.506-.717-3.71-1.868-4.8-.152.21-.263.446-.177.713zm0 82.06c.126 2.762.924-1.966 0 0zm.05-118.152c.56 1.642 1.927-.955.3-.758-.325.132-.35.476-.3.758zm.1 129.417c.43-.352 1.003-2.212.49-2.88-.5.58-.334 2.035-.49 2.88zm.213-15.2c1.09.04.025-2.036-.01-.42l.01.42zm.076 9.42c1.13-.1.295-2.993.014-1-.008.332-.15.674-.014 1zm-.037 61.21c.156 1.99 1.277-.026 1.186-.96.278-1.102-.103-2.564-.707-.935-.33.563-.443 1.262-.48 1.894zm.1-2.83c1.033.392.8-2.61.176-.853-.027.284-.192.584-.176.853zm.152-153.26c.44.904.547 2.258 1.1 2.843-.2-.934-.532-2.928-1.125-3.045l.025.202zm.34 137.69c.82-.513.686-2.516 1.124-3.575.177-1.204.577-2.548.062-3.688-1.15 2.065-.968 4.955-1.187 7.263zm.317-124.96c.78 3.4 1.235 6.853 2.12 10.204l1.49 10.482c-1 1.122.205 3.354.15 4.875.437 3.298 1.186 6.604 1.262 9.914-1.703 1.804-.184 4.686-.38 6.933.92 6.814-.48 13.69.025 20.433.945 2.658-.4 5.77.985 8.41.5 2.63.355 5.17.202 7.88.142 1.912 1.317.097 1.086-.96.007-2.172-.294-4.44.454-6.567.25 2.163 1.267-.152 1.06-1.126.095-1.897.633-4.242 1.302-6.016.505-.675.057-4.63.477-2.165 1.322 1.488-.227 3.852.443 5.695-.03 4.804-.03 9.65-.606 14.447.38 2.412-1.204 4.44-.606 6.84-.992 4.092 1.096 7.984.833 12.13.02 1.76 1.152 3.568-.076 5.102-.043 2.17 1.698 4.338 1.312 6.415.895 1.5 1.738 3.492 1.818 5.43.202 1.035.725 2.78 1.16 3.233-.558-10.747-1.52-21.593-.96-32.304.02-4.2-.316-8.204.252-12.376.14-5.984.36-12.026.782-17.907-.163-6.303.013-12.703.505-19.02.673-5.274 1.134-10.53 1.717-15.81.8-4.906 2.266-9.765 2.955-14.776.586-4.18 1.157-8.503 2.778-12.477.653-3.368 2.956-6.124 4.268-9.245.793-2.402 3.64-3.15 4.8-5.28 2.846.118 3.115-3.4 3.46-5.506.217-2.73.526-6.484-1.187-8.487.637 1.488-.054 2.915.354 4.443.014 1.43-.9 2.84-.354 4.235-1.9.26-2.162 2.01-2.335 3.636-1.266.237.138-3.195-2.01-1.908-1.217.317-2.154 1.424-3.372 1.515-1.644 1.255-.268 3.484-1.376 5.052-1.348 2.237-2.465 4.62-3.485 7.036-.34.66-1.854 2.03-.96.512.526-1.443 1.728-3.194 1.426-4.54-.66 1.043-1.11 1-.39-.152-.232-1.304-1.148 1.288-.985 1.92.51 1.905-1.246 3.174-1.59 4.95-.528 1.263-.787 2.68-1.844 3.51-.53 3-.003 6.154-.91 9.106-1.115.652.05-1.916-.05-2.69.44-1.566-.617-1.006-.657.126-.9 3.47.185 7.05-.718 10.456.333-2.566-.61-1.414-.57-2.324.315-.69.173-3.553-.38-1.793-.438 1.3.17 3.46-.858 4.268-.903-.877-.232 2.378-.372 2.972-.2 1.882.322 4.63-.612 6.12.193-1.08-.192-4.82-.227-1.516-.17 2.788.044 5.62.252 8.234.007 2.726.194 5.714-.657 8.133.245 1.448-.568 3.552-.707 4.52-.177-1.47-.714-2.912-1.136-4.243-.536 2.51 1.073 5.308.908 8.032.287 2.154.278 4.423.1 6.466-.957-2.664-.23-5.613-1.035-8.234l.213 5.506c-.783-3.28-1.804-6.816-1.222-10.18.92-3.943.246-8.15 1.16-12.174-.004-1.47.56-5.77.353-2.273-.102 1.12.23 1.926.278.227.537-.786-.168-3.468-.63-1.642-.6 1.894.11 4.842-.656 6.112-.584-2.294-.342 1.36-.884 1.303-.26-3.304 1.342-6.727.833-9.99-.907 2.014-.642-2.263-.884-2.98-.103-2.038-.512-4.218.05-6.052-.513-2.185.3-4.617-.29-6.844-.635 2.04.088 4.762-.242 7.036.36 1.23.097 1.198-.67.455-.016-3.305.556-7.157-.112-10.532-.422 2.183.272 5.12-.1 7.565-.604.734-.986-2.378-1.187-.57-.097 1.934.543 4.02.278 5.86-.882-2.34-1.145-5.097-.783-7.628-.357-.926.28-3.684-.732-3.727.466.853.055 4.106-.404 1.782-.057-2.7-.504-5.42-1.248-8.02-.372.507-1.096.263-.62 1.378.487 2.477 2.224 4.96 1.287 7.426-1.398-.863-.74-3.164-1.338-4.572-.314-1.375-.408-3.282-1.004-4.32-.21.223-.91.318-.78.605zm4.395 21.974c.66-.493.855 2.938.177 1-.112-.323-.264-.66-.177-1zm.594 1.926c.826-.08-.233.88 0 0zm.467 39.723c.047-1.683.83-.142.253.556.09.74-.38-.46-.253-.556zm.303-46.195c.1.064-.09.064 0 0zm.317 46.883c1.14.47.398 2.846.946 4.06.074 1.49-.345 3.06-.793 4.445.212-2.82-.036-5.695-.152-8.505zm2.108-4.275c.24-2.344.493 2.856 0 .96.095-.32-.08-.642 0-.96zm.04-1.162c.205.117-.083.19 0 0zm1.364-6.82c.447.894.516 3.904.162 1.465-.09-.482-.212-.972-.162-1.465zm.427 2.86c.535.857.35 4.255.19 1.837-.07-.61-.214-1.223-.19-1.837zm.038 5.727c.53-.634.123.855 0 0zm.823 41.75c.542 1.46.38 3.215.45 4.748-.46-1.472-.336-3.212-.45-4.748zM16.832 4.262c.966-.275.32-1.82.065-.323l-.05.08-.014.242zm.19 1.653c.99.247.538-1.872 0 0zm.263 17.442c.858.4 3.202-.874 1.075-.418-.353.166-.978-.1-1.075.418zm.545 9.912c.946 2.73 2.023 5.697 1.988 8.517-.532-1.003-.77-1.127-.423.17.503 1.14.935 3.17 1.287 3.763-.67-3.93-.278-7.943-1.615-11.745-.044-.745-.962-1.857-.48-.556.3 2.088-.496.263-.743-.374l-.014.222zm.065 121.537c.6-2.392 1.043-5.425.768-7.754-.898 2.36-.69 5.346-.768 7.754zm.693-91.077c.472 1.56.206-1.667 0 0zm.303 82.413c.135 1.47.56-1.127.783-1.692.183-2.235 1.225-4.664.63-6.794-1.232 2.534-1.17 5.734-1.414 8.486zm.202-124.315c1.133.532 1.428-3.714.682-1.844.2.694-.603 1.237-.682 1.844zm0 109.817c-.463 2.293.718 2.617.682.48-.01-1.775 1.142-3.92.252-5.48-.77 1.408-.53 3.468-.934 5zm.202 84.207c1.444.712 3.446-.64 5.077.152 2.12.017-.54-1.036-.707-1.813.8-1.446-2.25-2.086-3.132-1.597-1.603 1.636 3.035.753 2.122 1.717-1.12-.147-3.07.235-3.36 1.54zm.29-35.194c1.3-.172.42-1.498 0 0zm.216 2.386c.66.76 1.85-2.01.49-.808-.183.222-.505.52-.49.808zm.152-106.483c-.16 3.024.758 1.678.202-.152 0-.293-.434-.356-.202.152zm.152-41.876c.7 2.146.8 4.672 1.6 6.643.545-2.23-.463-4.8-1.16-7.047-.416-.218-.52-.022-.43.404zm.112-21.43c.594.025-.154-.815 0 0zm.105 110.41c.703-2.484 1.26-5.48.768-8.07-.746.78-.277 2.923-.606 4.258-.098 1.24-.306 2.715-.162 3.814zm.198-101.367c2.04-.622 4.1-1.697 6.37-1.176-.587-.814-2.8-.526-4.005-.202-.804.186-1.995.674-2.363 1.378zm.343 105.964c.66-.576.546-2.72.96-3.94.194-.926.388-4.583-.43-3.56-.277 2.49-.513 4.978-.53 7.5zm.05-95.194c.755 2.747 1.528 5.63 2.11 8.335.352-2.247-.008-4.88-.595-7.123-.095 1.2.406 2.82.025 3.94-.527-1.658-.745-4.034-1.565-5.254l.025.1zm.328-7.754c1.074.13-.067-.866 0 0zm.076 130.806c-.283 3.643 1.8 6.55 2.98 9.8.745 1.104 1.233 3.225 2.59 3.22-.412-2.308-2.62-4.19-3.22-6.58-.71-.993-1.67-1.675-1.137-3.056-.46-2.077.367-4.344-.29-6.353-1.063.036-.672 2.207-.922 2.97zm.06-135.49c1.172-.606 2.405-1.568 3.843-1.227.526-1.285-4.2.04-3.843 1.227zm.292 189.16c.575.437 2.182 2.28 2.703 1.224-.487-.718-1.838-1.816-2.703-1.224zm.05-167.833c.094-.2-.094-.2 0 0zm.213-32.138c1.598.546.24-.977 0 0zm.127 1.236c1.105-.083 3.205 1.12 3.84.3-1.257-.362-2.435-.295-3.65-.618-.138.048-.453.035-.2.317zm.013.972c2.023.983 1.38-1.182 0 0zm.087 199.72c.752.175 2.202 1.65 2.338.77-.267-.685-2.215-1.79-2.338-.77zM22.237 22.8c1.973.716 1.323-1.217 0 0zm.04-9.814c2.082 1.03 1.89-.97 0 0zm.05 155.002c0 .83 1.627 2.322 1.136.752-.294-.415-1.087-2.634-1.136-.752zm.314-149.43c.704-.305 2.37.015 2.428-.76-.707-.014-2.3-.252-2.428.76zm-.01 140.288c.48 3.368 3.247 5.65 4.62 8.633.845.644 1.482 1.15 1.97 2.128.723-1.552-1.286-2.156-1.59-3.538-.938-2.41-3.025-4.1-3.863-6.592-.196-.414-.838-1.52-1.138-.63zm.202-10.204c.06.913.042 3.625 1.16 3.132.477-2.66.035-5.437-.138-8.096-1.348.464-.544 2.993-1.024 4.257l-.025.354.025.354zm0 17.175c.5 1.77 1.28 4.15 3.22 4.597.2-1.053-1.478-2.156-1.858-3.384-.333-.32-1.115-2.277-1.363-1.212zm.162-151.4c1.817.494.185-1.322 0 0zm.04 2.663c1.645.648 2.842-.928.43-.38-.175.015-.553.107-.43.38zm0 137.423c.528 2.908 1.224 5.954 3.46 8.108.154-1.194-2.093-2.636-2.01-4.105 1.04-.097.893 2.03 1.755 2.69.29.897 1.04 1.18.732.025-.028.453-.356.26-.63-.55-.928-1.66-1.027-3.93-2.196-5.21-.114-.888-1.25-3.1-1.11-.96zm.24-138.9c1.795.262.296-1.204 0 0zm.115 15.24c.102 4.033 1.736 7.845 1.136 11.922-.335 1.712-.24 3.255.126 4.95-.9-1.21-.358.364-.3 2.037-.184-1.1.888-1.55.77-.243.364.983-.094 3.695 1.16 3.297-.272-2.01-.695-4.277.1-6.328.446-2.414.693-4.924 1.994-7.047.048-3.134 1.237-6.18 2.803-8.94.31-1.16 1.333-2.413-.05-3.385-1.042.622-.75 2.923-1.59 2.97.385-.973.114-3.587-.53-1.656-.396.742-.932 3.286-1.136 1.162-.54-.866-1.22 1.1-1.793-.126-.738 1.295-1.232 1.663-1.162 3.384-.037.87.24 3.3-.455 3.006-.33-1.605-.612-3.797-1.084-5zm1.364 17.478c.1.064-.09.064 0 0zm1.06-5.96c.596-2.972.404 2.467 0 0zM23.88 10.298c.828.742 2.07-.21.544-.292.008-.112-.83.067-.544.292zm.317 128.822c-.04 2.707 1.89 4.862 1.767 7.552-.02 2.925-.008-1.464-.918-2.046-.816 1.796-.243 4.63.337 6.718 1.242 1.306.246-4.432.923-1.844.065-4.264-.624-8.54-1.53-12.693-.97-.367-.367 1.77-.58 2.313zm1.82 9.067c.1.065-.09.065 0 0zM24.247 9.198c.52 1.308.904-.166 1.97.202.325-.408-1.333-.968-1.756-1.074-.2.24-.3.566-.214.872zm.162 146.278c.315.125-.125-.315 0 0zm.115-2.44c.118-.123-.177-.048 0 0zm.126.86c.348.828.592 3.097.934 2.778-.522-.68-.324-2.738-.934-2.778zm.202 17.83c.013.794 1.722 2.68 1.642 1.275-.434-.098-1.245-2.257-1.642-1.275zm.214-159.08c.67.458 2.45.29 1.074-.342-.263.058-1.37-.338-1.074.342zm-.012 47.394c.816 1.812 1.272-.89.808-1.718-.218-2.68-.958.4-.757 1.515.01.064-.105.165-.05.202zM25.206 87c.098 1.982.368-.257 0 0zm.162-73.23c1 .68 2.613-.01.873-.343-.276.097-1.018-.247-.873.343zm-.01 52.192c.08 1.22.35 1.17.63.1 1.436-3.933.834-8.492 2.726-12.326.145-1.594 1.282-3.818 1.035-4.945-.93 1.97-.733 4.485-1.944 6.26-.933 1.71-.62-2.606-.884.657-.323 2.152.084 4.707-1.212 6.415-.18 1.274-.522 2.533-.352 3.84zm.1 22.858c.32.58-.022-.577 0 0zm0 125.376c.718 1.498 2.38-.252.48-.48-.244.02-.6.14-.48.48zm.152-61.147c.262 1.654.828 3.973 1.893 4.875-.498-1.887-.687-3.995-1.792-5.632l-.125.4.024.347zm.05-130.402c.962.29 2.2 1.297 3.233.784-.44-.806-2.89-1.878-3.233-.784zm-.01 66.93c.26-.112-.095-.145 0 0zm.01 68.17c.316 1.182.826 1.926.202.354.017-.078-.086-.666-.202-.354zm0 28.894c-.32 1.534.843 1.498 1.187.278.578-1.637-.55-3.536-.1-5.152-.887 1.266-.816 3.374-1.086 4.875zm.05 25.535c.404 1.24 2.478 1.868 1.288.38-.308-.286-1.06-1.184-1.288-.38zm.05 4.647c.94.352 1.765 1.53 2.6 1.667.008-1.127-1.806-2.885-2.6-1.667zm.177-201.35c.64.4 2.785.426 1.313-.303-.38-.072-1.506-.403-1.313.303zm.113 1.453c.674.224 2.64 1.08.746 1.148-.836.4 2.052 1.418 1.313-.127-.102-.856-1.01-1.48-1.768-1.793-.485-.15-.356.55-.292.772zm-.037 63.18c-.005 1.417.026 4.075.53 4.847.3-2.925-.008-6.26.1-9.1-.487 1.275-.57 2.865-.62 4.243zm.006 95.987c-.333.958 1.6 2.598 1.13.95-.244-.296-1.075-2.345-1.13-.95zm.257-16.565c.317.172-.224-.46 0 0zm.052-9.343c.272.016-.157-.214 0 0zm-.013 40.092c.42 1.465.775 3.276.05 4.344 1.152 2.04 3.11 3.876 5.127 4.85 1.217-1.076-.84-2.33-1.187-3.51-.984-1.615-1.865-3.296-3.207-4.597-.14-.41-.625-3.027-.783-1.086zm.1 11.063c.028 2.264 3.2 3.523 2.147 5.834.497 1.928 2.5 3.548 4.358 3.79.227-1.406 1.49-.14 1.78-1-.56-.927-2.02-2.35-2.32-1.313-1.46-.652 1.87-1.957-.207-2.753-1.822-1.675-3.178-4.005-5.318-5.254-.268.02-.498.463-.44.707zm.05-3.334c.5 2.21 2.383 5.035 4.888 4.585-.728-1.895-2.48-3.66-3.904-5.19-.522-.585-1.2-.135-.984.606zm.126-27.808c.592.722 1.38 2.03 2.248 1.957-.43-.47-2.168-2.435-2.248-1.957zm.025-9.623c.372.35-.084-.533 0 0zm.253-90.268c-.21.547.56 3.12.707 1.313-.038-4.174-.086-8.47.822-12.542-.84 1.327-.6 3.45-1.024 5.066-.084 2.06-.588 4.084-.505 6.163zm.01 97.607c.19.057-.18-.43 0 0zm.14-85.787c.39 1.936.475-1.674.202-2.425-.012-3.463-.227 2.368-.202 2.425zm.05 86.126c.42 1.096.89.463 0 0zm.202 21.873c.516 1.018.855 2.705 2.01 2.97-.215-1.158-.727-3.238-2.008-3.22-.153.006.086.247 0 .253zm.202-14.295c-.124 1.045 1.54 1.935.872.354-.296-.37-.56-1.764-.872-.354zm.126-156.063c.73.522 2.182.34.783-.38-.233-.025-1.023-.134-.783.38zm-.025 153.436c.54.572.213-.176 0 0zm.152-126.69c.478 1.45.493-1.108.783-1.667.25-.924-.05-3.828-.404-1.54-.215 1.065-.35 2.155-.38 3.208zm.29-25.496c.668.324 2.35 1.746 1.428.264-.18-.298-1.395-.857-1.428-.264zm-.037 139.708c1.347.346-.09-1.806 0 0zm.152 8.94c.652.856.16-.528 0 0zm.113 4.105c.992.817-.133-.36 0 0zm.05-125.83c1.028-.4.57-2.596 1.05-3.677-.062-1.074.746-3.57.328-3.864a98.85 98.85 0 0 0-1.377 7.541zm-.01 113.5c.1-.065-.09-.065 0 0zm.126 54.328c.446.716 1.362 3.16 2.096 1.92-.224-.58-2.05-3.325-2.096-1.92zm.202-52.913c.16 1.225 1.588 2.566.758.657-.195-.556-.574-2.433-.758-.657zm.152 51.65c.58.425 2.387 3.285 2.4 1.566-1.103-1.86.303.657 1.268.354.26-1.065-2.167-2.707-2.632-2.248.657 1.132-1.188-.806-1.035.328zm1.616.455c.09.064-.1.064 0 0zm-1.53-196.915c.414-.807.17-.296 0 0zm.1 152.867c.637 1.093 1.112 1.058.253-.02-.02-.612-.596-.136-.253.02zM28.92 55.848c.002 2.83 1.72-1.088.44-1.313-.207.377-.47.87-.44 1.313zm.05 127.043c-.48.847 1.542 3.79 1.566 2.122-.634-.765-.54-2.42-1.402-2.64-.113.134-.207.35-.164.52zm.05 7.173c.39 2.655 1.258 5.703 3.712 7.198 1.49-.5-.247-2.27-.53-3.31-.57-1.266.37-2.86-.317-4.04-.092 2.132-1.24 1.577-.996-.202-.554-1.734-.37.754-1.086.545-.032-.822-.934-2.14-.782-.19zm.158-11.406c-1.103 1.102 1.373 3.547 1.13 1.278.386-.314-1.242-2.194-1.13-1.278zm.095-4.102c.15.943 1.4 2.933 2.248 2.183-.546-.805-1.443-1.956-2.248-2.183zm.05-6.82c.92 1.128 1.094 2.224 1.06 3.637.094 1.062 1.984.82 1.263 2.07-.284 1.295 1.097 1.596 1.327 2.413-.904.865 2.298 2.178.92 2.26-1.53-.602-.263 1.124-.96 1.44-.647.09-2.63-1.115-1.414.1 1.716.57.48 2.806 1.995 3.738-.572 1.822 1.908 2.45 2.55.713 1.252-1.854 1.162.257.404.994-2.293 2.17-4.06 5.586-2.652 8.8.957 2.125 2.466 4.137 4.072 5.79.487-1.137-1.53-2.1-1.925-3.29-2.582-3.394-1.576-8.332 1.137-11.34.68-1.823.694-3.832-.758-5.253-1.382-2.124-2.22-4.48-3.08-6.82-1.114-2.002-1.356-4.532-2.512-6.382.27 1.05-1-.954-1.24.472-.2.14-.242.436-.188.657zm2.627 5.506c.09.065-.09.065 0 0zm1.717 5.102c1.1.3 1.106 1.715.05.253.002-.083-.115-.18-.05-.253zm1.888 1.592c.786-.015-.19.674 0 0zm-6.03-156.645c.683 1.214 2.552.353.732-.253-.27-.158-.85-.275-.732.253zm.05 187.205c.172.71 2.852 2.615 1.793 1.012-.237-.047-1.715-2.084-1.793-1.012zm.05-163.79c.948 1.314 1.35-3.167.353-1.162-.117.38-.388.763-.353 1.162zm.556 140.378c.57.876 2.556.108 1.036-.43-.24-.008-1.2-.03-1.036.43zm.152-14.447c.09-.064-.1-.064 0 0zm0 1.364c1.303 1.95.366-1.905.025-.354-.02.116-.087.236-.025.354zm.1 25.964c1 2.232 3.342 3.364 4.87 5.102.784.465 2.594 1.26 1.066.05-2.038-1.563-4.105-3.53-5.8-5.353l-.16.158.024.044zm.112-156.074c1.884-.15.352-2.772.95-3.955.334-1.007.03-1.898-.328-.48.2 1.64-.344 2.9-.62 4.434zm.242 138.14c-.036.846 1.414 2.9 1.364 1.162.026-.63-1.332-3.066-1.364-1.162zm.53 31.874c.482.23 2.2 3.083 2.223 1.275-.407-.195-2.048-2.502-2.223-1.275zm.025-35.865c.48.724 2.187 1.15.682.227-.205-.054-.777-.813-.682-.227zm.1 7.98c.817.89 2.507-.075.828-.556-.496-.49-.992-.016-.828.556zm.1-140.227c1.47 1.233 1.373-3.908.253-1.314.018.46-.32.86-.253 1.314zm.177 174.677c.86 1.863 4.086 3.383 5.33 1.187.202-1.136-.612-1.942-.745-2.996 1.858 1.644 4.24 2.818 6.77 2.49.904.436 1.792.51.466 1.187-1.615 1.404 1.3.87 2.046.278 1.28.046-1.002.935-1.616 1.313-.7.04-3.214-.74-1.945.43.986.892 2.195-.058 3.07.19-.29 1.306 1.185 1.142 1.932.392.613.647-.333 1.887 1.296 1.42.134 1.127 1.226.877.17 2.003 1.658.762-.02 1.196-1.11.87-.243 1.8-2.76 1.376-3.99 2.375 2.163.448 4.296-1.153 6.163-2.046 3.118-.756 4.124-4.128 5.304-6.693.86-1.778.276-3.753 1.06-5.53.33-4.426-2.32-8.898-6.062-11.19-1.976-.908-4.363-1.122-6.404-.63-.08 1.217 2.147-.116 2.97.177 1.32-.226 2.494.755 1.34 1.717.143.242 2.32 1.197.606 1.212-1.628.4.59.92 1.036 1.46.103.9-1.598-.836-2.35-.247-.82-.376-3.684-.25-1.39.227 1.16.192 1.933 1.284 2.854 1.894.304.7-2.18 2.345-1.364.758 1.004-1.676-1.502-2.28-2.4-1.614.79-.037 2.245.518.895 1.16.234 1.152-.868.412-1.147 1.036-.702.793-2.04-1.136-3.056-.53-.74-.094-2.87.987-1.137.63 1.576-.33 2.88.178 1.44 1.086-.375 1.976-2.09-.973-3.208.48-.915.408-1.537 1.31-1.428 2.298-.79-1.164-1.325-.001-.958.847-1.023-.248-1.992-.027-2.464.744.588.733 2.447.4 1.656 1.913-.553.763-.518 1.002-1.435.234-1.354-.388-.6-.765-.222-1.555-.803-.802-1.385-.035-.844.76-.398.007-1.403-.853-1.126.263zm7.742-5.424c1.485.467-.303 1.665 0 0zm8.296 4.49c-.26-2.234 1.84-3.335 3.713-3.51.607-.642 1.718.853.91-.455-.278-1.262 1.59.57 1.34 1.44.7 1.782.02 3.734.455 5.304-.676 1.365-.922-1.773-1.44-.025-.568.845-.992 3.192-2.273 1.502-.34-.164-2.024-.033-1.627-.972 1.35.69-.153-.775-.798-.682-.576-.697 1.152-.415-.1-.96-.395-.335-.077-1.155-.177-1.642zm.644.747c.437.194-.15-.72 0 0zm.114-2.313c.397 1.576.664-.33 0 0zm1.162-.657c1.08 1.822 1.015-.362-.025-.1l.025.1zm1.313.556c.565 1.347 1.96.607.682.177-.187-.35-.492-1.084-.682-.177zm.1 5.102c.68 1.614.637-1.256 0 0zm.556-1.82c1.118.583 2.077-.852 1.59-2.034 1.034-.8-.65-2.215-.1-.63-.35 1.398-.805.44-1.364 1.507.02.393-.14.784-.126 1.156zm.29-1.004c.903-.41.2 1.193 0 0zm.012-2.835c.72 1.942.636-1.007 0 0zm-.38-9.143c1.645 1.083.75 1.398 0 0zm-19.776-19.928c.09-.064-.09-.064 0 0zM31.95 11.32c.093 1.882.514 5.21 3.31 4.016.935-.41.985-1.525 2.223-.96.87-.324 2.412.607.783.53-1.7.685 1.32.58 1.995.505 1.414-.115.96 1.43-.404.808-.91-.27-2.7-.89-2.93-.025 1.982.405 4.016.47 5.986.278 1.293.648-.47 1.757-1.532 1.635-.715.16-2.965.48-1.246.79 1.464-.45 2.777-.66 4.106.183 1.674.3 1.875-2.84 3.193-2.204-.4.874-1.887 2.587-.253 2.753-.155 1.765 1.634-.554 1.364-1.41.672-1.937 1.226-4.315.258-6.143-1.77-.478-1.223-2.575-2.38-3.713.31-1.226 1.364 1.408 1.086-.38-.427-.853-1.78-.23-1.137-2.273.753-1.04.07-3.037-.58-3.385.377.876.508 1.658-.48 2.02 1.603.494-.365.67-.783 1.212.066.91-2.502.805-.707 1.212.04.6-1.256.368-.43 1.164-.682.022-2.525.063-1.653-.925-.857-.315-1.377-1.33-2.236-.163-1.4-.522-3.745-.96-4.445.924-1.693.336-.04 2.882-.48 3.345-.502-1.224-2.46.643-1.945-1.137-.057-1.515-.786.59-.682 1.34zm5.077-4.243c.594-.49 3.505.254 1.87.985-.552.045-1.904-.375-1.87-.985zm.025 2.475c-.17-1.168 1.575-1.046.707 0-.378 1.463-.27 3.184 1.086 4.112-1.73.642-1.39-2.175-1.793-3.202l-.025-.455.025-.455zm1.932-.878c.45-.19.077.783 0 0zm2.475 5.05c1.02-.542 1.772-.975 2.7.07.897.13 1.9.523 2.475-.43 1.114.504 1.174 1.025-.05 1.238 1.047-.035 2.262.536.884 1.16-.74-1.04-1.263-.96-2.096-.278-1.525.005-2.197-1.624-3.84-1.616-.082-.006-.06-.087-.063-.146zm6.492-1.642c.98-.17.465.987 0 0zm-15.748 25.68c1.15-.187.628-2.323.884-3.284-.36-1.01-.695 1.797-.808 2.35-.078.3-.133.625-.076.934zm.303 150.532c1.792.58 1.013-2.078-.025-.152l.025.152zm.05-180.006c.557 1.72.325-3.262.1-.86-.058.278-.15.577-.1.86zm.266-2.576c.878-.695.125-.86 0 0zm.087 35.74c1.425.68 1.344-3.694.227-1.232-.13.395-.312.807-.227 1.232zm.1 157.502c.513 1.1 1.32 2.427 2.438 2.817-.154-1.243-1.52-2.52-2.374-3.14l-.088.202.023.12zm.19-161.24c.458-.727.9-2.598.693-2.753-.342.884-.634 1.8-.693 2.753zm.01 163.463c.354.606 1.987 2.45 2.096 1.32-.407-.176-1.925-2.488-2.096-1.32zM33.263 4.4c.283.855 1.168-1.196 2-1.263.68-.36 2.165-1.228.56-.758-1.012.272-1.91 1.253-2.55 2.02zm.126 12.174c1.073.53 2.393-.727.657-.38-.25.097-.938-.155-.657.38zm.088 3.095c.91.84 3.784-.493 1.226-.2-.307.055-1.54-.486-1.226.2zm-.024 14.358c.643-.648.28-1.64.012-.354l-.025.177.013.177zm.2-15.545c1.36.752 2.294-.6.48-.342-.137-.137-.706.08-.48.342zm.266 206.563c1.125 1.5 3.066 2.128 4.572 3.157 2.045-.127-1.6-1.063-1.5-2.197.06-1.234-2.022-3.1-1.137-.96-.143.848-1.555-.752-1.945 0zm.152-186.472c.854.36 1.736-1.69 1.414-2.425-.71.287-1.502 1.557-1.414 2.425zm.06-17.287c1.006.75 2.96-.38.873-.292-.267.047-.93-.244-.873.292zM34.11 34.48c.768-1.956.893-4.158 1.587-6.163-.662 1.977-1.433 4.068-1.587 6.163zm.162 192.736c.058.742 2.027 1.933 1.502.556-.395-.103-1.36-1.744-1.502-.556zm.4-204.492c1.654.34 3.075-.362.622-.24-.162-.047-.826-.077-.622.24zm.833-4.217c.545.712 3.12.4 1.894-.147-.18.734-1.71-.573-1.894.147zm.19 15.67c1.012 1.367 1.728-3.327.177-1.226-.065.396-.19.834-.177 1.226zm.263-16.226c.893.12 2.34.125 2.944-.57-.738.346-2.778-.37-2.944.57zm.963 10.62c.667-.98.173-1.513-.04-.177l.04.177zm.112-23.767c1.028-.14 2.474-.257 3.233-.58-.923-.018-2.86-.315-3.233.58zM37 31.298c.97 1.405 1.86-2.936.328-1.358-.217.425-.46.86-.328 1.358zm.177-29.172c.946.204 3.303-.723 1.187-.454-.234-.05-1.49.317-1.187.454zm.253 3.485c2.3.66.118-1.266 0 0zm.29-2.31c1.187.378.277-.86 0 0zm.505 18.993c1.62.492 2.976-.676 4.61-.242 1.31-.24.653-.797-.404-.48-1.41-.085-2.882.4-4.242.652l.034.07zm.318 178.552c1.375 1.558 2.443 3.76 4.647 4.028-1.855-.917-3.488-2.818-4.647-4.028zm.036-180.775c.54.116 3.064-.382 2.276.49-.832-.046-2.654.893-.746.682 1.263-.118 2.266-.95 3.233-1.642-1.5-.305-3.19-.103-4.76.184l-.002.286zm.166 4.38c1.404.047 3.18-.002 4.193-1.186-1.153-1.013-3.002-.498-4.142-.15.192.732 1.618 1.35.163 1.034-.202-.25-.21.443-.214.303zm.19 205.302c1.158 1.048 1.29-.942-.093-.266l.093.266zm.176 1.693c.722.782 2.725.583 1-.115-.318-.114-1.08-.737-1 .115zm.583-202.07c1.076-.877.004-.918 0 0zm.05 1.87c.608-.58 1.206-2.52.264-1.01-.118.3-.333.683-.264 1.01zm.2 197.094c1.914.6.482-.982 0 0zm.707-2.627c1.546.84.1-1.546 0 0zm.342-3.398c1.243 1.036.693-1.45 0 0zm.682-216.1c1.094.226-.24-.563 0 0zm.44 222.426c1.672.282-.395-1.206 0 0zm.038 1.502c1.055 1.35 1.57-1.116 0 0zm.087-3.497c1.136 1.02.543-1.052 0 0zm1.73 3.598c.608 1.106 2.52-.84.567-.657-.176.176-.717.3-.567.657zm.3-207.624c.944.363 2.172-1.867 1.39-2.1-.48.61-1.82 1.175-1.39 2.1zm.025 204.607c1.29 1 .96-1.584 0 0zm.252 1.77c1.382.636.502-1.37 0 0zm1.808-.722c1.39 1.078.75-1.416 0 0zM47.66 5.713c.69 2.048 1.768 4.012 2.208 6.086.633-.78.083-2.805-.365-3.952-.947-.74-.835-2.536-1.71-2.99-.327.112-.075.64-.132.858z"/></svg>