<svg xmlns="http://www.w3.org/2000/svg" width="241.863" height="961.553" viewBox="0 0 63.993 254.411"><path fill="currentColor" d="M.046 250.795c.158 4.822-.158 4.822 0 0zM3.094 18.173c.9-3.53 4.656-5.23 7.705-6.603 2.437.113 4.302-2.09 3.895-4.572.95-2.478 1.864-5.766 4.53-6.816 3.62-.424 7.926-.358 10.33 2.994.94 1.488 2.97 2.533 3.64.435 1.528-.29 2.793-.432 3.937-1.48 1.977-.394 3.483 1.41 5.24 2.074.862.974.92 3.28 2.506 1.61 3.717-2.246 8.272-1.797 12.234-.424 3.346.904 4.65 4.663 5.97 7.45.922 5.025 2.122 11.02-1.905 15.03-2.09 2.43-4.682 4.754-7.662 5.63-1.282 2.262-3.364 4.273-3.598 6.985-2.745 5.634-5.45 11.377-6.9 17.527-2.633 7.912-1.566 16.41-1.61 24.554-.237 11.18.38 22.24.212 33.2.22 9.547.906 19.062 1.947 28.533-.247 5.503 1.333 10.954.804 16.383 1.2 3.632 1.254 7.497 1.524 11.26.152 3.084 1.223 6.303 1.058 9.422 1.185 1.498.066 3.56 1.524 4.835-.456 2.363.796 3.862.93 5.977 1.615 4.6 2.878 9.41 4.783 14.055 2.653 7.018 4.91 14.24 6.858 21.463.097 4.89-.413 9.956-1.82 14.755-1.75 2.414-4.785 1.472-7.112 2.644-1.053.637-1.336 2.424-2.92 2.582-3.594 1.826-7.654 3.434-11.684 3.387-4.88.23-9.998.156-14.563-2.074-3.264-1.012-7.062-2.146-8.89-5.46-3.248-4.065-5.434-8.918-6-14.1-.973-4.617-.997-9.425.338-13.97 1.096-1.53 3.118-.016 4.487-1.185 2.64-1.265 4.716-4.2 5.037-7.197.803-1.3 2.206-2.477.932-3.98-.136-6.18 2.06-12.164 2.37-18.373 1-11.486 1.295-22.996 1.27-34.544-.295-10.347-1.936-20.448-1.85-30.76-.717-8.847.426-17.642-.518-26.434.052-8.25-.447-16.462-.465-24.596-.297-3.655-1.246-7.225-2.03-10.795-.443-3.867-1.442-7.595-2.835-11.26-.2-2.482-2.383-4.023-3.43-6.135-2.566-2.352-6.138-4.392-6.34-8.248-.924-1.655 1.056-3.97-.138-5.388-2.64-1.724-1.276-5.588-1.82-8.17l.042-.212zm1.82 3.98c1.756.343 4.594 1.975 3.58 3.81-1.58.47 1.578 1.366 1.67 2.285 1.36 1.005 3.15 1.01 3.47 3.057 1.42 1.65 1.288 4.6 3.282 5.56.945-2.8-1.174-5.637-.488-8.405-1.38-1.765 2.215-1.42 3.09-1.397.883-1.067-1.32-.223-1.804-.762-1.87 1.298-4.114-1.184-2.303-2.75 1.14-1.58 1.636-2.568-.34-.93-2.487.816-.055-3.098-2-3.598.82-1.227.926-2.19-.635-1.016-.74 1.82-1.865.817-2.582.93-.38 1.36-.465 2.612-1.905 3.047-1.067 1.535-2.663-2.01-3.048.17zm9.854 6.01c2.995 1.4-1.367 1.727 0 0zm-5.645-11.83c.95-.34 3.5-1.277 2.65-1.97-.84.69-2.758.69-2.65 1.97zm.66 209.99c.563 2.358.393-2.714 0 0zm.363-2.71c.41-.088-.16-.44 0 0zm.484 7.366c.614 1.118.348-1.137 0 0zm.423-7.366c.816 2.047 1.667 4.25 1.44 6.353-1.184-1.805-1.49-.23-.68.844.88 1.752 3.165 2.537 2.667 4.7.56 1.4.758 2.853 2.328 3.598-.354-.074-2.643 1.847-3.005-.55-.8-2.157-.97.412.34 1.2 3.664 5.066 9.564 8.335 15.664 8.908 4.86.523 10.01.79 14.765-.677 1.167-.306 4.16-2.387 1.618-2.582-2.4.712-4.567 1.91-7.154 1.65-4.413.25-8.942.844-13.208-.804-1.873-.236-.533-1.594.635-.635 5.332 1.38 11.027 1.693 16.32.085 1.1-.707 3.153-2.257.79-2.963-4.684 1.922-9.903.912-14.7.34-2.974-1.025 1.46-1.235 2.54-.93 2.132-.787 3.977 1.21 6.054 1.1 1.664.035 4.74.2 5.588-1.42-1.282-.61-2.853.333-4.276-.103-1.337-.25-3.695.71-4.488-.593.685-1.506 3.506-.146 4.953-.212 1.787.188 1.49-1.77-.17-1.143-2.897.69.45-1.154-1.27-1.736-2.284-.7-.208.035-.677-1.472-.924-1.134-2.076-1.94-.89-3.396.13-2.98-3.858-3.874-3.598-6.773.182-2.363-1.283.197-2-1.143.784-1 .288-2.152.263-3.1 2.733-1.186-2.056-4.04-1.406-1.185 1.123 1.124.086 1.67-1.123 1.778-1.93 1.226 1.54 3.828-1.544 3.937-2.897.444-4.353-2.567-6.84-3.43-2.64-1.114-4.103-4.443-7.045-4.634 1.646 1.523.183 1.723-.677.316-1.714-.972-.98 3.743-1.225 4.657zm.677-.423c.77-2.11 1.262 2.115 1.167 2.818-.5-.717-.986-1.906-1.167-2.818zm1.27 3.64c.862 1.036-.295 1.06 0 0zm.11 4.064c.812.607-.212.826 0 0zm.06-2.71c.557.15 1.377 1.542.974-.508-.548-2.932.876-.68.804.847.405.95 2.167 3.186.202 1.61-1.13.366-1.2 1.58-1.6-.466-.067-.518-.603-.914-.38-1.482zm.085-5.842c1.7-.855 1.4-3.58 3.175-.635 1.513 3.1 5.084 3.253 7.45 5.24.32 1.038.84 2.014 1.354 3.015-1.97.12-1.69-2.7-3.47-3.1-1.404-1.588-1.044 2.338.17 2.764.953 1.504 2.783 2.12 3.98 3.396-1.442.536-3.498-1.465-4.403-.383 1.432 1.775.89 1.953-.753.466-.822-1.048 1.95-1.875.372-3.217-1.475-1.354-.33-4.41-3.113-4.657-.362 1.82-1.332 1.253-.697-.34-1.233-1.46-.13 1.392-1.81 1.355-1.05-1.153-1.75-2.647-2.253-3.895zm1.778.93c.915 1.984.485-1.396 0 0zm4.5 10.837c1.005.66-.235.664 0 0zm3.195 3.048c.766.17-.06.918 0 0zm.362 5.64c4.403.52 8.963 2.095 13.42 1.725 1.433 1.445.256 1.56-1.234 1.47-4.102-.445-8.8-.45-12.252-2.93l-.042-.065.108-.2zm1.353-2.117c1.74.136 1.347 1.47-.062.254zM26.19 228.2c1.475-.666 3.937-3.056 4.972-.696.445 1.944-2.92 1.876-4.233 1.49-.38.024-1.214-.298-.74-.794zm2.093-4.54c.75-2.087 3.215.142 1.524 1.27-.668.936-1.886-.52-1.524-1.27zm-.02 8.562c1.48.388-.143.652 0 0zm.318-2.593c1.71-.606 4.02-1.228 5.25.666 2.24 1.848-1.34 2.158-2.117.69-1.017-.302-2.52-.577-3.133-1.355zm1.27 3.133c.756-1.615 1.85-.904 1.958.5-.33 1.423-1.748.17-1.958-.5zm2.57 1.145c.656-.016-.3.58 0 0zm.986-.637c.24-1.477 2.812-1.366 1.947.32-.045 1.463-1.862.424-1.947-.32zm-21.675 1.524c.494 2.073 1.473.084.804-1.185-.603-2.337-.52.63-.804 1.185zM14.1 17.665c.524 1.062 2.188-.962 2.836.856.413 2.396-.11.8 1.693.795 1.38-.225 3.444 1.302 3.514-1.06.105-.94.63-4.597-1.228-2.963-.9 1.583-4.837 2.048-3.64-.7-1.31 1.403-.72-1.35-2.032-.55-.783 1.144.15 2.798-1.142 3.62zm3.47-.423c.152.108-.152.108 0 0zm-3.175 198.035c1.65.995 2.536-2.135 2.878-3.44.058-.75-1.42 1.712-1.863 2.447.073.395-1.256.667-1.015.994zm1.584 2.268c1.6.15 3.46-2.157 2.922-3.41-1.005 1.102-2.188 2.316-2.922 3.41zm.998-176.427c.957.86 1.47 2.804 2.328 3.157.74-1.816-1.163-2.718-1.778-3.92-.384-.037-.72.406-.55.762zm.677 177.42c1.98.713 3.253-2.616 4.445-3.962 1.08-2.338-1.625.784-2.37 1.338-.995.476-1.36 1.907-2.074 2.625zm.17-166.54c.75 1.402.72-1.547 0 0zm.296 158.073c1.48.688 1.954-2.3 2.412-3.43.42-2.18-.905-.9-1.058.34-.427 1.023-1.116 2.12-1.354 3.1zm1.65-146.22c.927 2.88.842-2.564 0 0zm.526 148.53c1.59.004 1.946-2.75 2.225-4.088.216-1.037 1.144-3.593.423-3.556-.965 2.308-1.512 4.778-2.666 6.985l.018.66zm.043 8.762c1.903-.708 2.54-3.373 3.137-5.254-1.417 1.175-2.12 3.41-3.198 5.02l.062.235zm.53-19.835c.123 2.25 2.055.22 1.397-1.1-.436-1.158.775-6.478-.847-5.757-.903 1.6.63 3.112-.338 4.784-.07.69-.352 1.374-.212 2.074zm.17-123.486c.38 2.404 1.354-1.586 0 0zm.254-34.967c-.16 2.26 2.39 3.98 1.566 6.3 1.767 1.604.093 4.566 2.243 5.724.452 1.506.08 4.29 1.185 4.91-.56-3.376 1.715-1.084 1.058.593.076 2.557-.348 5.484.275 7.817-.094-2.16.747-5.472 1.29-5.87-.503 2.143 1.46 4.836-.508 6.435.056 3.068-.633 7.3.423 9.652.424-1.83.543-3.584.72-5.526 1.098.63.474 4.976.846 6.754.323 1.444-2.223.406-1.99 2.244.315 2.383-1.752 3.79-2.074 5.97-.754 4.496-.322 9.333-1.142 13.843-.24 2.017-.624 4.404-.085 6.265.673-.825.278-4.553 1.65-2.88-.5 1.123.458 2.245-.593 3.227.414 3.566-.112 7.373-.34 11-.89 1.422-.643 3.564-.44 4.918.952-.917-.18-5.194.992-3.302.092-2.933-.245-6.572.958-9.144 1.576 3.725-.393 7.605-.324 11.388.595 5.195-.86 10.52.423 15.663.345-.854.234-5.94.804-2.794.423 2.355 1.814 4.733 1.118 7.052-.465-.88-.5-5.72-.99-3.115-.027 3.256-.45 6.953.254 9.906.88-.34-.012-7.38 1.016-5.5.135 3.324-.25 7.392 1.016 10.19 1.4-1.417.522-4.19.89-6.18.064-8.967.67-17.916 1.27-26.882.562-3.157 1.026-6.41.338-9.483 1.166-6.482 1.34-12.994 2.242-19.473-.41-3.835.23-8.8.067-11.914.193-4.272.79-8.562.357-12.724.73-3.88-1.436-7.643-.592-11.6-.67-2.654 1.424-4.083 2.624-5.927.727-1.808-1.442-2.748-.466-4.318.55-1.603-1.22-3.544-1.524-4.088-.703 2.023-1.337 5.064.085 6.586.622.237-.127 2.64-.508 3.1.002-1.213-1.602-3.667-2.074-1.374-.6.28-.036-4.655.38-6.415 1.592-3.63 3.007-7.083 5.757-9.906 1.926-1.367.004-2.93-.677-4.435-1.973-1.57-2.747 1.696-3.26 3.038-1.228 4.248-3.84 8.277-3.173 12.912-.66 1.212.863 8.88-1.312 6.604-.714-2.3.5-4.96.085-7.112-.88 1.598-.472 3.557-.93 5.165-.63-1.41-1.167-4.99-1.06-1.185.78 2.885 2.077 6.557 3.004 8.72-.422-1.392-.98-4.34.34-1.703 1.397 2.71.828 6.093 1.515 8.987-1.27-.88-.69-3.666-1.473-5.252-.72-2.387.24 3.306.254 4.233.508 3.85 1.365 7.95.846 11.642-1.767-4.153-2.163-8.836-2.834-13.335-.828-3.595-2.205-7.005-4.147-10.118-1.1-1.785-2.277-3.51-2.116-5.715-.98-1.782-2.44-3.265-2.497-5.46-.986-1.695-.815 1.462-.76 1.905zm4.403 56.05c.255-2.4 2.27-2.345 1.312-5.97-.455-1.246.065-3.467.804-4.022.105 3.564.747 7.133.465 10.648-1.19.296-1.463 3.196-2.35 1.3-.545-.344-.115-1.394-.23-1.947zm7.24-54.356c.31.33-.31.33 0 0zm3.598 3.387c.198.207-.297.08 0 0zM21.4 73.358c1.524-.246-.456-1.698 0 0zm.13-9.948c.9.137.017-1.113 0 0zm-.063 24.9c1.5 1.093.237-2.847 0 0zm.593-37.93c.117 2.408 1.084 4.84.592.93.213-.387-.463-2.75-.592-.93zm.23 172.108c1.992-.555 1.937-3.343 2.478-5.06-1.103-.43-1.297 3.487-2.54 4.657l.062.404zm.7-198.65c-.122 1.056.16 2.908 1.506 3.072-2.292-3.488-.232-7.24.357-10.862.046-3.5-.713-.61-.72 1.143.045 2.312-1.396 4.337-1.143 6.647zM23 201.9c.926 2.084 2.197-1.55 1.778-2.455.372-3.507-1.44-.476-1.608 1.016-.17.424-.195 1-.17 1.44zm.127-118.83c1.58-.13-.55-1.64 0 0zm.042 127.466c1.45.3 1.486-2.685 1.735-3.852.188-1.18-.106-3.965-.72-1.482-.456 1.764-.84 3.542-1.015 5.334zm.17-22.606c1.764.474.273-4.607.042-1.355-.053.45-.137.904-.042 1.355zm.61-37.652c1.83-.386-.56-3.072 0 0zm.405-39.775c-.533 3 1.1 4.2.89.254.176-1.795-.914-2.15-.89-.254zm0 70.485c.165 2.68 1.933-2.194.146-1.166-.063.373-.244.786-.146 1.166zm.526-104.75c.93.066-.59-1.437 0 0zm-.018 93.744c.247 3.855 1.67-2.96.254-1.61-.144.52-.353 1.063-.254 1.61zm.17-10.583c-.264 1.776 1.003 4.216.846.847.008-.918-.592-3.13-.846-.847zm.423-28.025c-.22 2.277.65 3.073.846.423.633-1.604.138-8.49-.508-3.8-.432 1.07-.12 2.324-.338 3.387zm.085 70.95c1.128 1.413 1.686-2.04 1.777-2.963.18-1.48-.648-4.386-1.27-1.693-.196 1.562-.43 3.103-.508 4.657zm.17-131.276c.802 1.724.87-3.327.042-2.71.306.896-.134 1.824-.042 2.71zm.367 96.004c1.755-.99-.245-2.84 0 0zm.226 26.128c.092 2.74 1.68-1.27.402-1.336-.33.34-.434.9-.402 1.336zm.17-160.95c.044 3.337 2.092-1.162.21-.72-.037.2-.25.554-.21.72zm.085-25.57c.362 1.17.544 5.346.973 2.625.1-.147-.507-5.152-.973-2.625zm.17 31.41c1.758.688-.036-2.878 0 0zm.272 171.644c1.292.05 1.658-2.59 1.21-3.41-.652.885-1.162 2.294-1.21 3.41zm.11-186.037c1.464.076 2.24 1.62.484 2.032-.223.833 2.354.125 2.807-.677 1.118-2.537 3.916 1.636 4.964-.742 1.33-.782 3.115-2.86 1.712-3.407.925-1.005 2.387-2.415 1.04-3.556-2.578.99-5.236 1.596-7.96.804-.79 1.2 3.827 1.35 1.134 1.65-1.533-.775-2.794.27-.795.847 2.225-.087 3.31 1.455.38.93-1.44-.86-4.146.244-1.566.87-.452 1.07-2.872-.178-2.2 1.247zm-.042 56.176c.525 1.245 1.017-4.616.296-4.47-.107 1.387-.32 2.96-.296 4.47zm1.524 89.874c.207 2.87 1.992-.317 1.65-1.524.483-3-.84-5.752-.737-8.745-1.48 1.258.052 5.712-.786 8.025-.025.743-.2 1.51-.128 2.244zm.17-137.583c-.09 2.97 1.105 1.378.89-.677.797-2.54-1.365-.62-.89.677zM28.875 39c1.546.532 1.416-2.88.254-.93-.104.26-.434.71-.254.93zm.02 177.315c1.454.477 1.443-4.02.277-1.505-.146.465-.472 1.032-.277 1.505zm.277-12.13c-.233 2.598 1.608 1.146 1.058-.762-.166-2.733-1.266-.197-1.058.762zm.423-26.416c.222 2.62-.424 5.48 1.228 7.916-.076 3.07 1.437 5.922 1.438 8.848-.082 2.934-1.463 6.37-.11 9.06 1.78-.36.8-4.042 1.294-5.588-.175-4.655.518-9.38.085-13.952-.917 1.185-.925 5.033-1.1.66-.232-2.508.715-5.69-1.143-7.62-.085-1.02.135-4.857-1.1-3.217-.562 1.257-.127 2.7-.593 3.895zm1.203-162.282c1.388.69 3.976.858 4.808-.174-.72-.266-4.78-.853-4.808.174zm-.018 19.534c.81.515 1.428-2.004 2-2.785 1.355-.956.9-3.84-.447-4.436-1.328 2.047-.947 4.335-1.415 6.628.004.174-.194.477-.128.592zm.085 183.007c.346 1.932 3.59.303 2.413-1.25.595-1.45 3.536.367 3.006-.74-1.77-.425-5.577-1.274-5.42 2zM31.18 17.39c1.58.37 4.725.423 5.78-.784-1.747-.55-3.904.635-5.78.23-.064.184-.368.342.001.553zm.17-3.556c1.07.637 4.398 1.31 4.425-.13-1.287-.184-3.2-.387-4.487-.442-.016.197-.22.424.062.572zm-.02-1.25c1.23.56 3.436.594 4.003-.573-.992.364-4.268-.89-4.003.573zm.38-2.2c1.005.77 3.04.728 3.98-.086-.347-.6-3.978-.613-3.98.086zm.677 212.556c.96 2.574 3.945-.24 2.116-1.77-.834-1.613-1.78 1.282-2.116 1.77zm.254-213.656c.625.334 2.995.195 1.482-.677-.4.107-1.875-.08-1.482.677zm-.085 141.9c.21 4.575.783 8.904.762 13.462 1.026 2.717 1.445 5.604 2.37 8.34.618 5.522 1.652 10.826 2.708 16.138.56.568 1.14 3.694.34 1.98-.367-2.03-1.315-.613-.762.847.102 2.49 1.153 4.685 2.498 6.646.092 2.243.397 5.084 1.312 6.9.21-1.354 1.15-4.325 2.16-1.482.47.877 1.433 3.65 2.244 2.472-1.334-2.85-2.525-5.844-3.355-8.89 1.013-1.02 1.215 2.028 1.83 2.87 1.002.29-.358-2.036-.466-2.888-.757-2.65-2.002-5.302-2.394-7.94.92.27 1.757 1.754 1.124-.273-.38-2.376-1.857-4.67-2-6.925.984-.63.962 3.46 1.397 1.76-1.34-4.45-1.386-9.14-1.27-13.716-.14-3.166-1.752-6.223-.296-9.23-.575-3-.697-5.962-1.947-8.72-.072-5.514-.612-10.902-1.71-16.256.36 2.115-.174 6.696-.744 2.582-1.13-8.604-.38-17.17.296-25.74.218-2.223-.285-4.74-1.068-6.657-.6 4.076.417 8.435-.963 12.5-.44 5.578-1.63 11.16-1.777 16.806.446 5.15.292 10.28-.296 15.4zm6.73 40.98c.472.438-.425.284 0 0zM33 7.7c2.102.715-.004-1.443 0 0zm1.125 196.656c-.555 2.262 1.524 1.48 1.524-.17.143-3.412.245-7.207-.55-10.414-.804 3.42-.668 7.087-.974 10.583zm.695 14.714c.864-.43 2.363-1.06 2.734-1.675-1.158-.094-2.64.32-2.734 1.675zm1.337-14.714c-.272 1.282.306 4.795 1.312 2.032-.308-1.992.215-4.8-.762-6.35-.088 1.438-.487 2.89-.55 4.318zm.23-148.906c2.284-.693-.374-4.046-.062-.49l-.042.192.104.296zm.277 2.644c.512 3.244 1.258-2.47 0 0zm.254 5.673c1.285 2.624.274-3.085 0 0zm.423 147.447c.523 2.13 2.467 3.388 4.52 3.1 1.338.758 2.825.78 3.735 2.373.854 1.086 1.705 1.652.466.167-1.557-1.44-1.978-4.204-3.746-5.105-.177.98 1.92 3.763-.276 1.464-1.303-.873-1.268-.487-2.71-1.59-1.977-1.517-.273.536-2-.4zm.085-184.065c.32 2.857 4.374 1.888 4.868-.466 2.84-4.257 3.396-9.687 2.032-14.52-.448-1.32-1.54-1.23-.762.17.785 4.717.205 9.767-2.032 14.052-.955 1.35-2.803 1.04-3.896.33-.076.12-.226.273-.2.434zm.254 79.036c1.3 3.124.17 6.36.423 9.483 1.297 4.502.505 9.288 1.143 13.843.347 5.187 1.026 10.533.955 15.688-.452.474.992 3.1.484 4.463.78 5.186 1.375 10.528 2.54 15.706.435 2.45.596.88.127-.89-1.08-4.815-1.46-9.736-1.947-14.732-.723-6.6-.764-13.33-1.524-19.897l-.847-22.902c-.316-3.337-.114-7.636-.466-10.414-.207 1.8-.377 3.89-.508 5.46.223 1.275.85 5.123-.423 4.022l.042.17zm.166-36.915c1.024-.033.68-5.332.046-2.456a8.92 8.92 0 0 1-.046 2.456zm.004 129.244c.41 1.307.297 3 1.08 4.064.995-1.376.46-3.828-.337-5.443-.863-.258-.865.85-.744 1.38zm.17-147.786c1.395 1.452 2.185-1.88 2.37-2.963.03-1.498 1.873-2.882 2.582-3.387-.553.917-1.272 4.093.402 2 1.193-1.047 2.57-3.306 1.562-4.635-.677.685-2.058 2.556-1.118.72.85-.96 1.458-4.548-.466-2.625-.472 1.005-.5-.12-.847 1.524-.92 2.093-1.227 4.64-3.26 5.894-.738 1.016-.802 2.438-1.228 3.462zm.018 5.358c.914-.2 1.97-3.784.5-3.157-.137 1.062-.667 2.056-.5 3.157zm.32-11.116c-.166 2.787 3.42-1.152 2.498-2.71.044-3.308 3.904-5.33 4.064-8.66-1.462-1.223-2.008 1.935-2.71 2.7.175 2.44-2.836 2.833-2.963 5.177-.15 1.205-1.113 2.234-.89 3.502zm0 14.563c.707.817 2.418-.706 2.117-1.947-.38-2.67.792-5.05 2.032-7.367.88-2.026-.742-2.765-1.228-.762-.985 2.168-1.194 4.71-1.543 6.924-1.653-.084-1.025 2.194-1.378 3.152zm.062 3.03c1.903-.506-.388-2.417 0 0zm.616 164.103c.147 2.647 2.02 4.853 3.937 6.477 2.852.843 1.052-1.38 2.286-1.838-3.1-.213.018-1.403-2.032-2.498 2.518-.14-.773-2.1-.212-3.41-.705-1-.844-2.062-1.535-3.03.822-.58 2.388-.67 1.027-2.134.573-1.365-.22-1.954-.423-.34-.898.955-1.69 2.183-1.65 3.64-.348 1.093-1.4 1.993-1.397 3.133zm1.3 1.4c.817.093-.155.565 0 0zm.714-3.93c1.448.13-.077 1.22 0 0zm.123 5.548c1.148.103-.1.684 0 0zM39.137 11.847c2.663-.503-.17 1.772 1.972 1.858.174 1.15.91 3.11.72.658-.317-1.402-.323-4.268-2.563-2.964l-.128.448zm.405-2.395c1.005.402 3.198-2.816 1.1-1.27-.2.557-1.01.83-1.1 1.27zm.23 15.56c1.364.108 1.428-2.602 1.698-3.73-.926.74-1.534 2.553-1.698 3.73zM41.5 168.54c1.02 1.338 1.488 2.93.635 4.445.427 1.077-.026 4.024 1.63 3.536.473-1.546-1.206-3.183-.488-4.256-1.2-1.658.603-4.147-1.27-5.334-.57.3-.54 1.077-.507 1.61zm1.21 3.69c.62.135-.12.747 0 0zm.146 11.04c-.42.96 1.012 4.083 1.736 2.117-.167-.722-1.145-4.553-1.736-2.117zm.085-3.302c-.215 1.303 1.38 3.017 1.524.93-.247-.628-1.24-3.1-1.524-.93zm.17 26.33c.775 1.514 1.888 4.007 3.302 4.403-.22-1.97-1.433-4.595-3.194-5.196l-.147.466.04.328zm.677-167.98c1.29.475 3.853-2.504 2.986-4.064-1.5-.445-2.244 2.228-2.775 3.387-.036.214-.285.484-.212.677zm.254 131.318c.315 4.033.205-2.948 0 0zm.085 20.235c.143 1.127.83 2.982 1.717 3.387.122-1.296-.674-2.882-.296-4.258-.552.335-1.632-.5-1.42.87zm.254-17.95c.485 1.72.272 3.914.974 5.334-.206-2.02-.156-4.213-.93-6.096l-.085.38.042.38zm.508 49.403c-.026 1.785 1.85 2.81 2.032 4.318-.257 1.34.106 4.076 1.397 4.487.64-2.118.243-4.648-.34-6.783-.238-1.226-2.235-3.884-3.1-2.023zM45.3 40.864c.916.626 2.175-2.016 2.667-2.963-.005-1.75 1.85-3.124 2.183-4.318-1.772.963-2.903 3.347-4.437 4.808.106.844-.66 1.583-.413 2.473zm.17 173.61c1.24 2.353 2.885 4.66 4.297 6.8.46-2.016-.346-4.256-1.813-5.565.07 1.164 2.097 2.968.92 3.7.324-2.08-2.42-3.57-3.338-5.274l-.11.17.042.17zm1.016-189.61c1.25.797 2.933 1.5 3.1 3.302-2.76.45 1.728.99 2.836 1.185 2.386.32 5-.494 6.73-1.99 1.346-2.408 3.486-4.733 2.582-7.748.478-1.138.012-4.795-1.1-2.71.563 2.687.23 5.79-1.323 8.096-1.093-1.23 1.764-2.484.307-3.863.425-1.276-.45-1.682-.974-2.752-.88.366-1.623-1.275-1.185-2.286.605-2.547-.628-.438-1.82-.296-2.352-.735-.7-.18-1.1 1.44-1.01-.303-2.582-1.11-2.244.744-.672.003-1.58.562-1.482 1.796.88 2.37-2.617 3.257-3.006 4.953-.415.012-1.51-.873-1.312.127zm.062 1.76c.18-.7.1-.372 0 0zm1.185-9.82c2.113 1.015.088-1.806 0 0zm.658 193.017c.345.736 1.212 3.517 1.61 1.86-.443-.446-.844-3.158-1.61-1.86zm.104-195.388c2.32.796-.274-1.77 0 0zm1.04 225.106c2.155-.196 2.142 2.34 3.598 3.1 2.5.474 5.2-.527 5.207-3.344.307-2.03 1.286-3.825 1.058-5.927.665-4.642-1.828-8.602-2.92-12.954l-3.64-11.896c-.626-1.775-1.293-3.783-2.095-5.36.404 2.013 1.55 4.348.783 6.17.022 3.143 2.04 5.848 2.574 8.9-1.826.31-5.118-3.35-1.98.325-.15 1.016.42 2.01 1.608 2.54.78 1.237-.23 2.95-1.462 1.524.618 1.502.414 2.862.255 4.34 1.152.487 2.234 3.18 3.208 2.45-1.06-2.208 1.73-.178 2.25.744 1.2 2.794-1.595 1.634-3.15 1.82-1.562-.382-2.072 1.795-2.498 1.058-1.05-1.568-1.352.686-.667 1.506-.374 1.243-1.445-1.95-1.365 1.118.487 1.557 4.83-1.22 3.1 1.312-.72 2.08-2.893 1.456-3.853 2.582zm4.15 1.1c.593-1.046 1.69-1.87 2.074-.296.483 1.48-2.394 1.68-2.074.296zm.53-15.44c1.756.02-.102 1.36 0 0zm.572 9.6c-.724-1.908 1.444-2.952 2.328-1.09 1.2 1.6-1.818 4.38-2.328 1.853.158-.256-.14-.512 0-.762zm.91 3.06c.887-.732 2.46-1.277 1.417.455-.455 1.055-1.654.763-1.417-.455zm-5.6-24.268c.532.813 2.02 3.627 1.355 1.44.558-.966-2.75-3.592-1.355-1.44zm.612-198.393c1.506.84-.2-1.465 0 0zm.785-8.363c.038 1.43 1.84.275 2.752 1.058 1.99.272.1-2.44-1.1-1.48-.4.17-1.68-.51-1.65.423zm.423 214.418c2.196 2.69.873-1.747 0 0zm.508-210.608c1.078 1.407 1.453-1.633 0 0zm1.27 2.88c1.223.82.307-1.53 0 0zm.103-3.955c1.63.548 3.208 1.065 4.916 1.226.393-1.998-2.196-1.927-3.24-1.42-.437-.01-2.005-.754-1.675.194zm2.945 1.754c1.655.532 1.56 2.937 3.344 3.006.662-1.824-1.88-2.955-3.28-3.334l-.065.328z"/></svg>