<svg xmlns="http://www.w3.org/2000/svg" width="322.367" height="517.765" viewBox="0 0 85.293 136.992"><path fill="currentColor" d="M74.895 136.477c0-.328.254-.754.702-1.176.69-.65.898-1.117.5-1.117-.1 0-.38.18-.602.4-.77.772-1.033.427-.483-.636.6-1.16.497-5.568-.147-6.335-.45-.535-.505-.75-.42-1.646.085-.873.03-1.102-.355-1.513-.435-.463-.448-.574-.3-2.7.09-1.393.072-2.216-.05-2.216-.357 0-.416-.83-.156-2.196.217-1.142.213-1.44-.025-1.895s-.244-.78-.032-2.037c.35-2.082-.995-2.632-2.5-1.022-.645.69-1.132.415-.63-.355.588-.905 1.47-3.763 1.983-6.436l.714-3.5c.373-1.487.608-4.494.608-7.766v-3.41l-.752-.516c-1.07-.734-2.166-1.766-2.442-2.3-.392-.758-.562-.348-.708 1.708l-.425 3.612-1.074 5.505c-.104.255-.342 1.14-.53 1.967s-.654 2.18-1.036 3.01L64.65 107.9c-.097 0-.455.55-.795 1.224s-1.018 1.612-1.507 2.087-.9.945-.9 1.043-.512.67-1.138 1.273l-3.275 3.384a7.09 7.09 0 0 1-.503.693c-.112.124-.338.417-.5.65l-1.604 2.136-1.705 2.275c-4.47 6.283-9.326 8.607-12.994 6.22-2.37-1.543-7.445-7.522-11.485-13.533-.767-1.142-1.55-2.16-1.74-2.26-.6-.327-3.25-3.013-3.7-3.763-1.348-2.255-2.09-3.697-2.447-4.755a34.5 34.5 0 0 0-.811-2.145C18.467 99.9 16.54 90.388 16.53 87.5c-.003-.995-.27-1.095-.7-.26-.168.325-.887 1.006-1.596 1.513l-1.29.92.085 2.45.177 6.058c.092 3.653.817 8.888 1.362 9.83 1.607 2.775 1.548 3.184-.3 2.195-1.63-.867-1.853-.705-1.773 1.28.054 1.328.001 1.743-.258 2.03-.25.277-.313.693-.27 1.798.042 1.03-.018 1.484-.21 1.602-.206.127-.235.53-.13 1.76.138 1.58.135 1.598-.407 1.953-.562.368-.59.78-.174 2.46.076.303-.07.62-.48 1.05-.803.84-1.152 3.546-.855 6.63.194 2.017.102 2.624-.357 2.34-.108-.066-.26-.46-.336-.873-.288-1.537-.908-1.215-.908.472 0 .8-.072 1.078-.292 1.078-.362 0-.757-1.34-.528-1.783.092-.178.232-.864.31-1.526s.406-2.175.727-3.363.584-2.56.584-3.052.18-1.35.4-1.9.4-1.443.4-1.963.177-1.41.393-1.977c.257-.678.352-1.275.276-1.747-.078-.484.032-1.138.343-2.016.358-1.013.408-1.365.225-1.585s-.17-.63.047-1.765c.336-1.776.366-1.712-.863-1.88-1.166-.16-1.18-.193-1.03-2.51.067-1.023-.002-2.475-.17-3.628l-.28-1.922.6-1.287c.574-1.235.714-1.92 1.69-8.237.114-.734.274-2.63.356-4.212.205-3.93 1.267-6.517 3.766-9.16l1.07-1.13v-1.35c0-.884-.174-1.9-.505-2.946-.6-1.9-.885-3.902-.893-6.284-.003-.96-.096-1.8-.207-1.867-.283-.176-.246-2.174.1-5.215l.3-2.855c.002-.187-.17-.174-.7.05l-1.41.6c-.4.165-.875.3-1.08.3-1.448 0-2.324 12.327-1.312 18.454.688 4.16.67 4.22-.83 2.742-1.847-1.82-1.998-1.782-2.287.572-.188 1.54-.3 1.852-.712 2.167-.435.324-.494.52-.494 1.65s-.058 1.32-.474 1.593c-.4.256-.498.547-.6 1.64-.1.987-.263 1.482-.63 1.915-.35.417-.493.827-.493 1.423a2.87 2.87 0 0 1-.451 1.523c-.82 1.25-.946 1.516-.952 2.022-.003.276-.13.916-.284 1.422s-.344 1.52-.422 2.257c-.122 1.137-.498 1.927-.498 1.048 0-.958-.642-.55-.79.5-.216 1.536-.515.826-.493-1.168l.022-1.953 1.06-1.805c.816-1.4 1.053-1.98 1.032-2.567-.025-.72.55-2.184.954-2.434.11-.07.097-.35-.035-.7-.192-.51-.138-.738.428-1.8.513-.963.623-1.36.522-1.897-.128-.682.42-2.133.92-2.444.135-.083.168-.43.087-.9-.1-.65-.016-.995.587-2.13.903-1.7.907-2.01.03-2.377-.962-.402-.96-.372-.203-2.706.864-2.664.992-3.55.696-4.8-.193-.803-.187-1.092.028-1.485l.73-1.333c.255-.464.592-1.58.75-2.48.275-1.563 1.188-4.805 1.804-6.4.16-.416.3-.986.3-1.268 0-1.552 1.72-4.286 4.217-6.7.5-.484.88-1.445 1.073-2.708.088-.57.494-1.887.99-3.202.35-.935 2.432-2.846 3.765-3.457.992-.455 1.19-.63 1.192-1.055.003-.28.122-1.072.266-1.758s.21-1.32.146-1.404c-.213-.287-1.315-.996-2.545-1.636-1.398-.727-1.865-1.176-2.498-2.403-.25-.48-1-1.43-1.674-2.1a18.87 18.87 0 0 1-2-2.435c-.428-.66-1.218-1.56-1.754-2.002-1.19-.98-1.386-1.452-.802-1.925.558-.45.55-.508-.3-2.163-.814-1.595-.837-2.25-.088-2.432.536-.13.58-.346.33-1.634-.12-.616-.063-.82.346-1.262.433-.467.476-.656.382-1.683-.082-.9-.032-1.23.22-1.48.22-.22.326-.678.327-1.394.001-.727.127-1.26.4-1.67.244-.368.4-.94.4-1.475.001-.638.137-1.035.503-1.47.276-.328.5-.722.5-.876 0-.572.972-2.43 1.777-3.397.457-.55.83-1.103.83-1.23 0-.25.857-.88 1.197-.88.362 0 .224.55-.295 1.167-.72.857-.648 1.078.33 1.003 1.066-.082 1.237.32.273.637-.592.196-2.51 1.83-2.51 2.138 0 .047-.23.33-.513.63-.408.43-.493.682-.41 1.22.07.448-.028.936-.288 1.446-.216.423-.393 1.13-.393 1.568s-.077.846-.172.906c-.348.214-.697 1.9-.454 2.194.173.207.15.462-.094 1.044-.204.49-.278 1.038-.204 1.507.068.423-.008 1.152-.18 1.715-.38 1.253-.378 1.28.1 1.28.267 0 .6-.337 1.02-1.003.756-1.226.982-1.26.99-.15.017 2.26 1.13 7.57 1.98 9.43.216.474.453 1.104.528 1.4.206.822.5.943 2.45 1.048.998.053 2.24.24 2.758.417 1.283.436 1.37.365 1.8-1.44.814-3.508 1.782-4.998 5.887-9.048 1.703-1.683 3.175-3.06 3.27-3.06s.242-.118.33-.262.487-.507.887-.807c.71-.533.727-.58.756-1.976.04-1.956.274-2.353 1.626-2.764 1.293-.394 1.02-.58-.903-.612-1.684-.027-2.735.182-3.243.646-.277.254-.577.352-.83.273-.265-.085-.6.048-1.02.4-.343.288-.737.484-.876.434s-.538.025-.887.166-.676.218-.724.17-.44-.1-.87-.112c-2.15-.063-3.375-2.42-3.385-6.505-.004-2.238.178-2.688 1.087-2.688 1.58 0 2.102 2.532 1.1 5.35C25.1 9.803 27.29 11.5 28.76 10.03c.252-.253.666-.4 1.12-.4.417 0 .935-.17 1.23-.4a2.2 2.2 0 0 1 1.163-.401c.42 0 .7-.117.78-.326.1-.266.306-.303 1.097-.198.742.098 1.032.056 1.224-.175.32-.386.798-.386 1.35-.001.274.192.478.23.558.1.385-.624 1.82-.052 2.007.798.157.716.415.747 1.853.22 1.28-.467 5.64-.178 6.83.453.702.372 1.49.283 1.325-.15-.422-1.1 3.994-2.145 4.965-1.173.137.137.542.248.9.248s.706.1.774.2.417.2.775.2.82.123 1.026.273.527.233.716.184.62.053.96.228.812.32 1.053.32.735.185 1.1.41c.984.608 3.622.676 3.537.09-.777-5.314-.325-7.8 1.135-6.247.467.497.872 3.46.68 4.972-.23 1.803-1.556 3.337-2.66 3.077-.276-.065-.754-.11-1.063-.104a1.95 1.95 0 0 1-.998-.289c-.24-.168-.765-.305-1.168-.305s-.844-.134-.983-.3-.577-.3-.99-.3c-.407 0-.914-.133-1.128-.294s-.665-.298-1.002-.3-.7-.106-.83-.226c-.15-.15-.338-.156-.597-.017s-.5.134-.76-.013c-.21-.118-.693-.204-1.07-.19s-.856-.064-1.06-.175c-.258-.138-.49-.126-.754.04-.352.22-.318.272.43.656 1.346.693 1.886 2.29 1.323 3.906-.22.628.262 1.427.86 1.427.096 0 .274.217.395.484.143.315.45.527.88.607.36.068.777.268.925.445s.95.842 1.787 1.478c2.848 2.168 4.803 4.632 5.807 7.316.47 1.253 1.008 3.057 1.007 3.366-.003.464.51.653 1.064.392.648-.306 2.54-.66 3.983-.747l1.417-.09c.22-.02.95-1.702 1.875-4.326.612-1.733 1.235-4.727 1.398-6.722.168-2.048.206-2.14.696-1.698.218.197.4.458.403.58.01.3.716 1.122.978 1.122.32 0 .267-1.037-.093-1.9-.2-.455-.262-.978-.183-1.337.076-.347.03-.706-.108-.874-.13-.157-.283-.853-.34-1.546s-.27-1.622-.477-2.064c-.22-.47-.324-.996-.252-1.27.078-.3-.04-.754-.328-1.266-.284-.505-.412-.995-.348-1.332.155-.785-1.936-3.652-2.657-3.652-.785 0-1.087-.5-.475-.79l.57-.266-.552-.19c-.706-.244-.77-.858-.07-.682 1.636.41 3.33 1.683 3.33 2.502 0 .128.087.39.192.583.803 1.452 1.413 3.013 1.42 3.627.003.403.14.907.3 1.12.173.23.295.828.295 1.45 0 .688.148 1.343.425 1.874.308.59.394 1.023.31 1.56-.077.5-.017.877.184 1.145.24.322.273.766.165 2.243l-.136 1.842.73.305c1 .422.934 1.168-.26 2.53-.747.852-.77 1.142-.115 1.44.77.35.64.582-1.304 2.36-.994.908-1.805 1.774-1.805 1.927 0 .312-2.16 3.565-2.437 3.67-.1.04-.35.4-.558.802-.68 1.33-2.674 2.688-4.497 3.068-1.396.292-1.435.36-.965 1.708a17.42 17.42 0 0 1 .603 2.276c.15.864.316 1.2.765 1.504 2.35 1.653 3.542 3.622 3.577 5.917.013.827.078 1.64.146 1.805s.172.527.232.802c.075.344.474.717 1.27 1.188.64.378 1.207.745 1.262.814s.303.265.55.435c2.094 1.43 4.132 5.74 3.435 7.267-.185.407-.155.616.174 1.164.22.366.54 1.298.715 2.07.568 2.515.948 4.407.946 4.714-.003.643.435 1.818.875 2.35.717.865.772 1.393.2 1.816l-.497.363.293 1.998c.162 1.098.494 2.695.74 3.55.555 1.93.482 2.16-.684 2.16-1.145 0-1.19.1-.692 1.488.254.706.378 1.435.322 1.888-.06.487.042 1.004.302 1.523.305.61.365 1.005.265 1.76-.094.706-.04 1.164.202 1.67.194.408.29.97.235 1.35-.052.36.033 1.013.2 1.454s.312 1.074.344 1.404c.07.7.603 1.976 1.17 2.777.224.313.62 1.432.88 2.486.563 2.27.546 2.058.175 2.058-.166 0-.304-.158-.306-.35-.004-.262-.143-.186-.55.303-.786.94-1.42.87-.753-.083.262-.374.254-.577-.068-1.8l-.724-2.883c-.22-.917-.545-1.704-.835-2.017-.38-.412-.473-.733-.473-1.643 0-.622-.09-1.186-.2-1.254s-.2-.74-.2-1.492c0-.983-.087-1.44-.307-1.622s-.298-.595-.273-1.493-.065-1.4-.323-1.784c-.295-.448-.338-.813-.243-2.053.137-1.807-.244-2.223-1.474-1.61-1.375.685-1.417.517-.568-2.283 1.237-4.076.4-16.728-1.15-17.374-.372-.156-.676-.355-.676-.443s-.32-.313-.708-.498-.76-.473-.824-.64-.2-.3-.303-.3-.433-.228-.73-.505c-1.02-.95-1.15-.69-1.095 2.214.223 11.745.09 13.606-1.163 16.255-.95 2.01-.977 2.72-.124 3.496.715.65 2.542 3.213 2.542 3.566 0 .104.253.54.562.972 1.402 1.948 2.028 5.24 1.266 6.66-.187.347-.197.72-.04 1.504.115.574.35 1.945.52 3.05l.496 3.01c.333 1.802.482 6.285.22 6.6-.24.3-.104 1.983.415 5.134.35 2.135.275 2.307-1.032 2.307-.615 0-1.094.09-1.082.2s.136.84.276 1.622c.23 1.277.22 1.475-.09 1.95-.393.6-.3 1.757.234 2.934.285.627.284.74-.02 1.304-.393.73-.286 1.62.34 2.857.367.724.39.904.164 1.324-.232.432-.192.615.356 1.643.594 1.115.606 1.177.288 1.713-.298.505-.3.628-.022 1.33 1.4 3.565.892 8.47-.898 8.49-.46.005-.55-.08-.55-.51zM47.73 123.8c.227-.2.518-.595.648-.898s.327-.552.44-.552.205-.135.205-.3.093-.3.206-.3.292-.228.398-.506c.124-.328.397-.546.778-.623.75-.15 3.833-3.244 3.833-3.846 0-.61-.73-1.06-1.342-.828-.27.102-.984.186-1.59.186-4.23 0-8.373 2.814-5.695 3.865.907.356 1.232.888.755 1.236-.263.192-.505 1.97-.378 2.772.046.3 1.332.14 1.74-.205zm-8.013-.497c-.07-.358-.262-.752-.426-.875s-.298-.45-.298-.727-.136-.617-.3-.755c-.506-.42-.34-.602.55-.604 1.583-.005 1.8-.142 1.65-1.037-.305-1.806-2.337-2.83-6.097-3.07-.836-.053-1.773-.15-2.084-.218-.63-.135-1.34.347-1.34.91 0 .183.55.732 1.22 1.223 1.69 1.235 2.792 2.203 2.792 2.453 0 .116.13.353.3.528l1.123 1.265c.592.673 1.102 1.03 1.766 1.233 1.305.4 1.298.4 1.156-.324zm1.808-5.86c.063-.162-.075-.535-.307-.83s-.42-.738-.42-.987-.136-.505-.3-.568-.3-.29-.3-.5c0-1.522-3.455-2.204-6.47-1.278-1.327.408-1.354.41-1.354.03 0-.232.14-.4.35-.394.507-.01 1.92-1.03 2.155-1.556.11-.247.357-.497.552-.56.2-.065.352-.31.352-.576 0-.255.136-.576.3-.714.173-.143.3-.58.3-1.027 0-.428.085-.778.187-.778s.25-.203.323-.45c.193-.638 1.28-1.737 2.036-2.056 1.54-.65 1.985-3.778.664-4.67-1.156-.78-3.353-.117-3.403 1.028-.004.093-.188.4-.408.68s-.404.746-.408 1.034-.136.75-.294 1.026-.29 1.015-.294 1.643-.088 1.192-.187 1.252c-.256.16-1.024 1.675-1.024 2.023 0 .16-.294.426-.652.6s-.877.48-1.153.703c-.577.466-2.43.637-2.565.236-.044-.133-.43-.42-.857-.636s-.885-.6-1.017-.847-.393-.56-.582-.695-.4-.524-.468-.868a3.22 3.22 0 0 0-.527-1.138c-.22-.282-.403-.623-.403-.758s-.27-.587-.602-1.004-.602-.866-.602-1-.19-.414-.422-.624c-1.39-1.257-1.083-4.652.422-4.696.166-.004.527-.185.802-.4s.73-.394 1.01-.396c.48-.004 1.39-.576 1.88-1.182.122-.15.47-.51.773-.796s.552-.63.552-.758.124-.282.276-.34.477-.523.724-1.034c.596-1.23 1.306-1.726 1.7-1.187.363.495 1.994.498 2.75.004l.53-.348.135.8c.074.44.31 1 .52 1.245s.386.726.386 1.07.124.804.276 1.023.338.685.415 1.04c.198.9 1.3 1.582 2.182 1.33 1.065-.305 1.718-2.37 1.065-3.367-.18-.274-.327-.63-.327-.788 0-.315-1.678-2.132-1.967-2.132-.097 0-.34-.18-.54-.4s-.868-.56-1.486-.752c-.825-.258-1.408-.63-2.198-1.404-.59-.58-1.144-1.054-1.228-1.054-.395 0-1.608.633-1.608.84 0 .572-2.016 2.368-2.658 2.37-.723.002-1.354.653-1.354 1.4 0 .682-.68 1.212-1.065.827-.637-.637-1.472-.115-1.576.985-.046.483-.2.76-.493.89-.235.102-.724.684-1.087 1.293-.586.978-.687 1.064-.877.738a9.53 9.53 0 0 0-.668-.92c-.328-.402-.452-.82-.455-1.527-.003-.9-.218-2.79-.503-4.435-.063-.363-.235-.652-.388-.652-.27 0-.352-.336-.615-2.52-.142-1.176.286-1.876.69-1.124.543 1.013 2.827 2.034 2.827 1.263 0-.208.136-.49.3-.627.173-.143.3-.58.3-1.027 0-.428.03-.778.065-.778s.48.14.985.315c1.32.45 4.165-1.242 4.165-2.478 0-.23.088-.474.195-.54s.34-.425.517-.798c.436-.918.843-1.032 1.488-.415.292.28.6.508.69.508s.386.18.668.4c.63.496 2.743.58 3.003.117.532-.944 1.396.162 1.608 2.054.133 1.194.315 1.927.53 2.143.2.21.328.665.328 1.267 0 .933.334 1.388 1.56 2.12.426.255 1.65-.258 1.65-.692 0-.504-.4-2.2-.625-2.642-.238-.47-.225-1.304.023-1.457.572-.353-.217-2.41-1.205-3.14-.328-.242-.643-.59-.7-.77-.197-.623-1.254-1.188-2.632-1.407-.93-.15-1.73-.442-2.524-.925l-1.163-.706-1.153.54c-.76.357-1.55.558-2.32.59-.64.026-1.268.15-1.394.276s-.33.228-.454.228-.353.283-.51.628c-.205.447-.517.703-1.1.892-.44.145-1.073.564-1.404.93-1.434 1.585-3.91 1.99-3.91.638a3.27 3.27 0 0 0-.293-1.265c-.435-.842-.47-5.226-.044-5.464.185-.104.362-.602.442-1.243.153-1.22.186-1.285.98-1.895.63-.484.76-.473 2.467.2 1.006.403 1.082.406 2.08.085.57-.184 1.12-.334 1.223-.334s.476-.27.83-.6.702-.6.777-.602.193-.18.262-.396c.188-.6 1.224-.787 3.134-.593 1.643.165 1.692.157 2.596-.422.547-.35 1.646-.76 2.71-1.008 2.977-.695 4.877-3.6 3.03-4.633-.186-.105-.338-.308-.338-.455s-.124-.37-.277-.495-.328-.487-.39-.8c-.07-.35-.275-.613-.526-.68-.34-.09-.412-.27-.412-1.02 0-.634-.115-1.024-.377-1.273-.208-.197-.445-.675-.528-1.06s-.32-.917-.526-1.18-.375-.682-.375-.93c0-.724-1.326-.97-2.094-.4-.53.4-.972.37-1.257-.087-.162-.26-.742-.49-1.804-.722-.86-.187-1.7-.408-1.864-.492-.377-.2-1.008-5.76-.775-6.83l.282-1.23c.316-1.3-.946-1.7-3.32-1.055-1.2.33-1.7 1.977-.822 2.77.2.2.44.678.5 1.084.163.938.532 1.903.795 2.08.113.076.257 1.024.322 2.106l.117 1.967-.912 1.132c-1.337 1.66-4.02 1.302-4.02-.537 0-.263-.17-.64-.376-.838s-.44-.562-.515-.81-.27-.45-.43-.45c-.5 0-.722-1.018-.87-4.188-.124-2.647-.196-3.124-.51-3.352-.2-.146-.467-.473-.592-.725-.303-.612-1.666-.776-1.837-.22-.062.2-.264.672-.45 1.05-.454.923-.43 4.2.037 5.305.18.425.327.976.327 1.22s.133.714.296 1.04.384 1.207.49 1.957c.11.762.344 1.53.535 1.742.306.337.323.654.163 3.007-.1 1.48-.104 2.677-.005 2.737s.11.524.035 1.033-.162 1.378-.19 1.93-.166 1.996-.303 3.21c-.532 4.694-.068 18.882.675 20.618.18.418.452 1.727.608 2.9.26 1.966.605 3.644 1.374 6.675.157.614.51 1.524.79 2.02s.572 1.2.654 1.585.35 1 .592 1.4.607 1.14.808 1.67c.483 1.274 3.785 4.955 4.446 4.955.148 0 .27.09.27.2s.135.2.3.2.467.158.67.35c.6.56 1.68 1.13 2.44 1.28.385.076 1.333.28 2.105.458s1.676.32 2.006.32c1.692.005 5 .99 5.7 1.703.775.775.968.844 1.136.408zM20.05 69.746c-.043-.138-.13-1.73-.2-3.54-.088-2.543-.183-3.366-.418-3.626-.33-.364-.434-2.31-.134-2.495.094-.058.645.41 1.224 1.04 1.898 2.072 2.978 2.067 4.93-.024 1.367-1.463 2.212-1.666 3.175-.76.25.236.608.428.794.428s.34.09.34.2c0 .543 1.866.2 2.72-.5 1.02-.835 2.094-.98 2.094-.283 0 .23.177.57.393.752 2.436 2.067.19 5.71-3.542 5.748-1.624.017-2.124.09-2.424.362-.207.188-.482.342-.6.342s-.437.315-.687.7-.558.7-.686.702-.27.113-.316.248c-.165.493-1.628.303-1.983-.26-.413-.652-1.133-.623-2.382.098-.496.286-1.06.576-1.254.642s-.35.202-.35.3c0 .274-.605.21-.692-.074zm25.5 47.278c.633-.28 1.3-.632 1.46-.78s1.275-.377 2.515-.513c1.213-.133 2.642-.323 3.176-.423s1.044-.137 1.135-.08c.235.145 3.65-.687 4.014-.98.165-.133.567-.373.893-.534s.912-.646 1.304-1.077 1.124-1.2 1.628-1.705 1.118-1.313 1.362-1.795.7-1.202 1.01-1.605a6.88 6.88 0 0 0 .831-1.431 10.08 10.08 0 0 1 .7-1.404c.237-.386.39-.824.34-.973s.08-.5.293-.802c.448-.622.79-1.73.962-3.14.17-1.385.523-2.727.85-3.238.15-.236.32-1.14.376-2.006s.187-2.067.292-2.666.19-1.42.19-1.824a3.73 3.73 0 0 1 .33-1.398c.274-.55.342-1.485.4-5.397l.155-5.736c.317-3.347.37-6.218.132-7.207-.578-2.408.258-10.792 1.3-13.052.988-2.142 1.168-9.528.233-9.528-.13 0-.352-.184-.492-.408-.96-1.538-2.27-.925-2.175 1.017.12 2.42-.513 6.933-1.047 7.465-.126.126-.23.38-.23.56 0 .52-1.096 1.902-2.197 2.773-2.21 1.745-4.233-.222-3.692-3.586.133-.827.25-1.843.257-2.258.012-.54.157-.876.517-1.19.276-.24.5-.645.5-.9s.18-.577.4-.715a.94.94 0 0 0 .401-.71c0-.253.138-.512.306-.577 1.554-.597-.462-2.4-2.82-2.525l-.995-.052.07.597a2.61 2.61 0 0 0 .351.998c.404.577.356 1.64-.09 1.955-.544.386-.834 1.04-.834 1.888 0 .413-.128.892-.284 1.067s-.363.627-.46 1.006c-.223.865-.866 1.075-2.422.787-1.282-.237-2.05-.01-2.05.607 0 .93-1.314 1.587-2.23 1.114-.647-.335-1.18-.137-1.18.438 0 .152-.17.277-.376.277-.393 0-.627.682-.627 1.83 0 .317-.092.577-.205.577s-.304.248-.426.552c-.35.874-1.246 2.747-1.37 2.858-1.773 1.606-1.897 5.215-.18 5.215.138 0 .482.214.763.476.635.6 2.122 1.414 2.907 1.6.325.08.925.412 1.333.734.83.658 1.564.745 2.287.272.774-.508 2.2.377 2.365 1.467.037.24.22.606.406.813s.34.465.34.574c0 .303 1.048 1.008 1.715 1.155.662.145 2.508-.41 3.594-1.08.827-.51 1.885-.54 2.03-.053.058.192.235.606.395.918s.3.735.3.94.082.424.183.486c.92.57 1.37 3.736.62 4.377-.347.297-.4.59-.4 2.17 0 1.657-.038 1.835-.4 1.93-.26.068-.4.274-.4.583 0 .687-.705.624-1.404-.123-.416-.446-.744-.602-1.26-.602-1.442 0-1.98-.22-2.278-.933-.154-.366-.374-.668-.492-.668-.565 0-2.348-1.05-2.555-1.503-.125-.276-.366-.503-.534-.503s-.305-.1-.305-.2-.134-.2-.297-.2-.662-.396-1.11-.88c-.98-1.063-2.097-1.344-3.316-.834-.4.17-1.027.3-1.374.3-2.69 0-6.108 4.83-4.414 6.236.362.302.358 1.07-.008 1.376-.408.337-1.117 1.753-1.117 2.227 0 1.018 1.596.978 2.72-.067.717-.666.768-.817 1.403-4.118.35-1.82.365-1.843 1.195-1.843 1.132 0 2.78-.422 3.22-.824 1.12-1.025 2.5-.355 2.343 1.127-.21 1.875.278 2.436 3.662 4.203 1.214.633 2.34 1.255 2.507 1.382.885.677 1.128.714 1.828.273 2.048-1.288 2.986-1.3 2.986-.038 0 .844-.185 1.332-.445 1.17-.248-.152-.55.292-.555.814-.002.212-.132.528-.288.702s-.387 1.083-.5 2.022c-.352 2.67-.434 3.01-.728 3.01-.15 0-.33.226-.4.5-.2.836-1.286.317-1.286-.62 0-.548-.71-1.142-1.917-1.603-.5-.188-.89-.42-.89-.52s-.226-.265-.5-.37c-.3-.118-.5-.348-.5-.602 0-.264-.197-.486-.552-.62-.683-.258-1.655-1.164-1.655-1.542 0-.325-.783-1.03-1.153-1.042-.138-.003-.25-.183-.25-.397s-.13-.464-.286-.552-.564-.544-.904-1.013c-.85-1.173-3.022-.647-3.022.733 0 .377-.938 1.15-2.015 1.66-.542.256-.988.562-1 .68-.004.288-.952 1.12-1.703 1.492-.635.316-1.043 2.076-.79 3.412.17.91 2.437 1.806 2.832 1.122.088-.152.34-.312.56-.353.554-.105.86-.846 1.023-2.483.188-1.892.343-2.238 1.073-2.397.338-.074.613-.242.613-.37.001-.27 2.543-.325 2.958-.067.138.086.34.1.45.032s.2.098.2.4c0 .38.105.513.4.513.227 0 .4.134.4.307s.136.36.3.423.3.34.3.613c0 .323.136.535.382.6.21.055.44.25.507.433.322.863.77 1.435 1.127 1.435.215 0 .39.136.39.3s.125.3.28.3.334.218.4.485c.092.368.416.6 1.334.953 1.83.705 3.2 1.988 3.2 2.99 0 .802-.2 1.105-1.285 1.85-.286.2-.52.488-.52.645s-.18.38-.4.5-.4.395-.4.615a.6.6 0 0 1-.351.53c-.458.17-.646.458-.65 1.004-.002.244-.174.536-.38.647s-.436.43-.506.71-.256.507-.413.507c-.27 0-.74.664-1.03 1.454-.07.193-.24.35-.375.35s-.414.185-.617.41c-2.024 2.236-6.36.973-7.017-2.044-.08-.37-.27-.85-.422-1.07s-.275-.725-.275-1.128-.136-1.116-.3-1.585-.3-1.26-.3-1.758c0-2.236-2.586-4.352-3.503-2.867-.283.457-.29 4.043-.007 4.15.157.06.335.266.396.458s.402.477.76.633c.564.248.658.397.7 1.123.033.46.192.945.35 1.077s.3.374.3.536.18.524.4.806.4.776.4 1.103c0 .42.114.623.395.697a.82.82 0 0 1 .515.483c.066.208.204.38.307.38.284 0 .224.6-.064.626-.138.013-.747.007-1.354-.013-1.234-.04-2.47.33-3.215.962a31.12 31.12 0 0 1-.983.797c-.456.352-.934 2.843-.546 2.843.066 0 .637-.23 1.27-.5zM65.838 70.77c-.153-1.076-2.535-1.474-4.215-.704-1.023.47-1.59.483-1.845.046-.607-1.036-2.352-1.9-4.854-2.404-2.442-.49-4.334-2.03-3.728-3.03.067-.1.18-.768.253-1.46.074-.716.272-1.416.457-1.62.18-.198.327-.494.327-.657 0-1.278 1.56-1.34 3.185-.13.267.2.825.356 1.263.356.813 0 1-.136 2.23-1.626.51-.615.588-.65.814-.345.173.23.343.28.54.154.5-.323.59-.21.59.833 0 .853.067 1.04.4 1.127.22.058.4.232.4.387 0 1.132 2.92.843 4.2-.416 1.245-1.225 1.204-1.448.834 4.44-.292 4.624-.63 6.625-.852 5.048zm-22.753 41.705a109.94 109.94 0 0 1 .441-4.87c.166-1.434.34-4.097.382-5.917l.606-16.247c.12-2.26.104-6.104-.033-8.25-.073-1.14-.03-1.88.123-2.17.177-.33.178-.505.003-.716-.15-.182-.195-.818-.13-1.842.213-3.345.186-10.536-.05-13.464l-.25-3.073 1.17-1.54c2.735-3.6 8.495-8.26 10.21-8.26.14 0 .5-.248.822-.553 1.02-.994 3.106-2.256 3.728-2.256.34 0 .846-.215 1.187-.5.328-.276.713-.5.858-.5s.373-.136.5-.3.38-.3.54-.3.684-.27 1.165-.602 1.017-.602 1.2-.602.315-.09.315-.2.192-.2.426-.2c.52 0 .453-1.15-.212-3.61-.225-.827-.41-1.948-.41-2.492-.002-.598-.124-1.12-.308-1.324-.168-.185-.34-.76-.38-1.28-.042-.525-.23-1.115-.426-1.332-.23-.253-.398-.882-.48-1.792-.088-.962-.234-1.482-.464-1.657-.185-.14-.423-.653-.53-1.14s-.336-.966-.5-1.064a.7.7 0 0 1-.315-.557c0-.563-3.414-3.772-5.08-4.776-.79-.476-1.8-1.22-2.247-1.655-.797-.777-1.5-1.03-1.493-.54.007.445 1.748 2.02 2.1 1.888.18-.07.313-.016.315.124 0 .135.63.786 1.4 1.448s1.4 1.316 1.403 1.454.143.25.31.25.387.213.486.473.503.824.896 1.254.718.935.718 1.124.182.44.402.56c.298.16.4.42.4 1 0 .91-.077.944-.903.382-2.786-1.9-3.91-1.522-1.934.647.537.588 1.18 1.476 1.43 1.972s.52.948.6 1.003.202.407.275.78.274.784.446.9c2.01 1.47.113 7.336-2.374 7.336-.443 0-1.79.658-3.307 1.616-.247.157-.585.567-.748.91s-.435.74-.602.88c-.22.183-.305.65-.305 1.7v1.45l-1.69 1.034c-2.61 1.595-4.53 3.228-6.33 5.382l-2.015 2.4c-.54.64-.634 1.507-.422 3.905.115 1.3.124 4.71.025 8.625l-.29 16.616-.41 18.854-.415 6.68c-.074 1.41-.175 2.525-.225 2.476-.18-.18-.207-10.765-.04-15.172.095-2.482.223-11.643.284-20.358l.214-16.326c.988-4.616-1.715-9.315-7.68-13.343l-1.442-.975.113-.95c.07-.6.03-1-.113-1.09-.124-.076-.226-.37-.226-.65 0-.482-.7-1.46-1.067-1.467-.09-.002-.543-.264-1.007-.583s-1.156-.675-1.54-.792c-2.872-.87-3.778-1.356-4.933-2.64-.513-.57-.48-2.953.044-3.265.145-.086.32-.492.39-.903s.3-.99.51-1.3.382-.633.382-.742c0-.273.948-2.032 1.3-2.432.162-.18.295-.38.295-.445 0-.112.553-.72 2.448-2.702 1.683-1.757-.653-2.08-2.54-.35-.658.603-.82.67-1.052.438-.305-.305-.043-1.347.338-1.347.113 0 .206-.122.206-.27-.003-.6 3.914-5.148 4.43-5.148.084 0 .477-.307.876-.683s1.058-.833 1.468-1.018a37.74 37.74 0 0 0 1.404-.671c1.14-.58 1.237.098.393 2.773-.227.718-.514 1.395-.64 1.504-.33.292-1.115 1.613-1.115 1.88 0 .126-.27.603-.602 1.06-.695.958-.78 1.572-.224 1.572.208 0 .53.23.715.514.394.6 1.058.596 1.394-.01a10.48 10.48 0 0 1 .573-.88c.215-.294.35-.842.35-1.416 0-.515.105-1.04.233-1.17s.303-.75.39-1.38c.095-.702.277-1.214.47-1.32.207-.116.313-.463.313-1.02 0-.628.104-.91.4-1.095a.96.96 0 0 0 .401-.738c0-.27.1-.545.2-.612.857-.53-.698-1.438-2.552-1.493-1.273-.037-1.555.105-3.02 1.516l-2.55 2.416c-2.848 2.654-3.562 3.402-4.28 4.482-.404.607-.892 1.22-1.086 1.366s-.35.426-.35.627-.177.762-.392 1.25-.45 1.288-.52 1.78-.3 1.372-.51 1.954-.38 1.265-.38 1.515-.087.54-.192.646-.336.78-.512 1.495-.398 1.482-.494 1.703-.223 1.187-.28 2.147l-.106 1.747.607.5c.333.28.78.51.992.51s.385.074.385.166c0 .198 3.935 2.842 4.23 2.842.37 0 2.188.846 2.188 1.02 0 .09.294.254.652.363 3.118.937 5.555 2.61 8.83 6.07 3.1 3.273 3.504 4.282 2.966 7.406-.104.6-.246 8.943-.316 18.54l-.404 22.264c-.172 1.965.262 14.688.52 15.167.375.7.528.223.67-2.073zm30.727-2.316c.255-.173.647-2.98.777-5.563l.175-3.3c.046-.827.044-1.19-.005-.802-.355 2.838-1.58 8.782-1.885 9.15-.415.5.346.926.94.526zm-62.762-6.316c-.02-2.454-.07-4.237-.108-3.962s-.17.626-.297.777-.285 1.45-.358 2.908c-.072 1.448-.2 3.107-.28 3.686l-.15 1.053h1.23zm63.598-15.746c-.118-1.13-.796-2.957-1.358-3.66l-.4-.5.33.802c.437 1.065.86 2.85.87 3.66.004.466.1.652.333.652.27 0 .31-.165.226-.953zm-61.615-2.17c.136-.656.316-1.462.4-1.794.14-.553.124-.58-.192-.317-.49.403-.7.876-.91 1.954-.347 1.857.322 2.007.703.158zm26.922-7.55c.423-.423.26-1.026-.48-1.784-.736-.753-.735-1.585.001-1.585.148 0 .378-.132.51-.292.277-.334.098-1.113-.256-1.115-.13 0-.38-.252-.555-.56-.83-1.457-3.093-1.218-2.847.3l.1.676-.82-.132c-2.658-.425-2.745 2.18-.097 2.912.38.105 1.024.445 1.427.754 1.394 1.07 2.466 1.365 3.006.824zm9.75-.263c1.182-.344 2.36-1.33 3.224-2.698l.557-.884-.45-.363c-.263-.214-.776-.366-1.23-.366-.75 0-.78-.027-.78-.662 0-1.492-3.027-1.462-3.502.036a.82.82 0 0 1-.516.486c-.264.07-.395.275-.395.624 0 .53.27.693.5.306.198-.32.894.392.894.916 0 .242-.18.603-.4.802-.595.538-.56 1.847.05 1.964.818.158.98.145 2.037-.162zm31.2-.718c.296-.168.052-.284-.444-.2-.078.012-.098-.097-.042-.243s-.005-.527-.135-.85c-.26-.647-.387-1.732-.863-7.5-.365-4.4-.596-5.375-.38-1.605.193 3.38.19 6.08-.006 8.678l-.165 2.177.867-.143c.477-.08 1.003-.22 1.168-.316zm-73.813-2.34c.002-.766.676-6.386.976-8.13.09-.528.105-.997.03-1.043-.184-.114-.535 1.38-.92 3.908-.272 1.772-.624 3.28-1.23 5.263-.072.238.045.41.368.54.734.293.775.265.776-.537zM71.89 63.686c0-2.98-.162-3.6-.744-2.8-.273.37-.24 3.11.058 5.046.296 1.91.685.635.685-2.245zm-55.663-4.902c.105-.92.083-1.24-.077-1.142-.122.077-.223.026-.223-.113 0-.78-.377.32-.49 1.432l-.242 2.264c-.06.53-.044 1.206.036 1.504.167.625.727-1.592.997-3.945zm61.34-2.476c-.326-.71-2.323-3.154-2.494-3.048-.083.052.09.35.39.662s.675.772.84 1.023.414.572.55.716.25.397.25.56c0 .58.24.972.462.75.145-.144.144-.35 0-.665zm-65.373-2.214c.906-1.33 1.17-2.068.677-1.906-.38.128-1.96 2.535-1.96 3 0 .623.276.4 1.282-1.084zm33.738-3.35c.707-.328 1.288-.666 1.29-.752s.273-.463.602-.837c1.068-1.2.715-1.628-1.37-1.628h-1.5l.147-4.363c.083-2.433.242-4.54.363-4.764.125-.234.24-2 .275-4.212l.097-6.318c.026-1.807-.04-2.646-.238-3.01-.15-.276-.325-.902-.385-1.392-.137-1.12-1.214-1.605-1.84-.83-.717.886-.985 18.695-.315 20.89.8 2.623.107 4.038-1.998 4.072-2.022.035-2.113.307-.607 1.837 1.85 1.88 3.42 2.256 5.47 1.305zM70.68 45.43c.583-.702-.65-2.705-1.923-3.125-.91-.3-3.55 1.04-3.646 1.85-.054.45.043.532.903.753.53.137 1.143.326 1.365.42 1.068.458 2.958.514 3.303.1zm-51.013-.935c.174-.144.554-.293.845-.33.937-.12 1.633-.523 1.632-.95 0-.704-2.585-2.03-2.915-1.494-.073.117-.36.3-.642.408s-.454.247-.388.314-.23.375-.657.685c-.87.63-1.21 1.334-.785 1.624.373.255 2.52.063 2.9-.26zm1.22-11.96c-.718-.747-2.226-1.546-2.63-1.392-.74.284-.114.88 1.617 1.54 1.398.532 1.63.497 1.01-.147zm50.012-1.46c.704-.377.45-.656-.465-.51-1.22.193-1.718.718-.68.718.417 0 .932-.093 1.146-.207zm-16.585-5.66c.06-.192.294-.35.518-.35.435 0 .6-.86.213-1.1-.108-.067-.38-.5-.605-.964s-.538-1.07-.696-1.347c-.907-1.6-1.044-2.102-.978-3.647.092-2.15-.125-2.655-1.066-2.478-1.273.24-2.18 1.277-1.5 1.704.273.17 1.25 3.806 1.092 4.062-.056.092.084.47.312.84s.415.907.415 1.193c0 .696.746 2.133 1.388 2.677.554.468.564.462.895-.588zm-41.16-.78c-.5-1.096-1.532-3.698-1.913-4.836-.07-.212-.32-.35-.632-.35-.62 0-.912.568-.432.838.183.1.332.273.332.38s.233.546.518.977.5.994.478 1.25c-.064.774-.018.868.608 1.238.33.196.602.453.602.57 0 .352.872 1.658.95 1.423.04-.118-.19-.79-.512-1.5zm62.648-.557l.527-.818a3.89 3.89 0 0 0 .447-1.17 3.19 3.19 0 0 1 .526-1.179c.423-.538.536-1.356.214-1.554-.328-.203-.927.65-1.3 1.846-.197.635-.482 1.426-.634 1.757-.38.83-.887 2.3-.886 2.583 0 .196.275-.167 1.104-1.464zm-25.364-9.35c.58-.3.586-.322.292-.892-.167-.323-.303-.766-.303-.985 0-.725-.8-1.854-1.28-1.787-.3.043-.405.18-.356.462.037.22.115 1.1.17 1.956.114 1.728.278 1.867 1.476 1.247zm-11.045-.13c0-.128-.152-.403-.34-.6-.32-.352-.32-.41 0-.95.94-1.593-.167-3.06-1.228-1.624-.79 1.07-.63 2.632.313 3.05.92.406 1.253.442 1.253.135z"/></svg>