<svg xmlns="http://www.w3.org/2000/svg" width="1547.905" height="347.702"><path fill="currentColor" d="M1222.56 347.672c-46.977.857-91.906-16.546-135.52-32.16-22.32-8.545-42.7-21.356-64.48-31.04-20.442-9.227-41.668-17.36-62.72-24.32-4.882-.005-23.14 3.436-12-4.96 13.964-5.41 28.397 4.883 42.24 7.68 33.42 11.956 64.087 30.57 97.12 43.52 44.988 18.617 93.69 31.286 142.72 30.08 47.13-4.54 92.886-18.77 135.52-39.2 33.6-13.526 65.78-31.056 101.12-39.68 7.103-2.872 17.056-5.133 21.76-9.6-26.56.524-52.366 10.53-77.12 19.52-41.94 19.07-83.935 38.923-128.96 49.92-41.907 11.39-86.03 11.923-128.16.48-48.64-9.114-92.842-32.082-136.64-54.08-27.56-10.83-56.44-18.73-84.64-26.56-11.022-5.228-8.588-19.52 2.4-23.84 24.746-10.13 53.377-10.81 75.84-27.36 31.8-23.305 64.292-47.18 101.47-60.8 40.616-18.513 85.715-32.032 130.53-23.68 47.535 6.47 96.32 21.64 131.36 56.32 34.027 29.563 69.998 58.327 112.32 74.72 8.222 5.37 20.372 7.553 25.92 14.72-8.918 1.35-16.693-2.97-19.2 4.96-23.677 13.764-51.235 16.92-75.68 28.96-37.644 19.84-75.417 39.908-116.48 51.36-25.658 7.002-52.248 13.987-78.72 15.04zm0-31.68c42.632-.612 83.88-13.835 123.52-28.32 32.4-13.576 63.726-29.865 97.6-39.68 9.688-3.63 20.37-4.302 29.92-7.68-12.27-2.84-12.898 1.428-12.48-5.92-3.593-1-12.15 10.928-8.96-.44 2.758-6.24-1.652-2.87-3.84 1.56-5.47 4.977-8.003 2.82-5.12-4.248 10.01-3.918-3.513-9.227-1.44-2.792-5.336 10.888-9.398-4.935-3.68-6.56-6.385 2.61-3.87-11.087-10.233-2.4-6.716 9.075-2.692-15.052-10.567-5.12-9.08 11.9-.755-20.627-11.53-5.76-8.664 6.425-.147-21.43-9.1-8.16-8.197 7.986-3.672-10.023-6.4-8.64-2.847-4.82-5.217 11.52-8.8 5.28-5.008-5.55 7.036-14.425-1.687-11.273-2.24-5.975-3.87 11.66-8.073 3.273-2.18-7.123.776-10.554-4.16-15.68-3.535-4.456 3.965 10.843-4.89 9.53-1.686-6.915-2.86-17-6.63-20.89 5.216 7.007-3.644 18.933-4.32 6.08.9-6.495-.34-6.153-4-10.81-.117-.708.03 13.935-4.48 6.33-1.828-5.195-9.244-16.527-5.28-5.12 9.784 41.304-3.517 87.903-37.59 114.72-18.777 17.036-44.356 24.84-68.49 30.72-30.78 3.82-63.742-3.496-87.68-24.64-23.387-15.178-41.332-38.4-46.4-65.92-6.038-20.27-4.157-42.692 4.48-61.28-5.3 1.894-7.233 22.44-13.76 11.267-3.77-6.422-1.8 19.737-8.96 5.693-2.173-11.863-2.338 18.035-8.96 3.584-6.744-10.81-1.798 3.12-6.717 7.296-8.44-5.817 4.383 7.313.956 11.2 2 14.275-14.49-6.035-6.72-12-1.324-12.075-.182 16.314-6.88 6.4-7.536-6.753-1.935 16.834-11.76 3.096 2.24 5.072 10.102 14.44 4.24 15.944-7.194-2.092-6.694-13.105-6.88-12.64-2.57 7.62-4.563 2.42-1.76 11.52-.905 7.545-11.5-11.407-11.84-5.28 5.856 4.465 1.418 13.66-3.84 5.12.045.286 12.408 20.868 2.15 14.88-6.685-.372-3-14.392-7.396-7.04-9.953-8.345 8.647 14.42-3.076 8.32-6.196-7.764-13.414 3.346-10.08.64-3.48-1.424 7.373 14.81-1.408 9.28-5.304-1.168-8.73-10.415-9.632-9.28-6.31-2.056 2.73 10.878-2.72 3.68-3.876-6.946-8.445-5.82-2.08.8 8.83 11.844-5.503 22.27-17.12 15.68-4.616-1.6-17.724-4.542-7.68.16 30.34 5.352 61.714 11.312 88.48 27.68 39.626 22.614 83.146 37.723 128.48 43.84 14.967 3.095 30.054 4.158 45.28 4zm188.52-63.44c1.762-5.65 10.106-2.8 1.56-.72-.518.246-.9.854-1.56.72zm-18.6-2.896c1.445-7.854 16.332-7.837 5.766-.064-1.447-.923-5.232 1.28-5.766.064zm29.92-1.184c-1.657-6.024 13.124-10.547 5.12-2.087-1.088 1.51-3.323 2.406-5.12 2.087zm-369.92-1.44c-8.3-5.886-.504-9.17.8-.8.432.687.556 3.26-.8.8zm356.04-1.84c-1.29-7.54 6.7-8.53 11.73-10.732-.144 7.21-6.478 8.122-11.73 10.732zm25.08-.72c-.272-6.58 9.228-15.534 5.44-4.835-.818 1.944-3.43 6.4-5.44 4.835zm-370.36-1.688c-9.882-3.68-11.104-18.674-2.12-7.272.26 1.767 5.815 8.256 2.12 7.272zm378.04.16c6-8.81 10.47-2.76 1.92.087l-.96.16zm-421.72-1.592c-3.19-3.55 1.26-4.216 0 0zm403.52-.165c-3.842-8.626 14.813-18.663 8.28-4.793-1.89 2.436-5.45 4.03-8.28 4.793zm-63.36-1.115c-1.41-4.45 1.263-15.608 6.2-10.705-1.97 3.406-3.12 8.857-6.2 10.705zm38.36-.24c.15-8.31 15.857-11.758 7.04-2.56-2.2.904-4.828 3.566-7.04 2.56zm-19.36-1.92c-1.212-8.07 12.75-10.8 3.84-2.1-1.02.25-4.334 6.797-3.84 2.1zm-380.44.396c-1.54-3.41 4.63 1.65 0 0zm15.64.244c-6.772-1.47-7.47-14.726-1.12-4.64 1.276-.602 3.65 6.066 1.12 4.64zm24.48-.8c-9.37-4.58 2.17-9.02.64-1.6.342.64 1.18 2.21-.64 1.6zm10.72-2.24c-6.175-1.694-13.32-16.214-2.88-9.44 1.736 1.767 5.085 9.147 2.88 9.44zm-49.6-.16c-7.403 1.74-9.463-14.756-2.48-4.96.152.713 6.093 5.616 2.48 4.96zm391.04-.64c.037-5.128 4.82-16.467 8.48-10.88-.286 4.6-4.753 11.482-8.48 10.88zm-357.44-1.28c.41-.574.41.574 0 0zm316.16-.96c1.23-3.153 1.79-16.535 5.28-10.08-2.218 3.052-2.42 8.194-5.28 10.08zm24-.147c-3.395-12.23 7.706-12.946 1.92-2.573 0 .617-1.668 3.427-1.92 2.573zm38.76-.253c-.834-5.928 4.526-14.798 8.6-17.04 3.356 8.714-.58 13.868-8.6 17.04zm-396.2-1.987c-.806-4.175 2.958 1.952 0 0zm7.84-.973c-7.755-2.303-5.987-13.375.32-3.52 1.43.426 2.31 4.94-.32 3.52zm34.72.16c-6.78-.722-9.526-11.318-1.675-4.96 1.8.528 2.2 4.344 1.675 4.96zm-45.28-.8c-8.388-1.627-10.01-16.714-2.08-5.757.676 1.288 5.954 6.337 2.08 5.757zm411.08-.24c2.555-5.656 9.455-14.13 9.08-2.48-1.4-1.467-5.482 2.98-9.08 2.48zm-354.4-.64c-.746-2.638 1.778.488 0 0zm-34.44-.24c-8.87-1.828-5.293-17.957.16-6.24-.036 1.65 2.37 6.253-.16 6.24zm345.92-.96c-3.52-8.78 13.085-18.77 7.68-4.397-1.224.703-7.364 7.576-7.68 4.397zm20.64.16c-4.912-7.534 11.838-13.917 3.36-13.44 6.733-16.438 8.42 13.174-3.36 13.44zm-40.48-1.6c-3.218-7.107 12.794-19.064 8.96-6.56-.615 3.042-5.85 6.77-8.96 6.56zm-291.84-2.08c-5.347-.35-14.445-14.15-5.513-10.4 2.902 2.263 5.398 7.497 5.513 10.4zm23.36-.48c.386-1.112.386 1.112 0 0zm-49.72-.88c-.25-1.076 1.118.37 0 0zm2.68.08c-8.138-2.368-9.87-11.888-.925-4 1.6.358 2.734 3.77.925 4zm9.92-1.28c-8.373-2.51-3.636-7.28 1.28-1.12.522.638-.04 2.108-1.28 1.12zm28.36-1.36c-3.632-6.082 5.028-.248 0 0zm309.24-1.04c-3.324-7.532 7.7-23.73 6.88-7.52.328 4.135-3.637 6.22-6.88 7.52zm-40.64-2.24c-1.485-12.005 11.202-6.686 2.484.884-.536.578-3.97 1.766-2.484-.884zm21.32 1.36c-5.05-7.27 10.08-17.176 5.24-4.24.194 2.098-3.278 4.67-5.24 4.24zm-281.64-.72c-8.18-3.257-2.916-11.236.32-2.24.252.465 1.085 3.44-.32 2.24zm-18.68-2.01c-8.322-12.402 6.98.478 0 0zm-28.68-.23c-6.556-1.244-10.91-14.748-2.24-5.76 1.52.17 5.224 5.998 2.24 5.76zm-11.84-.32c-7.204-1.693-5.49-14.84-1.11-4.48 1.607.67 5.076 4.767 1.11 4.48zm51.68-.16c.41-.574.41.574 0 0zm-29.92-.48c-7.13-.9-9.97-17.657-1.8-8.96 2.537 1.012 4.47 8.485 1.8 8.96zm28-.16c-8.252-3.28-7.316-21.638.16-7.52-.712 1.975 2.62 7.14-.16 7.52zm280.52-2c-5.005-11.815 13.458-14.716 6.36-2.64-1.845 1.26-3.974 2.998-6.36 2.64zm19.96-.4c-4.966-9.428 9.232-17.545 6.4-3.91-1.728 1.78-4.18 3-6.4 3.91zm-38.08-1.76c-1.702-4.55 5.547-18.504 6.4-8.627-.59 3.53-2.584 10.68-6.4 8.627zm27.84-1.28c-.866-2.546 1.647 1.54 0 0zm-309.12 0c-7.9-1.665-5.988-16.94-.076-5.6 2.196.257 2.766 6.5.076 5.6zm26.56-.727c-7.71-3.68-2.39-16.607-.48-4.873.01 1.353 2.23 4.604.48 4.873zm282.88-1.353c-5.493-8.225 8.28-20.79 5.76-5.356 1.136 2.434-4.55 6.015-5.76 5.356zm-300.8-1.12c-5.55-2.3-6.333-12.305-5.196-15.84 4.724 3.912 7.457 10.496 5.196 15.84zm281.32-.244c-4.773-10.163 10.245-21 6.2-5.036-.308 3.185-3.55 4.833-6.2 5.036zm-300.2-3.596c-9.662-.86-7.1-23.593 0-9.28 2.17 1.465 2.178 9.333 0 9.28zm27.36-2.08c-7.296-2.514-6.364-21.347-.557-9.6 2.893.644 5.246 11.485.557 9.6zm282.4-.8c-5.13-6.353 5.747-22.19 5.92-8.48 2.265 4.224-2.298 9.1-5.92 8.48zm24-1.92c1.226-1.722 1.226 1.722 0 0zm-42.36-.72c-.606-4.76 3.83-18 7-8.4 1.712 4.772-3.61 7.213-7 8.4zm-256.68-2.64c-2.578-3.403-2.296-9.646-1.76-9.723 2.306 2.51 3.693 7.52 1.76 9.723zm-16.92-2.48c-8.998-2.4-5.25-25.536.44-12.116 3.6 2.76 1.83 10.32-.44 12.116zm283-1.2c-5.192-8.18 6.715-20.075 4.96-5.44 1.647 2.486-3.612 7.186-4.96 5.44zm-272.48-3.36c-10.125-3.725-3-20.493.8-6.72.093 1.5 1.876 7.283-.8 6.72zm263.2-4.16c-2.74-5.69 3.253-21.57 4.48-9.44.098 3.964.77 9.533-4.48 9.44zm-257.56-1.21c-5.882-4.223.46-20.404 3.8-7.75-.94 1.966.447 10.938-3.8 7.75zm129.24 120.09c17.287 1.15 34.747-3.383 49.6-12.48 19.065-3.578 29.964-20.46 45.12-30.72 9.215-14.72 20.107-28.6 22.4-46.4 3.565-21.158 3.277-45.898-8.076-64.64 7.004 20.515 13.95 45.343 5.196 66.016-7.522 14.035-10.972 30.15-23.68 41.184-16.763 23.95-45.71 35.3-72.96 43.04-41 7.96-82.644-11.662-109.44-42.565-18.224-21.22-27.482-51.422-23.52-78.875.8-7.452-4.635 11.776-2.84 15.267 1.76 33.74 19.587 66.077 48.12 85.213 20.127 16.46 44.82 23.708 70.08 24.96zm9.28-6.08c18.65-3.135 37.244-10.074 53.117-20.32 23.623-14.354 40.742-36.918 49.123-63.04 7.626-23.447 1.756-51.492-14.637-69.92 11.53 18.633 18.323 43.06 11.757 64.8-8.85 42.95-48.572 75.587-90.72 84.32-33.64 6.69-68.376-6.04-92.32-30.24-21.62-15.667-31.797-41.15-34.72-66.56.267-14.63 4.825-29.883 9.833-42.72-17.167 22.868-17.62 54.75-3.113 79.36 21.497 40.004 65.554 68.11 111.68 64.32zm6.72-7.04c26.866-4.843 52.33-19.308 69.12-41.124 15.583-21.49 26.48-48.363 19.84-75.196-.904-8.368-6.272-23.354-11.04-25.76 19.095 33.784 11.834 81.088-17.76 106.687-13.38 14.338-30.665 22.646-48.96 28.513-30.727 8.45-66.173 3.363-89.607-19.52-28.405-20.627-48.85-56.938-38.073-92.48-6.446 9.066-4.667 28.98-2.24 41.6 12.098 31.68 38.26 59.162 69.6 70.72 16.024 4.45 32.498 7.08 49.12 6.56zm-18.56-6.72c40.234 1.678 82.014-22.552 95.04-61.92 11.264-26.754 9.446-67.39-14.08-82.88 25.735 25.363 21.606 67.2 3.36 95.68-9.858 19.782-29.18 32.8-49.6 39.36-31.7 14.522-69.38 1.88-93.92-20.488-32.604-25.634-42.248-75.345-19.2-110.14-15.99 15.878-18.336 42.892-15.36 64.132 2.483 10.89 10.578 25.264 19.04 35.776 18.682 23.173 45.22 38.262 74.72 40.48zm12.16-8c14.894.232 28.117-8.476 41.68-13.6 12.52-10.3 27.783-19.886 30.8-37.12 5.78-12.08 8.913-27.9 9.673-38.88-4.14 12.874-4.686 28.368-13.033 40.355-9.02 18.827-27.01 30.45-44.32 41.085-32.315 9.48-70.826 6.817-95.835-18.24-23.422-20.22-32.024-53.16-23.205-82.08 1.877-10.747-2.808 6.937-4.16 10.88-8.486 43.436 28.426 88.645 71.84 94.72 8.674 1.584 17.852 2.06 26.56 2.88zm-1.6-6.4c22.848-2.738 46.697-11.75 60.16-31.68 15.07-20.162 21.817-47.794 14.56-72-5.043-12.37-12.67-27.48-25.12-32.195 20.338 16.66 29.78 45.646 22.08 71.555-6.112 35.724-41.304 62.986-77.44 60-34.102 4.502-65.966-20.66-77.12-52.125-9.95-24.14-2.557-52.72 10.317-73.795-14.057 17.06-23.09 40.496-19.597 62.4 4.44 19.34 13.89 37.32 30.358 49.44 17.446 13.643 39.757 19.735 61.802 18.4zm-5.12-8c17.424.797 34.457-4.456 48.035-15.52 17.904-10.598 20.248-33.428 25.725-51.52 1.495-20.337-4.164-40.64-19.52-54.88 9.655 13.902 19.155 30.722 17.44 48.387.24 24.502-15.302 45.437-33.28 60.733-26.388 12.797-60.887 15.505-85.04-3.12-3.646-11.878 11.215 2.81 16.88 3.92 20.868 7.684 44.625 9.035 64.285-3.52 18.306-12.067 34.16-31.447 32.835-54.72.356-20.6-7.958-42.93-27.444-53.837-3.143-4.402-17.53-8.613-7.117-2.323 28.18 14.904 35.435 50.77 23.68 78.56-7.325 23.546-32.26 39.547-56.16 36.32-16.553.54-38.75-4.345-47.68-20.48-12.7-10.825-15.867-31.81-15.52-48.64 1.427-20.965 11.818-42.505 31.52-51.753-31.838 9.353-39.64 50.755-33.28 78.953 2.254 12.34 10.504 21.555 16.96 31.765-7.537 3.68-16.15-13.432-18.88-21.205-14.727-26.39-7.695-61.02 12.16-82.955-12.47 9.946-17.692 27.575-21.44 42.795-2.385 17.644 2.758 36.21 11.52 50.21 10.686 17.173 27.98 28.655 48 31.23 4.994 1.677 11.118.548 16.32 1.6zm-4.16-16.96c-.41-.574-.41.574 0 0zm.64 0c2.7-.577-1.495-.977 0 0zm.32-2.976c2.52-3.608-2.58-.27 0 0zm2.88-.8c2.692-4.46-2.812.7 0 0zm-246.88-.384c6.754 2.344 1.128-9.947-.96-1.44-4.894 1.09-9.132-6.008-8.96.32 3.298.298 6.67 1.103 9.92 1.12zm6.08 0c8.714 1.76 3.334-15.594 4.16-3.52 1.53 3.132-8.16 3.404-4.16 3.52zm244.64 0c10.628-4.098-2.657-2.128 0 0zM960 234.944c-3.5-5.66-3.786-.206 0 0zm259.77-.3c1.182-3.556-5.087.6 0 0zm-4.57-.25c-.96-2.22-2.165-.32 0 0zm38.08-1.76c-1.25-1.17-1.25 1.17 0 0zm-292.64-.48c1.352-5.42 6.737-10.748 7.2-1.44 7.576 3.637-3.96-13.72 4.918-7.68 3.6 2.518 7.095 15.75 7.082 4.32-1.524-10.754-22.996-11.7-24-6.08 8.557.15-12.664 5.524-2.473 9.44 1.78-4.973 9.984-11.473 5.833-2.24-.768 1.47-.43 3.813 1.44 3.68zm265.44-.09c4.786-3.043-4.336.434 0 0zm8.64-1.655c-.037-2.527-2.995 1.093 0 0zm-56-.333c-.818-1.148-.818 1.148 0 0zm63.04-1.76c.212-2.15.3-.634 0 0zm4.565-1.035c1.2-3.77-4.344 1.286 0 0zm-25.685-.565c-.84-.6-.84.6 0 0zm15.68-2.08c-.22-2.122-1.012 2.288 0 0zm-16.55-1.51c1.654-3.07-2.29-.043 0 0zm18.47-1.53c-1.97-4.856-4.33 3.273 0 0zm-16-.96c-.41-.574-.41.574 0 0zm8 0c5.082-4.59-6.28.256 0 0zm-12.71-.39c.516-2.25-2.274.36 0 0zm7.59-1.05c-.85-2.996-1.025 3.003 0 0zm-10.88 0c-1.22-1.488.115 2.014 0 0zm32 .16c-.608-3.25-1.5.778 0 0zm-7.433-.873c1.048-2.457-1.628.866 0 0zm-23.287-1.047c-.542-3.326-2.598.77 0 0zm-10.56-.48c.856-1.834-1.018.792 0 0zm26.97.09c2.212-4.703-4.067.038 0 0zm-34.01-.57c-1.58-5.394-1.13.692 0 0zm30.08.32c3.065-1.888-1.966-.712 0 0zm18.56 0c-.84-.6-.84.6 0 0zm-26.79-1.03c1.163-3.446-6.18-3.78 0 0zm24.64-.96c.314-1.078-1.077.314 0 0zm-1.37-2.01c1.418-7.16-4.942.706 0 0zm-47.04.39c-.52-2.153-2.24 1.134 0 0zm49.6.09c2.7-.577-1.496-.977 0 0zm-20.8-.8c-.387-1.208-1.51 1.056 0 0zm11.52.23c-.712-1.648-.915.602 0 0zm-54.95-1.417c.458-4.305-2.352.723 0 0zm23.27.07c-.41-.574-.41.574 0 0zm45.76-.16c-.818-1.148-.818 1.148 0 0zm-56.87-.23c6.082-5.034-2.086-3.6 0 0zm5.35-.41c-1.1-1.787-1.4 1.14 0 0zm29.76.16c2.425-.935-3.36-.495 0 0zm17.44-.8c7.005-1.398-.868-2.167 0 0zm-38.56-.244c-1.6-5.37-2.7 1.918 0 0zm19.52-.487c-.758-1.883-3.066 1.975 0 0zm-45.193-.3c1.104-4.597-2.963-.617 0 0zm60.964-.796c.8-1.995-1.995.8 0 0zm-12.25-1.21c3.76-3.477-4.076-3.825 0 0zm-34.56-.64c-.41-.574-.41.574 0 0zm10.88-.48c-.773-2.224-.773 2.224 0 0zm32.96.16c-.84-.6-.84.6 0 0zm-18.79-.39c11.256-2.84.065-2.416-2.17-1.69 1.767-1.332 1.696 2.204 2.17 1.69zm17.83.07c-1.332-2.656-3.937.836 0 0zm4.16-.64c4.184-4.377-6.062-2.356 0 0zm-58.56-.64c3.106-6.497-4.042 1.95 0 0zm12.25-1.35c1.855-2.394-2.964-2.306 0 0zm33.51.07c2.626-1.26-2.03-1.087 0 0zm-42.457-1.04c.424-1.682-2.73 1.348 0 0zm24.217.08c-.41-.574-.41.574 0 0zm22.4-1.37c-.645-2.913-2.072 2.522 0 0zm-23.36-.07c-.386-1.112-.386 1.112 0 0zm1.92-.96c1.956-5.35-1.873-1.315 0 0zm8-.64c-1.218-5.88-1.96 3.716 0 0zm10.33.73c.64-4.032-2.768-.134 0 0zm-31.187-.5c1.358-1.62-1.854 1.343 0 0zm4.216-.07c-.41-.574-.41.574 0 0zm4.89-.07c-.425-1.668-2.092.158 0 0zm1.83.07c-.41-.574-.41.574 0 0zm-22.31-.39c0-2.58-3.56-.052 0 0zm5.67-.09c-1.426-1.066-.406 1.225 0 0zm44.57.09c4.02-2.016-.895-8.877-.732-3.61.585.9-1.117 2.36.732 3.61zm-33.9-.34c.774-1.062-1.294.783 0 0zm-3.95-1.032c-.636-1.593-.727 1.59 0 0zm21.845-.555c4.56-5.314-4.57 2.14 0 0zm24.966.326c2.126-5.227-2.874.254 0 0zm-42.97-1.21c-2.904-8.266-4.05 2.687 0 0zm-11.2.32c-.84-.6-.84.6 0 0zm6.08-.41c-.493-1.71-1.192.995 0 0zm9.6-1.19c2.42-5.208-3.22 1.06 0 0zm22.4.07c-.68-2.865-1.523 1.434 0 0zm3.61-.777c-.187-1.31-1.873.924 0 0zm-6.49-.41c-.818-1.148-.818 1.148 0 0zm13.12-.16c1.456-2.326-2.246-.662 0 0zm10.88 0c3.867-3.058-2.337-.55 0 0zm-52.48-.32c-.41-.574-.41.574 0 0zm25.92-.57c-.42-3.2-1.585 2.676 0 0zm-9.92.25c-.41-.574-.41.574 0 0zm.64 0c-.41-.574-.41.574 0 0zm15.04 0c4.022 1.123-1.595-7.858-.32-.32l.16.48zm-11.52-.8c.94-2.318-3.377-.7 0 0zm-12.16-.8c4.83-2.36-5.128-1.663 0 0zm5.12-.96c-.193-5.84-4.754-.48 0 0zm25.28-.09c-.964-2.188-1.406 1.17 0 0zm8.64-.71c-2.154-1.892-3.448.093 0 0zm-48.55-.23c1.12-2.11-2.11 1.12 0 0zm-6.08-.64c2.568-2.737-6.88.644 0 0zm43.43.07c-3.822-3.66-4.172.483 0 0zm-12.863-1.522c.147-2.482-2.406 1.11 0 0zm-7.297-.878c-.515-3.37-1.12 3.2 0 0zm9.69.41c1.104-1.81-2.106.6 0 0zm-19.29-.823c-1.648-1.47-1.62.633 0 0zm22.08-.23c-2.105-1.184-2.105 1.184 0 0zm3.767-.713c1.6-9.092-3.94 1.4 0 0zm5.284.164c.28-4.838-2.917 1.186 0 0zm8.96-.32c1.132-2.652-2.1.49 0 0zm-46.81-.41c-.78-.747-.303 1.123 0 0zm-9.28-.16c26.642-1.365 27.638-44.898 1.6-48.48-19.714-2.27-36.692 19.465-25.28 37.565 4.936 8.64 14.328 11.5 23.68 10.915zm30.4-1.44c-.41-.574-.41.574 0 0zm4.25-.71c.088-4.038-2.87.382 0 0zm-16.64-.64c-.176-3.663-2.115-.357 0 0zm11.11-.25c7.678-1.903-1.196-4.964 0 0zm88.73-.39c.8-14.498-6.912-35.773-15.61-42.33 9.08 12.68 12.584 28.552 15.61 42.33zm-63.68-.32c3.026-3.276-1.505-3.294 0 0zm-13.53-.57c2.18-2.204-2.87-.074 0 0zm-18.15-1.03c.06-1.177-1.75.605 0 0zm-2.33-1.623c-3.13-5.78-2.176 3.7 0 0zm26.487.18c1.283-5.006-2.426-.395 0 0zm-16.567-.727c4.92-.525-3.973-4.7 0 0zm10.24-4.64c-1.623-1.84-1.52 1.214 0 0zm-11.68-1.28c3.84-3.85-4.92 1.03 0 0zm-.48-.48c.41-.574.41.574 0 0zm-115.11-1.03c1.493-3.624-2.884 1.05 0 0zm.96-3.84c1.072-1.892-1.34.416 0 0zm13.44-1.6c3.874-7.864-.147-6.73 0 0zm-11.2-3.2c4.08-7.3-1.185-1.377 0 0zm27.52-3.52c1.395-6.34 4.464-11.998 7.983-17.37-4.2 4.504-8.324 12.2-7.983 17.37zm-12.57-1.37c2.628-5.098-2.864.342 0 0zm-11.596-1.356c2.01-4.568-2.438 2.528 0 0zm12.967-2.393c3.698-4.328-2.336.272 0 0zm1.83-3.13c4.653-3.62-2.336-.113 0 0zM335.2 340.632c-52.103-3.58-104.744-14.96-150.72-40.48-26.08-13.53-53.83-23.962-80.48-35.84-16.14-7.816-31.87-20.072-50.33-20.48-2.46-5.1 11.782-7.738 16.73-12 16.425-8.068 31.157-19.6 48.48-26.08 28.647-13.254 50.615-36.687 76.64-53.76 27.082-18.296 52.562-38.16 82.72-50.4 31.61-13.1 66.994-15.613 100.48-11.04 39.41 3.764 78.444 16.28 112.48 36.64 25.962 15.387 49.46 34.92 73.76 52.8 16.013 9.958 32.315 20.72 51.827 21.6 13.405 2.957 32.237 8.124 34.893 23.68 1.474 7.8-10.877 12.73-20.16 11.84-29.276 1.046-61.433 16.647-92.16 28.8-49.01 22.5-99.455 46.856-154.813 50.04-55.292 6.2-111.994-1.3-162.627-24.28-29.254-12.182-57.046-28.062-87.2-38.24-16.656-6.138-34.997-11.646-52.727-11.767 13.678 10.278 31.755 15.96 47.767 22.967 43.38 17.935 84.22 41.08 130.56 52.8 37.492 10.322 76.657 19.42 116 12.16 55.737-5.466 107.36-27.915 157.28-51.68 27.38-11.638 55-24.197 83.52-31.2 5.995-.71 15.837 2.393 7.84 4.48-5.937 2.12-18.993.398-28.08 7.04-20.58 9.847-42.72 18.034-62.96 29.6-33.286 15.308-66.474 30.77-101.76 41.76-31.975 6.26-63.902 11.108-96.96 11.04zm5.12-32c56.358 1.608 114.506-8.377 164.48-35.84 33.694-16.764 69.295-32.277 106.88-36 8.036-1.653-11.737-.102-15.8-1.6-9.33-6.388-7.004-18.75-.2-25.21-6.724-.938-9.044 14.615-15.56 10.878-1.12-5.424-.75-18.908-4.92-8.142-6.848 6.288-6.86-19.332-11.2-6.964-8.535 11.653-5.642-10.19-9.76-10.88-.9 8.523-8.416 6.548-7.84-1.12 1.1-5.27-9.422-14.105-2.88-4.32-.17 9.588-8.576 5.447-8.32-2.08 1.877-4.995 3.345-5.54-2.4-4.16-1.242 9.888-6.95-5.712-6.65-6.4-2.282-5.022-1.493 11.818-6.95 3.36-4.15-5.513 7.805-13.656-2.56-7.84-1.198-6.198-5.84-9.226-1.28-1.44 2.938 7.19-5.335 7.83-6.72.32-3.038-3.524-3.68-14.72-6.88-10.72 3.176 6.358-6.154 8.022-6.08.32-1.11-5.13-8.764-15.3-4.035-4.48 3.966 3.756-.64 4.855 3.555 7.555-6.288-3.094 5.29 9.37-4.48 11.165-4.366-4.47-1.385-11.773-5.12-18.24-.32-6.63-4.665-8.386-8.96-15.04-6.5 1.943 5.113 12.937 4.64 20-4.42 6.6 14.202 17.662-2.88 10.56 1.562 7.345 3.362-4.5 4.8 4.8-.805 16.968-1.723 34.703-11.04 50.08-13.052 34.39-44.2 58.044-78.4 67.68-41.38 11.91-88.463 3.663-121.28-24.64-20.187-17.996-33.954-44.037-37.6-70.88-3.817-18.825 2.213-40.428 2.08-56.675-5.478 4.053-2.586 25.85-10.76 14.54-7.633-7.2-4.07-4.93-4.28 2.362 8.58-1.335 2.27 19.208-1.44 6.013 2.873-5.42-6.682 1.693-7.593-6.007-7.356 1.928 10.563 8.7 3.433 14.007 1.8 5.92-1.456 17.415-5.92 5.526 2.477-10.242-.85-8.76-2.56-1.526-4.2-5.024-8.196-9.325-6.88.48-2.166 5.98-1.855 14.893-8 4.16-7.302-4.168 1.03 22.9-7.68 12.97-8.71-13.025-3.787 3.617-8.32 6.7-4.06-3.934-11.013-8.9-4.48-1.56 5.604 4.7 3.238 21.342-3.04 9.56-.86-16.16.444-3.155-5.44-2.88-5.572-4.15 1.532 14.096 3.04 9.76-2.283 8.477-9.43-4.738-10.56-6.72-2.023 3.176 3.406 26.727-4.64 13.92-1.808-6.498-4.62-9.88-4.8-1.6 3.814 11.073-4.63 3.83-6.08 1.6 2.29 3.374 8.41 14.877-.085 9.92-1.935-3.543-9.036-12.713-5.195-4.16 5.1 7.717-4.755 1.298-5.053-2.56-5.73-2.664 5.54 9.254-4.263 6.4-4.894.346-8.098-14.292-5.725-1.92 1.125 8.846-7.804-6.073-6.08 3.04-13.44-.053 3.643 4.148 8 3.84 26.202 5.82 50.938 15.395 72.96 31.04 43.6 23.15 94.735 37.225 144.8 39.04zm203.2-68.48c4.072-4.392 4.584-22.016 9.92-14.816-2.094 4.08-4.962 12.714-6.88 11.456-.633 2.617.187 5.007-3.04 3.36zm3.2-1.53c.817-2.286 1.117 1.324 0 0zm-360.92-2.075c-7.366-10.297 4.765-4.552 1.53.555l-1.53-.555zm392.28-.874c-6.243-3.9 11.2-17.93 6.08-4.715-2.13 2.925-4.984 1.574-6.08 4.715zm-412-2.24c-10.386-3.082-1.504-13.43 1.76-1.76 1.155 1.822.303 2.406-1.76 1.76zm9.6-2.56c-6.995-1.104-6.728-22.285-.32-9.878-1.306 2.44 4.978 9.208.32 9.878zm342.56-.16c1.246-3.577 2.452.933 0 0zm-1.28-.125c1.647-2.684 2.247.133 0 0zm24.64-.835c-7.647-1.986 5.617-22.455 4.64-9.6-.91 3.388-1.86 8.088-4.64 9.6zm3.52-7.68c-.277-1.115-.848.754 0 0zm25.28 7.68c3.135-4.86 1.648-20.377 8.8-13.44 2.227 5.764-4.463 15.087-8.8 13.44zm-45.12-2.88c-4.985-4.48 6.88-20.744 4.48-5.6.473 2.615-2.052 6.018-4.48 5.6zm32.84-1.84c-3.062-4.07 2.33-21.4 9.72-18.036 5.352 6.967-4.003 18.254-7.68 16.28l-1.797 2-.243-.233zm-370.44-.4c-6.93-4.083-4.01-15.816 1.92-5.12.75 2.475 2.005 6.824-1.92 5.12zm365.44-1.37c.71-1.648.917.602 0 0zm-19.418-1.23c-3.72-2.17-.83-22.267 4.218-14.038-.14 4.98 1.8 12.106-4.218 14.038zm-328.422-2.038c-3.633-.9 3.326-1.386 0 0zm344.897-.686c-1.3-4.466-3.98-17.612 4.63-18.354 5.795 5.13-.142 16.037-4.63 18.354zm-30.137-2.273c-3.56-4.37.783-16.66 2.04-5.52.553 1.726.304 5.538-2.04 5.52zm-325.6-2.25c-3.65-9.833 8.98 3.612 0 0zm19.8.73c-7.173-5.166 1.09-12.127 2.24-2.573.727 2.19-.43 2.962-2.24 2.573zm291.52 0c1.566-2.026-.976-17.595 4.96-11.04.407 3.2-1.463 10.228-4.96 11.04zm-299.2-3.2c-9.974-1.648-4.735-22.104.64-8.48-2.367 2.8 3.962 8.908-.64 8.48zm335.84-.8c-6.63-3.946-.895-23.23 4.16-11.84-.155 4.27-.432 9.324-4.16 11.84zm-354.56-.89c-6.46-1.73-12.164-17.085-4.233-15.996 4.025 5.196 6.168 11.864 5.26 16.047l-1.027-.05zm338.72-1.19c-6.763-2.922.917-21.655 4-9.76-.027 3.9-.17 7.738-4 9.76zm-31.52-.8c-7.078-4.11 5.17-24.357 5.92-11.04-.69 4.196-.418 10.033-5.92 11.04zm-272.28-.89c-5.68-5.432-2.098-19.555 2.68-8.07-1.052 2.727 2.305 10.93-2.68 8.07zm-5-.163c.563-2.758 2.68 1.96 0 0zm-21.12-1.19c-7.41-2.315-6.13-18.008-2.78-19.2 4.293 2.398 6.816 16.92 2.78 19.2zm18.4-1.92c-10.113-2.214-4.976-26.19 1.32-13.187-2.32 3.15 2.703 11.334-1.32 13.187zm318.24-3.52c-6.557-3.81 2.086-18.317 3.2-5.747.952 2.052-1.982 4.607-3.2 5.747zm-14.84-1.84c-.845 1.422-7-6.12-.36-4.88-2.076-5.966 6.488 4 .36 4.88zm-11.52-.96c-5.054-4.533.653-22.3 3.48-9.04 1.292 2.858-1.432 8.16-3.48 9.04zm-301.64-1.04c-5.8-2.89-5.952-20.792.245-17.12 1.877 3.29 3.78 14.858-.245 17.12zm22.72-.64c-.626-.624-5.765-20.173.96-15.68-1.427 3.5 4.437 16.058-.96 15.68zm295.36-4.64c-4.84-7.274 6.335-12.676 5.12-2.797-.66 1.616-3.435 4.552-5.12 2.797zm-299.32-1.36c-3.533.565-8.736-9.7-5-16.88 9.463-.268 3.325 11.965 5 16.88zm289.72-1.68c-4.08-6.15 2.922-16.054 4.8-5.84.034 3.453-2.272 8.953-4.8 5.84zm-19.32-1.2c-3.065-8.12 4.103-15.64 4.6-3.28-.384 1.92-2.52 4.04-4.6 3.28zm-3.08-1.52c-6.57-2.923 7.493-8.83 0 0zm10.88-5.92c-7.57-5.164 2.718-20.95 4.16-8.445 2.752 3.506-.904 7.574-4.16 8.445zm-273.72-4.24c-6.697-3.123 1.136-16.302.92-6.48 1.776 8.225-.394 4.086-.92 6.48zm133.56 119.28c19.92 1.31 37.856-9.022 56-15.2 17-6.29 27.78-22.86 40.32-34.915 4.714-9.62 10.308-20.204 11.755-30.365-5.08 6.69-9.308 18.056-16.875 27.68-5.044 8.173-13.42 20.108-24.48 24.8-13.153 9.848-26.415 20.185-43.68 20.32-33.46 6.588-71.6 5.808-99.84-15.36-29.148-21.012-45.796-57.5-44.64-92.48.87-8.108-1.12-17.965-1.44-3.2.126 18.895 1.972 38.028 11.36 55.2 6.594 17.102 19.242 32.533 35.235 43.52 21.988 15.77 50.2 17.74 76.285 20zm-4.8-7.36c21-.44 41.373-4.406 58.88-16.32 27.624-12.875 41.482-41.9 53.7-67.445.122-7.545 3.105-16.55 4.38-23.435-2.733-3.37 1.956-11.764-1.367-13.513-5.866-14.655-10.19-35.813-24.073-41.247 11.847 8.98 16.157 25.047 18.88 39.24 1.973 5.716 2.957 15.397.887 17.44 3.638 3.504-1.146 21.57-4.087 13.6 1.535-8.914-.04-14.744 3.52-23.447-3.65-5.14-2.915-13.72-5.44-18.69-3.753-6.747-6.454-18.503-14.08-23.94 7.012 13.086 16.626 28.02 15.36 44.32-.738 3.53 1.87 10.272-.96 15.36 1.183 4.12-1.764 5.987-1.02 9.835-3.7 10.18-9.3 19.45-14.66 28.21-11.348 14.6-20.853 31.2-38.88 36.836-15.158 4.35-26.83 15.246-44 13.6-17.12 2.91-46.643-5.867-56.64-9.6 23.72 13.543 53.75 13.15 79.52 8.8 15.467-1.944 28.007-14.365 40.087-20.16 3.69-5.254 14.536-9.92 6.633-2.24-19.934 16.912-45.677 29.313-72.96 27.52-41.302 5.1-86.9-17.292-102.4-57.6-10.378-24.35-13.718-53.263-3.04-77.436 2.318 2.08-.74 8.494 3.2.476 2.545-5.698 2.557-10.646-1.027-2.36-4.088-1.196 2.81-6.788 4.55-11.4-1.935 8.866 1.274 1.3 4.24-2.645-5.82-4.484-5.126-5.13-9.525 2.645-9.36 17.877-11.618 38.4-9.12 58.4-.345 13.132 6.52 26.572 10.56 38.72 5.852 11.81 15.492 25.203 27.84 34.208 10.504 9.27 25.01 14.205 38.4 18.272 10.67 2.46 21.748 3.667 32.64 4zm81.28-38.4c.26-5.676 9.17-11.365 11.52-18.56 5.522-10.73 8.326-19.525 13.833-31.127 4.795 2.847-3.178 12.116-3.593 18.967-5.972 10.34-11.724 24.384-21.76 30.72zm14.4-20.48c-.84-.6-.84.6 0 0zm-189.72-96.084c-.557-2.99 2.942.708 0 0zM373.6 274.712c22.53-5.965 46.06-14.674 60.16-33.045 12.59-15.234 22.552-35.09 24.32-55.362 2.148-4.14-.858-12.817 2.88-16.393-4.53 2.777-3.092-10.123-6.08-16-.9-6.413-7.49-16.06-11.52-24.8-3.592-3.744-10.427-10.486-12.16-7.53 11.345 10.128 19.528 25.04 21.525 38.163 5.582 21.54 2.712 44.612-9.205 63.925-7.828 7.214-10.983 14.146-16.32 21.12-10.77 10.795-25.656 15.03-38.205 21.76-27.586 7.646-59.52 3.993-85.117-9.6-25.854-21.592-44.183-54.022-40.36-88 .367-13.965 5.033-28.224 10.88-39.2 1.13-8.322-8.69 6.997-8.48 11.2-8.292 20.43-7.04 43.715-2.4 63.81 5.07 18.927 19.376 34.746 31.04 49.876 14.658 11.548 33.977 16.053 52 19.273 9.032.768 17.954.443 27.04.8zm-68.48-7.607c-20.125-13.185-36.75-33.23-45.53-55.364 5.632 22.218 22.64 39.033 40.73 53.85 1.48.6 3.173 1.59 4.8 1.513zm56-.073c22.646 2.692 43.05-10.34 61.436-20.64 9.032-15.4 23.077-26.847 25.924-44.445 1.4-9.453 3.88-18.3 3.2-26.595-1.642-11.352-3.97-19.804-8.96-29.856-4.12-7.33-8.607-20.672-17.03-21.504 12.687 11.21 15.63 28.07 22.47 43.395.693 6.793 1.436 16.86-.32 26.17-5.036 13.562-9.972 29.65-18.868 38.435-2.635 5.567-19.902 18.263-8.012 5.516 13.076-15.38 23.32-33.677 24-52.062-2.4-15.305-2.83-31.065-12.32-44.813-4.563-7.957-9.99-17.465-18.08-22.88-7.513 1.81 7.59 9.137 10.24 15.04 4.527 5.5 2.324 11.668-2.24 2.56-.23-3.178-12.085-13.118-6.476-5.6 9.135 7.43 11.903 20.608 15.596 28.8 1.638-6.228-5.498-13.28-2.46-17.28 5.074 8.33 13.146 22.32 10.14 31.36 2.228 2.102 2.035 13.547 1.76 17.853-2.677 15.627-11.99 30.204-22.08 41.667-4.146 7.084-13.054 7.057-19.84 14.08-21.132 14.82-53.808 14.033-77.856 2.08-27.23-13.73-44.107-45.11-41.664-74.4-1.374-18.433 10.843-35.232 21.92-49.92-9.204 3.134-14.92 15.892-19.52 23.52-8.532 14.213-7.205 31.08-4 47.04 3.643 31.123 30.233 59.735 63.2 63.84 25.382 5.5 53.427-1.385 74.56-14.4-7.26 11.294-23.767 11.996-35.36 17.12-38.203 12.9-82.127-8.173-100.88-42.983 6.678 17.74 24.574 32.778 43.76 41.543 12.028 4.152 24.9 7.356 37.76 7.36zm82.24-71.36c.41-.574.41.574 0 0zm144.32 65.28c-.41-.574-.41.574 0 0zm-220.8-6.72c20.182-1.4 36.207-13.55 51.52-25.76 4.49-.7 3.787-6.345 7.84-10.24 3.104-7.18 8.273-19.07 10.367-27.52-3.13.518-3.587 12.175-7.967 14.08-3.826 6.328-9.724 15.1-16.16 19.84-10.247 20.596-36.02 26.002-57.6 24.32-24.65 4.482-46.37-16.065-59.52-34.56-4.106-10.587-6.858-20.377-9.35-31.52 1.664 17.333 5.544 36.817 21.35 47.805 14.337 16.367 35.77 22.807 57.12 23.075.77.096 1.646.9 2.4.48zm245.28-2.807c-.96-1.586-1.58.525 0 0zm-253.6-5.513c31.294 2.39 59.86-21.814 68.64-49.44 1.51-7.36 3.704-18.507 1.12-27.86.532-11.556-9.226-25.304-15.04-36.94-9.944-4.807-20.908-14.55-31.68-13.28 17.19 6.115 31.057 18.414 37.1 33.76 10.11 16.973 8.344 38.813-1.27 54.487-13.463 29.08-49.804 43.316-80.48 31.113-27.298-9.343-43.28-39.634-40.48-67.2 5.024-20.408 16.037-41.227 35.52-50.88-12.96-.328-22.204 13.206-28.395 24.245-4.097 6.45-10.868 17.706-10.485 25.515-4.533 24.52 6.432 50.268 27.2 64.48 11.182 8.12 24.39 12.358 38.24 12zm69.76-58.33c.73-2.336.918 1.178 0 0zm178.08 43.77c3.785-.774 18.302.417 12.96-6.4 2.717 6.98-9.615 4.317-7.2-2.327-3.57-1.184 2.508 8.48-5.608 6.807-4.206-11.343-.1 2.195-7.192.8-.763 1.596 5.782.686 7.04 1.12zm-10.72-3.287c-1.336-1.583-1.083.08 0 0zm5.28-2.313c2.338-5.686 6.333-6.656 8.16-3.04 1.738-11.737 3.628.958 8.89 2.01-2.997-10.933 4.67-8.32 6.63-.89 4.573 4.744-.582-11.733-5.73-10.72-6.804-6.244-28.82 5.586-17.95 12.64zm19.29-1.35c.48-3.428-2.678.22 0 0zm-195.04-.32c.314-1.077-1.077.314 0 0zm-101.44-5.44c-.39-1.87-3.336.763 0 0zm-44.57-1.21c-4.722-6.487-4.914-15.95-7.927-22.167.726 7.853 1.852 17.388 7.927 22.167zm192-3.68c3.47-5.31-2.425-1.976 0 0zm-211.2-4c-1.116-5.75-3.17-9.73-1.76-1.44-2.158 1.533 2.873 4.157 1.76 1.44zm214.08-1.53c-.69-3.404-1.2 2.626 0 0zm.64-3.59c-.868-3.722-.6 3.51 0 0zm1.685-2.955c4.59-8.858-3.224-1.478-.725-2.965-2.106-1.455.928 2.8.725 2.965zm-218.645-1.525c-2.01-5.43-.918-19.525-3.68-19.2 1.41 6.144 1.546 16.16 3.68 19.2zm220.48-5.213c2.69-8.684-2.19-9.374 0 0zm-206.4-3.267c-.768-4.432-2.325-.26 0 0zm115.127-2.313c1.5-3.3-3.715-1.644 0 0zm-116.087-1.207c-.88-10.145-2.086.093 0 0zm165.76.48c1.414-3.98-3.387-2.983 0 0zm-72.383-1.522c.74-2.75-4.446 1.757 0 0zm-6.337-.078c-1.265-.594-1.265.594 0 0zm121.05-.07c.755-2.882-2.394.305 0 0zm-108.25-1.53c1.02-2.88-1.153 1.8 0 0zm29.12-1.6c-.41-.574-.41.574 0 0zm37.44-.72c-2.16-8.936-3.493 3.568 0 0zm42.05-.187c1.8-8.682-2.957-5.672 0 0zm61-.144c-.57-2.024-2.966 1.3 0 0zm-152-.71c-1.63-1.78-1.114 1.586 0 0zm-39.59-.39c-.44-3.185-2.078 1.076 0 0zm-3.29-1.143c-.853-2.898-1.71 1.283 0 0zm-59.2-1.67c-.49-15.65 4.75-29.662 14.72-42.4-6.04 1.565-8.615 12.904-13.6 18.88-2.837 7.843-3.202 17.973-1.12 23.52zm-16.32.48c-.647-20.125 5.55-41.534 19.84-57.12-10.14 7.526-16.377 20.5-18.88 33.685-3.742 4.236-2.48 16.872-.96 23.435zm55.04-.48c23.07 4.877 41.176-29.706 19.84-42.88-14.537-12.63-38.415-1.636-39.36 17.12-1.57 11.16 9.325 23.422 19.52 25.76zm-70.08-1.05c-.59-3.347-1.088 1.647 0 0zm157.687-1.1c-.396-3.157-5.937-.378 0 0zm-66.56-.32c1.4-2.482-3.123 1.765 0 0zm89.764.164c.977-4.786-.905-13.445-4.13-16.45 2.095 5.572 2.128 11.543 4.13 16.45zm93.44 0c1.933-2.057-2.38.238 0 0zm-164.89-2.49c7.82-3.834-2.632-4.01 0 0zm-109.44-.8c1.117-7.215-1.6 2.04 0 0zm159.68-.25c-1.158-2.97-.677 1.87 0 0zm5.12-1.83c-1.797-1.882-.88 1.548 0 0zm-62.72-.64c-1.63-1.78-1.114 1.586 0 0zm28.417.078c.27-2.352-3 1.426 0 0zm11.675-.146c4.373-9.78-3.324-3.13 0 0zm-34.65-.66c-2.467-3.096-2.247.178 0 0zm116.48-.713c-.05-4.267-3.343-12.6-2.323-14.4-8.196-8.897.755 5.323-.397 9.92 1.54.356 1.018 6.44 2.72 4.48zm-89.28 0c-.386-1.112-.386 1.112 0 0zm13.76.16c-.84-.6-.84.6 0 0zm-148.48-1.267c1.56-8.49-1.62-7.724-.12.78zm96 .627c-.84-.6-.84.6 0 0zm109.76-.48c-2.16-1.26-.505 1.275 0 0zm-78.72-.32c1.185-3.088-2.33 1.318 0 0zm79.783-.88c.625-1.082-1.266.005 0 0zm-46.823-1.127c-1.298-3.515-1.487.64 0 0zm7.04-.233c-.918-2.162-.797 2.198 0 0zm-43.84-.32c-.277-1.115-.848.754 0 0zm-136.076-1.996c2.35-7.988-3.833.504 0 0zm173.516.556c-.41-.574-.41.574 0 0zm-43.913-.873c-1.25-6.413-9.766.807 0 0zm28.873.073c-1.294-2.774-2.484 1.23 0 0zm8.32-1.44c2.876-1.877-4.09-.076 0 0zm2.88-1.28c-.41-.574-.41.574 0 0zm2.01-.07c.437-2.85-3.713-.326 0 0zm-13.21-.823c-3.33-3.367-3.95.643 0 0zm-12.16-.16c-.33-1.55-1.66.602 0 0zm-9.92-.55c-.793-1.686-.793 1.686 0 0zm37.76.16c2.108-4.4-7.328.48 0 0zm-42.15-.23c.525-3.11-2.355.775 0 0zm76.07-.09c-.386-1.112-.386 1.112 0 0zm50.88-.73c-.696-1.93-1.313.814 0 0zm-257.993-.62c-1.075-6.687 10.086-18.602 2.793-20.727 1.182 7.475-4.836 12.528-2.793 20.727zm168.713.073c2.538-6.184-3.15.187 0 0zm-13.76-.736c-1.354-2.83-4.358-.725 0 0zm5.12-3.584c-1.265-.594-1.265.594 0 0zm10.24-.16c-1.896-1.252-1.616.97 0 0zm61.44-.57c-.585-2.173-.953.62 0 0zm-26.24-.71c-.818-1.148-.818 1.148 0 0zm-58.79-.55c.924-2.917-3.247.424 0 0zm21.03-.25c-.41-.574-.41.574 0 0zm-10.88-.96c-1.07-1.495-1.536 1.568 0 0zm3.84-.96c-.454-1.734-1.466 1.495 0 0zm69.44.035c-.387-4.257-6.187-14.17-9.28-14.275 3.592 3.91 6 11.258 9.28 14.275zm-245.03-.104c3.107-6.605-2.387-7.13 0 0zm164.8-.32c-1.273-1.316-1.37.37 0 0zm-19.61-.183c-1.648-1.47-1.62.633 0 0zm36.8-1.35c4.14-1.408-2.3-.74 0 0zm-28.48-.285c-1.566-2.636-1.8-.513 0 0zm10.01-.424c1.412-3.492-5.446-.54 0 0zm9.92-.32c.57-2.358-2.362.564 0 0zm-6.49-.57c-.41-.574-.41.574 0 0zm-164.16-.25c-.558-1.32-1.993.586 0 0zm162.56-1.19c-2.16-1.26-.505 1.275 0 0zm8.64-.73c-2.052-2.88-1.507 1.612 0 0zm-4.8-.71c3.9-2.024-3.232-1.762 0 0zm2.56-2.325c-1.273-4.306-2.113 1.48 0 0zm-11.52-.235c10.427.648-.572-3.925 0 0zm17.28.075c-2.28-3.58-1.796.874 0 0zm-21.76-1.16c2.406-5.18-2.27 2.087 0 0zm-4.8-.44c-2.01-4.74-2.36.278 0 0zm24.64-.235c-.386-1.112-.386 1.112 0 0zm-51.52-.8c2.754-2.458-2.706-.594 0 0zm30.08-.32c-1.24-9.05-3.338-2.92 0 0zm-80.32-2.24c-.41-.574-.41.574 0 0zm88-1.44c-1.37-3.45-2.357 2.797 0 0zm-25.28-.64c-.376-2.488-1.122 2.37 0 0zm9.28-.16c2.727-5.3-.808-5.505 0 0zm-69.76-.32c6.157-4.008 1.028-5.483 0 0zm173.76-2.24c-.84-.6-.84.6 0 0zm.96-1.92c2.932-2.925-3.855-.94 0 0zm-82.56-.41c-.52-2.153-2.24 1.134 0 0zm-32-.55c-1.802-1.056-3.58.23 0 0zm12.8-.8c-.772-2.224-.772 2.224 0 0zm35.84-.64c-4.286-6.746-8.328-1.637 0 0zm-35.52-2.08c-.41-.574-.41.574 0 0zm-17.6-.8c-.865-1.7-.346 2.19 0 0zm-105.28-.48c-1.65-3.287-1.73.096 0 0zm114.35-.728c.827-1.06-2.163.87 0 0zm6.7.02c.882-5.607-2.65-2 0 0zm27.52-1.6c.06-1.177-1.75.605 0 0zm-7.45-.25c-.41-.574-.41.574 0 0zm-46.72-.48c-1.08-3.3-1.904.853 0 0zm29.12-.724c-3.006-4.287-1.078.63 0 0zm69.12-.487c-.73-2.336-.918 1.178 0 0zm-185.18-.946c-2.02-2.694-3.345.24 0 0zm3.42-2.162c-.426-1.65-1.144.97 0 0zm140.93-1.387c-.302-4.077-3.36 1.82 0 0zm-28.84-1.56c1.127-2.92-2.852.845 0 0zm-11.84-.64c1.9-2.168-2.664.218 0 0zm20.07-.183c-1.94-2.733-1.278 1.575 0 0zm13.543-.15c.28-2.137-2.54 1.096 0 0zm1.817-1.36c-1.85-.945-2.376 1.193 0 0zm-39.68-1.12c-1.265-.594-1.265.594 0 0zm35.61-1.67c1.532-3.978-4.528 2.185 0 0zm-43.93-.41c-.277-1.115-.848.754 0 0zm1.92-4.64c6.544-2.347-4.598.307 0 0zm1174.28 156.716c-1.09-4.005 3.047.18 0 0zm-916.52-5.516c.41-.574.41.574 0 0zm907.84-.96c-5.107-3.18 8.284.182 0 0zm-891.2-1.44c1.02-1.596 2.012.746 0 0zM4.8 202.072c-3.013-1.686 3.303-.064 0 0zm653.16-1.524c-27.913-18.575-54.668-39.798-79.522-62.796-34.56-27.678-66.932-59.92-107.078-79.04-43.38-19.773-91.27-27.244-138.72-23.84-59.354 4.15-119.033 17.77-170.08 48.96C131.247 99.505 100.53 117.5 72 137.837c-14.62 11.838-30.845 24.903-47.2 31.915 29.842-31.527 64.385-58.268 101.248-81.6 42.82-29.335 90.334-52.326 141.152-63.36 64.417-13.55 133.9-12.02 194.72 14.88 33.2 12.837 60.417 37.4 89.28 57.436 33.795 30.327 67.337 61.624 99.68 93.124 3.214 1.575 10.284 8.556 7.08 10.316zM0 197.34c1.26-1.108 2.222.67 0 0zm928-.71c2.448-11.894 20.302-20.4 27.84-30.88 46.978-39.96 87.817-90.377 144.48-116.96 8.56-.95 15.027-5.47 21.6-5.76 1.424 1.95 11.42-10.49 7.2-3.36 8.796 1.865 17.754-8.308 27.52-4.32-1.74-4.426 11.32-4.675 13.96-2.84.023 4.143-1.255-6.367 4.6-1.48 3.657-1.63 4.478-2.258 6.88 1.76 6.426.453 13.105-1.272 15.84-1.28 4.526-3.244 10.1 3.283 11.52.64.54 4.13 2.52-5.468 8 .8 3.948 1.156 11.066 8.048 9.92.16-.68-4.145 8.054-6.046.96-7.36 5.154-4.92 10.224 6.912 9.92-1.28 41.442-.73 83.982 9.427 121.6 26.24 27.14 7.25 51.503 24.286 76.32 38.08 32.49 19.932 63.01 42.995 94.08 64.247 4.92 4.6 18.726 12.974 17.6 16.393-18.233-4.344-31.526-18.43-48.61-25.92-28.14-20.1-57.685-38.227-88.35-54.56-35.07-17.146-70.334-35.722-109.6-41.28-29.183-7.648-60.033-9.974-88.96-7.52-41.712.9-83.96 11.682-121.248 31.68-54.27 30.832-95.28 79.98-146.752 114.88-5.534 3.164-10.12 8.73-16.32 9.92zm432.16-144.8c-.41-.574-.41.574 0 0zm-7.91-1.67c.314-1.078-1.077.314 0 0zM1116 47.032c-.41-.574-.41.574 0 0zm19.2-3.93c-4.182-2.74-6.676 1.407 0 0zm4.89-.617c.898-3.816-1.874.098 0 0zm18.15-6.433c1.754-3.114-2.163.722 0 0zm20.48-.54c3.59-4.477-4.076-.774 0 0zm4.57.25c1.64-3.72-1.495-.59 0 0zm5.99-.89c2.617-1.47-1.023-.938 0 0zm-24.393-.553c2.637-6.047-3.305 1.4 0 0zM23.68 172.472c-2.294-1.787 3.77-1.66 0 0zm1342.76-100.56c-.282-2.8 3.752-.454 0 0zm-217.8-37.292c.713-1.648.914.602 0 0zm73.96-1.593c-2.556-8.317 10.175 2.03 0 0zm-39.52-1.435c-1.182-6.447 6.553 1.948 0 0zm33.72-.24c1.71-1.7.357 1.436 0 0zm-29.24-.08c6.367-2.4.202-.163 0 0zm30.52.08c.41-.574.41.574 0 0zm1.8-.08c.832-1.977 1.776.47 0 0zm-10.12-1.292c.356-1.552 1.616.582 0 0zm4.8-.07c.386-1.112.386 1.112 0 0zm-16.96-.16c-6.5.887 2.452-3.684 0 0zm6.4.073c1.583-1.834 1.638.265 0 0zm4.8.002c2.372-2.93.887-.09 0 0zm7.04-.22c-.743-3.01 3.76 1.094 0 0zm5.44-.333c.62-2.7.15-.935 0 0zm-47.833-.275c-.196-2.74 3.308 1.418 0 0zm19.673.184c.558-1.32 1.992.586 0 0zm-6.08-.55c.313-3.467 2.837-.093 0 0zm-8.32-.16c.41-.574.41.574 0 0zm47.36-.96c-10.323-2.876 2.758-3.12 0 0zm-42.56 0c.41-.574.41.574 0 0zm28.48 0c-4.166-3.274 3.175-1.388 0 0zm5.6-.16c-1.903-2.787 4.374-.127 0 0zm-14.24-.64c.386-1.112.386 1.112 0 0zm4.48-.73c.558-1.32 1.993.586 0 0zm-21.76-1.67c.41-.574.41.574 0 0zM676.16.632c1.365-2.05-.015 1.694 0 0z"/></svg>