<svg xmlns="http://www.w3.org/2000/svg" width="600.181" height="116.534" viewBox="0 0 158.798 30.833"><path fill="currentColor" d="M34.228 30.803c-5.057-.018-10.007-1.275-14.786-2.75-4.2-1.634-8.207-3.864-12.56-5.095-1.748-.53-3.56-.793-5.197-1.58-.752-.49-2.2-1.34-1.506-2.264 3.094-.332 5.837-2.246 8.13-4.312 4.415-3.892 8.45-8.198 13.545-11.216C24.5 2.015 27.433.797 30.54.528 35.612.013 40.783.63 45.478 2.6c2.385.7 4.595 1.932 6.594 3.33 1.937 1.472 4.16 2.534 5.77 4.35 1.763 1.5 3.658 2.872 5.836 3.687 1.277.575 2.65.87 3.91 1.478 2.465 1.1 1.832 4.833-.476 5.642-2.166 1.063-4.72.46-6.934 1.426-2.197.648-4.216 1.804-6.234 2.87-2.73 1.618-5.683 2.747-8.706 3.67-3.537 1.215-7.256 1.937-11 1.75zm.986-.918c4.165.19 8.156-1.188 12.032-2.514 3.125-1.063 5.882-2.896 8.89-4.196 2.46-1.18 4.994-2.242 7.767-2.378 1.724-.023 4.14-.64 4.08-2.753.106-1.933-2.168-2.378-3.586-3.092-3.597-1.313-6.773-3.48-9.806-5.794-2.86-1.977-5.687-4.06-8.923-5.37-2.644-1.277-5.398-2.343-8.396-2.446-4.218-.354-8.548 0-12.39 1.92-3.142 1.202-5.92 3.183-8.55 5.267-3.736 3.67-7.348 7.535-11.794 10.367-.814.667-2.064.257-2.787.934 1.758 1.435 4.578.9 6.356-.407 4.897-2.373 8.14-7.08 12.797-9.815C23.228 8 25.98 7.084 28.69 6.356c2.146-.417 4.24-.933 6.424-.78 3.116.294 6.266.703 9.092 2.157 2.554.964 4.885 2.406 7.14 3.907 2.42 1.334 4.64 3.028 7.19 4.112 1.926.625 4.073.71 5.855 1.715.823.73.963 2.152-.332 2.498-2.976.013-5.85.786-8.447 2.208-2.432 1.184-4.928 2.252-7.377 3.397-3.415 1.297-6.938 2.443-10.622 2.666-4.565.333-9.234-.095-13.613-1.58-1.876-.525-3.755-1.137-5.37-2.26a68.88 68.88 0 0 0-9.535-3.821c-1.604-.346-3.296.17-4.725.723 1.17.865 2.78.67 4.113 1.213 2.214.635 4.315 1.575 6.424 2.48 3.808 1.934 7.854 3.475 12.084 4.23 2.74.463 5.486.468 8.225.665zm30.492-10.308c.137-.36.305-.018 0 0zm-56.424-1.6c1.448-2.145 4-3.283 5.624-5.34 1.037-.9 1.866-1.984 2.923-2.855-1.16.098.48-1.1.934-1.462 3.283-2.277 6.903-4.27 10.79-5.216 3.34-.607 6.733-.676 10.01.306 2.54.62 5.085 1.275 7.36 2.615 1.786.79 3.38 2 5.048 3.023.786.864 2.6 1.368 2.69 2.414-1.787-1.195-3.6-2.343-5.46-3.432-3.1-2.275-6.878-3.287-10.538-4.212-3.415-.61-6.882-.695-10.214.238-2.53.397-4.777 1.766-7.002 2.93.773.253 1.517-.84 2.346-1.012 4.63-2.26 10.03-3.145 15.058-1.834 3.43.67 6.647 2.1 9.748 3.65 1.965 1.4 4.072 2.607 6.045 3.976 1.2.862 2.47 1.678 3.575 2.617-.227.145-1.282-.462-1.794-.764-2.937-1.944-5.822-3.94-8.838-5.744a30.01 30.01 0 0 0-9.534-3.244c-4.85-.71-9.798.445-14.293 2.242-2.24.9-4.068 2.563-6 3.976-2.355 2.377-4.755 4.703-7.546 6.526-.27.2-.634.564-.934.6zM19.92 8.183c.442-.158 1.642-1.344.574-.56-.08.142-1.088.556-.574.56zm14.48 19.29c2.865.027 5.747-.194 8.48-1.138 4.365-1.357 8.477-3.385 12.73-5.027 2.257-.914 4.543-1.882 7.002-2.106.676.584 1.892-.717 1.02-.85-.508.878-.793-.615-1.275.29-.212-.524-.87.233-1.496-.034-.42-.272-.91-1.072-1.02-.054-.345.524-1.038-.5-1.437.35-.155.74-1.117.052-1.57.16-.445-.658-.91-.858-1.53-.6-.427.054-.844-.76-1.3.095-.34-.273.444-1.37-.092-1.292-.047.704-.923.983-1.134.925-.058-.407 1.235-1.207.472-1.265-.636.466-.54-.182-.603-.604-.845.093-.698-.37-1.215.28-.76.17.054.388-.085.63-.552.428-.8.547-.476-.272-.226-.653.36-.977.663-.935.614-.443.445-.853-.306-.374-.777.098.286-1.557-.82-.816-.622.092-.922.247-1.458.384-.402-.7.464-.705.697-.96-.4-.604-.922.247-1.258-.068-.24-.572 1.172-.753.22-.993-.404.315-1.157.606-1-.24-.493.267-.24 1.597-.507 2.297.087 2.094-.608 4.196-1.745 5.982-1.486 2.486-4.172 3.725-6.73 4.816-3.858 1.173-8.154.52-11.506-1.715-3.374-2.255-5.212-6.4-5.08-10.395-.492-.667-.016 1.708-.612.682-.09-.624.7-1.29-.102-1.26-.23.402-.07 1.23-.578 1.295.75 1.02-.165 1.246-.782.9-.557-.16-1.57-1.087-1.784-.646.286.85.63.26 1.154.735.42.828-.22.618-.66.445-.574-.52-1.45-.394-1.223.604-.184.247-1.35-.737-1.07.416.054.813-1 .166-.765 1.35-.43.272-.765-1.208-.73-.05.238 1.212-.285.403-.857.493-.515.348-.415.733-1.162.68-.802-.35-.5.944-.93.034-.774.9.428 1.098 1.084 1.393 1.654.488 3.133 1.3 4.67 2.106 3.004 1.374 6.04 2.74 9.297 3.43 2.443.63 4.936.91 7.423.934zm-3.175-.825c-.06-.116.14.006 0 0zm-16.318-6.72c-.44-.423.284-.32 0 0zm-1.97-.22c-.114-.23.18.12 0 0zm2.702-.238c-.987-.96.542-.666 0 0zm38.78-.187c.017-.767.49-.62.068.05l-.034.034-.034-.085zm1.156.017c-.347-.695 1.3-1.068 0 0zm3.926-.08c.785-1.333.847.353 0 0zm-43.026-.03c-.47-.326-.662-1.793-.004-.874-.01.207.316.957.004.874zm37.298-.22c.065-.23.097.064 0 0zm5.2-.034c.067-.357.11.177 0 0zm-7.206-.33c-.02-.6.656-1.15.29-.255-.05.05-.228.6-.29.255zm1.394.085c.013-.864.612-.247 0 0zm-3.977-.5c.078-.96.823-.522 0 0zm-32.438-.28c-.777-1.68.95-.642 0 0zm35.905-.205c.094-.308.175.134 0 0zm-1.53-.12c.077-.248.097.125 0 0zm1.857-.033c-.14-.498.486.177 0 0zm-4.08-.136c-.042-1.737.43-.145 0 0zm2.8-.145c.014-.65 1.182-1.083.68-.06.04.234-.822.156-.68.06zm-33.87-.22c-.47-.454.1-1.414.085-.29l-.007.282-.078.007zm31.83-.05c-.046-.517.903-.78.412 0-.133-.153-.297.1-.412 0zm-30.875-.025c-.2-.304.322-.2 0 0zm1.236-.026c-.697-.42-.1-1.812.255-.63.083.253.174.706-.255.63zm1.72-.11c-.076-.428-.472-1.646.013-1.707.085.518.1 1.4-.013 1.707zm-3.522-.272c.098-.248.3.103 0 0zm30.747-.135c-.377-1.008.916-.833.25-.008l-.034.017-.217-.008zm.794-.277c-.53-.963 1.12-1.122.476-.2-.077.146-.32.267-.476.2zm-1.258-.123c.14-.323.014.325 0 0zm.02-.62c-.35-1.043.65-.554 0 0zm-.565-.026c-.582-.723.71-.423 0 0zm2.55-.03c-.003-.493.383.022 0 0zm-2.7-.744c-.673-1.127 1.18-.882 0 0zM35.486 26.146c.776-.134 1.607-.304 2.277-.696-1.166-.19-2.85.347-3.74.56.502-.045.963.21 1.46.136zm1.71-.89c.026-.482-.653.105 0 0zm-5.982-.034c-.17-.457-1.615-.764-1.573-.502.536.128 1.006.535 1.573.502zm6.448-.095c1.54-.104 2.887-1.203 4.113-1.8-.132.885.978-.287 1.4-.46.458-.48 1.347-1.41 1.036-1.97-.825.886-1.68 1.75-2.864 2.175-1.166.745-2.4 1.352-3.7 1.8-.3.013-.088.318.026.255zm-5.03-.214c-.346-.36-1.95-.565-.782-.126.232.043.638.272.782.126zm3.535-.058c.802-.146 1.763-.298 2.277-.934-1.232.327-2.522.614-3.773.757.364.31 1.034.124 1.496.178zm-3.467-.372c-.417-.553-.996-.01 0 0zm-2.31-.25c-1.326-1.048-3.044-1.577-3.994-3.1-.65-.55-1.327-2.178-1.597-2.345 1 2.493 3.152 4.6 5.59 5.446zm4.555-.025c1.4.046.427-.948-.595-.493-.556-.08-1.917-.077-.782.272.465.038.905.26 1.377.22zm2.447-.612c1.713-.327 3.4-1.444 4.31-2.864-1.132.58-.596.1.008-.5.355-.433 1.134-1.21.925-1.67-.496.657-1.37 1.502-1.78 1.835-.302.85-1.763 1.428-2.712 1.79-.434.086-1.853.647-.833-.034 1.037-.5 2.94-.87 3.212-1.7-.608.2.688-.826.782-1.22.97-1.197 1.787-2.903 1.54-4.338-.28.405-.353 1.482-.79 2.107-.422 1.39-1.203 2.66-2.55 3.347-.662.442-1.445.7-1.887 1.326-.636.422-1.4.54-2.056.832.326.53 1.802-.26.714.255-.613.532-2.235-.232-2.253.408 1.723.12 3.504-.28 5.108-.95.533-.333 1.026-.41.204.12-.6.368-1.754.953-1.938 1.257zm3.195-.374c1.84-.63 2.72-2.66 3.788-3.995 1.08-.074.72-1.83 1.072-2.667.242-1.472-.863.108-.714.816-.51 1.512-1.14 2.99-2.566 3.858-.216.862-1.612 1.357-1.58 1.988zm-8.76-.177c-.678-.425-1.705-1.083-2.508-1.2.34.87 1.685 1.126 2.508 1.2zm2.268-.682c-.374-.268-1.748-.623-1.703-.38.5.303 1.224.484 1.703.38zm-7.92-.11c-.385-1.344-1.843-.948 0 0zm3.875-.593c-.26-.298-1.436-.902-.493-.222.148.056.335.35.493.222zm4.622-.002c-1.368-.373.145.02 0 0zm-1.326-.095c-.42-.366-1.564-.408-.514-.092.144.1.344.194.514.092zm-2.268-.083c-.247-.654-1.246-.412-.282-.044.086.04.184.08.282.044zm4.222-.078c1.407-.215 2.896-.408 4.028-1.393 1.793-1.255 2.838-3.42 3.275-5.462-.046-.846.15-2.16-.413-2.712.127 1.787.272 3.774-.89 5.302-.73 1.725-2.276 2.844-3.994 3.416-2.332 1.103-5.017.207-6.777-1.495-1.424-1.118-1.783-3.066-2.382-4.623-.32.777.225 2.183.645 3.12.623 1.146 1.535 2 2.634 2.693 1.052.86 2.56.963 3.875 1.155zm-8.922-2.362c-.3-1.557-1.778-2.786-1.478-4.52-.49-1.5.693-3.354 2.43-3.076 1.73.41.9-2.218 1.97-2.872.664-.715-.678-1.004-.916-.272-.837.954-1.8 2.3-3.087 2.473-.253-.6 1.5-.907.655-1.692-1.147-.416-1.006.718-1.173 1.352-1.298.75-.345 2.39-.816 3.576.306 1.647 1.202 2.987 1.767 4.534.16.105.61.95.646.497zm19.298.01c.392-.847 1.008-2.27.483-2.953-.135.965-.772 2.168-.602 2.995l.12-.042zm-16.41-.21c-.228-.653-.732-.154 0 0zm-4.487-.293c-.238-.406-.063-.125 0 0zm3.323-.008c-.042-.76-.865-.493 0 0zm15.924-.187c.204-.666.594-1.916.33-2.32-.38.682-.843 1.758-.483 2.38l.153-.06zm-19.587-.69c-.19-.902-.54-.588-.03.067l.03-.067zm19.068-.2c.318-.7-.514-.145 0 0zm2.39-1.897c.25-.793-.202-3.345-.333-1.318.23.398-.233 1.346.333 1.318zm-25.407-.85c.22-.557-.983-.215 0 0zm26.205-.306c.06-.4-.268-2.412-.52-1.488.172.407-.063 1.49.52 1.488zm-25.37-1.75c-.027-.194-.2.08 0 0zm22.388-1.044c.045-1.203-.854-1.165-.17-.094l.14.143.03-.048zm-16.8-2.958c1.096-.653-.393-.706 0 0zm98.704 21.634c-4.112-.28-8.325-.78-12.032-2.717-1.786-.84-3.568-1.6-5.285-2.565-1.57-.713-3.07-1.556-4.707-2.072-1.488-.74-3.223-.914-4.843-1.138-1.946-.124-4.706.997-6.016-.952-.785-1.63-.92-3.94.37-5.286 1.68-1.554 3.972-1.847 6.003-2.7 1.975-1.065 3.773-2.403 5.676-3.603 3.055-2.39 6.448-4.3 9.908-6.015 2.193-.925 4.333-1.943 6.68-2.43 1.197-.204 2.71-.76 3.756-.288.157.316.887-1.003 1.14-.174.12.012.746.61 0 .717-3.013.493-6.23.6-8.973 2.106-3.51 1.6-6.927 3.44-10.027 5.777-2.772 2.15-5.752 4.054-9.058 5.25-1.9.61-4.452.92-5.15 3.126-.436 1.504.28 3.733 2.192 3.5 4.52-.68 8.87 1.182 12.9 3.04 2.968 1.206 5.7 2.978 8.735 3.992 3.76 1.088 7.728 1.823 11.607 1.46 3.62-.43 7.368-.702 10.79-2.09 4.522-1.837 9.136-3.54 13.478-5.774 1.228-.643 2.922-.83 3.807-1.88-1.8-.438-3.98-.293-5.816.368-2.5.64-4.83 1.732-7 3.125-2.023 1.096-4.215 1.817-6.305 2.803-4.215 1.34-8.646 2.42-13.154 1.8-2.82-.33-5.566-1.07-8.293-1.817-3.283-1.225-6.478-2.673-9.72-3.99-2.837-1.462-6.018-2.107-9.194-2.14-2.302-.136-1.13-2.978.697-2.804 4.534-1.215 8.583-3.746 12.474-6.32 2.4-1.5 4.83-2.974 7.546-3.788 4.69-1.655 9.812-2.45 14.683-1.12 3.023.52 5.698 2.126 8.3 3.67 4.126 2.688 7.527 6.4 11.743 8.922 1.313.754 3.044.833 4.334.5-1.035-1.106-2.592-1.862-3.57-3.15-3.02-2.667-5.65-5.87-8.497-8.617-2.353-1.858-4.882-3.56-7.784-4.418-1.628-.66-3.45-.612-5.09-1.247.15-.756-.394.332-.908-.078-.542-.077-1.194-.386-.952-.51-.684.543-1.67.04-2.48.34-.795-.02-.627-.21-.85-.585-.533-.294-.103-.782.272-.265.464-.028 1.04.02 1.564.245.5-.03.153-.768 1.156-.398 1.075.14 2.436.08 3.603.408 2.38.468 4.822 1.15 7.02 2.327 2.416 1.225 4.666 2.772 6.44 4.826 2.8 2.322 5.018 5.28 7.648 7.698 1.2 1.185 2.457 2.808 4.326 2.787.244 1.26-1.513 2.228-2.508 2.906l-8.532 3.77c-3.245 1.505-6.612 2.852-10.045 3.89-3.957.896-8.008 1.618-12.066 1.576zm2.14-3.297c3.332-.07 6.5-1.1 9.602-2.123 4.134-1.09 7.38-4.183 11.49-5.35.782.066 1.063-1.004.306-.893-.37.72.2-.766-.493-.075-.675.74-.505-.184-.765-.265-.305.81-.306-.072-.56.128-.287.992-.268.248-.153-.238-.564-.22-.832-.884-1.02.11-.404.084.4-1.136-.22-1.13.027.955-1.012.852-.612-.068.725-.43-.187-.865-.29-1.478-.2.378-.906.592-.62-.153-.014-.452-1.3.86-1.046-.68-.558.55-1.05-1.15-.748.102-.073 1.082-1.007-.214-.237-.56-.826.245-.47-1.85-1.174-.672-.62.05-.257-1.073-.85-1.45-.18-.84-.436.565-1.03.482-.014.453 1.61-.767 1.02.485-.463.322-1.053.458-1.294-.078.58 4.014-1.134 8.36-4.596 10.666-2.477 2.04-5.837 2.785-8.956 2.158-1.473-.066-2.848-.47-4.18-1.053-1.69-.9-3.506-1.776-4.707-3.314-.94-1.464-1.99-2.857-2.532-4.52-.425-.88-.555-2.045-.816-2.838-.677-.027-1.334-1.087-1.886-.136-.012 1.166-1.5-1.024-1.003.17.063 1.012-.503.355-.63.102-.105.907-.43.24-.816.5-.285.332.476 1.944-.29 1.242-.463-.753-1.122-.756-.68.033.368 1.565-1.13-.85-1.207.408-.245 1.22.002-.41-.57.17-.482.393-.072.762.18.884.452.766-.31.84-.272.69.845 1.036-.352.572-.408-.23-.313.21.24 1.697-.357.765-.466-.675-.683.537-.935-.442-.254-.738-.586.692-.892-.264-.584-.03-.25.773-.96.264-.35-.037-1.334-.717-1.105 0-.852-.1-1.012.15-.748-.564.6-.87-.368-.71-.433.055-.4.045.132.793-.562.374-.254-.83-.538-.125-.72.187-.343-.617-.84-.638-.884-.068-.515-.34-.465-.032-1.003.29-.35.903 1.51.135 2.073.238 3.204.05 6.066 1.825 9.075 2.802 1.797.703 3.425 1.72 5.302 2.225 3.73 1.565 7.633 2.906 11.726 2.972.816.123 1.66.12 2.48.136zm20.716-7.868c.084-.31.28.203 0 0zm-3.276-.4c.14-1.422.463-.057 0 0zm1.372-.076c.2-.616.494.038 0 0zm-32.68-.068c-.21-.357.314-.042 0 0zm30.437-.136c-.2-.622.676-1.613.425-.5.05.18-.455.983-.425.5zm-36.84-.298c-.912-1.08-.15-2.387.064-.347-.03.054.17.667-.064.347zm.68.07c-.382-.614.008-1.052.166-.213l-.007.214-.158-.001zm1.02-.136c-.18-.375-.685-1.82-.072-1.164-.043.365.193.904.072 1.164zm34.257-.026c.035-.82.453-1.68.187-.22-.037.057-.07.39-.187.22zm-30.042-.552c-.16-.5.214.134 0 0zm28-.102c-.6-.625.54-2.213.438-.994-.183.298-.13.826-.438.994zm1.512-.017c-.52-.6 1.103-1.577.286-.734-.075.202.08.75-.286.734zm-29.558-.12c-.534-.836-.706-1.976-.587-2.923.84.427.2 1.92.655 2.746l-.034.204-.034-.027zm28.94-.22c.23-.735.043.696 0 0zm-31.865.01c-.147-.487.217.094 0 0zm34.108 0c-.556-.77.844-1.08.306-.144-.056.05-.2.243-.306.144zm-36.16-.06c-.452-.4.08-1.17.08-.28.008.063.102.394-.08.28zm2.018-.416c.04-.237.04.237 0 0zm31.73.004c-.43-.702.95-1.618 1.275-1.363.227.854-.475.755-.748.782-.052.252-.184.7-.527.582zm1.585-.063c-.272-1.66.997.088 0 0zm-33.347-.076c-.39-.55-.163-1.714 0-.39.005.037.083.506 0 .39zm30.216-.29c-.823-.683 1-.842 0 0zm-.952-.3c.277-.728-.41-1.72.11-2.214.32.48.302 1.896-.11 2.214zm1.7-.102c-.582-.666 1.027-1.345.425-.11-.107.096-.28.196-.425.11zm-29.978-.527c.04-.177.04.177 0 0zm29.128-.068c-.578-.722.53-1.385.273-.186-.134.005-.093.285-.273.186zM110.6 15c-.37-1.9.28.555 0 0zm1.313.102c-.41-.97.5-1.644.098-.5-.11.078.153.608-.098.5zm-.63-.102c-.648-.903.22-.514 0 0zm29.808-.238c-.462-.886.69-1.347.624-.28.013.3-.416.375-.624.28zm-.952-.68c-.416-1.144 1.24-.466.102.042l-.102-.042zM126.916 25.5c.775-.265 2.22.03 2.566-.594-1.81.28-3.673.112-5.42-.058.8.497 1.928.593 2.855.653zm3.127-.68c.583-.257 2.065-.52 1.665-1.07-.778.43-1.734.562-2.48.9.154.285.56.16.816.17zm-6.56-.068c.1-.324-2.018-.927-1.088-.255.335.16.71.292 1.088.255zm2.39-.21c-.01-.7-1.8-.012-.3-.01l.187.017zm6.754-.435c1.385-.625 2.604-1.812 3.318-3.114-1.085.89-2.564 1.952-3.535 3.106l.217.008zm-3.91-.306c1.28-.044 2.34-.85 3.4-1.427-.882-.06-1.932.848-2.923 1.07-.187.085-1.387.22-.476.357zm-1.63-.034c.685.05 1.28-.58.238-.493-.605.12-1.812.034-1.97.39.572.1 1.15.16 1.733.102zm4.01-.068c2.616-.808 4.567-3.154 5.557-5.66-.31-.53-.822.878-1.173 1.207-.956 1.42-1.816 3.202-3.637 3.603-.275.126-1.612.88-.748.85zm-3.637-.68c1.913-.418-1.807-.257-.255.017zm-7.876-.075c-.36-.685-1.677-1.367-2.22-1.845.507.78 1.286 1.626 2.22 1.845zm1.928-.104c-.45-.354-1.926-.943-.816-.21.237.1.65.346.816.21zm7.546-.126c1.953-.134 3.986-1.176 4.826-2.94-1.377.542-2.297 2.134-3.875 2.464-.22.255-1.505.39-.952.476zm-6.56-.034c.005-.483-1.335-.58-1.63-1.172-.385-.517-1.237-.24-.33.102.553.505 1.23.97 1.962 1.07zm5.566-.637c.22-.795-1.858-.338-1.964-.043.585.12 1.665-.223 1.964.043zm-8.354-.01c-.53-.575-1.38-1.66-2.15-2.1.34.85 1.33 1.702 2.15 2.1zm9.04-.034c1.905-.035 3.26-1.56 4.655-2.634.567-.717 1.355-1.416 1.497-2.338-.96.278-1.32 1.928-2.242 2.61-1.205 1.08-2.775 1.7-4.23 2.352h.32zm4.147-.068c.59-.417 1.82-1.528 1.623-2.066-.51.652-1.8 1.397-1.69 2.083l.068-.017zm-10.537-.026c-.6-.62-.643-.096 0 0zm.884-.603c-.153-.36-1.033-.717-1.326-.67.308.31.846.7 1.326.67zm2.48-.187c1.153-.254-1.894-.44-.56-.05.183-.013.387.08.56.05zm10.784-.144c.377-.52.816-1.896.4-1.896-.122.54-1.217 1.7-.4 1.896zm-6.23-.094c1.492-.55 2.458-1.954 3.433-3.06.13-.584.67-1.073.476-1.686.325-.773.676-1.746.5-2.46-.287 1.255-.614 2.48-1.333 3.586-.66 1.4-1.978 2.262-3.232 3.02.026.215-.318.604.156.6zm-13.008-.075c-.623-1-.855-.468 0 0zm7.128-.044c-.745-.68-1.85-.404-.442.017.102-.01.47.164.442-.017zm2.923-.323c2.87-.216 5.423-2.45 6.17-5.217.61-1.363.726-3.043.178-4.38.318 2.77-.285 6.047-2.796 7.744-1.593 1.552-4.084 1.814-6.084 1.19-2.86-.995-5.362-3.657-5.455-6.78-.458 2.027.833 4.45 2.6 5.66 1.46 1.315 3.47 1.818 5.377 1.784zm-5.7-.45c-.106-.356-1.783-1.474-.79-.52.238.17.43.624.79.52zm-4.13-.187c-.14-.442-.837-1.54-.995-1.488.14.572.552 1.23.995 1.488zm16.662-.11c.81-.106 1.608-2.198.646-.936-.086.25-1.05.81-.646.936zm-18.107-.518c.083-.42-1.078-1.787-.536-.757.227.2.217.83.536.757zm18.38-.502c.958-.883-.642.075 0 0zm-14.3-.075c-.706-1.118-.262-.124 0 0zm17.742-.5c.47-.604.6-3.27.007-1.47-.006.423-.54 1.377-.007 1.47zm-2.423-.163c-.297.07-.126.04 0 0zm-17.963-.22c-.1-.86-1.087-1.66-.952-2.702-.195-.757-.264-1.58.12-2.26-.702-1.576 1.496-2.83 2.753-1.87 1.074.128.886-1.507 1.665-2.056.384-.356 1.497-1.03.442-1.343-1.487.34-2.4 2.234-3.975 2.294-.547-.468 1.313-1.178.066-1.546-1.468-.2.06 1.674-1.326 1.767-.747.425-.33 1.434-.646 2.073.42 1.234-.063 2.606.8 3.705-.078.687.302 1.85 1.054 1.938zm1.135-.113c-.02-.477-.925-1.234-.438-.37.14.088.23.478.438.37zm1.16-.447c.275-.158-.085-.107 0 0zm16.783-.127c.394-.538.937-2.06.212-2.126-.018.606-.81 1.856-.212 2.126zm.816-.102c.202-.448.432-1.706.212-1.65.004.472-.58 1.412-.212 1.65zm-1.496-.612c.66-.772-.4-.464-.153.076zm-29.315-.152c.05-.22-.23.104 0 0zm31.066-1.24c.287-.54.136-2.276-.146-2.05-.02.66-.1 1.47.146 2.05zm.836-.87c-.1-.443-.204-2.03-.676-1.585.227.48.07 1.515.676 1.585zm.59-1.338c.045-.59-.777-1.788-.384-.673.123.195.14.643.384.673zm-2.355-1.114c.32-.577-.745-1.543-.255-.527.133.15.002.63.255.527zm-17.86-3.348c1-.78-.686-.38 0 0zM134.292.927c-.105-.165-.153.07 0 0zm-1.428-.3c-.073-.252-.15.114 0 0zM94.508 19.892c-.79-.114-.835-1.55-.306-.5.028.1.513.504.306.5zm54.212-5.08c-2.133-1.688-3.953-4.028-6.322-5.557-1.852-1.25-3.668-2.49-5.693-3.466-3.187-1.194-6.522-2.115-9.96-1.92-3.79.068-7.516.928-10.893 2.633-3.685 1.45-6.92 3.867-10.142 6.15-1.19.696-2.415 1.462-3.718 1.845.963-.952 2.518-1.447 3.58-2.423.737-.487 1.688-.983 2.083-1.71-.912.064.613-.725.942-.96 2.362-1.55 4.884-2.777 7.308-4.214 2.294-1.3 4.792-2.13 7.393-2.565 4.245-.903 8.64-.297 12.56 1.444 3.872 1.22 7.295 3.813 9.976 6.712-1.13-.506-1.957-1.66-3.025-2.27-1.424-1.064-2.75-2.298-4.432-2.897-1.688-1.187-3.683-1.773-5.646-2.226-3.49-.816-7.175-.746-10.7.12-.96.138-1.965.392-2.77.908 2.352-.64 4.88-1.25 7.376-1.298 5.128-.583 9.988 1.625 14.207 4.332 2.7 1.868 5.12 4.143 7.427 6.475.04.206.814.994.442.884zm-39.206-5.404c.636-.425 1.23-.77.22-.323-.102.055-.514.258-.22.323zm1.97-1.292c.425-.257-.2-.204 0 0zm.68-.272c.64-.372-.38-.13 0 0zm2.685-1.326c1.122-.695 2.573-1.056 3.57-1.784-1.27.307-2.607.952-3.773 1.69.043.06.12.152.204.095zm4.215-1.87c.416-.484-.764.05 0 0zm7.975-4.46c-.084-.12.6.022 0 0z"/></svg>