<svg xmlns="http://www.w3.org/2000/svg" width="3242.893" height="8703.435"><path fill="currentColor" d="M2656 8703c-87.52 5.4-169.81-40.386-243-87.246-96.942-102.017-227.582-166.855-306-289.71-42.62-68.2-169.804-117.17-209-20.045-29.828 46.233-81.02 17.093-122.525 16-42.482-39.308-76.648-73.855-130.475-88-99.177-64.303-229.407-117.572-268-239.533-27.9-21.308-102.492-96.04-94-45.988-91.098-35.518-179.557-100.637-238-187.444-42-48.143-71.338-129-142-120.034-78.294-35.23-118.267-119.162-151-194-45.722-116.274 24.282-227.014 51-335-8.643-56.72 21.835-117.696 38-172 58.166-95.975-55.22-170.765-91.478-251.522C643.65 6618.63 528.73 6554.18 445 6457c-49.83-55.604-108.954-115.64-171-149-49.63.166-116.132 60.55-151 19 2.482-106.06-118.09-172.376-123-277 14.466-37.095 18.522-77.36 38-110-4.25-66.064 108.5-75.15 68-148 7.685-88.25 59.063-163.542 59-247 27.133-59.235-44.556-129.62 21.007-181 66.317-33.853 116.512-96.495 147.993-165.546 60.542-62.654 140.503-99.31 230-77.454 56.008-6.312 128.63-.722 157-64.734 101.05-106.238 267.16-63.7 395-62.266 69.328 18.674 134.828 56.972 186.937 97.068 4.72-51.57 37.236-107.583 14.063-164.068.563-70.01 44.313-132.597 18-203 7.88-79.47 33.806-147.524 15.25-229.583 22.08-65.11 22.53-135.3-12.25-196.417 20.47-99.7 5.088-203.373-45-292-13.224-108.596 8.533-249.296-85-330-84.593-68.65 6.498-207.34-77-285-16.582-81.05-96.24-131.558-98-214.22-43.725-95.43-74.068-201.328-152-274.78-6.904-129.806-100.902-224.032-161-331 22.344-113.048-89.25-187.927-143-276-57.308-44.404-61.84-114.787-71-177-20.603-74.48-95.476-109.83-118-180.78-21.578-43.414-11.088-94.27-51-132.22-50.86-70.847-149.803-139.52-98-234 16.92-106.25-112.95-156.303-104-256 51.352-77.706-37.732-160.85-33-242-45.775-49.108-34.484-116.11-8-170-5.852-71.804-8.315-144.038-23-211 24.5-70.448 84.024-125.88 67-208.917C171.03 349.18 281.43 219.34 394 132.266 477.97 51.097 587.617 8.048 704 6c149.37-14.533 307.2-11.457 413.002 112 47.35 51.575 123.564 125.124 93.998 199-137.656-20.835-286.428-121.78-421.78-47-109.3 38.123-216.9 116.016-241.22 237-33.765 86.2 25.683 169.334 6 252.52-48.006 41.847-90.486 121.408-27 170.48 48.53 48.42 79.443 115.23 57 183 48.474 78.438 186.213 97.052 181 211-6.985 53.132-16.62 121.803 56 127 86.762 45.106 141.766 149.252 122 246.516 57.178 55.224 166.005 59.582 190 151.484 9.496 64.05 3.17 155.45 87.78 168 81.992 21.626 158.366 86.592 148.22 179-20.713 67.557 10.628 139.548 82.78 157 74.2 34.71 122.884 122.703 84.22 200-4.55 118.16 176.374 94.23 181 208 4.912 79.005 9.944 171.126 95.957 206 99.71 62.507 96.726 183.18 71.043 283-2.562 78.652 78.842 108.445 136.947 138 92.283 73.934-66.343 227.06 70.053 279 97.014 28.426 115.953 159.5 50 229-29.025 104.406 140.347 140.61 87 252-36.497 78.142 13.652 149.792 67 203 19.02 78.646-88.798 182.576 22 230 44.588 11.963 31.917 128.86 68 56 9.59-64.262 19.913-126.63 67-175 23.557-75.5.845-158.545 35-229-13.856-50.667-4.956-97.627 19-139-.113-56.536-10.836-108.4 15-160 28.7-90.637-78.897-177.78-23-268 26.526-107.02-88.088-188.85-44-296-6.73-102.397-113.31-169.182-93-277 38.157-90.908-88.866-122.916-64-208-27.595-85.154-134.587-128.625-106-231 2.037-68.684-62.7-108.148-81-165 11.174-112.826-38.005-225.803-111-309-5.09-79.433-6.985-159.54-69-219-13.834-70.938 39.72-127.57 23-200-.47-67.852 58.638-111.73 56-179 35.474-189.674 145.5-373.783 319-467 107.716-62.777 248.17-50.815 360-2 49.84 18.387 89.017 95.963 12 100-106.836 15.91-210.887 59.706-301 117-55.835 94.3-80.582 216.584-50 320 46.6 44.794 117.508 93.354 70 168.565-42.67 43.58-28.78 101.97 2 146.435 4.653 55.927-38.075 123.162 25.973 164 48.418 51.142 7.245 154.683 97.572 176 50.17 51.77 121.317 115.066 103.454 189.22 51.144 72.505 146.275 112.33 162 208.78-1.09 72.617 57.28 104.216 113 134 116.18 61.304 2.108 223.163 123 285 78.425 66.81 56.54 173.177 33 258 31.033 60.715 139.343 111.327 79 195-48.775 52.066-11.857 106.008 22 153 33.407 73.104 41.088 151.077 13 226-1.98 71.816 85.722 131.223 33 205-33.655 59.787-89.03 131.48-38 202.78 59.296 77.23 37.56 180.112-15 254.22 3.926 67.162 63.18 130.585 28 202-9.878 83.477-111.272 118.646-86 212 8.743 77.265-67.738 119.945-103 170 11.527 79.773-9.71 169.76-84 208.48 6.912 68.848-7.622 148.695-81.766 178.52-12.945 49.983 6.138 122.112-60.234 150.974-21.03 45.814-17.796 117.832-74 148.026-61.39 88.095 4.002 207.8 23 307 41.25 91.438 35.193 191.3-7 281-94.237 152.163-76.188 338.45-83 511 14.196 199.446 60.077 396.496 85 596 18.122 66.708 47.883 137.743 36 206.533-38.38 28.024-79.56 50.426-76 102.088-42 26.263.617 70.223-32 97.378 27.377 34.63 29.957 68.713 24 108 13.204 43.46 50.925 87.892 18 127.78-4.822 56.826 36.4 110.323 44 166.786-13.84 32.28 7.82 71.568 5 104.435 18.497 35.417 67.902 91.087 5.778 83.76 58.287 68.186-40.307 123.73-98.778 125.24zm-24-70c58.893-28.1.69-78.867-44.546-63-60.782-50.232-120.06-123.393-131.026-204.57 26.25-21.263-31.03-74.352-15.43-110.43-78.978-90.333-93.718-210.43-148-312.82-14.086-34.076-39.764-62.3-75-58.18 8.794-50.278-38.432-135.095-82.25-129.417 13.896 89.22 95.327 146.206 120.796 228.962-33.466-49.63-62.062-17.963-31.546 22.234 34.36 57.928 107.11 119.835 100 186.22-27.912-38.957-53.684-72.02-94-102-22.223-55.906 30.494 60.716-26 3.94-6.517 30.35-5.174 118.945 21.78 92.06-24.375-4.885-65.6-115.375-61.78-38.43-46.34 3.394-98.45-46.06-124-81.57-8.926-43.228-34.992-131.123-87.533-94-24.87-29.13-35.82-92.455-59.467-24-60.294 73.567 46.028 158.965 118 180 77.614 16.15 128.216 83.765 200.766 114 47.332 69.18 103.38 176.223 157.234 212-28.91-20.8-44.427-86.24 3-38 30.94 16.142-18.55-58.42-34.012-74-30.577-34.066-22.42-99.25-77.988-97-20.964-39.065-6.818-57.395 24-34 21.105-48.014 59.983 48.965 88 76 23.54 54.547 69.218 93.076 70 157 13.768 61.927 46.287 152.264 110 160 8.6-29.727 31.314-76.175 39-23 20.935 10.494 22.38 41.36 40 52zm-357-448.57c4.635-20.427 8.25 7.88 0 0zM1995 8041c-61.086-48.02 36.456-27.285 0 0zm675.57 539.57c11.692-34.18-16.58-114.287-19.57-36.57-5.4 12.246 6.39 37.59 19.57 36.57zm-2-102c-17.075-75.2-34.545-30.315-12.57-7.043l8.82 8.403zM2666 8413l-50-274.6c10.456-26.85 0-62.285 3-88.4-16.206-40.148-15.15-79.27-27-119.78 12.185-33.396 6.76-76.14 7.546-103.766 33.658 53.447 20.898-39.536 50.454-57.927 20.97-35.202-92.294-19.746-53 35.473-32.643 45.132-11.076 106.352-20 150 13.928 33.467-9.327 66.32 21 95.533-52.35 30.122 37.498 64.634-18 92.467-8.814 36.68 42.843 62.36 22 97 23.707 28.444 29.563 55.28 28 86.578 27.785 25.704-7.76 76.655 36 87.422zm-845-166c39.3-5.658 64.42-93.628 10-58-22.014-7.588 18.364-52.56-7-77 8.575-86.275-109.983 111.556-87 2-11.17-37.326-36.72 42.51-47 60 37.72 31.1 93.577 42.945 131 73zm-173-101c33.726-29.015 53.653-89.27-9.038-14l-1.712 13.475zm-27.474-26.474c25.075-53.8 84.362-116.226 62.474-172.526-15.837 24.364-32.673 51.26-63 59-50.823 20.463 14.075-145.245-39-66-7.26-85.928-50.032 24.207-67 52-44.58 62.678 62.458 127.747 106.526 127.526zm-153.98-157.98c24.32-39.798-19.16-9.176 0 0zm-48-24c37.887-62.373 87.735-137.355 82-208.546-32.928 32.403-56.094 95.906-76.545 139 5.808 20.803-40.05 60.654-5.455 69.546zm873.026-40.974c-27.474-35.876-12.672-75.13-18.57-112.143 4.732-19.588 8.903-70.363 12.546-105.43 27.684 37.634 64.135 70.594 43.454 12 19.35 27.215 26.123-77.192 4-104-25.537-53.69-65.424-121.343-70.37-170 77.537 50 66.325 147.72 120.404 212 42.685-10.776 95.892 29.303 43.967-44.467 16.528-50.476 97.48-51.346 82.676 4.7 58.575 60.76 61.523 13.53 59.324-.233 7.572 37.318 39.04 115.34 24 36-24.398-192.918-97.186-375.345-146-562-8.624-110.752-69.036-205.52-90-313-12.473-34.858-36.05-94.645-79.6-57-69.9-67.673-56.234-192.63-139.4-258-29.808-63.182-85.322-97.74-154-102-46.23-29.69-66.958-86.458-122.513-104-56.072-9.79 8.853-117.46-50.487-59-40.736 34.402-93.842 61.228-120 111 12.117 104.9-107.6 178.124-84 288 43.928-11.993 46.7 33.908 92 37 78.24 7.37 168.69 29.114 203.973 111 92.135 95.042 118.25 228.063 186.027 337.57 36.775 8.026 92.92 55.16 108.533 10.962 6.285-45.113-42.15-86.085-56.533-128.055-52.8-30.597-80.743-84.78-80-141.478-25.865-42.97-26.2-82.85 6-22.78 36.844 44.435-4.242-37.766-18-59.22-11.37-13.946-38.003-71.518-44.545-33-47.803-37.357-79.038-90.823-107.455-142-43.938-72.277 44.963-5.658 59 22 56.955 65.932 117.302 134.74 165 204 15.137 33.425 44.95 89.588-12 57.78 5.535 72.364 88.01 132.394 96.533 202.22 38.875 45.265 59.517 109.023 73.467 164.546-37.236 17.265-73.322-51.44-120-50.546-23.017-22-88.223-44.687-46 7 38.94 64.862 108.755 122.255 112 195.2 24.825 26.66 11.696 83.566-16 30.8-12.55-31.43 1.737-57.75-22-90.78-9.76-35.47-19.033-32.923-48-46.254-13.247-25.353-41.76-61.15-21-11.967l76 194c54.336 64 60.2 149.698 91 226-29.65 64.098-38.407-49.69-40-74-21.5-36.16-31.42-109.24-65-116 37.26 23.758 4.123 70.5-4.753 14.76-21.48-17.878-57.14-61.62-28.247-8.538 33.648 78.115 45.555 164.774 105 229.78 19.122 44.81-81.805 87.3-19 130 1.804 32.14 25.528 70.102 58.57 77.57zm2.68-287.067c-26.94-50.852-22.423-116.117 5.75-34.504 1.988 10.643 16.33 38.77-5.75 34.504zm-394-1016c-28.655-5.64-106.32-76.957-38.728-78.504 5.958 22.85 58.26 85.485 38.728 78.504zM1629 6465c2.414-6.95 2.414 6.95 0 0zm430-59c-25.04-11.865-68.148-47.562-14-36 9.103 8.624 40.472 26.02 14 36zm-706 1485c42.55-46.337 39.033-124.158 53-184-37.13 4.848-37.094 91.226-63 129-5.03 23-30.926 48.646 10 55zm-44.455-31.454c30.207-66.85-27.152-17.193 0 0zm483.026-6.974c-10.357-33.663-52.192-42.288 0 0zM1745 7836c-37.608-48.15-70.415-128.71-124-148.033 43.29 44.738 74.915 122.156 124 148.033zm-98-1.78c-39.848-72.81-49.503-15.68 0 0zm-392-3.22c5.317-66.96 75.235-126.313 63.57-194-20.694 41.542-54.188 54.69-31.57-3.546-17.428-22.007-55.502 88.525-46 1.546 21.827-43.427-13.815-61.863-24-14-15.344 23.96-34.774 129.498-52 65-3.046-39-34.615 53.117-25-39-8.616-40.365 46.073-132.853 2-134-16.655 24.38-31.793 104.427-65.038 62-34.883 55.258-3.747 151.703 70.57 155.467.378 58.79 50.452 105.41 107.467 100.533zm-27.75-66.525c-16.72-39.415 33.85-10.113 0 0zM1841 7830c-13.508-23.977-57.893-92.723-60-64 18.405 20.677 36.37 55.763 60 64zm22-71c-6.315-42.236-70.967-85.535-62.22-114 48.46 5.7 79.006 114.376 128.22 84.546-8.07-19.078-21.67-63.906 10.237-37.333-1.39-65.468-62.965-138.782-66.237-213.213 14.227-63.302-18.732-140.268-13.718-194.75 49.342-73.15-7.162-174.32-16.282-254.828 16.236-52.106-44.727-100.9-38-157.422-24.825-34.795-68.984-24.292-106.533-23.533-16.086 29.27-27.972-69.722-54.467-87.467 14.444-69.13-35.34-11.357-65-16.4-12.878 17.238-52.28 81.998-12 46.488 58.954-52.742-29.8 45.947 32 52.913 101.33 76.646 189.054 206.496 169 337-5.36 115.123-86.395 220.625-37 334.917 4.438 46.538-95.02 56.656-41.766 63.083-12.89 42.218 34.854 101.736 77.76 100 20.803 30.895 69.668 84.163 96.007 80zm-7-154c-49.886-30.823-47.32-91.295-23-132-11.483-50.013-36.73-105.577-28-154 34.65 92.066 48.867 194.764 70 289.546l-7.205 6.385zm-81.75-49.54c-19.27-23.245 2.213-132.6 20.75-86.46-6.53 33.172-26.39 38.245-2 77.546 1.55 9.066-12.674 16.87-18.75 8.914zM1719 6871c-8.2-19.85 14.276 2.655 0 0zm-2-21c2.555-3.587 2.555 3.588 0 0zm-88-14c-26.288-36.29 24.417-23.298 0 0zm560 856c-2.844-48.19-40.96-96.41-55-147-21.187-44.434-20.85-114.807-64.546-137.546 22.18 88.083 68.603 173.192 95.546 261.117 7.218 8.19 17.234 18.626 24 23.43zm483-12c1.854-77.793-39.966-161.644-51-237-12.163-173.19-106.07-337.486-72.25-515.583-28.278-77.216 37.865-175.654-22.283-238.417-38.663 75.98-34.9 173.244-51.467 256 49.203 152.792 93.153 305.452 115 465 30.475 87.49 38.148 192.31 82 270zm-1162.43-22.43c41.75-11.64-1.026-47-20.57-78.143-32.32 29.89-40.12 64.227-76-8.228 30.2 35.075 51.217 72.19 96.57 86.37zm-104-36c-1.918-28.11-59.966-108.96-16.57-68.087-2.615-31.938-61.53-32.14-83-42.484 40.953 29.937 61.125 81.507 99.57 110.57zM1001 7564c34.792-30.713 38.588-93.216 55-143 4.862-76.48-81.495-13.047-77 33.57-20.215-38.684-93.672-8.303-63-9.57-60.144-7.954 4.28-76.09 2-114-6.297-65.792-50.523 95.328-75 24-39.777-22.83 36.753-105.85-17-98-15.694 75.365-46.872 165.863 40.522 200 23.08 33.163 20.915 100.568 79.478 94 22.326-10.496 35.06 14.07 55 13zm454-173c-7.89-52.344-50.97-98.91-75.474-146 4.108 49.283 19.19 135.294 75.474 146zm692-28c-10.752-53.448-32.852-32.564-1.75 5.962zm-104-46c-2.28-13.93-2.28 13.93 0 0zm-600-14.78c-19.928-46.954-20.333-9.6 0 0zm-80-4.22c-6.114-39.47-15.483-7.947 0 0zm112-116c4.605-26.136-39.108-43.36-9-5 2.65 2.875 1.38 9.257 9 5zm74-44c-6.982-44.713-51.212-93.975-79-135 3.06 43.044 52.36 98.75 79 135zm362-50c-5.64-41.89-15.027-90.04-38.513-123.63 3.643 47.168 30.52 92.626 37.513 138.63zm-348-3c-9.626-36.125-84.03-112.848-34-38.422 10.537 12.29 21.247 34.698 34 38.422zm368.57-11.43c4.225-27.506-40.83-133.547-27.57-60.57 7.648 19.995 13.094 45.786 27.57 60.57zM1581 7035.084c-.78-28.807-45.604-67.27-17-18.083 4.648 3.065 9.85 25.685 17 18.083zm54.57-29.512c-3.55-36.44-40.192-52.662-9.57-8.57 3.272 1.064 5.378 14.195 9.57 8.57zm-328-72c-15.273-34.763-56.053-5.446 0 0zm-116-58c-6.835-29.64-93.63-33.255-33.57-8.57 10.716 3.664 22.25 8.525 33.57 8.57zM1231 6818c97.87 1.352 187.818-41.507 286-25-35.452-91.232 109.318-101.558 124-180.083-68.903 58.846-151.86 127.505-254 113.083-73.728 4.733-147.242-21.273-222-29-97.373-36.533-196.275-99.34-233-200-74.68-123.167-59.317-277.156-35-411.533-42.573-48.982 13.413-63.043 23-42.467 48.075-105.932 111.56-244.027 239-262 77.74 10.94 156.022 3.766 220 62 88.69 34.51 164.547 92.42 210 178.023 26.7 46.326 63.683 89.818 104 106.756 16.522 37.06 32.105 63.86 48 13.467 24.56-39.21 53.584-75.244 101.57-36.246 6.377 59.798 53.834 77.014 108.43 85 47.582 22.4 20.087 140.374 87.78 99 66.31-32.7 71.85 97.752 132.22 108 70.382 33.135 71.78 123.004 110 173 75.874 19.784 102.767 110.735 150 167 17.817 67.45 31.49 13.73 36-31 27.06-58.486 23.095-148.35 73-185 11.57 19.35 6.165 121.267 29 80-9.567-145.557 125.073-272.192 59-418-29.71-87.484-29.245-177.686-22-266-10.423-32.817-24.695-61.817-47.578-84-39.043-23.497-78.032-61.966-119.476-69.036 45.176 20.9-42.385-13.96 6.055 34.036 60.232 33.202-32.94 56.606-14 61-41.35-29.218-42.568-34.495-24 15-13.834-.8 15.5 73.535-32 29 83.905 87.408 2.054 69.522-14 27.764 51.45 69.515-56.45-48.96-15 18.236 36.092 41.576-75.364-36.23-18.546 14.454 3.514 27.326-55.1 17.35 15.546 62.546-35.237-15.78-28.657 29.685-34 22.22 8.2 36.063-7.297 60.068-39 18.78-25.77.753 56.556 105.04-2.742 76-78.222-74.134-111.547-181.502-140.258-282-15.82-53.1 3.59-176.796-82-158.024-27.77 29.45-20.895-56.05-62-21.976-41.832-54.908-119.2-81.605-185-114-62.154-17.515-128.82 14.846-191-22-42.178.826-75.373 25.833-117.57 18 26.46 40.747 11.932 39.033-30.43 27-47.758 5.49-125.94 3.724-105-71-35.933-45.524-118.668 2.955-134 52-53.858 62.96-124.7 105.83-171.43 176-21.94-24.75 9.812-103.1 42.248-130 42.337-45.963 88.368-87.253 133.18-129 4.974-109.648-136.965-87.262-197-136.045 36.1-24.957 93.304 27.612 112 8.52-51.586-45.96-137.436-76.44-198-62.253-19.58 22.876 104.937 55.117 20 39.78-64.392-30.807-126.625-87.308-210-60-34.372 29.1-109.898 33.49-124.056-7.946 14.387-36.65 60.692-48.27 5.473-65.304-76.995 16.863-163.485-27.22-230.417 34.25-82.706 30.14-50.82 174.635-157.526 171.474C227.588 5507.013 357.414 5515.367 414 5562c38.572 32.662 89.296 19.91 135 41 60.154 14.382 113.74-10.252 167 24 58.677 7.82 106.905 40.725 157.24 69.222C859.053 5621.157 722.02 5618.936 695 5556c54.655 2.462 56.38-90.214 92-46-19.355-20.125-93.575-27.54-76-47 91.67.25 162.94 73.94 242 109 6.065 85.527 16.28 177.62-32 255-17.758 74.762-24.806 148.426-72 212-7.35 44.48-52.097 64.69-57 114-23.057 40.54-12.88 105.567-33 136.22-19.118-65.048-37.835 2.938-40 36.344-8.77 22.207-56.912-22.792-34 23.435-40.74-73.05-154.19-115.38-148-220-5.59-88.778-6.598-182.94-68-254-19.798-50.498-55.9-114.3-53.383-160 32.976 25.21 69.9 96.94 98.383 94.57-2.898-23.232 66.213 45.678 29-14.57-66.595-45.574-114.787-117.738-185.22-158-40.078-4.626 37.595 63.9-17.312 60-31.567-24.065-63.14-136.752-92.467-83-40.94 79.3-114.202 155.373-74 252-15.116 37.76 38.763 135.134 52 107-26.168-82.295 22.295-61.05 58-31 64.267-3.872 18.955-110.952 0-151-22.66-40.04-15.107-97.767-3.467-136 38.373 31.984 59.192 103.703 53.467 144-14.236 28.318 56.332 60.02 58 104 31.304 76.953-1.81 166.257 51 238 46.667 67.714 36.09 162.314 114.76 210 72.923 43.968 97.5 139.306 180.768 172 59.48 55.924 157.5 57.016 192.473 141 67.766 78.382 180.496 67.95 256 136 14.2 6.75 28.1 18.494 44 18zm-408-518c-25.755-55.023 27.298-97.517 4-1-1.843-1.068-2.738 4.15-4 1zm1202.25-43.525c-4.964-35.208 37.06 16.916 0 0zM2556 6230c-68.207-64.018-60.31-176.154-47-258.546 22.215-52.148 92.356-10.144 61 34.546 19.528 72.714-44.318 135.776-30 109-5.313 34.878 32.706 90.894 16 115zm-1729-35c10.57-52.17 10.782 34.48 0 0zm-321-41c-30.766-40.994-82.65-116.378-50-152.792 9.828 27.607 41.053 106.285 30 35.792-16.992-28.5-41.967-139.8 7-74 4.598 64.51 32.588 126.62 15.57 190.57zm1212.25-48.496c-5.915-36.197-63.32-79.673-47.64-102.504 25.353 20.204 64.496 78.593 47.64 102.504zM1753 6082c-11.513-24.37-41.392-113.447 7-59-6.187 18.816 12.826 46.6-7 59zm122-4c-31.5-9.043-115.32-76.996-42-54 11.788 11.648 93.446 49.612 42 54zm128-64c-53.405-62.18-104.58-143.275-96-226.766 48.335-47.31 102.285 95.133 44.455 102.22-7.83 42.782 80.943 95.454 51.545 124.546zm423-49c-43.806-31.786 31.583-17.906 0 0zm-739-17c-40.925-58.714-130.597-95.65-148-163.546 32.07-25.584 124.1 33.465 89.513 36.546 30.615 31.58 114.473 88.25 58.487 127zm-1405-30c-55.493-7.784-57.83-122.14-6-56.4 3.36 16.78 42.065 55.334 6 56.4zm1297-14c-48.373-11.614-27.938-85.44 0-27 3.84 7.57 23.36 32 0 27zM365.25 5753.446c-44.943-85.925 42.422-11.25 0 0zM1785 5652c-36.698-9.192-72.543-29.257-78-64 20.454 15.35 109.088 42.642 78 64zm-92.85-68.604c-4.646-6.563 13.767 5.73 0 0zM508 5558c-69.402-9.458-45.697-100.8-116-108-54.142-45.323 34.385-71.22 74-51 14.854-10.205 114.67-38.75 70-51.955-20.894-14.757-71.77-55.202-14-48.045 78.292 17.755 155.986 53.494 228 81 38.402 41.624 10 64.578-35 37-41.952-18.807-158.96 21.863-85 66 37.695 6.935-63.342 12.483-6 30-34.343 23.253-66.122 53.8-116 45zm425-28c-20.06-16.867-115.692-74.037-42.445-62 12.233 13.04 71.923 50.175 42.445 62zm97-46c-55.936-81.49-165.214-88.916-225-161.033 47.74-34.31 87.454 29.97 123.22 47.033 62.076-28.575 148.187 37.348 130.78 97-6.94 6.932-17.28 23.38-29 17zm-261-129c-41.633-38.1-5.115-41.507 6.25 2.97zm-52-2c-53.996-11.218-23.864-72.76 0 0zm-85-44c-22.766-32.7-102.807-10.36-93-55 51.69-13.635 79.86 30.3 109 56h-8zm-199-19c-19.88-38.405 65.528-27.2 13 1l-5.78 1zm71-27c-53.98-35.238 64.504-17.81 0 0zm503.57 1552.57c-21.344-61.624-103.12-74.352-15.57-10.57l12.82 11.928zm260.974-211.026c37.33-45.968-33.322-11.297 0 0zm-34.974-48.974c19.66-37.95 2.14-66.848 0 0zm-46-16c20.23-23.914 40.142-126.5 13.43-65.57.714 19.1-29.956 60-13.43 65.57zm-69.045-19.045c38.048-23.197-2.822-79.358-10.526-19.526-2.737 8.09-7.8 31.006 10.526 19.526zM1157 6454c16.937-62.14-15.286-134.434-24-199.526-59.337-40.15-10.047 44.086-8 71.526 11.162 41.35 10.453 96.203 32 128zm-98.455-65.454c7.395-21.585 40.822-44.064-.545-31.546-20.426-29.998-133.61-19.253-90.546 22 31.535-.2 61.1 10.545 91.09 9.546zm229.98-4.02c35.66-74.627-41.764-97.41-10.526-11.526 3.34 3.568 3.867 24.318 10.526 11.526zM1203 6349c3.17-35.523-29.128-148.136-15-56 2.602 9.927 4.44 86.637 15 56zm-179.43-51.43c24.12-24.78 14.292-62.475 21.183-40.57-62.187-40.833-77.476 17.27-21.183 40.57zm-58-6c-.89-78.794-41.877.22 0 0zm-19.026-91.026c26.548-58.553 53.73-133.484 70.455-50.546 31.523 51.543 14.245-76.255 32-24 21.295-25.976 40.357 59.014 62.57 69.57-.072-56.762-63.412-186.147-118.57-104.792-23.865 31.038-60.692 70.843-56 111.22zM566 5890c28.78-29.517-70.635-87.155-18-22 4.71 6.735 9.662 22.385 18 22zm-56.455-25.454c-13.222-67.628-55.225-29.084 0 0zM2666 5792c50.647-33.937-6.73-125.032 78-146 37.884-41.186-12.813-133.06 72-135 70.743-42.068 3.476-151.253 86-185.022 75.196-48.334-7.017-156.284 63.024-195.978 64.972-24.736 95.66-94.6 64.976-158-28.263-77.092 32.013-117.92 87.514-146.486 79.154-88.45-90.573-201.91 16.486-283.755 63.495-55.79 49.485-144.902-13.988-193.76-71.453-73.027 17.624-152.02 49.988-214 27.254-82.086-111.234-125.957-50-200.02 70.75-75.958 9.942-181.344-57-233.98-54.704-67.574 37.052-117.78 32-184-22.397-70.85-152.506-109.805-91-197 36.27-89.306-13.524-172.484-90-215-58.673-61.605 43.62-162.906-47-213-65.577-30.586-151.854-60.902-138-152 20.455-116.795-168.913-91.77-152-204 35.546-77.212-31.663-130.058-95.764-154-62.335-32.765-98.913-97.038-71.236-166-11.628-69.888-147.863-105.674-78-190 40.84-64.12-97.323-107.813-26-172 45.207-48.05 30.94-118.224-18-158-26.764-123.872-31.637-255.966 37-366 37.44-92.07 134.708-123.444 215-160.052 40.376-54.913-271.23 27.732-131-7.948-79.464 27.384-166.01 83.765-166 174-39.93 102.85-81.117 219.468-43 326 14.07 47.736-83.235-20.92-55 50-5.626-40.38-6.687 50.824-10-44 52.12 68.91-6.633 116.93-30.22 92 37.54 27.713 134.13 4.513 124.22 67.578-32.827 28.13-8.974 113.714-64 49.422-34.112 68.52-67.78 43.538-42-28-10.065 39.27 2.35 83.276-54 82.955-53.88 52.72 70.276 27.788 100 35.045 48.344 4.168 102.86 32.547 69 87 2.403 74.314-90.508 25.843-54 24 6.962 82.81-35.33-1.276-47-22 4.34 41.743 13.23 80.775-21 100 53.474 27.83 152.82 6.767 211 49-10.635 64.958 5.8 127.64 28.57 185.57-55.035 1.187-61.963-74.883-94.57-90.57-10.942 36.684 50.24 105.746 12.22 110-37.74-7.094-30.2-108.055-52.22-78 3.004 43.41 39.558 89.574 14.917 120 78.905-.44 183.535-4.967 246.083 46-1.378 49.75 34.21 92.99 54.57 134.57-50.972 14.926-75.978-83.185-97.57-68.57-1.1 23.054 44.694 114.658-4 66.066-26.572-12.416-46.4-116.754-49-52.066 18.235 47.254 15.82 111.39-30 36-34.77-126.39-15.625 16.623-17 9 .08 48.183-10.947 60.692 44 64 85.015 18.57 197.543-14.02 269 35.4-3.17 53.518 12.57 104.19 30.57 152.17-45.633 10.22-61.72-77.582-87.57-58.57-6.207 23.09 35.276 104.003-15 48-14.463-24.077-29.066-98.367-41-34 17.092 32.513 7.156 100.845-32 49.78-27.47-26.124 21.893-113.062-17-103.78-18.848 36.365 17.444 160.018-35 109-9.487-28.584-23.74-101.762-29-35 8.748 25.322 10.032 96.76-21 46 .26-55.747-37.442-65.134-17-4 46.318 83.205 169.325 29.29 248 49 67.628 1.65 190.16-1.728 168 102 5.505 105.147-65.085-70.43-50-21.545-45.595-4.464-2.988 73.238 4 100.117-54.142 14.773-46.276-100.098-79-89.57-16.563 36.047 49.523 126.887-26.533 106-33.26-26.782-10.68-165.273-37.467-78 16.127 40.13 8.628 128.06-41 69-1.104-40.11-7.137-125.623-18-40 28.17 39.47-24.308 104.523-38 42-2.96-74.64-16.084-99.1-14 3 11.062 69.42-48.575 26.8-40-22-20.17 72.098 62.415 82.45 119.583 73.25 107.23 1.137 222.586 2.15 322.39 41.75 16.08 55.884-23.1 125.647 10.026 185-27.036 5.525-70.518-67.244-50-106-51.176-10.383-2.345 86.94-20.973 117-47.97-26.786-13.4-92.31-41.56-126-41.233 29.616 21.736 182.724-48.467 118-25.67-19.977-22.494-120.87-33-49 25.106 78.31-19.538-64.43-35 5-2.66-94.092-5.602 30.836-19 59-57.38 20.05-6.552-139.896-37.25-69.417 17.444 39.318-62.05-14.797-43.75 50.417-10.97-100.86-13.175 5.834-5 26-47.947 47.848 66.933 20.18 93.66 28.75 103.89 10.653 212.03 31.59 306.34 76.183-15.023 60.88-13.73 123.373 3.546 182.612-79.602 2.7-48.423-112.212-57.546-157.546-65.835 8.628 4.48 142.172-42.22 142-37.707-36.607-9.367-119.64-33.78-137.57-49.815 33.217 23.392 165.645-57.526 129.57-49.046-33.34 19.05-114.205-18.02-133.545-37.615 40.77 7.152 121.973-32.454 143.545-69.415 5.44-5.676-121.91-33-106-4.058 39.11-8.085 157.777-54 86-1.244-37.765 10.113-117.9-7-43 19.24 41.282 6.704 98.458-11.655 89 139.393 8.145 286.145 22.803 405.655 100.43 12.838 56.81-34.65 113.128-34.57 163.57-47.773-22.89 11.718-110.682-19.43-109-28.55 26.286-29.663 89.548-53.766 99-46.868-33.14 54.235-123.783.245-114-37.205 27.835-33.45 93.578-58.478 114-57.302-35.68 18.767-93.06 6.02-130-51.016 26.997-29.195 116.465-78.565 128-21.14-22.195 21.598-145.127-19.454-65 7.283 43.526-41.75 114.25-75 61 1.217-27.82 35.473-133.37-7-61.78 8.975 40.53-91.74 1.017-54 67.78.907-29.992 28.6-121.655-5-58-16.497 35.606 5.86 76.696-23 104 141.954-10.914 277.048 41.387 409.78 86 32.047 48.084-56.737 95.988-33.78 156-53.64-8.086.808-96.572-31.776-100-58.83 16.502-15.915 139.198-52.224 118-28.227-40.03 20.98-105.416-4.533-132-59.188 26.902.012 146.977-63.038 142-35.414-32.185 22.828-102.932-4.43-124.22-46.6 33.438 8.303 139.624-66 118.22-27.152-30.19 33.905-122.923-2-108-30.832 30.586-17.498 108.042-64.546 108-27.874-18.923 43.14-133.922 2.546-77-14.783 29.256-20.114 118.015-61 67 6.505-31.753 8.818-88.836-10-32 1.775 50.5-44.197 95.72-42 72 111.518-16.39 218.615 22.312 327 47 46.606 28.89 120.57 39.742 149 81-49.066 62.084-70.3 140.518-57 217-52.515-17.452-60.518-115.607-26-163-25.887-3.145-50.983 63.003-52 94 15 41.643-38.792 81.917-39.25 18.417-14.323-50.007 43.273-105.656 26.25-144.417-63.836 33.488-36.154 134.638-79 165-64.867-19.25 21.718-111.574-10.533-131-41.983 21.157-3.322 142.99-73.038 104-28.647-28.21 27.043-120.18-5.43-110-19.65 34.838-.867 132.994-62.546 99.546-11.592-24.94 30.1-138.925-6.454-73.546-10.153 34.658-4.126 111.433-61 72-17.296-28.03 43.775-99.428 13-83.22-31.452 33.858 4.806 116.435-64 93.22-3.243-27.308 19.45-97.36-10-40-21.64 91.773 104.917 43.928 154 83 101.044 22.28 199.95 62.27 294.533 100.467-6.53 51.156-67.816 93.58-76.533 149.533-48.67-3.536 9.132-133.842-52-65-16.33 22.606-21.502 94.48-53 44-23.263-36.114 83-128.97 5-76-35.246 18.45-50.04 113.873-77 44 13.056-30.967 40.726-88.956-7-30.4 2.164 44.997-61.618 55.553-50 4.823 31.164-32.897 10.298-48.743-10-5.02-36.72 55.122-47.536-30.977-20-57.4-15.672 3.64-66.327 101.707-94 41.78 23.097-39.32 7.128-51.43-12-8.78-3.528 41.08-133.827 6.257-65 30 138.303 12.65 255.815 89.5 372.916 157 61.52 29.877 38.447 83.908 2.084 122-18.26 67.134-41.388-4.703-32-43.766-23.282 5.408-67.404 95.832-62 8.766 15.704-26.38 29.845-67.618-6-30.474-24.802 20.688-41.166 89.43-62 29.474 4.31-24.31 47.63-101.98 5-54-2.023 46.306-61.984 89.436-69 26 27.336-43.323 8.877-50.732-14-4-41.88 50.373-81.922-41.193-37-74 20.638-45.483-48.374 37.794-47.454 65.546-56.197 13.017-55.732-39.45-31.546-71.546-37.595 12.6-136.17 40.502-73.57 63.43 145.132 43.953 281.187 123.52 398.57 220.57-13.387 32.905-46.264 61.936-63.235 95.204-22.16-27.102-17.22-86.803-44.765-29.204-36.376 59.55-17.278-53.36-23-74-32.97 18.36-13.82 117.218-62 61.78 2.8-23.33 6.425-117.128-6-44.696-3.04 72.838-102.352 10.482-48-35.033 35.6-58.287-29.785 12.755-30 39.896-78.4 26.536-15.427-75.5-20-84.947-31.852 16.647-33.707 121.225-71 50 15.543-30.404 31.87-70.813-4-22 1.362 62.716-91.975 23.65-42-18.966-.187-50.14-100.72 12.676-58 43.966-69.486 2.53 44.82 16.384 68 31 73.72 19.844 142.102 48.063 204 93 39.188 26.37 121.535 67.83 109 105-31.286 16.892-74.55 76.4-64 2-5.22-61.866-77.514 81.1-77 3 22.383-29.515 10.8-63.6-9-18-26.068 55.002-72.783-3.288-41.43-34.57-19.69 34.538-79.664 33.947-41.57-13.43-14.092-17.932-40.173 56.98-72.57 16.57 16.34-40.246 10.268-41.515-13.857-6.57-33.527-2.367-106.27-41.643-115.57-13 127.047 20.497 223.925 119.44 325 189.935 60.98 22.2-13.84 59.36-34 95.065-31.936-21.313 14.732-101.59-46.24-39-38.3-11.333-117.226-17.894-67.76-26-37.813-18.02 19.01-78.487-35.934-30-23.173-30.165-92.67 7.977-42.845-22-7.997-29.82-74.77-10.484-48.792-56-20.625 30.476-58.27 30.14-3.43 50 100.09 69.323 168.004 184.894 281 234 5.412-1.6 11.29 5.49 16 3zm-415-4042c-83.126-28.842-27.943-148.068-19-209 13.765 63.896 17.284 142.062 30.546 207.545l-7 2.455zM614.57 5767.572c1.053-19.196-28.287-2.602 0 0zm84.43-19.098c-7.295-22.716-70.558-75.915-67.522-46.952 22.726 8.168 51.03 63.153 67.522 46.952zm-174.43-22.902c-3.683-24.91-36.4-8.437 0 0zm74.974-11.026c2.308-25.356-35.838-5.515 0 0zm1568.966-68.034c44.106-33.036-36.17-125.54 53.022-115.512 30.415-48.283-55.344-130.106 27.22-163 56.136-47.27-64.252-133.926 18.214-174 46.633-43 16.763-106.125-15.218-145.583-9.78-56.144 77.325-83.448 31.25-147.417-55.06-41.805-71.18-116.684-4-159 35.716-75.007-27.33-125.814-82-159-36.006-49.04-23.003-108.274 12-152 41.4-85.274-81.085-103.094-82-181-15.48-51.587 65.557-102.717 17-158-20.9-69.934-135.825-138.258-59-214 45.84-63.667-7.7-124.875-69.75-144-51.192-37.21-115.633-113.196-62.25-175 44.38-116.78-90.594-137.855-124-223-56.322-95.562 25.83-236.494-85-307-79.764-35.63-129.842-116.788-107-204-5.885-72.44-60.585-123.47-125.76-146-114.473-58.517 12.79-224.476-112.24-271-85.814-35.324-119.326-123.247-113-211-9.243-84.317-94.068-107.868-160-134-91.09-62.026-27.162-226.748-145-255-70.855-10.668-171.825-63.39-125-149 19.688-129.606-162.204-124.328-192-230 27.317-73.4 17.32-176.418-71.516-194-59.087-41.12-118.75-98.18-90.484-178 21.76-94.395-130.727-116.83-81-217 27.726-63.68 96.27-130.785 39-199.78-13.582-74.192 20.946-149.513 38-221.82C567.71 285.89 698.85 187.807 851 181c64.607-26.09 136.268 13.1 196 6 49.707-30.213-58.244-70.085-86-87-87.2-10.49-185.28-53.61-264-20.467-47.726 68.044-77.538 87.943-83 95.467-45.193-3.91-32.752 70.562-88 71-30.403 32.578-77.87 69.98-102.467 114 54.133-51.42 21.983 25.155 1.467 50-21.354 80.264-58.335 154.482-62 238-20.457 30.7-122.986 36.415-83 17-14.838-24.85-46.826 29.46-75 11 32.1 48.45 153.345-5.305 177 61.682-65.706 56.16-37.483 151.027 2 210.9-57.813 9.18-76.922-101.485-99-118.583.066 31.25 34.45 143.364-25 97.78-7.755-26.523-33.898-99.902-18-35.78 31.983 73.896-50.56 74.36-44 10-24.556-39.447 10.184 53.4 6 73.57 71.07-3.075 155.99 12.964 221 51.43-14.987 74.253 8.673 156.7 62 206-48.012-6.824-88.214-59.235-111-102-17.104 43.647 84.184 114.424 5 114-48.41-20.554-27.762-107-54-130-15.488 49.018 69.785 142.22-5.63 154-30.652-16.918-43.378-138.765-39.37-57 19.36 30.74 21.3 103.068-21 49-24.97-61-34.82 29.91 11 32 98.828.486 216.426-31.635 313.754 14 14.66 56.764-21.375 134.51 22.246 192-26.804 41.05-66.752-64.684-66-100-27.625-35.523-10.558 72.787 3 102 31.28 33.86-8.327 51.207-21 11-31.918-32.5-28.22-98.186-58.57-119.57-2.122 52.863 31.5 111.34 42.57 150.57-71.065 27.394-42.442-86.626-78-110-9.478 43.834 74.624 145.47-16 123.57-23.66-29.655-18.176-110.407-39-105.57-16.324 49.796 36.516 99.57 27 137 122.93-7.4 261.126-40.103 376 11-4.007 56.882-10.86 120.718 11 174-56.102-.27-56.345-84.406-92-104-14.79 49.69 56.546 108.78 27 144-47.767-5.654-37.76-111.444-65-90-14.744 32.41 48.054 95.674 1.474 102-33.076-35.273-27.885-99.735-51.045-132.57-13.37 44.09 47.762 117.557 5.57 140.57-52.48-.197-35.11-117.398-60-112-19.756 45.7 74.81 144.32-19 132-26.982-26.54-16.92-77.545-42-98 3.84 50.72 25.275 149.002 96 109 119.766-13.645 239.946-.188 355.22 19 50.47 33.06 21.687 115.744 63.78 163 32.264 32.817 24.18 54.434-14.22 23-36.325 5.723-54.182-95.18-73.78-70 4.845 33.947 58.5 93.5 22.4 102-50.314-30.95-41.373-111.276-74.973-140.57-11.856 50.422 37.88 105.242 22.57 145.57-65.772 7.755-32.287-127.408-66-122-7.156 35.336 47.827 157.172-19 121-18.955-30.673-19.106-78.47-32.324-101.767-21.677 40.9 56.197 125.624-15.713 125.767-25.416-26.915-32.48-164.093-29.963-60 28.46 37.015-2.573 111.79-38.5 52-5.032-70.1 30.82 49.452 3.5 18-23.027 63.73 85.803-1.244 120 23 126.14-7.395 265.106.246 387 29 3.335 80.815 14.95 173.64 89 224.026-57.436 2.438-114.086-60.627-124-119.572-24.724 19.05 24.917 87.612 45 123.545-27.965 21.927-71.053-56.184-87-85-3.936-57.59-8.243 74.902-24-9-.473 42.99 59.39 80.37 46 114-85.715 8.67-72.593-122.96-104-159-17.753 60.905 45.04 114.77 39 169-82.505 21.72-84.712-110.746-107-146-21.95 57.868 47.55 118.025 34 164-62.997 21.477-58.185-72.426-86-96-15.78 43.478 68.784 100.898 10.22 122-16.804-13.58-44.345-39.866-18.248-4 31.35 51.494 108.846-5.742 162.027 3 96.24-.767 210.366-17.518 296 25.43-23.79 57.76 17.5 126.69 26 171.57-46.926-8.056-54.966-84.005-76-91.57-25.903 43.1 67.53 116.836 3.22 123.57-46.574-20.1-20.17-123.074-59.22-114-1.017 46.853 55.158 141.908-27.518 132-52.25-25.216-6.748-115.636-48.027-131.545-22.56 49.026 57.1 146.586-27.98 147.545-49.674-21.026-16.342-139.272-43.474-122-19.93 39.68 34.478 107.792 3 133-71.486 40.464-41.675-132.836-67-89-6.202 41.055 18.192 86.763 18.583 121.25 151.172-4.243 317.244-48.926 461.417 8.75-7.074 51.64-129.275 101.478-55 114.43-15.815 53.103 52.65 106.572 42.545 145.57-57.774-12.232-78.105-98.003-85.545-152-20.628-72.433-13.35 52.16 1 77 4.287 27.156 48.237 86.486-5.516 79-46.337-30.516-35.106-106.94-55.484-136-26.787 49.965 37.505 111.755 12 148-82.777 36.832-61.57-88.767-73.57-132-40.514 44.803 19.484 130.23-21.43 157-84.02 19.032-42.168-98.887-59.955-143-49.656 45.52-1.457 117.558-14.045 162-70.682 22.602 19.744 20.35 50 11 148.69-14.413 307.65-1.293 445.207 46.764-30.2 82.674 27.92 163.794 52.364 229.236-61.258 1.946-74.412-87.65-103.57-107-4.864 34.934 36.914 96.805 16.474 113-52.67-37.45-26.867-127.058-68.474-160-12.112 56.097 42.794 129.43 14 173-54.7 25.427-54.09-119.52-56-11-11.05 54.997-83.875 5.62-66-41-12.736-65.09-21.203 46.375-16 69.546-52.462 55.93-65.967-32.972-71-70.546-27.56 35.454 26.776 138.73-53.533 122.533 8.605-54.22-25.073-126.448-28.467-40.533-4.782 44.938 11.724 93.578 63 59 144.1-50.94 296.79-16.582 442.522-13 27.808 43.162-8.292 108.436 25.478 158.22 6.776 26.434 52.556 96.313-3 55.78-48.07-9.043-37.897-97.96-69-94 2.885 55.066 48.582 106.26 55.655 150-60-1.758-66.47-109.494-90.905-120.417-17.25 49.505 47.673 97.53 30.03 134.417-64.726 9.67-37.66-88.084-68.78-116-8.2 40.8 54.338 141.135-19.533 132-15.462-31.157-25.883-72.565-32.467-100-6.13 46.71 38.53 124.758-43 116-33.817-9.498-10.064-133.085-28-62 26.448 41.142-24.287 115.102-59 66-22.517-109.095-48.47 65.516-22 35-40.214 33.445-49.95-14.008-54-46-9.6 19.807-4.287 109.48 40.78 73 157.58-61.622 330.506-54.086 490.22-34-17.233 69.183 11.72 135.527 43.813 194.33-43.373 8.455-76.356-85.722-95.812-66.33 12.08 41.52 53.418 110.665-13 61.973-23.48-24.96-27.153-113.87-35.25-34.39 15.393 28.456 17.8 112.672-22.75 60.417-15.494-19.807-7.316-123.67-22-67 1.038 42.885 27.157 121.803-49.545 89-34.013-52.955-18.084-86.484-27.455-22 9.048 56.29-88.287 36.4-59-18.63-22.698-27.58 8.433 83.92-50 67.63-40.655 12.47-31.52-81.387-36 1.526-27.178 66.633-77.033-55.74-60 29.474-19.828 12.64-76.722 43.263-22 28 163.07-24.775 333.7-37.41 494.533-14.533-1.83 50.95-10.755 104.77 14.038 153.105-32.18 10.18-81.508-94.6-63.57-16.57 18.99 63.965-55.37 1.22-49.545-36-4.87 24.575-80.847 4.122-45.455 60-4.406-62.403-7.608 62.635-12-6.454 7.004 56.324-73.233 12.962-103.545 28.454-24.156-55.275-74.223 17.383-40.87 6.75-42.117-24.166-48.98 20.702-99.667 13.25-76.16 31.48 65.205 40.33 90.083 29 123.183-1.397 254.063 11.578 372 43.78-9.032 31.663-60.42 100.317-16 127.188-55.053-76.708-55.305 22.59-28.454 47.578-43.22 14.53-42.575-102.057-61.546-62.546 27.812 53.93-27.616 89.507-35 27-24.335-108.545-94 13.068-41 34-29.052-28.013-75.14 16.57-94-30-34.698 49.847-122.187 74.642-92 29-47.3-17.866-47.363 85.105-37.467 3.533-96.176-5.62 116.65 6.355 55.467 28.467 141.378 4.896 287.333 21.084 424.754 61 26.793 27.343-13.342 92.728-24.693 106-28.49-50.41-45.228 72.76-44.06 25.57-45.23 34.6-12.497-121.984-41-47.57 10.37 77.824-.618-70.015-31-13 1.51-73.12-27.67 31.333-24 56.57-40.94 6.028-135.45-3.056-98-1.57-13.21-55.87 2.06-12.565-29 6-37.614-46.48-102.724-6.028-62.57-8-19.336-59.42-82.392 1.967-44.43 5-33.387-6.41-85.895-3.172-119 15 15.705 52.582 127.06-3.143 173 25 116.876 19.06 250.804 25.66 350 90.474-1.554 24.8-12.636 96.667-37.43 41.955-33.32-4.596-22.96 106.714-50.57 32.57 2.886-71.04-26.1-28.2-26.454 13.546-50.025 26.247-19.354-82.626-49.546-19.546-45.72 48.585-10.07-103.55-37-24-18.22 66.7-45.805-5.7-51.5-32.643 14.77 50.37-59.386 86.083-41.5 14.643-24.4-24.662-9.3 63.858-47.57 36-1.06-88.018-51.408 48.712-34.845-.75-31.38-3.597-31.474-83.66-45.583-15.717-51.93 28.338-106.25 80.427-72 13.467-57.512 26.634-25.814-105.716-62-33-17.65 88.042 97.504 35.752 151 66 130.722 30.95 271.962 34.99 394.546 96.454-1.292 22.144-17 128.9-38.546 75.546-16.105-46.728-29.033-11.8-40.583 13.25-22.796-26.813-26.722-116.078-31.417-31.25-4.48 72.572-53.897-11.084-54-16-.484 78.473-71.49-.056-71-9-18.024 74.64-44.682-67.768-48.455 6.546-41.4 21.798-36.334-73.13-49.545-9.325-48.114 27.4-44.9-96.47-55-24.22-12.51 54.74-62.02-48.885-59.455 5.546-58.197 29.522-25.56-85.558-53.545-30.546-11.227 52.443-48.37-7.6-46.917-27.095-25.088 32.657 52.258 97.774 1.917 130.095 19.967 70.734-68.135 16.63-18.962-10-15.977-21.44-48.87-105.115-59.038-56 17.704 32.283 51.864 92.218 8.25 107.583 10.064 36.884 79.94 2.077 112.97 30.417 73.976.017 133.236 53.976 201.994 70 82.948 29.48 158.992 77.98 238.786 112-1.35 37.547-19.938 96.444-33 31.467-35.5-3.16-84.405-27.623-62-8.455-34.238 4.372-114.075-18.07-78-20.512 5.17-30.983 20.045-61.193-11-16.5-31.513 49.074-39.984-30.355-46-26-36.12 73.23-27.522-40.82-31-36-2.658 34.49-47.68 78.757-45 18 21.56-50.145-10.242-16.714-19.455 15.546-75.57-2.443 17.58 25.736 46.455 35.454 99.4 52.335 197.952 105.598 295.4 162 15.672 1.444 35.232 22.5 46.1-.488zM2077 5405c-22.432-10.352-26.685-76.236-40-23.454-41.067 34.22-23.62-76.657-52-11.753-37.715 26.377-32.952-67.292-53-7.792-35-2.574-42.003-32.755-39-52.4-13.896 62.572-74.502 4.867-54-20.6-4.746 53.467-68.193 25.332-58.083-9-4.756 53.83-54.307.77-49.917-8.57-22.838 60.155-44.876-19.938-38.962-41.43-17.276 19.325-25.403 82.278-55.038 32 8.153-44.743 23.1-101.224 79-72 114.685 11.265 205.178 77.23 317 104 48.226 12.302 145.492 30.282 94.24 97.222-37.227-53-32.77-11.844-50.24 13.778zm-521.75-111.525c-5.327-10.334 10.695 6.265 0 0zM1663 5160c5.1-7.175 5.1 7.175 0 0zm-318-1653.57c17.708-26.178 6.14 22.527 0 0zm-104.75-392.924c-1.558-6.722 6.99 2.318 0 0zM1575 3042c-48.183 5.877-91.786-112.34-28-46.988 7.64 11.237 66.026 45.295 28 46.988zM400.25 627.475C393.817 588.785 385.61 471.643 436 482c-3.704 46-6.208 106.008-28 147zM745 162.43c8.423-13 11.4 7.265 0 0zM436.57 5621.572c4.313-44.31-112.84-79.76-50.795-36.57 16.797 12.182 31.43 28.782 50.795 36.57zm1309-199c16.437-35.24-19.447-19.158 0 0zM2411 5361c31.502-28.224-12.554-9.46 0 0zm-1269.43-40.43c-50.94-60.117-62.074-75.19-46.57-68.57-72.78-19.526-145.23-13.02-214-49-33.776-17.44-125.93-14.467-45-1 86.996 40.338 181.796 68.543 265 109 15.705-2.81 25.554 11.68 40.57 9.57zM861 5259c-24.165-22.33-94.796-24.2-108-8 33.564-6.72 82.772 19.33 108 8zm254.57-28.43c-31.375-62.263-125.213-50.733-172.57-87.105 31.747-36.687 125.907-23.018 124 25.533 43.4 20.813 95.864 25.252 62-14 76.46 26.236 119.737-26.287 81-33 37.176-5.48-42.536-33.794-63-43-115.914-33.48-263.768-38.222-358 48 7.983 16.48 66.408 6.712 96 20 81.06 15.083 158.196 46.23 230.57 83.57zM855 5131c-45.422-30.256 112.236-53.03 31-5-8.768 5.987-20.82 6.88-31 5zm1743-846c10.93-42.612-7.665-32.303 0 0zM1171 3133.084c-.718-31.646-30.41-113.552-24-31.538 13.714 6.44 15.684 27.27 24 31.538zm-693-1276c5.152-26.64-30.435-11.813 0 0zm1603.57-125.512c-.192-39.945 12.617-146.132 4.43-172.57-6.588 57.04-17.608 120.158-4.43 172.57zm-1724.76-156.24c-6.102-49.88-37.93-35.72 0 0zM266 600.084c2.462-22.1-7.904 8.702 0 0zM332 599c-4.546-69.334 12.674-135.12 56-188-50.552 33.886-80.6 134.24-56 188zm74.533-210.467c25.54-32.93-13.025-4.643 0 0z"/></svg>