<svg xmlns="http://www.w3.org/2000/svg" width="1421.735" height="765.953"><path fill="currentColor" d="M382.042 765.953c-20.92-1.04-40.546-9.05-59.163-17.76-12.048-8.183-29.8-23.635-18.277-39.04 3.536-8.19 9.578-19.192-3.136-23.04-12.14-5.497-24.996-14.28-37.504-5.92-11.47-.45-22.67-4.437-34.56-4-16.48-5.595-32.11-8.982-46.68-18.24-15.943-17.465-31.422-37.202-48.84-52-11.443-7.354-18.783-19.056-29.92-26.88-16.647-17.63-35.824-33.696-57.726-44.8-13.895-8.85-23.076-22.683-26.274-38.72-14.086-28.49-18.02-60.268-18.4-91.52-3.526-14.767.022-31.517 0-45.44-.332-4.283-.884-9.65.96-16.96-1.346-9.005 5.375-16.975 6.404-24 .53-5.542 7.438-12.617 6.236-20.32 5.055-6.13 1.456-15.326 8.96-20.285 3.74-17.258 10.58-33.89 18.88-49.955 4.58-8.767 9.24-17.894 15.52-26.24 7.604-19.986 17.638-40.207 33.6-54.88 16.528-12.343 30.872-26.935 45.6-41.12 19.184-7.71 35.74-19.428 51.68-32.32 24.7-13.704 51.2-25.463 75.904-40.8 31.05-18.438 69.383-15.167 103.616-21.6 31.826-3.573 65.017-8.087 97.6-7.68 34.862-.773 69.963-6.694 104.64 3.36 15.74 3.595 31.818 6.694 46.24 13.6 17.3 2.687 33.22 9.734 47.875 19.36 24.673 16.34 45.157 38.5 69.405 55.68 22.27 19.487 50.89 31.8 70.56 54.01 10.245 13.868 19.468 28.293 25.6 44.52 10.523 19.34 20.552 38.868 33.44 56.512 2.597 9.532 9.783 16.25 11.84 26.24 9.08 18.934 18.512 38.107 34.56 52.8 4.352 9.45 12.716 15.86 18.944 23.68 11.07 5.203 17.474 17.338 29.376 22.24 28.525 16.955 54.853 36.078 83.84 51.84 11.18 2.647 17.89 11.188 28 15.84 7.63 6.878 19.612 7.054 25.6 16 12.286 4.085 18.998 15.544 31.802 18.88 16.102 9.935 33.246 19.406 49.318 29.047 6.105 2.45 13.05 4.326 16.96 8.073 5.09 2.953 10.68 6.603 16.32 9.527 15.485 11.254 34.3 16.46 49.6 28.393 21.056 7.333 37.336 24.31 56.797 35.04 17.755 17.5 39.438 31.002 55.043 50.713 7.392 10.1 16.046 18.692 23.36 28.683 3.546 10.26 12.856 17.53 14.08 28.445 4.316 11.675 5.76 23.506 8.64 35.29 8 7.907.808 24.29-11.52 17.03-31.352-2.084-58.83-21.236-90.08-22.72-36.5-1.803-73.694-7.655-110.4-13.92-19.463-6.583-40.5-7.83-60.64-13.28-21.444-1.685-43.3-8.19-64-10.88-30.438-5.646-61.378-7.517-91.68-12.32-14.592-1.71-28.97-.2-42.56-4-19.96 1.986-40.528-1.64-60.32-.8-28.182-3.115-51.81-.25-79.933 3.24-16.88 5.525-37.355 1.902-54.787 8.6l-67.36 11.04c-9.388 4.54-18.8 1.556-27.04 4.96-16.715 7.736-37.062 5.057-54.893 9.44-21.426 3.814-42.615-.053-63.347 5.12-15.626 8.144-36.007 2.785-50.24 15.84-14.027 8.04-27.818 15.947-42.56 23.04-14.108 7.306-27.7 15.964-44.64 14.88-6.763.833-13.782-.86-20.32.48zm1012.732-39.43c.713-11.503-3.575-23.484-7.61-34.33-8.996-18.6-20.98-35.415-36.32-49.28-17.93-22.56-42.63-36.74-65.76-52.96-22.855-13.94-46.988-25.626-71.68-36-19.295-12.714-41.552-20.62-61.28-32.48-37.713-19.85-72.32-45.118-108.96-67.04-33.657-21.073-66.457-43.71-99.52-65.92-11.25-5.65-21.765-12.912-31.395-20.32-13.25-16.45-34.805-26.95-40.765-48.48-10.778-21.46-18.86-43.946-31.04-64.675-8.163-22.158-20.654-41.868-31.2-62.845-13.478-24.142-31.162-46.484-55.52-60.64-28.168-19.917-54.43-42.803-81.76-63.04-12.176-4.6-24.392-8.883-34.685-17.28-26.27-18.186-58.246-25.626-89.635-26.24-38.27-2.593-76.69-1.3-115.04.32-41.09 4.643-82.815 3.732-122.387 15.68-17.81.31-32.957 9.452-48.653 16.64-20.13 14.953-44.007 22.504-63.68 37.44-26.635 18.53-54.044 37.538-78.24 59.68-18.5 20.704-38.008 43.015-47.04 69.44 5.543 7.567 7.143-10.167 14.645-6.08 3.77-4.683 9.882-10.05 5.995.64-1.87 11.224-5.505 21.142-15.04 28.125-4.69 7.21-5.994 16.355-6.72 24.607 12.346 1.38 3.998-22.704 18.01-23.61 2.03 6.98-8.1 15.267-8.25 24 1.944 12.863-4.38 24.66-2.88 37.44 5.884 9.597 6.268-17.44 8.32-10.24-1.026 3.145-1.58 21.77 6.72 12.48.814-6.047 11.462-13.973 6.56-3.395-2.372 7.907-6.63 22.208.8 26.755 5.45-8.84-.21-24.398 4.8-32.32 12.896 1.923-.18 20.052 4 28.64.067 6.177-.803 20.717 6.647 20.96 2.187-8.648-5.13-21.63 6.953-26.24-.055-9.166 13.404-10.867 8.96-.32-5.262 11.69-11.62 25.67-1.76 36.96 6.957-1.962-2.458-16.823 3.68-23.52 3.793-9.858 17.658 1.104 10.56 9.28 1.66 8 .774 19.54 7.767 24.64 4.778-5.893-5.01-17.967-1.207-26.24 3.008-7.54 10.703 11.44 12.64-2.88 7.08-18.42 12.72-40.323 29.12-52 1.775 8.458-6.358 18.65-5.28 28-4.226 5.58.14 21.39 5.76 9.28 6.442-11.313 9.01-26.084 17.652-35.163-2.533 14.242-10.372 27.658-12.372 42.523-5.32 13.476 4.7 27.808-3.52 40.64-4.267 19.074.333 42.14-10.24 59.2-14.565 10.448-32.72 13.176-49.44 18.56-7.958.657-9.837 11.192-19.2 6.08-6.463-4.915-17.05-.59-9.92 7.36-.116 6.675-10.74 6.156-7.2 16 6.896 13.822-14.535 14.57-18.72 3.36-3.622-4.538-13.302-16.91-.64-10.88 16.82 1.937-1.13-10.933-5.76-15.68-7.894-.635-15.367-17.75-2.88-12.8 4.92 1.215 18.02 9.776 16.96-.12-18.28-11.016-35.47-25.73-40-47.4-3.925-14.075-9.916-28.4-10.4-42.56.917-4.694 3.946-10.968 5.92-3.243 12.053 10.473 3.438-10.054 6.4-13.877 4.324 1.315 12.07 15.623 13.92 3.68-2.332-6.88-1.087-25.842-12.16-21.44-.73 7.79-1.082 18.45-10.24 12.48 2.06-15.082-7.525-32.772 4.802-45.12 2.56 6.18 9.76 12.65 11.038 1.76 1.36-8 6.98-26.035-6.653-20.64-12.914 14.01-16.35 32.704-22.307 49.92-6.022 11.853-6.414 26.894-10.08 39.2.746 23.5-2.69 49.417 6.4 71.36-2.218 15.856 1.327 31.52 5.28 46.24 8.69 19.88 22.874 37.34 41.76 49.845 14.454 10.744 28.807 22.303 41.76 34.315 6.573 2.5 6.68 7.572 11.84 10.24 17.25 9.095 30.394 26.757 43.84 41.12 13.117 16.312 27.31 31.52 42.24 46.24 9.442 5.4 20.575 7.926 30.656 7.52 11.662 1.78-7.847-3.12-12.416-5.6-2.646-3.562 13.522-4.036 2.24-9.44-6.3-6.684-14.14-15.38-12.8-25.28 6.23-13.22 17.162-26.395 33.28-25.12 13.163-1.506 23.283 5.862 34.595 10.4 11.734-3.777-3.307-14.788-9.315-17.444-5.353-3.36 1.145-10.867-7.68-13.116-5.47-5.088-26.833-.994-13.44 3.68 8.104 6.71-6.505 3.686-10.56 5.76-5.406 1.08-22.163-2.616-9.28-5.76 11.97-2.98-4.6-11.943-10.56-11.36-9.25-5.235 3.246-4.508 6.275-.32 9.83 5.738 1.232-11.274 12.925-4.96 9.343 1.964 19.068-.293 28.16 5.12 16.296-.044 30.277 9.867 45.28 12.32 8.618 7.648 14.81 17.265 21.44 26.72 8.84 5.247-2.8 18.338 8.404 19.276 8.17 13.446-10.42 30.017 1.996 42.886 7.373 9.915 16.945 1.9 27.04 4.398 14.115-4.39 26.488-9.834 41.856-10.88 9.965-6.852 22.244-9.168 32.864-14.24-4.512.37-19.18 2.243-8.515-4.64 10.97-4.752 22.54-8.345 32.995-14.72 26.516-10.956 52.898-23.394 80.16-32.32 21.145-7.27 42.577-12.986 64.64-14.24l90.333-22.4c35.567-11.554 73.08-25.87 110.787-24.8 30.606 1.9 57.32 13.444 88.16 15.68 14.076 5.288 30.182.814 43.68 9.44 18.9 1.668 35.752 11.496 54.56 14.56 10.54 4.38 23.4 5.124 33.6 8 6.298.64 7.34 4.282 14.08 4.16 5.942 2.22 16.268 4.666 19.2 7.04 12.662 7.7 30.475 11.753 45.44 17.76l106.56 42.72c22.53 10.7 45.767 19.5 69.28 27.84 26.04 9.175 52.204 18.1 77.28 29.76 7.114 1.407 13.172 6.035 20.09 7.77zm-70.17-56.57c-10.008-7.136-23.47-15.455-26.56-28 3.336-13.283 21.833-2.995 28.148 3.2 8.444 5.406 20.316 26.315 2.252 24.8l-1.92.16zm-1099.68-9.6c-6.27-1.737-21.055-10.527-15.52-14.88 4.343 5.622 18.764 7 16.48 14.88l-.48.16-.48-.16zm1042.56-4.48c-14.562-4.716-27.824-15.082-43.36-15.84-14.8-7.06-29.227-14.56-44.32-20.96-20.613-7.5-41.112-17.128-60.96-25.28-31.248-22.73-67.57-38.245-98.08-62.24-9.83-6.415-20.914-2.11-29.76 3.2-23.635 1.65-46.512-3.567-68.8-8.96-27.847-8.525-49.237-29.957-68.57-50.08-8.792-5.33-13.422-16.004-15.75-23.84-7.93-8.516-20.894-7.58-28.32-17.44-12.457-7.204-16.635-23.623-27.2-33.28-8.598-9.52-20.818-35.91 1.367-34.167.483 13.816 4.32-2.168 10.313 1.687 8.37 1.596 3.835 5.425-.8 7.52 2.487.67 21.188 1.896 9.453 7.04-5.38-2.335-21.063-3.458-15.213 5.76 6.026-3.26 17.47-.186 9.28 7.36 1.747 16.282 16.078 1.672 24.8 4 16.06 1.66 33.82 3.054 50.24 5.92 26.424 12.967 52.683 25.86 80.16 36.48 9.78-.717 17.175 10.383 26.807 10.56 10.125 7.79 26.694 6.958 34.953 17.76 7.278.654 10.144 4.148 14.654 8.36 7.724 2.703 16.06 11.856 23.747 14.2-.897 3.882 4.607-2.13 2.884 2.88 13.66 7.347 28.333 20.066 44.44 27.84 35.554 21.795 72.832 41.647 106.435 66.24 17.3 10.14 33.775 22.866 51.04 33.124 7.95 7.294 29.235 20.265 15.84 31.516-1.75.03-3.59.887-5.28.64zm-55.04-51.45c-8.39-6.097-17.134-13.683-27.2-15.177 9.466 4.323 17.678 12.865 27.2 15.177zm-29.44-17.19c-6.385-7.035-18.52-11.44-26.88-18.08-15.143-6.142-27.493-20.205-42.88-24.515 19.705 14.745 42.357 26.297 63.555 39.555 2.12.495 4.35 4.02 6.205 3.04zm-59.2-24.96c-3.95-5.695-13.55-8.444-19.84-12.96-9.124-4.793-17.65-10.846-27.253-14.53 4.52 6.922 17.76 11.848 26.293 17.57 6.455 3.257 14.755 8.798 20.8 9.92zm-14.72-19.84c-1.42-3.938-17.157-12.38-11.04-6.24 3.914.835 7.04 6.93 11.04 6.24zm-34.56-8.32c11.018-4.513-2.777-1.5 0 0zm18.56-2.81c-3.647-5.094-17.004-10.844-5.44-1.99 1.263.422 4.85 4.402 5.44 1.99zm-47.68-9.28c-2.422-2.762-.452 1.086 0 0zm-4.8-.71c-.41-.574-.41.574 0 0zm-.96-.96c-.41-.574-.41.574 0 0zm36.8-.25c-4.19-4.61-6.896-2.5 0 0zm-38.08-.07c-.41-.574-.41.574 0 0zm-1.92-.8c-6.444-8.84-19.386-11.53-28.48-17.92-20.728-9.724-40.88-20.58-61.12-31.2-6.025-2.592-13.947-7.23-5.6.8 5.072 1.325 13.57 8 4.32 4.16-4.93-3.866-8.277-.893-2.08 3.2 8.793-3.85 15.302 9.338 23.43 7.59 7.898 1.097 13.496 10.462 22.81 9.85 10.394 7.383 23.05 10.67 33.245 17.44 6.023-2.282 8.656 5.74 13.476 6.08zm4.16.073c-2.324-2.97-1.748.845 0 0zm26.24-5.764c-5.415-6.122-7.474-2.37 0 0zm-121.92-2.47c2.794-5.792-13.16-5.42-2.24-.64.634.283 1.748.837 2.24.64zm48.09-.71c-1.055-5.393-4.787-.917 0 0zm-34.97-.89c-.498-5.597-12.657-7.894-18.24-11.84-11.22-1.668 10.388 8.523 14.964 8.8 1.417-.794 1.898 3.937 3.276 3.04zm30.72-1.28c-.84-.6-.84.6 0 0zm-1.92-2.484c-3.738-4.255-21.674-8.25-9.024-2.476 2.815 2.05 5.774 2.258 9.024 2.476zm-52.71-.784c-2.93-4.748-18.164-11.73-8.73-3.13.492 4.117 5.927 2.535 8.73 3.13zm26.79-11.61c-5.707-5.127-7.775.18 0 0zm53.44-2.4c-.797-2.78-.898 2.673 0 0zm-3.84-1.685c-3.73-5.716-2.742 2.732 0 0zm-59.2-.875c-5.317-4.412-7.002-.414 0 0zm-53.66-1.998c-1.566-3.464-5.616 1.485 0 0zm35.42-5.614c-.558-1.32-1.993.586 0 0zm91.52-4.07c-2.077-1.3-.245.94 0 0zm-47.36-5.367c-3.386-4.15-4.098 1.082 0 0zm-43.2-.233c-1.265-.594-1.265.594 0 0zm-3.2-1.37c-2.44-2.878-2.6.423 0 0zm.64.09c-.41-.574-.41.574 0 0zm38.49-1.67c-1.52-5.89-4.93 2.192 0 0zm-46.49-.25c-.76-5.58-13.43-3.006 0 0zm9.6-2.067c2.8-3.974-11.872-6.293-16.16-9.933-8.503-2.56-16.093-9.252-24.567-10.487 9.916 9.647 26.916 11.84 38.807 20.407.573.338 1.353.504 1.92.013zm29.44-2.733c-.84-.6-.84.6 0 0zm-5.12-.41c-3.232-3.738-6.57-.93 0 0zm39.36-.23c-.41-.574-.41.574 0 0zm-43.84-1.847c-1.056-2.994-1.877 1.232 0 0zm-4.39-3.34c-1.152-4.082-7.282-.215 0 0zm-54.17-2.65c-3.75-5.17-3.34 2.723 0 0zm46.72-.405c-5.002-6.764-8.973.686 0 0zm-8.64-1.597c-2.414-6.452-14.812-3.958-4.16-1.517 1.475.037 2.966 2.422 4.16 1.517zm-108.96-9.997c-.41-.574-.41.574 0 0zm-432.92 204.874c-.203-6.637 6.41-19.142 14.2-14.314 10.82-7.408 10.614-23.92 15.68-35.52 1.945-5.337 4.85-21.86-2.72-9.6-.166 4.57-4.157 18.547-8.48 11.2 3.5-9.616-6.798-15.624-4-25.92-4.272-8.382-12.97-4.674-6.4 4.48-.58 11.962 3.8 23.342 3.04 35.607 6.772 4.61.942 6.125-3.52 1.513-3.456 7.28-9.937 14.408-19.36 13.28-2.7 1.54-9.34 11.927-7.52 2.24 1.84-6.367-1.03-13.946-.32-21.12-.24-3.924-1.41-26.8 4.64-16.16 2.002 5.476-4.918 19.173 3.927 17.76 6.214-8.15.178-16.513-2.327-23.2 6.34-12.988-4.345-21.028-9.28-31.36-4.153-5.655.108-11.85 5.44-5.12 7.316.06 15.94 16.923 18.4 3.753 10.094-3.844 22.86 4.457 34.24-.233 14.46.506-6.798 18.916 2.24 20.796 3.18-7.775 16.555-21.565 2.24-25.756-19.306 1.01-39.2-.696-57.76-6.24-8.584-6.937-22.494-14.375-29.28-.316-2.92 6.67 1.324 15.306-10.56 11.996-11.553-2.603-10.587 8.498-.96 9.6 4.567 1.983 17.68 4.647 15.04 9.44-9.012-2.833-20.416-6.446-28.395-5.355-12.822 2.823-20.405-13.765-33.456-14.805-17.272-13.173-36.453-24.31-47.43-44.16-15.566-14.83-22.99-34.7-27.84-55.04-6.758-16.402-.068-35.112-.96-52.16 2.84-27.927 7.153-55.506 16-81.92 7.63-18.57 17.28-36.18 29.28-52.44 21.027-22.58 46.883-41.35 75.68-52.2 22.607-11.59 49.698-11.058 74.4-12.48 34.922-2.025 71.063.055 104 13.28 17.836 1.9 30.697 16.858 46.88 22.88 10.968 13.703 26.614 20.982 35.68 36.48 11.758 10.482 22.153 26.143 35.2 33.28 1.002 13.043 8.572 24.95 11.04 38.08 3.222 3.344 6.022 18.705 9.12 10.88-1.38-7.474-12.013-12.384-7.52-21.28 7.92-5.643 11.217 8.105 11.52 13.845-6.54 4.716 1.417 15.598 5.76 19.595 10.37 2.795 4.173 21.144 12.57 23.36 1.2-6.848.215-20.18-7.13-24-5.984.845-6.138-21.39-1.92-10.275 4.932 10.383 6.214-2.306 6.316-4.697 5.858 3.996 15.754-2.652 10.324-10.148 4.692-9.9 10.098 6.323 11.84 11.318 8.378 9.694 5.59-10.464 14.333-9.878 7.308 3.038 10.182 6.87 3.907 12.09 8.312 8.855 24.547 4.986 32.96 15.27 26.455 20.142 45.392 48.464 59.2 78.166 14.015 17.955 9.718 42.117 11.2 62.634-10.447 21.514-37.107 22.485-57.12 28.64-30.554 6.235-61.593 16.736-92.8 19.2-19.68 5.79-40.078 6.993-59.853 8.32-4.9-.32-12.57 1.584-15.187 3.04 17.163-.553 33.996 1.165 51.2-1.28 4.813 2.248-9.42 3.27-13.12 5.76-15.544-3.278-31.734.11-46.365 5.6-17.884 3.412-35.85 5.74-53.09 9.92-9.637 4.98-19.498 7.193-29.184 11.68-5.834 5.14-1.607 9.016 3.904 3.2 9.887-2.087 19.56-6.665 28.736-10.08 5.36.455 20.347-5.2 18.56-1.92l-52 19.52c-14.04 9.417-30.312 14.52-45.44 19.04-1.663-3.44 10.388-6.93 15.36-9.76 5.98-2.077 14.528-12.55 3.52-7.36-14.785 3.873-27.622 13.417-40.96 19.755-6.046 8.7-20.17 7.582-30.08 10.005-1.59-.192-3.72.445-5.24-.407zm1.08-29.994c7.965-1.852 6.424-22.173-1.12-12.96 1.6 4.006-8.342 13.438 1.12 12.96zm89.92-7.04c8.89-8.263 19.526-11.614 30.365-16 9.175-4.628 15.252-13.234 2.275-6.88-9.287 6.4-21.914 5.193-28.035 16-2.876.504-10.868 6.917-4.605 6.88zM389.97 593.08c5.55-7.712.888-23.17-7.373-25.613-4.48 7.954 5.916 15.686 3.925 24.364.55 1.196 2.222 2.22 3.447 1.248zm153.833-5.847c6.915-4.282 23.12-.177 23.84-9.76-12.605 4.965-26.772 4.8-39.52 4.16 2.037 4.785 10.945 5.688 15.68 5.6zm92.16-25.92c6.16-1.162 28.115 1.014 21.174-7.64-11.263-1.396-3.113-5.957 4.426-4.2 9.652 2.727 9.296-7.04.96-6.72-13.168.374-5.915-5.905 1.6-5.12 18.806-12.425 25.692-36.67 46.08-47.194 17.366-14.438 38.49-23.902 60.16-30.726 9.4-6.394 8.493-19.552 3.64-28.854-3.882-11.434-10.016-2.573-13.4 2.934-9.546 1.468-16.204 11.515-26.4 7.36-5.592.218-20.312 8.16-10.24 12 12.545 3.098 19.094-10 30.08-11.84 7.13-5.623 10.435 5.39 1.28 5.44-5.633 2.205-12.062 6.883-3.84 11.678-7.333 6.225-16.866-5.766-25.6-.798-7.238-2.63-24.353 10.874-9.403 11.68 12.516 1.73-5.68 14.497-11.717 13.28-5.764-1.13-25.042 6.63-17.76 13.28 5.425 3.784-6.007 10.645-7.84 15.52-11.922-3.982 2.23-16.495 3.68-23.84 6.78-12.564 18.62-19.05 28.8-27.52-2.064-10.104-15.39-1.62-17.122 5.44-5.124 4.855-12.28.855-17.132 5.76-.925-8.815 4.314-21.286-2.867-30.08-2.183-6.917-3.643-15.238-9.12-20.16.113 11.666 5.98 25.326-.16 35.84-11.204-3.782 1.965 10.52-.64 15.36-3.35 23.22-22.788 38.176-39.52 52.32-4.78 9.597-12.893 19.84-13.12 30.08 5.796 5.853 16.17 5.367 24 6.72zm8.96-10.72c.302-1.122.78.747 0 0zm47.04-55.52c.84-.6.84.6 0 0zm-234.72 59.52c3.177-5.054 18.226-8.087 15.107-11.36-3.815 3.732-18.517 5.848-15.107 11.36zm237.28-3.84c5.402-5.685-8.268.135 0 0zm21.047-5.673c-.886-8.713-13.283 2.487 0 0zm-222.487-3.287c7.003-2.674 17.228-3.906 21.44-9.37-6.633.916-17.994 5.255-21.44 9.37zm202.327-.233c1.254-10.597-24.1-3.46-9.207-.407 3.07.053 6.222.968 9.207.407zm-87.927-.727c4.944-5.183 18.462-15.848 10.317-22.88-6.232 5.815-10.005 13.996-15.117 20.884.72 2.227 2.984 2.39 4.8 1.996zm-121.76-3.2c5.42-2.908 17.884-7.542 17.28-10.56-6.298 3.087-15.922 5.02-19.32 10.48l2.04.08zm232.16-.96c12.002-1.07-7.29-6.056-12.48-7.36-5.558-2.845-21.725-.483-9.76 3.68 7.024 2.625 14.935 2.65 22.24 3.68zm-268-2.88c27.44.004 52.237-17.01 67.123-39.2 9.98-8.475 12.78-21.49 16.557-32.29 13.044-12.643 8.5-36.26 11.36-47.71 3.157 10.452 4.755-1.373 2.24-6.72-.09-10.18-2.34-26.352-12.32-29.92-9.308-6.47-13.177-21.73-24.757-27.36-8.945-6.348-7.545-16.684-15.243-24.32-1.623-10.46-16.393-15.75-25.12-21.6-9.28-1.8-14.986-7.77-21.44-13.795 7.16 1.91 14.185-.223 3.84-3.165-4.116-1.72-16.457-3.284-15.52-.16 13.47 3.46-17.293 2.38-4.64 5.6 3.724.03 18.638.38 16.073 4.96-4.91-3.396-16.543-4.365-18.078-.235 6.983 2.2 17.475 1.032 22.577 6.086-7.37 2.1-19.214-2.462-24.656 4.44 7.742 3.282 27.614-2.532 29.364 5.23-7.014-2.426-10.324 1.533-2.24 3.84 21.587 2.57 39.256 17.283 51.2 34.71 10.118 8.958 14.056 23.166 22.08 33.61 3 7.46 4.22 1.66 2.955-3.605 9.136 1.937 8.83 16.047 12.405 23.765 1.362 12.08-8.846-12.77-5.4 1.213-.008 17.94 4.194 39.078-8.84 54.147-4.483 10.44-19.454 16.392-20 27.875 6.51-2.55 12.047-15.464 18.277-15.996-8.16 11.97-18.103 23.132-26.597 34.36-13.8 13.833-32.955 21.95-52.8 23.04-4.43 1.976-1.443 3.62 1.6 3.2zm20.16-220.16c-6.58-6.143-3.133-2.74 0 0zm-6.72-4.16c-9.755-2.388-2.582-8.597 2.24-.41.5 1.43-1.82.163-2.24.41zm-8.92-4.084c-1.298-3.663 5.72 1.293 0 0zm-40.68 222.324c1.05-7.202-14.2-5.28-20.32-8.48-22.974-5.277-49.2-11.343-63.84-31.68-9.156-16.53-14.315-34.75-18.15-53.21-4.33 2.2-.056 12.32-4.73 16.41-1.097 5.908 7.505 22.962-.16 18.56-8.375-10.065-1.424 7 2.56 9.56 12.298 12.44 20.252 30.177 35.125 38.76.613-4.358.087-8.828 5.835-3.13 16.458 14.99 43.512 8.313 63.68 13.21zm-77.44-24.96c-9.242-8.317-18.83-18.917-24.8-29.28 3.722-4.412-2.403-23.992 2.4-11.52 6.71 11.373 9.1 25.076 18.88 34.97 1.1 1.764 3.588 4.218 3.52 5.83zm170.24 23.36c9.39-1.483-.558-5.66 0 0zm227.36-1.6c-2.106-6.13-15.32-6.53-22.24-9.44-11.47-3.192-5.868 6.906 2.72 4.96 6.53 1.493 12.87 4.014 19.52 4.48zm-139.52-1.6c4.687-7.365-9.693-11.136-3.04-1.44.587.95 1.843 2.005 3.04 1.44zm184.887-1.193c-1.436-9.046-17.386-5.348-24.407-10.487-13.315 1.632-26.736-10.607-38.72-5.44 16.057 5.244 34.523 8.75 50.88 15.36 3.82 1.374 8.552 1.382 12.247.567zm-244.407-2.007c2.984-3.175 15.52-16.766 5.637-10.08-.935 2.164-13.7 9.877-5.637 10.08zm-17.76-2.24c-.3-1.634-.897 1.18 0 0zm102.627-9.32c7.137-1.96 6.41-19.775-.227-21.56-3.325 3.63-2.786 18.805.227 21.56zm-9.347-6.36c6.673-4.246-8.695-12.64-3.52-1.12 1.043.478 2.355 1.442 3.52 1.12zm25.76-1.44c4.167-4.237 4.342-22.417-4.8-16.96 1.32 4.16-1.085 17.363 4.8 16.96zm-104.8-5.76c10.14-10.507 19.1-21.68 22.53-36.213-11.656 2.06-5.417 24.182-18.37 23.733 3.366-9.813 13.63-18.15 9.6-28.8 4.1-7.88 2.817-17.497 8.393-24 7.453-5.342 3.406-20.308 3.767-28.96-3.683-15.466-8.843-31.856-15.2-46.88.885-9.373-9.286-17.196-13.92-25.28-5.804-9.908-10.817-4.783-2.24 1.918 8.385 10.36 15.58 20.93 16.8 34.242 9.003 20.06 13.17 42.082 10.72 63.68-4.627-.596-1.63-14.605-5.12-3.2-.77 14.755-5.538 29.28-10.56 42.847-3.273 3.422-11.718 16.86-3.11 15.942 2.044 4.218-6.54 8.686-3.29 10.97zm57.92-.8c8.204-3.403-11.666-20.373-7.52-8.16 1.858 2.867 4.245 7.478 7.52 8.16zm-325.835-2.315c.76-5.305-8.222-8.698-10.074-13.845-2.5 3.457 6.6 12.428 10.074 13.845zm32.006-.314c-1.905-9.743-14.958-17.917-12.57-29.53 1.515-10.882-13.74-6.716-7.52 1.6-6.4 5.833 16.67 12.5 5.6 7.077 4.244 7.154 7.546 16.632 14.49 20.854zm-22.564-1.444c-.657-7.272-8.11-15.83-12.727-20.407.65 7.497 7.273 16.65 12.727 20.407zm28.233-2.007c4.025-3.877-8.846-16.813-4-6.88-.338 2.704 2 5.988 4 6.88zm349.92-3.2c5.207-5.86-.572-21.8-7.925-23.2-2.408 6.494 5.177 14.274 4.725 21.685.6 1.046 1.936 2.1 3.2 1.515zm-375.84-4.96c-3.51-6.44-3.72-15.683-7.45-20.48-7.884 1.362 4 22.943 7.45 20.48zm337.44-3.36c7.117-4.716-6.057-23.74-13.28-18.08 2.554 6.134 8.117 14.406 13.28 18.08zm-45.67-.71c12.646-11.248 13.304-29.838 10.79-44.57-3.215 7.817-5.49 4.73-2.08-1.92.187-5.525 4.836-19.143.32-20.16 2.006 13.7-10.875 27.796-5.92 39.84 1.585-1.86 4.462-11.21 5.12-1.92 2.117 10.563-6.545 19.744-10.073 28.36zm6.19-35.53c-.792-5.18 4.127 1.17 0 0zm24.205 33.925c3.54-9.3-14.154-10.37-5.205-1.405.985 1.625 3.567 2.532 5.205 1.405zm25.442-7.198c4.266-6.947-9.46-25.91-14.327-16.407 4.963 4.868 6.93 15.705 14.327 16.407zm-61.367-6.1c-.6-2.033-2.117 1.146 0 0zm72.054-.43c8.132-6.132-4.904-19.617-10.866-24.44-5.502 7.413 6.468 14.617 7.93 22.644.885.22 1.52 2.576 2.934 1.796zm-342.615-1.88c9.46-1.24-1.144-16.596 6.88-21.28-1.4-8.644 6.442-20.97-.16-27.2-.575 14.546-6.31 27.766-9.6 40.96 1.446 2.2-1.144 8.78 2.88 7.52zm13.687-2.473c-1.027-12.596 1.425-25.55 2.473-38.647 1.743-15.223 5.77-30.31 12.2-44.2-9.345 7.31-12.932 23.316-15.24 35.4-2.022 11.878-.782 24.872-3.68 36.64 2.952 2.614-.13 11.407 4.247 10.807zm381.993-3.607c9.843-1.137 3.585-18.84-1.76-8.8-.336 2.744-3.85 9.927 1.76 8.8zm-91.273-5.673c.888-8.178-11.994-2.93 0 0zm108.873-1.367c4.886-3.398 19.866-4.606 15.04-12.16-6.212-2.377-21.83 8.298-15.04 12.16zm-62.476-1.836c3.48-10.555-9.748-16.73-16.558-20.404-1.125-5.078-14.488-10.83-9.286-2.28 8.308 7.64 16.6 15.66 24.404 23.4zm-82.393-.153c2.905-8.005.303-11.206-1.37-1.85-1.114 1.462-.916 2.857 1.37 1.85zm21.44-.32c.393-2.152-1.646.963 0 0zm30.31-3.13c5.07-7.744-10.88-15.554-17.92-18.56-7.39 2.6 12.528 17.812 17.92 18.56zm68.16-7.36c7.333-4.42-.86-17.11-2.24-22.72-6.997 3.576 1.853 15.334-.96 21.85.74.937 2.095 1.25 3.2.87zm-113.6-.32c4.054-3.18-.652-21.286-.12-9.187 1.424 2.364-3.157 8.883.12 9.187zm-304.8-.32c4.89-4.263-4.77.315 0 0zm480.16-2.56c8.138.703 14.79-4.132 13.12-12 10.833-3.544-7.658-12.71-13.12-7.52-8.833 3.413-3.497 5.96 3.36 3.36 6.016 7.286-17.9 9.585-6.24 16.16l1.44.16zm-31.68-.96c6.095-3.946 15.346-5.285 18.88-12.087-7.1-3.62-20.328 3.903-22.08 10.608.447 1.097 2.202 1.674 3.2 1.48zm-425.03-.71c2.354-4.96-1.095-19.83-.73-5.69-.072 1.454-2.638 6.888.73 5.69zm366.47-3.13c11.442-6.392-15.91-13.597-5.787-3.506 1.868.967 3.737 3.437 5.787 3.506zm52.885-6.475c2.082-10.4 14.448-13.546 22.315-8.885 7.32-4.384 21.794.737 24.64-7.68-9.967-6.066-21.42 7.726-32 1.6-11.853 1.54-10.668-20.818-3.277-22.56 8.632 3.832 3.534 22.044 15.437 15.2 6.87.245 18.954-6.334 5.44-5.92-7.275 5.102-14.873-4.1-8.96-9.613-4.8-7.997-18.896-4.094-20.64-15.347-9.872-3.71-8.013 11.545-3.2 16.96 1.535 12.098-3.304 24.48-2.68 36.396l1.365.394 1.56-.545zm-120.405-.565c3.834-7.547 3.13-23.92-3.4-27.107 4.6 8.4.537 19.746 3.08 27.107l.16.16.16-.16zm109.687-.553c4.465-6.867 3.956-20.535-3.064-23.927-4.698 3.17-8.69 18.64.355 17.6 4.978 1.222-2.376 7.76 2.71 6.327zm-29.916-3.036c-2.327-14.84-12.522-27.62-12.57-42.97-1.298-8.025-6.988-6.79-2.08.32.857 15.424 6.018 30.384 14.65 42.65zM291.4 409.72c.353-3.92 6-19.033-.567-12.887-.48 3.686-3.66 12.077.567 12.887zm-32.482-.802c-.8-8.563-1.026-18.578-4.245-26.645-1.857 8.122 1.796 21.118 4.245 26.645zm347.915-.885c7.35-7.064-14.676-2.647 0 0zm-322.72-.96c3.454-2.68 4.676-21.228.8-12-.09 3.888-3.334 8.66-.8 12zm341.28-.64c8.604-7.174-18.188-14.65-9.28-4.48 3.873.188 5.335 5.33 9.28 4.48zm-351.115-1.355c3.527-5.126.662-17.173-1.365-6.005.182 1.303-1.345 7.4 1.365 6.005zm294.886-1.594c.46-14.87-11.02-25.086-17.693-36.89.338 6.806 4.465 18.436 9.847 24.32 5.077 1.264 4.718 11.56 7.846 12.57zm-266.72-2.88c1.718-7.55 7.275-15.9 5.513-23.13-3.852 5.343-11.916 19.056-5.513 23.13zM649 400.12c.21-13.8-22.785-6.796-5.047-.567 1.55.564 3.46 1.35 5.047.567zm-75.767-.087c2.907-5.15-5.38-8.926-.96-.84l.84.99zm106.24-1.92c9.03-2.217-1.034-26.207-6.24-12.32-.176 4.092.75 12.32 6.24 12.32zM276.38 389.55c.318-2.505-1.988 1.17 0 0zm21.503-1.358c7.126-12.832 14.13-27.33 28.8-33.683 12.384-11.146 22.608-24.997 39.68-29.037 19.33-9.022 42.45-6.383 61.92-13.28-6.473-3.873-20.2-.058-28.96.48-7.377-.828-15.358 5.45-21.44 1.117 8.88-6.384 23.397-1.75 32-5.862-9.022-2.02-14.708-11.44-25.6-7.255-8.732 5.52-18.312-.2-27.2 4.32-11.248-.244-19.43 10.53-30.973 9.12-7.1 4.71-23.476 10.185-20.534 18.24 8.31-10.386 8.588.083.91 3.2-5.63 5.553-12.492 13.67-13.317 20.8 5.6-3.44 10.07-18.17 15.753-15.04-6.893 8.25-10.98 18.278-14.56 28.16 6.215-3.535 5.072-14.508 12-19.2 1.985-6.1 15.797-12.198 7.2-2.4 5.675 2.216 16.727-12.263 23.04-18.4 9.493-8.084 2.438 1.242-.32 6.034 3.067 8.917-11.895 13.462-16.8 19.235-11.632 4.103-22.392 21.333-21.6 33.44zm26.28-52.404c-1.87-7.445 14.654-14.92 6.52-4.396-1.804 1.2-3.602 5.327-6.52 4.396zm-10.113-.19c1.868-8.996 11.3-6.552 2.393-.365l-.48.32-1.913.045zm43.993-18.445c-3.933-11.95 12.178-9.693 18.4-8.48-3.928 7.577-11.68 6.336-18.4 8.48zm-75.84 69.12c4.107-6.327-.805-7.55-2.88-2.4-3.656-.808 2.046 4.42 2.88 2.4zm287.767-.553c5.146-13.602-5.737-24.99-11.063-36.727-7.645-4.364 2.58 11.195 2.816 15.966 5.797 5.396 2.914 17.394 8.247 20.762zm28.873-.727c5.865-8.933-10.643-3.29 0 0zm21.12 0c13.895-.55-6.204-11.327-4.16-2.153 1.08.81 2.757 2.36 4.16 2.153zm-349.19-1.67c3.044-8.018 3.98-17.01 7.5-24.09-7.78 5.556-9.39 16.582-8.46 24.32zm417.03.07c6.91-3.54.958-24.47-6.24-14.88.29 5.44 1.93 11.61 6.24 14.88zm-109.03-.71c.51-16.167-.835-33.698-15.3-44.57-12.852-8.92-17.34-23.71-25.76-35.52-5.898-5.487-15.866-14.942-23.84-13.06 10.303 8.002 23.434 16.23 27.113 30.268 12.145 10.507 21.965 24.43 30.647 37.993 4.604 7.6.756 18.3 7.13 24.89zm-34.97-5.69c-.988-12.388-9.904-24.99-20.48-31.807-2.213-4.796-.99-10.602-7.84-16.1-4.185-4.087-13.7-14.284-8-3.133 8.12 11.88 18.295 23.796 21.6 37.243 4.3 5.545 10.777 8.396 14.72 13.797zm89.365-6.795c5.774-5.706-17.185-11.648-9.5-3.605 3.737-.09 5.915 4.92 9.5 3.605zm-25.685-10.965c-4.604-7.177-5.593 2.468 0 0zm-81.92-.48c-4.45-6.283-10.723-20.756-19.36-22.093 5.622 7.105 11.41 17.214 19.36 22.093zm-266.315-1.035c3.935-16.286 13.982-30.873 19.435-46.737 11.193-11.573 19.872-27.124 36.416-31.75 5.052-4.76 9.96-2.108 1.735 2.56-6.853 8.152 7.185-1.65 11.61-3.52 4.97-.753 14.015-8.9 4.64-5.12-6.426 1.038-8.904 1.285-13.92 1.28-20.294 4.5-35.322 22.207-44.32 39.715-4.025 9.296-8.013 22.143-14.72 27.416-7.764-2.06-6.643.08-2.88 2.31 5.16 4.42-2.984 12.016 2.005 13.845zm21.355-4.013c-.986-2.714 1.547-1.353 0 0zm3.925-.147c2.078-6.602-4.71 2.38 0 0zm263.115-11.445c-5.47-10-13.633-21.96-22.56-27.68-2.263 2.58 8.14 11.67 11.36 16.638 3.057 3 8.61 13.002 11.2 11.042zm62.08-5.12c1.47-4.28-3.11-.26 0 0zm-318.79-7.43c5.806-10.287 20.49-20.384 22.344-29.21-11.8 5.907-18.45 17.976-22.344 29.21zm-7.68-4.48c6.284-9.712 13.076-19.436 21.35-27.45 9.998-4.492-7.865-3.78-8.64 3.52-5.73 7.302-12 14.916-14.36 23.756zm213.596-4.324c-1.88-6.756-6.518-14.778-11.695-17.775.26 4.986-18.205-7.616-9.993 2.007 8.395 3.447 15.165 10.843 21.687 15.767zm40.964-1.116c.385-3.784-2.518 1.288 0 0zm-2.33-3.77c-4.49-9.655-13.406-19.707-23.447-22.167 6.147 7.68 14.988 15.882 22.967 22.647l.48-.48zm-13.76-2.4c.45-7.693-21.997-20.243-8.4-6.72 2.43 2.554 5.464 4.783 8.4 6.72zm-11.04-3.04c3.928-3.95-16.5-14.548-8.48-4.96 2.993 1.338 5.18 5.046 8.48 4.96zm-176.64-4.8c5.495-1.19 18.037-6.28 5.6-4.96-1.942.926-12.188 3.33-5.6 4.96zm162.88-.247c-6.052-10.99-10.422-1.5 0 0zm-114.15-11.982c.593-2.93-5.296.354 0 0zm8.23-1.37c-1.7-2.896-2.178 2.804 0 0zm30.4-3.36c19.935-1.75-11.06-5.85-1.76.16zm-40.55-2.63c.336-5.096-4.788.94 0 0zm72.23-1.53c3.886-9.235-14.58-4.686-20.16-5.6-13.113.93-1.897 4.562 6.56 3.2 5.027-.067 8.583 2.988 13.6 2.4zm-75.2-2.24c1.713-3.497-5.54-.31 0 0zm5.76-.96c5.134.6 15.79-3.358 5.76-3.68-2.146.114-13.29.674-5.76 3.68zm97.69-1.03c-.78-5.387-18.004-6.784-7.45-2.17 2.767.12 4.546 3.056 7.45 2.17zm14.876-4.324c-7.503-10.2-23.092-15.572-35.127-21.527-22.12-8.154-46.528-7.798-68.16 1.28-7.097 4.972 8.98 1 12.64-.8 20.825-6.498 45.084-3.835 62.845 9.92 9.214 3.436 18.635 7.783 27.803 11.127zm-111.287-.727c8.57-1.67 6.265-4.574-1.367-2.4-2.926.89.01 3.29 1.367 2.4zm-55.04-4.8c3.48-3.414-3.685-.302 0 0zm53.12-1.6c5.17-.103 21.605-4.955 8.64-4.64-2.698.41-16.158 1.927-8.64 4.64zm73.207-2.153c-2.335-8.866-24.345-4.662-7.607-2.167 2.928-.32 4.926 1.963 7.607 2.167zm-86.327 370.953c-2.294-1.248 2.037.008 0 0zm-10.68-3.606c-6.532-7.09 3.435-26.31 5.08-10.634-.88 3.285-.728 10.81-5.08 10.634zm-155.68-.158c-6.555-5.703-6.478-23.91-16.04-20.556 1.77 10.92-11.12-6.236-16.64-7.68-16.302-13.197-29.033-30.342-47.445-41.28-20.19-19.426-44.806-34.678-64.235-54.4 14.13 5.87 28.955 17.28 42.048 27.2 16.774 12.342 33.142 25.16 49.47 38.4-2.19-10.025-18.172-18.55-26.076-27.36-16.64-16.9-38.552-27.465-53.76-45.6 4.325-9.364 11.95 12.282 18.88 1.6 8.692 1.005 15.134 9.083 17.28 16.565-11.96 4.892 7.597 18.34 10.4 10.635-9.784-11.116 3.9-2.067 8.16 2.4 4.49 5.547 17.83 11.613 9.28 0-1.54-8.368 10.75 7.675 14.56 8.96 5.485-.843 5.925-7.593 12.32-2.4 5.086.03 13.544 9.2 4 5.6-11.9 3.014 5.604 10.53 8.64 15.04 10.226 10.15 24.768 13.385 38.56 12.32 4.3 5.01 9.814 7.673 15.84 9.916-6.776 7.368-16.16 10.905-20.48 20.28-4.585 1.81-15.055 15.215-6.157 16.043 5.326-4.88 11.496-15.456 18.957-13.127-7.963 6.123-17.21 13.56-16.16 24.967-.72.91.953 4.174-1.4 2.476zm-41.96-72.076c-2.53-6.573-13.265-14.866-20.96-14.08.782 7.965 13.7 13.29 20.96 14.08zm227.08 68.72c-.47-3.657 2.855 1 0 0zm-32.36-31.12c-7.21-7.032 7.834-.165 0 0zm-3.04-4.08c-9.088-12.08 9.76-3.3 0 0zm-15.68-7.12c-6.223-3.792-14.5-6.553-19.36-12 .89-14.578 10.953 5.3 18.715 4.48 3.644 1.65 8.673 8.156.645 7.52zm23.04-11.2c-2.454-6.138-14.862-9.392-15.14-13.28 8-6.32 15.756-1.9 17.54 7.68.845 1.327.472 7.155-2.4 5.6zm279.72-4.24c.01-3.067 3.826.527 0 0zm-393.16-13.84c-5.55-8.41 8.957-2.307 0 0zm20-.8c-4.456.09-17.59-5.895-6.24-4.64 3.194-1.464 16.58 5.136 6.24 4.64zm-57.92-3.52c-15.2-2.03-24.98-16.274-40.48-17.44-12.105-6.508-24.34-14.468-32.64-25.28-5.465-11.086-10.357-26.774 4.16-33.6 3.896-8.81 11.594-9.082 19.84-10.88 17.363-3.445 36.814 7.183 43.36 21.44 9.513 5.64 16.5 18.098 22.08 28 6.034 9.242 16.65 28.61 1.12 34.08-5.654 1.828-11.328 4.378-17.44 3.68zm-78.88-25.6c-4.92-6.322-18-10.124-19.2-16.96 9.93-6.506 16.055 8.18 23.04 13.44 1.04 1.937-1.897 4.6-3.84 3.52zm-11.2-10.56c-.84-.6-.84.6 0 0zm-.8-8.8c-9.163-6.814-18.747-28.202-2.473-31.607-.762 7.047-8.048 21.264 2.16 23.607 1.997-7.58 6.722-6.662 7.032.96 2.78 3.976-2.778 8.72-6.72 7.04zm12.64-34.08c-6.33 1.96-15.32-4.03-4.8-4.64 6.113-5.116 19.306-.82 4.8 4.64zm677.44-104.64c-10.537-9.39-26.128-15.374-34.33-27.45 7.404 2.078 15.645 9.904 22.81 7.608-4.14-5.353-14.64-7.863-16.32-12.157 6.426 3.14 15.88-1.497 6.365-6.56-5.34-2.97-18.243-12.042-13.6-15.36 5.788 3.087 12.256 10.67 17.475 10.72-6.007-10.534-20.566-16.687-25.92-25.28 10.97 2.54-4.313-12.78-7.677-16.8-14.968-17.124-26.72-37.233-41.603-54.72-9.673-12.998-23.922-21.737-36.16-32.64-10.8-7.473-24.68-17.177-26.88-30.36 9.46-7.693 17.574 10.78 24.48 15.96 12.154 11.1 24.954 21.56 35.2 34.56 1.824-5.805-7.69-13.322-11.04-19.2-13.34-9.94-19.638-25.128-30.122-37.44-7.195-5.036-13.637-11.835-16.728-20.053 21.396.486 28.034 26.766 42.05 38.858 4.24 5.1 21.545 18.425 18.56 3.755-9.61-11.136-11.692-25.887-23.68-35.52-8.125-11.535-20.75-20.007-30.043-29.333 14.5.327 21.414 17.91 34.203 23.568 8.308 7.644 19.028 9.853 28.48 15.133 6.688 3.74 10.116 14.53 6.72 17.67-3.737-4.46-18.947-10.906-8.96-1.76 6.888 5.302 14.524 14.695 19.52 18.947-4.978-10.518 7.3 1.745 8.64 5.053 4.853 5.21 8.52 17.315 16.567 15.447-4.662-13.606-15.143-27.56-24.247-38.327 20.287 18.07 40.234 41.008 50.88 67.04 3.16 5.544 6.032 18.292-.48 7.2-1.895-8.156-10.183-5.12-2.88 1.6 7.72 15.702 13.248 32.606 25.28 46.08 2.69 3.58 15.598 20.528 3.358 8.32-19.4-18.04-29.368-42.35-43.838-63.675-12.796-13.61-24.662-28.57-37.088-42.245-4.565-2.503-12.005-13.73-14.792-10.44 6.313 8.43 8.707 18.498 17 22.92 5.396 12.116 12.984 24.03 17.28 36.96-5.225-2.306-7.545-13.6-11.2-19.36-1.47-8.068-11.04-9.5-4.64-.96 1.977 5.33 7.008 13.16 6.793 16.96-8.87-9.737-14.398-24.393-22.313-33.44-2.755 10.682 6.342 22.973 11.2 33.28 6.07 9.928 14.56 22.3 24.32 26.56 4.55-4.44-3.875-16.84-2.88-20.25 8.592 4.545 13.74 19.213 24.09 19.223-2.65-10.356-13.582-16.92-16.09-27.604-4.662-8.706 8.357 6.32 9.28 8.437 9.34 11.84 12.592 26.392 20.8 38.755.065 6.802 17.123 20.005 1.92 17.6-12.12-3.22-17.034-17.466-27.84-20.96 5.387 14.554 22.673 22.363 30.4 35.52-11.054-1.712 1.877 10.983 6.324 12.8 10.658 4.997 10.436 16.367-1.56 10.24-5.416 3.527 15.58 11.367 3.11 15.68-8.57 3.53 12.496 6.718.765 9.6l-.96-.16zm-71.27-155.59c-2.66-7.292-5.737.152 0 0zm-17.05-38.17c-.386-1.112-.386 1.112 0 0zm-512.48 184.64c-6.186-10.258 2.643-23.192 5.12-33.76 7.634-23.93 17.734-48.43 34.24-67.52 2.485-.262 7.526-10.247 6.72-3.433-7.61 8.897-12.632 20.583-19.68 30.793-10.9 16.848-16.307 36.335-20.48 55.68-3.24 5.06.412 15.835-5.92 18.24zm456.327-9.235c-.412-1.788 2.752-.45 0 0zm107.233-9.564c.302-3.74 3.537 1.475 0 0zm-625.28-8c-1.538-6.005 4.072-21.097 10.68-11.92 1.545 6.972-3.004 13.735-10.68 11.92zm716.16-16.32c-2.952-5.102 4.493 1.137 0 0zm-34.4-3.05c-6.113-9.27 10.602 4.2 0 0zm-57.96.73c.406-1.225 1.426 1.066 0 0zm90.56-.8c-18.98-10.946-30.28-31.694-43.68-48.48-12.737-21.043-19.65-45.082-35.52-64.32-10.613-17.69-25.743-32.278-39.2-47.36 13.15-3.114 17.55 16.8 26.56 23.616 17.307 25.644 43.502 45.214 53.76 75.104 10.066 17.95 20.432 35.233 32.31 52 2.152 2.198 6.944 6.26 5.77 9.44zm-99.2-8c-3.056-2.118 3.174 1.19 0 0zm-16.96-1.685c-9.483-7.726 4.958-1.738 0 0zm12.16-.235c-16.98-8.695-23.47-28.4-36.48-41.44-2.737-6.474-17.176-11.68-7.36-3.485.558 5.178 2.05 15.47-4.79 6.045-10.936-5.477 2.672-10.914-4.49-15.93-6.697-12.36-17.483-23.37-31.516-25.67-6.392-14.112-13.352-29.853-27.844-37.44-11.47-6.64-27.07-6.73-33.44-20.474-4.412-3.254-14.423-14.663-18.56-8.153 3.586 10.378 15.3 17.836 16.32 28.55-8.485 5.632-9.423-11.172-15.758-15.206-6.46-5.968-14.695-19.84-23.122-15.438 1.644 9.62 9.27 18.35 15.437 25.6 11.355-2.537 11.52 18.67 2.003 15.75-7.078-14.785-16.324-30.082-32.96-35.75-11.662-1.935-21.924-6.915-32-12.96-13.728-4.633-28.247-11.24-42.805-10.485 2.453 9.525 18.673 7.362 26.612 11.285 25.645 7.812 51.482 21.363 66.273 45.28 8.03 8.025-4.996 6.37-6.56-.896-12.556-19.7-35.268-29.94-57.53-31.516 3.295 11.136 20.08 11.122 27.93 19.61 6.713 4.794 19.143 11.785 18.88 19.2-19.644-13.4-42.697-26.492-67.52-20.32-13.24-.18-3.645 8.12 3.907 6.44 22.777 1.844 47.566 10.1 61.533 29.08-7.034 2.938-16.535-7.618-24.64-10.4-14.007-9.662-31.62-7.185-46.88-11.68-19.35-7.393-40.867-5.41-61.12-8.96-24.698-2.542-50.345-6.808-74.24 2.56-12.78 4.268-24.778 8.273-36.48 14.4-18.203 6.702-33.976 19.936-51.2 28.896-6.122 4.372 4.957-7.515 8.244-9.536 6.926-13.124 21.538-17.728 32.716-25.12-2.373-7.94-14.986 1.174-21.44-.8-5.035.78-16.22 9.422-16.32 2.88 3.807-6.9 17.626-6.502 11.763-16.883-8.712-3.734-18.665 12.847-26.003 7.923-5.693-6.386 2.842-18.06-9.28-17.28 5.307-11.154 24.046-16.133 26.72-29.207-3.264-2.03-14.13-.205-7.04-6.953 13.74-5.442 27.803-9.753 41.76-13.92 20.472-7.183 39.936-21.603 62.24-17.44 17.8-3.836 36.774-4.577 53.12-11.68-6.557-6.843-22.725-3.036-32-5.28-12.803 1.36-26.38 2.37-38.642 8.16-7.174 12.97-24.35 5.698-35.918 12-22.07 4.45-44.013 12.716-63.04 24.64-2.403-8.665 9.472-15.666 17.6-17.6 20.502-6.302 39.576-15.558 60.32-21.6 3.397-5.01 21.8-3.665 13.6-8.64-28.198 1.957-57.6 8.17-81.273 24.96-5 7.384-11.578 5.638-13.918-1.92-5.86-1.59-20.752 3.257-19.048-3.767 7.81-5.39-11.422-6.97-.96-11.433 22.46-17.043 46.756-32.817 73.6-41.6 23.28-2.74 45.803-12.488 69.527-13.28 1.655 6.263-14.05 5.6-19.447 8.96-6.142.532-20.03 12.248-6.56 10.08 13.275.86 27.027-4.748 39.927-1.687-4.325 8.566-20.09 6.877-27.418 14.327-12.53 11.288 9.93 5.18 15.824 4.48L421 64.353c6.56-7.307-10.418-7.65-15.287-8.16-6.867-.81-15.198 1.038-20.515-1.44 14.4-4.042 31.007-2.958 46.043-6.153-4.815-7.41-20.23-4.337-29.527-8.247-6.43-2.004-20.14 3.045-22.005-2.965 31.938-5.236 65.564-6.74 98.005-7.275 13.29-4.872 4.088 6.927 12.09 8.64-2.714 6.434-22.617-.165-25.21 11.767-4.154 4.566-22.037 5.25-14.72 13.833 5.776.637 16.424 5.506 4.48 4.8-11.298 2.974-27.863-1.27-35.52 9.44 8.172 9.265 24.496 2.957 35.84 6.72 14.705 1.057 34.182-5.005 45.44 7.287-6.256 3.014-14.054 10.32-1.92 12.873 14.17 2.745 29.66 3.638 40.8 14.72 13.784 3.21 27.254 6.772 41.12 4 10.563 7.01 22.254 14.825 26.72 26.4 12.087 6.38 25.594 11.285 33.28 24.004 9.47 12.803 19.802 23.25 32.32 32.948 6.066 7.122 13.244 14.79 22.97 12.168 14.678 12.815 25.428 29.65 35.27 45.955 5.707 15.608 19.82 26.358 28.16 40.125h-1.28l-1.28-.16zm-84.8-81.69c-.585-2.173-.953.62 0 0zm-125.76-31.11c-.386-1.112-.386 1.112 0 0zm-262.56-4c27.306-10.472 55.194-19.27 83.84-24 9.104 1.003 6.367-8.375-2.24-5.12-27.73 2.665-54.727 11.794-79.36 24.96-2.497-.458-6.66 3.845-2.24 4.16zm54.08-6.72c41.672-12.485 86.7-10.522 129.207-10.473-3.38-8.505-20.725-5.958-29.687-6.647-27.332 1.896-55.2 1.728-82.56 7.36-5.754 2.447-17.733 3.038-18.04 9.68l1.08.08zm-56.32-8.96c15.906-5.224 32.07-10.72 47.68-16.8 9.342-8.24-10.735-.986-15.36 1.12-11.717 2.936-26.19 8.83-34.04 15.6l1.72.08zm4.8-12.16c11.695-4.233 25.156-7.976 34.24-15.68-4.602-3.907-14.74 2.707-21.12 4.48-4.197 6.622-15.32 1.938-5.12-1.28 14.754-5.965 28.81-13.31 42.805-20.8 5.372-8.343-10.347-6.38-14.325-2.72-20.395 4.57-40.204 14.83-55.52 28.8.253 10.667 16.4-4.956 18.08 6.88zm203.444-.876c-1.658-6.25-14.78-5.387-20.884-8.244-23.623-4.826-48.342-2.19-71.765 2.56 2.792 5.813 21.86.706 31.605 1.6 20.546-3.346 41.212 3.17 61.044 4.084zm56.556-8.964c-1.936-10.59-17.61-12.808-26.72-15.6-11.52 3.377 6.852 7.49 11.36 10.56 5.44.48 10.18 5.195 15.36 5.04zm30.4-5.68c-3.393-9.05-17.62-10.457-25.92-15.68-17.334-6.054-35.178-11.35-53.367-12.96-4.34 9.415 16.107 7.37 22.487 10.72 15.388-.052 28.6 9.435 43.04 13.76 4.21 1.325 10.58 5.43 13.76 4.16zm-217.12-1.28c16.75-3.377 33.873-6.016 50.24-9.28-2.775-7.027-16.537-1.815-23.04-2.4-10.642 2-22.48 4.215-31.555 10.598.834 1.684 2.89 1.237 4.355 1.082zm-5.12-8.32c11.213-5.01 26.304-4.4 34.88-12.397-4.792-4.583-15.877.67-23.04 2.157-4.77 2.045-28.968 6.625-11.84 10.24zm125.76-5.76c8.746-4.26-8.212-6.575-13.12-7.36-18.114-.527-38.877-4.536-55.68 1.926 21.94 4.284 46.346 3.4 68.8 5.434zm-50.88-18.24c12.355-3.984 31.428-.658 39.71-7.95-14.905-.97-32.763-2.703-45.79 5.23.47 2.575 4.01 3.108 6.08 2.72zm-179.84-17.6c24.108-10.838 49.522-19.326 75.68-24.48 9.96.175 10.073-11.864-.96-8-20.94-2.623-40.846 4.43-58.685 14.72-7.297 3.072-16.6 9.455-17.635 16.565l1.32 1.344zm484 204.96c-11.782-7.713-25.98-12.248-33.12-25.44-7.89-8.443 2.3-6.474 6.208-.32 7.822 9.26 24.53 16.076 27.712 25.92zm-121.08-6.16c-.9-2.774 2.085.25 0 0zm-1.48-1.84c-6.942-.484-10.345-13.623-1.6-7.587 1.778 1.713 3.128 5.776 1.6 7.587zm-355.16-37.84c1.84-6.64 9.946-10.662 14.52-15.6 2.798 4.358-11.2 10.542-13.44 15.68l-1.08-.08zm495.32-3.44c-2.547-2.373 2.2-1.217 0 0zm13.12-10.88c-6.448-4.49 4.606-3.716 0 0zm-491.04-2.33c1.097-1.982.782.94 0 0zm464.68-52.468c-2.616-2.604 2.156.25 0 0zm2.04-30.96c-15.55-7.794-24.894-23.996-41.44-30.4-6.985-7.227-17.557-9.45-23.84-16.675-2.63-5.368-5.594-10.937 2.88-7.165 18.96 5.494 27.797 25.556 45.376 33.76 6.957 5.562 19.988 8.458 19.264 18.965.103-.583-1.754 2.123-2.24 1.515zm-64.96-52.32c-.41-.574-.41.574 0 0zm-518.24 25.92c.41-.574.41.574 0 0zm224.2-70.16c2.2-5.872 6.237.774 0 0zm-5.44-17.6c.26-3.674 4.482-.016 0 0zm892.052 662.41c-4.888-6.332-19.024-3.377-27.13-6.17-11.676-.514 7.075 4.015 10.4 4.32 5.557 1.193 11.08 1.004 16.73 1.85zm15.84-2.24c-4.052-6.252-15.25-8.21-22.17-12.57-15.664-6.56-33.015-8.265-48-16.32-18.235-6.2-35.965-14.273-54.205-20.16-33.023-12.555-66.774-22.888-100.035-35.2-31.536-10.573-65.223-13.545-96.16-25.28-23.862-7.93-48.438-12.7-72-21.92-12.04-.798-24.096-5.997-35.84-5.76-16.133-3.14-32.086-3.27-48.48-3.2-14.545.277-29.184 4.872-42.72 7.04-14.08 3.035-26.975 4.487-40.32 10.56-20.897 9.602-43.855 11.216-65.76 17.28-1.492 3.865 14.218-.29 4.48 6.4-6.244 2.648-17.597 1.48-20.48 6.08 21.027-1.908 41.794-7.945 60.8-17.12 15.82-3.045 29.41-13.56 45.76-14.56 14.384-7.65 32.535-9.116 48.893-12.68 17.15-1.088 35.092.373 50.147 8.84 18.894 4.264 37.126 11.25 55.776 17.28 4.672 3.934 12.998-.05 14.784 4.48 3.51-5.76 8.703 5.207 11.2 3.36 2.817-2.632 6.167 5.83 12.48 5.76 4.876-2.286 7.995 2.682 10.4 2.72 9.482 4.444 24.038 7.177 35.36 9.12 10.27 5.34 21.373 6.084 30.56 7.04 9.965-.837.752 3.8 6.4 4.16 6.25.834 15.362 5.882 23.68 7.84 8.85 4.68 5.687-1.354-1.28-2.72-10.708-5.108 4.75-1.76 8.96-.48 11.167 2.058-11.793-5.17.32-3.52 3.512 4.885 13.125 1.82 12.48 5.76 31.872 5.252 61.882 15.774 91.84 27.52 19.047 4.454 37.332 11.89 55.04 20.23-12.52-1.16-24.697-6.408-37.44-8.39-31.763-9.418-64.268-17.134-96.64-24.96l-24-10.473c-2.283 1.524 6.397 10.9-1.28 5.673-8.235.5-15.99-4.454-24.245-2.08-10.896-6.06-25.526-5.16-36.574-7.82-24.428-4.306-50.796-6.5-75.82-13.3-6.31 3.94 8.714 5.55 13.44 7.52 28.718 1.46 58.137 8.785 85.76 11.36 2.467-.845 8.938 3.96 14.72 3.36 18.703 4.642 38.954 6.76 56.96 11.11-7.174 4.19-24.645-6.31-30.757-1.137-15.67-8.075-38.647-5.413-56.283-11.892-26.817-5.81-55.438-5.2-81.28-10.56-3.606 2.333-8.52-2.51-6.016-2.08-13.25 1.294-36.305-5.705-49.824-3.27 6.81 3.3 20.794.2 21.76 4.71 9.713 2.427-2.675-3.246 6.32-1.44 6.12 1.886-2.033 3.23 8.56 4 9.015 1.635 19.112 2.082 27.2 5.442-22.763 7.314-45.558-3.69-68.765-.162-13.687-3.013-25.764 6.58-39.487 4.8 2.558 6.454 22.548 2.485 23.93 7.04-16.7 2.808-33.5-.053-49.6-3.84-20.4 1.156-42.102-7.088-62.72-1.92-5.5.472-15.194-2.812-17.635 1.6 3.895 3.724 25.165-3.13 19.875 3.84-17.38 2.526-34.478 4.72-51.04 10.24-3.294 1.075-21.126 3.85-11.84 4.8 33.867-7.96 68.92-12.972 103.84-15.04-7.1 6.38-19.462 5.01-28.8 8.48-23.824 8.696-49.036 5.783-72.8 13.28-12.805 2.79-24.933 3.04-37.53 6.08 5.843 4.465 20.7-3.325 29.69-1.76 11.907-.167-5 2.994-9.92 3.68-4.832-.437-20.823 4.004-7.36 3.36 33.65-4.063 67.7-13.446 101.44-18.4 23.243-3.888 46.554-4.73 69.44-8 11.56-7.61 28.562-.15 42.4-4.48 23.888 1.705 47.593 2.4 71.68 1.12 17.292-.794 34.986 1.125 52.16.16 16.894 1.87 34.802 3.297 52 5.76 28.24 5.827 57.212 7.987 86.08 14.72 23.464 3.3 45.855 10.326 69.28 15.52 13.49 2.274 26.377 8.02 39.783 8.88-34.755-9.84-71.017-19.847-106.823-28.24-47.817-8.668-96.494-15.05-144.8-21.28-4.844-1.892-20.93-6.064-7.2-5.6 6.962.717 20.172 2.713 21.92 2.56 29.074 5.946 62.16 10.083 92.48 13.92 35.275 5.46 70.335 13.054 104.96 21.44 11.47 4.498 23.004 5.602 34.72 7.84 18.295 2.472 37.12 6.882 54.17 13.85zm-470.17-47.93c-13.442-1.604 7.665-2.45 0 0zm253.6-.41c.548-1.555 1.454.973 0 0zm-186.08-3.11c-6.115-4.267 20.8-.034 8.64-.32-2.95-.88-5.853.02-8.64.32zm-13.76-.64c-1.96-1.714 2.366-1.08 0 0zm174.56-.16c.818-1.148.818 1.148 0 0zm-192.92-.56c.88-1.338 1.935.98 0 0zm-106.88-1.287c.078-5.667 9.092 1.933 0 0zm281.44-.313c-.208-2.754 3.155.435 0 0zm45.272-.813c.424-2.76 3.532 1.7 0 0zm-69.472-1.667c-.343-4.007 5.31.97 0 0zm71.56-12.24c3.008-2.205.243-.025 0 0zm-34.12-2.48c1.63-2.17.805-1.172 0 0zm-115.2-6.72c-2.136-1.65 2.96-.696 0 0zm-507.2 74.56c9.23-1.282 18.912.49 23.965-9.44 5.87-4.575 15.192-2.825 20.39-7.718-8.383-11.87-25.417-.313-37.314-2.682-11.755 1.922-21.318 10.438-32.84 12.694 2.672 8.753 18.45 4.722 25.8 7.146zm33.045-1.355c1.4-6.29-7.053 2 0 0zm13.035-1.525c-1.265-.594-1.265.594 0 0zm5.12-.32c8.245-1.407-8.23-.67 0 0zm6.81-.07c.662-2.47-2.962.547 0 0zm10.79-2.01c-2.033-.867-2.824 1.164 0 0zm5.44-.16c27.102-3.432 53.127-9.1 79.2-16.8 7.288-3.615 19.313-7.868 23.36-12.96-11.56 3.986-23.178 6.666-34.24 12.8-16.447 5.198-32.053 10.478-49.053 11.8-7.616 3.75-16.5 2.49-24.387 5.16l2.56.16 2.56-.16zm147.04-8.64c10.172-2.657 1.127-3.9-2.88-.48.647.866 1.97.67 2.88.48zm-131.68-2.88c7.786-1.426 20.556-2.337 24.64-6.88-9.177 2.655-20.74 2.708-28.16 7.04h1.76zm118.24-.96c5.157 1.957 19.715-4.732 5.76-2.56-1.404.742-12.007.877-5.76 2.56zm-125.6-6.08c16.762-1.698 34.523-6.074 50.08-4 8.557-1.62 5.916-7.37-2.08-4.8-16.343 4.307-36.557 2.452-50.88 7.93.57 1.028 1.86 1.225 2.88.87zm39.52 0c9.34-3.63-4.496-4.313 0 0zm56.96-11.52c-.41-.574-.41.574 0 0zm2.4-.48c5.897-.692 17.423-7.913 5.216-3.52-1.533.802-9.454 3.507-5.216 3.52zm795.68-.16c-.41-.574-.41.574 0 0zm-748.8-5.12c3.63.094 24.93-2.326 15.04-4.8-7.334 3.205-14.85-.414-4-4.32 8.043-3.835 19.73-6.95 24.8-12.48-14.085 2.85-27.573 7.328-39.36 15.84-6.332 1.307-17.158 4.772-2.627 5.16 2.142-1.203 4.16.507 6.147.6zm-143.84-3.84c9.534-3.604 20.627-5.128 28.64-10.72-9.807 2.415-20.788 5.974-29.28 10.02l.52.854zm-24.64-.64c18.76-3.58 35.457-13.182 53.536-19.04 5.596-4.75 18.567-6.006 19.197-11.08-18.528-3.028-32.318 11.463-48.502 17.8-8.25 5.007-17.745 7.66-26.15 12.39l.96.09.96-.16zm546.88-12.32c-.444-.836-1.473 1.125 0 0zm-474.4-2.72c17.155-6.785 35.153-11.975 52.8-17.76.28-3.584-12.9 3.064-18.4 3.52-12.396 3.756-26.746 6.6-36.634 14.282l2.234-.042zm376.16-.32c-.41-.574-.41.574 0 0zm-235.36-6.08c9.08-7.138 17.327-15.35 28.195-20 23.946-10.712 50.946-13.196 76.285-8 18.457 1.337 37.954-1.555 56.32 5.12 12.596 1.77 24.46 4.146 37.213 6.72 4.91.108 9.926 2.3 13.987 3.68-4.34-7.335-18.233-4.99-26.304-9.12-24.833-6.018-49.418-12.333-74.816-10.56-19.06-1.33-38.887-5.822-57.6 2.24-13.942 1.94-27.502 8.438-40.48 14.72-2.163 5.78-14.29 10.64-12.8 15.2zm231.2-2.56c-.426-1.65-1.144.97 0 0zm100.48-3.445c-2.983-3.546-5.66.475 0 0zm-106.24-3.115c-1.65-4.87-7.772 1.728 0 0zm-4.8-1.28c-3.566-7.432-11.617 1.272 0 0zm-13.92-2.88c-1.566-1.248-1.23.988 0 0zm-280.96-2.08c8.006-3.07 17.81-2.832 24.64-6.88-9.04 2.663-19.847 2.49-27 6.8l2.36.08zm-307.595-4.555c4.91-7.1-8.802-24.05-12.565-12 4.94 3.233 7.32 10.288 12.565 12zm767.275-8.245c-3.744-3.333-3.072 1.546 0 0zm-953.44-150.56c10.074 3.644 14.73-12.176 2.24-10.24-7.14-1.417-31.105-3.47-14.72 8.165 3.18 3.147 8.562 1.134 12.48 2.075zm43.68-13.44c18.366-5.354 24.39-29.73 19.52-45.76-8.268-7.432-5.738 13.83-7.04 18.685.132 10.2-9.402 17.236-15.36 23.953-.242 1.402 1.295 3.768 2.88 3.122zm-61.6-4.16c11.27-3.45-4.857-12.455-8.64-16.48-6.498-2.822-18.5-22.785-21.28-8.64 2.39 12.63 18.133 22.7 29.92 25.12zm30.4-.64c11.44 3.275 8.442-11.36-.64-9.92-5.008 1.27-21.196-3.013-16.16 6.24 4.92 3.13 11.48 2.214 16.8 3.68zm21.92-7.68c7.718-1.06 22.753-11.812 14.08-17.92-6.267-1.508-13.3 16.413-16.32 10.085 5.283-3.29 14.23-20.215 2.31-18.245-1.738 6.27-11.602 14.305-5.19 19.36 3.647.16.12 7.445 5.12 6.72zm-32.8-13.28c.83-9.775-13.654-16.22-18.244-24.96-5.994-8.682-13.98 1.164-6.792 7.68 6.48 7.82 14.18 17 25.037 17.28zm-34.88-9.76c9.347-4.475-5.234-15.273-7.04-21.6-1.627-8.178-16.313-18.17-11.04-2.56 3.045 9.136 8.076 21.615 18.08 24.16zm-20.48-4.16c1.678-6.605-4.277-18.24-10.88-20.8-7.04 4.22 2.1 17.806 8.285 20.32.723.54 1.72.852 2.595.48zm101.28-1.92c10.908-8.848.25-24.525 7.68-35.2 3.662-5.668 2.675-24.51-4.16-11.84-2.782 15.186-7.466 32.3-5.76 47.04l1.12.16zm-25.76-4.16c6.697-3.204 10.266-25.097-.16-20-1.478 6.152-7.205 16.928.16 20zm45.844-10.476c2.187-9.2 1.842-21.91-2.717-30.324-7.27 2.3-1.708 17.67-3.287 24.653.954 1.968 2.986 7.863 6.004 5.67zm742.796-17.364c-.41-.574-.41.574 0 0zm-925.6-4.48c-.372-1.664-.372 1.664 0 0zm9.28-51.36c1.426-1.066.406 1.225 0 0z"/></svg>