<svg xmlns="http://www.w3.org/2000/svg" width="643.106" height="809.586" viewBox="0 0 170.155 214.203"><path fill="currentColor" d="M78.12 214.203c-2.017-.35-3.51-2.267-5.642-1.37-2.45 1.086-4.507-.842-6.326-2.158-2.486.343-4.86-.62-6.584-2.45-2.225-.187-3.96-1.73-5.7-2.933-3.208-.248-5.417-2.716-7.935-4.402-.862-1.47-2.98-2.627-1.816-4.538-.236-2.57-.184-5.074.39-7.544-.2-3.142-2.648-5.443-3.547-8.326.663-3.743 2.278-7.884-.168-11.303-1.295-1.41-3.116-3-5.252-3.058-2.792-.63-5.43-2.318-8.326-1.787-3.133.615-6.593.78-9.26-1.313-3.14-3.045-6.746-5.725-9.71-9.008-2.104-1.78-2.898-4.683-4.75-6.806-1.83-3.5-1.862-7.345-3.072-11.092-.58-3.26-.507-6.456-.112-9.585.068-2.762 3.415-4.232 5.7-2.987 1.397.156 2.578-.893 2.2-1.47-.047-5.936-3.393-11-4.544-16.7-.74-3.627-1.717-7.128-1.787-10.896-1.273-6.744-.793-13.566-1.06-20.426.563-4.967-.072-10.17 1.59-15.06.763-4.443 3.093-8.276 5-12.287 1.815-3.35 3.857-6.526 5.922-9.785 2.215-3.076 5.344-5.254 7.32-8.52 1.608-2.27 4.1-3.91 5.88-5.956-.82-.373 1.42-.073 1.585-1.084 3.026-2.418 6.654-3.658 9.774-5.84 2.296-1.726 4.953-2.753 7.376-4.19 3.034-1.282 6.06-2.564 9.165-3.66 2.43-1.06 5.017-1.765 7.432-2.822C66.9 4 71.437 1.792 76.38.66 79.83.453 83.254.417 86.7.108c2.994-.418 6.122.47 9.108 1.173 3.943.36 7.513 2.41 11.444 2.933 3.4 1.416 7.057 2.38 10.062 4.617 3.218 2.204 6.738 3.974 10.262 5.665 5.1 3.352 9.5 7.725 15.115 10.282 3.563 3.54 7.157 6.994 9.707 11.315 2.935 2.655 5.254 5.845 7.084 9.32 2.29 4.244 4.23 8.67 6.2 13.06 1.344 3.167 2.136 6.435 2.71 9.807 1.694 7.07-.015 14.366 1.682 21.4-.476 4.606-.16 9.402-1.598 13.925-.853 2.83-1.935 5.626-2.848 8.41-.833 2.48-.866 5.33-2.06 7.8-.456 1.315-2.777 3.185-1.074 4.224 2.275-1.108 5.702-1.325 6.656 1.593 2.316 3.903.072 8.453-1.173 12.322-1.55 3.623-2.56 7.402-4.97 10.674-2.1 3.572-4.446 7.1-7.643 9.744-2.687 1.045-3.94 4.646-7.164 4.56-2.82.08-6.008.09-8.354 2.095-3.432 1.118-7.54 1.592-9.444 5.196-1.5 2.685-2.306 5.686-4.246 8.13-1.4 3.22.167 6.74-.698 9.92-1.347 3.38 1.58 6.825.14 10.226-.393 2.688-1.76 5.6-4.736 6.035-1.33 1.61-3.26 2.59-4.977 3.71-1.633.42-3.502-.406-4.703 1.236-1.982 2-5.194.06-7.376 1.9-3.628 2.012-7.867 1.43-11.82 2.094-2.142.25-3.728-.923-5.746-1.117-2.173 2.283-5.287 1.746-8.12 1.87zm2.347-2.067c1.602-.003 5.09-.272 4.386-2.7-.67-2.843 1.157-6.9-1.983-8.577-1.766.216-4.6-1.246-5.224 1.537-.716 1.415 1.08 2.245 1.565.782 1.478.364-.508 3.567.53 4.15-.007-1.804 1.783-1.318 1.257.263-.186 1.506.256 1.945.42.307-.204-.763 1.18-2.878 1.06-.783.032 2.058-.836 4.492-3.38 3.995-1.21.762.83 1.306 1.37 1.034zm12.098-.67c1.883-.14 4.34.223 3.8-2.123-.35-1.877-1.16-3.83-1.34-5.867-.382-1.704-1.016-4.522-3.06-4.666-.823 2.07.416 4.653-.878 6.76-.178 1.62-.777 3.183-.8 4.75-.558 1.342 1.624.952 2.29 1.145zm9.835-2.794c3.035-1.042 1.692-5.14.755-7.46-.493-1.562-1.176-3.5-2.642-4.282-.91.212-3.212.24-1.8 1.457-.648 1.574-.743 2.87.363 4.277 1.237.68 1.54 1.968.922 3.27.015 1.504 1.9 1.71 2.4 2.74zm6.86-.32c2.327-2.88 1.593-7.188.74-10.492-.182-1.507-3.278-3.164-2.96-.95 1.242 3.543.545 7.415 1.34 11.002.195.274.484.94.88.44zm-36.263-.418c.268-1.196 1.704-.144 1.353-1.804-.133-1.9.518-6.484-2.424-6.482-.587.74.852 2.153-.006 3.263-.25 1.158-1.466 3.76-.11 4.085.714-1.853.608.174.775.81-.1.1.554.08.413.127zm42.144-1.832c1.438-1.146 1.632-4.088 1.23-6.063.02-1.692.123-5.783-2.564-5.197-.892 1.302.27 3.304-.097 4.906.504 2.02.253 4.274.998 6.2.114.088.272.247.435.153zm-50.262-.39c1.455-1.855 2.132-4.278 2.464-6.544 1.376 1.958-.93 4.492-.453 6.32.827-2.066 2.287-4.99 1.077-7.236-2.3-1.08-1.247 2.62-3.033 3.017-.577 1.297-1.13 3.45-.223 4.47l.168-.028zm5.532-1.928c.237-.77 1.14-3.215.223-2.682-.062.743-1.025 2.457-.223 2.682zm-6.76-.698c.418-1.196 1.343-2.59 1.09-3.772-.72.86-1.878 3.15-1.09 3.772zm49.815-.112c-.09-1.148.62-3.658-.335-4.19-.437 1.13-.577 3.12.056 4.358.114.016.44.135.28-.167zm5.644-.615c2.243-1.322.583-4.78.503-6.93-.157-1.382-1.96-1.63-1.313.084.02 2.082.744 4.305.084 6.304.246.12.45.59.726.54zm-60.572-.307c2.218-.685 1.832-3.814 1.648-5.63-.865-.666-.765 3.072-1.536 1.384-.636-1.63-1.664.846-1.2 1.732-.095.972-.41 2.76 1.09 2.515zm2.25-.46c.3-.515-.798-.024 0 0zm61.73-1.3c1.374-1.037.354-3.943-.167-5.81-.322-.8.02-2.904-1.34-2.654.326 2.684.986 5.35.838 8.075.114.262.46.36.67.39zm-36.656-.838c2.17-1.377 4.433-2.835 7.21-2.318 1.623.008 3.676.84 4.458-1.23 1.417-1.14 3.538-1.56 4.918-.132 2.196.207 3.246-2.9 5.71-1.907 2.658.853 4.443-1.857 7.013-1.592 1.466-1.502 4.313-.514 4.89-2.906 2.132-1.595 2.485-4.236 1.788-6.594-.488-2.872 1.366-5.394 2.3-7.85.497-.655 1.38-3.306-.056-2.625-1.58 1.87-2.07 4.275-3.247 6.347-.215-1.013-1.085-3.067-2.228-2.772-.247 1.328-2.558 3.348-1.676.838.166-2.546 2.48-4.483 2.653-6.985.19-1.788.857-3.337 1.536-5.002.075-1.285.944-2.724.905-3.828-1.847 1.953-1.88 5.013-3.056 7.432-1.71 1.658-2.834 3.97-2.123 6.37-.625.832-1.02 2.56-1.732 2.794.074-2.395-.715-4.83.698-7.013.918-1.514-.95-1.922-1.145-.307-.93 2.317-2.56 4.546-2.318 7.196-1.67 1.78-3.83-.15-2.626-2.247.432-.893.336-3.6-.727-1.902-.41.82-.59 2.775-1.117 2.894-.504-3.085 1.008-6.004 1.843-8.923.83-1.89 1.165-3.68 2.095-5.4-.32-.98 1.83-2.833.335-2.738-.966 1.077-1.95 2.206-2.766 3.396 2.036.9-.4 2.863-.614 4.338-1.447 2.76-1.22 5.973-2.135 8.85-1.856-1.61-.417-4.843.264-6.916.68-1.838 1.762-4.108 1.523-5.855-1.627 1.48-2.235 4.26-3.03 6.414-.44.843-.49 2.372-1.694 1.544-2.3.25-1.905 3.937-1.7 5.273 1.614.918 1.787-2.252 2.362-2.238-.07 1.425-.92 2.517-.95 4.013-2.5 1.913-.133 5.14-.28 7.7.915 1.38.158 2.68-.53 3.862-.304 1.226 1.917 3.775-.267 3.856-.544-1.66-.532-3.68-1.912-5.085-.956-2.07-3.083-3.484-2.598-6.057-.775-1.044-2.632-.72-2.682-2.577-.443-1.566-.765-.363-.978.503-.852-.762-.468-3.793-2.318-3.23-.1 1.22-.328 2.523-.21 3.72.642-.62 1.02-.977 1.363.225-.072 1.386.572 2.142 1.78 2.498-.227 2.45 1.616 4.665 2.067 7.153.12 1.164 1.26 4.088-.587 3.94-.986.036-1.533 1.78-2.32.028-.633-2.28-.056-4.986-1.09-7.013-1.163-1.093-.18-3.98-1.983-5.085-.22-1.507-.553-3.34-.6-4.6-.667.49-1.172-2.727-1.58-.595-1.087.877-.657-1.72-1.033-2.15-.763-.684-.972-1.897-2.067-2.375-1.18-1.6 1.38-3.34 1.62-1.158 1.21-.075-.257-1.843-.614-2.552-.722-1.124.942-1.823 1.006-.326.777.33 1.38-1.154 1.592.46.702 1.49-.13 3.94.6 4.876.636-1.696.155-3.82.516-5.323.548 2.28 1.318-2.317 2.15-.196-.29.79-.908 3.084.18 1.438 1.618-1.593.72 1.63 1.104 2.544 1.243.59.008-2.44 1.118-3.172.468-1.125 2.37-2.303 2.878-.67-.434.957-.44 2.822.587 1.145.636-1.922 1.886-3.677 2.18-5.672.856-1.076 1.175-2.527 2.25-3.41.99 1.043-1.082 2.02-.797 3.032-.895.59-1.9 2.547-1.173 3.003-.405.806-1.64 2.26-.962 2.682 1-1.502.663-.183.683.8 1.486-.238 1.617-2.567 2.346-3.828-.627-.737-1.51.675-1.397-.748.628-1.28.798-2.546 2.012-3.477-.33-1.3 2.23-2.156 1.173-.482-1.28.003-1.482 2.967-.335 1.29.253-1.107 2.213-2.854 1.62-.773-.07 2.595-2.163 4.362-2.54 6.873-.41 1.84.88-.724.922-1.48.14-2.007 2.312-2.274 2.598-4.163.618-1.765 1.136-3.872 1.06-5.644.996-1.61.638 2.267 1.425.264.546-.628.83-1.886 1.006-2.85-1.765-.925-1.807-3.48-.894-5.104-.327-2.126-1.592-3.914-2.122-5.938-1.272-1.053-2.98-1.47-3.73-3.192-.4-1.008-3.024-2.235-1.857-2.934.92.653 2.303 1.203 3.27 1.2-1.026-1.886-4.555-4.69-1.034-6.342 3.34.348 5.654 3.854 9.11 3.63 2.05 1.664 4.888 2.195 7.398 1.87 1.795.157 3.835.492 5.5 1.06-1.365 1.587-5.054-.262-5.365 2.083.943.335 1.443.848.85 1.437 1.614-.184 2.626-1.386 4.403-.922 1.37.572 2.64-2.112 3.555-.263.183 1.78 3.067-.686 3.485 1.228 1.204.684 2.556-.896 3.995-.825 1.382-.75 2.888-.023 4.19-1.173 1.656-.98 2.3.28 1.285 1.62 1.034 1.223-2.742 2.972-.252 2.263 1.458-.418 2.318-2.233 3.956-2.11.23.907-.79 3.125.906 2.028 2.032.003-1.923 2.655.363 2.068 1.323-1.6 3.417-2.157 5.03-3.13-.578 2.012-3.162 2.703-4.415 4.386-1.618.854.46.63.894 1.06.306 1.064-2.955 1.954-.9 2.154 1.118-.22 2.937-3.5 2.884-.95.006 1.3-2.613 1.965-1.704 2.85 1.177-.21 2.52-2.284 3.38-1.285-.7 1.39-2.18 1.737-3.13 2.905-1.24.277-2.875 2.443-1.648 3.157 1.47-.854 3.53.03 4.75-1.62 1.556-1 3.326-2.05 3.912-4.023 2.296-1.573 1.515-4.743 3.743-6.35.813-2.16 1.57-4.29 2.82-6.252 1.582-3.447 5.046-7.133 3.225-11.12-.57-1.382-1.8-2.11-3.198-1.202-2.07 1.12-3.304 4.466-6.135 3.492-1.833-1.25-1.6-3.972-2.023-5.895.675-3.085.546-6.44 1.898-9.388.988-2.24.235-4.866-2.174-5.728-3.555-2.246-5.005-6.328-6.69-9.907-1.553-3.64-3.948-7.098-4.294-11.132-.673-3.42.837-6.626.67-10.114.25-2.797 1.202-5.424 1.424-8.13 1.133-3.543 2.602-7.026 3.295-10.757.4-3.443.39-6.97.25-10.45-.237-4.337-2.184-8.62-5.614-11.4-.268-1.115-2.4-2.79-.11-2.46 2.033 1.477 2.98 4.628 5.686 5.253 1.593 1.724 3.134 3.612 3.3 6.035.656 2.937 2.002 5.74 3.407 8.38 2.318 2.217 2.223 5.713 4.553 7.936.634 1.35 2.007 4.56.202 5.085-.91-.77-1.228-3.187-2.5-2.745.632 2.33 2.287 5.042.87 7.3-.873-.24-2.373-3.86-2.43-1.48.95 2.823 2.78 5.37 3.323 8.354.214 1.85-1.657 2.07-2.095.363-.41-1.21-2.04-1.745-1.37.078.916 2.454 1.946 4.923 1.927 7.522.156 1.388.297 2.777.28 4.19-.915 3.15-1.694 6.333-1.97 9.543 1.005-.473 1-2.536 1.607-3.67.384-1.8 1.758-.315 1.09.832-.01 1.192-.44 3.5.056 3.967.573-3.7 1.11-7.54.754-11.064.146-.647.287-3.284.978-2.46.625 3.175-.166 6.414 1.284 9.388.7 2.747-1.13 5.178-1.536 7.783.754.472.78-2.006 1.788-.5.62.538.836 3.1 1.23 1.034.778-1.393.955-2.998 1.536-4.36.762-6.036.874-12.08 1.647-18.105-.444-6.135-1.427-12.225-2.205-18.272-1.282-3.803-2.852-7.405-4.664-10.903-.823-2.802-2.648-5.142-3.743-7.822-1.906-3.514-4.424-6.702-6.845-9.83-1.114-1.383-2.324-2.5-3.045-4.244-2.712-4.244-7.145-6.687-11.483-8.913-5.085-4.266-10.784-7.625-16.596-10.772-5.004-3.097-10.162-6.04-16-7.108-4.817-1.718-9.852-3-15.004-2.99-3.003-.137-6.07-.59-9.013.342-5.8.256-11.165 2.568-16.58 4.38-2.178.913-4.662 1.134-6.734 2.43-2.44 1.217-4.748 2.723-7.293 3.66-.255.862-3.545 2.3-1.928 2.934 1.7-.514 3.505-.762 4.492-2.43 1.147-.876 2.95-2.557 4.113-2.15-.027 1.625 2.496.242 3.24-.168 2.236-.19.232 1.05-.72 1.2-1.113.908-1.655 2.028-3.19 2.375-1.89.434-.353 1.457.827.475 1.313-.9 2.23-2.06 3.895-2.403 1.968-.728 4.297-1.25 6.37-1.34 2.5-.933 5.2-1.5 7.516-2.638-2.307-.377-4.93.728-7.236 1.24-1.222-.652-3.88.58-4.265.224 2.385-.745 4.61-2.493 7.102-2.753-.18 2.37 2.66.5 3.953.21 1.422-.324 2.837-.832 3.185-2.375 2.886-.932 6.235-1.074 9.276-.67 2.59-.186 5.13.368 7.683.39 3.4.38 6.79 1.073 10.045 1.788 3.08 1.584 6.518 2.705 9.68 4.247 1.14.665 2.85.254 3.576 1.3-.566.733-2.014-.26-2.515.907-4.32-2.004-8.082-5.56-12.853-6.342-.624 1.572 2.377 1.783 3.163 2.906 1.163.336 2.65.452 3.375 1.51-2.082.146-3.598-1.893-5.687-1.844-1.55-1.628-4.258-.37-5.377-2.43-1.362-.48-2.606-.103-3.52-1.425-2.527-.707-5.21.045-7.6.503.176 1.363 3.83-.316 2.794 1.782 1.176 1.187 3.905.402 4.85 1.446-2.237-.246-2.114.894-.267 1.102 1.027.2 2.4 1.623.53.978-1.917-.532-3.706-1.41-5.678-1.676-1.013-1.613-3.673-.286-4.833-1.844-.69.258-3.218-.195-1.95.978 1.83-.66 3.122.472 4.638 1.313-.35 1.038 1.928 1.792.29 1.362-2.554.467-5.493-.454-7.75.538-.848-.273-2.476-.11-.843-.72 1.123-1.293 3.16-.228 4.112-1.306-1.852-.74-3.965.187-5.98.127-1.297.015-1.614 1.38-1.174 1.928-1.11.25-2.136.865-2.403-.587-1.63-.7-3.235 1.708-4.6.28-2.758-.75-4.032 2.513-6.653 2.235-1.84 1.185-4.116 2.023-5.366 3.974 1.264 1.47 2.982-1.043 4.672-.593 1.313-.688 2.47.044 1.62 1.313 1.834.687 4.297-1.61 5.735-.514-2.146 2.537-5.693.828-8.417 1.995-1.646.895-3.723.938-5.057 2.15 1.626.557 3.27-1.48 5.087-1.062 2.137-.808 4.215.137 6.396-.56 3.193-.68 6.318-1.614 9.554-2.123 2.45-1.152 5.648-.574 8.272-.196 2.096 1.477 5.685-.38 6.79 2.433-3.29-.335-6.917-.966-10.3-1.287-1.092-.106-3.565-.622-3.754.713 1.6 1 3.93-.235 5.448 1.13 1.2.587 4.217.476 3.884 2.123-1.875-.762-3.846-.898-5.84-.894-1.18-.69-4.575-.763-3.8 1.062 2.523-.134 5.394.153 7.56.97-1.1-.452-4.042.436-2 1.46 1.083.38 2.996.63 2.894 1.984-1.237-.24-3.117-.363-4.01.435 1.802 1.07 4.293 1.413 6.454 2.024-2.6 1.28-6.172-1.08-9.07.203-2.53.28-5.723-.192-7.89 1.206 1.27.985 3.733-.47 5.466-.18 1.576-.25 3.678-.87 4.872.28-1.377 1.14-3.506-.03-4.694.958 1.04 1.79 3.472-.12 5.085.83 1.884.108 4.496.272 5.14-1.928 1.404.107 3.45 1.004 4.19 1.51-1.153.434-3.932-.96-3.968.714 1.043.854 3.184.84 3.493 2.32-1.754.013-3.418-1.73-5.392-1.58-3.144.246-6.276.366-9.388-.084-.874.001-4.196.558-1.956 1.285 2.286.5 4.588.35 6.873.67 1.882.338 3.923.203 5.504 1.425 1.63.272 3.79.804 4.86-.978 2.17 1.05 4.663 2.33 7.02 3.15.65 1.078-1.835-.26-2.52-.272-1.854-.786-4.074-1.32-5.784-.56-2.7-.394-5.914-2.21-8.382-.28-1.04-.26-4.31-.092-3.116 1.453 2.552-.145 4.936.976 7.463.67 1.396-1.793 3.83.046 5.6.475 2.08 1.622 5.162 1.14 6.9 3.1-.877.933 2.53 2.636.503 3.073-1.188.403-3.13-1.86-3.397-.096 1.09.3 2.033 1.14 3.223 1.27.965.32 3.12 1.353 2.325 2.263-3.516.1-6.205-3.828-9.83-2.654-.805 1.016-3.5-.814-3.525.587 1.894.165 3.55.9 5.325 1.273.408-.984 2.625.136 3.55.7 1.477-.002 3.187 1.122 3.77 2.383-3.06 1.322-4.653-2.557-7.503-2.948-1.262.05 1.92.903 1.397 1.788-2.558-.08-5.016-.777-7.16-2.095-1.07-.112-4.454-.858-3.877.447 2.345.41 4.7.522 6.873 1.564 1.553.722 3.64 1.032 4.828 2.01-.362.75-.16 2.677-1.56 1.48-1.966-1.78-4.727-3.854-7.46-3.073 1.13.692 1.115 1.325-.363.922-2.195.148.562.235.922 1.145 1.99-.016 3.587 1.516 5.532 1.984 1.63.88 3.74 1.05 5.17 1.996.237-1.715 1.32 1.017 2.012-.683 1.773-.045 3.898 1.202 5.476.503-.504-1.104.562-1.255 1.313-.698.782-.025 2.014.86 2.487 1.58-.953.49.057 2.1-1.565 2.304-2.067-.213-4.24-1.51-6.482-1.453-1.093-.355-2.48-1.697-3.52-1.13.58.537 2.72 1.317 1.565 2.08-1.58-.836-3.447-1.072-5.03-1.746 1.01.656 1.743 1.51 2.654 1.215 1.41.616 1.076 2.023-.487 1.264-1.898-.033-3.65-.042-5.185-1.32-2.058-.995-4.563-1.27-6.776-1.44.565 1.637 3.45 1.233 4.933 2.055 1.646.548 3.976 1 4.48 2.647-2.142-.052-5.206-2.605-6.743-.44.82.156 2.09.57 3.102.615 1.26.42 2.18 1.788 3.604.754 1.086-.76 3.874-.113 2.542 1.257-1.364-.202-1.75.757-1.062 1.356-.814.333-1.64 2.67-.39 1.214 1.34-.872 2.077-2.485 3.52-1.536-.408-2.387 4.743-.462 2.235.587-1.65-.17-.224.568-.56 1.228-2.8 1.222-6.91 3.043-5.894 6.847 1.022 1.626 2.594-.425 3.66.028 1.265 1.67.013 4.025 1.313 5.504.316-.63.442-4.055 1.257-1.704-.5.908-.03 3.13.727 1.34.325-.75.3-2.544 1.257-1.648-.104.725.014 3.98.503 1.844-.037-1.64 2.856-2.72 2.04-.503-.975.686-1.55 2.867.056 2.135.452-1.394 1.954-2.446 3.107-2.463-.606 1.19-.394 3.488-2.55 3.458-.786.16-2.467 2.634-1.48 2.29.66-.96 2.234-2.65 2.978-1.565 1.03-.577 1.227-1.837 2.358-1.145.662-1.478.97 1.047-.42.307-1.595.897-2.64 2.436-4.413 3.073-1.25 1.3 1.2.32 1.425.196.253.995-1.397 2.415-2.397 2.933-.266 1.412-2.16.69-2.24 1.816 1.833.462.668 2.616-.724 1.48-1.4.37-2.664.576-4.04.838-1.633-2.344-2.607 3.143-1.437 1.9 1.18-1.67 1.106 1.166-.168 1.61-.83.574-1.243 3.212-.112 1.437.97-1.35 1.737-3.2 3.215-4.107.557.786.688 1.375 1.633.447.704 2.023 1.58.558 2.963-.782 1.248-.353 1.506-3.31 2.75-.776.064 1.66-2.55 2.76-3.024 4.408 2.338-1.777 4.59-3.48 7.27-4.693 3.613-1.755 7.813-1.02 11.596-2.345 3.88-1.432 8.178-1.094 11.93.586 1.63.556 3.572-.512 4.687 1.48 1.7 1.934 4.527 2.286 6.152 4.414 1.876 2.52 2.7 5.7 4.835 8.11 1.912 3.163 1.19 6.98 1.592 10.47-.72 4.52-1.9 8.935-3.853 12.992-.887 3.67-5.035 4.403-8.242 4.554-2.764.064-5.5.918-8.242.754-2.907-1-6.015.142-8.773-1.34-4.26-1.295-7.585-4.406-11.12-6.956-2.953-1.38-6.274-2.852-8.047-5.7-1.4-3.137-3.706-6.11-3.9-9.584.405-3.493-.345-7.59 1.94-10.56-2.148 1.42-2.027 4.164-2.387 6.258-1.433.39.052-5.215-1.48-2.514-.237.918.35 2.472-.8 2.906-.347-1.322.996-3.862-1.313-3.073-1.36 2.03-1.716 4.7-2.47 7.03-.517-.952.705-4.5-1.187-3.147-.466.726-.678 3.367-1.305 2.412-.517-1.908-.66-4.183-1.58-5.816-.25 4.662.222 9.322-.27 13.95 1.562 1.05-.205 2.94 1.145 4.132-.48 1.6-2.956 3.264-1.1 4.866-.032 1.328-1.16 1.402-1.698.527.525 2.64 1.443 5.38 2.22 8.022 1.442-.318.86-3.102 1.48-4.43.502-1.868.803-4.582 2.684-5.337 3.626 1.647 4.594 5.945 6.227 9.22a23.72 23.72 0 0 0 3.1 7.55c1.755 2.808 2.39 6.24 3.63 9.26.977 2.224.584 5.183-.324 7.387-1.863 1.63-3.732 3.828-6.244 4.246-2.3-.546-5.146-.156-6.2-2.905-1.237-3.23-2.934-6.28-4.3-9.473-.518-2.044-1.538.444-1.76 1.425-1.032 2.415-.483 5.205-1.815 7.544 1.25-.74 1.365-3.578 1.955-5.113 1.254-1.398 1.15 1.93 1.34 2.766.453 6.03-.4 12.123.754 17.993.3 5.332.29 10.612.112 15.925-.98 1.417-.493 3.2-.363 4.638-1.14-.036-3.116-.534-3.63.443 1.665-.083 3.03 1.056 4.665.95zm.705-4.596c-.557-3.134-.78-6.798.412-9.838.99-.865.22-3.7 1.788-3.615.048 1.88-.22 3.69-.838 5.448.08 2.003.58 3.87 1.592 5.588.273 1.298-1.62 2.705-.866.754-.588-1.72-.646.582-1.068 1.068 1.048.938-.508-.047-.803.58l-.217.014zm4.882-1.16c.07-.1.07.1 0 0zm20.954-16.15c.25-.186.07.214 0 0zm-11.343-10.002c.053-.196.136.13 0 0zm.39-.854c.123-.5.257.25 0 0zm5.03-20.296c-1.534-1.143.83-1.512.406-.07l-.25.097-.155-.028zm-4.75-4.414c-1.283-1.303.783-.5 0 0zm-4.163-6.12c-1.39-1.04-1.005-3.18-1.292-4.682.872-1.513-.888-2.997-1.362-4.566-2.026-1.652-.584-4.646-2.3-6.287.37-2.256 1.546.526 1.676 1.51-.1 2.234 1.974 3.465 2.207 5.588 1.797 2.41.636 5.48 1.32 8.18.118.192-.323.147-.257.257zm-4.89-17.74c-1.16-.6-.59-3.86.363-1.872-.042.535.404 1.793-.363 1.872zm1.34-7.895c.22-.388.03.18 0 0zm70.75-11.034c-.26-.37.317-.062 0 0zm-58.595-7.725c-.437-.738 2.404-2.5.75-2.93.327-1 1.62-2.977 2.427-1.774.286.708-1.62 2.416.077 1.842-.07-.85.646-.427 1.3-.558.753-.436 1.515-2.063 2.906-2.4 1.178-.92 3.6.167 3.94-.894-.306-.31-2.91-.134-1.552-1.34.597.538 2.107 1.665 2.306.12-1.14-.87-2.63-2.468-.056-1.77 2.085.547 4.72-.237 6.147 1.732 1.13.385 3.61 1.82 1.174 2.012-1.392-.668-3.3-2.456-4.666-1.313.518.96 3.414 1.673 2.934 2.934-1.904-.773-3.916-2.294-6.147-1.594 1.056.178 2.513 1.868.726 1.705-1.336.073-3.9-.417-4.75.686.684-.388 1.833.55 2.486-.38 1.27-.63 2.73 1.022.922 1.48-.794.607-2.203 1.217-1.732-.184-1.425-.22-2.855 1.415-4.515 1.05-1.605 1.195 1.1-2.572-.46-1.13-1.046.974-2.178 1.793-3.59 2.066-.067.344-.175.775-.63.63zm10.59-.14c-1.2-1.55 2.357-2.18 2.906-.768-.74.69-1.972.594-2.906.768zm-12.852-.447c-1.97.4-1.03-1.222-.224-1.872-.146-1.1.997-3.664 2.067-2.878-.443.978 1.128 1.072.934.068 1.36.5-.833 2.268-1.66 2.614-1.312.36-1.213 1.092-.056.8 1.16.203-.35 1.074-1.062 1.257zm1.565-.894c-.07-.1-.07.1 0 0zm-.376-3.59c-.455-.35.017-.095 0 0zm2.835-.1c.07-.1.07.1 0 0zm5.532-1.006c-1.284-.685-.384-2.323.67-1.034.493.706.228 1.15-.67 1.034zm16.54 0c-1.933-1.026-3.618-2.905-5.966-2.934-.528-.883-1.512-1.62-2.18-1.886.874-.434 2.742.836 2.503-.572-.306-1.327-1.43-2.057-3.017-1.593.45-.95.493-.594 1.34-1.34 1.56-.142 3.52.207 5.262.9.764.2 3.307.94 2.142 1.81-.998-.423-1.99-1.03-2.922-.19-2.263-.056-.924 1.794.52 1.865 1.738.42.61 3.162 2.766 3.398.26.224-.2.63-.447.54zm-25.76-.224c.07-.1.07.1 0 0zm37.39-.5c-.67-.747-.764-3.536.608-2.75.04.57.212 2.945-.608 2.75zm-28.867-1.15c-.395-2.175 1.615.545 0 0zm10.588-7.244c-2.28 0 .69-1.51 1.62-1.145 1.138-.3 3.412-.315 3.576.922-1.495-.173-3.105-.483-4.694.223-.167-.01-.335-.01-.503 0zm11.846-.95c.07-.1.07.1 0 0zm-.05-.154c-.066-.956-1.118-1.345-.063-2.053-.78-1.515 1.048-1.79 1.425-.224.262 1.166-1.463.95-1.25 2.345l-.112-.07zm.272-1.382c.043-.46-.874.004 0 0zm-5.755.978c-2.01-.73-4.416.07-6.286-.754.377-1.263 1.524-1.448 2.447-.766.27-1.28 2.857-.417 3.944-.016.725.268.738 1.535-.105 1.537zm-5.364-2.123c.07-.1.07.1 0 0zm5.253-.503c-1.972-1.366 1.384-.48 0 0zm-2.32-1.537c-1.582-.466-.584-.874 0 0zm-.866-.307c.07-.1.07.1 0 0zm-27.883-3.073c-1.038-.276-2.976-.204-1.397-.907.83-.52 1.998-1.882 3.116-.393.458.68-1.187 1.39-1.72 1.3zm3.41-2.067c-1.13.057-3.17-1.89-1.118-1.592 1-.59 3.754 1.107 1.118 1.592zm3.688-5.476c-2.127.31-1.155-2.267.224-.782 1 .097.374.883-.224.782zm-9.388-.112c-2.06-.955 1.404-1.606.335-.168-.106.026-.25.216-.335.168zm10.17-1.62c-1.82-.643-3.75-1.518-5.744-1.313.288-.584 1.77-1.27 2.307-2.067 1.872-.655 2.602 1.54 3.325 2.738-.094.033.588.76.11.643zm36.516-8.577c-1.254-.646-2.76-2.014-1.718-3.34-.668-.7-2.826-2.16-1.828-2.92 1.54 1.448 2.165 3.64 4.2 4.694.45.74.862 1.963-.656 1.565zm-49.2-5c-1.914.358-2.312-3.23-.118-1.76 1.018.752 2.196 1.818.118 1.76zm3.576-1.537c-1.183-2.263 1.508.538 0 0zm43.445-.168c-.597-.57-.883-1.703.238-.726 1.17.82.566.808-.238.726zM96.8 41.93c.07-.1.07.1 0 0zm-.224-.112c-1.096-.27.212-.45 0 0zm-4.19-2.46c-.86-.712-3.56-.446-2.81-1.943 1.34-.84 4.354.36 2.95 1.97l-.14-.028zm57.694-.56c-.736-.465.243-.117 0 0zm-.447-.56c-1.143-1.143.524-.403 0 0zm-.803-1.7c-.043-.188.195.065 0 0zm-56.78-.098c-.98.003-2.536-1.125-2.123-1.788 2.246.298.235-1.724-.95-1.76-1.112-.54-3.513-.556-1.48-1.928 1.513-.534 1.43-2.032-.168-2.403-1.49.34-2.636-2.323-.598-1.99 1.672.48 3.203 1.872 4.46 3.097-1.99 2.07 1.413 3.16 3.066 3.532.297.88-1.783-.318-2.37-.447-1.317-.63-1.52.314-.09.39.935.14 2.703 1.012 1.648 1.704.372.75-.81 1.542-1.397 1.592zm44.147-.773c-1.216-2.205 1.326.313 0 0zm-.73-1.24c-.82-.566-3.75-2.867-1.174-2.317.348.35 2.54 2.25 1.174 2.317zm10.98-.836c-.242-.552.54.223 0 0zm-63.47-.63c-.05-1.09 1.504.32 0 0zm56.01-2.416c-1.297-.197-1.668-3.434-.056-1.565.647.415 2.384 1.448.726 1.565-.213.11-.45-.04-.67 0zm-9.583-1.76c-1.033-.697-.98-2.7-1.15-3.13.82.66 1.74 1.858 1.906 2.92-.152.247-.5.328-.755.208zm-45.094-2.43c-3.063-.515 1.5.074 0 0zm-.782-.168c-1.77-.438-.21-.5.39.028-.107-.055-.27-.016-.39-.028zm-1.23-.335c.07-.1.07.1 0 0zm51.883-.196c.25-.25.05-.084 0 0zm-44.423-.754c-.958-.11-3.395-1.832-1.006-1.34.87-.263 2.972 1.35 1.006 1.34zm39.953-.8c-1.576-1.07-3.506-3.198-5.392-2.46-.1-1.168-.95-3.004-2.263-3.967 1.418-.315 3.045 1.84 4.47 2.625 1.4 1.15 3.16 1.845 4.336 3.25-.254.276-.743.68-1.152.552zm-7.6-3.66c-2.012.128-3.214-1.12-4.526-2.487-.86-.57-2.317-2.13-.56-1.23 1.998.814 3.962 2.264 5.427 3.632-.1.06-.222.163-.342.084zm-12.405-4.135c-1.143-.822-3.458-1.97-4.023-.056-.652-.808-2.288-.612-2.503-1.48.502-.018 2.603 1.034 1.95.112-3.37-2.614-7.7-3.605-11.88-4.19-.478-.546-.986-2.437-.922-2.04 2.058-1.038 3.467 2.148 5.42 2.095 2.195.247 4.185 1.063 5.7 2.766 2.247.72 5.006.707 6.845 2.207.147.364-.224.733-.586.587zm5.98-2.29c.07-.1.07.1 0 0zm-55.794-2c.696-.782.406.307 0 0zm8.55 184.58c1.45-1.39-3.504-2.368-1.86-.978.797-.09 1.272.752 1.86.978zm10.014-.678c2.1-.45 4.332-2.933 2.503-5.106.003-2.248-2.435-3.403-1.788-5.756-.05-1.994-1.368-.077-1.006.95.45 3.3-1.356 7 .3 9.912zm-29.683-.16c1.154.117 1.25-1.71.503-1.3-.567-.227-1.2 1.013-.503 1.3zm13.702-1.07c.89-.953-2.67-1.26-.682-.3.217.078.464.357.682.3zm10.66-.72c1.63-2.5 1.047-5.914 1.23-8.773.004-1.067-.535-3.214-.587-1.146.084 1.246-1.5 1.728-1.09.167-.188-.976-1.554-.385-2.445-.713-.36 2.12-.845 5.003.105 6.782.25-.584.77-2.804.72-1.04-.12 1.04-.748 4.114.852 3.702 1.333-1.734.316 1.148 1.215 1.02zm-2.123-5.95c.064-.39.064.39 0 0zm-5.476 3.1c1.153-.033 1.675-2.84 2.235-.916 1.07-.87.64-3.18.922-4.588.074-1.003-.223-3.664-1.453-3.213-.435 1.2-2.06 1.733-2.04 3.312-1.07.917-2.93.6-2.654 2.64-.626 1.28.327 2.145 1.2 1.61.682.613 1.415-.076 1.62 1.157-.038.12.206-.045.167 0zm-6.523-2.975c1.233-2.736 1.57-6.242.558-8.984-1.523.554-.516 3.3-1.048 4.666.37 1.01-1.296 4.614.5 4.318zm-4.765-.77c1.934-.597 1.075-3.898.894-5.576-.78-.666-.73-4.082-1.397-1.884-.078 2.345-.902 4.956-.126 7.167.192.095.39.39.63.292zm27.66-4.498c1.138-2.108-.052-5.095.196-7.516-.212-.993.613-4.497-.894-3.297-.185 3.538-.52 7.632.698 10.812zm-8.003-.655c.683-1.034-.858-2.18-.267-.462.07.078.086.69.267.462zm-8.1-.77c.617-.92.37-3.63-.69-3.197.26.874-.4 3.01.69 3.197zm13.355-.8c1.514-1.175.204-4.163.782-5.95-.244-1.802-1.02-.207-.866.838-.012 1.667-.377 3.65.084 5.113zm-11.384-1.69c.54-.726.002-3.285-.5-1.524.28.297-.166 1.834.5 1.524zm9.54-1.216c.7-.318.844-3.78-.112-2.99.117.89-.828 2.51.112 2.99zm-10.896-2.57c-.235-1.712 1.255-4.125-.04-5.56-.474.824.116 2.637-.547 3.7.234.46-.333 2.037.587 1.87zm51.995-.407c-.127-.408-.16.206 0 0zm-30.174-.822c.942-.452.516-3.47-.028-1.592.136.455-.305 1.265.028 1.592zm23.456-.152c.558-2.07 1.927-4.142 2.023-6.184-1.483-.554-1.715 2.174-2.318 3.29.058.852-1.212 3.065.295 2.893zm10.753-1.42c1.807-1.53 2.455-4.512 3.23-6.42.255-1.193-.88 1.245-1.453 1.704-.745 1.44-2.315 3.095-1.886 4.694a.09.09 0 0 0 .111.021zm-25.81-.34c.556-2.014-1.118-.05 0 0zm-46.646-.295c.087-2.007-.474-4.188-1.492-5.995-.397 1.104.937 2.772.786 4.198.385.45-.363 2.208.706 1.797zm71.273-1.425c2.464-2.378 1.77-6.194 3.77-8.634-.2-.814-1.32 1.59-1.788 2.347-.932 1.988-2.08 4.256-2.373 6.23.116.068.26.12.39.056zm-9.26-3.254c1.118-2.05 1.27-4.4 2.666-6.302 1.097-1.63.31-4.03 2.557-4.722.91-.552 1.727-2.278.125-1.006-1.305.763-2.638 1.38-2.598 3.073-.23 1.367-.512 2.716-1.843 3.297-.787 1.754-1.94 3.978-1.312 5.728-.01.14.54-.118.406-.07zm-35.693-1.943c.997-.26 2.837-.966 2.906-1.928-2.8 1.953-7.2.57-8.158-2.766-1.697-2.555-1.65-5.9-1.284-8.606-.256-3.61 2.11-6.653 3.855-9.695 1.815-3.2 1.974-7.093 3.896-10.282 1.126-1.3 2.15-2.71 3.737-3.34-.942-2.497-3.67.497-4.393 1.775-2.514 3.068-2.538 7.257-4.552 10.62-.302 1.74-1.704 3.15-2.235 4.583.1 1.117-1.44.378-1.173 1.51-.343 1.34-1.188 2.636-.866 4.163-.256 3.016-.434 6.774 1.9 9.248.686 1.976 1.944 3.454 3.96 4.19.743.49 1.557.47 2.41.53zm-6.817-18.44c.082-.485.322.087 0 0zm.056-.363c.053-.196.136.13 0 0zm-2.515 18.44c-.635-.262-.412.2 0 0zm50.104-.258c1.132-1.4 1.198-4.073 2.16-5.274-2.142.688-2.374 3.506-2.56 5.28l.4-.007zm20.582-2.703c1.306-.337 2.468-2.284.593-1.062-.152.307-1.707.896-.593 1.062zm-21.525-.096c.645-.717.574-1.188.7-2.098-.852-1.68-1.938 2.6-.7 2.098zm-61.802-.14c.327-.828-1.584-3.812-1.58-2.166.522.68.816 2.07 1.58 2.166zm-29.475-1.34c.205-1.573-1.703.136 0 0zm90.256-.07c-.07-.1-.07.1 0 0zm16.372-.335c2.675-.562-.56-.915 0 0zm-71.217-.335c.395-1.327-1.468-1.385-.44-.043l.25.07.19-.026zm76.357 0c.786-.67 2.255-.993 2.53-1.832-.915.22-2.825.93-2.698 1.832.058.088.1-.013.168 0zm-21.066-.53c-.067-.194-.067.194 0 0zm-3.8-.307c-.12-.66 1.31-1.713 1.473-2.924-.756-.246-1.515 1.737-2.032 2.5.01.262.282.552.56.425zm-93.54-1.006c.675-1.2-2.17-.755-.503-.056.16.055.334.124.503.056zm100.078-.335c1.29-.8-.606-.05 0 0zm16.484-.67c.572-.365 3.096-1.413 1.788-1.425-.41.24-2.687 1.156-1.788 1.425zm-99.532-1.913c.187-1.71-2.812-.775-.462-.043.145.072.26.225.462.043zm81.388.001c.074-.545-.583.263 0 0zm-1.05-.072c.78-.343 1.815-.353 2.123-.447-.33-.87-3.174.493-2.123.447zm-102.553-.258c1.943-.474-2.58-3.092-1.13-.97.343.35.703.726 1.13.97zm-3.867-.105c-.246-.266-.245.266 0 0zm-.67-.602c-.245-.494-.237.126 0 0zm-.224-.252c-.27-.346-.125.14 0 0zm113.39-.22c.348-1.44-1.77.497 0 0zm-113.615.053c-.102-.38-.166.108 0 0zm125.558-.096c1.585-.15 2.038-1.508.307-.53-.194.09-.888.452-.307.53zm-21.805-.152c.326-1.182-1.29-2.554-.5-.795.15.228.086.926.5.795zm-59.57-.022c1.334-.607-2.257-2.638-.878-.803.27.247.443.866.878.803zm80.872-.16c-.07-.1-.07.1 0 0zm-110.96-.628c-.147-1.284-1.855-.232 0 0zm42.244-.14c.626-.657 1.927-2.897.696-2.992.17.957-1.327 2.664-.696 2.992zm63.016-.965c1.27-.543-.824-.402 0 0zm6.817-.615c1.112.605 2.69-1.038 1.062-.726-.3.032-2.086.374-1.062.726zm-121.58-.398c1.417-.45-1.86-2.65-.904-.862l.87.894.033-.033zm99.342-.328c1.143-.814-1.614-2.245-1.984-2.766.095.773 1.5 2.027 1.984 2.766zm15.422-.894c.7-.46-.786-.107 0 0zm-64.51-.503c1.395-1.135 1.578-2.297 2.123-3.912 1.015-.24 1.8-2.585.447-1.046-.974 1.1-1.145 2.56-2.403 3.225-.246 1.235-.2.463-.497.25.198.48-.757 2.88.33 1.48zm.335-1.537c.067-.194.067.194 0 0zm71.273 1.48c1.743-.907-.982-.21 0 0zm-101.543-.29c.236-1.418-3.332-1.78-1.664-.184.55.13 1.104.213 1.664.184zm98.134-.267c.74.24 2.31-1.288.894-.755-.23.186-1.423.387-.894.755zm-123.49-.615c.552-1.214-1.93-2.438-.726-.565.124.247.404.686.726.565zm55.068-.615c-.293-.52-.42.37 0 0zm59.26-.447c.526-.312 2.52-.01 1.844-.782-1.384.358-4.04-1.076-4.694.462.825.465 1.867-.36 2.85.32zm-6.37-.503c1.12-.428 2.05-.228 2.654-1.145 1.805-.31 3.535.247 5.448-.307 2.528-.3-.445-.7-1.397-.42-2.02.598-.553-1.72-2.46-.866-1.87-.405-3.635-2.507-5.56-1.09.423 2.372-1.757.88-2.92.56-.637.917 1.343 2.216 1.83 3.045.8-.215 1.54.532 2.403.222zm.838-.56c-1.42-.972.693-.233 0 0zm3.856-1.62c-.582-.36.524-.23 0 0zm4.75 2.123c1.033-.518-1.088-.016 0 0zm-76.9-.237c.063-.99-1.537.05 0 0zm78.02.07c1.484.15 1.67-1.126.044-.552-.638.088-1.18.567-.044.552zm3.856-.168c1.313-.71-1.266-.226 0 0zm-94.07-.447c1.397-1.2-3.62-1.592-1.614-.363.515.183 1.114.283 1.614.363zm72.95-.056c.813-1.183-2.06-.86 0 0zm27.27-.056c1.393-.408-.314-1.306-.447-.097l.258.123.19-.027zm-94.63-.112c1.822-.934-3.173-1.368-1.062 0l.53.028.53-.028zm-20.62-.42c.476-.866-2.384-.53-.49 0 .153.07.338.078.49 0zm5.827.016c.73-1.59-3.36-1.81-1.106-.323.338.198.7.392 1.106.323zm-7.712-.252c-.232-1.24-2.294-3.708-3.2-2.95.853 1.17 1.49 2.98 3.2 2.95zm36.26-.246c1.64-.296.175-.936 0 0zm-13.087-.16c.643.07 2.798-.46 1.146-.922-.42-.24-2.346.68-1.146.922zm-37.857-.224c.92-.918-1.557-.85 0 0zm33.946 0c1-1.2-3.784-1.248-1.816-.084l1.816.084zm12.684-.447c.847-.2 3.012-.624 2.29-1.732-.84-.556-5.315 1.14-2.29 1.732zm-17.31-.79c.576-1.512-4.303-2.047-1.52-.468.465.268 1.007.37 1.52.468zm-14.614-.168c.993-.888-1.367-2.46-1.937-3.206-1.238.897 1.017 2.85 1.937 3.206zm4.197-.117c.63-.956-2.075-2.7-1.748-1.09.418.495 1.11.96 1.748 1.09zm18.62-.212c.767-.646 2.388.133 2.235-1.483.554-1.213 1.728.578 2.18-.584 1.447.227 3.464-.842 3.8 1.062.432-.762.28.173 1.23-.157.326-.51 1.91-1.16 2.766-1.155.667-.21.502-1.59 1.48-.56-.28-1.3.753.098.978-.447.232-1.423 1.134-.413 1.473-.985 1.5-1.032-.138 1.925-1.22 1.432-1.44.36-2.94 2.786-.587 1.788 2.063-.005 2.52-2.954 4.375-2.717.364-.423.767-1.103 1.41-1.58.62-1.038.278-2.352 1.09-3.415 1-.908-.744-2.488.728-2.962 2.135.443 3.106-2.558 4.188-3.968.033-2.586-2.818-1.163-4.023-.28-2.087 1.67-3.975 3.727-5.95 5.42-3.3.953-6.3 2.605-9.612 3.462-2.965 1.307-6.44 1.168-9.61 1.368-3.236-.5-6.122-2.206-9.213-3.1-1.94-1.55-2.586-4.014-3.863-6.035-1.067-3.078-1.925-6.164-2.457-9.332.723-3.273-.212-6.557 1.312-9.61 2.547-2.745 3.143-6.768 6.285-9.137 2.074-1.833 5.157-2.432 6.985-4.2 2.5-1.262 5.453-1.65 8.16-2.57 2.657-.47 5.666-2.32 8.174-.503 1.037.448 2.39.643 3.645 1.006 2.443.308 4.925 1.166 7.39 1.173 2.244 1.542 4.365 3.448 5.936 5.57-.686-1.797-2.044-3.077-3.268-4.5-.757-1.617 1.534-1.582 2.545-2.01.954.345 3.115.488 1.367-.503-.662-.67-2.542-.58-2.04-1.285.236-.345 1.097-.76-.448-1.1-1.638-.838-3.55.298-5.085-.95-1.63-.6-4.83.65-4.89-1.928.12-1.747-.698-1.618-1.298-.447-1.803-1.637-4.277-1.11-6.318-.244-2.092.276-5.37.996-5.42 3.64 1.714-.02-.496-.792 1.133-1.16 1.21-.867 1.008.217 1.48.168-.188 1.15-2.637.975-3.688 1.928-2.027.533-4.252 1.712-6.203 1.62-.2-1.466 1.863-2.186 3.202-2.822 1.11-.65 3.066-1.94 3.504-2.32-2.102.662-4.132 2.243-6.308 2.375-1.34-.787.283-2.516.172-2.794-.57 1.064-3.44 1.18-2.442.168-.376-1.007 2.57-1.704 2.04-2.263-.95.653-2.234.41-1.62-.864.813-1.354 3.722-1.39 4.15-2.755-.988-.196-2.1.916-1.998-.656.18-1.47 3.143-1.352 1.9-3.073-.27-2.26 1.94-4.165 3.437-5.644-.53-.402-1.53-.937.223-1.844 1.272-1.133.262 2.053 1.313.503 1.788-.883 2.843-2.974 1.258-4.18-.334-.982 2.202-1.63 2.962-2.442.918-.542 2.4-1.028 2.626-2.027-1.25-.012-2.543 1.498-3.957 1.775-2.628.818-4.304 3.38-6.66 4.582-1.734-.63.303-2.058 1.174-2.514 2.255-2.388 5.384-3.866 8.158-5.554-.49-1.29-3.55.353-1.677-1.32.85-.247 3.507-1.476 1.48-1.34-.773.613-3.008.633-1.66-.224.83.78.706-.855 1.24-.25.943.224 2.103-.618 3.297-.754 1.253.014 2.095-1.835.224-1.257-1.933.884-3.624 2.31-5.98 1.537-1.913.627.515-1.308-1.23-1.453-1.785.187-3.516 1.62-3.738 3.185-1.382.53-3.644 1.337-4.456.233.12-.564 2.83-2.002.985-1.658-.863.27-2.673 2.206-1.816 1.928.814.072-1.24 1.53-1.425 2.397-.59 1.636 1.61.245 1.8-.664.705-.845 1.494-.945.92.28.235 1.68 2.632-1.13 3.213-1.912.858-.944 2.7.796 1.118 1.156-.884.65-2.147 1.905-.47.923 1.193-.353 2.742-2.344 3.682-1.173.166 1.583-3.166 1.845-2.7 2.654 1.22-1.076 2.106 1.206.42 1.425-1.305.34-2.805 1.963-4.092 2.962-1.315.008-2.637 1.63-3.48 1.185.5.757-2.51 2.594-1.17 3.844 1.244-.485 2.575-2.778 3.463-.978 1.722-.867 3.268-1.877 4.666-3.045 1.33.855-.8 2.223-1.704 2.7-1.14.404-2.242 1.723-3.117.754-.007 1.337-3.758 2.837-2.582 3.967.875-.483 2.77-.816 1.704.168-.52-.292-.803 1.3-1.844 1.397-.926 1.098-.41 2.436-.754 3.632-.026 1.83-1.145 3.058-2.626 4.135-.978 1.028-3.572 2.486-1.62 3.73-.54.647-2.683 2.097-1.57 2.418.93-.443 1.445 1.068 2.465.894-.65 1.41 1.68 3.4-.436 4.135-1.007.215-2.523 3.298-2.896 1.464.912-1.165 3.016-2.936 2.117-4.37-2.077.742-3.165 2.813-3.883 4.638-.982-.364.327-1.666-.1-2.375.863-1.144 1.746-2.46 1.915-3.9-1.003-.123-3.403 2.35-2.363.078 1.112-1.738 3.014-3.31 3.577-5.247-1.966-.116-3.257 3.475-5 3.788.386-1.444 2.283-2.376 2.682-3.91.74-.484.65-2.36 1.83-1.285 1.098-1.49 3.45-2.694 3.66-4.402-1.967-.095-3.143 2.323-4.4 3.4-1.05-2.457-2.592 1.556-3.576.64.642-1.72 2.897-2.78 3.974-4.39.035.574-.792 1.894.483 1.453 1.052-1.546 2.914-2.184 3.813-3.632-.494-1.717-2.547 1.43-3.353-.7-2.555.385 1.952-2.25.363-2.598-1.045.336-2.508 2.217-3 1.788.257-.884 2.42-2.84.788-2.85-1.714 1.125-.2-1.557-1.74-1.76-.774-1.123 2.372-2.237.627-2.99-.643.688-2.345 2-1.522.25-.728-1.5 2.398-2.906 1.145-3.772-1.27.89-3.05 2.56-2.068-.14.934-.328 2.325-3.16.475-2.18-.695.715-2.496 2.164-1.62.196-.01-1.134-.33-2.21.894-3.017.37-.98.52-1.913 1.37-2.794.315-1.824-1.75 1.05-1.61 1.788-.696.75-2.748 1.722-1.633.002-.916-2.263 2.402-3.523 2.654-5.115-1.903 1.044-2.424-2.018-.53-2.493 1.597-1.003.178-1.94-.894-1-1.686.567.686-1.9 1.117-2.348 1.21-.505 2.37-3.047.335-2.122-.91-.497 2.704-2.525 1.006-3.297-.9.163-2.35 1.743-1.65 0 .42-1.96 3.043-3.505 2.587-5.42-2.847 1.33-3.47 4.888-4.43 7.6-1.133 1.753-1.79 3.77-2.765 5.616-.77 4.44-2.335 9.227-1.117 13.718 1.374 3.507 2.632 7.074 3.574 10.73.18 2.917 1.126 5.76 1.256 8.66-.074 5.988-.216 12.78-4.608 17.422-2.52 3.83-8.06 4.36-9.92 8.7-.27 2.86 2.482 4.717 2.374 7.6.706 3.575 2.345 7.257 1.452 10.896-1.485 1.747-4.4.956-6.23-.167-1.667-.77-4.346-2.634-5.588-.335.344 2.48-.445 5.014.586 7.37-.793 1.17-.242 1.918.56 2.7.704 1.344 1.5.078.643-.692-.72-1.552 1.14-1.334 1.942-1.635.89.856.72 3.22 2.15 3.02-.596-2.205-3.132-3.99-2.67-6.4 1.1-.225.773-3.1 1.816-1.52.523-.058 1.67-1.123 1.956.335 1.3 1.337-.992 3.156.664 4.247 1.228-.23 1.48-2.704 2.856-1.844-.89 1.606 1.6 2.677.978.754-.92-.83 1.047-2.176 1.1-1.537-.613 2.394 2.925-.132 1.1-1.145-1.002-1.543 1.896-1.704 1.9-3.263 1.57-1.832-.904-3.983.028-6.04.54-2.017-1.568-2.184-1.1-.212-.105 1.698.547 4.465-.314 5.548-1.158-1.618-.227-4.127-1.62-5.833-.522-1.25.514-2.75-.112-4.19 1.205-.99-.253-2.87-1.285-1.487-.085 1.757-1.465-.552-.447-1.072.33-1.18 1.825-1.915 1.473-3.546.537-1.11 1.803-1.552 2.102-.076 1.42.28 2.106-2.346 3.213-2.18-.212 1.625-1.124 3.5.028 5.03-.477 1.82.12 3.59.53 5.17-.86 1.43-1.018-2.85-1.627-.738.49 2.13.422 4.332.83 6.425 1.228.064.6-1.69 2.11-1.62.178-.816.436-2.642.873-.833-1.105 2.816.605 5.525 1.417 8.216.638 2.18 3.244.62 3.632 2.744.632 1.14 2.378 1.056 2.696 2.473 1.204 1.58 3.586 1.062 4.596 2.64 2.76 1.16 5.804-.76 8.356.8 1.276 1.446-4.242.567-2.88 2.486.52-.014 1.057.103 1.568.058zm9.108-1.257c.067-.194.067.194 0 0zm-.86-1.215c-1.665-1.106-.61-2.434.62-2.864-1.38-1.69 1.64-1.547 2.698-2.18.77-.3 1.365-.685 1.397-.028 1.232-.1-1.645 2.02.56 1.313 1.56-.63 2.884-1.6 4.077-2.263.384-.208 1.332-.28 1.425.307-.803 1.16-.74 4.014-2.822 2.822-2.3-.07-3.75 2.293-6.026 2.45-.647.142-1.246.562-1.93.44zm3.597-1.718c-.07-.1-.07.1 0 0zm-.894-2.682c-.22-.104-.22.104 0 0zm.447.012c-.408-.266-.327.12 0 0zm.838 4.265c-.05-.757.497.083 0 0zm3.632-1.958c.135-.388.135.388 0 0zm-45.87-5.184c-.865-1.203.456-2.1 1.055-.572.005.44-.696.804-1.055.572zm47.88-.04c-.708-.637 1.916-2.014.726-.59-.223.034-.414.78-.726.59zm-56.877-1.802c-.97-1.704 1.23-.578 0 0zm11.364.014c-1.135-.677.822-2.6.726-.726-.175.255-.35.817-.726.726zm-1.51-17.127c-.318-1.847.85-1.687 0 0zm7.432-5.334c-.102-.456.286.116 0 0zm.447-.785c.143-.2.143.2 0 0zM38.4 92.613c.397-.742.448.142 0 0zm25.872-1.62c-.668-.254-1.95-.66-1.062-1.118.538-1.467 2.45.605 1.062 1.118zm-7.04-.894c-2.29-.5.103-4.226 1.208-1.828.002.882-.084 1.944-1.208 1.828zm-5.476-1.844c-1.396-.01.368-.3-.514-.922 1.075-1.255 2.23 1.305.514.922zm-15.478-.643c.377-.22.088.223 0 0zM40.7 74.6c-1.21-1.415 1.548-1.037.25.02-.084.03-.17.137-.25-.02zm-.085-5.64c.22-.388.03.18 0 0zm1.285-.698c.166-.262.105.043 0 0zm3.353-10.7c.38-.472.44.127 0 0zm.203-.445c-.1-.528.563-.097 0 0zm1.027-.433c.07-.1.07.1 0 0zm.726-.056c.07-.1.07.1 0 0zm-.168-.14c.283-.763.62.292 0 0zm.726-.028c.07-.1.07.1 0 0zm-.8 84.88c1.725-.954-1.9.02 0 0zm-9.807-.25c.81-1.662-2.853-.474-.67-.112.224.054.455.1.67.112zm-7.432-.39c.94-1.133-3.475-1.85-1.397-.307.42.26.917.344 1.397.307zm-24-.726c1.535-1.023-1.372-3.46-.503-.978.15.26.098 1.002.503.978zm52.72-.295c-.09-.376-.392.198 0 0zm2.067-.208c1.292.043 1.85-1.938.447-.894-.146.157-1.127.88-.447.894zm-27.66-.224c2.026.133 1.378-1.57-.14-1.37-1.06-.556-3.032.53-1.257 1.09.473.025.886.454 1.397.28zm79.81-.208c-.32-1.034-2.396-.487-.602-.015.198.035.41.16.602.015zM1.37 138.908c-.07-.1-.07.1 0 0zm58.365-.615c-.214-.3-.214.3 0 0zm-2.906-.084c.365-.515-.474.112 0 0zm-28.4-.07c.24-1.353-2.026-.588-.378-.015l.378.015zm-10.297-.07c.866-.746-.63-2.367-1.328-2.7-.562.765.848 2.262 1.328 2.7zm8.186 0c.684-.988-2.713-1.863-.866-.28.248.188.533.397.866.28zm-16.233-.838c1.162-.528-1.182-3.193-.838-1.034.053.44.274 1.118.838 1.034zM22 136.84c1.35-.784-2.113-3.722-1.006-.978.188.423.612.853 1.006.978zm50.892-.628c.676-.6.432-2.208-.378-1.02-.014.378-.443 1.204.378 1.02zm-2.976-.155c1.365-.307 1.7-3.4.223-1.285-.173.337-1.192 1.288-.223 1.285zm-2.15-.196c1.626-.657 2.3-2.533 2.7-4.262-1.365.213-2.803 2.34-3.576 3.83-.013.366.586.578.867.432zm4.023-.39c1.12-.784 1.856-4.115.055-1.733-.22.362-.828 1.84-.055 1.733zm-6.594-.056c.664.025 1.594-1.954.296-1.19-.195.186-1.2 1.222-.296 1.19zm-37.13-.1c.776-1.165-2.038-.478 0 0zm-3.688-1.13c.804-1.02-2.555-3.332-1.536-1.313.347.615.7 1.39 1.536 1.313zm-16.608-.822c.156-.66-.986.23 0 0zm57.4-.77c1.192-.115 1.67-2.9.223-1.257-.236.236-1.098 1.32-.223 1.257zm58.66-.235c.516-.998-1.1-.68 0 0zm-55.7-.956c.975-.46 2.848-2.72 1.66-3.866-.928 1.024-1.735 2.413-2.443 3.507.164.21.5.5.783.36zm-47.19-.038c.633-.492-.23-3.037-1.2-2.598-.16.933.443 2.157 1.2 2.598zm51.045-.447c.903-.746 1.24-3.54.056-1.487-.044.55-1.005 1.38-.056 1.487zm49.257-.838c1.325-1.05-2.874-1.143-.664-.195.21.088.424.29.664.195zm-7.152-.447c2.172-.487-.303-1.688-1.23-2.095-1.98.072.435 2.104 1.23 2.095zm4.75-.838c1.242-.727-1.332-2.217-2.36-2.095-1.358 1.185 1.83 1.46 2.36 2.095zm-41.992-.56c.894-1.242 3.055-1.328 3.297-2.782-1.364-1.6-3.736 1.37-4.023 2.56.253.025.484.27.726.223zm44.172-.56c.987-1.32-3.023-1.594-.838-.167.243.14.6.165.838.167zm-11.623-.67c1.596-.933-2.875-2.28-.894-.642.266.154.486.802.894.642zm-37.2-.32c1.01-1.866-1.42-.522 0 0zM57.5 126.67c1.076-.777.658-1.82-.503-.866-1.338.852.16.545.447.475-.005.118-.236.454.056.39zm12.14-.292c.423-.66 2.32-3.237.697-2.264-.355.47-1.984 2.086-.697 2.264zm12.893.013c1.71-.623-1.58-.64 0 0zm29.81 0c1.4-.598-1.072-2.012-1.775-1.872-.732.53 1.314 1.557 1.775 1.872zm3.8-1.285c1.72-1.706-3.725-1.346 0 0zm4.86-.28c.774-1.535-1.423.06 0 0zm-12.18-.168c.81-.988-2.174-1.277 0 0zm-31.6-.56c1.098-1.1 3.423-1.902 3.632-3.52-1.457-.898-3.13 1.45-3.967 2.654-.268.332-.142.94.335.866zm-7.935-.503c2.53-1.368 3.634-4.72 3.687-7.342-.468-1.448 1.775-2.994.866-4.476-.75 1.72-.903 3.83-2.346 5.253-.428 2.203-1.206 4.435-2.765 6.112.06.2.318.548.558.454zm41.7-.6c-.194-1.525-1.268-.16 0 0zm-3.62-.127c.7-1.13-1.15-.157 0 0zm-45.4-.078c.48-1.224-1.31-.024 0 0zm-2.207-.118c1.42-1.298-1.684-.273 0 0zm48.446-.42c2.47-.28-1.746-3.556-1.453-1.103.427.326.872 1.07 1.453 1.103zm-51.995-.056c1.955-.538-.864-.823 0 0zm17.266-.28c1.615-1.576-1.366-.415 0 0zm-7.208-.168c-.15-.186-.302.07 0 0zm34.672 0c.606-1.06-1.192-2.33-1.745-3.38-1.034.865.75 3.14 1.745 3.38zm1.748-.29c.58-1.343-1.894-1.87-.574-.323.117.184.32.47.574.323zm.946-.777c2.456-.67-2.17-4.015-1.157-1.082.295.42.652.944 1.157 1.082zm-39.825-.496c2.934-2-2.306-.42 0 0zm14.822-.516c.748-1.336 2.604-2.887 1.94-4.43-1.17.934-3.408 2.998-2.402 4.498.148.08.343.176.462-.07zm29.685.013c-.147-.103-.147.103 0 0zm-45.485-.196c3.1-2.722-2.315-.657 0 0zm38.516-.6c-.55-1.126-.68-3.408-2.146-3.424-.256 1.45 1.067 2.85 2.146 3.424zm-25.46-.107c.808-.687-.874-.343 0 0zm-7.33-.05c1.428-1.955-2.043-.156 0 0zm36.796-.894c1.555-.82-2.564-3.746-1.37-1.257.3.508.777 1.173 1.37 1.257zm-86.708-1.354c.662-.887-1.263-2.964-.77-.797-.058.398.248 1.142.77.797zm47.663-.308c1.518-2.256-2.276.716 0 0zm35.037-.026c1.277-1.278-1.063-3.115-2.037-3.5-.214 1.343.886 2.94 2.037 3.5zm-18.595-.212c1.075-1.12-.897-1.63-.44-.043l.25.07.19-.026zm-65.964-.39c1.533-.557-.692-2.96-.39-.754.08.19-.03.904.39.754zm65.07-1.956c1.035-1.764 1.537-4.65.198-6.314-1.73.528.4 3.415-.618 4.722.076.394-.232 1.468.42 1.592zm22.338-.18c.28-.878-.453-2.46-1.177-2.81-.594.8.383 2.703 1.177 2.81zm-34.895-1.117c1.292-1.516-2.32-.885 0 0zm31.918-1.106c.734-1.483-1.356-1.586-.384-.1l.25.125.133-.026zm35.278-.798c.135-.186-.226.137 0 0zm-59.474-.07c.844-.623.217-3.98-.28-1.984.19.376-.384 2.17.28 1.984zm20.34-.084c.265-.478.312-4.023-.586-2.738.095.623-.498 2.724.586 2.738zm-21.597-1.118c.644-.87.6-3.526-.223-3.492.24.844-.407 3.3.223 3.492zm23.122-2.443c.383-.593-.548-.228 0 0zm.43-1.05c1.36-1.364-.833-1.323 0 0zm-21.317-.615c.076-1.232-1.3-1.84-.587-.42.076.225.526 1.024.587.42zm-2.123-2.18c-.187-1.375-1.34-1.63-.335-.196-.04.206.435.685.335.196zm1.118-1.257c.5-1.176-1.754-2.35-.53-.67-.017.23.205.865.53.67zm11.595.028c.452-.99 1.293-2.638.788-3.493-.88.5-1.827 2.983-.788 3.493zm1.58-1.13c.944-1.114-.72-1.105 0 0zm5.28-.81c.783-.836.772-1.662-.127-.266-.09.113-.076.63.127.266zm-4.58-.335c.707-1.37-1.117-.124 0 0zm.782-1.23c.4-.53-.435.148 0 0zm-6.497-2.446c.254-.843-1.784-4.005-1.816-1.565.54.465.993 1.693 1.816 1.565zm6.692-.935c.356-1.017 1.56-3.58-.253-3.438-.134.97-.226 2.084-.432 3.103.167.113.405.654.686.335zm-2.92-2.334c1.198-1.357-1.987-.882 0 0zm-4.107-.224c1.233-1.163-1.347-.953 0 0zm11.68-.922c1.628-.936.776-2.503-.818-3.262-.902-.627-3.203-1.385-2.967.356 1.51.665 2.457 2.436 3.784 2.906zm-16.53-1.6c2.025-.397.012-3.86 1.667-3.932 1.104.57 1.934.06 1.717-.965 1.198-1.694-2.002-.897-2.807-1.606-1.935-.305-1.974-2.15-1.18-3.567.53-2.032.374-4.123-1.138-5.743 1.673-1.464-1.305-1.62-2.166-1.25-.82-1.203-2.537-.704-2.388.503-1.298.673-3.57-1.228-3.045-2.403 2.572-.323-1.954-1.495-1.772.295-1.647-.353-3.126.276-4.76.32-1.86-1.336-5.923-.154-5.09 2.487 1.155.97 3.15 1.917 4.275 1.593.435 1.825 1.543 3.522 3.548 3.884 1.94-.203 2.763 1.41 3.297 2.984.9.514.28 2.83 1.425 2.296.342-1.225 1.1-1.657 1.368-.223-.194 1.788 1.982 1.368 1.48-.28-.51-3.102 1.8-.026 2.01 1.173-.21 1.09.04 3.953 1.257 1.928.027-1.092.81-2.853 1.508-.922.652.9-.537 3.315.795 3.43zm22.146-.775c.408-.227-.37-.134 0 0zm-1.51-.894c.483-.273-.243-.057 0 0zm-30.298-.403c-.27-2.288-1.956-1.593-.168.04l.168-.04zm-22.1-.867c.524-1.16-1.08.333 0 0zM45.99 86.7c1.002-.288 3.638-.69 1.782-1.928-1.418-.44-2.652 1.27-1.782 1.928zm1.067-.66c-.15-.373.44.14 0 0zm-30.43.324c-2.236-1.342.507-4.493-2.123-5.66-1.722-1.22-.083-2.987.14-4.316-.74 1.4-2.663 3.695-.098 4.526 2.306 1.374-.876 4.68 2.08 5.448zm32 0c.544-.253-.587-.42 0 0zm15.665-.352c.458-1.094-2.333-3.6-1.472-1.582.542.473.686 1.55 1.472 1.582zm22.193.017c.674-1.987-1.556-.352 0 0zM61.12 85.7c.322-.976-1.592-2.717-1.998-2.278.08.877 1.268 2.346 1.998 2.278zm4.835-.53c-.092-1.663-1.582-.675 0 0zm22.323-1.732c.596-.842.2-2.774-.38-1.078.112.404-.545 1.364.38 1.078zm-29.38-.714c.898-1.407-3.468-2.846-1.124-.866.346.244.742.748 1.124.866zm3.033-.235c.352-1.393-2.852-2.445-1.3-.882.427.22.824.898 1.3.882zm2.682-.503c-.793-1.92-1.947-.915-.323-.072l.19.1.133-.04zm-2.264-2.487c.247-2.176-2.615-2.493-3.424-4.01.27-1.953-1.482-1.394-2.15-2.822-2.534-.503-1.376 2.645-.42 3.604 1.7-.147 1.26 3.465 3.073 1.565 1.414-.292 1.782 1.503 2.92 1.664zm-8.034-3.536c1.2-1.102-1.025-3.876-2.263-3.548.515 1.187 1.233 2.895 2.263 3.548zm-39.534-.39c-.648-1.2-1.652-2.398-2.347-3.576-1.227-.56.812 1.004.866 1.76.5.59 1.108 1.334 1.48 1.816zm35.05-3.73c.288-1.04 3.36-2.096 1.758-2.703-1.3.28-3.043 2.127-2.162 3.108l.405-.405zm37.943.253c.082-1.5-1.566.174 0 0zm-8.258-.212c.78-1.175-1.93-1-2.738-1.397-1.573.253.91.502 1.442.866.39.242.85.506 1.297.53zm-68.032-.3c-.726-.482.148-4.013-.447-1.794-.106.64-.297 1.555.447 1.794zm21.333-.325c.615-.805-1.33-.15 0 0zm52.37-.966c.55-2.44-1.703.333-.196.643.414.198.162-.385.196-.643zm-3.1.14c.467-1.03-1.583-.1 0 0zM11.43 68.78c.243-.656-.332.204 0 0zm62.683-.152c.174-1.334-3.625-.4-1.39-.128.473.082.88-.006 1.39.128zm5.7-1.175c-.08-1.157-2.604-.126-.602.04.2.03.417.13.602-.04zm4.58.062c1.328-.75-2.022-1.765-2.793-1.18-.104.995 2.027.766 2.793 1.18zm-55.934-.112c1.22.197 1.883-2.693.435-1.375-.178.28-1.296 1.14-.435 1.375zm2-.05c1.567-.754.085-1.647-.42-.25-.096.28.253.313.42.25zm7.642-.153c.084-.933 3.344-1.954 2.078-2.67-1.193-.232-3.795 2.57-2.078 2.67zm22.03.097c.81-.466 3.468-.426 2.362-1.592-.868.073-3.61.627-2.614 1.62l.25-.028zm-53.475-.25c.773-1.915.526-4.228 1.033-6.246 1.604-.368.813 3.102 1.536 2.558-.508-1.508-.167-2.923.25-4.317-.7-.777-1.834.893-2.368 1.514-.298 2.115-1.256 4.575-.705 6.52.092.094.164-.035.252-.028zm63.533-1.816c1.14-1.358 4.103.388 4.638-1.245-1.505-.722-3.67-.063-5.14.714-.215.234.32.532.503.53zm-60.08-.124c.088-1.755-.404-.57 0 0zm20.38-1.47c1.51-1.853-1.64.375 0 0zm49.592-.028c1.763-.912-.7-1.108-1.537-1.37-1.227-.274-3.296-.7-4.163.044 2.06-.294 3.224 1.537 5.308 1.325l.196.028.196-.028zm-50.96-1.732c2.67-2.703-2.53 1 0 0zm-1.9-.168c.788-.375 1.95-2.86.53-1.984-.4.5-1.21 1.833-.53 1.984zM5.07 61.314c1.308-.2.01-2.402-.375-.692-.087.287.004.73.375.692zm59.19-.44c.83-.746 3.55-.822 2.85-1.9-.756-.318-3.953 1-2.85 1.9zm22.62-.124c-.598-.9-.313-1-.407-1.888-1.045-.283-2.552-.895-3.017.14-1.84.478.447.99 1.2 1.173.76.177 1.4.708 2.223.575zm-14.405-.156c1.565.46 1.29-1.378-.056-1.062-1.827-.6-3.58.26-1.453.894.46.16 1.02.174 1.51.168zM58.757 60.4c1.034.026 1.73-1.37 2.83-.87-.49-.5-2.717.06-3.25.747l.063.1.356.015zm20.76-1.48c.92-1.54-3.825-.59-.894-.056.24-.047.696.12.894.056zm-50.402-.615c1.058-.99-1.004-.74 0 0zm-20.172-.587c1.263-1.288.038-3.663-.447-1.006-.12.31-.073 1.133.447 1.006zm55.152-.25c.75.43 3.233-.78 1.34-.503-.2-.02-2.136.354-1.34.503zm-26.85-.25c1.874-1.244 3.99-2.816 5.225-4.47-1.284-.242-2.708 1.46-4.017 2.067-.636.537-3.22 2.226-1.207 2.403zm46.407-.084c.646-1.118-2.287-.9-3.017-1.1-1.464-.778-2.884.618-1.006.922l4.023.168zm-6.44-.88c-.61-1.06-2.893-1.586-3.9-.965.694 1.27 2.7.92 3.9.965zm-8.1-.518c.794-1.615-3.832.166-.53-.028.175.03.354.093.53.028zm-55.78-.348c.312-.764 1.557-3.14.208-2.628-.342.647-2.185 2.947-.208 2.628zm66.676-.087c2.06-.008-.53-.944-.687-.024.22-.1.516.197.687.024zm-36.265-.012c1.258-.38 1.98-.763 3.243-.922.856-1.04 2.764-.644 3.692-2.012.684-.862 4.386-.993 2.313-2.347-2.505.395-4.846 1.592-6.678 3.24-.66.356-3.6 1.155-2.57 2.04zm18.02-.028c2.237-.964-1.198-.76 0 0zm-32.884-.084c1.352-1.5-1.62-.347 0 0zm7.376-1.23c.703-.808 2.748-1.8 2.235-2.878-.644.595-3.365 2.114-2.235 2.878zm37.034-.32c-.825-.966-3.623-.665-5.143-.825.237.7 3.41.788 5.143.825zm6.997.04c1.233-.04 1.796-.278.168-.475-1.466-.58-1.866.75-.168.475zm-68.69-.063c.994-.63 1.628-2.29 1.916-3.485-1-1.28-2.35 1.408-2.263 2.403-.088.42-.38 1.138.347 1.083zm15.27-.105c1.02-.258 2.237-2.6.503-1.062-.035.207-1.168 1.248-.503 1.062zm-19.07-.12c1.617-2.25 2.266-5.354 3.787-7.837-.998-.58-1.426 2-2.06 2.754-.617 1.63-2.106 3.43-1.85 5.1l.123-.007zm8.717-.224c1.435-.085.615-2.852-.32-.747-.103.27-.11.768.32.747zm57.962-.05c.698-.37 4.124.35 2.515-.894-1.02-.3-2.776-.198-3.206.88l.69.014zM63.34 52.91c1.306-.892 3.56.13 4.163-.643-1.127-.86-3.428-.246-4.47.57-.116.25.248.087.307.07zm-3.87-.544c.603-.54 2.083-.973.488-.602-.522-.122-1.57.68-.488.602zm-17.896-.155c2.492-.968 4.5-2.905 7.097-3.688 1.724-1.178 4.384-1.438 4.974-3.66.845-.594 2.872-1.255 1.732-2.42 1.136-2.454 4.418-3.015 6.985-3.085 2.746.323 5.277-.948 7.488-2.542-.868-.448-1.028-.634-.894-1.552-1.427-.992-3.65-.575-5.253-.265-.917 1.145 1.93 1.225 2.844 1.145 1.645.224-1.127.744-1.558 1.285-2.225.624-4.662.837-6.867 1.453-2.145-1.99 2.376-1.346 2.397-3.008-2.502-.762-4.743 1.104-6.65 2.31-2.146.106-2.456 3.004-4.778 2.7-1.562.78-4.058 1.032-4.722 2.654 1.804.385 3.7-1.306 5.588-1.62 2.147-.652 4.005-1.972 6.165-2.39-1.282.47-1.94 1.754-2.98 2.417-1.543.482-4.025.868-4.415 2.558.893-.016 2.484-.007 1.062 1.102-2.298.933-5.538 1.307-6.706 3.647.82.63 2.378-1.26 2.85-.448-1.388 1.256-4.46 1.057-4.8 3.295-.45.178.596.125.44.1zm39.003-1.285c1.9-.645-.756-1.568-1.68-1.425-1.078-.506-3.25.57-1.422 1.062 1.03.182 2.066.352 3.1.363zm-24.363-.168c.74-.285 2.904-.773 1.257-1.034-.29-.02-2.404 1.04-1.257 1.034zm-27.84-.153c1.275-2.156-1.786.05 0 0zm9.4-.182c.665-.692 3.18-1.69 2.13-2.43-.477.42-3.882 1.94-2.13 2.43zm-26.235-.168c1.384-1.48-1.79-.57 0 0zm37.4 0c1.584-.285 1.305-1.5-.1-.587-.305.11-.31.7.1.587zm6.985 0c-.07-.1-.07.1 0 0zm15.713-.007c1.154-.933-3.22-.06-1.41-.05.474-.107.94.07 1.41.05zm-8.617-.328c1.497-.844 3.31-.93 4.75-1.48.526-.506 3.3-.897 1.23-1.23-.814.22-3.686-.397-3.13.698-.117.938-3.157.43-3.15 1.998l.3.014zm18.887-.782c.798-.135 2.522-.38 1.006-1.23-1.764.078-3.344-.08-4.836-.866-.714-.265-4.844-.185-2.9.782 1.532-.133 3.477-.3 4.448 1.1.768-.037 1.526.287 2.29.224zm-23.47-.447c1.364-.615 2.835-1.617 4.36-1.145 1.234-.244 1.302-.812.042-1.097-1.778-.026-4.806.313-5.24 2.102.24.155.56.203.838.14zm30.833-.235c.138-1.77-2.75-1.876-4.08-2.083-3.582-1.443-7.538-1.458-11.317-1.83-1.61 1.404.37 1.416 1.58 1.217 1.393.196 2.408.3 3.772.307 2.017.224 4.096.277 5.884 1.257 1.237.803 2.818.825 4.163 1.133zM37.72 47.9c.765-.683 3.647-1.684 2.688-2.375-1.04.646-2.762 1.154-3.045 2.248l.25.153.105-.026zm-9.332-.056c1.227-.403.943-2.554 0-1.006-.26.298-.74.917 0 1.006zm27.548-.56c1.174-.462 2.573-1.592 3.96-.866.886-.712.33-.273 1.4-.3-.3-1.1 1.063.764.857-.65.375-.82-2.596-.855-3.406 0-.618 1.116-3.114.805-3.1 1.816.093.093.186-.018.28 0zM59.4 46.3c.07-.1.07.1 0 0zm34.743.937c-.248-1.32-2.563-1.57-3.765-2.25-2.094-.252-4.174-1.164-6.28-1.397-1.072.88-3.355-.513-3.744.94 2.476.68 5.05.002 7.46.876 2.232-.01 4.3 1.414 6.33 1.83zm-76.245-1.425c.944-.724 1.458-3.43-.1-1.893-.597.415-1.166 2.153.1 1.893zm-4.402-.24c.788-1.056 2.844-2.353 2.166-3.703-1.4.508-2.53 2.13-3.06 3.44.134.286.625.302.894.262zm23.804-.307c2.597-1.884 6.07-3.487 7.963-5.7-2.972 1.34-6.666 2.703-8.37 5.63.116.073.27.2.407.07zm21.094-1.565c.74-.165 2.424-.402 3.437-1.118.584.052 2.2-.26 2.15-.14.54-.018.025 1.827 1.313 1.1 1.873-.43 3.617-1.096 5.504-.196 1.02-.033 2.892.62 3.325-.53-1.95-1.48-4.485.595-6.5-.8-1.472-.023-2.757.4-3.995-.53-2.258-.43-5.18.072-6.734 1.887.213.596 1.05.376 1.51.348zM35.82 42.77c2.11-1.566 4.646-2.7 6.594-4.316C41 37.958 39.576 40.22 38 40.562c-.742.53-2.893 1.34-2.18 2.207zM14.725 40.9c1.054-.916.714-1.886-.378-.558-.327.208.095.75.378.558zm55.403.015c1.49-.41 3.647-.266 4.666-1.425.158-2.298-3.106-1.165-4.54-1.006-.1.805-.61 1.504-.823 2.235.136.246.46.25.698.195zm-53.67-2.18c2.95.135 3.812-3.45 5.81-5.08.59-1.768 4.116-1.85 3.297-4.072-1.913-1.03-3.203 2.19-4.638 3.1-1.24 2.192-3.95 3.59-4.63 5.998l.16.043zM36.5 38.7c1.14-.225 1.923-2.072.335-1.062-.452.19-1.562 1.012-.335 1.062zm8.717-1.118c1.343-.756 2.966-1.283 4.137-2.268-1.494-.95-3.563.578-4.64 1.765-.198.326.176.65.503.503zm7.208-1.23c2.452-1.06 5.554-1.727 7.265-3.632-1.68-1.5-4.46-.26-5.672 1.453-.633.486-3.73 1.855-1.593 2.18zm-9.332-.447c2.017-.76 3.828-1.845 5.687-2.92-.295-1.15-2.45.428-3.59.684-.628.207-3.954 1.918-2.096 2.235zm-3.632-.056c1.234-.765 3.487-1.597 3.452-3.116-1.386-.07-3.975 2.1-3.452 3.116zm-16.037-.196c1.38-.516 1.727-2.72-.028-.95-.663.346-.923.867.028.95zm35.65-.363c1.187-.62 4.09.363 4.066-1.384-1.13-.107-4.58-.328-4.562 1.34l.28.07.217-.026zm-31.683-.84c1.186-1.757 4.06-2.99 3.548-5.195.93-.92 3.72-3.366.983-3.24-1.473 1.254-3.082 2.645-3.972 4.33.257 1.766 3.5-1.75 1.906.084-1.098 1.02-2.794 2.4-2.905 3.8.152.055.26.334.44.222zM63.48 33.13c1.077-.625 4.54.292 3.52-1.51-1.474-.256-4.055-.197-4.806 1.02.254.444.822.572 1.285.488zm-11.343-.335c1.126-.686 2.9-1.032 3.465-2.145-1.16-.463-3.428 1.012-3.968 2.06l.286.113.217-.027zm-5.98-1.062c1.26-.576 3.222-1.05 3.52-2.53-1.233-.143-2.848 1.195-3.66 2.167l.007.35.133.014zm26.04 0c1.11-.14 4.06.286 3.48-1.2-1.328-.073-3.77-.45-4.374.503.213.308.47.772.894.698zm-29.336-.447c.982-.48 3.297-1.123 2.655-2.32-1.07-.062-3.283 1.444-2.794 2.347l.14-.028zm17.657 0c1.987-.333 4.295-1.853 5.97-.664 1.427-.16 3.356-.257 4.396-1.04-.83-1.052-2.55-.004-3.716-.238.715-1.075 3.722-.207 3.13-1.8-3.476-.857-7.15-.2-10.505.67-1.998-.548-5.157-.17-6.203 1.648 1.587.65 3.705-.528 5.42-.866 1.754.46 3.634-1.024 5.28-.25-.655 1.514-3.89.646-4.206 2.446.122.093.28.17.435.097zm15.814-2.012c2.042-.52-.55-2.047-1.61-1.348-1.222-.175-2.227 1.176-.43 1.097.65.236 1.397.135 2.04.25zm-24.363-.95c1.325-.555 3.598-.905 3.912-2.32-1.636-.13-4.275.306-4.603 2.305l.69.014zm-23.776-.14c.605-.772 3.18-1.82 1.995-2.738-.584.488-3.828 2.55-1.995 2.738zm9.47-.307c.86-.608 3.036-1.13 2.57-2.18-1 .25-2.843 1.136-2.843 2.095l.077.056.196.028zm39.282-.335c1.4.268 2.168-1.437.39-1.397-.827-.262-4.43-.236-2.85 1.1.793.165 1.648.324 2.46.307zm-19.1-.28c1.53-.454 3.545-1.84 4.806-1.064.187 1.775 2.16-.754 3.213.142 1.93-.442 4.1-.063 5.867-.894-.55-1.722-3.407-.61-4.917-1.062-3.213.706-7.065.377-9.75 2.416-.002.385.47.53.782.462zm-7.923-.342c1.018.275 3.552-1.705 1.33-1.278-.46.12-2.34.825-1.33 1.278zm-4.258-.496c.85-.386 3.493-1.7 1.9-2.123-.553.23-3.618 2.054-1.9 2.123zm8.996-.838c4.297-.3 8.356-2 12.573-2.542 1.387.24 3.44.3 4.498-.615-.82-1.497-3.476-.338-4.808.112-2.982-.63-5.73 1.687-8.787 1.208-1.2.068-4.042.39-3.61 1.864l.133-.027zM45.7 24.2c1.5-.847 3.627-1.404 4.526-2.895-1.683-.553-3.897 1.276-5.085 2.532.003.27.32.462.56.363zm-8.717-1.173c1.332-.913 3.41-1.647 3.8-3.313-1.702-.1-4.325 1.232-4.54 3.02.22.14.45.4.74.292zM57.11 21.34c.604-.272 3.082-.318 2.29-1.173-.57-.338-4.33.666-2.29 1.173zm-9.974-.084c1.486-1.116 3.322-.566 4.862-1.62.56-.538 3.038-.98 1.468-1.788-2.408.44-4.476 1.84-6.687 2.794-.286.162.092.75.358.615zm-1.313-1.648c1.664-1.415 4.417-1.1 5.756-2.947-1.716-1.422-3.43 1.49-5.03 1.857-.467.132-1.745.57-.727 1.1zM76.22 10.22c2.053-.667-.915-.97-1.732-.726-1.42.68 1.534.795 1.732.726zm4.08-2.626c.842-.43 3.237.085 2.934-.866-1.216-.1-3.54-.384-4.08.56.16.52.746.296 1.146.307zM76.387.72c-.07-.1-.07.1 0 0zm-50.933 21.68c-.88-.45.56.005 0 0zm.28-.056c.07-.1.07.1 0 0z"/></svg>