<svg xmlns="http://www.w3.org/2000/svg" xmlns:xlink="http://www.w3.org/1999/xlink" width="866.519" height="866.52"><defs><clipPath id="A"><path d="M0 0h883.9v1232.55H0z"/></clipPath><path id="B" d="M196.114 710.313a59.5 59.5 0 0 0-35.687 11.822c7.382-11.98 20.583-19.994 35.687-19.994s28.307 8.013 35.688 19.994c-9.96-7.425-22.31-11.822-35.688-11.822"/><path id="C" d="M15 1211.55H0m868.9 0h15M15 21H0m868.9 0h15M21 1217.55v15M21 15V0m841.9 1217.55v15M862.9 15V0"/></defs><g transform="matrix(1.333333 0 0 -1.333333 -156.00173 1401.963)"><path d="M490.44 820.04a2.38 2.38 0 0 0-2.37 2.205 2.38 2.38 0 0 0 2.2 2.545l18.243 1.325c1.34.063 2.45-.9 2.544-2.2a2.38 2.38 0 0 0-2.2-2.544l-18.417-1.33m-107.974-1.048a2.38 2.38 0 0 0-2.37 2.206 2.38 2.38 0 0 0 2.2 2.544l18.242 1.325c1.34.064 2.45-.9 2.545-2.2a2.38 2.38 0 0 0-2.2-2.544l-18.417-1.33"/><path d="M654.265 826.135c-.9 16.426-7.574 31.818-19.103 43.793-12.742 13.235-29.875 20.715-48.243 21.064-23.127.443-43.815-10.66-56.617-27.982l-27.022-11.15-1.066-56.127 23.772-10.88c2.53-4 5.44-7.8 8.8-11.3a70.1 70.1 0 0 1 49.496-21.61l1.357-.013c38.287 0 69.8 30.778 70.53 69.224.037 1.918-.696 3.666-1.904 4.97m-5.054-9.57a3.28 3.28 0 0 0-3.22 3.344c.034 1.813 1.532 3.254 3.344 3.22s3.255-1.532 3.22-3.345-1.533-3.253-3.345-3.22m-30.927 53.69l-66.24-.693c9.78 6.944 21.776 10.95 34.67 10.732 11.45-.218 22.326-3.726 31.57-10.04m-32.52-36.145l-21.32 24.463 42.127.44zm.18-17.126l21.32-24.463-42.127-.44zm-62.976 38.718c.83-.016 1.564-.4 2.066-.985.106-.124.203-.256.288-.397.087-.15.157-.294.214-.445.015-.04.023-.084.037-.125.04-.12.076-.24.1-.365.03-.174.047-.354.044-.538-.03-1.546-1.307-2.777-2.854-2.748a2.8 2.8 0 1 0 .106 5.603m-14.51-43.974c-1.547.03-2.778 1.307-2.75 2.854s1.308 2.778 2.855 2.75 2.778-1.308 2.75-2.855a2.8 2.8 0 0 0-2.855-2.748m.174 9.212c-1.547.03-2.777 1.307-2.748 2.855a2.8 2.8 0 1 0 5.603-.107c-.03-1.547-1.307-2.778-2.855-2.748m.176 9.212a2.8 2.8 0 0 0-2.749 2.854c.03 1.547 1.308 2.778 2.854 2.75s2.78-1.308 2.75-2.855a2.8 2.8 0 0 0-2.854-2.748m12.936-38.89c-1.547.03-2.778 1.308-2.75 2.855.017.88.447 1.648 1.09 2.15a2.87 2.87 0 0 0 .794.436c.02.007.04.01.062.017a2.68 2.68 0 0 0 .908.146 2.8 2.8 0 0 0 2.748-2.855c-.006-.3-.074-.603-.173-.88-.014-.04-.024-.082-.04-.12-.105-.258-.25-.493-.423-.705a3.63 3.63 0 0 0-.097-.114 2.79 2.79 0 0 0-.629-.522c-.034-.02-.073-.037-.108-.056a2.77 2.77 0 0 0-.823-.305c-.182-.033-.37-.05-.562-.046m8.163 23.156l.5 25.8c2.956 9.047 8.074 17.104 14.736 23.58l33.412-38.336-34.327-41.1c-7.786 8.446-12.71 18.85-14.31 30.037m55.728-48.212l-1.083.01a55.87 55.87 0 0 0-36.71 14.564l76.377.8c-10.102-9.53-23.695-15.374-38.584-15.374m42.43 19.372l-34.903 40.046 32.387 38.77c.648-.613 1.284-1.24 1.906-1.885 9.66-10.033 15.276-22.904 16.114-36.652-.996-1.21-1.63-2.737-1.66-4.422-.262-13.733-5.455-26.23-13.843-35.856" fill="#040606"/><path d="M409.213 807.91l-1.146.045a14.09 14.09 0 0 0-9.667 4.934c-2.458 2.88-3.646 6.548-3.347 10.324s2.052 7.208 4.934 9.667a14.04 14.04 0 0 0 10.324 3.349c3.776-.3 7.21-2.05 9.668-4.935a14.09 14.09 0 0 0 3.346-10.323 14.08 14.08 0 0 0-14.112-13.061m-.04 23.608c-2.236 0-4.38-.788-6.1-2.255a9.36 9.36 0 0 1-3.28-6.427c-.198-2.51.59-4.947 2.226-6.862s3.914-3.08 6.424-3.278a9.39 9.39 0 0 1 6.864 2.225c3.953 3.372 4.426 9.334 1.05 13.288a9.36 9.36 0 0 1-6.425 3.279 9.69 9.69 0 0 1-.76.03"/><path d="M427.133 807.92a14.16 14.16 0 0 0-10.801 4.971 14.09 14.09 0 0 0-3.346 10.323c.3 3.777 2.05 7.21 4.934 9.668s6.537 3.65 10.323 3.35a14.09 14.09 0 0 0 13.017-15.258 14.09 14.09 0 0 0-4.935-9.669c-2.665-2.272-5.936-3.384-9.192-3.384m-.024 23.6a9.35 9.35 0 0 1-9.382-8.683c-.2-2.51.59-4.946 2.224-6.86a9.44 9.44 0 0 1 13.289-1.053 9.36 9.36 0 0 1 1.052 13.287c-1.633 1.916-3.915 3.08-6.424 3.28-.254.02-.507.03-.76.03"/><path d="M445.08 807.91l-1.146.045a14.09 14.09 0 0 0-13.015 15.258 14.09 14.09 0 0 0 4.934 9.667c5.95 5.075 14.914 4.36 19.993-1.584a14.1 14.1 0 0 0 3.346-10.327c-.3-3.776-2.05-7.208-4.934-9.667-2.59-2.208-5.813-3.392-9.178-3.392m-.038 23.608a9.35 9.35 0 0 1-9.382-8.682 9.36 9.36 0 0 1 2.225-6.86c3.376-3.956 9.337-4.43 13.288-1.055a9.36 9.36 0 0 1 3.279 6.426c.198 2.51-.59 4.946-2.226 6.862s-3.916 3.08-6.425 3.28c-.253.02-.507.03-.76.03"/><path d="M462.015 807.91l-1.146.045a14.09 14.09 0 0 0-9.667 4.934c-5.073 5.947-4.363 14.915 1.586 19.99 2.882 2.46 6.565 3.644 10.324 3.35 3.776-.3 7.2-2.05 9.67-4.935 5.073-5.947 4.362-14.917-1.586-19.992-2.59-2.208-5.813-3.392-9.18-3.392m-.038 23.608a9.35 9.35 0 0 1-6.102-2.257c-3.955-3.372-4.427-9.333-1.053-13.287 1.632-1.914 3.915-3.08 6.425-3.278 2.497-.2 4.945.59 6.863 2.225 3.953 3.372 4.426 9.334 1.05 13.288-1.632 1.915-3.914 3.08-6.424 3.28a9.69 9.69 0 0 1-.76.03m7.676-18.406h.016z"/><path d="M479.947 807.91l-1.146.045a14.09 14.09 0 0 0-13.014 15.258 14.09 14.09 0 0 0 4.935 9.667c2.88 2.458 6.53 3.65 10.324 3.35 3.775-.3 7.208-2.05 9.667-4.935 5.073-5.947 4.362-14.917-1.586-19.992-2.59-2.208-5.813-3.392-9.18-3.392m-.038 23.608a9.36 9.36 0 0 1-6.101-2.255c-1.916-1.635-3.08-3.916-3.28-6.427s.59-4.947 2.226-6.862 3.915-3.08 6.425-3.278c2.49-.2 4.945.59 6.863 2.225 3.953 3.372 4.426 9.334 1.05 13.288a9.36 9.36 0 0 1-6.425 3.279c-.253.02-.507.03-.76.03m7.676-18.406h.016z"/><g fill="#040606"><use xlink:href="#B"/><use xlink:href="#B" x="492.924"/></g><path d="M441.945 401.582C262.77 401.582 117 547.352 117 726.527s145.77 324.945 324.944 324.945S766.9 905.702 766.9 726.527 621.12 401.582 441.945 401.582m0 639.65c-173.53 0-314.705-141.175-314.705-314.705s141.176-314.705 314.705-314.705S756.65 552.998 756.65 726.527s-141.175 314.705-314.705 314.705"/><path d="M687.68 707.808c-13.73-123.5-118.445-219.542-245.6-219.542s-231.88 96.04-245.6 219.542h-1.358c4.82-132.255 113.535-238 246.97-238s242.15 105.744 246.967 238zM234.2 819.454c.73-38.446 32.243-69.224 70.53-69.224l1.358.014c18.845.357 36.423 8.03 49.495 21.6 3.36 3.5 6.27 7.3 8.8 11.3l23.77 10.88-1.065 56.127-27.023 11.15c-12.802 17.32-33.5 28.425-56.617 27.982-18.368-.35-35.5-7.83-48.243-21.064-11.528-11.974-18.193-27.367-19.103-43.793-1.208-1.305-1.94-3.053-1.904-4.97m3.614-1.38c-.035 1.812 1.407 3.3 3.22 3.344s3.3-1.407 3.345-3.22a3.29 3.29 0 0 0-3.22-3.345c-1.812-.045-3.3 1.407-3.344 3.22m65.84 60.5c12.896.218 24.893-3.788 34.67-10.732l-66.24.693c9.242 6.313 20.118 9.822 31.568 10.04m-19.853-21.28l42.127-.44-21.322-24.464zm41.43-66.935l-42.127.44 21.322 24.463zm45.025 60.874a2.802 2.802 0 1 0-5.603-.106 2.8 2.8 0 0 0 .045.537 2.49 2.49 0 0 0 .1.365c.013.04.02.085.037.125a2.58 2.58 0 0 0 .21.433c.1.153.186.286.293.4.502.585 1.234.968 2.065.985 1.548.028 2.825-1.202 2.855-2.75m8.8-38.478c-.03 1.547 1.202 2.825 2.75 2.855a2.8 2.8 0 1 0 .107-5.604c-1.546-.03-2.826 1.2-2.856 2.748m-.173 9.212a2.802 2.802 0 1 0 5.602.107 2.8 2.8 0 0 0-5.602-.107m-.176 9.212a2.8 2.8 0 1 0 5.604.105 2.8 2.8 0 1 0-5.604-.106M368.052 789.6a2.77 2.77 0 0 0-.823.304c-.035.02-.073.035-.107.056-.236.14-.446.32-.63.522-.033.037-.066.076-.098.115-.173.212-.317.446-.423.704-.014.038-.025.08-.04.12-.098.277-.167.57-.173.88a2.8 2.8 0 0 0 2.748 2.855 2.71 2.71 0 0 0 .909-.146c.02-.006.04-.01.06-.018a2.85 2.85 0 0 0 .794-.435 2.78 2.78 0 0 0 1.09-2.15 2.8 2.8 0 0 0-2.748-2.854 2.75 2.75 0 0 0-.563.046m-21.912-6.928l-34.327 41.1 33.412 38.337c6.662-6.476 11.78-14.533 14.736-23.58l.5-25.8c-1.6-11.188-6.525-21.6-14.312-30.037m-80-2.8l76.377-.8c-10.08-9.153-22.97-14.305-36.7-14.565l-1.083-.01c-14.888 0-28.48 5.844-38.584 15.375m-17.687 39.854c-.032 1.685-.665 3.212-1.66 4.422.837 13.747 6.456 26.62 16.113 36.65a58.37 58.37 0 0 0 1.906 1.885l32.388-38.77-34.903-40.045c-8.388 9.625-13.582 22.123-13.843 35.856" fill="#040606"/><g clip-path="url(#A)" fill="none" stroke-miterlimit="10"><use xlink:href="#C" stroke="#fff" stroke-width="1.25"/><use xlink:href="#C" stroke="#000" stroke-width=".25"/></g></g></svg>