<svg xmlns="http://www.w3.org/2000/svg" xmlns:xlink="http://www.w3.org/1999/xlink" width="934.224" height="800.663"><defs><clipPath id="A"><path d="M12.496 12.496h858.898v1207.56H12.496z"/></clipPath><clipPath id="B"><path d="M12.496 12.496h858.898v1207.56H12.496z"/></clipPath><clipPath id="C"><path d="M0 0h883.9v1232.55H0z"/></clipPath><clipPath id="D"><path d="M72.284 256.576h698.64v698.7H72.284z"/></clipPath><clipPath id="E"><path d="M72.284 256.576h698.64v698.7H72.284z"/></clipPath><path id="F" d="M158.58 714.836l23.105-58.34 114.076-2.165 25.213 57.423zm20.88-24.13c-3.144.06-5.645 2.658-5.585 5.802s2.657 5.646 5.802 5.586 5.645-2.657 5.585-5.802-2.657-5.645-5.802-5.586m40.543-28.56c-3.144.06-5.645 2.657-5.586 5.8s2.658 5.645 5.802 5.586 5.646-2.657 5.586-5.802-2.657-5.645-5.802-5.585m18.723-.356c-3.144.06-5.645 2.657-5.586 5.802a5.7 5.7 0 0 0 5.802 5.586c3.145-.06 5.646-2.658 5.586-5.802s-2.657-5.645-5.802-5.586m18.723-.355c-3.144.06-5.645 2.657-5.586 5.802s2.658 5.645 5.802 5.585 5.646-2.657 5.586-5.8-2.657-5.646-5.802-5.586m41.597 27.003c-3.144.06-5.645 2.657-5.585 5.802s2.657 5.645 5.8 5.586 5.646-2.658 5.586-5.802-2.657-5.646-5.802-5.586"/><path id="G" d="M15 1211.55H0m868.9 0h15M15 21H0m868.9 0h15M21 1217.55v15M21 15V0m841.9 1217.55v15M862.9 15V0"/><path id="H" d="M770.982 605.927c0 192.94-156.4 349.348-349.35 349.348S72.283 798.868 72.283 605.927s156.4-349.352 349.348-349.352 349.35 156.41 349.35 349.352m-53.56 0c0-163.36-132.428-295.787-295.79-295.787-163.356 0-295.788 132.428-295.788 295.787S258.275 901.715 421.63 901.715c163.363 0 295.79-132.43 295.79-295.788m-81.396 75.987c9.235 11.272-1.63 10.79-1.63 10.79h-24.978s-5.796.332-9.93-4.716l-21.006-25.643-21.002 25.643c-4.136 5.048-9.932 4.716-9.932 4.716h-24.98s-10.864.483-1.627-10.79l36.81-44.936-36.784-44.898c-9.344-11.405 1.606-10.823 1.606-10.823h24.938s5.795-.38 9.912 4.644l21.06 25.715 21.065-25.715c4.117-5.024 9.912-4.644 9.912-4.644h24.937s10.947-.582 1.603 10.823l-36.78 44.898zm-147.063-251.17c0 55.013-33.664 83.752-67.332 83.752s-67.33-28.74-67.33-83.752 33.665-83.752 67.33-83.752 67.332 28.737 67.332 83.752M387.158 542.49h68.95v276.464c0 16.35-16.71 15.275-16.71 15.275H404.44s-17.283.922-17.283-15.176zM325 636.978c0 31.737-25.725 57.462-57.458 57.462s-57.458-25.725-57.458-57.462 25.725-57.458 57.458-57.458S325 605.245 325 636.978"/></defs><g transform="matrix(1.333333 0 0 -1.333333 -118.85667 1327.9727)"><g clip-path="url(#A)"><use xlink:href="#F" fill="#231f20"/></g><g clip-path="url(#B)" fill="#231f20"><path d="M553.05 714.836l23.105-58.34 114.076-2.165 25.213 57.423zm20.88-24.13c-3.144.06-5.645 2.658-5.585 5.802s2.657 5.646 5.802 5.586 5.645-2.657 5.585-5.802-2.657-5.645-5.802-5.586m40.543-28.56c-3.144.06-5.645 2.657-5.586 5.8s2.658 5.645 5.802 5.586 5.646-2.657 5.586-5.802-2.657-5.645-5.802-5.585m18.723-.356c-3.144.06-5.645 2.657-5.586 5.802a5.7 5.7 0 0 0 5.802 5.586c3.145-.06 5.646-2.658 5.586-5.802s-2.657-5.645-5.802-5.586m18.723-.355c-3.144.06-5.645 2.657-5.586 5.802s2.658 5.645 5.802 5.585 5.646-2.657 5.586-5.8-2.657-5.646-5.802-5.586m41.597 27.003c-3.144.06-5.645 2.657-5.585 5.802s2.657 5.645 5.8 5.586 5.646-2.658 5.586-5.802-2.657-5.646-5.802-5.586"/><path d="M662.247 603.966c.605 7.632-1.8 15.04-6.766 20.865-4.24 4.97-9.922 8.26-16.238 9.5l-2.11 29.076a4.8 4.8 0 0 1-5.14 4.445c-2.648-.192-4.638-2.493-4.445-5.14l2.042-28.13c-5.32-.756-10.326-2.975-14.512-6.547-11.256-9.603-13.23-26.104-5.02-38.034-.428-.326-.865-.63-1.28-.984-9.586-8.18-12.418-21.354-7.982-32.454-2.978-1.134-5.823-2.756-8.382-4.94a28.47 28.47 0 0 1-9.971-19.539c-.258-3.25.063-6.453.863-9.518-3.122-1.137-6.104-2.805-8.776-5.085a28.43 28.43 0 0 1-9.716-17.559c-6.362-.144-12.715-2.385-17.922-6.828a28.43 28.43 0 0 1-9.46-16.069c-.19.02-.374.058-.565.073-7.645.62-15.043-1.796-20.865-6.765a28.61 28.61 0 0 1-6.893-8.686c-8.7 2.2-18.295.308-25.623-5.946-1.567-1.336-2.944-2.812-4.15-4.385-3.306 1.685-6.943 2.72-10.753 3.022-7.635.603-15.042-1.798-20.865-6.767-.108-.092-.2-.196-.307-.29-9.57 6.972-22.682 7.392-32.715.713-8.06 7.8-19.798 9.994-29.942 6.212-.698 1.09-1.447 2.156-2.31 3.167-4.968 5.823-11.908 9.365-19.54 9.97a28.73 28.73 0 0 1-8.632-.623c-1.1 2.442-2.525 4.776-4.346 6.91-5.56 6.515-13.43 9.893-21.386 10.015-.965 4.657-3.08 9.026-6.252 12.746-4.168 4.885-9.73 8.136-15.914 9.423-.08 6.683-2.456 13.068-6.848 18.216-3.173 3.72-7.1 6.42-11.366 8.08.095.645.198 1.288.25 1.943a28.47 28.47 0 0 1-6.767 20.867c-2.236 2.62-4.86 4.708-7.7 6.31.755 2.23 1.27 4.556 1.46 6.964a28.47 28.47 0 0 1-6.766 20.866c-1.016 1.19-2.128 2.248-3.285 3.23 1.98 3.55 3.217 7.5 3.548 11.672a28.47 28.47 0 0 1-6.767 20.865c-4.4 5.16-10.35 8.516-16.955 9.64l-2.102 28.937c-.19 2.647-2.47 4.61-5.14 4.444-2.647-.192-4.637-2.493-4.444-5.14l2.052-28.245c-5.057-.848-9.812-3.016-13.813-6.43-12.022-10.257-13.46-28.38-3.204-40.403 1.02-1.196 2.12-2.283 3.28-3.268-5.624-10.155-4.744-23.16 3.222-32.5 2.208-2.59 4.822-4.697 7.698-6.327-.753-2.225-1.266-4.547-1.457-6.95a28.47 28.47 0 0 1 6.765-20.865c3.12-3.657 7.02-6.41 11.377-8.106-1.162-7.903.93-16.245 6.507-22.785 4.168-4.884 9.73-8.135 15.914-9.423.08-6.682 2.456-13.068 6.848-18.215 5.56-6.518 13.43-9.915 21.4-10.035a28.49 28.49 0 0 1 6.248-12.725 28.47 28.47 0 0 1 19.538-9.971c.773-.06 1.544-.09 2.312-.09 2.14 0 4.243.264 6.295.727 1.107-2.473 2.564-4.805 4.37-6.924a28.47 28.47 0 0 1 19.537-9.97c.775-.06 1.545-.09 2.313-.09 3.453 0 6.828.622 10.002 1.812.697-1.08 1.44-2.136 2.3-3.13a28.47 28.47 0 0 1 19.537-9.97 29.43 29.43 0 0 1 2.313-.091c5.66 0 11.11 1.68 15.8 4.807 4.77-4.63 10.944-7.436 17.654-7.968.773-.06 1.544-.09 2.312-.09 6.804 0 13.32 2.393 18.553 6.858.106.1.198.192.303.284 4.234-3.097 9.237-5 14.6-5.424.774-.063 1.545-.093 2.313-.093 6.804 0 13.32 2.393 18.553 6.858 1.567 1.336 2.944 2.812 4.148 4.384 3.306-1.684 6.944-2.72 10.754-3.02a29.36 29.36 0 0 1 2.311-.092c6.806 0 13.32 2.394 18.554 6.858 2.883 2.46 5.202 5.404 6.887 8.674 1.55-.4 3.136-.68 4.763-.808.775-.06 1.545-.09 2.313-.09 6.804 0 13.32 2.393 18.553 6.857 5.053 4.31 8.2 10.017 9.44 16.07.196-.02.386-.06.583-.075a29.4 29.4 0 0 1 2.311-.092c6.806 0 13.322 2.394 18.555 6.86 5.47 4.665 8.723 10.963 9.706 17.572 6.364.142 12.722 2.37 17.933 6.814 8.6 7.345 11.758 18.722 9.1 29.01 3.168 1.156 6.14 2.88 8.782 5.133a28.47 28.47 0 0 1 9.971 19.537 28.51 28.51 0 0 1-1.969 12.89c3 1.154 5.838 2.813 8.362 4.966a28.47 28.47 0 0 1 9.971 19.537c.525 6.63-1.225 13.088-4.948 18.49.428.326.862.64 1.277.993 5.823 4.97 9.364 11.907 9.97 19.538m-40.932 16.757c2.627 2.24 5.738 3.694 9.052 4.272a4.8 4.8 0 0 1 4.643-3.612 5.23 5.23 0 0 1 .353.013c1.88.137 3.41 1.345 4.082 2.977 3.363-1.063 6.378-3.03 8.724-5.78 6.817-8 5.86-20.038-2.13-26.855-.587-.5-1.202-.947-1.83-1.365-7.412 5.385-16.94 6.867-25.525 4.146-6.237 7.98-5.15 19.566 2.63 26.203M520.11 436.168a18.88 18.88 0 0 0-4.496 11.102c.326-.33.658-.65.963-1 2.7-3.165 4.238-7.04 4.497-11.117-.328.333-.658.665-.964 1.025m-34.793-11.294c-1.666 3.094-2.39 6.528-2.23 9.92 1.666-3.095 2.392-6.53 2.23-9.92m-37.166 6.54a18.95 18.95 0 0 0 1.388-8.779c-.113-1.43-.397-2.816-.81-4.154-1.712 4.14-1.877 8.728-.577 12.933m-34.916.614a19.14 19.14 0 0 0-1.137-12.521 19.14 19.14 0 0 0 1.137 12.521m-71.383 9.8a18.85 18.85 0 0 0 5.056 10.147c-.603-3.723-2.297-7.283-5.056-10.147M312.85 463.3c-.838-.714-1.728-1.323-2.644-1.868 1.08 3.04 2.93 5.85 5.557 8.092a19.14 19.14 0 0 0 2.649 1.887c-1.08-3.048-2.93-5.865-5.562-8.11m-84.88 157.422c2.45 2.09 5.323 3.48 8.385 4.13.585-2.025 2.448-3.47 4.604-3.47a5.28 5.28 0 0 1 .354.013 4.8 4.8 0 0 1 4.171 3.178 18.91 18.91 0 0 0 9.34-5.98 18.92 18.92 0 0 0 4.497-13.868 18.96 18.96 0 0 0-2.215-7.512c-9.485 3.624-20.615 2.096-28.87-4.946-.142-.12-.264-.257-.403-.38-.698.61-1.373 1.256-1.993 1.98-6.815 8-5.86 20.038 2.13 26.854m21.16-31.372c-3.46-1.803-7.326-2.453-11.075-2.002 2.754 1.432 5.763 2.155 8.767 2.155.772 0 1.542-.06 2.308-.153m-16.786-31.25c-5.235 6.138-5.868 14.66-2.267 21.377a28.86 28.86 0 0 1 10.277-1.894 28.53 28.53 0 0 1 18.578 6.843c.14.12.265.256.403.38.7-.61 1.374-1.255 1.993-1.98 3.302-3.872 4.9-8.797 4.497-13.87-.122-1.534-.443-3.018-.91-4.444-8.16 1.462-16.89-.598-23.673-6.387a28.95 28.95 0 0 1-3.965-4.125c-1.84 1.07-3.513 2.434-4.934 4.1m25.98-2.804c-2.92-2.218-6.354-3.52-9.97-3.803 2.985 2.263 6.45 3.526 9.97 3.803M245.35 523.96c-4.46 5.23-5.572 12.192-3.58 18.294.922-.164 1.856-.286 2.8-.36a29.4 29.4 0 0 1 2.312-.09c6.806 0 13.32 2.392 18.553 6.857 1.474 1.257 2.8 2.642 3.97 4.13 1.817-1.052 3.492-2.42 4.93-4.106a18.92 18.92 0 0 0 4.497-13.869c-.02-.265-.07-.524-.1-.787-6.915.247-13.937-1.957-19.604-6.792a28.47 28.47 0 0 1-6.727-8.439c-2.687 1.138-5.1 2.878-7.05 5.163m29.17.24c-.7-.845-1.464-1.645-2.317-2.37-2.647-2.258-5.796-3.694-9.138-4.264.69.835 1.446 1.63 2.297 2.358 2.707 2.31 5.88 3.723 9.158 4.277m-11.287-31.132c-3.588 4.206-5 9.533-4.4 14.633.348-.012.697-.04 1.044-.04 6.806 0 13.32 2.393 18.554 6.857 2.806 2.394 5.068 5.254 6.74 8.42 2.633-1.115 5.057-2.825 7.035-5.144a18.9 18.9 0 0 0 4.529-11.593c-5.448-.706-10.583-2.956-14.86-6.605a28.45 28.45 0 0 1-8.544-12.674c-3.81.897-7.38 2.947-10.1 6.147m30.877 2.67c-1.06-1.785-2.398-3.412-4.023-4.798-1.816-1.55-3.847-2.676-5.973-3.43 1.056 1.776 2.39 3.395 4 4.775a18.94 18.94 0 0 0 5.986 3.454m-8.116-30.308c-2.807 3.292-4.368 7.348-4.53 11.605a28.45 28.45 0 0 1 14.86 6.593 28.46 28.46 0 0 1 8.545 12.678c3.81-.897 7.38-2.95 10.11-6.15 2.03-2.38 3.354-5.12 4.026-7.974-3.38-1.13-6.606-2.895-9.48-5.346-5.44-4.64-8.853-11-9.778-18.047-5.13.2-10.165 2.437-13.753 6.64m40.625-29.387a18.92 18.92 0 0 0-12.987 6.627c-2.03 2.38-3.354 5.122-4.025 7.976 3.38 1.13 6.606 2.892 9.48 5.343 5.44 4.64 8.853 11.007 9.778 18.043 5.13-.202 10.165-2.434 13.753-6.638a18.94 18.94 0 0 0 2.785-4.382c-1.162-.734-2.296-1.526-3.36-2.434-5.823-4.968-9.365-11.908-9.97-19.54-.124-1.56-.1-3.108.034-4.64-1.78-.377-3.622-.504-5.486-.357m32.515-16.258c-5.07.402-9.683 2.755-12.985 6.627a19.09 19.09 0 0 0-2.79 4.369c1.165.736 2.298 1.537 3.365 2.447 7.275 6.206 10.645 15.3 9.924 24.163 1.293.276 2.617.433 3.962.433.5 0 1.023-.02 1.537-.06 5.072-.402 9.684-2.755 12.986-6.627.477-.56.907-1.143 1.308-1.74-.084-.07-.175-.128-.258-.2a28.47 28.47 0 0 1-9.971-19.539c-.24-3.02.01-6.002.688-8.87-2.462-.857-5.092-1.216-7.766-1.005m20.54 19.205c.044-4.195-1.287-8.38-3.933-11.822-.006.575.006 1.152.053 1.732.295 3.725 1.65 7.198 3.88 10.1m13.602-30.585c-5.07.402-9.684 2.755-12.985 6.627a19.38 19.38 0 0 0-1.308 1.737c.084.07.174.13.258.2 8.44 7.2 11.64 18.276 9.262 28.4a19.09 19.09 0 0 0 6.266 1.064c4.67 0 9.31-1.71 12.917-5.035-6.55-8.676-7.583-20.398-2.73-30.085-3.464-2.2-7.518-3.234-11.68-2.908m35.768-3.252a18.89 18.89 0 0 0-11.395 4.99c6.545 8.675 7.58 20.395 2.726 30.082a18.97 18.97 0 0 0 10.159 2.956c3.815 0 7.6-1.158 10.83-3.386-5.244-9.354-4.948-21.16 1.357-30.293a18.94 18.94 0 0 0-13.676-4.349m49.636 6.122c-3.872-3.3-8.802-4.893-13.868-4.497-3.395.27-6.573 1.432-9.3 3.32 2.015 3.577 3.275 7.564 3.61 11.78a28.43 28.43 0 0 1-4.976 18.531c3.447 2.868 7.7 4.4 12.142 4.4.5 0 1.023-.02 1.537-.06a19.01 19.01 0 0 0 7.059-1.967c-2.98-9.173-1.306-19.633 5.398-27.493.352-.412.736-.787 1.108-1.176-.79-1.02-1.7-1.976-2.708-2.845m35.766 8.13c-6-5.118-14.283-5.855-20.924-2.524 2.978 9.172 1.303 19.628-5.4 27.486-.352.413-.736.788-1.107 1.177.788 1.02 1.69 1.976 2.708 2.845a18.96 18.96 0 0 0 12.347 4.547c1.404 0 2.805-.162 4.176-.467-.076-.557-.17-1.1-.215-1.675-.605-7.63 1.798-15.04 6.767-20.865 1.75-2.052 3.756-3.803 5.94-5.26a19.02 19.02 0 0 0-4.291-5.264m32.517 14.632c-3.873-3.302-8.795-4.895-13.87-4.497-.904.072-1.785.226-2.654.42.076.556.17 1.107.214 1.67a28.47 28.47 0 0 1-6.766 20.867c-1.768 2.073-3.783 3.808-5.948 5.246 1.094 1.976 2.53 3.77 4.298 5.278 3.58 3.055 7.974 4.548 12.348 4.548.845 0 1.686-.075 2.523-.186a28.45 28.45 0 0 1 6.578-14.694c2.705-3.17 6-5.638 9.678-7.35-.72-4.254-2.87-8.29-6.402-11.302m30.9 22.76a18.96 18.96 0 0 0-13.869-4.496c-.346.027-.684.086-1.024.13-.715 5.254-2.866 10.37-6.556 14.696-2.706 3.172-6 5.638-9.68 7.35.72 4.255 2.87 8.3 6.403 11.304a18.95 18.95 0 0 0 11.864 4.526 28.47 28.47 0 0 1 6.333-13.231 28.48 28.48 0 0 1 12.972-8.655c-.664-4.372-2.823-8.536-6.444-11.625m-1.68 30.233c1.382-.937 2.675-2.047 3.81-3.378.99-1.163 1.798-2.418 2.463-3.724-1.383.937-2.674 2.054-3.81 3.386-.982 1.15-1.793 2.403-2.465 3.716m29.32-5.846c-3.45-2.943-7.66-4.43-11.876-4.534a28.46 28.46 0 0 1-6.321 13.239c-3.568 4.183-8.098 7.053-12.983 8.627a18.89 18.89 0 0 0 6.456 11.652c1.967 1.68 4.185 2.868 6.506 3.615a29.01 29.01 0 0 1 1.936-2.565c4.967-5.824 11.907-9.365 19.538-9.97a28.9 28.9 0 0 1 2.311-.091c.1 0 .198.012.297.013 2.103-7.017.056-14.936-5.864-19.986m24.5 47.127c-.4-5.07-2.755-9.683-6.626-12.985a19.01 19.01 0 0 0-6.492-3.638c-.598.887-1.24 1.755-1.95 2.588-5.738 6.725-13.937 10.132-22.152 10.04a19 19 0 0 0-.758 7.008c.402 5.073 2.755 9.685 6.627 12.987 2.2 1.876 4.707 3.157 7.327 3.87 4.938-5.557 11.7-8.95 19.134-9.54.773-.06 1.544-.09 2.31-.09.166 0 .33.02.494.022a18.91 18.91 0 0 0 2.085-10.261m16.364 37.393c-.4-5.07-2.755-9.683-6.626-12.985-2.165-1.848-4.667-3.14-7.333-3.868-5.76 6.474-13.84 9.75-21.93 9.607-3.98 7.686-2.323 17.39 4.538 23.245.58.496 1.19.935 1.812 1.35 4.975-3.617 10.908-5.47 16.87-5.47 2.918 0 5.837.47 8.658 1.36 2.96-3.77 4.393-8.434 4.01-13.24"/></g><g clip-path="url(#C)" fill="none" stroke-miterlimit="10"><use xlink:href="#G" stroke="#fff" stroke-width="1.25"/><use xlink:href="#G" stroke="#000" stroke-width=".25"/></g><g fill="#231f20"><g clip-path="url(#D)" transform="matrix(.438076 0 0 .438076 57.476584 577.49606)"><use xlink:href="#H"/></g><g clip-path="url(#E)" transform="matrix(.438076 0 0 .438076 452.08695 577.49606)"><use xlink:href="#H"/></g></g></g></svg>