<svg xmlns="http://www.w3.org/2000/svg" width="113.386" height="162.52" viewBox="0 0 30 43"><path d="M30 15.14c0-8.284-6.716-15-15-15s-15 6.716-15 15 6.716 15 15 15 15-6.716 15-15m-15 12.7a12.63 12.63 0 0 1-8.308-3.102h16.616C21.082 26.66 18.18 27.83 15 27.83M15 17l4.705 5.41h-9.41zm0-3.72l-4.702-5.41h9.404zM5.794 6.4l7.59 8.73-7.59 8.73A12.64 12.64 0 0 1 2.31 15.14c0-3.383 1.327-6.455 3.484-8.73M15 2.45c3.18 0 6.082 1.17 8.308 3.102H6.693C8.92 3.62 11.822 2.45 15 2.45m12.7 12.7a12.64 12.64 0 0 1-3.484 8.729l-7.59-8.73 7.59-8.73a12.64 12.64 0 0 1 3.484 8.73"/><path d="M14.865 36.48l-5.662-7.43c.866.355 2.654.854 3.508.98 1.654.24 4.512.1 6.025-.298.678-.178 1.502-.443 1.83-.59s.613-.25.63-.232-.893 1.292-2.022 2.83l-2.96 4.042-.908 1.245z" opacity="0"/><path d="M14.38 41.735c-3.487-5.048-12.298-18.567-12.01-18.43 1.837.88 5.63 2.12 7.443 2.428 3.51.598 9.572.248 12.78-.738 1.438-.442 3.186-1.1 3.884-1.46s1.3-.62 1.335-.574-1.895 3.204-4.29 7.018L17.24 40l-1.927 3.088z"/><path d="M10.567 22.023l4.454-4.987c.053.02 1.143 1.24 2.42 2.7l2.325 2.674H10.23zm9.917-2.36l-3.86-4.464c-.043-.1 1.43-1.877 3.8-4.545l3.86-4.363.312.36c1.214 1.402 2.315 3.473 2.836 5.335.402 1.437.402 4.827 0 6.264-.52 1.863-1.622 3.933-2.836 5.335l-.312.36zm-7.55-8.658l-2.34-2.726-.334-.4h9.5l-2.326 2.7-2.416 2.726c-.05.02-.993-1-2.096-2.3zM7.138 5.202c1.175-1.075 3.408-2.17 5.256-2.58 1.618-.358 4.416-.294 5.855.135 1.74.518 3.658 1.524 4.715 2.473l.393.353-16.635-.001.415-.38zM5 22.97a13.2 13.2 0 0 1-2.743-6.721c-.33-3.388.845-7.028 3.072-9.52l.433-.484 3.84 4.338 3.87 4.435c.018.053-1.523 1.845-3.424 3.983l-4.325 4.873zm7.226 4.6c-1.736-.383-4.006-1.5-5.146-2.5l-.417-.373 16.695-.001-.394.347c-1.22 1.074-3.54 2.168-5.497 2.6-1.355.293-3.778.267-5.24-.055z" fill="#43a047"/></svg>