<?xml version="1.0" encoding="UTF-8" standalone="no"?>
<svg
   xmlns:dc="http://purl.org/dc/elements/1.1/"
   xmlns:cc="http://creativecommons.org/ns#"
   xmlns:rdf="http://www.w3.org/1999/02/22-rdf-syntax-ns#"
   xmlns:svg="http://www.w3.org/2000/svg"
   xmlns="http://www.w3.org/2000/svg"
   xmlns:sodipodi="http://sodipodi.sourceforge.net/DTD/sodipodi-0.dtd"
   xmlns:inkscape="http://www.inkscape.org/namespaces/inkscape"
   version="1.1"
   id="svg833"
   width="1095.6801"
   height="149.12016"
   viewBox="0 0 1095.68 149.12016"
   sodipodi:docname="believe_it_text.svg"
   inkscape:version="1.0.2 (e86c870879, 2021-01-15, custom)">
  <metadata
     id="metadata839">
    <rdf:RDF>
      <cc:Work
         rdf:about="">
        <dc:format>image/svg+xml</dc:format>
        <dc:type
           rdf:resource="http://purl.org/dc/dcmitype/StillImage" />
        <dc:title></dc:title>
      </cc:Work>
    </rdf:RDF>
  </metadata>
  <defs
     id="defs837" />
  <sodipodi:namedview
     pagecolor="#ffffff"
     bordercolor="#666666"
     borderopacity="1"
     objecttolerance="10"
     gridtolerance="10"
     guidetolerance="10"
     inkscape:pageopacity="0"
     inkscape:pageshadow="2"
     inkscape:window-width="1431"
     inkscape:window-height="1030"
     id="namedview835"
     showgrid="false"
     inkscape:zoom="0.49951853"
     inkscape:cx="504.60352"
     inkscape:cy="-55.951021"
     inkscape:window-x="128"
     inkscape:window-y="0"
     inkscape:window-maximized="0"
     inkscape:current-layer="g841" />
  <g
     inkscape:groupmode="layer"
     inkscape:label="Image"
     id="g841"
     transform="translate(-105.15539,-123.53596)">
    <path
       style="fill:#000000;stroke-width:0.64"
       d="m 105.15539,199.37596 v -73.28 l 24.8,0.0198 c 27.95763,0.0223 32.58762,0.40671 38.346,3.18392 7.55504,3.64373 15.4101,12.29364 18.75906,20.65726 6.0711,15.16185 4.14981,27.30814 -6.33799,40.06835 -2.13789,2.6011 -3.88707,4.90688 -3.88707,5.12394 0,0.21706 2.20339,1.68889 4.89643,3.27071 8.6612,5.08738 12.89567,10.55441 16.60325,21.43604 1.55915,4.57606 1.7492,6.07191 1.78892,14.08001 0.0507,10.22017 -0.62383,13.78668 -3.93384,20.8 -2.83119,5.99877 -8.47937,11.77685 -14.32537,14.65482 -5.91788,2.91337 -10.71728,3.2548 -45.82939,3.26032 l -30.88,0.005 z m 73.83628,67.7004 c 7.60781,-4.61389 11.68302,-9.33242 14.80349,-17.14039 2.4087,-6.02702 2.99037,-17.36536 1.28431,-25.0351 -2.82278,-12.69009 -9.12793,-21.05003 -19.68408,-26.09894 -2.09889,-1.00388 -3.68,-2.17893 -3.68,-2.73491 0,-0.53614 1.75615,-2.89097 3.90256,-5.23293 7.35744,-8.02779 10.13832,-14.32769 10.63729,-24.09813 0.29042,-5.68663 0.14451,-6.9419 -1.30898,-11.26167 -3.49635,-10.39122 -10.2063,-18.85358 -18.00579,-22.7083 -5.99604,-2.9634 -10.91096,-3.42443 -36.50508,-3.42418 l -19.2,1.9e-4 1.82962,1.49654 c 1.00629,0.82309 2.87829,1.80679 4.16,2.18601 1.28171,0.37921 10.39438,0.88766 20.25038,1.12988 l 17.92,0.44041 5.05831,2.52714 c 6.37739,3.18614 10.94002,7.66237 13.86305,13.60052 2.1071,4.28058 2.19788,4.76022 2.18043,11.52 -0.0229,8.86549 -1.39297,12.754 -6.39887,18.16096 -6.43844,6.9543 -14.13406,9.67052 -28.78292,10.15914 l -9.6,0.32021 -0.22154,-21.19342 -0.22154,-21.19343 h 9.90154 c 5.44585,0 10.85602,0.1909 12.02259,0.42421 1.27834,0.25567 3.23754,1.5407 4.93117,3.23433 6.56054,6.56054 7.6632,16.04733 2.58174,22.21202 -3.56115,4.3203 -9.41456,6.12944 -19.8315,6.12944 h -5.64246 v 3.29727 3.29726 l 7.84,-0.40069 c 8.81507,-0.45053 12.91236,-1.37719 17.76334,-4.01743 6.08459,-3.31164 12.15666,-12.223 12.15666,-17.84108 0,-8.16976 -2.69276,-14.54278 -8.36265,-19.7921 -6.56297,-6.07616 -9.70318,-6.75159 -31.47735,-6.77055 l -14.56,-0.0127 v 60.89636 60.89635 l 22.56,-0.3667 c 13.26427,-0.2156 23.93893,-0.67153 25.90656,-1.1065 4.47234,-0.98868 9.04424,-5.0812 11.69773,-10.47122 1.79451,-3.64517 1.96408,-4.54242 1.97107,-10.42976 0.012,-10.06288 -2.00516,-16.09774 -7.07515,-21.16772 -5.23798,-5.23799 -6.64415,-5.58467 -23.54021,-5.80368 l -14.88,-0.19289 v 2.83289 c 0,2.66082 0.12147,2.85717 2,3.23287 1.1,0.22 4.35149,0.4 7.22554,0.4 9.32374,0 16.40162,2.9197 19.89034,8.20498 2.22598,3.37227 3.75355,9.86859 3.23671,13.76475 -0.72348,5.45388 -4.09655,10.34633 -8.20268,11.89756 -2.40503,0.90858 -14.12762,1.97153 -21.74991,1.97218 l -6.24,5.4e-4 v -23.68 -23.68001 l 12.32,0.0403 c 20.95671,0.0685 25.51692,0.98155 31.38632,6.28421 9.89736,8.94166 13.63356,27.63055 7.81806,39.10687 -1.73459,3.42307 -6.72796,8.29146 -10.45395,10.19232 -5.97679,3.04913 -8.71095,3.35517 -33.07043,3.70164 -22.59779,0.32142 -23.06122,0.35407 -24.14577,1.7012 -2.44299,3.03449 -3.04482,2.97351 29.34205,2.97351 h 30.47628 z m -66.51144,-4.39906 2.91516,-3.57867 -0.0115,-60.58133 -0.0115,-60.58134 -3.15216,-2.06087 -3.15215,-2.06086 -0.33251,2.70086 c -1.26369,10.26495 -0.97172,129.74088 0.3171,129.74088 0.28184,0 1.82426,-1.6104 3.4276,-3.57867 z m 35.33808,-14.30348 c 3.32187,-0.32152 7.13062,-1.12822 8.78787,-1.8613 7.62338,-3.37218 9.29859,-14.8157 2.95077,-20.15703 -4.56718,-3.84303 -6.69668,-4.48519 -15.84156,-4.7771 l -8.48,-0.27069 v 13.83413 13.83414 l 3.36,-0.0173 c 1.848,-0.01 5.99832,-0.2727 9.22292,-0.5848 z m 0.0971,-72.3651 c 5.45331,-0.70813 7.84058,-1.93908 10.1091,-5.21256 3.19619,-4.6121 2.63746,-10.1232 -1.48942,-14.69117 -2.83852,-3.1419 -5.15682,-3.76103 -14.09974,-3.76546 l -7.2,-0.004 v 12.16 12.16 l 4,-0.0198 c 2.2,-0.0109 6.10603,-0.29324 8.68006,-0.62748 z m 279.25638,92.00725 c -1.05463,-1.848 -2.53155,-4.92272 -3.28205,-6.8327 l -1.36455,-3.4727 3.60766,-7.73056 3.60766,-7.73056 14.02742,0.23371 14.02742,0.23371 v -43.59045 -43.59046 h -10.96828 -10.96826 l -5.1183,-3.68 c -2.81505,-2.024 -5.567,-4.36242 -6.11544,-5.19648 -0.74686,-1.13582 -1.06667,-3.82674 -1.27405,-10.72 l -0.27689,-9.20352 h 40.17683 40.17683 l 8.53483,4.96 8.53483,4.96 0.009,9.44 0.009,9.44 h -16 -16 v 44.06222 44.06221 l 7.2,0.41488 c 3.96,0.22818 9.37351,0.41618 12.03002,0.41778 l 4.83002,0.003 2.69186,6.56 c 1.48053,3.608 2.69147,6.848 2.69099,7.2 -4.8e-4,0.352 -1.34708,3.448 -2.99243,6.88 l -2.99156,6.24 h -41.44248 -41.44248 l -1.91751,-3.36 z m 84.09878,-4.01825 c 0.86063,-1.94604 1.56478,-3.81804 1.56478,-4.16 0,-0.38349 -5.39416,-0.62175 -14.07622,-0.62175 h -14.07617 l -0.16379,-51.68001 -0.16378,-51.68 -3.04,-0.19506 -3.04,-0.19507 v 51.87507 51.87507 h -19.84807 -19.84807 l -1.59193,3.59963 c -0.87556,1.9798 -1.59193,3.69406 -1.59193,3.80946 0,0.48326 9.81096,0.67102 41.15522,0.78759 l 33.15522,0.12332 z m -78.17247,-1.06741 c 0.91149,-1.82912 1.65725,-4.37582 1.65725,-5.65934 0,-2.35936 -2.37379,-7.6996 -3.60497,-8.10999 -0.36749,-0.1225 -1.60115,1.80142 -2.74147,4.27539 -1.81534,3.93842 -1.98738,4.75701 -1.38265,6.57885 0.89567,2.69838 3.06536,6.24075 3.82243,6.24075 0.32569,0 1.33793,-1.49655 2.24941,-3.32566 z m 78.91842,-7.80218 c 0.54797,-0.54797 -1.209,-6.24087 -2.00066,-6.48252 -0.38528,-0.11761 -5.38051,-0.34157 -11.10051,-0.4977 l -10.4,-0.28387 V 251.3 c 0,1.88978 0.072,3.47894 0.16,3.53146 0.088,0.0525 4.192,0.30126 9.12,0.55276 9.10774,0.46479 13.58084,0.38425 14.22117,-0.25609 z m -37.58113,-51.59217 v -51.84 h 20.8 20.8 v -6.08 -6.08 h -38.4 -38.4 v 6.08 6.08 h 8.23068 c 4.52686,0 9.56686,0.18315 11.2,0.40699 l 2.96932,0.407 v 46.953 46.95302 h -12.82008 c -10.1264,0 -12.88926,0.18023 -13.14926,0.85779 -0.18105,0.4718 0.28069,2.4878 1.02607,4.48 l 1.35524,3.62221 h 18.19401 18.19402 z m -39.04,-59.81615 v -5.41615 l -3.68,-2.47239 c -2.024,-1.35983 -4.04,-2.68355 -4.48,-2.94162 -0.61674,-0.36174 -0.8,0.92087 -0.8,5.59922 v 6.06844 l 3.65997,2.28932 c 2.01299,1.25914 4.02899,2.28933 4.48,2.28933 0.6021,0 0.82003,-1.43936 0.82003,-5.41615 z m 60.48,-8.59054 12.8,-0.39331 -3.98175,-2.08 -3.98175,-2.08 -34.73825,0.023 -34.73825,0.023 1.92,1.63058 c 3.98011,3.38013 4.12812,3.39784 27.84,3.33165 12.144,-0.0339 27.84,-0.23862 34.88,-0.45495 z m 493.8003,133.52177 c -0.8578,-1.49329 -2.33534,-4.54553 -3.28331,-6.78275 l -1.72365,-4.06768 3.44333,-7.24404 c 1.89383,-3.98421 3.44333,-7.49145 3.44333,-7.79386 0,-0.30241 6.482,-0.43373 14.40451,-0.29182 l 14.4045,0.25801 -0.1645,-43.43647 -0.1645,-43.43647 -11.0948,-0.17534 -11.09481,-0.17535 -4.6428,-3.43347 c -7.4787,-5.5308 -7.4076,-5.3758 -7.4076,-16.14215 v -9.19369 h 39.88901 39.889 l 8.431,4.90414 8.431,4.90414 v 9.48468 9.48468 l -15.84,0.17118 -15.84,0.17118 -0.1644,44 -0.1644,44.00001 3.6844,0.0756 c 2.0264,0.0416 7.5198,0.25759 12.2075,0.48 l 8.5231,0.4044 2.5169,6.01676 c 1.3843,3.30921 2.5169,6.64212 2.5169,7.40645 0,0.76433 -1.2864,4.03279 -2.8587,7.26324 l -2.8587,5.87355 -41.4613,-0.005 -41.46131,-0.005 -1.5597,-2.71508 z m 83.92251,-4.95507 c 0.9475,-1.936 1.7395,-3.736 1.76,-4 0.02,-0.264 -6.4428,-0.48 -14.3628,-0.48 h -14.4 v -51.84001 -51.84 h -3.2 -3.2 v 51.84 51.84001 h -19.7352 -19.7353 l -1.64431,3.81102 -1.6444,3.81104 3.93961,0.22846 c 2.1668,0.12566 18.9156,0.2107 37.2196,0.18898 l 33.28,-0.0395 z m -78.85681,0.3427 c 2.9652,-4.79782 2.8681,-9.54754 -0.2757,-13.49025 l -1.4731,-1.84743 -1.9986,3.95924 c -1.0992,2.17758 -1.9958,4.61545 -1.9923,5.41748 0.01,1.82884 2.9209,8.17826 3.752,8.17826 0.3396,0 1.234,-0.99778 1.9877,-2.2173 z m 79.72341,-8.79881 c 0.1575,-0.15742 -0.1559,-1.77519 -0.6963,-3.59506 l -0.9827,-3.30883 -8.9352,-0.12445 c -4.9143,-0.0684 -9.8712,-0.14044 -11.0152,-0.16 -2.0632,-0.0353 -2.0815,-0.008 -2.2735,3.32445 -0.1063,1.848 -0.1063,3.39514 0,3.43808 0.1065,0.0429 4.2255,0.29527 9.1535,0.5607 8.8264,0.47542 14.1882,0.42638 14.7494,-0.13489 z m -37.4694,-51.7039 v -51.84 h 20.8 20.8 v -6.08 -6.08 h -38.4 -38.4 v 6.00486 6.00486 l 10.5256,0.25409 c 5.7891,0.13975 10.6884,0.4169 10.8875,0.61589 0.1989,0.19898 0.5497,21.42447 0.7793,47.16774 l 0.4176,46.80595 -13.385,0.17331 c -15.22811,0.19717 -14.41501,-0.20216 -11.83661,5.81286 l 1.28611,3.00045 h 18.2628 18.2627 z m -39.68561,-60 -0.01,-5.6 -3.7255,-2.4 c -2.0491,-1.32 -3.9186,-2.4 -4.1545,-2.4 -0.2358,0 -0.4288,2.59458 -0.4288,5.76573 v 5.76572 l 3.36,2.20187 c 1.848,1.21102 3.72,2.21644 4.16,2.23427 0.582,0.0236 0.7985,-1.49412 0.7945,-5.56759 z m 61.02881,-8.40669 12.7031,-0.39331 -4.0631,-2.08025 -4.0632,-2.08024 -34.4,2.4e-4 c -18.92,1.4e-4 -34.39101,0.21625 -34.37991,0.48025 0.011,0.264 0.7465,1.00909 1.6343,1.65575 4.1313,3.00919 3.862,2.98082 27.46561,2.89362 12.32,-0.0455 28.1164,-0.25973 35.1032,-0.47606 z m -744.54321,66.50732 v -69.09938 l 6.50433,-4.50062 6.50433,-4.50063 h 9.49567 9.49567 v 58.56 58.56001 h 27.13153 c 21.11184,0 27.20087,0.17749 27.4441,0.8 0.17192,0.44 2.22509,3.45885 4.56261,6.70856 l 4.25003,5.90856 -3.66449,8.33144 -3.66448,8.33144 h -44.02966 -44.02964 z m 80.61833,64.45938 c -0.0119,-0.44 -1.45911,-2.6 -3.21599,-4.8 l -3.19431,-4 H 360.1794 332.35539 v -60.16001 -60.16 h -7.36 -7.36 v 64.96 64.96001 h 38.4 c 30.30489,0 38.39543,-0.16865 38.37833,-0.8 z m 8.36806,-5.74175 c 1.04149,-2.01397 1.89361,-4.1121 1.89361,-4.66252 0,-1.66243 -5.29108,-9.27573 -6.44644,-9.27573 -0.66264,0 -6.35356,7.63347 -6.35356,8.52231 0,0.71175 4.08474,6.48413 6.3116,8.91927 1.82258,1.99305 1.70678,2.08134 4.59479,-3.50333 z M 390.3974,249.75199 c 1.5169,-1.86118 2.75799,-3.62107 2.75799,-3.91085 0,-0.99771 -6.77355,-1.33406 -26.97716,-1.33961 l -20.25716,-0.006 -2.97439,4 -2.97438,4 9.15154,0.35255 c 5.03335,0.1939 15.75846,0.3379 23.83356,0.32 l 14.68202,-0.0326 2.75798,-3.38397 z m -48.0686,-54.21603 c -0.20856,-26.4 -0.56343,-51.66331 -0.78858,-56.14069 l -0.40939,-8.1407 -2.46772,1.95448 -2.46772,1.95447 0.0277,57.70622 0.0277,57.70623 3.22861,-3.52 3.2286,-3.52 -0.37921,-48.00001 z m -5.11155,-65.31751 c 3.89891,-3.15839 3.63396,-3.48249 -2.84686,-3.48249 -6.71559,0 -7.84715,0.34738 -11.295,3.46747 l -2.56,2.31664 7.14269,-0.17206 c 6.8978,-0.16615 7.22554,-0.23916 9.55917,-2.12956 z m -120.86186,134.59457 -4.32,-5.26624 v -66.73931 -66.73931 l 40.54104,0.1739 40.54104,0.1739 4.57896,3.0451 4.57896,3.0451 -0.006,7.5149 c -0.003,4.1332 -0.18717,9.0269 -0.40915,10.8749 l -0.40358,3.36 h -27.75061 -27.75086 v 15.36 15.36 h 17.28 17.28 l -0.0605,9.44 -0.0605,9.44 -4.08207,3.68 -4.08208,3.68 H 259.0926 245.95516 v 14.72001 14.72 l 8.48,0.0854 c 4.664,0.047 15.2242,0.26297 23.46713,0.48 l 14.98712,0.3946 4.37077,6.08 c 2.40391,3.344 4.37171,6.23274 4.37287,6.41943 0.003,0.54535 -4.22947,10.4246 -5.70963,13.32596 l -1.35409,2.65461 -36.94698,-0.008 -36.947,-0.008 -4.32,-5.26624 z m 69.46524,0.89349 3.70523,-0.41054 -1.78523,-2.7499 -1.78524,-2.74989 -33.70721,0.18989 c -18.53896,0.10444 -33.92825,0.41118 -34.19841,0.68165 -0.27017,0.27045 0.62853,1.63845 1.99709,3.04 l 2.48831,2.54825 29.79011,-0.0695 c 16.38456,-0.0382 31.45746,-0.25421 33.49535,-0.48 z m 10.70244,-8.34053 1.32169,-3.44998 -1.67377,-2.41524 c -0.92057,-1.32839 -2.19588,-2.88776 -2.83403,-3.46527 -1.10085,-0.99625 -1.22941,-0.84524 -2.51091,2.9495 -1.80976,5.35901 -1.71046,6.84957 0.67223,10.08952 l 2.0229,2.75071 0.8401,-1.50463 c 0.46206,-0.82754 1.43487,-3.05712 2.16179,-4.95461 z m -9.24604,-6.74807 c 1.2091,-2.61693 2.19836,-5.01913 2.19836,-5.33823 0,-0.70217 -21.45956,-1.42371 -42.34319,-1.42371 h -15.25681 v -18.24 -18.24001 h 18.56 18.56 v -6.72 -6.72 h -18.56 -18.56 v -25.82741 -25.82741 l 27.67537,-0.47084 c 15.22144,-0.25896 27.89344,-0.60562 28.16,-0.77036 0.26654,-0.16473 0.48463,-2.87452 0.48463,-6.02175 v -5.72223 h -36.16 -36.16 v 31.25479 c 0,17.19014 0.19105,45.55814 0.42454,63.04 l 0.42455,31.78522 h 34.1771 34.1771 z m -45.30984,-24.57491 0.17179,-14.82704 h -3.21179 -3.2118 l 0.01,13.92001 c 0.005,7.656 0.22233,14.25401 0.48208,14.66225 0.44266,0.6957 3.52433,1.43298 4.94812,1.18382 0.39917,-0.0699 0.70465,-5.69155 0.8118,-14.93904 z M 276.969,199.29153 c 0.21794,-1.16166 0.20211,-3.57554 -0.0351,-5.36417 l -0.4314,-3.25204 -1.51353,1.42188 c -1.37981,1.29627 -1.51149,1.93505 -1.49051,7.23032 l 0.023,5.80844 1.52567,-1.86615 c 0.83912,-1.02639 1.70398,-2.81662 1.92191,-3.97828 z m -5.09361,-10.31409 c 2.63604,-0.79762 -1.81342,-1.31326 -11.84,-1.37212 -10.4639,-0.0614 -16.64,0.40735 -16.64,1.26299 0,0.28273 1.224,0.63921 2.72,0.79217 3.55069,0.36305 24.10387,-0.18194 25.76,-0.68304 z m -30.00184,-2.72148 c 0.13301,0 0.22803,-7.416 0.21115,-16.48 l -0.0307,-16.48 -3.00932,-2.40251 -3.0093,-2.40252 -0.1697,18.58645 c -0.1103,12.07922 0.0655,19.02598 0.50215,19.84185 0.63054,1.17817 0.81311,1.19638 2.96787,0.29606 1.26283,-0.52763 2.40486,-0.95933 2.53787,-0.95933 z m 51.93533,-35.61344 c 1.94348,-0.51198 0.93676,-1.72455 -3.15201,-3.79648 l -3.05893,-1.55008 -24.50128,0.0287 -24.50127,0.0287 3.14762,2.82065 c 2.52405,2.26185 3.72855,2.87708 6.08,3.10552 4.03962,0.39244 44.18931,-0.1637 45.98587,-0.63697 z m 5.26651,-9.12026 v -5.6937 l -2.31857,-2.03573 c -3.04163,-2.67058 -3.6583,-1.95933 -3.61878,4.17378 0.0299,4.6358 0.13657,4.98634 2.14994,7.06361 3.33403,3.43985 3.78741,3.01993 3.78741,-3.50796 z m 236.86892,123.17179 -4.54892,-5.40191 v -66.59809 -66.59809 h 40.19765 40.19765 l 3.48235,2.11563 c 7.13661,4.33568 6.36364,2.60804 6.35255,14.19832 -0.005,5.63533 -0.23645,10.60292 -0.51346,11.03908 -0.38504,0.60625 -6.97759,0.83236 -27.99021,0.96 l -27.48653,0.16697 -0.17158,15.2 -0.17159,15.2 h 17.29159 17.29158 v 9.54888 9.54888 l -4,3.56825 -4,3.56824 -13.35827,0.003 -13.35828,0.003 0.46702,14.56 c 0.25686,8.008 0.511,14.61091 0.56474,14.67313 0.0538,0.0622 10.49471,0.32095 23.20216,0.57495 l 23.10446,0.46183 4.4886,6.23664 4.4886,6.23664 -2.37503,5.66841 c -1.30627,3.11762 -2.90739,6.7484 -3.55805,8.0684 l -1.18302,2.4 h -36.93256 -36.93255 l -4.5489,-5.40191 z m 68.60251,1.15071 4.86456,-0.41121 -1.91874,-2.78879 -1.91874,-2.78879 -31.80926,0.0369 c -17.49509,0.0203 -32.96125,0.24554 -34.36925,0.50053 l -2.56,0.46363 2.88,2.69151 2.88,2.69151 28.54344,0.008 c 15.69889,0.004 30.73249,-0.17706 33.40799,-0.40322 z m 10.72871,-6.29474 c 1.03392,-2.28027 1.87986,-4.72744 1.87986,-5.43816 0,-1.28222 -4.13467,-6.41589 -5.16737,-6.41589 -0.29614,0 -1.13707,2.01011 -1.86873,4.46691 -1.26499,4.24761 -1.27738,4.56967 -0.2522,6.56 1.3809,2.68095 2.87519,4.97309 3.24205,4.97309 0.15758,0 1.13246,-1.86568 2.16639,-4.14595 z m -8.14533,-9.50591 c 1.35014,-2.75653 2.32411,-5.14256 2.16438,-5.30229 -0.15973,-0.15974 -13.2884,-0.47097 -29.17481,-0.69164 l -28.88438,-0.40121 v -18.13651 -18.1365 h 18.88 18.88 v -6.72 -6.72 h -18.88 -18.88 V 168.1072 142.27845 l 28,-0.46971 c 15.4,-0.25835 28.08269,-0.5501 28.18376,-0.64834 0.10107,-0.0982 0.24507,-2.73593 0.32,-5.86153 l 0.13624,-5.68291 -36.42015,-0.16533 -36.42016,-0.16532 0.42016,9.70708 c 0.23108,5.33889 0.42015,33.7118 0.42015,63.05089 v 53.3438 l 34.4,-0.16555 34.4,-0.16556 z m -45.65481,-23.78814 v -15.04001 h -3.2 -3.2 v 4.05779 c 0,2.23178 0.18864,8.84086 0.4192,14.68685 l 0.4192,10.62906 1.9808,0.25073 c 1.08944,0.1379 2.3408,0.29682 2.7808,0.35315 0.62021,0.0794 0.8,-3.27761 0.8,-14.93757 z m 35.2,-30.48817 v -5.18796 l -1.42764,0.94791 c -1.83017,1.2152 -2.27432,2.89438 -2.32981,8.80821 l -0.0451,4.8 1.90123,-2.09009 c 1.78015,-1.95689 1.90132,-2.42075 1.90132,-7.27807 z m -5.44,-6.76815 1.92,-0.40067 -1.6,-0.46771 c -2.01635,-0.58942 -21.21705,-0.73296 -25.19068,-0.18832 -3.71093,0.50865 -3.83276,1.34984 -0.24932,1.7216 3.50864,0.364 22.61261,-0.14166 25.12,-0.6649 z m -32.02172,-1.90222 2.26172,-1.07853 v -16.38594 -16.38594 l -2.84189,-2.37553 c -1.56304,-1.30654 -3.03152,-2.37553 -3.26329,-2.37553 -0.6064,0 -0.0768,37.92241 0.54295,38.88 0.65154,1.00669 0.59547,1.01142 3.30051,-0.27853 z m 53.94172,-36.45295 c 2.16492,-0.568 1.77949,-1.22034 -1.99791,-3.38155 l -3.4379,-1.96697 h -24.8122 -24.8122 l 3.08057,2.72 c 2.45338,2.16622 3.74217,2.80654 6.33011,3.14505 3.77569,0.49387 43.51212,0.0442 45.64953,-0.51653 z m 5.76391,-8.59988 c 0.18177,-5.26614 -0.46584,-7.09904 -3.2347,-9.15489 -2.42068,-1.79733 -2.98676,-0.80267 -2.99941,5.27025 -0.009,4.52497 0.0752,4.78895 2.2222,6.936 3.12998,3.12999 3.81657,2.60778 4.01191,-3.05136 z m 162.56966,122.73639 -4.30643,-5.24502 -0.0136,-66.72001 -0.0136,-66.72 h 40.23789 40.23789 l 4.88211,3.18708 4.88211,3.18708 -0.007,8.49292 c -0.006,4.67111 -0.18554,9.57292 -0.40371,10.89292 l -0.39674,2.4 h -27.75626 -27.75629 v 15.36 15.36 h 17.28 17.28 l -0.007,9.44 -0.007,9.44 -4.19482,3.68 -4.19475,3.68 h -13.07833 -13.07834 v 14.61764 14.61764 l 15.46362,0.42236 c 8.50502,0.2323 19.08902,0.43722 23.52,0.45538 l 8.05638,0.033 3.84,5.44245 c 2.112,2.99334 4.10797,5.82906 4.43546,6.3016 0.58643,0.84605 -3.64788,12.24178 -5.7778,15.54992 l -0.92716,1.44 -36.94528,-0.0349 -36.94522,-0.035 -4.30643,-5.24502 z m 72.80237,0.71288 c 0.24288,-0.24315 -0.38138,-1.6154 -1.3872,-3.04944 l -1.82874,-2.60735 -33.7072,0.16944 c -18.53894,0.0932 -33.92826,0.39073 -34.1984,0.6612 -0.27021,0.27045 0.64205,1.65795 2.0272,3.08331 l 2.5184,2.59156 33.06714,-0.20332 c 18.18694,-0.11182 33.26592,-0.40224 33.5088,-0.6454 z m 7.0023,-7.0359 1.77805,-4.27799 -1.31821,-2.13292 c -0.72499,-1.17311 -2.0352,-2.8065 -2.91149,-3.62976 l -1.59334,-1.49682 -1.32659,4.29515 c -0.72967,2.36235 -1.32666,4.78444 -1.32666,5.38245 0,1.57085 3.82893,7.37762 4.42112,6.70484 0.2745,-0.31182 1.2992,-2.49205 2.27712,-4.84495 z m -8.91322,-7.70395 c 1.21824,-2.54207 2.21498,-4.94427 2.21498,-5.33822 0,-0.85134 -19.23296,-1.55983 -42.34317,-1.55983 h -15.25683 v -18.24 -18.24001 h 18.88 18.88 v -6.72 -6.72 h -18.88 -18.88 V 168.1072 142.27845 l 28,-0.46971 c 15.4,-0.25835 28.03942,-0.5154 28.08762,-0.57124 0.048,-0.0559 0.19225,-2.69354 0.32,-5.86154 l 0.23238,-5.76 -36.32,-0.16528 -36.32,-0.16528 v 22.61975 c 0,12.44087 0.19123,40.81125 0.42502,63.04529 l 0.42496,40.42553 h 34.16 34.16 z m -45.29324,-24.71102 0.17184,-14.82704 h -3.21184 -3.21178 l 0.006,10.40001 c 0,5.72 0.18675,12.32875 0.40941,14.68611 0.39782,4.21243 0.43904,4.29035 2.39545,4.53217 1.09479,0.13533 2.2786,0.19875 2.6306,0.14092 0.39942,-0.0656 0.70457,-5.67878 0.81177,-14.93217 z m 35.05926,-27.29077 c 0.43398,-2.89412 -0.058,-7.37627 -0.80966,-7.37627 -0.22029,0 -0.9273,0.47664 -1.57101,1.0592 -0.97376,0.88123 -1.16698,2.03714 -1.15015,6.88 l 0.0205,5.8208 1.53876,-1.748 c 0.87494,-0.99393 1.72556,-2.99376 1.97184,-4.63573 z m -4.8567,-9.94469 c 1.73056,-0.94984 -4.80077,-1.42333 -16.13389,-1.16964 -11.24026,0.25163 -15.69728,1.09945 -10.08045,1.91753 3.6871,0.53702 24.98016,-0.0705 26.21434,-0.74789 z m -30.2962,-2.55158 c 0.13306,0 0.24077,-7.416 0.23936,-16.48 v -16.48 l -3.03756,-2.45855 -3.03751,-2.45855 -0.16973,18.23136 c -0.10259,11.02217 0.083,18.89581 0.46919,19.91168 0.63091,1.65945 0.66777,1.66823 2.96787,0.70718 1.28096,-0.53521 2.43782,-0.97312 2.57082,-0.97312 z m 51.92186,-35.60991 c 0.792,-0.20866 1.44,-0.59366 1.44,-0.85557 0,-0.2619 -1.69632,-1.38031 -3.7696,-2.48535 l -3.7696,-2.00917 -24.5504,0.0246 -24.5504,0.0246 3.2,2.82407 c 2.52877,2.23172 3.8041,2.88398 6.08,3.10961 3.95072,0.39169 44.13318,-0.16202 45.92,-0.63278 z m 5.28,-9.22616 c 0,-5.71549 -0.0288,-5.82234 -2.06726,-7.68425 -1.13703,-1.03849 -2.36103,-1.79107 -2.72,-1.67241 -0.35904,0.11867 -0.73709,2.61409 -0.84026,5.54539 -0.18464,5.24841 -0.1559,5.36222 1.88557,7.46848 3.29529,3.39994 3.74195,2.96343 3.74195,-3.65721 z m 286.40001,127.35757 c -1.056,-0.72054 -4.152,-2.44986 -6.88,-3.84293 l -4.96,-2.53285 v -53.75286 -53.75286 h -16.2908 -16.2908 l -5.2895,-4 c -3.249,-2.45691 -5.4577,-4.61723 -5.7254,-5.6 -0.2398,-0.88 -0.4647,-5.776 -0.4999,-10.88 l -0.064,-9.28 45.8967,0.20235 45.8967,0.20235 5.1434,3.56202 c 2.829,1.95911 6.0796,4.44454 7.2236,5.52319 l 2.08,1.96118 v 9.15446 9.15445 h -16.3164 -16.3163 l -0.1637,53.54509 -0.1636,53.54509 -5.9381,4.05491 c -6.4789,4.42418 -8.2442,4.85009 -11.3419,2.73641 z m 8.4765,-5.23641 c 2.2019,-1.49321 4.0035,-3.05635 4.0035,-3.47366 0,-0.91474 -7.0973,-5.33142 -8.5672,-5.33142 -1.7568,0 -8.7559,4.71005 -8.5593,5.76 0.2084,1.11366 6.7467,5.71156 8.163,5.74047 0.526,0.0107 2.758,-1.20219 4.96,-2.69539 z m -10.2928,-10.43206 2.7763,-1.62698 v -49.89302 -49.89303 h 23.36 23.36 v -6.4 -6.4 h -43.84 -43.84 v 6.4 6.4 h 15.68 15.68 l 0.01,49.12 c 0,32.07526 0.2348,49.95281 0.6701,51.52001 0.8153,2.93612 2.1687,3.10623 6.1501,0.77302 z m 15.1616,-1.73302 c 0.2219,-1.848 0.4061,-24.312 0.4091,-49.92001 l 0.01,-46.56 h -4.48 -4.48 l 0.01,47.52 0.01,47.52001 3.6715,2.39276 c 2.0193,1.31602 3.8473,2.39602 4.0623,2.4 0.215,0.004 0.5725,-1.50476 0.7944,-3.35276 z m -57.3206,-107.82005 0.1848,-5.15702 -3.7048,-2.94671 c -2.0376,-1.62069 -4.0647,-2.94885 -4.5047,-2.95147 -0.581,-0.003 -0.7943,1.52835 -0.7792,5.59524 l 0.021,5.6 3.6592,2.69807 c 2.0126,1.48394 3.9472,2.61276 4.2992,2.50849 0.352,-0.10427 0.7232,-2.51024 0.8247,-5.3466 z m 67.7935,-8.28375 18.6983,-0.42144 -4.3964,-3.09738 -4.3963,-3.09739 h -40.4352 c -26.6739,0 -40.3626,0.21783 -40.2219,0.64004 0.1173,0.35202 1.7973,1.91637 3.7333,3.47633 l 3.52,2.83628 22.4,0.0425 c 12.32,0.0234 30.8142,-0.14715 41.0982,-0.37894 z M 691.52198,268.90774 c -1.00038,-0.63453 -17.32934,-35.04738 -31.84345,-67.10912 -5.77069,-12.74754 -13.81895,-30.39962 -17.88506,-39.22684 l -7.39296,-16.0495 1.29747,-4.20058 c 0.71354,-2.31031 1.29741,-4.61824 1.29741,-5.12873 0,-0.51049 1.05626,-3.36015 2.34726,-6.33258 l 2.3472,-5.40443 h 13.0128 c 11.53293,0 13.01274,0.11712 13.01274,1.02994 0,1.68142 5.30438,13.37468 15.79072,34.81006 11.87232,24.26855 18.7431,37.2354 19.58182,36.95583 0.34132,-0.11378 1.29856,-2.01023 2.12717,-4.21431 2.568,-6.83115 17.29427,-47.929 20.62829,-57.56917 1.74003,-5.0312 3.67366,-9.7112 4.29702,-10.4 1.04992,-1.16018 2.03648,-1.25235 13.40416,-1.25235 h 12.27079 l 4.56838,10.65288 4.56839,10.65288 -17.33389,42.94712 c -21.5177,53.31312 -27.12423,66.94901 -30.61767,74.46713 l -2.75084,5.92 -10.94714,-0.01 c -6.02099,-0.005 -11.32224,-0.24768 -11.78061,-0.53842 z m 17.15341,-3.80764 c 0,-0.61331 -5.44742,-13.24107 -10.54477,-24.44413 -3.22784,-7.09412 -17.45337,-39.71774 -34.04685,-78.08001 l -5.675,-13.12 h -7.77434 c -4.27584,0 -7.98419,0.21032 -8.2407,0.46737 -0.25652,0.25706 0.46278,2.68102 1.59846,5.38658 3.72179,8.86636 27.2743,61.72593 35.88877,80.54606 2.90016,6.336 6.99302,15.408 9.09529,20.16 2.10234,4.752 3.95565,8.856 4.11853,9.12 0.40115,0.65021 15.58061,0.61527 15.58061,-0.0358 z m 12.34528,-20.92413 c 25.10931,-61.19363 38.21472,-93.71432 38.21472,-94.82893 0,-0.66727 -1.92064,-0.85108 -8.89274,-0.85108 h -8.89273 l -3.68263,10.08 c -6.73126,18.42499 -23.95974,64.2214 -24.6334,65.48022 -0.36493,0.68188 -0.88391,1.23979 -1.15328,1.23979 -0.43764,0 -5.78266,-10.32713 -36.92192,-71.33629 -4.66452,-9.13895 -8.76576,-16.7112 -9.1138,-16.82721 -0.34803,-0.11602 -1.26681,2.35488 -2.04166,5.49089 l -1.4089,5.70184 19.3218,45.04538 c 16.87494,39.34089 29.44428,68.12482 30.53593,69.92757 0.48602,0.80259 0.55891,0.64189 8.66861,-19.12218 z m -8.14918,-30.88001 c 0.96198,-2.27854 5.03558,-13.16885 19.0958,-51.05008 l 6.17991,-16.6501 -2.73594,-5.10127 c -1.5047,-2.8057 -3.16825,-5.18449 -3.69677,-5.2862 -0.72256,-0.13905 -2.69164,4.62166 -7.93772,19.19137 -9.73236,27.02911 -17.66138,50.2664 -17.66138,51.75936 0,1.22249 2.69677,7.12132 3.99424,8.73692 1.04986,1.30725 1.69133,0.93563 2.76186,-1.6 z m -52.88858,-75.2 c 1.14054,-3.96 2.21696,-7.71227 2.39206,-8.33838 0.29575,-1.05764 -0.30924,-1.12573 -8.53062,-0.96 l -8.84896,0.17838 -2.0553,5.44 c -2.68492,7.10669 -3.17152,9.57672 -2.02905,10.30028 0.4864,0.30807 4.50995,0.56454 8.94125,0.56992 l 8.05696,0.01 2.07366,-7.2 z m 98.74502,6.03502 c 0.97344,-0.38762 0.76423,-1.25423 -1.92,-7.95319 l -3.01254,-7.51816 -9.12,-0.002 c -5.62355,-0.001 -9.12,0.24229 -9.12,0.63492 0,0.35022 1.32595,3.95022 2.94656,8 l 2.94662,7.36325 8.09338,-0.045 c 4.45139,-0.0247 8.58509,-0.24074 9.18598,-0.48 z"
       id="path845" />
    <path
       style="fill:#ffffff;stroke:#ffffff;stroke-width:0.353894;stroke-opacity:0"
       d="M 3.6628052,139.77326 C 3.5553725,138.25403 3.3682524,113.04354 3.2469826,83.749946 3.032887,32.033604 3.2689476,11.945881 4.1005599,11.114268 c 0.1979316,-0.197931 1.4474887,0.413931 3.1899206,1.561986 l 2.8645245,1.887381 0.008,60.413997 0.008,60.413998 -2.5930978,3.11001 c -3.8317715,4.59559 -3.6833957,4.5474 -3.915043,1.27162 z"
       id="path847"
       transform="translate(105.15539,123.53596)" />
    <path
       style="fill:#ffffff;stroke:#ffffff;stroke-width:0.353894;stroke-opacity:0"
       d="m 115.33361,140.2267 c -1.1987,-1.24833 -2.17946,-2.41825 -2.17946,-2.59982 0,-0.57239 7.58987,-0.77684 37.97955,-1.02307 l 29.54468,-0.23938 1.64893,2.57249 c 0.90691,1.41487 1.56681,2.65461 1.46645,2.75497 -0.41398,0.41398 -19.57772,0.77178 -42.18351,0.78761 l -24.09718,0.0169 z"
       id="path849"
       transform="translate(105.15539,123.53596)" />
    <path
       style="fill:#ffffff;stroke:#ffffff;stroke-width:0.353894;stroke-opacity:0"
       d="m 142.81538,27.492505 c -2.66651,-0.272346 -3.94512,-0.972524 -7.03189,-3.850712 l -1.92653,-1.796345 24.16337,-0.01349 24.16337,-0.01349 2.17771,1.099307 c 4.40128,2.221759 5.72317,3.455927 4.29043,4.00572 -0.57369,0.220145 -34.44835,0.932984 -40.46217,0.851462 -1.65445,-0.02243 -4.07289,-0.149529 -5.37429,-0.28245 z"
       id="path851"
       transform="translate(105.15539,123.53596)" />
    <path
       style="fill:#ffffff;stroke:#ffffff;stroke-width:0.353894;stroke-opacity:0"
       d="M 212.59841,78.468224 V 13.6789 h 7.25483 7.25483 v 60.162009 60.162011 h 27.87381 27.87379 l 2.11874,2.69995 c 1.1653,1.48497 2.5524,3.35225 3.08244,4.1495 0.88568,1.33216 0.91434,1.47892 0.3539,1.8122 -0.40278,0.23952 -13.37619,0.40175 -38.21108,0.47781 l -37.60126,0.11517 z"
       id="path853"
       transform="translate(105.15539,123.53596)" />
    <path
       style="fill:#ffffff;stroke:#ffffff;stroke-width:0.353894;stroke-opacity:0"
       d="m 331.74923,128.18878 c -0.63262,-1.83529 -1.09446,-3.62688 -1.02631,-3.98131 0.18738,-0.97459 2.02465,-1.11983 14.5358,-1.14904 l 11.23614,-0.0262 V 76.002138 c 0,-44.463587 -0.0338,-47.043102 -0.61931,-47.268991 -0.73797,-0.284703 -12.48738,-0.866759 -17.87166,-0.885347 l -3.80436,-0.01313 v -5.839254 -5.839254 h 38.22057 38.22057 v 5.839254 5.839254 h -20.70281 -20.70281 v 51.845496 51.845494 h -18.1678 -18.16781 z"
       id="path855"
       transform="translate(105.15539,123.53596)" />
    <path
       style="fill:#ffffff;stroke:#ffffff;stroke-width:0.353894;stroke-opacity:0"
       d="m 465.49427,27.502709 c -5.5215,-0.233681 -6.08441,-0.435504 -9.70755,-3.480494 l -2.41163,-2.026802 24.49303,-0.0909 24.49304,-0.09091 3.33104,1.960427 c 3.3738,1.985588 3.97722,2.733504 2.53479,3.141791 -0.70645,0.199966 -34.84609,0.975527 -37.07041,0.842141 -0.48661,-0.02918 -3.03465,-0.144044 -5.66231,-0.255252 z"
       id="path857"
       transform="translate(105.15539,123.53596)" />
    <path
       style="fill:#ffffff;stroke:#ffffff;stroke-width:0.353894;stroke-opacity:0"
       d="m 434.76484,139.978 c -1.42716,-1.37274 -2.49778,-2.59295 -2.37915,-2.71158 0.42099,-0.42098 18.40891,-0.73411 43.01762,-0.74883 l 24.94954,-0.0149 1.71705,2.48894 c 0.94439,1.36892 1.6342,2.57181 1.53291,2.67309 -0.52107,0.52107 -14.17754,0.80499 -38.81633,0.80698 l -27.4268,0.002 -2.59484,-2.49589 z"
       id="path859"
       transform="translate(105.15539,123.53596)" />
    <path
       style="fill:#ffffff;stroke:#ffffff;stroke-width:0.353894;stroke-opacity:0"
       d="m 588.11465,141.29679 c -0.20128,-0.2433 -2.1115,-4.34405 -4.24495,-9.11278 -2.13344,-4.76872 -7.6583,-17.03115 -12.27748,-27.24985 -17.8461,-39.47978 -32.63251,-72.954975 -33.64586,-76.171424 -0.35185,-1.116829 -0.52651,-2.143823 -0.38813,-2.282209 0.13839,-0.138386 3.70685,-0.259757 7.92992,-0.269714 l 7.6783,-0.0181 3.14632,7.25483 c 18.95739,43.71229 30.11544,69.298787 35.88176,82.280397 7.22458,16.26456 11.06296,25.18271 11.06296,25.70382 0,0.51625 -14.71259,0.38512 -15.14284,-0.13497 z"
       id="path861"
       transform="translate(105.15539,123.53596)" />
    <path
       style="fill:#ffffff;stroke:#ffffff;stroke-width:0.353894;stroke-opacity:0"
       d="m 604.93703,91.038487 c -0.97421,-1.486837 -3.01116,-5.735011 -3.43363,-7.161027 -0.37888,-1.278875 -0.29979,-1.808598 0.81901,-5.48536 3.7297,-12.257079 21.29771,-61.39081 23.41356,-65.482422 l 0.59145,-1.143732 0.84116,0.843286 c 0.97849,0.980976 5.45804,8.750124 5.46048,9.470436 10e-4,0.439133 -17.76556,48.4754 -22.92594,61.984227 -3.11033,8.142223 -3.56504,8.807626 -4.76609,6.974592 z"
       id="path863"
       transform="translate(105.15539,123.53596)" />
    <path
       style="fill:#ffffff;stroke:#ffffff;stroke-width:0.353894;stroke-opacity:0"
       d="m 543.20074,21.432621 c -5.02238,-0.136582 -7.28093,-0.326053 -7.59105,-0.63682 -0.66421,-0.665573 0.10731,-3.867451 2.42404,-10.060046 l 1.96255,-5.2458546 h 8.39155 c 4.61536,0 8.4756,0.084047 8.57833,0.1867706 0.10272,0.1027238 -0.6698,3.168332 -1.71673,6.812463 -1.04692,3.64413 -2.06608,7.222888 -2.26479,7.952795 -0.32869,1.207342 -0.46386,1.320697 -1.49781,1.256112 -0.62509,-0.03905 -4.35383,-0.158484 -8.28609,-0.26542 z"
       id="path865"
       transform="translate(105.15539,123.53596)" />
    <path
       style="fill:#ffffff;stroke:#ffffff;stroke-width:0.353894;stroke-opacity:0"
       d="m 707.1798,27.414173 c -1.91277,-0.320981 -3.45648,-1.237175 -6.05569,-3.594058 l -1.7546,-1.591008 23.95203,-0.260031 23.95202,-0.260031 2.75211,1.50681 c 1.51366,0.828745 3.28574,1.863181 3.93797,2.298746 1.15033,0.768204 1.16359,0.803852 0.44276,1.189628 -1.37801,0.73749 -43.30643,1.367788 -47.2266,0.709944 z"
       id="path867"
       transform="translate(105.15539,123.53596)" />
    <path
       style="fill:#ffffff;stroke:#ffffff;stroke-width:0.353894;stroke-opacity:0"
       d="m 680.89804,140.91591 c -1.99848,-2.21927 -2.78352,-3.37292 -2.49295,-3.66349 0.11985,-0.11985 15.27925,-0.37904 33.68755,-0.57597 28.6566,-0.30656 33.54005,-0.28636 33.95936,0.14049 0.26935,0.2742 1.0612,1.45206 1.75967,2.61747 l 1.26995,2.11892 -0.98308,0.27732 c -0.54069,0.15252 -13.16588,0.35523 -28.05597,0.45047 -14.8901,0.0952 -29.41804,0.239 -32.28432,0.31946 l -5.21141,0.14628 z"
       id="path869"
       transform="translate(105.15539,123.53596)" />
    <path
       style="fill:#ffffff;stroke:#ffffff;stroke-width:0.500482;stroke-opacity:0"
       d="m 894.04989,128.33032 c -1.11379,-2.7667 -1.28599,-3.64849 -0.80632,-4.12897 0.43378,-0.43453 4.25249,-0.68324 13.22311,-0.86121 l 12.6132,-0.25024 0.14348,-13.01253 c 0.0789,-7.1569 -0.071,-28.302247 -0.33314,-46.989674 -0.38415,-27.384763 -0.6062,-34.059277 -1.14445,-34.40047 -0.3673,-0.232831 -2.15243,-0.426778 -3.96694,-0.430993 -1.81452,-0.0042 -6.37516,-0.155188 -10.13476,-0.335495 l -6.83564,-0.327832 v -5.677951 -5.677952 h 38.28687 38.28687 v 5.755542 5.755542 h -20.77 -20.77 v 52.050122 52.050121 h -18.18802 -18.18802 z"
       id="path871"
       transform="translate(105.15539,123.53596)" />
    <path
       style="fill:#ffffff;stroke:#ffffff;stroke-width:0.500482;stroke-opacity:0"
       d="m 1038.1427,129.72128 c -0.5075,-0.88851 -0.696,-11.73743 -0.8934,-51.424517 l -0.2502,-50.298435 -15.6401,-0.132251 -15.6401,-0.13225 v -5.998653 -5.998653 h 43.542 43.5419 v 6.005783 6.005783 h -23.2724 -23.2724 v 50.011464 50.011459 l -2.6885,1.53818 c -3.1973,1.82933 -4.5582,1.93267 -5.4268,0.41209 z"
       id="path873"
       transform="translate(105.15539,123.53596)" />
  </g>
</svg>
