<?xml version="1.0" encoding="UTF-8" standalone="no"?>
<svg
   xmlns:dc="http://purl.org/dc/elements/1.1/"
   xmlns:cc="http://creativecommons.org/ns#"
   xmlns:rdf="http://www.w3.org/1999/02/22-rdf-syntax-ns#"
   xmlns:svg="http://www.w3.org/2000/svg"
   xmlns="http://www.w3.org/2000/svg"
   xmlns:sodipodi="http://sodipodi.sourceforge.net/DTD/sodipodi-0.dtd"
   xmlns:inkscape="http://www.inkscape.org/namespaces/inkscape"
   version="1.1"
   id="svg845"
   width="616.89172"
   height="617.75708"
   viewBox="0 0 616.89173 617.75708"
   sodipodi:docname="cop_shock.svg"
   inkscape:version="1.0.2 (e86c870879, 2021-01-15, custom)">
  <metadata
     id="metadata851">
    <rdf:RDF>
      <cc:Work
         rdf:about="">
        <dc:format>image/svg+xml</dc:format>
        <dc:type
           rdf:resource="http://purl.org/dc/dcmitype/StillImage" />
        <dc:title></dc:title>
      </cc:Work>
    </rdf:RDF>
  </metadata>
  <defs
     id="defs849" />
  <sodipodi:namedview
     pagecolor="#ffffff"
     bordercolor="#666666"
     borderopacity="1"
     objecttolerance="10"
     gridtolerance="10"
     guidetolerance="10"
     inkscape:pageopacity="0"
     inkscape:pageshadow="2"
     inkscape:window-width="1920"
     inkscape:window-height="1001"
     id="namedview847"
     showgrid="false"
     inkscape:zoom="1.2257798"
     inkscape:cx="296.13153"
     inkscape:cy="302.99108"
     inkscape:window-x="-9"
     inkscape:window-y="-9"
     inkscape:window-maximized="1"
     inkscape:current-layer="g853" />
  <g
     inkscape:groupmode="layer"
     inkscape:label="Image"
     id="g853"
     transform="translate(-12.668461,-35.568919)">
    <path
       style="fill:#000000;stroke-width:0.64"
       d="M 295.4371,652.39142 C 235.26655,647.11891 179.17111,625.32805 132.55711,589.11904 66.78759,538.03034 24.980828,464.42924 14.790688,381.79043 12.374765,362.19806 11.9597,332.18646 13.864623,314.83065 18.242696,274.9419 27.185805,243.2022 43.528752,209.55065 77.483052,139.63578 135.34697,85.860698 207.7571,56.927158 c 56.41383,-22.54175 122.31581,-27.48111 182.4,-13.67088 87.46946,20.10468 161.45372,77.073242 203.7739,156.907822 43.8857,82.78781 47.42739,182.74349 9.52807,268.90655 -23.12974,52.58483 -61.19119,98.3682 -108.66198,130.70736 -39.45127,26.87592 -84.70528,44.34991 -131.51999,50.78397 -20.6123,2.83289 -47.96925,3.57062 -67.84,1.82944 z m 39.04,-34.85761 c 19.00119,-1.01608 33.92294,-3.16864 51.37385,-7.41102 78.70433,-19.13326 145.80168,-73.43613 181.00764,-146.49214 13.59058,-28.20184 21.63061,-55.97822 25.65736,-88.64 1.62008,-13.14083 1.62652,-47.5676 0.0114,-60.8 -3.98657,-32.66063 -11.95013,-60.27597 -25.43227,-88.19173 -6.07055,-12.56952 -9.97516,-19.52942 -17.1009,-30.48206 C 508.38659,131.56387 442.08963,87.690188 367.7571,74.916908 c -26.24691,-4.51026 -55.84833,-5.11321 -82.24,-1.67515 C 207.13344,83.452858 136.95732,127.47238 93.209983,193.87065 85.1107,206.16348 81.413356,212.6782 74.976006,225.99892 56.228711,264.79244 47.348633,306.03069 48.267519,350.03065 c 0.471316,22.56845 2.491241,38.46436 7.522662,59.2 21.805799,89.86668 87.954289,162.85552 175.388119,193.52484 27.33812,9.58945 55.36525,14.4953 87.6188,15.33675 1.936,0.0505 8.992,-0.20079 15.68,-0.55843 z m -31.04,-42.71918 -18.88,-11.34398 -0.16827,-21.80695 -0.16827,-21.80695 16.54281,-10.98165 c 9.09854,-6.03989 17.61796,-11.43086 18.93204,-11.97992 2.27231,-0.94943 2.55151,-0.92359 5.70546,0.52819 4.45251,2.0495 10.1937,5.5741 22.97654,14.10565 l 10.70031,7.14163 0.0197,18.92246 c 0.0195,18.77262 -0.4588,24.71113 -2.27296,28.21934 -0.49136,0.9502 -3.27253,3.30479 -6.18037,5.23241 -5.1293,3.40025 -26.74195,15.16206 -27.80137,15.12977 -0.28909,-0.009 -9.02161,-5.12081 -19.40561,-11.36 z m 34.20833,-9.34693 c 4.20659,-2.56149 8.1857,-5.37699 8.84249,-6.25668 1.77804,-2.3815 2.35773,-5.80555 2.36687,-13.98037 0.0106,-9.46261 -0.44119,-12.35544 -1.87111,-11.98151 -2.09479,0.5478 -16.05493,10.14982 -17.12013,11.77551 -1.77623,2.71087 -2.06104,25.26016 -0.31745,25.13315 0.24805,-0.0181 3.89275,-2.12862 8.09933,-4.6901 z m -8.65851,-36.1591 c 3.21941,-1.22328 11.82437,-6.61593 12.6256,-7.91234 0.89111,-1.44185 -12.79288,-11.1698 -16.57572,-11.78367 -2.53066,-0.41067 -5.27637,0.96351 -16.33751,8.17666 l -4.65781,3.03744 4.38456,3.54257 c 2.41151,1.94841 5.65952,4.12097 7.21781,4.82792 3.64168,1.65212 9.16685,1.69825 13.34307,0.11142 z m -7.48025,-59.66009 c -2.34357,-0.87952 -8.53376,-5.25627 -23.34957,-16.50926 l -13.92,-10.57259 0.0436,-122.268 c 0.024,-67.24741 0.26573,-128.58784 0.53718,-136.31207 l 0.49355,-14.04407 2.82281,-2.4626 c 5.67596,-4.95163 22.11391,-17.05079 25.36155,-18.66736 1.83629,-0.91405 4.28429,-1.6619 5.44,-1.66188 3.42672,6e-5 11.29028,4.99024 26.10127,16.56373 l 13.76,10.75223 0.16149,135.08208 0.16148,135.08207 -8.80148,7.00769 c -9.62521,7.66354 -19.5966,14.64165 -24.33176,17.02769 -2.21195,1.1146 -3.42122,1.37975 -4.48015,0.98234 z m 8.7972,-19.08564 c 4.31619,-2.5642 13.45323,-10.00711 13.45323,-10.95881 0,-0.65536 -12.91383,-10.24456 -17.58207,-13.05563 -2.08045,-1.25278 -4.23157,-2.27654 -4.78028,-2.27504 -0.54871,10e-4 -2.29365,0.86217 -3.87765,1.91258 -3.30635,2.19256 -15.36,12.80384 -15.36,13.52197 0,0.6221 12.26445,10.06848 16,12.32359 3.77053,2.27623 6.37279,1.9616 12.14677,-1.46866 z m 15.81215,-29.73635 c 2.13456,-8.50988 2.31469,-17.43835 2.5751,-127.63417 l 0.25907,-109.63829 -4.5815,-4.24177 c -7.81788,-7.23815 -13.50306,-11.75803 -14.53492,-11.55566 -1.67944,0.32937 -2.73856,4.91974 -3.36724,14.59402 -0.3381,5.20272 -0.60886,57.52228 -0.61625,119.08081 l -0.0132,109.8008 5.6,4.1965 c 7.63785,5.72361 12.50149,8.88726 13.27428,8.63452 0.35515,-0.11616 0.98723,-1.5727 1.40464,-3.23676 z m 139.76595,-96.44957 c -0.85533,-0.34663 -1.99746,-1.26835 -2.53807,-2.04826 -1.37607,-1.98518 -23.14976,-29.04872 -25.76091,-32.01944 l -2.14589,-2.4414 -11.79166,16.68325 c -6.48541,9.17579 -12.34672,17.18642 -13.02514,17.8014 -1.00581,0.91176 -2.72639,1.15792 -9.32139,1.3336 -4.77304,0.12715 -9.06667,-0.0778 -10.47601,-0.50005 -2.13826,-0.64064 -2.4933,-1.06493 -3.39348,-4.05544 -0.55294,-1.83698 -1.17353,-5.08066 -1.37907,-7.20817 -0.31037,-3.21236 -0.13312,-4.33985 1.04537,-6.64988 0.78051,-1.52992 7.59619,-10.95584 15.14596,-20.94648 7.54977,-9.99064 13.8834,-18.57275 14.07474,-19.07136 0.21005,-0.5474 -6.70951,-9.94011 -17.46572,-23.70822 -9.79748,-12.54092 -18.21594,-23.36921 -18.70768,-24.06288 -1.02399,-1.44447 -0.64115,-3.15145 2.60454,-11.61297 l 1.90257,-4.96 h 8.24263 8.24264 l 11.98111,14.88 c 6.5896,8.184 13.99147,17.2915 16.44859,20.23889 l 4.46748,5.35888 1.21863,-1.51888 c 4.69847,-5.85613 26.30352,-34.92464 27.09461,-36.45445 l 0.98082,-1.89669 10.05523,0.17612 10.05522,0.17613 0.56414,8.66732 0.56413,8.66732 -15.97075,21.41268 c -8.78391,11.77697 -16.1959,21.79392 -16.47108,22.25989 -0.5583,0.94537 0.64634,2.56963 20.73129,27.95279 15.46377,19.54294 16.02227,20.30591 16.02227,21.88774 0,0.66558 -0.81781,3.64513 -1.81737,6.62121 l -1.81737,5.41105 -8.90263,0.12826 c -4.89644,0.0705 -9.60243,-0.15534 -10.45775,-0.50196 z m -61.75178,-5.86606 c 0.26119,-0.26119 0.2121,-2.13209 -0.1091,-4.15756 l -0.58399,-3.68268 -5.76,0.23039 c -3.168,0.1267 -5.84179,0.30449 -5.94174,0.39507 -0.19125,0.1733 0.95477,5.79571 1.48431,7.28204 0.23453,0.6583 1.53011,0.81205 5.37235,0.63757 2.7848,-0.12647 5.27698,-0.44364 5.53817,-0.70483 z m 79.11072,-3.85911 1.00088,-2.09888 -10.05334,-12.78349 c -17.88864,-22.74656 -26.91135,-35.004 -26.91135,-36.55928 0,-1.86092 6.56724,-11.59798 19.71597,-29.23229 l 10.24962,-13.7462 -2.23735,-0.41973 c -1.23055,-0.23085 -3.76936,-0.22832 -5.64179,0.006 -3.13749,0.392 -3.56936,0.65854 -5.50772,3.39923 -6.4264,9.08642 -19.56619,26.89982 -20.95907,28.41388 -3.3424,3.63319 -4.52439,2.65799 -19.97455,-16.48 -9.94691,-12.32115 -21.08776,-25.69046 -23.59949,-28.32 -1.02453,-1.07258 -2.10396,-1.44 -4.23056,-1.44 -1.57028,0 -2.85506,0.15561 -2.85506,0.3458 0,0.19018 2.82439,3.71818 6.27641,7.84 3.45203,4.12181 9.9865,12.2462 14.52103,18.0542 8.74302,11.19839 58.04236,72.63841 64.57698,80.48 2.12666,2.552 4.03806,4.64 4.24757,4.64 0.20952,0 0.83133,-0.94449 1.38182,-2.09887 z m -70.01036,-3.82113 c 5.74031,-7.7966 18.68655,-26.66011 18.68655,-27.22751 0,-0.33867 -0.39838,-0.94638 -0.88528,-1.35047 -0.84104,-0.69801 -4.87521,4.45733 -19.70708,25.18406 -1.76907,2.47219 -2.52211,6.75392 -1.18783,6.75392 0.3409,0 1.73303,-1.512 3.09364,-3.36 z m 37.3953,-77.32952 c 10.19271,-13.84783 13.58635,-19.38738 13.17693,-21.50916 -0.15136,-0.78434 -4.42807,4.38368 -13.17489,15.92065 -7.12294,9.39509 -12.95079,17.32949 -12.95079,17.632 0,0.85996 1.4808,2.12576 2.20457,1.88451 0.35891,-0.11964 5.1938,-6.38724 10.74418,-13.928 z M 175.8692,308.0693 c -16.90544,-3.78198 -29.87312,-17.35798 -34.50025,-36.11865 -1.85919,-7.53809 -1.82109,-19.36745 0.0854,-26.52545 2.65922,-9.98395 8.79007,-20.15667 15.76225,-26.15384 12.61692,-10.85251 29.87033,-13.26782 44.78045,-6.26882 17.89979,8.40239 29.22319,30.4491 26.62967,51.8481 -2.01455,16.62197 -9.62889,29.47044 -22.32985,37.67947 -8.46704,5.47251 -20.73934,7.70661 -30.42772,5.53919 z"
       id="path1418" />
  </g>
</svg>
