<?xml version="1.0" encoding="UTF-8" standalone="no"?>
<svg
   xmlns:dc="http://purl.org/dc/elements/1.1/"
   xmlns:cc="http://creativecommons.org/ns#"
   xmlns:rdf="http://www.w3.org/1999/02/22-rdf-syntax-ns#"
   xmlns:svg="http://www.w3.org/2000/svg"
   xmlns="http://www.w3.org/2000/svg"
   xmlns:sodipodi="http://sodipodi.sourceforge.net/DTD/sodipodi-0.dtd"
   xmlns:inkscape="http://www.inkscape.org/namespaces/inkscape"
   version="1.1"
   id="svg903"
   width="2263.2114"
   height="3200.375"
   viewBox="0 0 2263.2114 3200.375"
   sodipodi:docname="impossible_rectangle.svg"
   inkscape:version="1.0.2 (e86c870879, 2021-01-15, custom)">
  <metadata
     id="metadata909">
    <rdf:RDF>
      <cc:Work
         rdf:about="">
        <dc:format>image/svg+xml</dc:format>
        <dc:type
           rdf:resource="http://purl.org/dc/dcmitype/StillImage" />
        <dc:title></dc:title>
      </cc:Work>
    </rdf:RDF>
  </metadata>
  <defs
     id="defs907" />
  <sodipodi:namedview
     pagecolor="#ffffff"
     bordercolor="#666666"
     borderopacity="1"
     objecttolerance="10"
     gridtolerance="10"
     guidetolerance="10"
     inkscape:pageopacity="0"
     inkscape:pageshadow="2"
     inkscape:window-width="1920"
     inkscape:window-height="1001"
     id="namedview905"
     showgrid="false"
     inkscape:zoom="0.25928857"
     inkscape:cx="1051.0011"
     inkscape:cy="1631.387"
     inkscape:window-x="-9"
     inkscape:window-y="-9"
     inkscape:window-maximized="1"
     inkscape:current-layer="g911" />
  <g
     inkscape:groupmode="layer"
     inkscape:label="Image"
     id="g911"
     transform="translate(-80.732333,30.853655)">
    <path
       style="fill:#000000;stroke-width:1.06667"
       d="m 121.79084,3169.4 -39.733327,-0.2796 0.017,-28.5204 c 0.009,-15.6862 -0.28881,-690.2003 -0.66259,-1498.9203 L 80.732333,171.27969 139.21056,112.07968 c 32.16302,-32.560002 77.1198,-78.040001 99.90393,-101.066668 l 41.42572,-41.866667 H 1311.8263 2343.1124 l 0.4251,71.200001 c 0.2338,39.160002 0.4164,719.298944 0.4059,1511.419854 l -0.019,1440.2198 -15.4421,14.7135 c -31.0818,29.6154 -144.9119,138.7352 -156.9187,150.4254 l -12.3607,12.0349 -998.8394,0.2599 c -549.36149,0.143 -1016.71923,0.1341 -1038.57256,-0.02 z m 20,-33.216 c 0,-0.8922 -5.56672,-3.3043 -7.62584,-3.3043 -1.87128,0 -0.81613,2.2388 1.49251,3.1667 3.16476,1.2721 6.13333,1.3387 6.13333,0.1376 z m 498.66667,-4.5849 c 18.1574,-12.1928 37.9375,-30.5772 46.1419,-42.8862 3.9177,-5.8776 5.0058,-8.5185 5.3828,-13.065 0.9167,-11.0536 -2.9529,-11.4441 -23.7913,-2.401 -32.0506,13.9087 -52.3305,19.6039 -79.3131,22.2733 -63.7092,6.3027 -120.2441,-14.4934 -137.6671,-50.6405 -3.5258,-7.3148 -6.4865,-17.0869 -6.4865,-21.409 0,-3.2406 5.9617,-14.7751 10.7909,-20.8779 1.6917,-2.1378 3.0757,-4.1778 3.0757,-4.5333 0,-0.3556 -4.5202,-0.6465 -10.0449,-0.6465 h -10.0449 l -1.273,5.6 c -2.2261,9.7929 -2.5138,26.0998 -0.6039,34.2299 4.6836,19.9366 29.0129,40.5466 67.7335,57.3788 16.0135,6.9613 18.5914,9.3643 5.2082,4.8549 -31.8666,-10.7375 -44.9097,-18.0021 -59.0194,-32.8719 -17.7576,-18.7143 -23.9763,-30.7158 -23.9295,-46.1817 0.023,-7.6115 0.4285,-10.7416 2.6696,-20.61 l 0.545,-2.4 h -66.9516 -66.9516 l 102.9292,-102.9333 102.9292,-102.9334 418.1354,-2e-4 c 229.97449,-1e-4 556.73539,-0.3198 726.13549,-0.7105 l 308,-0.7103 V 1565.8745 341.62374 l -3.7944,-2.23869 -3.7942,-2.2387 H 1213.7783 481.08751 l -0.556,3.46667 c -0.3058,1.90667 -0.6876,548.62571 -0.8484,1214.93118 l -0.2923,1211.4645 -100.2645,100.2688 c -55.1455,55.1479 -100.6255,100.2688 -101.0667,100.2688 -0.4411,0 -0.8021,-67.64 -0.8021,-150.3111 V 2666.924 l -9.69786,-2.2768 c -21.50601,-5.0489 -43.54741,-15.1553 -69.87106,-32.037 -16.21093,-10.3964 -28.49644,-17.0639 -31.44149,-17.0639 -3.14899,0 -4.18959,4.1102 -4.18959,16.5482 0,13.1987 2.16747,30.727 5.86887,47.4617 12.35224,55.8468 4.48408,107.4036 -22.3815,146.6568 -8.57717,12.532 -20.34186,27.8123 -26.86107,34.8877 l -4.6263,5.0209 v 103.4403 103.4402 l 17.33333,8.7071 c 27.32439,13.7258 41.21026,22.252 71.20001,43.7179 7.92,5.6689 15.12,10.5894 16,10.9345 0.88,0.3452 94.47996,0.5428 207.99996,0.4395 l 206.4001,-0.1881 z m -28.2408,-3.7861 c 0.014,-0.44 3.3733,-4.64 7.4648,-9.3333 4.0915,-4.6934 7.2752,-9.0134 7.0748,-9.6 -0.2284,-0.6686 -7.9909,-1.0096 -20.7983,-0.9138 -11.2386,0.084 -20.4338,-0.2176 -20.4338,-0.6704 0,-2.261 40.8968,-9.6158 53.4688,-9.6158 12.7681,0 15.2324,2.1178 9.874,8.4859 -7.2185,8.5788 -36.7922,26.0463 -36.6503,21.6474 z m -281.2049,-5.8667 c -1.6866,-1.32 -4.5039,-4.0314 -6.2605,-6.0256 -4.9975,-5.6729 -8.0186,-6.4736 -19.4336,-5.1502 -7.7735,0.9013 -10.1507,0.8512 -11.4667,-0.2409 -4.1639,-3.4557 -0.2179,-8.5833 6.6055,-8.5833 7.468,0 29.2394,8.4986 37.3343,14.5736 4.1743,3.1327 4.4168,5.3847 0.7306,6.7862 -3.7401,1.422 -4.0198,1.3713 -7.5096,-1.3598 z m 208.9124,-17.564 c 1.6133,-0.2444 4.2533,-0.2444 5.8667,0 1.6133,0.2445 0.2933,0.4444 -2.9334,0.4444 -3.2266,0 -4.5466,-0.1999 -2.9333,-0.4444 z m 118.6667,-10.8007 c -4.2947,-2.6253 -6.2362,-5.1339 -5.4862,-7.0884 1.5249,-3.9739 9.8394,0.585 10.4942,5.7539 0.4244,3.3496 -1.0633,3.7461 -5.008,1.3345 z m 76.3793,37.0049 c 10.1667,-8.9829 27.5749,-26.9066 36.1044,-37.1735 17.1926,-20.6947 34.4352,-49.8667 42.2418,-71.4667 1.8392,-5.0889 6.8389,-22.3829 6.8612,-23.7333 0.01,-0.44 -31.5562,-0.8 -70.1411,-0.8 h -70.1544 l -10.1123,10.2245 c -28.5352,28.8521 -56.5668,45.1708 -89.9043,52.3384 -6.1795,1.3285 -13.4304,1.8749 -24.7413,1.8641 -13.9291,-0.013 -18.1085,-0.4618 -32.2903,-3.4648 -13.1643,-2.7876 -17.0263,-3.2463 -20.1261,-2.3904 -9.4823,2.6183 -10.3832,8.1501 -2.5783,15.8329 13.5325,13.3207 32.3325,17.3343 81.128,17.3197 25.4405,-0.011 34.2557,-0.8889 43.7334,-4.3722 9.5785,-3.5204 36.9839,-18.1315 59.4934,-31.7188 27.6765,-16.7064 31.9166,-18.8297 34.056,-17.0541 1.2936,1.0737 1.5166,2.7698 1.0379,7.8961 -1.2398,13.2765 -9.3644,31.394 -21.0509,46.9425 -8.1949,10.9031 -27.685,31.2442 -37.9979,39.6572 -3.6271,2.9588 -6.2895,5.685 -5.9164,6.0581 0.3731,0.3731 17.0715,0.5408 37.1075,0.3726 l 36.4291,-0.3058 z m -10.0313,-99.7144 c -0.4114,-0.4114 -0.748,-1.6613 -0.748,-2.7777 0,-1.4948 0.6325,-1.94 2.4,-1.689 1.5689,0.223 2.4,1.0746 2.4,2.4597 0,2.1158 -2.6371,3.4219 -4.052,2.007 z m 605.34629,105.564 305.6491,-0.7101 -1.4717,-3.5223 c -1.8982,-4.5428 -1.8767,-7.8574 0.051,-7.8574 1.8285,0 5.143,4.0242 6.9926,8.4897 l 1.3436,3.2437 57.2039,-0.073 c 32.3719,-0.041 56.2779,-0.465 55.0707,-0.9774 -1.1734,-0.4978 -6.5734,-2.7262 -12,-4.952 -5.4267,-2.2258 -9.8667,-4.426 -9.8667,-4.8892 0,-1.3962 12.1122,-0.9474 17.4024,0.6447 2.7179,0.818 7.8287,3.458 11.3575,5.8666 l 6.416,4.3795 h 83.1334 83.1336 l 16.5139,-6.8765 c 26.6731,-11.107 55.4369,-26.0254 73.2432,-37.9878 4.9867,-3.3499 14.8267,-11.0212 21.8667,-17.0472 15.3067,-13.102 24.7503,-20.2218 26.8215,-20.2218 4.0046,0 -6.315,11.0553 -26.1182,27.9801 -15.6852,13.4053 -34.0168,26.3324 -59.0205,41.6199 l -20.4989,12.5333 23.4081,-0.028 23.408,-0.028 5.0802,-5.1821 c 5.0926,-5.1948 10.8542,-8.5175 12.2862,-7.0855 0.4206,0.4205 -1.2823,2.5251 -3.784,4.6769 -2.5019,2.1516 -4.5414,4.7522 -4.5323,5.7788 0.015,1.6912 1.4704,1.8667 15.4832,1.8667 8.5067,0 15.4667,-0.4218 15.4667,-0.9373 0,-0.5155 1.3769,-1.5076 3.0599,-2.2047 3.7733,-1.563 8.1762,-6.1146 13.8985,-14.3682 4.8702,-7.0244 5.6599,-10.3594 2.2416,-9.4655 -2.899,0.7581 -2.6833,-0.9358 0.4998,-3.9262 l 2.6331,-2.4736 4.4259,3.9985 c 4.402,3.977 4.4626,3.9947 11.2336,3.2696 3.7441,-0.401 6.8076,-0.3806 6.8076,0.045 0,0.4258 -2.1027,3.0222 -4.6727,5.7697 -3.5158,3.7587 -4.9697,6.3809 -5.8729,10.5925 -0.6602,3.0784 -1.6944,6.5202 -2.2983,7.6486 -1.0268,1.9188 -0.6817,2.0514 5.3397,2.0514 4.4385,0 6.4377,-0.4141 6.4384,-1.3334 0,-2.2133 5.9367,-14.0462 9.5536,-19.0465 1.8645,-2.5777 6.3576,-7.9943 9.9845,-12.0368 8.5893,-9.5737 9.1784,-10.7199 9.2232,-17.9462 0.032,-5.2215 0.4963,-6.6183 3.2329,-9.7353 1.7573,-2.0013 4.6373,-4.2363 6.4,-4.9665 3.1278,-1.2955 3.2049,-1.5061 3.2049,-8.7478 v -7.4204 l -4.4587,3.8165 c -4.3697,3.7402 -6.208,4.6289 -6.208,3.0009 0,-0.4484 2.4,-3.7815 5.3334,-7.4068 l 5.3333,-6.5914 v -90.9931 c -6e-4,-50.0463 -0.3217,-116.6732 -0.7135,-148.0599 l -0.7123,-57.0667 -5.2582,11.2 c -2.8921,6.16 -6.6629,14.8 -8.3799,19.2 -7.5275,19.2915 -16.931,35.8666 -30.7429,54.1894 -15.1826,20.1411 -23.9692,27.3902 -49.3484,40.7132 -15.946,8.371 -31.8991,15.4466 -45.7655,20.298 -6.227,2.1786 -11.867,4.2981 -12.5333,4.71 -0.8749,0.5406 -1.2116,13.9213 -1.2116,48.1524 v 47.4037 l -97.8666,0.1707 c -53.8267,0.094 -96.1867,0.3383 -94.1334,0.5432 12.2118,1.2184 32.3042,3.7959 37.3316,4.7889 22.3854,4.4217 29.4449,17.9639 9.3644,17.9639 -3.9761,0 -7.2293,-0.36 -7.2293,-0.8 -1e-4,-0.44 1.7991,-2.3106 3.9982,-4.1568 l 3.9982,-3.3568 -5.8649,-0.5775 c -3.2257,-0.3176 -16.2178,-1.0859 -28.8714,-1.7075 -22.5262,-1.1066 -39.0488,-3.3477 -51.4726,-6.9816 -3.4167,-0.9994 -5.9626,-2.0671 -5.6572,-2.3724 0.3054,-0.3053 5.021,-1.1634 10.4792,-1.9065 9.0055,-1.2264 5.4821,-1.3623 -38.0762,-1.469 l -48,-0.1178 5.8667,2.7848 c 3.2266,1.5315 5.2376,3.0165 4.4688,3.2999 -2.0226,0.7456 -10.818,-1.6351 -14.9298,-4.0412 -3.4717,-2.0315 -10.0262,-2.0643 -413.6368,-2.0643 H 844.65101 l 0.8368,5.6 c 0.4602,3.08 0.8367,11.6 0.8367,18.9333 0,11.5792 -0.3455,14.2455 -2.6263,20.2667 -5.7345,15.1387 -9.3401,20.6437 -40.7704,62.2481 -12.7897,16.9298 -22.9892,31.2098 -22.6657,31.7334 0.7061,1.1425 136.6479,1.2022 550.02339,0.2417 z m 714.439,-5.2428 c 0,-2.9594 8.8921,-13.2439 10.2643,-11.8716 0.824,0.824 -6.8378,11.1095 -8.8511,11.882 -0.7772,0.2984 -1.4132,0.2936 -1.4132,-0.011 z m 61.8667,-33.1769 c 0,-2.6039 3.97,-10.4043 6.4269,-12.6277 2.0674,-1.871 2.1065,-1.8187 2.1065,2.8216 0,5.9358 -3.4831,11.5408 -7.2,11.5864 -0.7334,0.011 -1.3334,-0.7921 -1.3334,-1.7803 z M 1971.133,3070.213 c 0,-0.44 0.4972,-5.063 1.0941,-10.2735 0.5969,-5.2103 0.817,-10.3188 0.489,-11.3519 -0.6504,-2.0495 -3.7803,-3.5412 -11.1919,-5.3337 -2.64,-0.6386 -5.9969,-2.0643 -7.4597,-3.1682 -2.3538,-1.7762 -2.4471,-2.0886 -0.8116,-2.7162 2.0642,-0.7921 16.214,2.0866 22.4456,4.5665 2.4395,0.9708 4.6929,2.8687 5.6859,4.7889 1.4925,2.8862 1.4794,3.6888 -0.1415,8.6677 -0.9825,3.0179 -3.5198,7.7671 -5.6383,10.5537 -3.9119,5.1454 -4.4872,5.6944 -4.4716,4.2667 z m 129.7691,-7.3778 c -3.6612,-3.661 5.0803,-16.2719 17.9555,-25.9036 8.3078,-6.215 14.4,-8.9899 14.4,-6.559 0,2.916 -21.7188,27.872 -27.1266,31.1696 -3.6037,2.1975 -4.1816,2.3405 -5.2289,1.293 z m -214.5779,-23.8222 c -0.3753,-0.6074 0.5433,-1.0667 2.1334,-1.0667 1.5901,0 2.5087,0.4593 2.1333,1.0667 -0.3626,0.5867 -1.3226,1.0667 -2.1333,1.0667 -0.8108,0 -1.7708,-0.48 -2.1334,-1.0667 z m 93.546,-1.0522 c -6.8478,-1.6217 -6.0681,-2.2698 5.1207,-4.2553 3.8133,-0.6767 9.4475,-2.0051 12.5204,-2.9521 3.0729,-0.947 5.9529,-1.3552 6.4,-0.907 1.3931,1.3963 -4.8285,5.8171 -10.5981,7.5304 -5.9673,1.7722 -8.0451,1.8624 -13.443,0.584 z m 65.9207,-3.5013 c 0,-1.3312 1.517,-6.0112 3.3712,-10.4 2.8571,-6.7629 3.4479,-9.6879 3.8743,-19.1798 0.2931,-6.5278 1.0004,-11.527 1.6954,-11.9837 0.6558,-0.4311 3.6057,-0.7911 6.5551,-0.8 6.0323,-0.018 10.104,2.17 10.104,5.4305 0,3.3153 2.8541,8.0283 6.3839,10.5418 1.7689,1.2595 3.2161,2.9328 3.2161,3.7185 0,3.8595 -28.8473,25.0929 -34.0909,25.0929 -0.61,0 -1.1091,-1.0891 -1.1091,-2.4202 z m -206.652,0.5881 c 1.6214,-0.2452 4.0214,-0.2387 5.3333,0.015 1.312,0.2531 -0.015,0.4538 -2.948,0.4458 -2.9333,-0.011 -4.0067,-0.2152 -2.3853,-0.4604 z m 43.5006,-20.215 c -2.2967,-2.92 -2.4112,-4.7209 -0.3435,-5.4102 1.6186,-0.5395 5.6282,3.9665 5.6282,6.3251 0,2.8273 -2.71,2.3582 -5.2847,-0.9149 z m -17.7486,-7.9814 c -1.0878,-1.7601 2.7828,-4.2391 5.3773,-3.4441 3.2705,1.0022 3.4564,1.4981 1.1838,3.1598 -2.5008,1.8286 -5.5256,1.9597 -6.5611,0.2843 z m 273.3004,127.8205 c 0.7273,-0.8607 1.5002,-39.1053 0.7891,-39.0381 -0.5076,0.048 -3.2634,2.808 -6.1242,6.1333 -2.8608,3.3254 -11.2478,12.4811 -18.6378,20.346 l -13.4363,14.3001 18.6235,-0.7747 c 10.2429,-0.426 18.6966,-0.861 18.7857,-0.9666 z m -2013.46712,-4.5189 c 0,-0.8968 -6.74629,-6.8731 -7.75867,-6.8731 -0.48578,0 0.39816,1.68 1.96432,3.7333 2.44426,3.2046 5.79435,5.0199 5.79435,3.1398 z m 340.79853,-100.1009 c 9.6329,-21.7815 33.9796,-28.0223 63.1013,-16.1746 17.4184,7.0864 38.0354,9.6442 57.1906,7.0952 14.5227,-1.9327 15.2495,-2.5828 5.448,-4.8727 -10.4471,-2.4406 -29.3169,-8.5131 -44.4151,-14.2932 -10.2114,-3.9092 -12.4819,-4.3936 -20.5939,-4.3936 h -9.1171 l 1.6605,2.3707 c 2.2459,3.2064 2.0931,4.0336 -0.7395,4.0058 -3.2029,-0.031 -11.4666,-3.8408 -11.4666,-5.2862 0,-0.78 -5.0224,-1.0529 -15.6887,-0.8521 l -15.6886,0.2951 -5.1582,6.4 c -6.9943,8.6782 -11.4646,17.8606 -11.4646,23.5498 0,9.672 3.1717,10.6584 6.9319,2.1558 z M 2011.2916,2862.247 c 18.015,-17.5377 30.091,-30.6861 35.5746,-38.7335 9.742,-14.297 24.5247,-40.2348 24.5247,-43.0313 0,-2.491 11.5897,-17.4306 28.0196,-36.1187 19.6053,-22.2996 30.9766,-36.2503 33.0749,-40.5776 5.7353,-11.827 6.1055,-13.9554 6.1055,-35.1019 v -20.1778 l -11.432,9.7065 c -13.593,11.5415 -18.8606,15.1469 -26.8557,18.3814 -5.8145,2.3523 -6.9327,2.4154 -40.6456,2.2915 -23.3552,-0.085 -40.3275,-0.6948 -52.0157,-1.8666 -9.542,-0.9566 -18.306,-1.7393 -19.4757,-1.7393 -2.1103,0 -2.1265,0.8105 -2.0982,105.1496 l 0.029,105.1497 5.0472,-4.3157 c 2.7759,-2.3736 11.8424,-10.9309 20.1478,-19.0163 z M 133.33263,2833.2062 c 21.02613,-29.7904 30.51029,-61.2949 27.66442,-91.8953 -1.12244,-12.0692 -4.01289,-31.4599 -6.98084,-46.8312 -3.29938,-17.0879 -7.00049,-35.4119 -10.66465,-52.8 -8.37097,-39.7242 -10.67778,-60.105 -9.83961,-86.9334 0.60216,-19.274 2.0043,-24.5567 10.72154,-40.3943 6.05142,-10.9943 10.61402,-15.4304 15.30698,-14.8828 4.24394,0.4953 6.13086,4.453 11.68119,24.5008 8.51394,30.7525 11.94957,40.5915 19.4995,55.843 10.1432,20.4901 16.99127,30.2772 27.96552,39.9679 10.19914,9.0063 25.51589,19.6725 30.96997,21.5668 1.98047,0.6879 5.44048,2.5805 7.68891,4.2059 2.42406,1.7522 6.11452,3.2103 9.06667,3.5822 2.73824,0.3448 6.29858,0.8363 7.91198,1.0921 l 2.9333,0.4651 v -16.4178 c 0,-12.1624 -0.3456,-16.5444 -1.3333,-16.9067 -1.0667,-0.391 -1.0667,-0.7715 0,-1.9022 0.9961,-1.0559 1.3333,-8.4152 1.3333,-29.0986 0,-26.2443 -0.097,-27.6049 -1.8667,-26.1407 -5.40335,4.4713 -22.31735,9.5512 -43.73376,13.1349 -13.49627,2.2583 -19.73721,2.1649 -21.99446,-0.3293 -1.51723,-1.6765 -1.56467,-2.1693 -0.30923,-3.2112 1.91203,-1.5869 14.86758,-3.2609 25.77082,-3.3299 11.92617,-0.076 22.98473,-1.8249 26.13334,-4.1339 1.51629,-1.112 2.82257,-3.2822 3.02805,-5.0308 0.70158,-5.9701 -4.02042,-16.4384 -8.1255,-18.0136 -2.31924,-0.8901 -4.50255,1.4149 -4.50255,4.7532 0,3.7005 -3.35275,8.0193 -7.29135,9.3924 -3.00648,1.048 -3.08631,0.9645 -7.8105,-8.1602 -2.62513,-5.0704 -10.21946,-17.6189 -16.87627,-27.8856 -19.44058,-29.9828 -25.2083,-39.2994 -28.44428,-45.9461 -2.7418,-5.6316 -3.4453,-6.3235 -7.08041,-6.9622 -2.21987,-0.3901 -5.98094,-2.2053 -8.35794,-4.0338 -12.29695,-9.4595 -12.13104,-9.4165 -22.49867,-5.8286 -8.51026,2.9452 -14.95312,6.3648 -15.57222,8.2651 -0.39581,1.2149 0.75363,1.382 6.14614,0.893 l 6.633,-0.6015 -8.42048,8.1737 c -8.29266,8.0497 -12.98551,14.3698 -19.02187,25.6178 -6.17185,11.5005 -3.86495,-2.5652 2.72826,-16.6348 5.39437,-11.5112 12.91448,-22.0481 18.04878,-25.2893 5.17229,-3.2651 25.46595,-10.2121 29.51143,-10.1025 1.70851,0.047 2.38637,0.3508 1.50637,0.6766 -5.30392,1.9636 -4.83617,4.7612 1.3213,7.9025 2.34201,1.1948 6.01773,3.9343 8.16827,6.0879 2.15053,2.1535 7.01515,5.8005 10.81025,8.1044 4.18271,2.5393 10.89095,8.3919 17.03352,14.861 20.39269,21.4767 34.76042,35.4032 38.62455,37.4386 4.43285,2.3348 6.37633,1.6135 3.68003,-1.3659 -0.97419,-1.0765 -1.77125,-2.2482 -1.77125,-2.604 0,-0.3557 4.25979,-0.3707 9.46619,-0.033 5.20641,0.3374 10.72644,0.297 12.26664,-0.09 l 2.8005,-0.7029 v -167.3662 -167.3663 l -14.13333,-13.3111 c -16.903,-15.9196 -27.92055,-25.0145 -45.06667,-37.2025 -7.04,-5.0043 -16.99802,-13.002 -22.12894,-17.7726 -8.83916,-8.219 -9.58396,-8.6744 -14.1863,-8.6744 -6.1876,0 -9.28985,-1.6736 -16.15936,-8.7178 -6.14481,-6.3011 -10.96568,-15.5145 -10.98165,-20.9877 -0.0145,-4.9609 2.71828,-10.2151 7.01924,-13.4957 2.47618,-1.8886 3.63701,-3.6494 3.63701,-5.517 0,-2.2015 0.28849,-2.5035 1.46113,-1.5303 2.59668,2.155 8.05699,14.5014 9.53792,21.5663 2.96575,14.1484 16.60479,28.9312 28.08296,30.438 2.85156,0.3742 7.03174,1.6061 9.28929,2.7374 3.80195,1.9052 4.05615,2.3154 3.44719,5.5614 -0.58931,3.1414 -0.169,3.9547 4.05599,7.8492 5.64802,5.2061 12.27604,8.7609 16.3497,8.7685 4.41924,0.011 8.22221,2.882 14.76312,11.1555 5.2676,6.6628 23.6153,26.1722 24.6138,26.1722 0.2194,0 0.3946,-3.48 0.3894,-7.7333 l -0.01,-7.7333 -5.4507,-6.4 c -2.99784,-3.52 -11.42513,-13.1783 -18.72726,-21.4628 -7.30214,-8.2846 -13.99229,-16.0846 -14.86699,-17.3333 l -1.59038,-2.2706 h 20.32716 20.32717 v -7.7329 -7.7334 l -16.26669,-0.015 c -23.78831,-0.021 -37.7861,-3.2079 -41.93938,-9.5466 -1.77353,-2.7067 -1.76369,-2.9466 0.23023,-5.6173 3.91512,-5.2439 4.87869,-5.2736 11.87551,-0.3655 3.55092,2.4908 8.26049,4.9357 10.46572,5.4331 2.33669,0.5269 10.60662,0.4103 19.82203,-0.2796 l 15.81268,-1.1836 v -173.81 c 0,-157.9661 -0.153,-173.6832 -1.678,-172.4175 -4.049,3.3603 -9.10189,17.2862 -11.20041,30.8686 -1.16585,7.5458 -0.93859,16.0984 0.70099,26.3806 0.59892,3.7559 0.40007,4.6366 -1.1842,5.2446 -1.29477,0.4967 -2.53343,-0.047 -3.87118,-1.6988 -2.53852,-3.1349 -2.64108,-15.004 -0.27739,-32.1026 3.43924,-24.8792 7.44709,-36.1257 14.01929,-39.3402 l 3.4425,-1.6836 0.024,-94.158 0.024,-94.1579 -2.5748,1.6871 c -3.3494,2.1945 -5.95858,7.794 -5.95858,12.7873 0,3.3931 -0.23043,3.7781 -1.58711,2.6521 -0.87291,-0.7243 -2.61348,-2.9778 -3.86793,-5.0075 l -2.28082,-3.6905 3.60127,-3.7224 c 1.98069,-2.0474 5.64041,-5.0127 8.13267,-6.5897 l 4.5314,-2.8672 v -53.996 -53.9962 l -11.99996,-0.7338 c -25.36791,-1.5511 -44.37889,-4.3879 -42.43592,-6.3322 1.44803,-1.4491 33.61837,-1.6702 46.16926,-0.3175 l 8.26662,0.891 v -157.8838 -157.884 l -15.27222,-7.3765 c -8.39976,-4.057 -18.59976,-9.5436 -22.66667,-12.1923 -10.21195,-6.651 -14.94388,-8.9243 -22.92505,-11.0131 -7.50088,-1.9631 -32.7138,-3.5745 -41.7409,-2.6677 -5.63269,0.5659 -5.67681,0.599 -8.58356,6.4354 -3.32097,6.6682 -6.97289,20.0307 -7.92384,28.9934 -0.55791,5.2583 -0.28104,6.6777 2.09263,10.728 9.62943,16.4315 30.38074,24.8641 80.75299,32.8155 7.92,1.2502 15.6,2.787 17.06666,3.4151 l 2.66667,1.142 -3.2,0.9574 c -9.7355,2.9126 -89.09395,2.8092 -109.33334,-0.1423 -9.30644,-1.3573 -17.05457,-4.0469 -26.43672,-9.177 -3.68686,-2.016 -6.92686,-3.6654 -7.2,-3.6654 -0.27356,0 -0.49704,39.7887 -0.49704,88.4192 0,83.2237 0.10968,88.4615 1.86666,89.1385 1.77778,0.6849 1.77778,0.769 0,1.767 -1.60033,0.8985 -1.86666,2.7146 -1.86666,12.7283 0,6.4242 0.28699,11.6803 0.63776,11.6803 0.35078,0 4.79153,-2.5693 9.86834,-5.7097 15.64826,-9.6797 23.62723,-13.0072 23.62723,-9.8535 0,1.6201 -2.70252,3.5143 -21.86666,15.3258 l -11.73334,7.2317 -0.32092,6.1373 -0.32092,6.1371 4.93595,-3.7676 c 4.9542,-3.7817 7.97256,-4.7693 7.97256,-2.6087 0,0.6375 -2.88,4.1582 -6.4,7.8239 l -6.4,6.665 v 28.2567 28.2569 l 2.66666,2.5051 c 3.29167,3.0924 3.34724,4.0217 0.26667,4.4591 l -2.4,0.3409 -0.2788,40.2668 c -0.25958,37.3969 0.0834,42.9691 2.41282,39.2 0.77989,-1.2619 5.86667,-1.4496 5.86667,-0.2164 0,0.4675 -1.92,2.725 -4.26666,5.0164 l -4.26667,4.1663 0.11492,61.3835 c 0.0988,52.7857 0.30275,60.3377 1.45598,53.9169 3.72261,-20.7264 8.89957,-37.5986 15.69027,-51.1359 8.20211,-16.3509 11.98856,-20.3375 22.96424,-24.1776 11.7289,-4.1038 23.93311,-2.6734 26.54182,3.1108 0.44716,0.9915 1.01659,10.17 1.2654,20.3969 l 0.45238,18.5942 -2.73409,-1.7914 c -7.36271,-4.8243 -16.93258,-9.4173 -21.10581,-10.1297 -3.59692,-0.6141 -4.95857,-1.448 -6.0364,-3.6968 -1.95763,-4.0844 -3.87472,-3.6279 -7.61916,1.8144 -4.00499,5.8211 -16.09223,29.4838 -22.38139,43.8151 -2.57453,5.8667 -5.55385,11.4549 -6.62072,12.4183 -1.82863,1.6513 -1.94139,5.0276 -1.96825,58.9334 -0.0157,31.4499 0.3718,57.1816 0.86105,57.1816 2.12853,0 14.85559,-12.9085 23.28878,-23.6208 7.98755,-10.1462 11.51021,-13.7125 13.5448,-13.7125 1.91572,0 3.28214,9.6715 3.31548,23.4667 0.031,12.8522 -0.31379,16.3682 -2.04009,20.8 -3.1966,8.2065 -10.0546,19.2019 -17.20991,27.5925 -5.94395,6.9702 -8.36517,9.3432 -18.38182,18.0157 l -3.39748,2.9415 v 110.9251 c 0,61.0089 0.39633,110.9252 0.88073,110.9252 0.4844,0 2.00609,-1.1979 3.38153,-2.662 2.9383,-3.1277 14.23352,-10.7747 22.00965,-14.9008 3.00955,-1.5969 8.76955,-5.4026 12.8,-8.457 17.80454,-13.4927 35.7296,-21.8101 38.24207,-17.7449 1.5568,2.519 -5.85661,12.3975 -32.65556,43.5144 -23.85048,27.6933 -30.01041,38.0425 -28.24493,47.4532 1.63743,8.7283 9.6246,15.2965 33.55844,27.5964 16.98133,8.7269 24.86767,13.8709 23.46417,15.305 -0.38348,0.3918 -3.74348,-0.4618 -7.46667,-1.8969 -3.72318,-1.435 -9.88943,-3.6973 -13.70276,-5.0272 -20.13469,-7.0223 -39.25924,-19.8357 -49.32365,-33.0469 l -2.84409,-3.7333 0.01,387.2 0.01,387.2 6.22744,-6.6892 c 3.42509,-3.6791 9.24319,-10.9619 12.92912,-16.1843 z m 124.67919,-224.7391 c -6.2799,-5.8742 -6.84973,-7.8959 -1.28764,-4.5686 5.35199,3.2017 8.8,6.3756 8.8,8.1004 0,2.5125 -2.11197,1.5196 -7.51236,-3.5318 z m -21.03697,-19.8541 c 0.57366,-1.7853 11.42124,-8.2667 13.83548,-8.2667 3.42767,0 2.03617,1.6687 -4.72855,5.6705 -6.8596,4.0581 -9.85065,4.9106 -9.10693,2.5962 z m -37.77915,-16.2774 c -7.52403,-12.4648 -6.78677,-16.0179 3.99714,-19.2633 8.74121,-2.6307 25.79975,-1.2645 24.71835,1.9796 -0.61795,1.8539 -4.67307,2.67 -13.85368,2.7881 -9.28872,0.1194 -12.44529,1.9441 -12.63965,7.3063 -0.15126,4.1727 -1.46921,8.4366 -2.22216,7.1893 z m -1.2079,-34.2812 c -0.38057,-0.3806 0.97943,-2.542 3.02222,-4.8031 2.70469,-2.9937 3.71416,-5.0955 3.71416,-7.7329 0,-4.8112 -8.07045,-20.7552 -14.63116,-28.9054 -7.79972,-9.6894 -10.03746,-13.1238 -8.97778,-13.7788 2.51324,-1.5533 20.40894,16.7202 20.40894,20.8398 0,0.8418 1.44,2.7941 3.2,4.3386 2.44984,2.1496 3.2,3.7137 3.2,6.6718 0,4.8291 1.97874,9.5499 6.20313,14.7991 3.62139,4.4999 3.52501,6.2427 -0.44533,8.0517 -2.8328,1.2907 -14.53553,1.6778 -15.69418,0.5192 z m -10.33029,-6.4497 c 0,-1.6006 5.84165,-6.725 7.66623,-6.725 2.82454,0 2.37371,1.5735 -1.34807,4.7051 -3.10697,2.6144 -6.31816,3.641 -6.31816,2.0199 z m 65.06667,-75.8667 c -5.66043,-2.565 -10.71272,-7.9114 -8.66947,-9.1742 1.24177,-0.7674 9.31251,5.1312 10.7849,7.8824 1.19362,2.2303 0.66628,2.5523 -2.11543,1.2918 z m 13.33334,-1.6485 c -2.93334,-1.3766 -9.26194,-5.4266 -14.06357,-9.0001 -8.68094,-6.4607 -32.60455,-27.0236 -35.40037,-30.4274 -3.68053,-4.481 1.8967,-0.709 17.91529,12.1163 19.61785,15.7071 24.39894,18.5887 29.47567,17.7648 4.32561,-0.7018 7.29347,1.2883 10.08727,6.7645 1.1655,2.2846 2.119,4.4129 2.119,4.7296 0,1.3647 -5.20736,0.3637 -10.13329,-1.9477 z m -131.56468,-3.8765 c 1.30122,-1.76 3.0854,-3.2 3.96483,-3.2 1.09488,0 0.63246,1.0088 -1.46683,3.2 -1.68618,1.76 -3.47036,3.2 -3.96483,3.2 -0.49447,0 0.1656,-1.44 1.46683,-3.2 z m 73.2406,-9.3333 c -4.82686,-5.0494 -6.89422,-8.8 -4.85066,-8.8 2.6397,0 7.80446,5.8611 9.63435,10.9333 1.06708,2.9579 -0.64813,2.193 -4.78369,-2.1333 z m 53.90665,-6.1416 c -0.98304,-2.5618 2.58334,-7.1086 5.27394,-6.7238 3.11657,0.4457 3.51047,3.4318 0.80907,6.1331 -2.59131,2.5914 -5.21743,2.8463 -6.08301,0.5907 z m -138.93801,-23.9005 c -0.81882,-0.5185 -1.19389,-1.7111 -0.83348,-2.6503 0.71101,-1.8528 6.05151,-2.2212 9.78891,-0.6752 1.90524,0.788 1.70933,1.0652 -1.83241,2.5917 -4.55489,1.9632 -5.09394,2.0186 -7.12302,0.7338 z m 98.28877,-6.5553 c -4.25334,-2.3512 -7.73334,-4.7506 -7.73334,-5.3319 0,-0.5812 1.08,-1.474 2.4,-1.984 3.40192,-1.314 6.57174,-5.0409 10.05354,-11.8201 l 3.01313,-5.8666 0.31434,7.78 c 0.17288,4.2789 0.17288,10.8665 0,14.6388 l -0.31434,6.8589 z m -11.27964,-17.7045 c -0.38602,-0.386 -0.16724,-1.346 0.48617,-2.1333 1.57483,-1.8976 6.26013,-1.8569 6.26013,0.054 0,2.2108 -5.05627,3.7689 -6.7463,2.0789 z m -3.91151,-42.4875 c -1.09095,-1.3145 -0.88987,-1.748 1.16294,-2.5075 2.60521,-0.9637 6.29487,-0.4655 6.29487,0.85 0,0.6431 -4.64024,3.2469 -5.78625,3.2469 -0.19388,0 -0.9461,-0.7152 -1.67156,-1.5894 z m -79.46848,-59.8257 c 2.04946,-2.6849 3.72629,-5.7461 3.72629,-6.8028 0,-2.8752 2.62851,-4.506 6.59699,-4.093 l 3.53634,0.3681 -7.66686,7.7048 c -8.67171,8.7144 -11.76681,10.1253 -6.19276,2.8229 z m 56.52629,-8.7609 -3.2,-1.824 3.6023,-0.3444 c 3.8315,-0.3663 6.17212,1.0029 4.98848,2.9181 -0.93729,1.5165 -1.56878,1.4287 -5.39078,-0.7497 z m -18.66667,-29.024 c 0,-0.5867 1.44,-1.0667 3.2,-1.0667 1.76,0 3.2,0.48 3.2,1.0667 0,0.5866 -1.44,1.0666 -3.2,1.0666 -1.76,0 -3.2,-0.48 -3.2,-1.0666 z m 62.93334,-22.8078 c -33.60587,-16.9392 -39.81594,-20.3216 -38.02208,-20.7094 0.80701,-0.1744 5.97213,1.418 11.47803,3.5387 19.36818,7.46 26.55934,8.6499 19.84546,3.2839 -1.6309,-1.3034 -9.7909,-6.1269 -18.13333,-10.7189 -27.38317,-15.0726 -30.76905,-17.0751 -29.55582,-17.4796 2.39647,-0.7988 30.90423,12.96 42.94389,20.7262 10.84769,6.9974 20.16291,14.4537 30.37719,24.3156 8.15398,7.8726 10.03464,10.2784 8,10.2337 -0.44,-0.011 -12.56,-5.9453 -26.93334,-13.1902 z m 38.83389,-41.9392 c -15.57294,-11.8068 -40.83467,-33.8361 -39.90032,-34.7949 0.71139,-0.7299 14.80803,8.7853 22.29095,15.0465 18.03834,15.0932 24.75701,21.8027 23.29581,23.2639 -0.2489,0.2489 -2.8078,-1.333 -5.68644,-3.5155 z m -79.7681,-149.6902 c -3.51266,-4.1745 -3.53483,-7.5867 -0.0875,-13.4691 4.54794,-7.7605 5.94953,-6.3357 5.59366,5.6864 -0.19078,6.445 -0.75574,10.4628 -1.50617,10.7115 -0.66048,0.2188 -2.46048,-1.0991 -4,-2.9288 z m 55.75668,-30.7404 c 2.63843,-3.7054 4.22097,-4.9346 5.15307,-4.0025 0.77998,0.7801 -2.68607,4.719 -5.45747,6.2023 -1.8446,0.9872 -1.81556,0.7773 0.3044,-2.1998 z m -97.59556,-307.4669 c 0.84178,-12.3912 3.55982,-29.8197 4.86125,-31.171 1.67037,-1.7346 5.49273,5.742 7.02209,13.7351 1.65892,8.6704 1.94709,20.9617 0.57394,24.4804 -0.53746,1.3772 -1.92858,2.1965 -3.92503,2.3118 -1.70087,0.098 -4.48594,0.5283 -6.18903,0.9556 l -3.09653,0.7769 z M 234.44143,1547.08 c -9.52276,-9.356 -12.26984,-13.1337 -9.55045,-13.1337 1.03694,0 13.14214,12.7721 18.41423,19.4286 5.42055,6.8439 2.13307,4.5092 -8.86378,-6.2949 z m -20.11725,-18.7016 c -3.6731,-2.3218 -3.6903,-2.3664 -1.06667,-2.7599 3.08118,-0.4622 6.4,-3.1123 6.4,-5.1104 0,-2.6927 4.62363,-4.6951 10.84106,-4.6951 3.35484,0 6.34816,0.402 6.65182,0.8933 1.20048,1.9424 -13.78037,14.0444 -17.37506,14.0361 -0.9448,0 -3.39782,-1.0661 -5.45115,-2.364 z m -52.26667,-44.4641 c 0,-0.5309 2.28,-2.3038 5.06667,-3.9397 5.89403,-3.4601 35.66522,-18.3009 43.46667,-21.668 2.93333,-1.266 6.13865,-2.7474 7.12294,-3.2919 5.54145,-3.066 22.43445,-8.9065 27.01039,-9.3384 4.81004,-0.4539 5.17634,-0.3401 3.73334,1.1598 -1.34193,1.3949 -31.04325,16.7102 -32.40646,16.7102 -0.24661,0 -4.69604,1.9431 -9.88764,4.3179 -13.11784,6.0005 -12.78852,5.8548 -21.70591,9.6033 -15.65625,6.5813 -22.4,8.5221 -22.4,6.4468 z m -17.06667,-43.8347 c 0,-0.5866 1.41167,-1.0666 3.13705,-1.0666 1.72538,0 3.43371,0.48 3.79629,1.0666 0.39232,0.6348 -0.87782,1.0667 -3.13705,1.0667 -2.08796,0 -3.79629,-0.48 -3.79629,-1.0667 z m 36.6822,-2.2278 c -2.99812,-0.5014 -6.83812,-1.4626 -8.53333,-2.1358 l -3.0822,-1.224 3.18227,-1.1113 c 2.2232,-0.7765 6.56656,-0.7576 14.41156,0.063 12.62781,1.3203 14.93951,1.9522 14.93951,4.0837 0,1.7122 -11.55066,1.8915 -20.91781,0.3247 z m -61.7129,-29.8304 c 1.53434,-2.4826 27.30294,-18.0751 29.87143,-18.0751 1.94895,0 -11.13329,8.8201 -24.23067,16.3364 -5.37993,3.0874 -6.73183,3.5041 -5.64076,1.7387 z m 48.49737,-26.6365 c 0,-1.2686 5.72868,-4.2386 8.1756,-4.2386 1.64192,0 1.68263,0.1859 0.31964,1.46 -2.07793,1.9421 -8.49524,4.0411 -8.49524,2.7786 z m 24.53334,-9.4504 c 0,-1.0131 6.48204,-4.3882 8.42787,-4.3882 1.95434,0 1.31164,3.0503 -0.89108,4.2291 -2.52365,1.3506 -7.53679,1.4565 -7.53679,0.1591 z m -50.82952,-31.6279 c -0.84215,-2.1946 1.81088,-4.9442 7.91964,-8.2078 8.48753,-4.5344 21.10192,-6.4993 18.90511,-2.9448 -0.81583,1.3201 -6.94129,4.5964 -17.37186,9.2917 -9.02166,4.061 -8.63761,3.9854 -9.45289,1.8609 z m 20.42951,0.573 c -0.38461,-0.6222 0.70004,-1.0666 2.60372,-1.0666 1.79462,0 3.26295,0.48 3.26295,1.0666 0,0.5867 -1.17167,1.0667 -2.60371,1.0667 -1.43205,0 -2.90038,-0.48 -3.26296,-1.0667 z M 2103.6583,2661.5919 c 10.1196,-4.595 21.9993,-10.5452 26.3993,-13.2229 l 8,-4.8683 0.2952,-14.9314 0.2953,-14.9315 -6.5866,2.6605 c -8.0032,3.2327 -16.4246,3.5852 -24.0373,1.0062 -11.1637,-3.782 -43.3762,-24.5206 -78.3154,-50.4201 -9.7251,-7.2091 -20.0858,-14.3147 -23.0237,-15.7903 -8.9939,-4.5174 -19.4383,-17.2926 -17.9559,-21.9631 1.0146,-3.1967 9.5648,-10.1448 14.189,-11.5303 16.9212,-5.0697 31.8367,3.0268 65.2727,35.4318 44.4151,43.0456 43.5241,42.3488 55.1066,43.0921 4.2105,0.2702 9.374,0.1689 11.4744,-0.2252 l 3.819,-0.7164 v -27.7715 -27.7715 l -9.3333,-9.357 c -6.9808,-6.9985 -10.3675,-11.4086 -13.4363,-17.4964 -2.2566,-4.4766 -5.5647,-9.9472 -7.3511,-12.1565 -11.7339,-14.5116 -18.3655,-46.6687 -15.7581,-76.4118 0.605,-6.9009 1.5634,-14.5552 2.13,-17.0096 0.5665,-2.4543 1.0417,-6.0224 1.0561,-7.929 0.024,-3.1158 -0.2854,-3.4667 -3.0498,-3.4667 -2.2871,0 -4.0902,-1.1626 -7.0313,-4.5333 -7.3519,-8.4259 -11.7482,-12.7247 -14.4262,-14.1064 -3.0707,-1.5843 -24.0625,-3.4628 -48,-4.2955 -9.0933,-0.3163 -21.2133,-0.8438 -26.9333,-1.1721 l -10.4,-0.597 -7e-4,63.2855 -6e-4,63.2855 5.4265,-0.3759 c 10.3241,-0.715 32.4279,3.8009 37.7883,7.7205 3.8016,2.7798 0.7286,3.1269 -5.8623,0.6621 -5.7119,-2.1361 -7.7639,-2.3468 -17.9013,-1.8378 -6.2975,0.3163 -13.2499,1.1782 -15.4499,1.9153 l -4,1.3404 v 34.3606 34.3608 l 8.4175,11.5936 c 15.1366,20.8483 19.3979,24.0767 21.9134,16.6013 l 1.1863,-3.5257 2.2002,2.459 c 4.2238,4.7206 6.8754,9.297 9.5713,16.5184 1.4936,4.0007 3.932,9.0482 5.4187,11.2166 4.202,6.1287 12.5506,11.2611 20.3011,12.4805 10.6541,1.6761 16.3248,5.6179 16.3248,11.3474 0,5.6388 7.5208,15.4295 11.8522,15.4295 1.1088,0 10.2956,-3.7594 20.4152,-8.3544 z m -33.1074,-229.7122 c -1.8293,-1.8294 -1.6063,-7.8124 0.3519,-9.4376 2.4842,-2.0616 3.8772,0.098 3.4898,5.4097 -0.3513,4.8195 -1.6688,6.2008 -3.8417,4.0279 z m -11.2516,-33.8297 c -7.4601,-7.7271 -8.0506,-8.637 -5.6062,-8.637 1.9135,0 14.4978,12.6371 14.4978,14.5585 0,2.6479 -1.7325,1.4942 -8.8916,-5.9215 z M 253.79085,2656.0525 c -1.46667,-1.1622 -5.64284,-3.8016 -9.28038,-5.8655 -10.14281,-5.7548 -30.30757,-21.768 -48.32268,-38.374 -17.49089,-16.1228 -30.91005,-27.2 -32.95044,-27.2 -1.90446,0 -1.41342,1.094 2.82016,6.283 16.58748,20.331 44.92686,44.5869 67.46667,57.7454 12.92477,7.5452 26.87284,12.6458 20.26667,7.4111 z m -72.15978,-44.2713 c -0.34439,-0.8974 -3.28746,-3.5374 -6.54017,-5.8667 -5.64903,-4.0451 -8.76672,-5.2427 -8.76672,-3.3677 0,2.1952 11.66365,10.8531 14.63319,10.8622 0.72899,0 1.02486,-0.7126 0.6737,-1.6278 z m 1950.66873,-2.944 c 6.2572,-4.2167 4.9238,-5.4797 -6.5089,-6.1651 -15.5494,-0.9322 -25.1397,-5.8106 -48.8211,-24.8341 -18.2443,-14.656 -24.4532,-19.1113 -25.9419,-18.6151 -1.9753,0.6585 6.8162,10.7511 17.3652,19.9346 14.0552,12.2363 25.7303,20.7021 34.8661,25.2823 14.727,7.3832 22.7968,8.6051 29.0406,4.3974 z M 276.88131,2545.4813 c -0.3017,-0.3017 -1.0618,-0.2314 -1.689,0.1563 -0.7948,0.4911 -0.7425,1.4129 0.1722,3.0401 l 1.3128,2.3353 0.3763,-2.4916 c 0.2069,-1.3704 0.1294,-2.7384 -0.1723,-3.0401 z m 0.3762,-16.335 c 0,-3.52 -0.36,-6.3979 -0.8,-6.3954 -0.44,0 -2.96,1.4404 -5.59999,3.1954 -6.70323,4.4561 -11.37292,4.2678 -21.47143,-0.8657 -16.9362,-8.6095 -35.06191,-22.9126 -35.06191,-27.6676 0,-6.4452 -8.22727,-20.9932 -11.22224,-19.8438 -0.86776,0.333 -1.57597,0.914 -1.57377,1.2913 0.004,0.7409 2.72345,4.9333 6.94651,10.7103 1.45722,1.9933 2.6495,4.6408 2.6495,5.8833 0,13.7083 39.54059,39.8656 60.53333,40.0445 l 5.6,0.048 v -6.4 z m 1857.25339,-32.9461 c -5.1345,-7.347 -11.3101,-19.4942 -12.8857,-25.3457 -0.9306,-3.4559 -0.8443,-5.2897 0.4173,-8.8657 0.8749,-2.4796 2.0629,-9.4912 2.6399,-15.5814 1.3205,-13.936 3.2823,-22.4176 8.0268,-34.7026 4.2537,-11.0144 4.553,-13.0014 1.8817,-12.493 -7.9744,1.5175 -18.2893,36.806 -18.3665,62.8342 -0.045,15.2376 2.9204,23.5368 16.3541,45.767 l 5.4791,9.0667 0.3187,-7.3462 c 0.3056,-7.0426 0.1459,-7.5934 -3.8654,-13.3333 z m 4.0047,-54.2539 -0.076,-28.5333 -1.9949,4.4877 c -3.047,6.8547 -4.3933,19.0468 -3.1788,28.7875 1.0064,8.072 4.3008,23.7915 4.9861,23.7915 0.1861,0 0.3044,-12.84 0.263,-28.5334 z M 2003.5478,2257.62 c 19.3912,-6.3817 34.0429,-12.2641 46.5968,-18.7077 21.1089,-10.8348 85.8778,-55.2469 87.7731,-60.1864 0.8951,-2.3322 0.8681,-23.4292 -0.031,-24.3283 -0.3873,-0.3873 -3.2743,1.7265 -6.4157,4.6975 -6.3519,6.0074 -8.8522,6.3602 -10.1299,1.4295 -1.8642,-7.1944 -8.815,-8.9899 -13.0011,-3.3584 -1.7281,2.3248 -2.2045,4.5945 -2.2388,10.6666 -0.037,6.6032 0.3402,8.2279 2.6231,11.2867 l 2.6666,3.5733 -3.7333,3.1421 c -9.3514,7.8704 -41.3119,23.955 -43.4168,21.8502 -0.3339,-0.334 0.4182,-2.9908 1.6715,-5.9041 2.8576,-6.6427 2.8624,-8.8443 0.026,-11.4027 -3.1507,-2.8409 -13.2368,-2.4498 -28.1464,1.0916 -17.2663,4.1013 -16.7883,4.0186 -16.0181,2.7723 0.3817,-0.6177 8.559,-7.1537 18.1715,-14.5245 47.5999,-36.4991 85.4819,-79.7417 95.5875,-109.1144 1.7043,-4.9535 1.9665,-8.7361 1.8131,-26.1574 -0.098,-11.2013 -0.3429,-18.4462 -0.5429,-16.0996 -1.1991,14.0714 -6.5927,35.0929 -13.1631,51.3031 -14.0613,34.6909 -53.7315,72.1618 -122.9147,116.1002 l -14.6667,9.3148 v 4.0974 4.0973 l 9.8667,-2.6482 c 33.8871,-9.0956 51.8679,-13.1979 57.8481,-13.1979 2.9204,0 3.7519,0.4312 3.7519,1.946 0,3.0514 -12.2193,20.8246 -16.6304,24.189 -8.1304,6.2014 -33.353,16.3621 -45.3509,18.2693 -4.193,0.6665 -4.5391,0.5674 -3.2934,-0.9431 0.7656,-0.9282 4.8456,-3.7161 9.0667,-6.1953 10.3703,-6.0908 16.9289,-11.5038 16.5188,-13.6334 -0.493,-2.5602 -7.364,-3.3798 -18.4441,-2.2001 -12.8077,1.3636 -13.3334,1.5721 -13.3334,5.2858 0,3.0695 0.059,3.0996 4.8,2.4497 3.0361,-0.4161 4.8,-0.2498 4.8,0.4525 0,0.6106 -2.16,2.3761 -4.8,3.9232 l -4.8,2.813 v 14.3551 c 0,10.9335 0.3246,14.355 1.3619,14.355 0.7491,0 8.0069,-2.1869 16.1284,-4.8597 z m 15.4816,-79.9313 c 16.9499,-10.0612 32.2406,-21.769 44.4966,-34.0701 11.1523,-11.1932 15.9183,-18.1971 14.2356,-20.9196 -0.7776,-1.2583 -1.9343,-1.0238 -6.853,1.3885 -3.2547,1.5963 -5.9177,2.5439 -5.9177,2.1059 0,-0.4381 3.9136,-5.1129 8.697,-10.3885 25.5014,-28.1256 37.8833,-46.4971 44.7094,-66.3377 3.6782,-10.6907 2.2518,-36.9867 -2.8357,-52.2773 -0.9352,-2.8106 -5.2561,-13.3493 -9.6021,-23.4192 -7.3016,-16.918 -9.491,-24.891 -6.8352,-24.891 2.2424,0 0.9048,-6.3141 -3.0855,-14.5657 -2.2837,-4.7223 -10.7516,-19.5769 -18.8174,-33.0102 -14.6295,-24.3646 -32.0426,-54.7139 -41.248,-71.8908 -2.6724,-4.9867 -6.9148,-12.9067 -9.4275,-17.6 -5.0366,-9.4076 -24.3117,-47.9579 -26.9331,-53.8667 -5.4914,-12.3776 -9.2126,-21.5852 -10.9928,-27.2 l -2.0291,-6.4 -0.3012,12.6195 c -0.2704,11.3232 -0.012,13.4601 2.5165,20.8 3.8258,11.1071 8.205,20.5875 12.2963,26.6197 8.4819,12.5059 31.6703,61.6657 37.6508,79.8202 3.2468,9.8562 13.3929,30.2663 22.4733,45.2073 27.4001,45.0846 45.5638,78.7118 50.7525,93.9603 2.0279,5.9598 2.2527,8.349 1.7469,18.573 -1.8047,36.4799 -17.4913,64.6342 -52.3866,94.0224 -17.2534,14.5307 -46.2844,32.9017 -68.0818,43.0825 l -7.2,3.3629 v 6.8064 c 0,6.6199 0.066,6.7812 2.4,5.8866 24.941,-9.5582 40.0384,-16.5111 49.7814,-22.926 9.0383,-5.9508 11.8362,-7.3772 12.7099,-6.4798 2.4111,2.4762 -29.4081,23.7807 -61.958,41.4837 -2.2119,1.2031 -2.9333,2.3969 -2.9333,4.8548 v 3.2593 l 10.6867,-5.3628 c 5.8778,-2.9497 15.906,-8.461 22.2851,-12.2476 z m -24.3009,-28.4133 c 1.9646,-1.9646 2.1859,-3.0795 1.6405,-8.2667 -0.7047,-6.7036 -3.1211,-14.529 -4.4864,-14.529 -1.752,0 -5.726,11.7803 -5.7753,17.12 -0.072,7.8992 3.829,10.4679 8.6212,5.6757 z m 137.5431,-36.2595 c 4.9997,-6.7238 5.2527,-7.3901 5.2527,-13.8391 v -6.7753 l -4.7573,7.6444 c -5.5157,8.8632 -13.3761,24.1925 -13.3761,26.086 0,1.9446 6.9254,-5.1074 12.8807,-13.116 z m -138.9398,5.7195 c 0.2771,-1.9429 -0.1711,-2.3891 -2.4,-2.3891 -1.9468,0 -2.7409,0.5666 -2.7409,1.9555 0,4.1344 4.558,4.5189 5.1409,0.4336 z m 31.7361,-8.7142 c 3.9379,-5.9505 13.4901,-27.7867 17.2974,-39.5415 1.8051,-5.5734 3.7747,-11.5734 4.3769,-13.3334 0.8196,-2.3959 1.0387,1.1758 0.8718,14.2156 -0.1987,15.511 -0.019,17.5652 1.6436,18.7842 1.0266,0.7529 1.8666,2.4109 1.8666,3.6846 0,5.3428 5.2183,3.621 15.7848,-5.2081 15.48,-12.9347 25.5211,-32.1461 29.6228,-56.6768 3.7392,-22.3617 -0.3514,-36.4537 -20.3379,-70.0639 -8.6992,-14.6289 -13.9578,-22.6787 -50.9535,-78.0001 -13.356,-19.972 -27.636,-42.164 -31.7333,-49.3155 l -7.4495,-13.0029 v 41.0143 41.0143 l 5.442,7.4438 c 14.5078,19.8444 29.758,51.0314 29.758,60.8557 0,8.5568 -7.6932,18.4991 -13.2376,17.1075 -3.372,-0.8463 -11.2559,-8.8998 -11.4647,-11.7115 -0.3758,-5.0572 0.4076,-6.7235 5.0864,-10.819 4.1838,-3.6623 4.9677,-4.9933 5.4475,-9.2498 0.9928,-8.8093 -5.5,-25.7178 -16.1046,-41.939 l -4.8814,-7.4667 -0.017,51.2 -0.017,51.2 10.4257,6.171 c 12.3249,7.2951 20.0209,12.989 23.0002,17.0167 1.6627,2.2479 2.1458,4.4946 2.0963,9.7503 -0.035,3.7562 -0.4064,7.3831 -0.8245,8.0596 -0.9034,1.4617 -5.3828,-1.0116 -22.4427,-12.391 l -11.7333,-7.8265 -0.3126,6.8217 c -0.2786,6.0785 0.033,7.3344 2.8639,11.5283 3.868,5.7315 5.9369,13.3997 4.9847,18.4756 -0.3895,2.0764 -2.3789,6.9803 -4.4208,10.8978 -3.6894,7.0782 -3.7107,7.1993 -3.4139,19.4428 l 0.2987,12.3204 7.7849,-9.0667 c 4.2817,-4.9867 11.2119,-14.5867 15.4006,-21.3333 4.1887,-6.7467 10.1565,-14.8725 13.262,-18.0574 3.1055,-3.1849 6.1723,-7.3849 6.8154,-9.3334 1.3712,-4.1546 2.4058,-4.4139 4.6766,-1.1719 3.9603,5.6541 1.1687,17.4111 -9.4168,39.6596 -6.3463,13.3386 -8.7943,20.8143 -7.7269,23.5961 0.9305,2.4245 4.3198,0.328 7.6812,-4.7515 z m 26.0839,-29.1415 c 0.024,-3.1402 1.5096,-7.9205 6.8745,-22.1334 1.2128,-3.2129 1.5895,-6.1978 1.1392,-9.0275 -1.1145,-7.0055 -10.987,-24.3415 -22.6822,-39.8301 -6.0672,-8.035 -11.2974,-15.6511 -11.6228,-16.9246 -0.366,-1.4318 0.441,-4.078 2.1142,-6.9333 5.3472,-9.1249 4.7424,-17.8844 -2.2565,-32.6819 -2.0284,-4.2886 -3.4372,-8.0482 -3.1306,-8.3548 1.209,-1.209 11.94,15.8748 18.8559,30.0189 9.1746,18.7633 14.1021,31.4384 18.843,48.4703 6.1533,22.1059 7.9309,27.077 11.1571,31.2005 1.6943,2.1656 3.0807,4.9847 3.0807,6.2645 0,3.0498 -8.37,14.7123 -14.0447,19.5696 -5.7701,4.9389 -8.3651,5.0516 -8.3278,0.3618 z m -3.0791,31.2757 c 2.0096,-1.6421 2.2511,-2.3293 1.1955,-3.4027 -1.0633,-1.0813 -2.0567,-0.995 -5.0666,0.4403 -3.6641,1.7473 -4.4616,2.8803 -3.0329,4.3088 1.319,1.3191 4.3703,0.724 6.904,-1.3464 z m -29.6423,-22.1082 c 8.0457,-7.525 10.023,-11.0342 6.2172,-11.0342 -2.3634,0 -8.6765,4.7056 -12.164,9.0667 -5.1019,6.3799 -7.3474,10.1405 -6.6901,11.2041 0.8768,1.4186 2.5591,0.1889 12.6369,-9.2366 z m -28.7156,-22.3104 c 0.9219,-0.9219 1.6734,-2.0019 1.6701,-2.4 -0.016,-2.019 -2.5552,-9.5073 -3.8495,-11.3552 -1.3106,-1.8712 -1.4778,-1.1175 -1.4778,6.6607 0,8.8859 0.6346,10.117 3.6572,7.0945 z m -1868.35434,-9.0669 c 10.74452,-15.7764 37.7788,-43.792 53.23039,-55.1625 3.66666,-2.6983 6.66666,-5.3269 6.66666,-5.8415 0,-1.076 -12.24984,5.4942 -25.91817,13.901 -18.04749,11.1005 -27.83398,20.2882 -38.38491,36.0368 -2.5418,3.7939 -2.89692,5.3565 -2.89692,12.7467 0,4.673 0.40122,7.9715 0.90128,7.4093 0.49571,-0.5574 3.37646,-4.6477 6.40167,-9.0898 z m 1876.92494,-30.7941 c 0.6336,-1.0251 -6.9847,-9.0028 -10.3612,-10.85 -1.5845,-0.8669 -1.8666,-0.5509 -1.8666,2.0901 0,2.5355 0.9376,3.7245 5.0666,6.425 5.5166,3.608 6.2306,3.8407 7.1612,2.3349 z m 104.0389,-37.74 c 0,-2.938 -7.2026,-13.812 -8.5833,-12.9587 -1.5803,0.9767 -1.1638,4.8755 1.0387,9.7262 2.972,6.5451 7.5446,8.5042 7.5446,3.2325 z m -18.8408,-31.3044 c 1.552,-1.5519 -4.6352,-8.8851 -7.4964,-8.8851 -2.355,0 -1.563,2.393 2.0131,6.0826 3.5245,3.6362 4.269,4.0168 5.4833,2.8025 z m -11.0259,-16.4537 c 0,-2.4598 -3.8289,-8.4314 -5.406,-8.4314 -1.8065,0 -1.0327,4.9964 1.2168,7.8561 2.6646,3.3877 4.1892,3.5969 4.1892,0.5753 z m 59.1377,-38.4482 c -7.0371,-11.6609 -10.8457,-16.9165 -12.2587,-16.9165 -2.18,0 -0.667,3.9323 8.321,21.6262 l 9.3333,18.3738 0.3146,-6.5502 c 0.3026,-6.3017 0.085,-6.9291 -5.7102,-16.5333 z m 3.0647,-14.691 c -2.6534,-2.2831 -3.0441,-2.3684 -3.3608,-0.7344 -0.1971,1.017 1.0029,4.5505 2.6667,7.8521 l 3.025,6.003 0.3358,-5.2687 c 0.2973,-4.6632 -0.011,-5.5656 -2.6667,-7.852 z m 1.3194,-42.4953 c -0.8781,-1.6116 -9.2803,-14.4502 -18.6715,-28.5302 -24.1876,-36.2637 -41.3498,-65.1546 -67.7997,-114.1333 -7.0012,-12.9647 -38.3001,-75.3161 -42.8353,-85.3334 -7.1602,-15.8157 -12.9014,-29.3027 -16.8002,-39.4666 l -3.6824,-9.6001 -0.066,19.8938 -0.066,19.8939 4.3761,9.4394 c 9.238,19.9272 17.3112,38.7311 21.9131,51.0396 2.6321,7.04 6.6819,16.6554 8.9996,21.3675 2.3177,4.7121 4.6524,11.1921 5.1883,14.4 1.3232,7.9203 2.5989,11.2131 13.4171,34.6325 11.2128,24.2735 20.2855,42.0761 22.5598,44.2667 1.4964,1.4415 1.589,1.1925 0.9342,-2.5123 -0.3999,-2.2618 -2.0938,-7.6618 -3.7643,-12 -5.6837,-14.7605 -2.1762,-10.2321 20.7419,26.779 25.5524,41.2653 33.9179,54.1372 38.4745,59.2 2.3658,2.6284 4.2044,5.551 13.4212,21.3333 l 4.6718,8 0.2925,-17.8698 c 0.2335,-14.2679 -0.03,-18.4603 -1.304,-20.8 z m -85.7254,-96.1422 c -2.4758,-4.4049 -3.0347,-7.0829 -1.2478,-5.9786 1.0298,0.6365 5.318,8.3355 5.318,9.5481 0,1.8202 -2.053,0.019 -4.0702,-3.5695 z m 87.2703,60.1453 c 0,-3.437 -0.254,-3.7333 -3.2,-3.7333 -4.0356,0 -4.2028,2.2564 -0.3895,5.2559 1.5457,1.2159 2.9857,2.2108 3.2,2.2108 0.2142,0 0.3895,-1.68 0.3895,-3.7334 z M 117.42511,1773.4128 c 0.23002,-1.2929 -0.32694,-2.1981 -1.50094,-2.4394 -1.54761,-0.318 -1.86666,0.3997 -1.86666,4.1987 0,4.2428 0.11118,4.4235 1.50093,2.4394 0.82551,-1.1787 1.66551,-3.0681 1.86667,-4.1987 z m 1966.76579,-57.9981 c 0,-0.5124 -3.5753,-6.1524 -7.9454,-12.5333 -11.3532,-16.5781 -23.0432,-34.9339 -27.7675,-43.6017 -8.2091,-15.0612 -17.9194,-29.562 -22.2347,-33.2043 -3.3624,-2.8379 -3.3881,-2.8415 -3.7314,-0.5231 -0.209,1.4112 1.7281,5.5894 4.8978,10.5643 11.061,17.3605 32.2479,57.185 32.2479,60.6156 0,2.2646 10.2725,12.9463 15.9422,16.5771 4.6549,2.9812 8.5911,3.9458 8.5911,2.1054 z m -90.9276,-29.4033 c -0.5194,-8.3271 -3.2396,-16.4064 -6.1238,-18.189 -1.7933,-1.1083 -1.3374,17.0478 0.5409,21.543 4.0457,9.6828 6.3114,8.3216 5.5829,-3.354 z m 0.2609,-44.7051 c 0,-1.4515 -5.9612,-10.2933 -6.94,-10.2933 -1.4649,0 -0.2432,6.4726 1.6842,8.9228 2.3571,2.9967 5.2558,3.7526 5.2558,1.3705 z m -1844.03067,-67.952 c 2.59266,-1.1812 7.23065,-7.1727 7.23065,-9.3407 0,-3.0561 -10.25452,1.0608 -13.23247,5.3124 -2.83246,4.0439 0.72589,6.4323 6.00182,4.0283 z m 1915.45967,-33.2747 c -0.1209,-4.2621 -6.848,-10.3795 -11.429,-10.3929 -3.5612,-0.011 -2.9316,2.235 2.0329,7.2492 4.3046,4.3476 9.4793,6.079 9.3961,3.1437 z m -34.6217,-40.2785 c 0.3666,-0.5931 -0.7997,-2.5447 -2.5919,-4.3368 -3.2883,-3.2883 -5.4154,-3.3692 -5.4154,-0.2057 0,3.8968 6.2242,7.4278 8.0073,4.5425 z m 2.6255,-104.2923 c -0.1418,-3.1872 -5.6395,-6.1232 -7.4288,-3.9673 -1.3708,1.6517 0.051,5.332 2.3838,6.1677 1.5089,0.5407 5.0973,-1.0244 5.045,-2.2004 z m -27.1661,-73.2132 3.2,-1.421 -3.2,-1.2912 c -3.8194,-1.5411 -8.3462,-0.3237 -8.8678,2.385 -0.4406,2.2872 4.0787,2.4541 8.8678,0.3272 z m 47.29,-49.2523 c 2.8618,-2.0045 2.7578,-6.0881 -0.1693,-6.6462 -2.6458,-0.5045 -6.054,2.7877 -6.054,5.8479 0,2.9876 2.6181,3.3235 6.2233,0.7983 z m 13.7227,-17.9192 c 2.27,-2.5789 5.4864,-7.1861 7.1476,-10.2383 2.6842,-4.9315 2.8424,-5.7273 1.4212,-7.1486 -1.2291,-1.229 -2.0977,-1.3323 -3.7528,-0.4466 -2.3552,1.2604 -8.5388,9.331 -11.2907,14.736 -4.3396,8.5238 -0.091,10.5563 6.4747,3.0975 z m 39.3378,-37.1503 c 11.3595,-7.9253 18.8576,-15.1345 18.3775,-17.6695 -0.6739,-3.5588 -6.9612,-2.9193 -13.1408,1.3367 -8.4344,5.8091 -18.6538,16.8826 -18.6538,20.2129 0,4.3083 2.8702,3.4782 13.4171,-3.8801 z m -55.2774,-21.9001 c 4.5431,-2.9334 10.8823,-6.7119 14.087,-8.397 7.4565,-3.9206 23.3182,-19.4582 27.6285,-27.0637 3.5499,-6.264 4.1231,-9.4617 2.0648,-11.52 -2.7604,-2.7603 -5.6843,-1.1048 -15.3231,8.6761 -8.4266,8.5508 -10.7706,10.3035 -16.6043,12.4163 -11.958,4.3306 -20.6511,10.2807 -28.172,19.2825 -3.8413,4.598 -4.7559,9.0871 -2.354,11.5551 2.5822,2.6533 9.9033,0.7129 18.6731,-4.9493 z m 86.1269,-1.4016 c 0,-2.805 -3.1374,-4.1484 -5.1014,-2.1843 -0.8109,0.8108 -0.5689,1.7741 0.8354,3.3259 2.4568,2.7148 4.266,2.2306 4.266,-1.1416 z m -140.2833,-1.5057 c 0.86,-1.0362 1.07,-3.147 0.6101,-6.1334 -1.7597,-11.4303 -1.7991,-16.8626 -0.1628,-22.4913 1.9828,-6.8206 4.0902,-9.1309 6.5027,-7.1287 2.649,2.1985 2.0401,9.2569 -1.0667,12.3636 -3.5068,3.5068 -3.3675,6.3925 0.4825,9.9889 5.4406,5.0823 18.1842,7.0345 18.1842,2.7856 0,-0.8183 3.24,-3.2896 7.2,-5.4917 3.96,-2.2022 15.84,-9.5966 26.4,-16.4321 23.6324,-15.2974 32.1494,-20.2878 43.6481,-25.5752 7.4597,-3.4301 9.6844,-5.0662 13.3403,-9.8112 9.6343,-12.5042 11.0155,-13.8214 18.0436,-17.207 l 7.1013,-3.4209 0.3104,-8.2058 c 0.2739,-7.2384 0.064,-8.3375 -1.7799,-9.3244 -2.972,-1.5906 -3.6311,-6.1195 -1.9582,-13.4553 0.8325,-3.6509 1.1263,-7.8503 0.6914,-9.8842 -0.8858,-4.1427 -4.8323,-8.7303 -7.5103,-8.7303 -4.678,0 -11.5608,16.4375 -11.5975,27.697 l -0.022,6.8971 -7.9223,7.7696 c -4.3572,4.2733 -8.4642,7.7696 -9.1267,7.7696 -0.6626,0 -2.4976,-1.3398 -4.0779,-2.9774 -4.6644,-4.8336 -6.0715,-5.5807 -12.4731,-6.6226 -10.4076,-1.6939 -11.383,-4.1694 -4.7873,-12.151 2.3536,-2.8482 4.5437,-6.4395 4.8668,-7.9805 0.3232,-1.541 0.8023,-3.8644 1.0647,-5.1631 0.2809,-1.3909 2.4448,-3.5145 5.2656,-5.1676 2.6337,-1.5434 5.8183,-4.2523 7.0769,-6.0199 1.9874,-2.7911 2.7688,-3.1357 5.9424,-2.6207 2.0098,0.3262 4.8436,0.1408 6.2974,-0.412 2.9257,-1.1123 5.7534,-6.7433 5.7167,-11.3843 -0.035,-4.5119 -3.8108,-11.8829 -6.7786,-13.2351 -4.019,-1.8312 -7.4444,-0.4075 -14.7735,6.1403 -8.0914,7.2287 -15.22,11.4776 -23.7578,14.1606 -8.35,2.624 -17.9321,6.8983 -22.0703,9.8449 -1.8152,1.2925 -5.9824,3.4401 -9.2605,4.7725 -3.2782,1.3323 -6.1148,2.8859 -6.3036,3.4522 -0.7744,2.3232 6.3813,8.5956 11.8174,10.3589 3.0527,0.9902 6.0303,2.2589 6.617,2.8193 1.9124,1.827 -10.4549,12.2816 -16.7348,14.1465 -7.2572,2.1552 -8.2293,2.0918 -13.8643,-0.9043 -6.3725,-3.3884 -10.5315,-4.1948 -17.0266,-3.3015 -6.0185,0.8277 -9.441,3.4667 -9.441,7.2795 0,5.4517 6.0927,7.7248 33.115,12.3544 25.913,4.4396 29.225,5.2329 31.7773,7.6107 6.7055,6.247 -8.2828,8.1555 -19.3013,2.4576 -2.2729,-1.1753 -5.2368,-1.5586 -9.8031,-1.2679 -7.775,0.4951 -12.4048,3.302 -15.5207,9.4094 -2.4502,4.8028 -5.2208,5.9101 -17.388,6.9493 l -8.3208,0.7107 0.3208,24.7039 c 0.3099,23.8684 0.4044,24.8211 2.7935,28.1705 2.6537,3.7206 5.5323,4.4311 7.644,1.8868 z m 17.1027,-24.8201 c 0.011,-0.44 1.4393,-2.8952 3.1747,-5.4562 1.7354,-2.5609 3.4344,-6.4009 3.7754,-8.5333 1.1903,-7.4422 1.5954,-8.5949 4.0066,-11.3981 3.7004,-4.302 10.9279,-4.7976 17.1121,-1.1733 7.2395,4.2425 7.0955,5.3911 -1.3618,10.8621 -4.0516,2.6211 -7.7983,4.7655 -8.326,4.7655 -0.5275,0 -4.0077,2.64 -7.7337,5.8666 -5.9807,5.1794 -10.7046,7.4272 -10.6473,5.0667 z m 58.5935,-50.672 c -4.5786,-3.0855 -4.8857,-5.6802 -0.6366,-5.3789 4.0805,0.2895 8.3695,3.2264 7.9434,5.4393 -0.5226,2.7135 -3.2238,2.6912 -7.3068,-0.061 z m 58.5834,48.7373 c 2.4268,-3.0851 1.9577,-5.7986 -1.0021,-5.7986 -2.1368,0 -6.3275,3.901 -6.3275,5.89 0,3.5684 4.4948,3.5124 7.3296,-0.092 z m -7.1799,-25.5676 c 5.4425,-1.2952 11.0233,-9.5976 8.0888,-12.0332 -2.6758,-2.2206 -18.9052,7.242 -18.9052,11.0228 0,0.7871 1.08,1.6331 2.4,1.8801 2.41,0.451 3.2177,0.3675 8.4164,-0.8697 z M 123.65751,1126.4176 c 0,-0.6208 -2.14888,-3.3808 -4.77528,-6.1334 l -4.77527,-5.0046 -0.0247,4.1828 c -0.0143,2.4256 0.71682,5.002 1.74059,6.1333 1.88499,2.0829 7.83468,2.707 7.83468,0.8219 z m 28.50552,-11.4046 c -0.8892,-14.0571 -4.78937,-23.016 -7.8941,-18.1334 -1.38287,2.1749 -5.83345,12.8726 -6.43716,15.4728 -0.30725,1.3234 0.0979,3.2034 0.90022,4.1779 2.57671,3.1293 9.71243,7.816 11.90018,7.816 2.00058,0 2.08766,-0.5309 1.53086,-9.3333 z m 1837.09457,5.1399 c 0,-0.4026 -0.7048,-1.6639 -1.5661,-2.8027 -1.4647,-1.9366 -1.5683,-1.8034 -1.6,2.06 -0.029,3.5525 0.19,3.9448 1.5661,2.8028 0.88,-0.7304 1.6,-1.6574 1.6,-2.0601 z m 32.6525,-33.5051 c 3.8615,-3.3216 2.8865,-6.0348 -2.1689,-6.0348 -6.6278,0 -11.8259,4.0004 -9.6895,7.4572 1.2968,2.0981 8.8137,1.1964 11.8584,-1.4224 z m -1901.52409,-6.9679 c 3.50476,-6.5487 2.04536,-17.1327 -3.1496,-22.8421 l -3.11637,-3.4248 -0.0313,13.0136 c -0.0271,11.2891 0.21611,13.1578 1.8354,14.1009 2.63553,1.5351 3.24904,1.4185 4.46184,-0.8476 z m 18.16181,-0.6446 c 3.95327,-2.0444 9.63137,-8.9449 8.90909,-10.8271 -0.83401,-2.1734 -4.04888,-1.7849 -10.50586,1.2698 -6.8241,3.2283 -10.732,7.4805 -8.90173,9.6858 1.58279,1.9071 6.68265,1.8447 10.4985,-0.1285 z m 1867.15708,-6.2458 c 6.3269,-2.8965 8.406,-5.8512 9.668,-13.7391 0.9865,-6.1662 1.7037,-6.1472 11.9248,0.3167 4.8599,3.0734 7.964,1.8603 17.2343,-6.7352 4.3836,-4.0646 9.1857,-7.8522 10.6713,-8.417 1.4997,-0.5702 5.9303,-0.7088 9.9613,-0.3116 13.3546,1.316 17.5515,-2.7178 16.2777,-15.6448 -0.8911,-9.0433 0.02,-10.39 10.2153,-15.1045 12.9159,-5.9724 23.6491,-10.4077 25.1861,-10.4077 0.8818,0 3.5553,4.2467 6.3081,10.0202 2.6277,5.5111 5.5442,10.3144 6.4813,10.674 0.9369,0.3595 2.9758,0.044 4.5307,-0.7013 2.8257,-1.3543 2.8271,-1.361 2.8271,-14.1406 v -12.78558 l -4.8,-0.5334 c -5.5222,-0.6135 -5.7088,-1.7068 -1.2494,-7.3198 1.5672,-1.9726 3.5335,-4.531 4.3695,-5.6853 2.28,-3.1481 1.7561,-289.60637 -0.5344,-292.14549 -1.9573,-2.16981 -1.9235,-3.11601 0.1111,-3.11601 1.3974,0 1.5877,-2.08315 1.3333,-14.59132 l -0.2967,-14.59134 -3.2,-0.90127 c -1.76,-0.4957 -11.2282,-1.35775 -21.0405,-1.91567 -30.1956,-1.71692 -58.9066,-7.05605 -87.2262,-16.22066 -11.9398,-3.86386 -19.5327,-7.51624 -28.8954,-13.89933 -3.7608,-2.564 -7.438,-5.02433 -8.1713,-5.4674 -1.0514,-0.63526 -1.3333,4.40043 -1.3333,23.81711 v 24.62268 l 2.9333,1.14586 c 7.2209,2.82074 24.8538,6.37279 44.1496,8.89371 26.2511,3.42959 32.0826,5.25099 30.4483,9.51007 -1.6138,4.20516 -18.7376,9.92503 -32.7312,10.93312 -5.019,0.36156 -11.1108,1.53074 -13.6455,2.61893 -5.2739,2.2642 -13.7515,10.46657 -23.998,23.21881 l -7.1565,8.90661 v 79.36005 c 0,45.77963 0.4025,79.36005 0.9512,79.36005 2.7266,0 12.5197,10.85497 17.6918,19.60996 6.1939,10.48496 7.6969,11.87207 14.0257,12.94354 7.3409,1.24283 7.8646,1.55624 7.8646,4.70596 0,1.6403 -1.8,6.52796 -4,10.86145 -3.5541,7.00079 -4.6667,8.24884 -9.9808,11.19606 -3.2895,1.82433 -8.5695,5.25032 -11.7333,7.61322 -3.164,2.363 -7.7926,5.3201 -10.2859,6.5714 l -4.5333,2.2751 v 12.3676 12.3677 l 2.9333,-1.9352 c 7.5161,-4.9586 17.1419,-10.1733 20.5012,-11.1064 10.798,-2.9991 2.9101,8.0668 -11.0063,15.4409 -2.8444,1.5072 -6.8044,3.9857 -8.8,5.50778 -3.5489,2.7069 -3.6282,2.9396 -3.6282,10.6408 0,4.3304 0.2991,7.8734 0.6645,7.8734 1.2578,0 14.2115,-9.6688 20.9013,-15.6009 7.8299,-6.94318 13.6351,-9.94298 19.3043,-9.97568 4.8576,-0.028 7.7622,-1.3921 11.5373,-5.4185 1.7115,-1.8253 4.4184,-3.2622 6.9334,-3.6803 6.8209,-1.1341 9.7312,-2.6692 14.1514,-7.4646 5.3374,-5.7904 7.0765,-11.4332 4.8803,-15.8356 -3.1096,-6.2332 -1.3138,-6.6458 4.817,-1.1069 4.9749,4.4945 7.4592,4.378 12.2015,-0.5718 3.9143,-4.0857 4.5855,-8.43188 3.4434,-22.29527 -0.5956,-7.22944 -0.5378,-11.96044 0.1651,-13.50286 1.2839,-2.81797 8.8524,-5.12182 12.3978,-3.77388 5.7015,2.16768 14.0739,12.00359 12.8586,15.10609 -0.3132,0.79947 -2.2281,2.53089 -4.2552,3.84759 -3.2965,2.14115 -3.5756,2.68361 -2.6433,5.1361 1.971,5.18395 1.129,10.26893 -3.1715,19.15373 -4.2621,8.8055 -11.0883,16.5161 -14.6216,16.5161 -2.1592,0 -6.2686,3.1674 -15.1538,11.6795 -11.5363,11.05208 -24.5776,17.71648 -43.8772,22.42218 -10.52,2.565 -16.8137,5.1564 -19.0408,7.84 -0.7141,0.8603 -1.6527,3.6554 -2.086,6.2113 -0.6898,4.0693 -1.1597,4.69 -3.7792,4.9925 -2.1469,0.2479 -4.3806,-0.7369 -7.9119,-3.4881 -2.7062,-2.1084 -5.4293,-3.6645 -6.0512,-3.4579 -0.707,0.2348 -1.2419,6.0626 -1.4272,15.5488 -0.2712,13.8825 -0.1123,15.4071 1.8667,17.923 1.6444,2.0906 2.1629,4.3347 2.1629,9.3615 0,3.6365 0.36,6.9764 0.8,7.4222 1.3253,1.3425 8.2869,-0.064 14.5807,-2.9451 z m 100.0154,-83.60648 c 0.1938,-1.0065 1.6521,-2.5595 3.2404,-3.4511 2.3757,-1.3334 3.1313,-1.3738 4.2592,-0.2276 1.1198,1.1381 0.9096,1.7705 -1.1472,3.4511 -3.2036,2.6177 -6.8378,2.7479 -6.3524,0.2276 z m -79.3619,-174.75811 c -0.8836,-0.88355 3.3004,-16.35191 5.212,-19.26957 2.067,-3.1545 7.7098,-3.47794 10.3218,-0.59166 2.1642,2.39137 2.4415,13.78353 0.4035,16.57077 -1.9327,2.64315 -14.0773,5.15053 -15.9373,3.29046 z m 1.2992,-43.17869 c 0,-3.48665 2.5165,-5.3434 4.5228,-3.3371 0.8613,0.86138 0.8482,1.90618 -0.049,3.87497 -1.7495,3.83971 -4.4739,3.51217 -4.4739,-0.53787 z M 277.20551,1061.6796 c -0.048,-3.7052 -0.8748,-4.7402 -11.21912,-14.048 -18.4781,-16.6263 -31.72709,-26.2718 -47.39554,-34.5047 -8.93901,-4.697 -65.49984,-26.03428 -71.73334,-27.06098 -7.60969,-1.2535 -4.38596,3.8427 6.4332,10.1699 5.50843,3.2213 23.74351,9.81488 31.1668,11.26938 11.87391,2.3266 30.70804,10.8938 44.80001,20.3785 10.71743,7.2134 17.93443,12.8537 34.78224,27.1827 6.86333,5.8372 12.64505,10.6132 12.84825,10.6132 0.2032,0 0.3461,-1.8 0.3175,-4 z m -93.71764,-47.6164 c -2.18889,-2.6374 -11.7753,-6.1203 -15.90128,-5.777 l -3.92908,0.3268 2.94302,1.9957 c 4.06664,2.7576 10.23449,4.835 14.52092,4.8908 2.95315,0.038 3.37688,-0.2187 2.36642,-1.4363 z m 93.76964,-24.40158 v -10.9514 l -4.3251,-0.1134 c -4.36585,-0.1145 -18.07489,-5.2568 -18.07489,-6.78 0,-0.4525 2.58942,-1.8737 5.75425,-3.1582 6.28924,-2.5526 9.50273,-5.3928 11.21494,-9.9123 0.7078,-1.8682 1.8955,-2.9333 3.2711,-2.9333 1.9228,0 2.1597,-0.6856 2.1597,-6.24945 v -6.24948 l -10.93339,2.97182 c -17.2676,4.69353 -24.55672,5.70785 -30.44015,4.23596 -2.76456,-0.69163 -13.18645,-6.09814 -23.15979,-12.0145 -17.20156,-10.20424 -25.62408,-15.79582 -21.67621,-14.39048 0.98474,0.35055 6.90848,2.15885 13.16385,4.01846 10.93301,3.25018 11.93755,3.36132 25.94288,2.87026 8.9376,-0.31336 17.34453,-1.24101 21.74844,-2.39978 8.30755,-2.18592 9.93536,-1.5331 11.05468,4.43338 0.99345,5.29552 2.96685,6.77382 9.04259,6.77382 h 5.2571 v -13.6 -13.6 l -8.49544,0.34662 c -8.39291,0.34243 -8.50391,0.31291 -9.19642,-2.44626 -1.22645,-4.8866 2.45405,-12.00946 10.3689,-20.06686 l 7.31866,-7.44977 v -17.80713 -17.80712 l -3.4666,0.42159 -3.46669,0.4216 2.66669,-2.18263 c 1.4666,-1.20043 3.0266,-2.19328 3.4666,-2.20632 0.44,-0.013 0.8,-23.09856 0.8,-51.30114 v -51.27742 l -2.8572,2.24747 c -1.5714,1.23612 -4.33788,4.51042 -6.14765,7.27623 -2.51841,3.84879 -4.91397,5.84051 -10.20947,8.48836 -6.86931,3.43479 -12.78563,4.51793 -12.78563,2.34076 0,-2.74754 28.00445,-27.66465 31.09235,-27.66465 0.4992,0 0.9076,-68.82593 0.9076,-152.94652 V 428.05332 l -7.73329,-6.16601 c -17.60069,-14.03351 -45.84673,-44.98288 -61.76317,-67.67429 -5.73657,-8.17839 -10.5035,-16.91157 -10.5035,-19.24278 0,-0.91287 -1.92441,-5.58587 -4.27647,-10.38446 -8.57345,-17.49178 -12.04381,-32.40448 -14.45253,-62.10609 -1.32185,-16.29957 -1.62375,-28.65582 -1.18579,-48.53334 0.67976,-30.85167 1.91061,-43.29057 5.5612,-56.20071 1.44128,-5.09707 2.62052,-9.83157 2.62052,-10.52112 0,-0.88645 -1.44524,-1.03701 -4.93341,-0.51392 l -4.9334,0.73982 0.75164,-7.0187 c 0.59851,-5.58888 0.45478,-7.0187 -0.70558,-7.0187 -2.01997,0 -8.3288,8.71773 -15.24507,21.06607 -6.43714,11.49289 -8.29782,17.33393 -5.5218,17.33393 2.30023,0 6.29405,-5.68263 9.25087,-13.16263 2.4866,-6.29048 4.57456,-8.29289 6.56829,-6.29916 0.73975,0.73974 -0.26603,4.79795 -3.14133,12.67496 -2.32622,6.37276 -4.55789,13.86903 -4.95927,16.65837 -0.73398,5.10068 -4.65744,11.36183 -11.52703,18.39513 -6.01736,6.16075 -8.98479,14.55504 -5.60391,15.8524 2.41422,0.92642 4.01038,-0.0437 6.80416,-4.13577 1.39562,-2.04415 2.95562,-3.71663 3.46667,-3.71663 2.57419,0 -0.94664,14.03644 -6.87438,27.40599 -5.52051,12.45107 -7.76951,19.23234 -8.72865,26.319 -0.38647,2.8554 -1.87142,10.2954 -3.29989,16.53333 -9.83798,42.96114 -11.49549,53.60014 -11.57168,74.27501 -0.0753,20.43243 -1.00494,16.91472 15.85633,60 3.85425,9.84869 9.32829,23.0627 11.88701,28.69454 0.8399,1.84866 1.52709,3.70787 1.52709,4.13158 0,0.42371 2.24495,4.43117 4.98878,8.90547 2.74382,4.47429 6.58382,10.74684 8.53333,13.93899 4.26664,6.98626 4.65571,10.72942 1.11523,10.72942 -5.02294,0 -10.17252,-6.27213 -18.39096,-22.4 -9.8282,-19.28686 -16.48715,-28.71347 -21.8533,-30.9362 -5.4518,-2.25821 -5.85203,-0.0766 -1.28571,7.00836 5.10231,7.91655 5.75525,9.63733 4.15942,10.96175 -2.36146,1.95984 -6.38205,-1.54899 -10.92291,-9.53259 -2.4396,-4.28921 -4.98498,-7.98169 -5.65642,-8.2055 -2.21164,-0.73722 -1.30453,5.81257 1.57318,11.35923 3.11822,6.01024 2.87196,10.22375 -0.66312,11.34574 -2.11208,0.67035 -2.1303,1.62722 -2.06812,108.60443 0.0488,83.87668 0.34587,107.5022 1.33333,106.01685 0.69883,-1.05119 4.07579,-5.84917 7.50434,-10.66218 3.42855,-4.81301 7.55376,-11.41146 9.16713,-14.66321 1.61337,-3.25177 4.77408,-8.53379 7.0238,-11.73782 4.71531,-6.7155 18.62911,-24.49219 19.17002,-24.49219 0.20029,0 1.06421,-0.26863 1.91981,-0.59695 1.02473,-0.39323 1.77942,0.29468 2.21136,2.01567 1.01534,4.04544 3.35261,4.12766 8.90423,0.31322 2.80679,-1.92851 7.67034,-5.26635 10.80789,-7.41743 3.13755,-2.1511 6.10867,-3.66137 6.6025,-3.35616 2.56346,1.5843 -12.09482,24.89585 -26.81301,42.64165 -19.87639,23.96508 -37.74046,40 -44.56292,40 h -3.33121 v 115.22287 115.22287 l 2.4,0.99684 c 16.66365,6.92131 28.76027,12.49839 43.20013,19.91722 29.20128,15.00286 39.95376,21.73725 106.39988,66.63933 5.86669,3.9645 10.78669,7.23648 10.93329,7.27118 0.1467,0.035 0.2667,-4.86518 0.2667,-10.88838 z m -48.26666,-68.59203 c -3.417,-1.85376 -3.70999,-3.68973 -0.98268,-6.15791 2.38651,-2.15976 5.51601,-2.30735 5.51601,-0.26014 0,0.82784 1.44,2.71686 3.2,4.19781 1.76,1.48094 3.2,2.9636 3.2,3.29481 0,1.24949 -8.12062,0.45135 -10.93333,-1.07457 z m -80.55321,-11.71042 c -2.73781,-1.91764 -3.02031,-3.20558 -0.88301,-4.02573 2.84577,-1.09203 6.10113,0.49174 5.75885,2.80174 -0.42605,2.87537 -1.96619,3.26199 -4.87584,1.22399 z m 48.01987,-30.58133 c -2.7789,-1.34022 -2.98289,-2.21984 -0.91315,-3.93757 1.80506,-1.49807 9.17982,1.58444 9.17982,3.83698 0,1.69114 -4.84643,1.7501 -8.26667,0.10059 z m 16.6515,-23.26697 c 1.38501,-1.15381 3.9794,-2.09784 5.76533,-2.09784 3.17958,0 3.20697,0.0444 1.31651,2.13333 -1.26553,1.39839 -3.2517,2.12111 -5.76532,2.09784 l -3.83468,-0.0355 2.51816,-2.09784 z m -72.38483,-14.34284 c 0,-1.25185 8.62966,-4.73136 14.36307,-5.79124 11.9139,-2.2024 21.11643,-0.75894 13.70111,2.14909 -5.09311,1.99733 -28.06418,4.97852 -28.06418,3.64215 z m 89.6,-5.59997 c 0,-4.0762 13.19104,-14.15503 18.5259,-14.15503 3.97409,0 3.52189,1.20453 -2.25923,6.01787 -10.68542,8.89665 -16.26667,11.68859 -16.26667,8.13716 z m 22.04506,-27.02404 c -0.84842,-1.21128 -1.30146,-3.12438 -1.00676,-4.25131 0.76756,-2.93514 8.64312,-9.74235 10.76893,-9.30808 2.86968,0.58623 2.11156,7.50985 -1.31408,12.0011 -3.24381,4.25284 -6.18124,4.79467 -8.44809,1.55829 z m -44.96477,-5.24228 c -1.53369,-2.48157 3.70835,-7.77822 6.65304,-6.72236 2.08508,0.74764 1.57206,5.43083 -0.72987,6.66279 -2.59682,1.38977 -5.08559,1.4148 -5.92317,0.0595 z m -24.55286,-8.56493 c -1.82638,-2.95514 3.12779,-8.32931 6.48925,-7.0394 2.15231,0.82592 1.87793,3.48767 -0.61668,5.98228 -2.31466,2.31467 -4.81697,2.76511 -5.87257,1.05712 z m 31.64293,-5.65185 c -2.4176,-2.91303 -5.45777,-11.02087 -5.48027,-14.61535 -0.0286,-4.56492 -2.32707,-6.25794 -9.67796,-7.12854 -2.87374,-0.34035 -5.02394,-0.94413 -4.77821,-1.34172 0.24573,-0.3976 2.65347,-1.85785 5.35055,-3.245 6.54428,-3.36585 9.04643,-2.37675 16.1709,6.39238 3.09799,3.81313 7.32693,8.90169 9.39767,11.30791 3.54785,4.12264 3.65765,4.47207 1.90402,6.05909 -4.02654,3.64396 -10.86416,5.00824 -12.8867,2.57123 z m -3.37036,-69.0562 c 0,-1.63524 5.44067,-6.40863 6.5342,-5.7328 1.66807,1.03093 0.98611,3.49186 -1.43821,5.18992 -2.73116,1.91297 -5.09599,2.1649 -5.09599,0.54288 z M 146.60696,474.77188 c -2.78502,-4.41174 -5.67806,-13.38581 -4.64752,-14.41635 2.56377,-2.56377 9.40075,8.46051 9.42098,15.19083 0.0139,4.62153 -1.52469,4.37191 -4.77346,-0.77448 z m -21.95434,483.82314 -10.06178,-9.65096 -0.33549,4.04226 c -0.18452,2.2232 0.27085,4.7729 1.01194,5.6658 2.174,2.6195 17.1645,11.0045 18.35651,10.2679 0.59983,-0.3708 -3.4372,-5.017 -8.97118,-10.325 z M 1997.0319,708.1581 c 12.0088,-8.05209 23.533,-17.12882 25.7303,-20.26597 2.949,-4.21027 -1.7781,-6.61117 -8.2054,-4.16752 -1.4152,0.53804 -5.4064,3.46832 -8.8695,6.51173 -3.463,3.0434 -9.2964,7.76319 -12.9631,10.48841 -6.3547,4.72312 -6.6666,5.16704 -6.6666,9.48827 0,2.49334 0.2584,4.53334 0.5743,4.53334 0.3158,0 4.9958,-2.96472 10.4,-6.58826 z m -8.841,-20.61174 c 0,-2.05334 -0.48,-3.73334 -1.0667,-3.73334 -0.5866,0 -1.0666,1.68 -1.0666,3.73334 0,2.05333 0.48,3.73333 1.0666,3.73333 0.5867,0 1.0667,-1.68 1.0667,-3.73333 z m 105.3867,-67.94667 c 4.7351,-4.7352 -3.7197,-20.05333 -11.0685,-20.05333 -2.2076,0 -2.5848,0.50835 -2.5848,3.48246 0,3.99721 3.2283,10.64707 7.2421,14.91754 3.026,3.21953 4.4721,3.59244 6.4112,1.65333 z m -52.5291,-28.32 c -0.3949,-2.78667 -1.6517,-8.66667 -2.7931,-13.06667 -3.495,-13.47447 -5.2641,-24.67637 -5.2643,-33.33333 -2e-4,-7.16386 0.2489,-8.26601 1.8665,-8.26171 9.8326,0.0261 38.4212,2.57235 43.4667,3.87135 10.3879,2.67449 11.3011,4.59182 5.3333,11.19748 -2.0533,2.27279 -3.7333,4.57613 -3.7333,5.11853 0,1.3825 5.3072,5.40768 7.13,5.40768 0.83,0 3.2407,-1.68183 5.3573,-3.73741 4.5927,-4.46033 6.9019,-5.14275 26.922,-7.95598 22.5226,-3.1649 22.9646,-5.12701 2.056,-9.12826 -48.0388,-9.1932 -77.5515,-12.09988 -86.8395,-8.55279 -4.4201,1.68803 -4.8702,2.22797 -6.4831,7.77636 -1.2393,4.26278 -1.5364,7.88504 -1.0424,12.7073 0.5993,5.84899 5.7395,23.95899 10.925,38.49078 2.2146,6.20597 4.0101,5.89695 3.0989,-0.53333 z m -27.1982,-63.8176 c 4.4098,-3.30198 12.5728,-7.57021 18.5313,-9.68954 20.9312,-7.44494 66.9135,-8.40907 92.8735,-1.94731 5.8653,1.45994 10.8073,2.65445 10.9821,2.65445 0.1748,0 0.1759,-3.22195 0,-7.15988 l -0.3154,-7.15989 -3.7333,-0.79059 c -8.7899,-1.86137 -42.2292,-3.26326 -62.9334,-2.63838 -21.953,0.66258 -35.2463,2.15938 -54.7902,6.16928 -7.6029,1.55996 -10.8465,1.8361 -11.6875,0.99502 -1.7333,-1.73326 0.6899,-3.68119 11.0496,-8.88268 9.9633,-5.00241 12.391,-8.26621 6.1488,-8.26621 -5.0421,0 -15.6207,6.5165 -25.2105,15.52971 l -8.0113,7.52972 -0.4776,6.60362 c -0.2628,3.63199 -0.093,6.60361 0.3766,6.60361 0.4699,0 4.2815,-2.36927 8.4704,-5.26503 8.8915,-6.14669 12.3501,-7.33643 14.3437,-4.93422 1.3193,1.58975 1.2166,3.59845 -0.5427,10.60815 -0.881,3.51006 0.2769,3.51951 4.9235,0.0402 z m 122.4114,-47.11573 c -0.3034,-2.63773 -1.3049,-3.2943 -9.9374,-6.51516 -10.2387,-3.82009 -21.5412,-6.55777 -23.7334,-5.74868 -2.4057,0.88789 -1.4013,2.47693 2.6667,4.21837 4.4273,1.89528 29.0929,10.69274 30.4708,10.86803 0.4791,0.0609 0.7191,-1.20923 0.5333,-2.82256 z m -68.6914,-4.11413 c 2.8498,-1.09354 1.8842,-3.2081 -2.3127,-5.06469 -15.4215,-6.82196 -55.3488,-14.54921 -75.2,-14.55362 -3.53,-7.9e-4 -4,0.30503 -4,2.60281 0,1.43205 0.4199,2.86324 0.9331,3.18043 0.5133,0.31718 5.6733,1.08908 11.4667,1.7153 18.8217,2.03448 46.0098,7.35726 54.4752,10.66495 5.1662,2.0186 11.5223,2.65032 14.6377,1.45482 z m 68.5296,-125.92887 c -0.3899,-48.49699 -0.709,-104.70671 -0.709,-124.9105 v -36.73417 l -4,3.47801 c -2.2,1.9129 -32.08,29.71608 -66.4,61.78486 -34.32,32.06877 -66.0932,61.63339 -70.6072,65.69916 l -8.2073,7.3923 0.2073,40 0.2072,40 17.6,0.67806 c 41.8765,1.61334 87.1938,11.59526 122.1334,26.90197 4.6933,2.05612 8.9723,3.77175 9.509,3.81252 0.5877,0.0447 0.6937,-34.98202 0.2666,-88.10221 z M 118.85448,409.68923 c 0.8105,-2.55365 -0.0865,-4.27621 -2.22673,-4.27621 -1.87423,0 -3.04189,2.5657 -2.18451,4.8 0.88148,2.29709 3.6191,1.97202 4.41124,-0.52379 z m 153.92113,-30.19236 c -12.15302,-10.73406 -17.07954,-14.6021 -17.92911,-14.07703 -2.13451,1.31919 8.57067,19.56523 17.80551,30.34791 l 4.0722,4.75473 0.3181,-8.48806 0.3181,-8.48807 z m -156.67607,1.38282 c 0.0322,-3.81334 -0.40667,-7.65334 -0.97537,-8.53334 -0.70345,-1.08851 -1.01525,1.80989 -0.97536,9.06667 0.0381,6.93941 0.37897,9.92122 0.97536,8.53333 0.5042,-1.17333 0.94312,-5.25333 0.97537,-9.06666 z m 158.10597,-25.01283 c -1.7538,-2.59867 -4.1359,-6.07387 -5.29352,-7.72268 -15.45869,-22.01798 -35.60937,-63.33685 -42.55777,-87.26449 -8.14,-28.03105 -10.82557,-61.81172 -7.2257,-90.88926 0.88239,-7.12738 1.80873,-13.59306 2.05853,-14.36815 7.99153,-24.79631 9.32701,-29.91033 8.11767,-31.08542 -2.07608,-2.01728 -7.90114,5.63133 -12.32355,16.18145 -11.2271,26.78342 -15.0548,49.79562 -14.04321,84.42804 0.33416,11.44 1.12971,24.88 1.7679,29.86667 2.8776,22.48497 16.4543,66.9596 21.79329,71.39056 2.02265,1.67866 4.8917,-0.10197 4.8917,-3.03602 0,-3.08947 -5.06971,-21.33571 -10.55209,-37.97774 -9.36402,-28.42492 -12.95263,-43.57803 -9.86896,-41.67221 0.50176,0.3101 2.95312,6.69843 5.44748,14.19628 6.01173,18.07084 9.04582,25.78446 14.17308,36.03246 8.84327,17.67532 26.95039,46.88729 42.30845,68.25573 l 3.8254,5.32239 0.335,-3.46638 c 0.2385,-2.46732 -0.584,-4.82815 -2.8537,-8.19123 z m -28.94799,0.88569 c 0,-0.36325 -1.75987,-3.55751 -3.91081,-7.09835 -7.57298,-12.46646 -15.30421,-18.95811 -8.86209,-7.44118 5.31938,9.50975 12.7729,17.99417 12.7729,14.53953 z m 30.97529,-105.24803 c -1.4289,-13.45825 -1.4306,-51.29634 0,-62.18857 0.6743,-5.1442 0.9865,-29.04024 0.8,-61.23627 l -0.3054,-52.800002 -7.07029,12.26667 c -26.17414,45.411282 -30.05259,55.449222 -31.6442,81.899502 -2.93816,48.82771 9.27317,105.75579 32.16406,149.94583 l 6.55043,12.64531 0.3086,-35.04531 c 0.17,-19.31039 -0.1892,-39.73358 -0.8,-45.48716 z m 230.3581,52.784 c 0,-1.16805 -5.9515,-10.4992 -9.8433,-15.43295 l -3.1742,-4.02412 3.7194,-4.50921 c 4.9617,-6.01523 13.225,-10.81045 26.0671,-15.12675 5.8278,-1.95878 12.8326,-4.58026 15.5661,-5.8255 4.6849,-2.13425 5.2001,-2.16793 8.9841,-0.58727 5.8833,2.45761 9.7867,6.59657 13.1819,13.97743 2.3734,5.15963 3.7184,6.79348 6.3463,7.7096 7.3419,2.55937 14.796,-4.25285 18.2386,-16.66791 3.2433,-11.69622 2.278,-18.48303 -3.9722,-27.92773 -1.7566,-2.65432 -2.5337,-4.8012 -1.9495,-5.3854 2.4549,-2.45492 27.1023,13.34159 27.1023,17.36986 0,2.38362 -2.843,7.28304 -16.5306,28.48778 -6.8623,10.63115 -16.2205,25.22709 -16.9263,26.4 -0.603,1.00219 0.6521,1.33334 5.0538,1.33334 h 5.8562 l 6.1656,-8.8 c 21.837,-31.16752 46.0166,-61.8553 69.003,-87.57577 8.3114,-9.30001 15.5157,-17.61601 16.0094,-18.48001 1.9405,-3.39538 -0.5772,-2.55716 -5.9384,1.97706 -7.9144,6.69359 -14.5541,11.01798 -19.2845,12.55989 -3.5827,1.16779 -9.5888,5.57295 -23.3953,17.15919 -2.193,1.84029 -4.5638,3.15379 -5.2684,2.9189 -1.8856,-0.62853 13.7909,-16.58667 26.2102,-26.68101 15.5111,-12.60733 21.2407,-18.64317 22.8672,-24.08931 1.7636,-5.90565 0.4058,-7.90138 -5.0639,-7.44288 -3.4736,0.29118 -3.8753,0.66323 -4.3762,4.05394 l -0.5516,3.73333 -2.0905,-3.2 c -2.7861,-4.26493 -3.6245,-4.76535 -8.0063,-4.77879 -3.1988,-0.01 -4.9076,1.11935 -11.9335,7.88515 -16.4276,15.81948 -36.4579,27.66879 -52.2882,30.93212 -11.8056,2.43364 -23.4751,2.11723 -55.9122,-1.51603 -15.7664,-1.76598 -33.5862,-3.51892 -39.5995,-3.89543 l -10.9333,-0.68455 v 10.67734 10.67734 l 15.2,2.39713 c 58.6027,9.24201 66.8703,10.91928 75.4591,15.30867 4.5765,2.33886 8.7106,7.31628 7.2717,8.75513 -0.3735,0.37347 -1.8086,-0.061 -3.1891,-0.96558 -5.9458,-3.89585 -20.4787,-7.45922 -46.2084,-11.33003 -34.0392,-5.12089 -42.8162,-6.47667 -45.6704,-7.05463 -2.9116,-0.58961 -2.9933,-0.48488 -2.6666,3.41688 l 0.337,4.02515 10.1333,1.84874 c 5.5734,1.01681 19.4934,3.11388 30.9334,4.66015 35.3392,4.77656 46.9333,7.82381 46.9333,12.3353 0,2.85812 -1.8741,2.74964 -20.8826,-1.20877 -15.0831,-3.14098 -16.8399,-3.28651 -33.5174,-2.77647 -11.0649,0.33839 -20.6695,1.23421 -25.8667,2.41258 l -8.2666,1.87432 v 20.96822 20.9682 l 3.2035,2.36846 c 9.5492,7.06004 10.8406,7.63273 17.212,7.63273 3.4381,0 6.2512,-0.38602 6.2512,-0.85783 z m -23.9186,-26.60883 c 0.8478,-4.76656 3.4646,-9.34789 7.5772,-13.26548 4.8061,-4.57836 12.0747,-6.70602 12.0747,-3.53452 0,0.88 -0.3842,1.6 -0.8538,1.6 -1.9252,0 -13.2438,11.20424 -15.208,15.05435 -2.728,5.34736 -4.5283,5.4204 -3.5901,0.14565 z m 124.1689,-54.4 c -0.01,-0.44 -0.4286,-1.45063 -0.9325,-2.24585 -0.7545,-1.19066 -1.4127,-1.12046 -3.7297,0.3977 -3.6076,2.36376 -13.7446,1.76207 -16.4423,-0.97596 -1.7065,-1.73199 -1.6877,-1.93466 0.3208,-3.46415 1.1734,-0.89349 7.6534,-4.42225 14.4,-7.84169 6.7467,-3.41943 16.3033,-8.65905 21.2369,-11.6436 8.4467,-5.10969 12.8965,-6.65236 12.8965,-4.47099 0,0.52552 -2.3632,2.47192 -5.2515,4.32535 -5.7718,3.70372 -9.1856,7.68502 -12.8498,14.98585 -4.085,8.13925 -9.5784,14.36417 -9.6484,10.93334 z m -86.117,-5.63324 c -1.32,-0.53058 -2.4,-1.75262 -2.4,-2.71565 0,-1.50309 1.1276,-1.69402 7.9656,-1.3487 8.2711,0.41766 12.1635,2.1839 9.0921,4.12567 -1.9972,1.26268 -11.4623,1.22307 -14.6577,-0.0613 z m 12.68,83.23324 c 0.9674,-2.05334 2.4101,-3.73334 3.2061,-3.73334 0.796,0 1.9874,1.68 2.6476,3.73334 1.2823,3.98801 3.6549,5.01948 8.6577,3.76387 2.6688,-0.66983 2.6991,-0.79434 2.1047,-8.65331 -0.7529,-9.95512 -3.8317,-16.62956 -9.5977,-20.80641 -5.5158,-3.99563 -8.9127,-3.91515 -15.3016,0.36251 -6.8693,4.59931 -8.2797,7.78777 -8.7503,19.78218 l -0.3891,9.91551 7.8318,-0.31551 c 7.7942,-0.314 7.8403,-0.33346 9.5908,-4.04884 z m 100.4033,-6.73502 c 24.7046,-24.91771 52.2335,-49.84106 85.5834,-77.48282 27.5078,-22.79964 39.5959,-34.69478 43.6225,-42.92597 3.2727,-6.69014 3.0188,-8.33102 -1.2855,-8.30653 -3.7744,0.0214 -4.2857,0.46712 -9.1601,7.98367 -6.2599,9.65286 -23.2613,25.91078 -47.327,45.25722 -33.3759,26.83083 -51.2258,42.49957 -73.8499,64.82575 l -20.8,20.52604 6.6833,0.0288 6.6833,0.0288 9.85,-9.93502 z m 57.1311,5.31715 c 14.0319,-10.70624 49.6564,-33.78213 52.1528,-33.78213 1.5819,0 3.7413,-1.27181 5.4332,-3.2 1.5444,-1.76 3.6611,-3.2 4.7038,-3.2 3.6692,0 1.8411,-2.15616 -2.9042,-3.42533 -2.64,-0.70609 -4.7991,-1.54425 -4.7981,-1.86257 0,-0.67274 7.4429,-5.38629 12.6518,-8.01467 7.628,-3.84912 24.2462,-9.20686 33.5219,-10.8076 12.5242,-2.16131 19.6972,-4.89454 24.8674,-9.47557 3.4809,-3.08425 3.8968,-3.86569 2.557,-4.80472 -2.9633,-2.07691 -11.7736,0.52054 -41.6,12.26438 -20.589,8.10671 -27.1316,10.1343 -32.0763,9.94055 -3.3128,-0.12981 -5.686,0.86272 -11.8976,4.97584 -14.7441,9.76298 -39.5851,30.114 -58.7813,48.1566 l -8.3552,7.85309 h 9.2362 9.2362 z m 18.3189,-24.56445 c 0,-1.77953 9.2286,-7.99498 21.0593,-14.18337 9.3986,-4.91623 12.0074,-5.58728 12.0074,-3.0886 0,2.31882 -5.6084,6.11183 -18.85,12.74841 -12.6222,6.32609 -14.2167,6.83345 -14.2167,4.52356 z m 33.7511,22.57881 c 14.3412,-9.01362 27.7365,-16.02945 29.8051,-15.61045 1.6545,0.33515 -1.7598,2.51567 -24.9519,15.93534 l -9.9291,5.74528 12.2838,0.30013 12.2838,0.30013 9.3786,-4.70333 c 53.5046,-26.83223 111.4182,-36.97211 211.0818,-36.95752 62.57869,0.01 72.00959,1.02705 168.43019,18.17881 6.4533,1.14795 16.7733,2.81707 22.9333,3.70914 6.16,0.89209 11.92,1.82442 12.8,2.07186 4.8598,1.36648 40.1907,4.07558 54.4,4.17127 17.8337,0.12011 28.5743,-1.37452 35.7333,-4.97253 6.9678,-3.5019 20.9023,-14.29283 36.8,-28.49796 17.5166,-15.65166 26.4399,-22.39357 33.8667,-25.58763 7.0619,-3.0371 7.1529,-4.8621 0.5333,-10.69784 -6.8879,-6.0724 -11.6599,-8.32272 -20.2251,-9.53749 -6.8537,-0.97202 -25.7858,-5.96578 -26.921,-7.10099 -0.7701,-0.77014 1.4932,-1.97575 9.9712,-5.31139 4.1662,-1.63917 7.7749,-3.12679 8.0194,-3.30582 0.8606,-0.63028 -0.8465,-1.58793 -4.36,-2.44588 -1.953,-0.47694 -8.3511,-2.16087 -14.2178,-3.74209 -16.7263,-4.50816 -22.6475,-4.98697 -37.8667,-3.06207 -21.6549,2.73888 -33.7563,0.73379 -36.097,-5.98093 -1.2784,-3.66709 -4.8969,-4.93967 -16.703,-5.87429 -14.0466,-1.112 -23.781,-4.67677 -17.8666,-6.54282 1.0266,-0.32392 2.8266,-0.99637 4,-1.49433 1.2119,-0.51437 -19.5181,-0.92632 -48,-0.95385 -49.7272,-0.0481 -50.1118,-0.0318 -47.4667,2.00951 1.4667,1.13189 13.7067,8.17022 27.2,15.64071 67.2746,37.24614 73.1219,41.86426 73.0313,57.67804 -0.064,11.08701 -8.0373,19.05498 -22.299,22.28337 -10.9279,2.47369 -28.2632,1.47371 -75.799,-4.37243 -30.8679,-3.79625 -50.3976,-5.99499 -62.9333,-7.08528 -17.4601,-1.51859 -106.95069,-0.45078 -141.80539,1.69204 -14.3397,0.88157 -26.2442,1.43079 -26.4545,1.22049 -0.9452,-0.94528 7.483,-2.91655 16.2523,-3.8012 37.2426,-3.75709 150.83659,-4.17395 186.14099,-0.68311 30.0766,2.97394 59.966,4.07778 75.7333,2.79689 16.7479,-1.36054 18.7482,-1.76784 22.5999,-4.60167 11.207,-8.24554 2.8475,-23.6544 -22.0666,-40.67507 -9.0871,-6.20806 -31.4428,-17.16869 -63.4667,-31.11664 l -24,-10.45317 -17.0666,-0.39763 c -10.3676,-0.24155 -16.648,-0.0143 -16,0.5789 0.5866,0.5371 5.3866,2.55605 10.6666,4.48655 5.28,1.93051 14.16,5.39325 19.7334,7.69499 20.8055,8.5925 26.2814,10.89401 32,13.44963 3.2266,1.44199 9.7066,4.27144 14.4,6.28766 13.0273,5.59645 34.2363,16.91052 41.7478,22.27058 11.4601,8.17775 15.2102,15.55033 10.5368,20.71451 -4.6163,5.10079 -9.1768,5.19306 -101.7112,2.05808 -94.51419,-3.20206 -155.37459,-2.28004 -186.30679,2.82248 -41.8886,6.90988 -79.3161,18.76904 -114.6568,36.32975 -13.6001,6.75788 -32.7703,17.90557 -35.6898,20.75409 -0.6251,0.60983 1.4782,0.98869 5.4889,0.98869 6.1269,0 7.1087,-0.38117 17.0088,-6.60351 z m 38.7823,-18.88709 c 0,-0.60555 0.9284,-1.5979 2.0632,-2.20521 2.5686,-1.3747 6.4701,-1.44067 6.4701,-0.10941 0,0.90611 -0.8351,1.26875 -6.6667,2.89506 -1.0266,0.28633 -1.8666,0.0252 -1.8666,-0.58044 z m 63.7681,-21.69346 c 1.8003,-0.86731 2.7593,-0.8485 3.68,0.0722 0.9492,0.94915 0.3703,1.22803 -2.4348,1.173 -3.456,-0.0678 -3.5318,-0.1436 -1.2452,-1.2452 z m 291.34299,46.79519 c -1.6892,-1.47793 -42.4118,-10.58369 -62.3111,-13.93304 -65.852,-11.08386 -141.20649,-11.0523 -193.59999,0.0811 -11.7946,2.50631 -48.91,12.75853 -50.0445,13.82357 -0.2444,0.22951 68.5956,0.41728 152.9778,0.41728 84.38219,0 153.22219,-0.17499 152.97779,-0.38887 z m 227.8222,-0.6778 c -0.3626,-0.58667 -1.8026,-1.06667 -3.2,-1.06667 -1.3974,0 -2.8374,0.48 -3.2,1.06667 -0.3931,0.63603 0.8988,1.06667 3.2,1.06667 2.3012,0 3.5931,-0.43064 3.2,-1.06667 z m 207.8175,-4.18535 c 25.6531,-9.58996 43.6685,-12.88132 70.506,-12.88132 17.3856,0 23.0099,0.83602 23.0099,3.42034 0,0.7369 -3.1452,4.34878 -6.9893,8.0264 l -6.9892,6.6866 111.7892,-0.004 c 92.8446,-0.003 113.4162,-0.26796 121.3893,-1.56015 16.3504,-2.6499 43.5606,-4.06877 64.5333,-3.36507 l 19.7333,0.66212 13.8667,-13.23712 c 9.8322,-9.3858 13.4012,-13.41707 12.2667,-13.8556 -2.8978,-1.12012 -44.8315,-11.04724 -72.5334,-17.1711 -78.869,-17.43505 -90.9443,-22.10011 -105.1609,-40.62703 -10.0334,-13.07528 -26.7706,-25.35576 -61.7724,-45.32396 l -6.4,-3.65114 -30.6667,-0.32674 c -16.8666,-0.17971 -30.6666,0.0777 -30.6666,0.57183 0,1.53346 20.3385,9.03481 22.8127,8.41385 1.2634,-0.31712 4.5888,-2.09446 7.3896,-3.94964 6.7325,-4.45943 8.5901,-4.0907 28.7818,5.7131 27.6719,13.43563 39.688,21.82537 65.2825,45.58072 16.7077,15.507 25.2438,20.27695 49.8667,27.86518 6.3067,1.94359 11.4667,3.8857 11.4667,4.31582 0,0.43012 -2.28,0.56703 -5.0667,0.30425 -22.1061,-2.08463 -27.806,-2.86102 -34.1285,-4.6487 -20.3569,-5.75587 -29.8782,-12.99059 -46.4651,-35.30633 -10.6815,-14.37069 -24.67,-24.46902 -42.6839,-30.81354 -10.0767,-3.54902 -20.1542,-5.56176 -22.033,-4.40056 -1.3124,0.81108 -0.2126,2.35969 11.7516,16.54743 10.9989,13.04307 13.8256,16.94697 13.8256,19.0945 0,2.4395 -1.3164,1.47918 -13.9917,-10.20716 -17.2378,-15.89269 -25.5985,-21.74161 -46.5262,-32.54808 l -13.0512,-6.73928 h -35.7488 c -19.6619,0 -35.7441,0.36 -35.7383,0.8 0.011,0.44 5.615,3.43425 12.4648,6.65389 27.3719,12.86575 42.9765,27.05826 42.9874,39.09742 0,3.72223 -0.7355,5.24033 -4.6912,9.64004 -8.5822,9.54556 -13.9313,11.40094 -48.6382,16.8706 -26.5473,4.18377 -57.6542,11.12829 -94.9333,21.19366 -24.4848,6.61089 -65.0755,23.04344 -71.6969,29.02544 -3.7123,3.35386 -4.5982,3.65228 -10.8422,3.65228 -7.3778,0 -9.8865,1.50404 -8.8866,5.32765 0.4126,1.57812 0.036,2.13902 -1.4366,2.13902 -1.0978,0 -2.5098,0.96 -3.1377,2.13333 -1.1366,2.12356 -0.8112,2.13334 70.9799,2.13334 h 72.1217 z m 219.5374,-27.87241 c -10.808,-2.43917 -22.4004,-7.61759 -26.4013,-11.79363 -3.8027,-3.96924 -2.641,-3.88123 7.6586,0.58024 11.0405,4.78236 25.5381,8.95478 36.1878,10.41486 4.6934,0.64347 9.2534,1.56477 10.1334,2.04734 3.1835,1.7458 -18.7003,0.75486 -27.5785,-1.24881 z m 150.7785,1.12443 c -0.3931,-0.63604 0.8987,-1.06667 3.2,-1.06667 2.3012,0 3.593,0.43063 3.2,1.06667 -0.3626,0.58666 -1.8026,1.06666 -3.2,1.06666 -1.3975,0 -2.8375,-0.48 -3.2,-1.06666 z m -142.1504,-11.8517 c -7.2217,-1.20296 -19.7721,-7.17483 -25.6198,-12.19078 -5.7003,-4.88953 -7.4922,-8.39542 -13.5339,-26.47921 -6.4574,-19.32797 -6.3802,-23.97166 0.3409,-20.49605 5.6188,2.90564 15.5617,15.02841 21.5738,26.30398 7.5947,14.24348 16.6036,24.10588 26.5774,29.09564 4.0355,2.01885 7.0491,3.95882 6.6968,4.31104 -0.8746,0.87462 -9.2157,0.59132 -16.0352,-0.54462 z M 565.29401,298.67817 c 1.5031,-2.80851 -0.3168,-5.26515 -3.9004,-5.26515 -2.0736,0 -2.5361,0.55114 -2.5361,3.02222 0,1.66223 0.32,3.34223 0.7111,3.73333 1.4549,1.45485 4.5853,0.63995 5.7254,-1.4904 z m 172.7184,-18.02485 c 4.8843,-4.36075 35.6539,-19.69659 42.7623,-21.31315 3.1989,-0.72748 13.4962,-5.06422 22.8828,-9.63719 16.4343,-8.00642 22.9334,-11.94535 22.9334,-13.89942 0,-1.42068 -12.9375,2.48817 -32.1567,9.7156 -9.5939,3.60779 -20.0833,7.38044 -23.31,8.38367 -6.5123,2.02481 -16.5749,7.85307 -29.0375,16.81849 -9.8241,7.06732 -11.963,9.26903 -11.1254,11.45197 0.9445,2.46122 3.1162,1.99307 7.0511,-1.51997 z m 714.89309,-13.36333 c 10.9984,-2.41745 17.9555,-4.14613 35.0187,-8.70142 3.2267,-0.86141 8.2667,-2.20504 11.2,-2.98585 5.5675,-1.48199 16.9674,-4.76879 24.9047,-7.18048 5.897,-1.79179 6.2919,-3.62863 0.6953,-3.23466 -23.0727,1.62421 -86.9486,17.13071 -93.6646,22.73803 -2.317,1.93442 -2.2878,1.95004 3.7126,1.98526 3.3264,0.0195 11.4864,-1.15988 18.1333,-2.62088 z M 719.70301,248.55132 c 4.865,-1.66857 11.345,-4.44432 14.4,-6.16832 3.055,-1.724 8.2695,-3.90783 11.5878,-4.85296 3.4494,-0.98248 7.9604,-3.32854 10.5332,-5.47802 8.5425,-7.13709 31.2165,-18.94749 42.6335,-22.20693 4.0762,-1.16369 9.0584,-4.08672 16.3244,-9.57728 16.1123,-12.17529 30.2575,-18.41179 35.4533,-15.63107 1.3581,0.72684 3.688,1.00675 5.2068,0.62555 2.2385,-0.56183 2.7525,-1.32978 2.7682,-4.13626 0.011,-1.89549 1.4506,-6.04304 3.2,-9.21677 1.7494,-3.17372 3.1807,-5.93372 3.1807,-6.13333 0,-0.1996 -3.0832,-0.36291 -6.8515,-0.36291 -5.7545,0 -7.3596,0.42753 -10.025,2.6703 -1.7454,1.46866 -5.2622,3.60995 -7.8152,4.75842 -5.0637,2.27799 -6.4718,1.2542 -4.1758,-3.03603 2.1051,-3.93342 1.3911,-4.39269 -6.8293,-4.39269 h -7.9635 l -8.3032,7.29264 c -23.9173,21.00646 -44.4011,36.48928 -65.9032,49.81351 -6.4533,3.99895 -14.5355,9.40649 -17.9604,12.01676 -3.4248,2.61027 -8.2248,5.19473 -10.6666,5.74322 -4.7936,1.07678 -8.5868,4.02312 -10.8985,8.4653 -1.61,3.09393 -0.9398,4.56618 1.6031,3.52111 0.9107,-0.37426 5.6362,-2.04566 10.5012,-3.71424 z m 1301.87989,2.42493 c 2.0296,-2.24269 2.6872,-1.7214 -13.008,-10.31135 -35.3128,-19.32663 -44.9593,-24.74941 -49.7031,-27.94047 -5.1691,-3.47722 -9.0809,-4.59486 -9.0809,-2.59453 0,3.65887 27.0277,21.38597 57.6,37.77896 10.1588,5.44724 11.7308,5.78698 14.192,3.06739 z M 877.25751,234.82487 c 6.4534,-0.60944 22.7734,-1.60363 36.2667,-2.20929 13.4933,-0.60566 30.4395,-1.57402 37.6581,-2.15188 7.2186,-0.57788 13.6986,-1.08789 14.4,-1.13335 0.7014,-0.0454 -1.1248,-0.92662 -4.0581,-1.95812 -2.9333,-1.0315 -5.4618,-2.55429 -5.6188,-3.384 -0.1717,-0.90719 1.9543,-2.57156 5.3333,-4.17521 3.0904,-1.46667 5.6188,-3.36831 5.6188,-4.22588 0,-0.85757 -1.92,-2.83655 -4.2666,-4.39775 -11.8455,-7.88056 -46.658,-15.11348 -73.6,-15.2917 -10.7572,-0.0711 -14.2036,0.34091 -21.5947,2.582 -4.8371,1.46666 -8.7971,2.98357 -8.8,3.37091 0,0.38734 4.1947,1.00798 9.328,1.3792 12.9555,0.93688 28.9972,3.60853 32.6972,5.44551 4.28,2.12492 5.0924,1.99482 11.1823,-1.79086 4.6553,-2.89393 5.9689,-3.23641 10.0601,-2.6229 2.5882,0.38811 5.6041,1.36261 6.7022,2.16556 1.9449,1.42217 1.9418,1.52075 -0.1226,3.81417 -2.7303,3.03318 -10.0414,6.24466 -24.0028,10.54346 -20.6347,6.35357 -33.554,10.57574 -37.5101,12.2587 -4.2317,1.80016 -6.872,4.49525 -3.4065,3.47716 1.1001,-0.3232 7.2802,-1.08628 13.7335,-1.69573 z m 236.47029,-1.31284 c 5.4197,-3.81634 4.9048,-8.13978 -1.5513,-13.02424 -4.1425,-3.13414 -23.8933,-13.43195 -38.6523,-20.15284 -5.8667,-2.67153 -14.7467,-6.74701 -19.7333,-9.05661 -23.9643,-11.09918 -28.2423,-12.42988 -45.3334,-14.10107 -37.96249,-3.71206 -71.60159,-2.12725 -83.63959,3.94044 -8.6204,4.34508 -8.5631,6.13527 0.1678,5.24076 28.8369,-2.95443 69.5349,-3.76476 84.50529,-1.68256 4.4667,0.62125 11.5814,2.58273 15.8106,4.35884 4.2291,1.7761 14.8893,5.84904 23.6893,9.05096 19.7872,7.19967 28.0344,11.04438 36.2889,16.91714 8.8393,6.28878 13.1682,10.96409 13.9347,15.04959 0.467,2.4895 1.5931,3.92394 4.0128,5.11162 3.685,1.80875 6.1326,1.42367 10.5005,-1.65203 z m 929.9618,-3.60425 c 1.3123,-1.58126 0.479,-2.98087 -5.3654,-9.01112 -0.2933,-0.30267 -5.7864,-6.31031 -12.2068,-13.35031 -28.759,-31.53416 -36.9065,-38.32284 -25.5219,-21.26518 8.8667,13.28483 37.3879,45.26518 40.3692,45.26518 0.7507,0 1.9769,-0.73735 2.7249,-1.63857 z M 835.61661,216.2415 c 1.0818,-0.791 1.647,-1.95564 1.2562,-2.58808 -0.8944,-1.44712 -6.8375,0.1247 -9.1266,2.41378 -1.4389,1.43888 -1.2079,1.61249 2.1456,1.61249 2.0669,0 4.6431,-0.64718 5.7248,-1.43819 z m 1229.47629,-6.10111 c 4.0015,-2.84929 3.9069,-4.5352 -0.4405,-7.85116 -4.2758,-3.26127 -8.0336,-3.87933 -9.538,-1.56875 -0.8571,1.31642 -0.3303,2.84318 2.3003,6.66666 1.8766,2.72756 3.6749,4.95921 3.9962,4.95921 0.3211,0 1.9781,-0.99268 3.682,-2.20596 z M 129.68112,201.18327 c 2.63755,-1.84741 6.10225,-8.67218 5.16909,-10.18206 -2.05334,-3.32238 -9.05937,3.34927 -9.05937,8.62699 0,3.51891 0.69173,3.79541 3.89028,1.55507 z m 641.84099,-3.10926 c 6.2608,-4.47599 33.8867,-29.79047 34.6243,-31.72736 0.7825,-2.05469 -2.8086,-0.76102 -5.2363,1.88632 -4.561,4.97378 -28.5609,25.67645 -33.4028,28.81377 -2.5744,1.66811 -5.5738,3.60472 -6.6653,4.30355 -1.7984,1.15148 -1.6971,1.27649 1.0801,1.33333 1.9836,0.0406 5.3697,-1.58531 9.6,-4.60961 z m -165.2639,-9.33613 c 3.8143,-2.6571 8.5739,-8.23918 7.7379,-9.07512 -1.7638,-1.76385 -12.4719,6.71191 -12.4719,9.87191 0,2.01809 0.914,1.86425 4.734,-0.79679 z m 1435.26599,-4.14869 c 0,-2.4884 -8.0868,-11.7095 -10.2692,-11.7095 -3.498,0 -0.3517,8.58739 4.4881,12.2494 3.0089,2.27659 5.7811,2.01769 5.7811,-0.5399 z M 900.97851,177.19741 c 26.4173,-8.84598 29.079,-9.85284 29.079,-10.99991 0,-1.20349 -6.3489,-0.0155 -16.3217,3.05412 -4.5769,1.40877 -9.0169,2.5614 -9.8667,2.5614 -1.751,0 -2.1008,-2.73055 -0.4782,-3.73333 0.5866,-0.36259 1.0666,-1.17035 1.0666,-1.79504 0,-2.24168 -10.9648,-0.32574 -15.3488,2.68198 -2.2819,1.56551 -5.0788,2.84639 -6.2154,2.84639 -4.5796,0 -10.4044,9.27577 -7.5913,12.08888 1.3029,1.30288 3.3946,0.75669 25.6765,-6.70449 z m -342.7503,-5.80889 c 4.2743,-1.78591 5.7136,-3.7359 3.6993,-5.01176 -1.9367,-1.22672 -30.901,-1.20685 -32.8431,0.0225 -1.0731,0.67933 0.6143,1.57406 5.8667,3.11071 12.542,3.66933 17.9471,4.10553 23.2771,1.87852 z M 188.64519,132.97486 c 2.28973,-2.75896 2.63273,-8.89467 0.6651,-11.89766 -1.72713,-2.63594 -1.92149,-2.68497 -3.82261,-0.96448 -2.55683,2.3139 -3.90881,10.58366 -2.08879,12.77665 1.65841,1.99827 3.63214,2.03043 5.2463,0.0854 z M 207.3931,98.659078 c 2.3479,-4.05867 5.38551,-9.7794 6.75023,-12.71273 l 2.4813,-5.33333 -7.03753,6.92296 c -6.86171,6.75003 -9.10933,10.91318 -9.12363,16.899262 -0.01,4.10017 2.358,2.12649 6.92963,-5.776162 z m 49.4717,-40.87893 c 1.77302,-1.12293 0.84294,-7.777627 -1.34026,-9.589521 -1.74589,-1.448955 -4.42633,1.188484 -5.47365,5.385834 -0.97677,3.914617 3.20094,6.491967 6.81391,4.203687 z"
       id="path1476" />
  </g>
</svg>
