<?xml version="1.0" encoding="UTF-8" standalone="no"?>
<svg
   xmlns:dc="http://purl.org/dc/elements/1.1/"
   xmlns:cc="http://creativecommons.org/ns#"
   xmlns:rdf="http://www.w3.org/1999/02/22-rdf-syntax-ns#"
   xmlns:svg="http://www.w3.org/2000/svg"
   xmlns="http://www.w3.org/2000/svg"
   xmlns:sodipodi="http://sodipodi.sourceforge.net/DTD/sodipodi-0.dtd"
   xmlns:inkscape="http://www.inkscape.org/namespaces/inkscape"
   version="1.1"
   id="svg833"
   width="960"
   height="835.48236"
   viewBox="0 0 960 835.48236"
   sodipodi:docname="imposs_triange.svg"
   inkscape:version="1.0.2 (e86c870879, 2021-01-15, custom)">
  <metadata
     id="metadata839">
    <rdf:RDF>
      <cc:Work
         rdf:about="">
        <dc:format>image/svg+xml</dc:format>
        <dc:type
           rdf:resource="http://purl.org/dc/dcmitype/StillImage" />
        <dc:title></dc:title>
      </cc:Work>
    </rdf:RDF>
  </metadata>
  <defs
     id="defs837" />
  <sodipodi:namedview
     pagecolor="#ffffff"
     bordercolor="#666666"
     borderopacity="1"
     objecttolerance="10"
     gridtolerance="10"
     guidetolerance="10"
     inkscape:pageopacity="0"
     inkscape:pageshadow="2"
     inkscape:window-width="1431"
     inkscape:window-height="1030"
     id="namedview835"
     showgrid="false"
     inkscape:zoom="0.4793422"
     inkscape:cx="540.07305"
     inkscape:cy="441.72494"
     inkscape:window-x="160"
     inkscape:window-y="0"
     inkscape:window-maximized="0"
     inkscape:current-layer="g841" />
  <g
     inkscape:groupmode="layer"
     inkscape:label="Image"
     id="g841"
     transform="translate(-6.2585725,-2.1238352)">
    <g
       id="g845"
       transform="translate(6.2585725,2.0861923)">
      <path
         style="fill:#73ceef;stroke-width:0.32"
         d="m 71.68,835.03317 c 0,-0.26777 -0.337107,-1.02377 -0.749126,-1.68 -0.67578,-1.07632 -1.917623,-3.27193 -9.181562,-16.23315 -3.730285,-6.65603 -7.676285,-13.64461 -9.576218,-16.96 -1.008595,-1.76 -2.961673,-5.216 -4.340176,-7.68 -1.378505,-2.464 -3.608515,-6.424 -4.955584,-8.8 -1.347065,-2.376 -3.57455,-6.336 -4.949964,-8.8 -1.375415,-2.464 -3.323389,-5.92 -4.328832,-7.68 -1.005444,-1.76 -3.163938,-5.576 -4.796656,-8.48 C 17.848349,739.23775 11.913513,728.70792 9.469424,724.41967 1.8289613,711.01413 2.2374281,711.65887 1.6010364,711.99947 0.05155996,712.82872 0,712.67416 0,707.20002 c 0,-3.0498 0.12393436,-5.12 0.30651077,-5.12 0.16858091,0 0.65227425,-0.612 1.07487403,-1.36 1.0361907,-1.83405 5.2231048,-9.15092 8.9267672,-15.6 1.667744,-2.904 4.298662,-7.512 5.846486,-10.24 1.547823,-2.728 3.858437,-6.76 5.134698,-8.96 1.276261,-2.2 3.869484,-6.736 5.762716,-10.08 1.893233,-3.344 4.44012,-7.808 5.65975,-9.92 1.219628,-2.112 2.827689,-4.92 3.573472,-6.24 1.629414,-2.884 6.649206,-11.6562 13.642176,-23.84001 1.616262,-2.816 4.457417,-7.784 6.31368,-11.04 1.856265,-3.256 4.343302,-7.576 5.526752,-9.6 1.183449,-2.024 2.4039,-4.184 2.712118,-4.8 0.308218,-0.616 1.533104,-2.776 2.721974,-4.8 1.188871,-2.024 3.709482,-6.416 5.601357,-9.76 1.891879,-3.344 4.485287,-7.88 5.76313,-10.08 1.277843,-2.2 3.871251,-6.736 5.763129,-10.08 1.891882,-3.344 4.40368,-7.736 5.581783,-9.76 2.078333,-3.57062 4.591238,-7.96214 8.331469,-14.56 3.373968,-5.95177 7.462068,-13.10083 9.735168,-17.02438 1.2441,-2.14739 3.68369,-6.39539 5.42132,-9.44 1.73763,-3.04458 4.26999,-7.47962 5.62746,-9.85562 1.35748,-2.376 3.08298,-5.4 3.83445,-6.72 0.75148,-1.32 2.23281,-3.912 3.29185,-5.76 1.05905,-1.848 3.03767,-5.304 4.39693,-7.68 5.95209,-10.40429 9.2199,-16.10797 11.36693,-19.84 1.26565,-2.2 3.85493,-6.736 5.75396,-10.08 1.89903,-3.344 4.49434,-7.88 5.76737,-10.08 1.27303,-2.2 3.86489,-6.736 5.75971,-10.08 1.89482,-3.344 4.49112,-7.88 5.76956,-10.08 2.50839,-4.31654 11.49739,-20.03459 14.7319,-25.76 1.09372,-1.936 2.76077,-4.8472 3.70457,-6.46938 0.94379,-1.62214 2.76404,-4.79014 4.045,-7.04 4.74319,-8.33081 6.37725,-11.19597 7.8993,-13.85062 3.01603,-5.26035 7.63664,-13.32675 10.17333,-17.76 3.03892,-5.31098 6.51651,-11.37837 10.17936,-17.76 1.46477,-2.552 3.25513,-5.72 3.97858,-7.04 0.72346,-1.32 2.40491,-4.272 3.73656,-6.56 1.33166,-2.288 3.57253,-6.176 4.97972,-8.64 1.40719,-2.464 4.00153,-7 5.76521,-10.08 4.80403,-8.38951 7.79249,-13.61561 11.4367,-20 3.51361,-6.15562 6.31245,-11.05019 11.43652,-20 1.76341,-3.08 4.35923,-7.616 5.76849,-10.08 3.10677,-5.43199 6.61269,-11.5487 10.17952,-17.76 1.46548,-2.552 3.48129,-6.08 4.47957,-7.84 0.99828,-1.76 2.7953,-4.928 3.99337,-7.04 1.19807,-2.112 3.14356,-5.49601 4.32331,-7.52001 1.17975,-2.024 3.6929,-6.416 5.58477,-9.76 1.89188,-3.344 4.48529,-7.88 5.76313,-10.08 1.27784,-2.2 3.86984,-6.736 5.76,-10.08 1.89016,-3.344 4.48286,-7.88 5.76157,-10.08 2.66249,-4.5808 10.30509,-17.94099 13.91207,-24.32 1.34348,-2.376 3.27753,-5.76 4.29792,-7.52 1.02035,-1.76 3.41536,-5.936 5.32224,-9.28 1.90688,-3.344 4.41993,-7.736 5.58454,-9.76 2.95014,-5.12706 6.00333,-10.47064 8.13638,-14.239998 0.99597,-1.76 2.68141,-4.712 3.74548,-6.56 1.06403,-1.848 3.41836,-5.952 5.23187,-9.12 1.81347,-3.168 4.33277,-7.56 5.59843,-9.76 1.26563,-2.2 3.85491,-6.736 5.75395,-10.08 1.89904,-3.344001 4.49434,-7.880001 5.76736,-10.080001 1.27303,-2.2 3.8649,-6.736 5.75971,-10.08 1.89482,-3.344 4.49063,-7.88 5.76848,-10.08 1.27783,-2.2 3.87127,-6.736 5.76314,-10.08 C 391.18147,19.216 393.69328,14.824 394.87136,12.8 c 1.17811,-2.024 3.11174,-5.4079998 4.29699,-7.5199999 1.18525,-2.112 2.53299,-4.1555304 2.99498,-4.54117864 l 0.83997,-0.70117856 5.08924,8.5411787 c 2.79908,4.6976484 5.78298,9.7127134 6.63092,11.1445894 0.84796,1.431876 1.42192,2.727876 1.27548,2.88 -0.34278,0.356122 -7.08812,11.560107 -10.08828,16.75659 -1.27015,2.2 -3.22765,5.547238 -4.35002,7.438311 -1.97622,3.32975 -3.27578,5.590112 -10.44182,18.16169 -1.856,3.256 -4.12992,7.216 -5.05319,8.8 -0.92326,1.584 -2.31757,4.032 -3.09846,5.44 -1.36135,2.454592 -9.83792,17.316864 -13.68819,23.999998 -3.85709,6.695 -7.2072,12.57305 -8.57188,15.04 -0.77884,1.408 -2.09776,3.712 -2.93088,5.12 -0.83312,1.408 -3.22137,5.584 -5.3072,9.28 -2.08585,3.696 -4.8087,8.47545 -6.05075,10.62099 -1.24205,2.14554 -3.69827,6.43716 -5.45827,9.53692 -1.76,3.09977 -4.352,7.64067 -5.76,10.0909 -1.408,2.45023 -4.05786,7.08662 -5.88854,10.30308 -1.83072,3.21646 -4.44288,7.79211 -5.80484,10.16811 -7.69523,13.42478 -11.77495,20.58811 -12.93967,22.72 -0.72116,1.32 -2.11781,3.76801 -3.10366,5.44001 -2.28053,3.86776 -6.71276,11.6049 -8.43237,14.72 -1.19014,2.15594 -8.88135,15.63538 -14.42446,25.28 -1.16326,2.024 -3.34273,5.84 -4.84325,8.48 -1.50052,2.64 -4.13125,7.248 -5.84608,10.24 -1.71483,2.992 -4.3797,7.672 -5.92193,10.4 -1.54223,2.728 -3.84877,6.76 -5.12563,8.96 -3.7916,6.53283 -12.63019,22.0306 -14.23503,24.96 -0.81957,1.496 -2.13621,3.8 -2.92587,5.12 -0.78966,1.32 -3.06274,5.28 -5.05128,8.8 -1.98855,3.52 -4.36685,7.696 -5.28512,9.28 -0.91827,1.584 -2.14917,3.744 -2.73533,4.8 -0.58616,1.056 -2.26526,3.97869 -3.73134,6.49481 -1.46608,2.51616 -2.6656,4.63837 -2.6656,4.71604 0,0.0777 -0.91019,1.69097 -2.02263,3.58515 -2.72909,4.64688 -7.48105,12.95894 -8.6463,15.124 -0.52099,0.968 -1.83782,3.272 -2.92629,5.12 -1.08847,1.848 -3.60442,6.24 -5.59098,9.76 -1.98657,3.52 -4.41691,7.768 -5.40075,9.44 -0.98384,1.672 -2.37946,4.12 -3.10138,5.44 -0.72191,1.32 -3.66393,6.504 -6.53782,11.52 -2.87388,5.016 -6.37836,11.136 -7.78773,13.6 -1.40936,2.464 -3.677,6.424 -5.0392,8.8 -1.3622,2.376 -3.34132,5.832 -4.39804,7.68 -1.91008,3.34035 -2.32439,4.0673 -7.20396,12.64 -1.4025,2.464 -3.66589,6.424 -5.02976,8.8 -1.36386,2.376 -4.10897,7.2 -6.10024,10.72 -1.99128,3.52 -4.63624,8.15546 -5.87771,10.30099 -1.24147,2.14554 -3.69721,6.43853 -5.45721,9.54 -1.76,3.10148 -3.68131,6.45802 -4.26957,7.45901 -0.58826,1.00099 -2.04086,3.548 -3.22799,5.66 -1.18714,2.112 -4.17885,7.368 -6.64825,11.68 -2.4694,4.312 -6.83979,11.944 -9.71199,16.96 -2.87219,5.016 -5.64881,9.912 -6.17027,10.88 -0.52146,0.968 -1.83944,3.272 -2.92885,5.12 -1.0894,1.848 -3.68543,6.384 -5.76896,10.08 -2.08353,3.696 -4.67553,8.232 -5.76,10.08 -1.084472,1.848 -3.678568,6.384 -5.764664,10.08 -2.086093,3.696 -4.80912,8.47764 -6.051174,10.62586 -1.242055,2.14822 -3.756132,6.54022 -5.586839,9.76 -1.830704,3.21978 -4.441606,7.79814 -5.802006,10.17414 -1.360397,2.376 -3.735853,6.552 -5.278794,9.28 -1.542941,2.728 -3.608377,6.32801 -4.589862,8.00001 -0.981485,1.672 -2.374858,4.12 -3.096384,5.44 -0.721523,1.32 -3.308736,5.856 -5.74936,10.08 -2.440621,4.224 -5.03408,8.76 -5.763242,10.08 -0.729158,1.32 -3.79727,6.72 -6.818022,12 -5.267309,9.20678 -6.799955,11.87926 -12.112099,21.12 -1.315287,2.288 -2.90289,5.096 -3.528011,6.24 -0.625121,1.144 -1.923141,3.40441 -2.884489,5.02313 l -1.747906,2.94314 3.430479,5.53686 c 12.981834,20.95293 19.718992,31.79133 23.830224,38.33687 5.270394,8.39104 16.753363,26.88496 27.518522,44.32 3.912121,6.336 7.298205,11.71664 7.524627,11.95696 0.478438,0.50784 0.32567,0.71872 3.389914,-4.67962 2.396883,-4.22265 1.975548,-3.4904 12.749256,-22.15734 4.62185,-8.008 9.50415,-16.47319 10.84954,-18.81152 4.18232,-7.26903 4.71689,-8.19552 5.39392,-9.34848 0.36173,-0.616 1.68781,-2.92 2.94685,-5.12 1.25905,-2.2 2.41695,-4.216 2.57312,-4.48 0.55171,-0.93271 11.03087,-19.07946 12.63028,-21.87184 0.8921,-1.55751 1.93682,-3.35751 2.3216,-4 0.38477,-0.6425 1.1394,-1.96016 1.67696,-2.92816 1.27841,-2.30212 2.52871,-4.46509 3.09212,-5.34922 0.24857,-0.39008 1.24868,-2.11808 2.22247,-3.84 0.97379,-1.72192 1.90138,-3.34678 2.06131,-3.61078 0.15993,-0.264 1.29007,-2.208 2.51143,-4.32 4.40224,-7.61245 11.68654,-20.19997 12.77752,-22.08 0.61279,-1.056 1.62194,-2.856 2.24255,-4 0.62061,-1.144 1.60847,-2.83389 2.19524,-3.75533 0.58677,-0.92141 1.50312,-2.50541 2.03632,-3.52 0.96917,-1.84413 1.14296,-2.14621 2.4418,-4.24467 0.38127,-0.616 1.05089,-1.768 1.48806,-2.56 0.95711,-1.73399 7.81569,-13.59853 11.83895,-20.48 1.59493,-2.728 3.39835,-5.896 4.00761,-7.04001 0.60926,-1.144 1.29141,-2.296 1.51588,-2.56 0.22448,-0.264 1.14894,-1.848 2.05437,-3.52 0.90542,-1.672 1.7727,-3.256 1.92727,-3.52 0.15457,-0.264 0.74595,-1.272 1.31417,-2.24 1.11509,-1.89961 1.83562,-3.15785 2.88617,-5.04 0.36839,-0.66 1.67552,-2.928 2.90473,-5.04 1.22922,-2.112 2.35978,-4.056 2.51237,-4.32 2.74979,-4.7576 10.35145,-17.88419 10.56286,-18.24 1.79651,-3.02368 2.87024,-4.88544 2.87024,-4.97676 0,-0.14701 7.02301,-12.3696 7.34514,-12.78324 0.26923,-0.34569 1.70646,-2.8696 2.605,-4.57465 0.30569,-0.58003 0.69122,-1.22803 0.85675,-1.44 0.16552,-0.21194 0.73091,-1.17735 1.25641,-2.14535 0.52551,-0.968 1.42138,-2.552 1.99083,-3.52 0.56945,-0.968 1.15877,-1.976 1.3096,-2.24 4.01543,-7.02848 14.96196,-25.98918 17.36597,-30.08 0.362,-0.616 1.15584,-2.056 1.76409,-3.2 0.60824,-1.144 1.30397,-2.30733 1.54605,-2.58518 0.24209,-0.27786 0.44016,-0.59357 0.44016,-0.70154 0,-0.10797 0.58909,-1.17664 1.3091,-2.37478 0.72,-1.19818 1.43231,-2.3945 1.5829,-2.6585 0.1506,-0.264 0.97664,-1.704 1.83567,-3.2 0.85902,-1.496 1.66558,-2.936 1.79236,-3.2 0.12678,-0.264 0.54763,-1.00208 0.93524,-1.64019 0.3876,-0.63814 1.75453,-3.01414 3.03762,-5.28 1.28309,-2.26589 2.46562,-4.33581 2.62785,-4.59981 1.08318,-1.76269 4.47926,-7.68633 4.47926,-7.81299 0,-0.0852 0.41598,-0.77414 0.9244,-1.53098 0.98494,-1.46614 1.68617,-2.67068 3.52462,-6.05446 1.02786,-1.89181 2.15841,-3.82582 4.42869,-7.576 0.39473,-0.65206 0.94059,-1.61757 1.213,-2.14557 0.27242,-0.528 0.84437,-1.536 1.27101,-2.24 0.42665,-0.704 0.99895,-1.712 1.27177,-2.24 0.50932,-0.98566 0.76506,-1.42323 1.96383,-3.36 0.7267,-1.17408 2.05919,-3.5424 3.06072,-5.44 0.63968,-1.212 0.85598,-1.57546 2.38032,-4 0.55327,-0.88 1.49098,-2.4968 2.08379,-3.59286 1.13332,-2.09546 1.42614,-2.60599 3.88445,-6.77271 0.83964,-1.42313 1.67106,-2.91309 1.8476,-3.31097 0.17655,-0.39789 0.64158,-1.25191 1.0334,-1.89776 2.91692,-4.80826 4.51444,-7.53287 5.31547,-9.0657 0.3679,-0.704 0.98378,-1.784 1.36862,-2.4 0.38484,-0.616 1.12301,-1.912 1.64036,-2.88 0.51736,-0.968 1.14029,-1.98733 1.3843,-2.26518 0.24401,-0.27786 0.44365,-0.58442 0.44365,-0.68125 0,-0.2465 5.11481,-9.27651 5.55755,-9.81165 0.42304,-0.51133 2.61525,-4.36144 3.06255,-5.37869 0.16851,-0.38323 1.02617,-1.84525 1.90588,-3.24893 0.87972,-1.40371 1.82429,-3.03417 2.09904,-3.62323 0.27476,-0.58909 0.85165,-1.64707 1.28202,-2.35107 0.43034,-0.704 0.8832,-1.496 1.00634,-1.76 0.12313,-0.264 0.40201,-0.696 0.61968,-0.96 0.21766,-0.264 1.15001,-1.92 2.0719,-3.68 0.92186,-1.76 2.12758,-3.92 2.67936,-4.8 0.55181,-0.88 1.18445,-1.888 1.40592,-2.24 0.22144,-0.352 0.62563,-1.072 0.89818,-1.6 0.27257,-0.528 0.84464,-1.536 1.27129,-2.24 0.42663,-0.704 1.00263,-1.712 1.28,-2.24 0.27735,-0.528 0.85152,-1.536 1.27594,-2.24 0.42441,-0.704 0.9512,-1.64 1.17069,-2.08 0.21945,-0.44 0.87497,-1.48919 1.45673,-2.33155 0.58176,-0.84234 1.73421,-2.85834 2.56096,-4.48 0.82675,-1.62164 1.59395,-3.02045 1.70493,-3.10845 0.11094,-0.088 0.44221,-0.592 0.73613,-1.12 0.29389,-0.528 0.81648,-1.392 1.16125,-1.92 0.34476,-0.528 0.78524,-1.32 0.97884,-1.76 0.73261,-1.66515 2.04823,-4.05178 2.99876,-5.44 0.54227,-0.792 1.39651,-2.232 1.89827,-3.2 0.98822,-1.9065 1.30502,-2.46195 4.19779,-7.36 3.0087,-5.09437 3.25091,-5.51616 3.99126,-6.95098 0.3834,-0.74301 1.01156,-1.82301 1.39591,-2.4 0.38435,-0.57696 0.88032,-1.40902 1.10217,-1.84902 0.22183,-0.44 0.7506,-1.376 1.17501,-2.08 0.42442,-0.704 0.99859,-1.712 1.27594,-2.24 0.27737,-0.528 0.85337,-1.536 1.28,-2.24 0.42665,-0.704 0.99872,-1.712 1.27129,-2.24 0.27255,-0.528 0.67844,-1.23747 0.90199,-1.5766 0.22355,-0.33913 1.13113,-1.70713 2.01686,-3.04 0.88576,-1.33287 2.01786,-3.2154 2.51581,-4.1834 0.49795,-0.968 1.08458,-1.976 1.30362,-2.24 0.21904,-0.264 1.62627,-2.64 3.12716,-5.28 1.50093,-2.64 4.44912,-7.752 6.55156,-11.36 2.1024,-3.608 5.12246,-8.792 6.71123,-11.52 1.58877,-2.728 4.27862,-7.696 5.9775,-11.04 3.28784,-6.47165 4.33501,-7.84 5.99975,-7.84 1.36745,0 2.65065,1.3805 4.90774,5.28 1.79005,3.09259 9.23648,15.62569 20.34336,34.24 2.94048,4.928 6.35197,10.688 7.58109,12.8 1.22915,2.112 4.17878,7.08 6.55472,11.04 4.19181,6.98649 9.10313,15.23293 25.1568,42.24 4.23705,7.128 10.02361,16.848 12.85904,21.6 9.65504,16.18141 18.30486,30.71536 19.5208,32.8 0.66726,1.144 3.57862,6.04 6.46973,10.88 2.8911,4.84 7.99622,13.408 11.34476,19.04 3.34852,5.632 9.04845,15.208 12.6665,21.28 3.61805,6.072 7.38128,12.408 8.36275,14.08 0.98147,1.672 3.8105,6.424 6.28672,10.56 2.47623,4.136 7.53975,12.632 11.25223,18.88 6.07145,10.21805 18.38985,30.93319 23.88147,40.16 1.15225,1.936 3.84064,6.4 5.97414,9.92 5.16317,8.51847 8.48109,14.20176 8.48109,14.52733 0,0.5384 -3.26662,0.67242 -16.12467,0.66151 l -13.15533,-0.0112 -5.28,-8.52231 c -2.904,-4.68729 -5.80538,-9.32627 -6.44752,-10.30883 -3.32685,-5.09075 -6.43686,-9.98256 -11.40966,-17.94653 -3.02215,-4.84 -6.5584,-10.456 -7.85834,-12.48 -1.29994,-2.024 -4.75219,-7.496 -7.67168,-12.16 -2.91949,-4.664 -6.60499,-10.496 -8.19002,-12.96 -1.58502,-2.464 -5.9982,-9.448 -9.8071,-15.52 -3.8089,-6.072 -7.89904,-12.552 -9.08925,-14.4 -1.19017,-1.848 -4.01133,-6.312 -6.26921,-9.92 -2.25789,-3.608 -6.25956,-9.944 -8.89264,-14.08 -2.63306,-4.136 -7.44375,-11.768 -10.69044,-16.96 -3.24665,-5.192 -6.55481,-10.448 -7.35148,-11.68 -0.79664,-1.232 -2.11316,-3.27757 -2.92557,-4.54573 -0.81239,-1.26816 -1.55299,-2.31216 -1.64576,-2.32 -0.0928,-0.008 -2.96592,4.77373 -6.3848,10.62573 -3.41888,5.852 -7.02557,12.008 -8.01485,13.68 -4.12746,6.9759 -7.38304,12.54886 -9.44022,16.16 -1.20317,2.112 -2.43053,4.2 -2.72749,4.64 -0.29696,0.44 -1.94391,3.248 -3.65984,6.24 -1.71594,2.992 -4.77837,8.248 -6.80541,11.68 -7.25594,12.28509 -8.03126,13.61894 -8.74224,15.04 -0.39626,0.792 -0.95878,1.728 -1.25011,2.08 -0.29133,0.352 -1.29933,2.008 -2.24,3.68 -1.44506,2.56848 -3.71066,6.49763 -4.79744,8.32 -1.08087,1.81245 -3.58435,6.07757 -5.07136,8.64 -0.97031,1.672 -2.37168,4.048 -3.11415,5.28 -1.84121,3.0551 -5.26342,9.05418 -5.26342,9.22669 0,0.0772 -0.5623,0.9848 -1.24957,2.01683 -0.68726,1.03206 -1.59558,2.52448 -2.01849,3.31648 -0.42295,0.792 -1.16285,2.05901 -1.64429,2.81555 -0.48141,0.75658 -1.01056,1.73123 -1.17581,2.16595 -0.16528,0.43469 -1.93837,3.55972 -3.94019,6.94445 -6.62154,11.19581 -10.13165,17.40602 -10.13165,17.92525 0,0.28189 -0.27904,0.70794 -0.62006,0.94682 -0.34103,0.23888 -1.22327,1.50704 -1.96048,2.81814 -0.73725,1.31111 -2.45076,4.25584 -3.80781,6.54384 -1.35706,2.288 -4.89344,8.336 -7.85863,13.44 -2.96518,5.104 -5.92028,10.072 -6.56688,11.04 -0.64659,0.968 -2.57571,4.208 -4.28694,7.2 -1.7112,2.992 -3.76387,6.52 -4.56147,7.84 -0.7976,1.32 -1.94967,3.336 -2.5601,4.48 -0.61046,1.144 -2.02957,3.592 -3.15357,5.44 -1.124,1.848 -2.47907,4.152 -3.01123,5.12 -0.53219,0.968 -1.32585,2.336 -1.76371,3.04 -0.43786,0.704 -1.05101,1.73703 -1.36259,2.29562 -0.31159,0.55862 -2.29453,3.98224 -4.40653,7.6081 -2.112,3.62582 -4.06234,6.9848 -4.33408,7.46435 -0.27174,0.47958 -0.95302,1.59193 -1.51392,2.47193 -0.56093,0.88 -1.02256,1.8322 -1.02592,2.116 -0.003,0.28381 -0.4127,1.02765 -0.90966,1.65303 -1.1218,1.41155 -7.14415,11.83549 -8.0636,13.95702 -0.1826,0.42135 -0.74295,1.28535 -1.24522,1.92 -0.50226,0.63469 -1.14305,1.65795 -1.42397,2.27395 -0.28092,0.616 -0.64996,1.336 -0.82008,1.6 -0.17013,0.264 -0.71303,1.17693 -1.20644,2.02871 -0.49341,0.85181 -1.2137,2.07581 -1.60065,2.72 -0.38694,0.64422 -0.8484,1.48745 -1.02546,1.87389 -0.17706,0.38643 -0.79977,1.39443 -1.3838,2.24 -0.58403,0.84556 -1.23752,1.8974 -1.45221,2.3374 -0.21469,0.44 -0.52001,1.016 -0.67848,1.28 -0.15848,0.264 -0.44648,0.84 -0.64,1.28 -0.40191,0.9138 -0.67031,1.36311 -2.34763,3.93005 -0.66489,1.01754 -1.20888,2.0392 -1.20888,2.2704 0,0.2312 -0.288,0.68099 -0.64,0.99955 -0.352,0.31856 -0.64,0.78612 -0.64,1.03898 0,0.44848 -0.55135,1.26179 -2.2982,3.39021 -0.472,0.5751 -0.96043,1.46979 -1.0854,1.98822 -0.30959,1.28432 -1.26132,3.13552 -1.87301,3.64317 -0.27687,0.22979 -0.50339,0.52544 -0.50339,0.65699 0,0.47747 3.14557,0.75383 8,0.70288 2.728,-0.0285 150.17158,-0.13174 327.65245,-0.22912 l 322.69241,-0.17712 1.07872,-0.9471 c 1.60653,-1.41056 3.33383,-1.33607 4.74503,0.20461 0.83481,0.91142 1.17043,1.08704 1.60861,0.84182 1.04992,-0.58755 1.74278,-0.10669 1.74278,1.20954 0,0.77897 -0.17059,1.27392 -0.48,1.39264 -0.264,0.10131 -0.48448,0.44073 -0.48998,0.75424 -0.005,0.31353 -0.36477,1.14605 -0.79837,1.85005 -0.4336,0.704 -0.78912,1.748 -0.79002,2.32 0,0.82835 -0.1327,1.04 -0.64579,1.04 -0.4601,0 -0.83766,0.43433 -1.32138,1.52 -0.83408,1.87209 -0.85708,1.91296 -2.01836,3.58528 -0.51914,0.74761 -0.97207,1.76614 -1.00647,2.26336 -0.0778,1.12291 -0.35456,1.59136 -0.94029,1.59136 -0.51801,0 -1.42934,1.59049 -1.42934,2.49452 0,0.33344 -0.288,0.86692 -0.64,1.18548 -0.352,0.31856 -0.64,0.9087 -0.64,1.31145 0,0.40275 -0.26736,0.92042 -0.59411,1.1504 -0.80531,0.56679 -2.84179,3.79898 -3.11072,4.93715 -0.11968,0.50656 -0.5336,1.281 -0.91981,1.721 -0.5783,0.65888 -2.26086,3.55491 -6.97184,12 -0.99117,1.77676 -1.19974,2.30518 -1.20154,3.04412 0,0.5138 -0.25289,0.91815 -0.69696,1.12 -0.3822,0.17373 -1.29148,1.39588 -2.02057,2.71588 -0.72912,1.32 -3.16906,5.64 -5.42208,9.6 -2.25306,3.96 -6.43936,11.376 -9.30295,16.48 -2.86358,5.104 -5.49923,9.784 -5.85702,10.4 -0.35779,0.616 -2.26621,4 -4.24086,7.52 -1.97469,3.52 -5.34586,9.496 -7.49152,13.28 -2.14567,3.784 -5.31213,9.4 -7.03658,12.48 -1.72448,3.08 -3.47901,6.14 -3.89898,6.8 l -0.76355,1.2 H 480.47546 C 114.7547,835.52002 71.68,835.46872 71.68,835.03317 Z M 919.54058,636.89381 c -0.17367,-0.45607 -0.1369,-0.4928 0.17913,-0.17914 0.21869,0.21709 0.31703,0.4753 0.2185,0.57383 -0.0985,0.0985 -0.27747,-0.0791 -0.39763,-0.39469 z M 737.41731,577.46357 c -0.10717,-0.42704 -0.46992,-1.02538 -0.80608,-1.3296 C 736.27504,575.82974 736,575.24821 736,574.84168 c 0,-0.41165 -0.28358,-0.89091 -0.64,-1.08167 -0.352,-0.18838 -0.64,-0.61696 -0.64,-0.95238 0,-0.33542 -0.15869,-0.70794 -0.35264,-0.82781 -0.19398,-0.11987 -0.55613,-0.66835 -0.8048,-1.21888 -0.48611,-1.07619 -0.88797,-1.78301 -1.78973,-3.14797 -0.31507,-0.47686 -0.57283,-1.08982 -0.57283,-1.36211 0,-0.27229 -0.36,-0.80809 -0.8,-1.19065 -0.44,-0.3826 -0.8,-1.012 -0.8,-1.39872 0,-0.38672 -0.22723,-0.89168 -0.50496,-1.12218 -0.27773,-0.2305 -0.872,-1.14813 -1.32058,-2.0392 -0.4486,-0.89104 -1.01337,-1.73526 -1.25504,-1.876 -0.24169,-0.14074 -0.43942,-0.58643 -0.43942,-0.9904 0,-0.40397 -0.288,-0.99514 -0.64,-1.3137 -0.352,-0.31856 -0.64,-0.84809 -0.64,-1.17673 0,-0.32867 -0.576,-1.22247 -1.28,-1.98621 -0.704,-0.76374 -1.28,-1.6953 -1.28,-2.07014 0,-0.37482 -0.288,-0.86135 -0.64,-1.08119 -0.38355,-0.23952 -0.64,-0.74624 -0.64,-1.26454 0,-0.49159 -0.2665,-1.05155 -0.61741,-1.29735 -0.33958,-0.23785 -0.71315,-0.81392 -0.83017,-1.28012 -0.11703,-0.46621 -0.70317,-1.35264 -1.3026,-1.96983 -0.63232,-0.65107 -1.08982,-1.44829 -1.08982,-1.89901 0,-0.43411 -0.29638,-0.9736 -0.67181,-1.22288 -0.43888,-0.29142 -0.63305,-0.70336 -0.56,-1.18809 0.0922,-0.61156 0.28058,-0.41338 1.07181,1.12704 0.528,1.028 1.03974,1.94105 1.13718,2.02905 0.42304,0.38202 3.18282,5.23888 3.18282,5.60135 0,0.22016 0.20051,0.56669 0.44557,0.77008 0.24505,0.20339 0.63577,0.83302 0.86822,1.3992 0.23245,0.56614 0.89597,1.65241 1.47443,2.41389 0.57847,0.76147 1.05178,1.53075 1.05178,1.70953 0,0.17875 0.288,0.69114 0.64,1.13863 0.352,0.44752 0.64,1.0822 0.64,1.41049 0,0.32826 0.14192,0.59683 0.31539,0.59683 0.17347,0 0.76138,0.828 1.3065,1.84 1.17846,2.18784 1.84608,3.35373 5.38573,9.40519 4.57059,7.81398 5.14531,8.91481 4.65411,8.91481 -0.24723,0 -0.53722,-0.3494 -0.64442,-0.77644 z m -22.92214,-39.66746 c -0.47568,-0.59616 -0.96026,-1.46397 -1.07683,-1.92845 -0.11658,-0.46448 -0.4834,-0.98979 -0.81514,-1.16736 -0.3849,-0.20598 -0.6032,-0.66982 -0.6032,-1.2816 0,-0.53622 -0.2017,-1.03616 -0.45763,-1.1344 -0.25171,-0.0966 -0.61747,-0.56006 -0.81283,-1.02995 -0.65421,-1.5737 -1.34029,-2.65389 -1.79684,-2.82909 -0.24899,-0.0956 -0.4527,-0.51971 -0.4527,-0.94262 0,-0.42288 -0.288,-1.01549 -0.64,-1.31687 -0.352,-0.30141 -0.64406,-0.768 -0.64906,-1.03686 -0.005,-0.2689 -0.58096,-1.34979 -1.28,-2.40202 -0.699,-1.05222 -1.27094,-2.07392 -1.27094,-2.2704 0,-0.19651 -0.288,-0.61792 -0.64,-0.93648 -0.352,-0.31856 -0.64,-0.82723 -0.64,-1.1304 0,-0.3032 -0.22432,-0.73741 -0.4985,-0.96493 -0.27417,-0.22755 -0.7078,-0.85718 -0.96368,-1.3992 -0.25584,-0.54201 -1.03788,-1.99347 -1.73782,-3.22547 -0.69994,-1.232 -1.48198,-2.68345 -1.73782,-3.22547 -0.25588,-0.54202 -0.68951,-1.17165 -0.96368,-1.3992 -0.27418,-0.22752 -0.4985,-0.66643 -0.4985,-0.97533 0,-0.30889 -0.20179,-0.72909 -0.44842,-0.93379 -0.24662,-0.20467 -0.84521,-1.15645 -1.3302,-2.11504 -0.48503,-0.95859 -1.14724,-1.98307 -1.47162,-2.27664 -0.32435,-0.29354 -0.58976,-0.86634 -0.58976,-1.27286 0,-0.41165 -0.28358,-0.89092 -0.64,-1.08167 -0.40672,-0.21766 -0.6344,-0.65917 -0.62464,-1.21126 l 0.0154,-0.86874 0.54461,1.02688 c 0.58483,1.10266 13.71641,23.82893 15.19193,26.29197 0.488,0.81462 0.9664,1.69715 1.06308,1.96115 0.20249,0.55283 0.31212,0.73789 1.44128,2.43213 0.45737,0.68634 1.32137,2.13661 1.92,3.22285 0.59859,1.08624 1.68931,2.99424 2.42384,4.24 1.42982,2.42505 1.44729,2.94528 0.0397,1.18112 z m -24.02698,-41.63386 c -0.4775,-0.59843 -0.86819,-1.38253 -0.86819,-1.74243 0,-0.3599 -0.288,-0.83424 -0.64,-1.05408 -0.352,-0.21981 -0.64,-0.68509 -0.64,-1.03392 0,-0.6015 0.0256,-0.59782 0.49414,0.0713 0.79908,1.1408 2.73101,4.6384 2.62221,4.74723 -0.055,0.055 -0.49069,-0.38967 -0.96816,-0.9881 z m -3.31776,-5.77603 c -0.288,-0.75053 0.023,-0.83866 0.46439,-0.13165 0.24723,0.39587 0.26844,0.62544 0.0579,0.62544 -0.18301,0 -0.41801,-0.22221 -0.52224,-0.49379 z M 685.52,487.52276 c -0.572,-0.608 -1.03789,-1.43334 -1.0353,-1.83411 l 0.005,-0.72864 0.39527,0.70026 c 0.21741,0.38515 0.71443,1.21315 1.10451,1.84 0.39005,0.62685 0.67805,1.13709 0.64,1.13382 -0.0381,-0.003 -0.53722,-0.50333 -1.10922,-1.11133 z m -1.81363,-3.1439 c -0.31677,-0.23165 -0.52429,-0.66288 -0.46115,-0.9583 0.0873,-0.40871 0.24515,-0.30797 0.6599,0.42115 0.61706,1.08477 0.60278,1.12326 -0.19875,0.53715 z m -1.17469,-2.33299 c -0.53053,-0.6392 -1.09229,-1.58701 -1.7112,-2.88704 -0.26214,-0.55066 -0.69802,-1.08615 -0.96854,-1.18995 -0.28557,-0.1096 -0.48548,-0.56218 -0.47658,-1.07882 l 0.0154,-0.89005 0.54461,1.01863 c 0.29955,0.56025 1.14934,2.03625 1.88845,3.28 1.32985,2.23795 1.53468,2.74348 0.70787,1.74723 z m -4.0327,-6.60586 c -0.62368,-0.96397 -1.05549,-1.73366 -1.38029,-2.46041 -0.19184,-0.42922 -0.63002,-0.97738 -0.97373,-1.21815 -0.35782,-0.25062 -0.62496,-0.80742 -0.62496,-1.30262 0,-0.51831 -0.25645,-1.02503 -0.64,-1.26455 -0.352,-0.21984 -0.64,-0.69824 -0.64,-1.06313 0,-0.3649 -0.504,-1.2785 -1.12,-2.03024 -0.616,-0.75175 -1.12,-1.59837 -1.12,-1.88138 0,-0.28304 -0.30109,-0.7951 -0.66909,-1.13792 -0.36797,-0.34285 -0.61997,-0.86701 -0.56,-1.16483 0.0681,-0.33818 0.64973,0.39069 1.54909,1.94122 0.792,1.36547 1.83021,3.14403 2.30714,3.95235 0.47692,0.80832 1.05132,1.82966 1.27644,2.26966 0.22516,0.44 1.08845,1.916 1.91847,3.28 0.83001,1.364 1.38009,2.48 1.22243,2.48 -0.1577,0 -0.40317,-0.18 -0.5455,-0.4 z m -8.42215,-14.80381 c -0.43757,-0.52726 -1.35024,-2.11734 -1.89901,-3.30857 -0.19065,-0.41383 -0.86131,-1.52781 -1.49036,-2.47556 -0.62909,-0.94771 -1.09415,-1.87196 -1.03351,-2.05392 0.0606,-0.18192 0.86592,1.0041 1.78957,2.63556 0.92362,1.63145 2.04682,3.5783 2.49603,4.3263 0.82064,1.3665 0.88496,1.77709 0.13728,0.87619 z m -5.22496,-8.94221 c -0.32345,-0.24512 -0.53945,-0.67177 -0.48,-0.94812 0.0764,-0.35508 0.26807,-0.22132 0.65325,0.45584 0.29981,0.52707 0.51581,0.95372 0.48,0.94812 -0.0358,-0.005 -0.32976,-0.21072 -0.65325,-0.45584 z m -1.3151,-2.39545 c -0.30935,-0.34183 -0.51168,-0.77056 -0.4496,-0.95277 0.062,-0.18218 0.35814,0.0975 0.65795,0.6215 0.63392,1.10797 0.57677,1.19882 -0.20835,0.33127 z m -1.48231,-2.70995 c -0.35417,-0.60029 -0.85331,-1.17178 -1.10921,-1.26996 -0.25767,-0.0989 -0.45965,-0.57568 -0.45274,-1.06857 l 0.0125,-0.89005 0.46144,0.96 c 0.25379,0.528 0.82624,1.5 1.27213,2.16 0.44589,0.66 0.73174,1.2 0.63523,1.2 -0.0965,0 -0.46521,-0.49114 -0.81939,-1.09142 z m -2.74403,-4.20237 c -0.288,-0.75053 0.023,-0.83866 0.46439,-0.13165 0.24723,0.39587 0.26844,0.62544 0.0579,0.62544 -0.18301,0 -0.41801,-0.22221 -0.52224,-0.49379 z m -0.91219,-2.06816 c -0.31955,-0.35309 -0.52186,-0.69898 -0.4496,-0.76867 0.0723,-0.0697 0.39008,0.2192 0.7063,0.64195 0.69837,0.93369 0.54298,1.01037 -0.2567,0.12672 z m -1.02938,-1.67805 c -0.37744,-0.48781 -0.76249,-1.52 -0.56704,-1.52 0.078,0 0.36516,0.432 0.63818,0.96 0.51091,0.988 0.47552,1.2665 -0.0711,0.56 z m -1.67993,-2.30925 c -0.21418,-0.25808 -0.33328,-0.63773 -0.26461,-0.84368 0.0686,-0.20595 0.37357,0.005 0.67763,0.46922 0.58087,0.88656 0.25626,1.18089 -0.41302,0.37446 z m -1.11216,-2.39222 c -0.30935,-0.34183 -0.51168,-0.77056 -0.4496,-0.95277 0.062,-0.18218 0.35814,0.0975 0.65795,0.6215 0.63392,1.10797 0.57677,1.19882 -0.20835,0.33127 z m -2.04192,-3.3753 c -0.40983,-0.43213 -0.69783,-1.00403 -0.64,-1.27085 0.0655,-0.30211 0.38038,-0.004 0.83472,0.79124 0.84758,1.48288 0.82035,1.54995 -0.19472,0.47961 z m -1.76151,-2.93657 c -0.11734,-0.11732 -0.20896,-0.44132 -0.20361,-0.72 0.008,-0.4161 0.0704,-0.40228 0.34934,0.0773 0.34455,0.59254 0.24467,1.03306 -0.14573,0.64266 z m -1.6687,-3.33101 c -0.7551,-1.19613 -1.41968,-2.596 -1.0519,-2.21565 0.3496,0.3615 2.1696,3.52 2.02832,3.52 -0.0842,0 -0.52356,-0.58694 -0.97642,-1.30435 z M 647.12,421.54807 c -0.22,-0.0888 -0.38864,-0.5454 -0.37475,-1.01472 0.0147,-0.49446 0.0995,-0.65145 0.20176,-0.37334 0.0971,0.264 0.39603,0.732 0.66435,1.04 0.47786,0.54858 0.30646,0.66998 -0.49136,0.34806 z m -1.14813,-2.49408 c -0.32345,-0.24512 -0.53945,-0.67177 -0.48,-0.94812 0.0764,-0.35508 0.26807,-0.22132 0.65325,0.45584 0.29981,0.52707 0.51581,0.95372 0.48,0.94812 -0.0358,-0.005 -0.32976,-0.21072 -0.65325,-0.45584 z m -1.4983,-2.58172 c -0.22263,-0.26826 -0.32391,-0.56858 -0.22509,-0.6674 0.0988,-0.0988 0.34042,0.12064 0.53686,0.48775 0.41914,0.78317 0.26356,0.87286 -0.31177,0.17965 z m -1.09072,-1.61511 c -0.27658,-0.27657 -0.50064,-0.74457 -0.49795,-1.04 0.004,-0.4656 0.0483,-0.47321 0.33072,-0.0571 1.03756,1.52854 1.11648,2.0464 0.16723,1.09715 z m -1.27648,-2.1583 c -0.31677,-0.23165 -0.52429,-0.67411 -0.46115,-0.98333 0.0907,-0.44442 0.23587,-0.35622 0.69286,0.42115 0.64288,1.09354 0.60864,1.17664 -0.23171,0.56218 z m -1.60189,-3.02173 c -0.0982,-0.30957 -0.68915,-1.33802 -1.31309,-2.28541 -0.62393,-0.94742 -1.09254,-1.84825 -1.04134,-2.00185 0.0512,-0.15364 0.76659,0.87481 1.58973,2.2854 0.82316,1.4106 1.37216,2.56474 1.22,2.56474 -0.15216,0 -0.35703,-0.25328 -0.4553,-0.56288 z m -3.52163,-6.01997 c -0.27658,-0.27657 -0.50285,-0.73257 -0.50285,-1.01334 0,-0.28077 0.0436,-0.45047 0.0969,-0.37715 0.49005,0.67468 1.16807,1.89334 1.05338,1.89334 -0.0795,0 -0.37082,-0.22627 -0.64739,-0.50285 z m -1.63821,-3.0415 c -0.79626,-1.26135 -1.39187,-2.54307 -1.02957,-2.21565 0.31408,0.28387 2.15338,3.52 2.00064,3.52 -0.0812,0 -0.51821,-0.58694 -0.97107,-1.30435 z m -2.18512,-3.66803 c -0.30877,-0.80471 -0.2177,-1.01232 0.15955,-0.36362 0.18679,0.32122 0.27219,0.65142 0.18979,0.73379 -0.0824,0.0824 -0.23958,-0.0842 -0.34934,-0.37017 z m -1.26618,-1.96096 c -0.11734,-0.11732 -0.20896,-0.44132 -0.20361,-0.72 0.008,-0.4161 0.0704,-0.40228 0.34934,0.0773 0.34455,0.59254 0.24467,1.03306 -0.14573,0.64266 z m -1.34649,-2.68794 c -0.11603,-0.18771 -0.14231,-0.40992 -0.0584,-0.49382 0.0839,-0.0839 0.23779,0.0697 0.34201,0.34131 0.21639,0.56387 0.032,0.66304 -0.28358,0.15251 z m -1.28,-2.24 c -0.11603,-0.18771 -0.14231,-0.40992 -0.0584,-0.49382 0.0839,-0.0839 0.23779,0.0697 0.34201,0.34131 0.21639,0.56387 0.032,0.66304 -0.28358,0.15251 z m -1.31642,-1.75251 c -0.288,-0.75053 0.023,-0.83866 0.46439,-0.13165 0.24723,0.39587 0.26844,0.62544 0.0579,0.62544 -0.18301,0 -0.41801,-0.22221 -0.52224,-0.49379 z m -0.91219,-2.06816 c -0.31955,-0.35309 -0.52186,-0.69898 -0.4496,-0.76867 0.0723,-0.0697 0.39008,0.2192 0.7063,0.64195 0.69837,0.93369 0.54298,1.01037 -0.2567,0.12672 z m -3.82147,-6.37952 c -0.30935,-0.34183 -0.51168,-0.77056 -0.4496,-0.95277 0.062,-0.18218 0.35814,0.0975 0.65795,0.6215 0.63392,1.10797 0.57677,1.19882 -0.20835,0.33127 z m -1.62992,-2.91981 c -0.11603,-0.18771 -0.14231,-0.40992 -0.0584,-0.49382 0.0839,-0.0839 0.23779,0.0697 0.34201,0.34131 0.21639,0.56387 0.032,0.66304 -0.28358,0.15251 z m -2.07328,-3.66647 c -0.22263,-0.26825 -0.34279,-0.54969 -0.26704,-0.62544 0.0757,-0.0757 0.31347,0.14375 0.52829,0.48775 0.46457,0.7439 0.30966,0.82557 -0.26125,0.13769 z m -1.41072,-2.2551 c -0.27658,-0.27658 -0.50285,-0.73258 -0.50285,-1.01334 0,-0.28077 0.0436,-0.45047 0.0969,-0.37716 0.49005,0.67469 1.16807,1.89335 1.05338,1.89335 -0.0795,0 -0.37082,-0.22627 -0.64739,-0.50285 z m -2.06403,-3.67309 c -0.39684,-0.53677 -0.67591,-1.10877 -0.62016,-1.27117 0.0557,-0.1624 0.42963,0.27677 0.83091,0.97594 0.87065,1.51702 0.78317,1.63958 -0.21075,0.29523 z m -1.43226,-2.37395 c -0.32637,-0.24726 -0.54237,-0.58934 -0.48,-0.76022 0.0624,-0.17085 0.37216,0.036 0.68838,0.45974 0.65738,0.88086 0.62308,0.93034 -0.20838,0.30048 z m -3.83469,-6.39613 c -0.32345,-0.24512 -0.53945,-0.68304 -0.48,-0.97315 0.0801,-0.39082 0.25792,-0.2727 0.68621,0.45584 0.64826,1.10266 0.62922,1.15037 -0.20621,0.51731 z m -1.70144,-2.90777 c -0.288,-0.75053 0.023,-0.83866 0.46439,-0.13165 0.24723,0.39587 0.26844,0.62544 0.0579,0.62544 -0.18301,0 -0.41801,-0.22221 -0.52224,-0.49379 z m -1.07686,-2.23396 c -0.22263,-0.26825 -0.34279,-0.54969 -0.26704,-0.62544 0.0757,-0.0757 0.31347,0.14375 0.52829,0.48775 0.46457,0.7439 0.30966,0.82557 -0.26125,0.13769 z m -3.94023,-6.4456 c -0.11734,-0.11731 -0.20896,-0.44131 -0.20361,-0.72 0.008,-0.41609 0.0704,-0.40227 0.34934,0.0774 0.34455,0.59254 0.24467,1.03305 -0.14573,0.64265 z m -1.34649,-2.68793 c -0.11603,-0.18771 -0.14231,-0.40992 -0.0584,-0.49383 0.0839,-0.0839 0.23779,0.0697 0.34201,0.34132 0.21639,0.56387 0.032,0.66304 -0.28358,0.15251 z m -0.96,-1.6 c -0.11603,-0.18771 -0.14231,-0.40992 -0.0584,-0.49383 0.0839,-0.0839 0.23779,0.0697 0.34201,0.34132 0.21639,0.56387 0.032,0.66304 -0.28358,0.15251 z m -1.28,-2.24 c -0.11603,-0.18771 -0.14231,-0.40992 -0.0584,-0.49383 0.0839,-0.0839 0.23779,0.0697 0.34201,0.34132 0.21639,0.56387 0.032,0.66304 -0.28358,0.15251 z m -1.14768,-2.13872 c -0.39802,-0.50755 -0.38672,-0.51885 0.12083,-0.12083 0.53302,0.41804 0.70256,0.68083 0.43917,0.68083 -0.0664,0 -0.31843,-0.252 -0.56,-0.56 z m -1.55917,-2.64 c -0.18838,-0.352 -0.27053,-0.64 -0.18253,-0.64 0.088,0 0.31415,0.288 0.50253,0.64 0.18838,0.352 0.27053,0.64 0.18253,0.64 -0.088,0 -0.31415,-0.288 -0.50253,-0.64 z m -2.24643,-3.68775 c -0.22263,-0.26825 -0.32391,-0.56857 -0.22509,-0.66739 0.0988,-0.0988 0.34042,0.12064 0.53686,0.48775 0.41914,0.78316 0.26356,0.87286 -0.31177,0.17964 z M 593.92,329.26113 c 0,-0.1864 0.144,-0.24989 0.32,-0.14112 0.176,0.10877 0.32,0.26128 0.32,0.33888 0,0.0776 -0.144,0.14112 -0.32,0.14112 -0.176,0 -0.32,-0.15251 -0.32,-0.33888 z m -3.47901,-6.02903 c -0.24144,-0.15292 -0.38496,-0.44016 -0.31894,-0.63824 0.0672,-0.20156 0.29693,-0.0769 0.52173,0.28298 0.44828,0.71786 0.42739,0.75446 -0.20279,0.35526 z m -1.32742,-2.43984 c -0.22263,-0.26825 -0.34279,-0.54969 -0.26704,-0.62544 0.0757,-0.0757 0.31347,0.14375 0.52829,0.48775 0.46457,0.7439 0.30966,0.82557 -0.26125,0.13769 z m -3.6568,-6.21374 c -0.30935,-0.34181 -0.51168,-0.77054 -0.4496,-0.95274 0.062,-0.18219 0.35814,0.0975 0.65795,0.62149 0.63392,1.10797 0.57677,1.19883 -0.20835,0.33125 z m -4.12343,-6.63185 c -0.11734,-0.11733 -0.20422,-0.51333 -0.19305,-0.88 0.0186,-0.61299 0.045,-0.60495 0.32688,0.0998 0.31337,0.78344 0.24835,1.16241 -0.13383,0.78021 z m -1.17977,-2.5144 c -0.22263,-0.26825 -0.34279,-0.5497 -0.26704,-0.62544 0.0757,-0.0757 0.31347,0.14373 0.52829,0.48773 0.46457,0.74391 0.30966,0.82559 -0.26125,0.13771 z m -2.24,-3.84 c -0.22263,-0.26825 -0.34279,-0.5497 -0.26704,-0.62544 0.0757,-0.0757 0.31347,0.14373 0.52829,0.48773 0.46457,0.74391 0.30966,0.82559 -0.26125,0.13771 z m -1.28,-2.24 c -0.22263,-0.26825 -0.34279,-0.5497 -0.26704,-0.62544 0.0757,-0.0757 0.31347,0.14373 0.52829,0.48773 0.46457,0.74391 0.30966,0.82559 -0.26125,0.13771 z m -3.94023,-6.4456 c -0.11734,-0.11733 -0.20896,-0.44133 -0.20361,-0.72 0.008,-0.41609 0.0704,-0.40227 0.34934,0.0773 0.34455,0.59254 0.24467,1.03307 -0.14573,0.64266 z m -1.17977,-2.5144 c -0.22263,-0.26825 -0.34279,-0.5497 -0.26704,-0.62544 0.0757,-0.0757 0.31347,0.14373 0.52829,0.48773 0.46457,0.74391 0.30966,0.82559 -0.26125,0.13771 z m -3.42458,-5.99226 c -0.47971,-0.6203 -0.7815,-1.2 -0.62467,-1.2 0.0781,0 0.37795,0.36 0.66624,0.8 0.53949,0.82333 0.50944,1.11243 -0.0416,0.4 z m -14.34214,-24.58129 c -0.11603,-0.18771 -0.14231,-0.40992 -0.0584,-0.4938 0.0839,-0.0839 0.23779,0.0697 0.34201,0.34128 0.21639,0.56388 0.032,0.66306 -0.28358,0.15252 z m -4.95328,-8.46645 c -0.22263,-0.26825 -0.34279,-0.5497 -0.26704,-0.62544 0.0757,-0.0757 0.31347,0.14373 0.52829,0.48773 0.46457,0.74391 0.30966,0.82559 -0.26125,0.13771 z m -5.28672,-9.13355 c -0.11603,-0.18771 -0.14231,-0.40992 -0.0584,-0.49381 0.0839,-0.0839 0.23779,0.0697 0.34201,0.34129 0.21639,0.56388 0.032,0.66306 -0.28358,0.15252 z m -3.35328,-5.90645 c -0.22263,-0.26825 -0.34279,-0.5497 -0.26704,-0.62545 0.0757,-0.0757 0.31347,0.14374 0.52829,0.48774 0.46457,0.74391 0.30966,0.82559 -0.26125,0.13771 z m -29.12,-50.24 c -0.22263,-0.26825 -0.34279,-0.5497 -0.26704,-0.62545 0.0757,-0.0757 0.31347,0.14374 0.52829,0.48774 0.46457,0.74391 0.30966,0.82559 -0.26125,0.13771 z"
         id="path849" />
      <path
         style="fill:#35318b;stroke-width:0.32"
         d="m 295.2,708.80786 c -0.352,-0.15556 -1.108,-0.293 -1.68,-0.30535 -1.13796,-0.0246 -1.31527,-0.35568 -0.53661,-1.00192 0.61169,-0.50765 1.56342,-2.35885 1.87301,-3.64317 0.12497,-0.51843 0.6134,-1.41312 1.0854,-1.98822 1.74685,-2.12842 2.2982,-2.94173 2.2982,-3.39021 0,-0.25286 0.288,-0.72041 0.64,-1.03897 0.352,-0.31856 0.64,-0.76836 0.64,-0.99956 0,-0.2312 0.54399,-1.25286 1.20888,-2.2704 1.67732,-2.56694 1.94572,-3.01625 2.34763,-3.93004 0.19352,-0.44 0.48152,-1.016 0.64,-1.28 0.15847,-0.264 0.46379,-0.84 0.67848,-1.28 0.21469,-0.44 0.86818,-1.49184 1.45221,-2.33741 0.58403,-0.84557 1.20674,-1.85357 1.3838,-2.24 0.17706,-0.38643 0.63852,-1.22967 1.02546,-1.87389 0.38695,-0.64419 1.10724,-1.86819 1.60065,-2.72 0.49341,-0.85178 1.03631,-1.7647 1.20644,-2.0287 0.17012,-0.264 0.53916,-0.984 0.82008,-1.6 0.28092,-0.616 0.92171,-1.63927 1.42397,-2.27396 0.50227,-0.63465 1.06262,-1.49865 1.24522,-1.92 0.91945,-2.12153 6.9418,-12.54547 8.0636,-13.95702 0.49696,-0.62538 0.90633,-1.36922 0.90966,-1.65302 0.003,-0.28381 0.46499,-1.236 1.02592,-2.116 0.5609,-0.88 1.24218,-1.99236 1.51392,-2.47194 0.27174,-0.47955 2.22208,-3.83853 4.33408,-7.46435 2.112,-3.62586 4.09494,-7.04947 4.40653,-7.6081 0.31158,-0.55859 0.92473,-1.59161 1.36259,-2.29561 0.43786,-0.704 1.23152,-2.072 1.76371,-3.04 0.53216,-0.968 1.88723,-3.272 3.01123,-5.12001 1.124,-1.848 2.54311,-4.296 3.15357,-5.44 0.61043,-1.144 1.7625,-3.16 2.5601,-4.48 0.7976,-1.32 2.85126,-4.848 4.56371,-7.84 1.71245,-2.992 3.54941,-6.088 4.08211,-6.88 0.53271,-0.792 3.52787,-5.832 6.65594,-11.2 3.12806,-5.368 5.81859,-9.976 5.97894,-10.24 0.25821,-0.42508 13.25031,-0.48528 113.53658,-0.52611 62.28473,-0.0253 145.59801,-0.0613 185.14064,-0.08 l 71.89565,-0.0339 -1.20804,-2.16 c -0.66441,-1.188 -2.41747,-4.22764 -3.89564,-6.75481 -3.53965,-6.05146 -4.20727,-7.21735 -5.38573,-9.40519 -0.54512,-1.012 -1.13303,-1.84 -1.3065,-1.84 -0.17347,0 -0.31539,-0.26857 -0.31539,-0.59683 0,-0.32829 -0.288,-0.96297 -0.64,-1.41049 -0.352,-0.44749 -0.64,-0.95988 -0.64,-1.13863 0,-0.17878 -0.47331,-0.94806 -1.05178,-1.70953 -0.57846,-0.76148 -1.24198,-1.84775 -1.47443,-2.41389 -0.23245,-0.56618 -0.62317,-1.19581 -0.86822,-1.3992 -0.24506,-0.20339 -0.44557,-0.54992 -0.44557,-0.77008 0,-0.47274 -2.89632,-5.39277 -3.26598,-5.548 -0.13972,-0.0587 -0.25402,-0.2594 -0.25402,-0.44602 0,-0.18662 -1.044,-2.13082 -2.32,-4.32042 -1.276,-2.1896 -2.80976,-4.86889 -3.40835,-5.95398 -0.59863,-1.08512 -1.46263,-2.53446 -1.92,-3.2208 -1.12915,-1.69424 -1.23879,-1.8793 -1.44128,-2.43213 -0.0967,-0.264 -0.57507,-1.14653 -1.06307,-1.96115 -0.74624,-1.24566 -13.22583,-22.80598 -15.3186,-26.46512 -1.10332,-1.92906 -6.5286,-11.17411 -7.16742,-12.21373 -0.16221,-0.264 -1.24234,-2.136 -2.40026,-4.16 -1.15792,-2.024 -2.23203,-3.896 -2.38688,-4.16 -0.15484,-0.264 -1.11932,-1.92 -2.14326,-3.68 -1.79866,-3.09158 -2.22112,-3.83299 -3.55542,-6.24 -0.34148,-0.616 -1.84253,-3.208 -3.33562,-5.76 -1.49312,-2.552 -4.2864,-7.34678 -6.2073,-10.65504 -1.92089,-3.30829 -3.8912,-6.69229 -4.37846,-7.52 -0.48726,-0.82774 -1.10592,-1.93696 -1.37482,-2.46496 -0.26886,-0.528 -1.0222,-1.84544 -1.67408,-2.92768 -0.65184,-1.08221 -3.17324,-5.40221 -5.6031,-9.6 -2.42986,-4.19776 -4.54416,-7.84832 -4.69846,-8.11232 -0.15431,-0.264 -0.99709,-1.704 -1.87284,-3.2 -1.46044,-2.49478 -15.89644,-27.41546 -17.45664,-30.1352 -2.91225,-5.07664 -12.19148,-21.05827 -13.86112,-23.87296 -0.38883,-0.65552 -0.98102,-1.69584 -1.31603,-2.31184 -0.93683,-1.72272 -12.75049,-22.11331 -13.44134,-23.2 -0.56608,-0.8904 -14.17229,-24.45344 -15.98355,-27.68 -0.44458,-0.792 -1.07469,-1.78342 -1.40023,-2.20316 -0.32553,-0.41973 -0.59187,-0.87302 -0.59187,-1.00729 0,-0.13428 -0.5536,-1.15886 -1.23024,-2.27685 -0.67661,-1.11799 -3.68016,-6.2807 -6.67456,-11.4727 -10.30336,-17.86513 -14.04973,-24.33453 -21.21773,-36.64 -1.99651,-3.42749 -2.99395,-5.15013 -4.53949,-7.84 -2.13244,-3.71132 -3.92908,-6.81056 -17.1592,-29.6 -5.72179,-9.856 -11.98348,-20.65601 -13.91491,-24.00001 -1.93142,-3.344 -8.48176,-14.648 -14.55629,-25.12 -10.63241,-18.32942 -25.76492,-44.42807 -33.11929,-57.12 -26.19139,-45.200184 -46.49802,-80.15846 -46.93527,-80.799999 -0.29987,-0.44 -1.96092,-3.248 -3.69123,-6.24 -1.7303,-2.992 -5.85856,-9.997398 -9.17389,-15.56755 C 405.91254,4.9422984 403.2,0.29799774 403.2,0.19178253 c 0,-0.10621522 33.93347,-0.15681797 75.40768,-0.11245055 L 554.01536,0.16 697.3288,249.92001 c 78.82237,137.368 144.7993,252.352 146.61536,255.52 1.81606,3.168 19.49158,33.94816 39.27891,68.40036 19.7873,34.45222 36.36525,63.34541 36.83991,64.20707 0.47462,0.8617 4.20227,7.37754 8.28368,14.47965 4.08137,7.10211 8.8568,15.43293 10.61203,18.51293 1.75523,3.08 3.94969,6.896 4.87661,8.48 0.92691,1.584 4.80966,8.33635 8.62835,15.00521 7.27193,12.69962 7.45808,13.14039 5.90105,13.97367 -0.57734,0.30899 -0.81011,0.20192 -1.71939,-0.79076 -1.40777,-1.53692 -3.13673,-1.61024 -4.74173,-0.20102 l -1.07872,0.9471 -322.53241,0.16903 c -177.39287,0.0929 -324.76445,0.23616 -327.49245,0.31824 -2.728,0.0821 -5.248,0.0221 -5.6,-0.13363 z"
         id="path847" />
    </g>
  </g>
</svg>
