<?xml version="1.0" encoding="UTF-8" standalone="no"?>
<svg
   xmlns:dc="http://purl.org/dc/elements/1.1/"
   xmlns:cc="http://creativecommons.org/ns#"
   xmlns:rdf="http://www.w3.org/1999/02/22-rdf-syntax-ns#"
   xmlns:svg="http://www.w3.org/2000/svg"
   xmlns="http://www.w3.org/2000/svg"
   xmlns:sodipodi="http://sodipodi.sourceforge.net/DTD/sodipodi-0.dtd"
   xmlns:inkscape="http://www.inkscape.org/namespaces/inkscape"
   version="1.1"
   id="svg833"
   width="962.59521"
   height="126.60585"
   viewBox="0 0 962.59521 126.60585"
   sodipodi:docname="impossible_text.svg"
   inkscape:version="1.0.2 (e86c870879, 2021-01-15, custom)">
  <metadata
     id="metadata839">
    <rdf:RDF>
      <cc:Work
         rdf:about="">
        <dc:format>image/svg+xml</dc:format>
        <dc:type
           rdf:resource="http://purl.org/dc/dcmitype/StillImage" />
        <dc:title></dc:title>
      </cc:Work>
    </rdf:RDF>
  </metadata>
  <defs
     id="defs837" />
  <sodipodi:namedview
     pagecolor="#ffffff"
     bordercolor="#666666"
     borderopacity="1"
     objecttolerance="10"
     gridtolerance="10"
     guidetolerance="10"
     inkscape:pageopacity="0"
     inkscape:pageshadow="2"
     inkscape:window-width="1431"
     inkscape:window-height="1030"
     id="namedview835"
     showgrid="false"
     inkscape:zoom="0.57352128"
     inkscape:cx="427.83978"
     inkscape:cy="-235.06142"
     inkscape:window-x="160"
     inkscape:window-y="0"
     inkscape:window-maximized="0"
     inkscape:current-layer="g841" />
  <g
     inkscape:groupmode="layer"
     inkscape:label="Image"
     id="g841"
     transform="translate(-104.62096,-133.50508)">
    <path
       style="fill:#000000;stroke-width:0.64"
       d="m 577.78516,258.89983 c -11.25949,-2.36534 -21.73505,-7.02071 -27.28843,-12.12705 -2.66615,-2.45153 -3.23616,-3.39466 -3.67735,-6.08447 -0.66629,-4.06219 -0.74941,-13.73253 -0.11842,-13.7773 0.264,-0.0187 4.18792,-0.41097 8.71983,-0.87164 l 8.23983,-0.83758 5.72489,3.38294 c 8.02822,4.74402 12.65032,5.2108 17.94281,1.81204 3.51204,-2.25539 5.19808,-5.96651 5.25003,-11.55574 0.0382,-4.10822 -0.15947,-4.87218 -1.90416,-7.36 -1.07073,-1.52678 -6.39873,-6.7201 -11.84,-11.5407 -12.93706,-11.46137 -18.761,-17.70851 -21.12326,-22.65819 -5.53357,-11.59454 -3.18334,-26.15703 5.50267,-34.09555 4.25107,-3.88524 11.34058,-7.50541 16.60736,-8.48034 4.84512,-0.89688 16.62138,-0.31629 21.76,1.0728 9.20185,2.48749 17.49285,8.69414 20.66957,15.47327 1.55961,3.32822 1.72778,4.38768 1.70355,10.73275 -0.0148,3.872 -0.24693,7.87447 -0.51588,8.8944 l -0.48901,1.85439 -6.52412,-0.39873 c -9.80839,-0.59944 -10.72891,-0.86626 -14.7104,-4.26379 -4.43054,-3.78073 -8.67045,-5.88275 -12.63409,-6.26361 -5.6312,-0.54108 -10.21962,2.2619 -10.21962,6.24298 0,3.58016 2.82211,6.9264 15.10897,17.91507 20.13123,18.00421 24.80204,25.7632 24.86159,41.29929 l 0.0294,7.68 -3.2,6.3616 c -8.14719,16.1966 -19.47557,21.45858 -37.8758,17.59316 z m 17.16794,-2.79825 c 4.44857,-0.9429 10.3783,-3.57101 9.06601,-4.01816 -0.41902,-0.14277 -1.85902,0.0451 -3.2,0.41746 -3.20017,0.88866 -13.31799,0.87258 -17.60665,-0.028 -4.09527,-0.85994 -10.77879,-3.87248 -16.78092,-7.56384 -4.22373,-2.59763 -4.59523,-2.70473 -8,-2.30604 -5.96777,0.69879 -6.17908,0.82731 -4.42685,2.69246 2.4781,2.63782 8.27384,5.79946 14.33096,7.81769 11.53063,3.84202 18.76048,4.65373 26.61745,2.98841 z m 7.59202,-7.64596 c 5.01981,-2.50338 9.09128,-6.76114 11.61707,-12.14861 1.9548,-4.16954 2.13877,-5.08492 2.13877,-10.64194 0,-5.8288 -0.11129,-6.31163 -2.6934,-11.68603 -3.67006,-7.63883 -9.98835,-16.47397 -11.78107,-16.47397 -1.0018,0 -0.60657,3.00401 1.11023,8.43866 4.21261,13.33526 -0.23602,26.26399 -10.17813,29.57996 -6.32371,2.10913 -13.0337,1.17221 -22.4999,-3.14168 -2.69976,-1.23032 -5.03669,-2.23694 -5.19319,-2.23694 -0.1565,0 -0.28454,2.23428 -0.28454,4.96508 v 4.96509 l 4,2.66301 c 9.28599,6.18218 14.80506,7.95818 23.84416,7.67287 5.4538,-0.17215 6.9259,-0.46234 9.92,-1.9555 z m -42.40416,-9.14845 c 1.35421,-0.32056 1.44,-0.66624 1.44,-5.80265 v -5.46179 l -3.93388,0.41116 c -2.16364,0.22615 -4.89964,0.41118 -6.08,0.41118 h -2.14612 v 5.33333 c 0,2.93334 0.216,5.55056 0.48,5.81605 0.46238,0.465 7.27568,-0.006 10.24,-0.70728 z m 37.75629,-11.68907 c 2.67146,-3.96418 4.23,-10.45794 3.78199,-15.7579 -0.77675,-9.18891 -3.39732,-13.69907 -15.80568,-27.20258 -4.66608,-5.0779 -8.87277,-10.15931 -9.34819,-11.292 -1.33632,-3.18377 -1.09208,-7.33675 0.57559,-9.78706 2.54089,-3.73335 4.51973,-4.74639 9.79145,-5.0126 5.66022,-0.28583 8.36128,0.61809 14.11627,4.72407 l 3.90773,2.78801 0.43002,-5.24649 0.43002,-5.24648 -3.65112,-3.36888 c -7.49555,-6.91611 -19.28859,-7.63648 -28.22152,-1.72389 -6.97241,4.61495 -10.80447,12.83598 -10.27186,22.03653 0.51655,8.92317 1.86604,10.71931 21.77174,28.97779 7.98147,7.32099 9.94793,10.59201 10.5236,17.50505 0.33324,4.00183 -0.0499,6.73929 -1.41031,10.07831 -0.85001,2.08619 1.74353,0.95687 3.38027,-1.47188 z m -37.08601,-59.61753 c 0.9403,-6.90427 2.89641,-11.40329 6.88849,-15.84344 5.31967,-5.91676 11.56125,-8.41239 21.03739,-8.41156 5.06702,4.4e-4 6.29134,0.23327 9.64384,1.83402 2.112,1.00843 5.136,2.97964 6.72,4.38046 4.01529,3.55097 5.0357,3.98011 10.57772,4.44859 l 4.88143,0.41263 -1.01097,-2.49811 c -0.55603,-1.37395 -2.74377,-4.152 -4.86164,-6.17343 -7.07948,-6.75711 -13.63116,-8.9756 -26.54654,-8.98901 -6.93598,-0.007 -8.95027,0.22083 -12.10886,1.37083 -5.52568,2.01183 -8.80888,4.12457 -12.10265,7.78803 -4.23419,4.70943 -7.43846,14.08016 -6.52114,19.07073 1.04623,5.69191 1.74999,8.43476 2.16419,8.43476 0.24501,0 0.80245,-2.62103 1.23874,-5.8245 z m 59.52482,-3.65399 c -0.15915,-2.74916 -0.50114,-5.34116 -0.76,-5.76 -0.30369,-0.49137 -2.38705,-0.76151 -5.87288,-0.76151 h -5.40222 v 4.82008 c 0,5.40392 -0.21586,5.16637 5.44,5.9868 7.46131,1.08233 6.92597,1.43018 6.5951,-4.28537 z m 45.48022,94.66598 c -11.80083,-2.58098 -22.65955,-7.52767 -28.15779,-12.82727 l -3.11753,-3.00491 v -8.11765 c 0,-4.46472 0.072,-8.13299 0.16,-8.15172 0.088,-0.0187 3.904,-0.41603 8.48,-0.88288 l 8.32,-0.84882 5.12,3.12352 c 8.54796,5.21481 14.77363,5.56469 19.84147,1.11507 3.72595,-3.27143 5.23814,-10.80233 3.1673,-15.77339 -1.26644,-3.03996 -3.43104,-5.2648 -16.02023,-16.46581 -16.54016,-14.71637 -19.74408,-19.44673 -21.0516,-31.08113 -0.49546,-4.40854 0.94185,-11.74895 3.20715,-16.37903 3.17431,-6.48803 13.26122,-13.45664 21.73591,-15.01637 4.81625,-0.88642 16.63725,-0.32955 21.68064,1.02133 9.04736,2.42337 17.67744,8.77078 20.91309,15.38157 1.41907,2.89925 1.56627,3.98774 1.56627,11.58195 0,5.56107 -0.25747,8.69209 -0.76512,9.30352 -0.62029,0.74719 -1.89197,0.83169 -6.72,0.44653 -9.47322,-0.75573 -10.48775,-1.04998 -14.28461,-4.14288 -7.78803,-6.34407 -14.37824,-8.18092 -19.52026,-5.44076 -3.02086,1.60982 -4.13433,3.70892 -3.56812,6.72684 0.58169,3.10098 2.64403,5.33356 15.58675,16.87392 11.79609,10.5179 16.90918,16.4898 20.66777,24.13889 2.98215,6.06902 3.80359,9.94028 3.80359,17.92579 0,5.64495 -0.11149,6.10665 -2.79891,11.59265 -4.99738,10.20139 -9.48423,14.92103 -17.1152,18.00333 -5.42221,2.19012 -13.62752,2.53872 -21.13057,0.89771 z m 20.64801,-3.84493 c 2.33382,-0.74064 4.63782,-1.82766 5.12,-2.41558 0.78848,-0.96139 0.71564,-1.01998 -0.72333,-0.58223 -2.86349,0.87109 -15.66029,1.19417 -18.99264,0.47951 -5.24436,-1.12472 -9.98727,-3.14283 -16.22784,-6.905 l -5.88538,-3.54801 -3.92706,0.44547 c -5.83857,0.66231 -6.1177,1.01699 -2.87359,3.65138 7.60878,6.1787 22.77262,10.9139 33.50651,10.46303 3.44691,-0.14478 7.464,-0.78271 10.00333,-1.58857 z m 0.88774,-5.47388 c 9.72403,-2.92649 17.01862,-13.2727 17.01267,-24.12974 0,-3.20795 -0.48224,-5.50535 -1.94393,-9.29576 -2.18215,-5.65847 -7.0962,-13.49429 -10.53537,-16.79944 -3.68415,-3.5406 -3.7038,-3.09567 -0.41465,9.3649 1.18368,4.48433 1.29683,5.8883 0.77677,9.64116 -0.84852,6.12284 -2.88301,10.45886 -6.49088,13.83358 -3.49453,3.26872 -6.26362,4.22799 -12.21952,4.23305 -4.75085,0.004 -9.51488,-1.23758 -14.67616,-3.82493 -6.59738,-3.30726 -6.4,-3.37299 -6.4,2.13159 0,4.77005 0.01,4.797 2.4,6.68858 3.70694,2.93349 10.85913,6.65454 15.15494,7.88465 4.81619,1.37911 13.21997,1.51115 17.33613,0.27236 z m -39.27565,-10.38376 1.97798,-0.3956 -0.29088,-5.02555 c -0.16006,-2.76404 -0.44755,-5.18213 -0.63891,-5.37352 -0.19142,-0.19139 -2.97502,-0.14968 -6.18581,0.0927 l -5.8378,0.4407 v 5.24151 c 0,2.88282 0.216,5.46308 0.48,5.7339 0.47083,0.48299 6.59241,0.0665 10.49542,-0.71414 z m 37.42835,-11.5843 c 3.55636,-5.27728 4.85408,-13.05164 3.35661,-20.10912 -1.46957,-6.9262 -4.85626,-11.94533 -16.44077,-24.36548 -3.86483,-4.14368 -7.48883,-8.50721 -8.05331,-9.69672 -1.49805,-3.15688 -1.32096,-7.42707 0.4137,-9.97581 2.4119,-3.54379 4.53049,-4.70548 9.11366,-4.99732 6.04493,-0.38491 8.08947,0.20593 13.69421,3.9574 l 5.04134,3.37434 0.38983,-3.24396 c 0.79827,-6.64282 0.68851,-7.01269 -3.11168,-10.48585 -7.51559,-6.86885 -19.40448,-7.59472 -28.27149,-1.72608 -3.88832,2.5735 -5.91162,5.06414 -8.34695,10.27498 -1.57958,3.37971 -1.78099,4.54026 -1.7726,10.213 0.0134,9.12786 1.4336,11.76522 11.16525,20.7355 12.08543,11.13992 18.25337,17.51814 19.47571,20.1396 1.67097,3.58377 2.09651,11.64501 0.81337,15.41066 -0.95001,2.78825 -0.94643,2.98417 0.0512,2.79202 0.59015,-0.11365 1.70695,-1.14738 2.48179,-2.29716 z m -34.59296,-68.57591 c 4.65114,-10.20497 13.21536,-15.40525 25.36903,-15.40421 5.23212,4.4e-4 6.39782,0.2205 9.78016,1.84625 2.112,1.01516 5.34605,3.1498 7.18681,4.74363 3.50432,3.03429 7.13543,4.28962 12.40781,4.28962 2.37267,0 2.53702,-0.11141 2.12454,-1.44 -0.66432,-2.13956 -2.35673,-4.33356 -5.89792,-7.64598 -5.7991,-5.42438 -12.12166,-7.77126 -22.93542,-8.51342 -14.03904,-0.96352 -26.14918,4.63294 -30.66054,14.16916 -3.49646,7.39086 -3.94242,13.90586 -1.46144,21.35024 0.7278,2.1839 0.76851,2.08774 1.62476,-3.84 0.48647,-3.36743 1.58496,-7.63049 2.46221,-9.55529 z m 57.22919,6.07695 c 0,-2.26509 -0.2809,-4.85709 -0.62413,-5.76 -0.60352,-1.58726 -0.8073,-1.64166 -6.14995,-1.64166 h -5.52583 l 0.24019,4.75692 c 0.13216,2.61632 0.39028,4.90699 0.5737,5.0904 0.33402,0.33398 7.33837,1.44515 10.04602,1.59368 1.35232,0.0742 1.44,-0.17174 1.44,-4.03934 z m 118.00761,92.59938 -12.87238,-0.18699 -0.12691,-61.10703 -0.12692,-61.10703 20.6793,0.0209 c 23.66093,0.0239 27.80134,0.39589 32.86963,2.95267 4.82951,2.43632 11.99405,9.98208 14.41306,15.17997 6.16025,13.2371 4.74803,24.17124 -4.5687,35.37263 -1.71719,2.06459 -3.12948,3.91953 -3.13844,4.12209 -0.009,0.20256 2.12013,1.72164 4.73127,3.37573 5.54035,3.50967 7.99609,6.11297 10.56256,11.19714 3.20697,6.35293 4.13843,10.55262 4.13843,18.65883 0,7.69924 -0.95949,12.40105 -3.57799,17.53378 -2.02272,3.9649 -7.47411,9.28879 -11.69107,11.41775 -3.43584,1.73459 -4.69261,1.98204 -12.48,2.45724 -4.76269,0.29063 -12.54745,0.47685 -17.29945,0.41384 -4.752,-0.063 -14.43258,-0.19872 -21.51239,-0.30156 z m 49.7442,-5.0286 c 9.10073,-5.46779 13.36819,-13.82268 13.36819,-26.17244 0,-13.57409 -5.78848,-24.3718 -15.98106,-29.81064 -2.25658,-1.20415 -4.21146,-2.53572 -4.34413,-2.95904 -0.13273,-0.42333 1.5298,-2.67343 3.6944,-5.00025 6.88871,-7.40482 10.09748,-17.18667 8.35117,-25.45835 -1.15507,-5.47116 -5.37107,-13.39659 -9.21254,-17.31804 -4.94285,-5.04577 -9.17101,-6.85205 -17.5522,-7.49833 -9.4416,-0.72805 -35.35564,-0.73717 -35.35564,-0.0125 0,0.3206 1.224,1.17297 2.72,1.89416 2.4231,1.16812 4.39673,1.35402 18.08,1.70297 l 15.36,0.39173 4.63872,2.28115 c 5.22272,2.56836 8.76755,6.0169 11.48121,11.16935 1.63072,3.0962 1.7984,4.01982 1.78253,9.81773 -0.0141,5.14602 -0.28505,6.98633 -1.38298,9.39243 -1.98822,4.35736 -6.01555,8.38438 -10.68268,10.68201 -4.91252,2.41843 -8.53312,3.15977 -18.10048,3.7062 l -7.25632,0.41444 v -18.01754 -18.01754 l 6.88,0.0382 c 12.57312,0.0697 15.03225,1.12414 18.40461,7.89168 1.92473,3.86241 2.0567,7.95255 0.37593,11.65348 -2.26387,4.98485 -7.58745,7.29673 -16.80224,7.29673 h -5.6583 v 2.9557 2.95569 l 5.6,-0.41954 c 13.60934,-1.01959 19.67315,-4.31749 24.1376,-13.1276 3.37683,-6.66388 1.00736,-16.24358 -5.46387,-22.0899 -5.27508,-4.76574 -6.74202,-5.10082 -23.47373,-5.36191 l -14.88,-0.23221 v 51.04213 51.04212 l 19.36,-0.40998 c 10.89549,-0.23073 20.47929,-0.72184 21.92,-1.12325 3.20774,-0.89375 8.13133,-5.93647 9.63148,-9.86456 0.83866,-2.19604 1.01594,-4.27379 0.80321,-9.41241 -0.34112,-8.23995 -1.86548,-12.10848 -6.36532,-16.15422 -4.72563,-4.24874 -7.19149,-4.84006 -20.18336,-4.84006 h -11.08601 v 2.56 c 0,1.408 0.072,2.56882 0.16,2.5796 0.088,0.0108 3.65369,0.27363 7.92371,0.58412 8.18662,0.59526 10.58617,1.36019 13.89491,4.42934 6.04787,5.60998 6.47718,16.28758 0.87328,21.71912 -2.54797,2.46955 -5.18291,3.02653 -17.2519,3.64673 l -8.8,0.45222 v -19.95879 -19.9588 l 14.24,0.21915 c 13.98348,0.2152 14.29766,0.24977 17.44,1.91935 3.8014,2.01973 8.01721,6.25394 9.76531,9.80796 7.0871,14.40837 4.0176,28.73663 -7.38669,34.48045 -5.13203,2.58476 -8.71776,2.95955 -28.31539,2.95955 h -18.51373 l -1.02989,1.57185 c -0.56646,0.86453 -0.82752,1.8994 -0.58009,2.29972 0.33152,0.53646 7.12006,0.60835 25.81516,0.27337 l 25.36532,-0.4545 z m -53.98797,-56.76775 -0.16384,-50.62298 -2.56,-1.74326 -2.56,-1.74325 -0.39636,4.5924 c -0.53657,6.21733 -0.65728,100.58022 -0.13267,103.75676 l 0.41683,2.52435 2.77997,-3.07051 2.77991,-3.07052 z m 31.31725,41.07876 c 5.90227,-1.13395 8.67961,-4.59165 8.60646,-10.71472 -0.0518,-4.35951 -1.16301,-6.04142 -5.87142,-8.88873 -3.31674,-2.00578 -3.68602,-2.08 -10.34784,-2.08 h -6.90829 v 11.40526 11.40528 l 5.6,-0.24451 c 3.08,-0.13449 7.09453,-0.53165 8.92109,-0.88258 z m 0.7783,-61.01213 c 6.23686,-3.2252 6.88282,-12.24338 1.18809,-16.58696 -2.08006,-1.58652 -2.62303,-1.68436 -9.3479,-1.68436 h -7.13958 v 10.01642 10.01643 l 6.67776,-0.37815 c 4.13478,-0.23415 7.41805,-0.76096 8.62163,-1.38338 z m -529.21939,26.42493 v -55.14376 l 2.97022,-5.06639 c 1.84864,-3.15328 3.55606,-5.28913 4.52166,-5.65625 3.94141,-1.49852 33.59228,-0.32239 43.70812,1.73372 14.02728,2.85114 25.33394,11.01744 30.61445,22.11146 3.25363,6.83567 4.2232,10.99105 4.22908,18.12497 0.009,10.63453 -3.98116,19.40802 -12.80637,28.16 -2.83957,2.816 -6.80201,6.09262 -8.80541,7.28139 -8.02421,4.76135 -18.12244,7.11861 -30.49527,7.11861 h -7.49584 l -0.38439,13.38461 -0.38437,13.38461 -2.23548,4.43907 -2.23547,4.43906 -4.36047,0.41177 c -2.39825,0.22648 -7.16846,0.41383 -10.60046,0.41633 l -6.24,0.005 z m 20.22548,50.0396 c 2.60498,-3.9364 1.97521,-4.49947 -5.0054,-4.47521 l -5.94008,0.0206 -2.07383,3.01936 c -2.07057,3.01464 -2.07157,3.02002 -0.64,3.43557 0.7886,0.22891 3.80574,0.44491 6.70475,0.48 l 5.27091,0.0638 1.68365,-2.54415 z m -14.5412,-53.72741 c -0.0417,-27.30665 -0.26959,-50.51245 -0.50655,-51.56845 l -0.43083,-1.92 -0.93345,1.6 c -0.79254,1.35848 -0.96193,9.3738 -1.12209,53.09847 l -0.18864,51.49847 1.62864,-1.53003 1.62864,-1.53003 z m 17.35572,26.92305 v -19.74851 l 6.24818,-0.43034 c 8.04163,-0.55386 17.12114,-2.42357 21.49664,-4.42674 6.36842,-2.91557 10.91831,-8.06874 12.84123,-14.54388 1.86769,-6.28921 0.89761,-11.7521 -3.12373,-17.59091 -5.17007,-7.50671 -13.41578,-10.66775 -29.62232,-11.35593 l -4.64,-0.19703 v 3.63934 3.63933 l 6.88,0.44609 c 8.46268,0.54872 12.39355,1.74772 15.5266,4.73592 3.46919,3.30883 4.37642,6.76005 2.95903,11.25653 -2.29134,7.26899 -9.4765,10.5513 -24.72563,11.29513 l -3.52,0.1717 -0.16943,-19.35776 -0.16942,-19.35776 7.52942,0.39589 c 11.02926,0.57991 18.12474,1.89377 22.6999,4.2033 5.0265,2.53737 10.33294,7.85348 12.53959,12.56246 1.50032,3.20168 1.72994,4.50053 1.72994,9.78558 0,5.57296 -0.17655,6.4525 -2.06519,10.28846 -5.40687,10.98173 -17.51381,17.21764 -33.42783,17.21764 h -5.78698 v 4.8 4.8 l 4.96,-0.0117 c 9.42956,-0.0223 23.34644,-2.57557 28.60161,-5.24744 3.99313,-2.0302 11.65091,-8.00496 14.05321,-10.96458 2.49232,-3.07053 5.45048,-8.80172 7.15191,-13.85626 1.70833,-5.07502 1.60511,-14.84985 -0.21964,-20.8 -4.06831,-13.26597 -16.35579,-22.83781 -32.44862,-25.27721 -5.28958,-0.80181 -38.06185,-2.58463 -38.89847,-2.11609 -0.264,0.14786 -0.48,24.01183 -0.48,53.03106 v 52.76223 h 7.04 7.04 z m 16.07528,-38.45995 c 7.86449,-2.32653 11.07278,-9.37238 6.65716,-14.62004 -1.98494,-2.35896 -5.23888,-3.29406 -13.13698,-3.77524 l -6.39546,-0.38962 v 10.10689 10.10689 l 5.28,-0.37198 c 2.904,-0.20459 6.32187,-0.68019 7.59528,-1.0569 z m -256.7383,64.48231 c -1.39534,-2.88538 -2.53698,-5.57931 -2.53698,-5.98651 0,-0.4072 1.2982,-3.51844 2.88488,-6.91386 l 2.88489,-6.17348 h 11.83511 11.83512 v -36.16 -36.16 h -9.03873 -9.03873 l -4.03337,-2.87816 c -6.5262,-4.657 -6.68917,-4.9944 -6.68917,-13.84816 v -7.59369 h 33.38984 33.38984 l 7.25016,4.21012 7.25016,4.21012 v 7.94988 7.94989 h -13.44 -13.44 v 36.8 36.8 h 3.42044 c 1.88124,0 6.42674,0.18394 10.1011,0.40876 l 6.68066,0.40876 2.07522,5.19124 c 1.14138,2.85518 2.06788,5.61044 2.0589,6.12281 -0.009,0.51237 -1.06974,3.17637 -2.35724,5.92 l -2.34093,4.98843 h -34.8021 -34.8021 z m 71.51664,-1.15385 c 0.77749,-1.584 1.42549,-3.096 1.44,-3.36 0.0145,-0.264 -5.44562,-0.48 -12.13362,-0.48 h -12.16 v -43.2 -43.2 h -2.56 -2.56 v 43.2 43.2 l -16.48,0.003 -16.48,0.003 -1.12,2.72432 c -0.616,1.49838 -1.12,2.92225 -1.12,3.16416 0,0.76516 5.99608,0.9178 34.24,0.87167 l 27.52,-0.0449 1.41362,-2.88 z m -65.22886,-1.00976 c 1.76626,-3.02695 1.58786,-6.16431 -0.54696,-9.61852 l -1.44882,-2.34424 -1.7843,3.44626 c -0.98136,1.89544 -1.79788,3.94255 -1.81449,4.54914 -0.0452,1.65069 2.6936,6.94865 3.46186,6.69668 0.36737,-0.12049 1.32709,-1.34868 2.13271,-2.72932 z m 65.93828,-6.33996 c 0.11312,-0.11312 -0.14788,-1.38571 -0.57999,-2.82797 l -0.78566,-2.62231 -3.8987,-0.004 c -2.14428,-0.002 -6.27469,-0.1888 -9.17869,-0.41486 l -5.28,-0.41102 v 3.27573 3.27574 l 8.16,0.20995 c 7.50292,0.19304 11.03566,0.046 11.56304,-0.48142 z m -31.24304,-42.89028 v -43.2 h 17.28 17.28 v -5.12 -5.12001 h -32 -32 v 4.72001 4.72 l 2,0.4 c 1.1,0.22 5.276,0.4 9.28,0.4 h 7.28 v 39.36 39.36 l -8.8,0.007 c -4.84,0.004 -9.88709,0.1867 -11.21574,0.40629 -2.62966,0.4346 -2.63754,0.49242 -0.69946,5.13092 l 0.89237,2.13574 h 15.35142 15.35141 v -43.2 z m -33.2915,-50.08001 -0.0115,-4.96 -3.18107,-2.08 c -1.74959,-1.144 -3.34053,-2.08 -3.53543,-2.08 -0.19489,0 -0.27024,2.22905 -0.16743,4.95343 l 0.18692,4.95342 3.19268,2.08658 c 1.75597,1.14762 3.26797,2.08658 3.36,2.08658 0.092,0 0.16214,-2.232 0.15582,-4.96001 z m 61.4515,-7.50921 c 0,-0.17007 -1.43043,-1.03407 -3.17873,-1.92 l -3.17872,-1.61079 -28.98128,0.026 -28.98127,0.026 2.21582,1.89399 2.21582,1.89399 h 29.94418 c 16.4693,5e-5 29.94418,-0.13909 29.94418,-0.30916 z m 548.43545,108.77262 c -2.98349,-6.16385 -3.08518,-5.00795 1.27975,-14.5434 l 1.97753,-4.32 h 11.83367 11.8336 v -36.16 -36.16 l -9.12,-1.5e-4 -9.12,-1.4e-4 -4.46579,-3.35986 c -2.4562,-1.84792 -4.82797,-4.07985 -5.2706,-4.95985 -0.50176,-0.99765 -0.80832,-4.31061 -0.81421,-8.80001 l -0.009,-7.2 h 33.4448 33.44473 l 7.03527,4.0893 7.0352,4.0893 0.17913,8.0707 0.17914,8.07071 h -13.45914 -13.45913 v 36.8 36.8 l 4,0.003 c 2.2,0.002 6.76806,0.18663 10.15117,0.41069 l 6.15123,0.40739 2.00877,4.91316 c 1.10489,2.70223 2.00883,5.45663 2.00883,6.12087 0,0.66425 -1.05344,3.45252 -2.34093,6.19615 l -2.34093,4.98843 h -34.76077 -34.76076 l -2.64116,-5.4566 z m 71.1417,0.0166 c 0.59872,-1.056 1.28217,-2.568 1.51885,-3.36 l 0.43027,-1.44 h -11.88314 -11.88313 v -43.2 -43.2 h -2.88 -2.88 v 43.2 43.2 h -16.30701 -16.30701 l -1.29299,2.5345 c -0.71117,1.39398 -1.29299,2.81893 -1.29299,3.16655 0,0.97134 4.53593,1.11243 34.20429,1.0639 l 27.48428,-0.0449 1.08858,-1.92 z m -64.76109,-2.30564 c 1.7593,-3.28635 1.58413,-5.84498 -0.6512,-9.5103 l -1.35142,-2.21595 -1.18004,2.21595 c -2.62393,4.92741 -2.78784,6.2571 -1.19148,9.66539 0.80877,1.72685 1.77824,3.044 2.1543,2.927 0.37606,-0.117 1.37504,-1.50394 2.21984,-3.08209 z m 65.92518,-6.06226 c 0.14509,-0.14511 -0.0819,-1.41771 -0.50438,-2.82797 l -0.76826,-2.56411 -3.97427,-0.004 c -2.18592,-0.002 -6.36793,-0.19016 -9.29337,-0.41788 l -5.31911,-0.41403 0.19911,3.13787 0.19904,3.13787 8,0.36048 c 7.48576,0.33731 10.83488,0.21798 11.46124,-0.40838 z m -31.30124,-42.83208 v -43.2 h 17.28 17.28 v -5.12 -5.12001 h -32 -32 v 4.72001 4.72 l 2,0.4 c 1.10003,0.22 5.27603,0.4 9.28,0.4 h 7.28 v 39.36 39.36 l -8.8,0.007 c -4.84,0.004 -9.85536,0.18155 -11.14522,0.39484 l -2.34522,0.38781 0.91591,2.64515 c 0.50374,1.45483 1.04601,3.00515 1.20512,3.44515 0.22048,0.60979 3.94618,0.8 15.66931,0.8 h 15.3801 v -43.2 z m -33.04,-47.76 c 0.22003,-1.1 0.4,-3.07523 0.4,-4.38939 0,-2.18546 -0.29959,-2.5883 -3.51015,-4.72 -1.93062,-1.28184 -3.65862,-2.33062 -3.84,-2.33062 -0.18144,0 -0.32985,2.14422 -0.32985,4.76494 v 4.76493 l 2.72,1.92653 c 3.45369,2.44618 4.0679,2.44398 4.56,-0.0164 z m 61.2,-9.82922 c 0,-0.17007 -1.4304,-1.03407 -3.17875,-1.92 l -3.17869,-1.61079 h -28.85908 c -20.51884,0 -28.73542,0.19995 -28.43142,0.69188 0.2352,0.38053 1.33216,1.24345 2.43776,1.9176 1.90387,1.16091 3.57574,1.22587 31.61018,1.22813 16.28,0.001 29.6,-0.13675 29.6,-0.30682 z m 108.17625,55.82922 0.016,-57.76001 5.3689,-3.68 5.36889,-3.68 h 8.05089 8.05081 l 0.16403,48.80001 0.16397,48.8 22.49831,0.32 22.49824,0.32 3.84787,5.38356 3.84783,5.38356 -1.5998,3.57644 c -0.8799,1.96704 -2.22365,5.08803 -2.98614,6.93555 l -1.38631,3.3591 -36.96,6.4e-4 -36.96,6.4e-4 0.016,-57.76 z m 67.82375,54.21254 c 0,-0.19111 -1.18663,-1.91911 -2.63687,-3.84 l -2.63692,-3.49254 h -23.60308 -23.60313 v -50.56 -50.56001 h -5.76 -5.76 v 54.40001 54.4 h 32 c 17.6,0 32,-0.15636 32,-0.34746 z m 7.44505,-6.55566 c 1.21735,-3.13113 0.87136,-4.20706 -2.67084,-8.30473 l -1.99751,-2.31081 -2.72032,3.68234 c -1.49619,2.02529 -2.57421,4.02299 -2.39558,4.43933 0.17862,0.41635 1.68019,2.45623 3.33677,4.53307 l 3.01196,3.77608 1.18452,-1.53608 c 0.65152,-0.84484 1.66444,-2.77048 2.251,-4.2792 z m -11.08493,-7.33792 c 1.41415,-1.67257 2.35597,-3.25657 2.09306,-3.52 -0.26297,-0.26343 -9.21632,-0.56282 -19.89638,-0.66531 l -19.41837,-0.18635 -2.58291,3.38635 -2.58298,3.38635 18.05376,0.34889 c 9.92954,0.1919 18.88826,0.3359 19.90823,0.32 1.40697,-0.022 2.47494,-0.76274 4.42559,-3.06993 z m -40.1646,-46.55896 c -0.19853,-22.704 -0.54535,-43.78295 -0.77063,-46.84211 l -0.40966,-5.56211 -2.14765,1.63807 -2.14758,1.63807 v 14.80404 c 3.2e-4,8.14222 0.19168,29.72756 0.42515,47.96742 l 0.42451,33.16338 2.49312,-2.76338 2.49306,-2.76338 -0.36103,-41.28 z m -6.95719,-51.88264 c 1.92122,-0.72793 4.68167,-3.03274 4.68167,-3.90892 0,-0.29065 -2.17428,-0.52845 -4.83181,-0.52845 -5.20282,0 -7.29536,0.73565 -9.83975,3.4592 l -1.55155,1.6608 h 4.86989 c 2.67847,0 5.68064,-0.30718 6.67155,-0.68263 z M 204.78096,255.27254 c -2.57406,-0.37637 -3.16814,-0.95141 -6.12526,-5.929 l -2.53435,-4.26593 4.77795,-22.34628 c 2.62788,-12.29044 6.95597,-32.78237 9.61798,-45.53761 2.66202,-12.75525 5.70035,-27.00689 6.75185,-31.67032 1.05151,-4.66344 1.91183,-8.69933 1.91183,-8.96865 0,-0.69799 11.76491,-0.60821 13.63835,0.10407 0.8985,0.3416 3.42146,3.26328 5.9411,6.88 7.74795,11.12146 15.66998,21.32625 16.55568,21.32625 1.09326,0 5.70654,-7.21284 12.57253,-19.65705 l 5.37234,-9.73705 9.39428,-0.023 c 7.05673,-0.0172 9.60922,0.19198 10.25806,0.84082 0.49046,0.49046 2.47353,9.68751 4.58841,21.28 4.60846,25.26091 13.23482,68.99081 15.64727,79.32118 l 1.79932,7.70496 -2.45479,5.09504 c -1.7008,3.53007 -2.89369,5.22289 -3.88368,5.51125 -0.78588,0.22892 -5.23378,0.44492 -9.88421,0.48 l -8.45533,0.0638 -0.63207,-2.4 c -0.34763,-1.32 -1.96348,-7.728 -3.59076,-14.24 -3.05978,-12.2445 -8.81254,-33.89166 -10.01273,-37.67707 l -0.68391,-2.15708 -2.82673,4.87708 -2.82672,4.87707 -8.4582,-0.0434 -8.45821,-0.0434 -6.63726,-7.98415 c -3.65049,-4.39128 -6.95673,-7.87767 -7.34722,-7.7475 -0.76293,0.25431 -4.83376,14.05387 -12.93666,43.85361 l -5.07886,18.67836 -7.04,-0.0926 c -3.872,-0.0509 -7.904,-0.21896 -8.96,-0.37337 z m 11.2,-3.39925 c 0,-1.55767 -2.10011,-4.54838 -3.59232,-5.11572 -0.88606,-0.33687 -3.89626,-0.6125 -6.68935,-0.6125 -5.75237,0 -5.99204,0.27823 -3.45526,4.01143 l 1.62307,2.38857 h 6.05693 c 3.80232,0 6.05693,-0.25006 6.05693,-0.67178 z m 93.12,-2.06383 c 1.68715,-3.18398 0.95833,-3.64177 -5.81829,-3.65459 l -5.17828,-0.01 -1.75417,3.22297 -1.75415,3.22297 6.61245,-0.18297 6.61244,-0.18297 z m -83.50994,-22.22439 c 2.44174,-8.624 5.86373,-20.84344 7.60443,-27.15431 l 3.16489,-11.47431 -2.28518,-2.28518 c -2.14689,-2.1469 -2.31746,-2.20775 -2.81874,-1.00569 -0.29347,0.70372 -2.71686,10.06349 -5.38533,20.79949 -2.66847,10.736 -5.8278,22.976 -7.02074,27.2 -3.08372,10.91894 -3.17059,11.7439 -1.51645,14.4 l 1.39501,2.24 1.21129,-3.52 c 0.6662,-1.936 3.20908,-10.576 5.65082,-19.2 z m 68.53105,18.75375 1.4553,-3.00625 -1.11335,-5.47376 C 293.07713,231.0402 283.4978,192.00087 282.67798,189.8263 l -0.60274,-1.59876 -1.36475,2.23876 c -1.77776,2.91629 -1.7282,5.58009 0.27243,14.6417 3.5121,15.90774 10.65726,44.23707 11.15735,44.23707 0.28958,0 1.18139,-1.35281 1.9818,-3.00625 z m -82.21266,-3.24355 c 0.40065,-0.25861 1.43672,-3.0622 2.30239,-6.2302 11.09054,-40.58713 15.45341,-55.83176 16.19759,-56.59723 1.19443,-1.22859 1.80303,-0.65546 11.50787,10.83723 8.74157,10.35195 10.38526,12.16 11.05468,12.16 0.69736,0 1.66435,-1.70709 9.48703,-16.74799 3.96695,-7.62739 9.69331,-18.10158 12.72523,-23.27598 8.57194,-14.62921 13.36743,-23.98136 12.65977,-24.68902 -0.34089,-0.3409 -3.15612,-0.53593 -6.25605,-0.43342 l -5.63624,0.1864 -11.26536,19.32121 c -6.19595,10.62666 -11.90725,20.13066 -12.69178,21.12 l -1.42641,1.7988 -2.31897,-2.56 c -1.27543,-1.408 -7.04978,-9.00519 -12.83188,-16.88265 -13.05103,-17.78054 -13.51506,-18.37195 -14.01934,-17.86767 -0.5692,0.5692 -1.31165,3.94915 -9.95296,45.31032 -9.7696,46.76167 -11.29173,54.35896 -10.95778,54.69291 0.52323,0.52322 10.58527,0.39751 11.42221,-0.14271 z m 95.43155,-0.56491 3.36,-0.40358 v -3.43507 c 0,-7.6458 -2.96866,-22.84879 -11.47917,-58.78664 -2.75081,-11.616 -5.66792,-24.504 -6.48246,-28.64 -0.81456,-4.13601 -1.69328,-7.52001 -1.95272,-7.52001 -0.25944,0 -1.40301,1.656 -2.54126,3.68 -1.13825,2.024 -6.01859,10.59201 -10.84521,19.04001 -8.1424,14.25161 -18.41226,33.92924 -19.45662,37.28 -0.43965,1.41058 -0.34443,1.44 4.66205,1.44 h 5.11088 L 273.6887,194.905 c 6.61414,-11.38495 9.04251,-14.71265 10.01203,-13.71993 0.34377,0.352 3.79963,14.14427 7.67968,30.64949 4.09193,17.40653 7.41285,30.23658 7.90759,30.55021 1.02036,0.64681 3.50594,0.69175 8.05296,0.14559 z m -55.70581,-70.95642 1.07349,-2.25113 -3.27467,-4.62887 c -1.80106,-2.54588 -6.62229,-9.45287 -10.71383,-15.34888 l -7.43917,-10.72 h -3.13224 c -1.72272,0 -3.29178,0.25816 -3.48677,0.57368 -0.34327,0.55539 5.2863,8.87689 15.84457,23.4211 9.19953,12.67252 9.31221,12.76317 11.12862,8.9541 z m 743.9801,79.95826 -3.4058,-4.12685 -0.376,-56.00654 -0.3761,-56.00654 34.18185,0.1764 34.1818,0.17639 3.6976,2.40328 3.6976,2.40328 -0.1776,9.11672 -0.1776,9.11673 -23.2,0.16798 -23.2,0.16798 v 12.79202 12.79202 h 14.4 14.4 v 7.95051 7.95051 l -3.429,2.92949 -3.4289,2.92949 h -10.9711 -10.971 v 12.48 12.48 h 7.2571 c 3.9914,0 12.8474,0.18816 19.68,0.41812 l 12.4229,0.41813 3.6138,5.09442 3.6138,5.09443 -1.7693,4.24745 c -0.973,2.33609 -2.2926,5.32745 -2.9322,6.64745 l -1.1631,2.4 -31.0815,-0.043 -31.08155,-0.043 -3.4057,-4.12685 z m 61.32575,0.59328 c 0,-0.23077 -0.7346,-1.38277 -1.6325,-2.56 l -1.6326,-2.14041 h -28.4474 c -15.6461,0 -28.44755,0.20229 -28.44755,0.44953 0,0.24724 0.9205,1.39924 2.0456,2.56 l 2.04555,2.11047 h 28.0345 c 15.4189,0 28.0344,-0.18881 28.0344,-0.41959 z m 6.3648,-9.50041 c 0.01,-0.704 -0.9455,-2.4168 -2.1209,-3.80622 l -2.1372,-2.52622 -1.1333,3.41222 c -1.5368,4.62667 -1.4341,6.03537 0.6378,8.75174 l 1.7712,2.32211 1.4831,-3.43681 c 0.8157,-1.89026 1.4904,-4.01282 1.4993,-4.71682 z m -8.3909,-3.27545 c 1.1487,-2.32949 1.9067,-4.41749 1.6845,-4.64 -0.2223,-0.2225 -11.1803,-0.50316 -24.3512,-0.62369 l -23.9472,-0.21913 v -15.30087 -15.30086 h 15.68 15.68 v -5.44 -5.44 h -15.68 -15.68 v -21.76 -21.76001 l 9.76,-0.001 c 5.368,-6.4e-4 16.024,-0.19073 23.68,-0.42192 l 13.92,-0.42035 v -4.62343 c 0,-4.23032 -0.1201,-4.65486 -1.413,-4.99296 -0.7772,-0.20324 -14.3132,-0.38638 -30.08,-0.40698 l -28.66705,-0.0374 v 52.81233 52.81233 h 28.66275 28.6626 l 2.0886,-4.23544 z m -37.6539,-20.40455 v -12.48 h -2.88 -2.88 v 3.73881 c 0,2.05634 0.1887,7.67234 0.4192,12.48 l 0.4193,8.74119 h 2.4607 2.4608 z m 29.0251,-22.08498 c 0.181,-0.90545 0.1678,-2.84925 -0.03,-4.31957 -0.3182,-2.37237 -0.4935,-2.6011 -1.5572,-2.03187 -1.024,0.54807 -1.1964,1.40683 -1.1843,5.89893 l 0.014,5.25749 1.2136,-1.57936 c 0.6675,-0.86865 1.3618,-2.32018 1.5429,-3.22562 z m -4.1472,-8.89072 c 1.3753,-0.87121 -9.9342,-1.54419 -17.2051,-1.02379 -3.516,0.25166 -6.3928,0.71449 -6.3928,1.02852 0,0.7358 22.436,0.73131 23.5979,-0.004 z m -26.7661,-1.68074 1.8882,-0.97643 v -13.30383 -13.30383 l -1.76,-1.59174 c -4.4969,-4.06697 -4.1426,-5.21047 -3.8987,12.58512 0.1953,14.25882 0.4907,17.56715 1.5683,17.56715 0.1727,0 1.1637,-0.4394 2.2022,-0.97644 z m 44.0482,-30.14356 c 1.1001,-0.22 2,-0.60623 2,-0.85829 0,-0.25206 -1.4069,-1.22406 -3.1266,-2.16 l -3.1266,-1.70171 h -20.5286 -20.5286 l 2.6952,2.544 2.6952,2.54399 18.96,0.016 c 10.4281,0.009 19.8601,-0.164 20.96,-0.384 z m 5.4921,-5.11645 c 0.6083,-3.24229 -0.1852,-7.34048 -1.7512,-9.04356 -2.4824,-2.69989 -3.6342,-1.39493 -3.6521,4.13773 -0.01,2.11223 0.4223,3.18873 1.9775,4.96 1.0925,1.24425 2.2125,2.26228 2.4888,2.26228 0.2764,0 0.6981,-1.0424 0.937,-2.31645 z m -600.29214,102.5247 c -19.13801,-5.80595 -25.75154,-9.71845 -32.39408,-19.16395 -5.29067,-7.52318 -8.25644,-17.09799 -9.5611,-30.86741 -1.51186,-15.95619 3.48613,-34.2207 12.64253,-46.2006 4.31542,-5.64614 11.86396,-11.82437 18.38887,-15.05069 13.69198,-6.77016 28.42974,-6.95596 52.20378,-0.65816 6.90229,1.82844 7.93502,2.38703 12.73872,6.89021 6.63973,6.22437 12.04487,16.24791 14.92943,27.68588 1.89743,7.52377 2.01597,23.89099 0.23318,32.19647 -4.13841,19.27952 -14.55721,34.68397 -28.08327,41.52179 -7.65065,3.86763 -11.75052,4.69937 -24.45806,4.96182 -10.74223,0.22185 -11.86568,0.13305 -16.64,-1.31536 z m 26.65143,-1.93159 c 9.53744,-2.02151 19.05646,-7.18496 24.59437,-13.34083 18.07013,-20.08653 21.92409,-50.98461 9.35191,-74.97647 -2.28857,-4.36735 -4.36031,-7.11684 -8.75771,-11.62266 l -5.76,-5.90202 -5.96834,-1.33734 c -8.0832,-1.81123 -8.63841,-1.70359 -4.74323,0.91958 5.67251,3.8201 12.58402,13.1358 15.97584,21.5331 3.04911,7.54882 4.17062,15.10118 3.83274,25.80998 -0.56281,17.83749 -5.4418,29.48627 -16.63711,39.72176 -8.74341,7.99381 -18.95629,10.81833 -29.84034,8.25278 -9.32196,-2.19735 -16.60136,-8.14725 -21.42463,-17.51167 -4.84808,-9.41257 -5.84331,-13.60884 -5.78291,-24.38287 0.0598,-10.67803 1.09778,-15.50841 5.37205,-25.00098 1.41676,-3.14642 2.56294,-6.08038 2.54708,-6.5199 -0.0159,-0.43952 -1.56294,0.86285 -3.43792,2.89416 -8.0905,8.76503 -11.925,21.1022 -11.93185,38.38979 -0.003,8.50862 0.52504,12.23197 2.62416,18.4906 2.94221,8.77234 8.6389,16.75633 14.29965,20.04115 3.09547,1.79624 9.75569,4.11594 13.83481,4.81855 4.86663,0.83827 17.33598,0.68036 21.85143,-0.27671 z m -49.32525,-13.07037 c -1.6801,-3.13929 -5.18545,-17.25819 -5.88415,-23.70026 -1.05582,-9.73476 0.0405,-21.81934 2.7059,-29.82603 3.39339,-10.19359 10.00976,-19.43187 16.35488,-22.83591 3.98028,-2.13535 13.61735,-4.36409 18.87026,-4.36409 5.19694,0 11.94054,1.85644 15.38302,4.23479 6.39957,4.42135 12.63126,14.34966 15.21795,24.24521 2.43617,9.31973 2.9943,16.24075 1.85144,22.95866 -0.55276,3.24916 -1.53407,7.02248 -2.1807,8.38515 -1.43571,3.02554 -7.87383,10.01179 -11.56944,12.55443 -6.41256,4.41196 -17.97431,4.97626 -27.35177,1.33498 -5.52887,-2.14687 -6.07211,-1.50737 -1.40364,1.65235 4.85143,3.28356 9.08983,4.27688 18.28007,4.28415 8.96021,0.007 11.26808,-0.68182 16.59669,-4.95417 7.4124,-5.94308 12.59683,-14.18575 15.67142,-24.91585 4.20418,-14.67227 3.67326,-27.80699 -1.62754,-40.26462 -3.88037,-9.1194 -8.38859,-14.86355 -15.19586,-19.36179 -8.83561,-5.83856 -21.45368,-8.40446 -32.08471,-6.52446 -12.77396,2.25895 -24.93852,11.55038 -32.55833,24.86842 -2.608,4.5583 -5.56938,13.61971 -6.85253,20.96777 -3.00617,17.21494 2.30205,38.44135 12.31894,49.26078 3.52842,3.81112 4.83012,4.56414 3.4581,2.00049 z m 46.99382,-9.70166 c 4.04425,-2.00271 9.79656,-7.71656 11.70693,-11.62865 3.60053,-7.37328 4.19011,-19.42515 1.47027,-30.05461 -2.81627,-11.00634 -10.06424,-20.64548 -18.24502,-24.26423 -1.82786,-0.80855 -5.02418,-1.40886 -8.83383,-1.6591 -5.56856,-0.36579 -6.212,-0.27747 -9.57727,1.31455 -6.11718,2.8939 -11.00355,9.78579 -14.19985,20.02794 -6.97292,22.34389 -0.2034,40.8846 17.19041,47.08196 4.97103,1.77117 16.16222,1.32443 20.48836,-0.81786 z"
       id="path861" />
    <path
       style="fill:#ffffff;stroke:#ffffff;stroke-width:0.217952;stroke-opacity:0"
       d="m 96.479466,109.75664 c -0.635412,-0.19405 -0.635446,-0.18947 0.02874,-3.95899 1.338808,-7.598318 18.024524,-87.494097 19.504384,-93.392352 0.7523,-2.9984058 0.86555,-3.0738927 2.20218,-1.467779 1.21137,1.455618 4.16639,5.39778 10.08587,13.455128 8.99632,12.245416 14.16768,18.996628 16.53688,21.588905 l 1.12266,1.228372 0.436,-0.511049 c 1.45913,-1.7103 6.61178,-10.23938 17.7551,-29.389661 3.94104,-6.772853 7.17208,-12.3293496 7.18008,-12.3477709 0.008,-0.018421 1.84208,-0.104575 4.07573,-0.1914524 4.02195,-0.1564334 7.01587,-0.02662 7.59154,0.3291609 0.40737,0.2517681 -0.26039,2.0600753 -2.17488,5.8895724 -2.18389,4.368384 -4.31906,8.223357 -10.53066,19.012752 -3.59414,6.242933 -7.81833,14.001187 -13.48924,24.774676 -7.25407,13.781119 -7.86452,14.841496 -8.54421,14.841496 -0.46395,0 -2.85528,-2.648795 -10.03508,-11.115542 -7.83395,-9.238154 -10.62802,-12.205302 -11.49334,-12.205302 -0.31854,0 -0.72461,0.145442 -0.90237,0.323203 -0.79716,0.797155 -3.80027,11.08581 -12.97898,44.465894 -4.39152,15.970569 -5.10215,18.210139 -5.88375,18.542649 -0.50243,0.21375 -9.832966,0.32771 -10.48665,0.12809 z"
       id="path865"
       transform="translate(104.62096,133.50508)" />
    <path
       style="fill:#ffffff;stroke:#ffffff;stroke-width:0.217952;stroke-opacity:0"
       d="m 222.84536,97.699239 c 0.0125,-29.19031 0.38265,-75.358845 0.63818,-79.591704 0.16655,-2.758911 0.32403,-3.901415 0.63453,-4.603349 0.42839,-0.968445 0.88685,-1.444207 0.91381,-0.948287 0.009,0.156916 0.10158,1.069929 0.20679,2.028917 0.10521,0.958988 0.29713,23.900068 0.4265,50.980179 l 0.23522,49.236565 -0.4965,0.53281 c -0.27307,0.29305 -0.96237,0.92442 -1.53177,1.40304 l -1.03527,0.87023 z"
       id="path867"
       transform="translate(104.62096,133.50508)" />
    <path
       style="fill:#ffffff;stroke:#ffffff;stroke-width:0.217952;stroke-opacity:0"
       d="m 335.58471,104.57627 c -3.5452,-3.4542 -5.94403,-6.874174 -8.39228,-11.964706 -3.65108,-7.591536 -5.59451,-15.358245 -6.23112,-24.902043 -0.5913,-8.864582 0.78799,-17.492668 4.43347,-27.733319 2.48532,-6.981635 6.59092,-13.387833 12.16251,-18.977882 7.57156,-7.596637 16.29479,-12.0962645 25.72106,-13.2674663 2.38036,-0.2957563 7.28377,-0.2939557 9.9856,0.00367 7.19637,0.7927222 14.39688,3.3420993 20.09072,7.1132203 3.48406,2.307548 7.58,6.404845 9.86856,9.871834 4.54081,6.878956 7.58045,14.835381 8.82127,23.090168 0.5769,3.837981 0.51595,12.17416 -0.11881,16.250134 -2.21937,14.251062 -7.24843,25.032774 -15.17709,32.537912 -3.90458,3.695998 -7.61011,6.020408 -10.68857,6.704708 -2.11397,0.46991 -10.68487,0.66877 -14.45543,0.33538 -4.92932,-0.43584 -8.64263,-1.65601 -12.07055,-3.966303 -1.76674,-1.190718 -3.22444,-2.374375 -3.22444,-2.618253 0,-0.360553 0.71093,-0.190784 4.15841,0.993024 4.18028,1.435439 6.58933,1.975902 10.38988,2.330962 6.56022,0.61288 13.33844,-0.852227 17.5323,-3.789589 2.99232,-2.09581 8.95894,-8.434982 10.77694,-11.449844 1.34589,-2.231942 2.74573,-7.985898 3.18375,-13.08657 0.65182,-7.590479 -1.4759,-19.004144 -5.02949,-26.979504 -2.64235,-5.930262 -6.17173,-11.017065 -10.23713,-14.754507 -2.60497,-2.394827 -5.43982,-3.831671 -9.76218,-4.947966 -3.51652,-0.908179 -5.83866,-1.163542 -9.24308,-1.016446 -3.39911,0.146866 -5.5765,0.505666 -10.13476,1.670052 -5.29399,1.352325 -7.71634,2.410579 -10.37888,4.534242 -3.77935,3.014443 -7.22972,7.466074 -10.18844,13.145033 -3.10832,5.966117 -4.79419,11.652466 -5.84169,19.703813 -0.56911,4.374241 -0.57254,15.894517 -0.006,19.506687 1.15547,7.364694 3.94497,18.266279 5.62759,21.993039 0.3468,0.76813 0.58266,1.44449 0.52413,1.50302 -0.0585,0.0585 -1.00193,-0.76609 -2.09643,-1.8325 z"
       id="path869"
       transform="translate(104.62096,133.50508)" />
    <path
       style="fill:#ffffff;stroke:#ffffff;stroke-width:0.435904;stroke-opacity:0"
       d="m 490.04851,96.17807 c 0,-0.238849 0.31526,-1.292594 0.70059,-2.341661 0.47261,-1.286687 0.6979,-3.325923 0.6923,-6.266433 -0.0162,-8.500308 -2.00717,-11.921598 -12.60999,-21.668812 -9.89996,-9.101079 -16.34182,-15.911082 -17.72476,-18.737713 -2.30694,-4.71523 -2.52218,-12.523884 -0.50507,-18.324077 3.28378,-9.442508 11.94313,-15.56167 22.05396,-15.584522 5.64555,-0.01276 10.23244,1.83644 15.21164,6.132555 l 3.10284,2.677162 -0.29878,3.983065 c -0.49124,6.548728 -0.16115,6.338783 -4.89157,3.111087 -2.24217,-1.529891 -4.97427,-3.08746 -6.07133,-3.461267 -2.37634,-0.8097 -9.44329,-0.917847 -11.89901,-0.182094 -5.04908,1.51274 -8.03071,7.546987 -6.48293,13.120185 0.52782,1.900569 3.56462,5.805696 10.42686,13.408286 10.74954,11.909262 13.48625,16.290137 14.70992,23.547405 0.56321,3.340281 0.60421,4.768511 0.21943,7.64432 -0.56977,4.258407 -1.8514,8.091774 -3.47426,10.391541 -1.24334,1.761944 -3.15984,3.309153 -3.15984,2.550973 z"
       id="path883"
       transform="translate(104.62096,133.50508)" />
    <path
       style="fill:#ffffff;stroke:#ffffff;stroke-width:0.435904;stroke-opacity:0"
       d="m 445.47736,106.28948 c -0.17981,-0.1864 -0.32693,-2.63321 -0.32693,-5.43737 v -5.098472 l 4.25006,-0.301071 c 2.33754,-0.165589 4.98565,-0.413691 5.8847,-0.551338 l 1.63464,-0.250267 -0.0435,4.305772 c -0.0575,5.701666 -0.27205,6.377186 -2.15229,6.777786 -2.50533,0.53379 -8.89709,0.9174 -9.24673,0.55496 z"
       id="path885"
       transform="translate(104.62096,133.50508)" />
    <path
       style="fill:#ffffff;stroke:#ffffff;stroke-width:0.435904;stroke-opacity:0"
       d="m 578.33459,94.435458 c 0.96969,-3.198364 1.20828,-6.969436 0.67901,-10.732435 -0.85708,-6.09375 -0.91768,-6.174531 -15.24679,-20.325698 -7.16147,-7.072536 -13.52769,-13.643783 -14.14714,-14.602771 -1.88648,-2.920474 -2.57262,-6.587804 -2.39782,-12.816054 0.15357,-5.471731 0.16116,-5.50628 2.06566,-9.408423 6.77996,-13.891522 24.37775,-17.711685 35.7526,-7.761244 3.31952,2.903836 3.68471,3.850746 3.31377,8.59241 -0.1702,2.175676 -0.39747,4.098197 -0.50505,4.272269 -0.10759,0.174072 -1.97827,-0.884062 -4.15708,-2.351407 -5.55478,-3.740929 -7.50743,-4.430889 -12.43668,-4.39445 -2.20693,0.01632 -4.75697,0.268207 -5.66675,0.55976 -5.09494,1.632752 -8.00021,7.070238 -6.6918,12.524317 0.60793,2.534135 2.56326,5.109591 10.48644,13.812204 9.78587,10.748538 13.29717,16.132301 14.63376,22.437463 1.17819,5.557924 0.50599,11.951924 -1.78317,16.961742 -1.04542,2.287919 -3.43173,5.302859 -4.19717,5.302859 -0.18125,0 -0.0471,-0.931744 0.29821,-2.070542 z"
       id="path887"
       transform="translate(104.62096,133.50508)" />
    <path
       style="fill:#ffffff;stroke:#ffffff;stroke-width:0.435904;stroke-opacity:0"
       d="m 533.05766,106.24118 c -0.15983,-0.15983 -0.2906,-2.58342 -0.2906,-5.38576 v -5.095159 l 2.94235,-0.277887 c 1.61829,-0.152838 4.26641,-0.279281 5.8847,-0.280986 2.74956,-0.0029 2.94503,0.06117 2.9833,0.977685 0.0225,0.53943 0.16964,2.790482 0.32692,5.002337 l 0.28598,4.02155 -1.08976,0.22686 c -4.41441,0.91898 -10.48896,1.36529 -11.04289,0.81136 z"
       id="path889"
       transform="translate(104.62096,133.50508)" />
    <path
       style="fill:#ffffff;stroke:#ffffff;stroke-width:0.435904;stroke-opacity:0"
       d="m 634.10265,109.6937 c -1.66823,-0.085 -3.27278,-0.35343 -3.56565,-0.59649 -0.92277,-0.76584 -2.35036,-5.55718 -1.76378,-5.9197 0.28147,-0.17397 5.26959,-0.39723 11.08471,-0.49615 l 10.57293,-0.17985 V 62.887854 23.274193 h -8.00973 c -4.40535,0 -8.62271,-0.122598 -9.37192,-0.27244 l -1.3622,-0.27244 v -4.5225 -4.5225 h 31.82096 31.82097 v 4.78988 4.78988 l -17.10922,0.114036 -17.10922,0.114035 -0.11109,43.263434 -0.11109,43.263432 -11.87626,-0.0854 c -6.53194,-0.047 -13.24118,-0.15493 -14.90941,-0.23994 z"
       id="path891"
       transform="translate(104.62096,133.50508)" />
    <path
       style="fill:#ffffff;stroke:#ffffff;stroke-width:0.435904;stroke-opacity:0"
       d="m 711.68537,116.53323 c -0.41617,-3.38473 -0.0831,-106.441139 0.34613,-107.1046812 0.26579,-0.4108536 0.95589,-0.1342889 2.71923,1.0897592 l 2.36306,1.640342 -0.0138,50.56482 -0.0138,50.56482 -2.55452,2.80904 -2.55452,2.80904 -0.29179,-2.37314 z"
       id="path893"
       transform="translate(104.62096,133.50508)" />
    <path
       style="fill:#ffffff;stroke:#ffffff;stroke-width:0.435904;stroke-opacity:0"
       d="M 801.68942,65.338892 V 11.068891 h 5.44879 5.4488 v 50.56482 50.564819 h 23.66629 23.66629 l 2.50629,3.37825 2.5063,3.37826 -7.1018,0.26662 c -3.90599,0.14664 -18.13561,0.29376 -31.62138,0.32693 l -24.51958,0.0603 z"
       id="path895"
       transform="translate(104.62096,133.50508)" />
    <path
       style="fill:#ffffff;stroke:#ffffff;stroke-width:0.435904;stroke-opacity:0"
       d="m 894.35844,116.62831 -2.07707,-2.10878 12.7731,-0.28789 c 7.0252,-0.15834 19.75244,-0.28825 28.28275,-0.28869 l 15.50966,-8e-4 1.40796,1.96054 c 0.77438,1.07831 1.28644,2.15717 1.13793,2.39747 -0.1758,0.28445 -9.81233,0.43692 -27.61365,0.43692 h -27.34361 z"
       id="path897"
       transform="translate(104.62096,133.50508)" />
    <path
       style="fill:#ffffff;stroke:#ffffff;stroke-width:0.435904;stroke-opacity:0"
       d="m 912.48854,20.487207 -2.50725,-2.426288 20.19869,-0.0088 20.1987,-0.0088 2.79134,1.561009 c 3.19733,1.788048 3.52475,2.135397 2.46968,2.619983 -0.41818,0.192066 -9.73414,0.425698 -20.70213,0.519182 l -19.94179,0.169972 z"
       id="path899"
       transform="translate(104.62096,133.50508)" />
    <path
       style="fill:#ffffff;stroke:#ffffff;stroke-width:0.435904;stroke-opacity:0"
       d="m 11.783948,106.99117 c -0.845213,-2.1113 -1.029392,-3.02747 -0.679138,-3.37825 0.590227,-0.59112 6.817471,-1.03339 15.368143,-1.09148 l 6.429578,-0.0437 V 63.092149 23.706541 L 24.511387,23.44682 C 19.896257,23.303973 15.67889,23.056287 15.139459,22.896405 14.203986,22.619141 14.158676,22.396613 14.158676,18.079564 V 13.553416 H 45.97964 77.800604 v 5.012891 5.012892 H 60.582411 43.364218 V 66.733657 109.88812 H 28.153945 12.943673 Z"
       id="path901"
       transform="translate(104.62096,133.50508)" />
  </g>
</svg>
