<?xml version="1.0" encoding="UTF-8" standalone="no"?>
<svg
   xmlns:dc="http://purl.org/dc/elements/1.1/"
   xmlns:cc="http://creativecommons.org/ns#"
   xmlns:rdf="http://www.w3.org/1999/02/22-rdf-syntax-ns#"
   xmlns:svg="http://www.w3.org/2000/svg"
   xmlns="http://www.w3.org/2000/svg"
   xmlns:sodipodi="http://sodipodi.sourceforge.net/DTD/sodipodi-0.dtd"
   xmlns:inkscape="http://www.inkscape.org/namespaces/inkscape"
   version="1.1"
   id="svg1478"
   width="742.31714"
   height="126.63757"
   viewBox="0 0 742.31714 126.63757"
   sodipodi:docname="possible_text.svg"
   inkscape:version="1.0.2 (e86c870879, 2021-01-15, custom)">
  <metadata
     id="metadata1484">
    <rdf:RDF>
      <cc:Work
         rdf:about="">
        <dc:format>image/svg+xml</dc:format>
        <dc:type
           rdf:resource="http://purl.org/dc/dcmitype/StillImage" />
        <dc:title></dc:title>
      </cc:Work>
    </rdf:RDF>
  </metadata>
  <defs
     id="defs1482" />
  <sodipodi:namedview
     pagecolor="#ffffff"
     bordercolor="#666666"
     borderopacity="1"
     objecttolerance="10"
     gridtolerance="10"
     guidetolerance="10"
     inkscape:pageopacity="0"
     inkscape:pageshadow="2"
     inkscape:window-width="1920"
     inkscape:window-height="1001"
     id="namedview1480"
     showgrid="false"
     inkscape:zoom="1.8519894"
     inkscape:cx="535.47055"
     inkscape:cy="42.314906"
     inkscape:window-x="-9"
     inkscape:window-y="-9"
     inkscape:window-maximized="1"
     inkscape:current-layer="g1486" />
  <g
     inkscape:groupmode="layer"
     inkscape:label="Image"
     id="g1486"
     transform="translate(-100.33448,-152.42015)">
    <path
       style="fill:#000000;stroke-width:0.64"
       d="m 353.45448,277.83911 c -11.99196,-2.52119 -22.9645,-7.50532 -28.18526,-12.80276 l -3.17474,-3.22138 -0.2122,-7.97741 c -0.11671,-4.38757 0.0273,-7.99428 0.32,-8.0149 0.29271,-0.0206 4.1322,-0.40933 8.5322,-0.86379 l 8,-0.82631 6.01677,3.3991 c 6.72778,3.80077 10.32621,4.667 14.36693,3.45846 6.13647,-1.83535 8.69874,-5.67592 8.72224,-13.07373 0.0202,-6.36181 -1.31444,-8.24031 -13.596,-19.13608 -12.92366,-11.46542 -18.14151,-16.97793 -20.72037,-21.89045 -4.51519,-8.60107 -4.52943,-19.3575 -0.0376,-28.41748 3.26726,-6.59009 13.17847,-13.30249 21.87901,-14.81762 5.26815,-0.91741 16.24337,-0.41624 21.44905,0.97943 6.28973,1.68632 12.50579,5.30834 16.57439,9.65768 4.89723,5.23516 5.82824,7.98843 5.81688,17.20229 -0.0134,10.85557 0.47554,10.2301 -7.61001,9.73518 -9.25006,-0.56619 -11.13588,-1.11562 -14.51271,-4.22828 -3.72674,-3.43519 -10.00547,-6.41974 -13.50688,-6.4204 -5.34512,-0.001 -9.16167,2.6044 -9.16167,6.25433 0,4.00318 1.8174,6.30907 12.38678,15.71624 15.85238,14.10925 20.12909,19.03171 24.462,28.15557 2.54583,5.3608 3.83788,13.54781 3.14734,19.94287 -0.53087,4.91637 -5.62112,15.02924 -9.9477,19.7632 -7.12533,7.79625 -17.46747,10.27309 -31.00842,7.42624 z m 17.15366,-2.93797 c 4.61504,-1.04097 9.82667,-3.23399 9.19252,-3.86813 -0.18582,-0.18583 -1.8119,-0.0218 -3.61352,0.36464 -4.59843,0.98619 -13.67484,0.85755 -18.41924,-0.26106 -4.20773,-0.99207 -9.10559,-3.24629 -16.31454,-7.50871 -4.10839,-2.42914 -4.49931,-2.53266 -7.94034,-2.10274 -5.49973,0.68714 -5.69628,0.85133 -3.61813,3.02226 2.6239,2.74103 7.40924,5.28515 14.25516,7.57875 11.45825,3.83886 18.47764,4.57508 26.45809,2.77499 z m 7.3163,-7.55649 c 8.25471,-3.74524 14.27628,-13.49064 14.23654,-23.04065 -0.0265,-6.36621 -5.48075,-18.06585 -11.44808,-24.55667 -5.02284,-5.46349 -5.27842,-4.80536 -2.14066,5.51234 1.37712,4.52831 1.56258,6.09895 1.24696,10.56 -0.46473,6.5684 -1.30132,9.13795 -4.24289,13.03184 -3.29825,4.36603 -6.7916,6.12647 -12.85345,6.47739 -5.61085,0.3248 -9.4404,-0.58699 -17.07174,-4.06471 -5.72427,-2.60863 -5.93236,-2.49157 -5.94684,3.34535 l -0.01,3.9494 3.68,2.63465 c 8.41686,6.02595 15.60368,8.41769 24.48,8.14685 5.05785,-0.15433 6.75079,-0.48985 10.06996,-1.99579 z m -42.69127,-9.10423 1.90131,-0.38026 v -5.00223 c 0,-2.75123 -0.26596,-5.16661 -0.59102,-5.3675 -0.32506,-0.2009 -3.02839,-0.17792 -6.00739,0.0511 l -5.41636,0.41633 -0.40713,3.59858 c -0.22393,1.97922 -0.21353,4.5666 0.0231,5.74974 l 0.43023,2.15116 4.08299,-0.41831 c 2.24563,-0.23008 4.93856,-0.58944 5.98428,-0.79858 z m 38.87156,-13.23289 c 0.80928,-1.6228 1.94172,-4.85632 2.51653,-7.1856 1.98009,-8.02388 -0.82816,-17.44439 -7.64245,-25.63726 -1.49838,-1.80153 -5.64919,-6.44334 -9.22402,-10.31516 -8.39988,-9.09771 -9.85407,-11.93043 -8.57089,-16.6958 0.72158,-2.67974 3.89285,-6.08151 6.63224,-7.11431 0.99091,-0.37358 3.66639,-0.67925 5.9455,-0.67925 4.54852,0 6.87632,0.91381 13.16657,5.16875 l 3.63373,2.45797 0.20627,-5.47481 0.20627,-5.47481 -3.2,-2.72443 c -4.18967,-3.56703 -6.24815,-4.57473 -11.16721,-5.46672 -16.1337,-2.9256 -29.84449,10.68933 -27.49213,27.29994 1.09535,7.73457 3.09971,10.48839 16.01219,21.99937 5.569,4.96454 11.10417,10.37381 12.3004,12.02059 4.2297,5.82283 5.03485,12.48221 2.56663,21.22859 -0.44034,1.56042 -0.41698,1.57256 1.09451,0.56897 0.84944,-0.56401 2.20659,-2.35322 3.01586,-3.97603 z m -37.96731,-58.00315 c 1.17345,-7.85522 3.65719,-12.87401 8.66625,-17.51152 5.64373,-5.22509 9.29232,-6.48017 18.89081,-6.49824 8.8261,-0.0166 10.11085,0.44467 16.79616,6.03079 3.96416,3.31237 7.35475,4.51474 12.73119,4.51474 3.5052,0 2.76993,-2.55838 -2.2629,-7.87387 -5.23669,-5.53078 -12.00865,-8.41803 -22.30125,-9.5082 -11.79479,-1.24928 -21.6227,1.46181 -28.16565,7.76967 -4.23425,4.08211 -7.83755,12.39539 -7.83755,18.08223 0,2.67031 1.86257,11.64093 2.32168,11.18182 0.15322,-0.15321 0.67578,-2.93755 1.16126,-6.18742 z m 59.62587,-3.96288 c -0.23937,-2.87027 -0.58577,-5.46227 -0.76978,-5.76 -0.18402,-0.29774 -2.84317,-0.54135 -5.90924,-0.54135 h -5.57467 l 0.24223,4.96 c 0.13322,2.728 0.30236,5.02755 0.37586,5.1101 0.16403,0.18422 8.42444,1.25721 10.53881,1.36894 1.53071,0.0809 1.53164,0.0765 1.09679,-5.13769 z m 45.37119,94.79761 c -11.78682,-2.47806 -21.88458,-7.02548 -27.77477,-12.50804 l -3.52063,-3.27701 -0.26956,-8.09695 c -0.14826,-4.45333 -0.0188,-8.11228 0.2877,-8.13101 0.30649,-0.0188 4.27399,-0.41183 8.81667,-0.87355 l 8.25941,-0.83949 5.13744,3.12035 c 6.01678,3.65443 9.25318,4.66634 13.19587,4.12594 6.49659,-0.89046 10.42615,-5.83492 10.49363,-13.20382 0.0563,-6.1399 -1.18998,-8.02823 -11.15676,-16.9054 -14.33776,-12.7703 -21.22086,-19.99753 -23.51595,-24.69169 -4.04504,-8.27331 -4.19905,-18.35173 -0.40949,-26.79599 3.26563,-7.27681 13.1992,-14.44232 22.37644,-16.14111 4.84513,-0.89688 16.62138,-0.31629 21.76,1.0728 9.09171,2.45771 17.55132,8.82831 20.73398,15.61396 1.48898,3.17459 1.66206,4.30016 1.62871,10.59205 -0.0205,3.872 -0.25267,7.87448 -0.51589,8.8944 l -0.47857,1.8544 -6.52411,-0.39873 c -9.952,-0.60822 -10.9148,-0.88616 -14.77668,-4.26561 -4.25838,-3.72641 -8.57751,-5.87837 -12.56782,-6.26179 -8.14715,-0.78284 -12.54151,4.65799 -8.77634,10.86633 0.7902,1.30295 4.89272,5.45184 9.11672,9.21976 19.58191,17.46759 23.60493,22.22355 27.5943,32.62152 1.49013,3.88389 1.70855,5.41549 1.77263,12.42973 l 0.0731,8 -3.41339,6.65475 c -4.12763,8.04726 -8.34412,12.7593 -13.80936,15.43234 -6.99909,3.42326 -13.85444,3.96962 -23.73725,1.89186 z m 19.61442,-3.42386 c 6.37647,-2.00313 9.31133,-4.66752 3.30373,-2.99928 -3.21743,0.89345 -13.33967,0.87092 -17.60665,-0.0392 -4.29207,-0.91545 -8.747,-2.87963 -15.91801,-7.01827 -5.54146,-3.19817 -5.74715,-3.26013 -9.41107,-2.83489 -5.36775,0.623 -5.75614,1.05045 -3.08524,3.39553 4.70668,4.13253 12.99986,7.62881 23.74282,10.00964 5.25574,1.16477 14.4216,0.9167 18.97442,-0.51354 z m 5.10647,-7.01998 c 7.4689,-3.55353 13.2988,-12.4799 13.85978,-21.22118 0.34631,-5.39626 -0.61271,-8.934 -4.43788,-16.37086 -2.49327,-4.8474 -8.97128,-13.38308 -10.15686,-13.38308 -1.06142,0 -0.70013,2.89908 1.05269,8.44697 1.45706,4.61175 1.63575,6.07331 1.35384,11.07304 -0.36652,6.50007 -1.71755,10.29786 -4.98877,14.02357 -3.0892,3.51841 -6.50011,5.01927 -12.17808,5.35857 -5.56633,0.33263 -9.20829,-0.53461 -16.82875,-4.00737 -2.72128,-1.24012 -5.07582,-2.25477 -5.23232,-2.25477 -0.1565,0 -0.28454,2.23428 -0.28454,4.96508 v 4.96509 l 4,2.66444 c 9.37081,6.24199 14.74403,7.97002 23.84,7.66696 5.33923,-0.17789 6.99683,-0.49719 10.00089,-1.92646 z m -42.48089,-9.17302 c 1.34175,-0.3176 1.44,-0.68286 1.44,-5.3537 0,-2.75707 -0.26596,-5.17723 -0.59102,-5.37812 -0.32506,-0.2009 -3.06106,-0.17541 -6.08,0.0566 l -5.48898,0.42192 v 5.23892 c 0,2.8814 0.216,5.45614 0.48,5.72163 0.46239,0.465 7.27569,-0.006 10.24,-0.70729 z m 37.20744,-10.81521 c 2.5971,-3.30168 4.12693,-8.56185 4.17255,-14.34689 0.0805,-10.20929 -2.44907,-15.00682 -15.34872,-29.11008 -4.44724,-4.8622 -8.63053,-9.73351 -9.29619,-10.82514 -1.73673,-2.84808 -1.62972,-7.90626 0.22492,-10.63129 2.58327,-3.79561 4.51848,-4.76394 10.02,-5.01378 4.39549,-0.19961 5.37613,-0.0234 8.43679,1.51608 1.90476,0.95806 4.79435,2.71192 6.4213,3.89746 l 2.9581,2.15552 0.32543,-5.27439 c 0.36905,-5.98124 0.16034,-6.386 -5.40342,-10.47902 -3.62223,-2.66472 -10.6959,-4.39411 -15.45229,-3.77782 -8.28757,1.07382 -14.89229,5.71015 -18.46091,12.95906 -1.77532,3.60617 -2.1096,5.05242 -2.32028,10.03829 -0.4301,10.17886 1.80085,13.94175 15.40605,25.98511 9.43061,8.348 13.78337,13.00843 15.26074,16.33945 2.09109,4.71476 2.20491,12.37627 0.25404,17.10056 -0.7303,1.76851 1.29446,1.38326 2.80189,-0.53312 z m -36.49399,-61.06689 c 0.95158,-7.02306 3.12001,-11.43839 8.04249,-16.376 5.6254,-5.64271 9.23697,-6.95069 19.24406,-6.96953 7.08679,-0.0134 7.92717,0.11633 10.88,1.67887 1.76,0.93134 4.496,2.83078 6.08,4.22097 4.02307,3.53085 5.04852,3.96188 10.52757,4.42503 l 4.83128,0.40839 -0.75146,-2.17387 c -1.16084,-3.35804 -7.86185,-9.64999 -12.68739,-11.91284 -5.95993,-2.79482 -10.16245,-3.60658 -18.88,-3.64686 -5.89739,-0.0273 -8.49703,0.24267 -11.2,1.16291 -11.23896,3.82637 -17.29282,10.58268 -19.23868,21.47103 -0.66144,3.7012 -0.61377,5.03348 0.33223,9.28555 0.60745,2.73039 1.32459,4.7173 1.59363,4.41535 0.26905,-0.30195 0.82086,-2.997 1.22627,-5.989 z m 59.48165,-3.07848 c -0.15914,-2.74916 -0.50114,-5.34116 -0.76,-5.76 -0.30368,-0.49137 -2.38704,-0.76152 -5.87287,-0.76152 h -5.40223 v 4.82009 c 0,5.40391 -0.21585,5.16636 5.44,5.9868 7.46131,1.08233 6.92597,1.43018 6.5951,-4.28537 z m 118.0449,93.47925 -12.96,-0.18727 V 215.4469 154.34015 l 20.32,0.0198 c 22.66119,0.022 28.12441,0.49094 32.69297,2.806 3.77577,1.91332 9.71356,7.22287 12.32943,11.02492 4.36455,6.34368 6.9401,16.78551 5.77357,23.40777 -0.93062,5.28331 -4.31808,12.12785 -8.29472,16.7598 l -3.24365,3.77825 4.6112,2.83625 c 5.8441,3.59456 6.58042,4.25712 9.13639,8.22083 4.38336,6.79772 5.5351,10.66271 5.8791,19.72905 0.35917,9.46811 -0.29632,13.46035 -3.18515,19.39914 -2.3888,4.91079 -7.48602,9.87872 -12.48301,12.16643 -3.10976,1.42368 -4.98297,1.75325 -12.32171,2.16782 -4.75993,0.26889 -12.39842,0.44009 -16.97442,0.38045 -4.576,-0.0597 -14.152,-0.19271 -21.28,-0.29571 z m 50.5929,-5.74871 c 7.75475,-5.12024 11.77222,-12.51963 12.43987,-22.91188 0.91347,-14.21959 -5.48077,-26.98557 -16.21945,-32.38176 -2.50183,-1.25719 -4.09332,-2.46027 -4.09332,-3.0944 0,-0.57063 1.3106,-2.32147 2.91239,-3.89076 13.06438,-12.79911 12.40115,-32.0215 -1.55187,-44.97853 -6.40737,-5.94995 -10.71996,-6.74192 -37.04052,-6.80215 -15.06507,-0.0345 -16.55709,0.29444 -11.49444,2.53389 2.33356,1.03224 5.0466,1.28037 18.08,1.65359 l 15.33444,0.4391 4.16,1.99042 c 5.19657,2.48638 9.43815,6.62799 11.87866,11.59859 1.6752,3.41195 1.87802,4.47127 1.85082,9.66735 -0.0275,5.25505 -0.23712,6.25503 -2.10688,10.05313 -4.38007,8.89715 -12.22858,12.75939 -27.70603,13.63409 l -7.59657,0.42932 v -6.39343 c 0,-3.51639 -0.19092,-11.66424 -0.42427,-18.10634 l -0.42426,-11.7129 9.5526,0.30662 c 5.50949,0.17685 10.14988,0.62627 10.96377,1.06185 2.4658,1.31966 5.81593,6.38293 6.62992,10.02025 1.08892,4.86579 -0.004,8.46986 -3.56549,11.75226 -3.19065,2.94104 -6.79675,3.91963 -14.44377,3.91963 h -5.0885 v 2.96265 2.96263 l 5.28,-0.42613 c 14.28738,-1.1531 20.02631,-4.33883 24.57888,-13.6439 1.5906,-3.25114 1.62708,-3.57472 0.93024,-8.2597 -0.91603,-6.15896 -2.10919,-8.65599 -6.00983,-12.57721 -5.43655,-5.46525 -6.80334,-5.81309 -23.97929,-6.10256 l -14.88,-0.25077 v 50.94749 50.94751 l 12,-0.0314 c 6.6,-0.0173 15.96964,-0.27338 20.82141,-0.56912 7.86,-0.4791 9.08755,-0.71383 11.26333,-2.15369 2.88128,-1.90676 6.2057,-6.67708 7.19738,-10.32791 0.91603,-3.37234 0.336,-12.60406 -1.03565,-16.48237 -1.38842,-3.92577 -5.14554,-8.12992 -9.04533,-10.12153 -2.94139,-1.50217 -3.8122,-1.60605 -15.12114,-1.80383 l -12,-0.20987 v 2.60987 c 0,1.43542 0.216,2.62648 0.48,2.6468 0.264,0.0203 3.72173,0.2703 7.68385,0.55552 5.68859,0.40951 7.84123,0.8466 10.23409,2.07801 9.65936,4.97088 11.3259,19.54997 2.88498,25.23829 -2.2715,1.53077 -4.98633,1.94073 -16.96292,2.56159 l -8.16,0.423 v -19.97906 -19.97905 l 14.56,0.21583 c 16.36262,0.24256 17.15371,0.43895 22.82477,5.66637 6.77018,6.2405 10.0057,19.95752 6.96058,29.50907 -1.50291,4.7142 -6.77575,10.0216 -12.03006,12.10895 -3.70444,1.47163 -4.52821,1.53139 -24.14625,1.75164 l -20.31096,0.22803 -1.28032,1.62766 c -0.70418,0.89522 -1.10589,1.9099 -0.89269,2.25486 0.25039,0.40513 9.48111,0.46456 26.07128,0.16783 l 25.68365,-0.45935 4.3529,-2.87407 z m -55.23463,-55.92701 0.002,-50.95496 -2.47633,-1.63875 -2.47634,-1.63877 -0.3981,3.31372 c -0.57148,4.75692 -0.50424,106.36466 0.0708,106.94396 0.264,0.26595 1.55922,-0.76605 2.87828,-2.29334 l 2.39826,-2.7769 0.002,-50.95496 z m 31.59574,40.98974 c 5.82661,-1.14701 8.72599,-4.69461 8.72599,-10.67686 0,-4.17551 -1.88149,-6.92937 -6.31762,-9.24683 -3.1133,-1.62641 -4.03971,-1.79109 -10.07546,-1.79109 h -6.64692 v 11.40526 11.40528 l 5.6,-0.24137 c 3.08,-0.13276 7.0013,-0.51723 8.71401,-0.85439 z m 1.25944,-61.32893 c 2.47064,-1.52694 4.91211,-5.59548 4.8925,-8.15299 -0.0226,-2.94362 -2.26892,-7.1229 -4.58874,-8.53725 -1.77563,-1.08258 -3.22718,-1.29122 -8.99721,-1.29322 l -6.88,-0.002 v 10.01643 10.01643 l 6.74907,-0.38219 c 5.15752,-0.29207 7.23847,-0.68466 8.82438,-1.66481 z m -529.49345,26.4212 v -55.43295 l 2.95833,-4.74646 c 1.62709,-2.61056 3.48016,-5.02574 4.11793,-5.36706 1.53866,-0.82347 21.97704,-0.78165 31.62585,0.0647 17.32832,1.51998 27.55673,5.48627 35.96216,13.94511 11.72439,11.7989 14.65106,29.5995 7.27047,44.22039 -4.39898,8.71431 -12.49166,16.80382 -20.86914,20.86096 -7.3662,3.56739 -13.26847,4.79575 -25.06561,5.21656 l -10.4,0.37098 v 13.28461 13.28461 l -2.2933,4.45817 -2.2933,4.45817 -4.2667,0.40302 c -2.34668,0.22167 -7.0747,0.40507 -10.5067,0.40758 l -6.23999,0.005 z m 20.39538,49.7639 c 1.96966,-3.57486 1.47509,-3.91476 -5.67539,-3.90052 l -5.44,0.0108 -2.06756,3.01535 c -2.5658,3.74201 -2.21332,3.96855 5.8969,3.78998 l 5.74934,-0.1266 1.53671,-2.78905 z m -14.78082,-54.59798 c -0.096,-27.69086 -0.39057,-50.56286 -0.65457,-50.82666 -2.08327,-2.08175 -2.36955,4.59653 -2.36171,55.09368 l 0.008,49.92001 1.59155,-1.92 1.59156,-1.92 -0.17457,-50.34703 z m 17.42543,28.34947 v -19.75756 l 6.41003,-0.45444 c 8.21918,-0.58271 16.96963,-2.38092 21.25799,-4.36849 11.41541,-5.29082 16.63255,-17.84149 11.7941,-28.37261 -3.11728,-6.7849 -8.82558,-11.32194 -16.80678,-13.35827 -3.73971,-0.95415 -18.61726,-2.30941 -19.61534,-1.78685 -0.264,0.13822 -0.48,1.78684 -0.48,3.66359 v 3.41229 l 7.18456,0.46934 c 7.70979,0.50365 11.02613,1.37708 14.58887,3.84226 4.60395,3.18563 5.96311,8.94689 3.32852,14.10904 -3.05394,5.98382 -8.25746,7.98079 -24.62195,9.44923 l -3.04,0.2728 v -19.47577 -19.47577 l 7.2,0.39578 c 9.70302,0.53337 16.155,1.48011 19.9854,2.9326 8.1311,3.08331 14.61327,9.9107 16.68852,17.57731 0.98171,3.62675 1.05588,4.99145 0.48619,8.94591 -0.89705,6.22667 -2.85788,10.07007 -7.52175,14.74329 -6.50217,6.51519 -13.54959,9.14296 -26.27836,9.79841 l -7.68,0.39546 -0.19001,4.73798 -0.19002,4.73796 8.19002,-0.39732 c 9.22265,-0.44741 21.5782,-2.7699 25.57018,-4.80646 4.56098,-2.32684 12.83613,-8.97042 15.22223,-12.22092 4.90066,-6.67604 7.37888,-14.32089 7.39001,-22.79677 0.0137,-10.44823 -2.46361,-16.76591 -9.43607,-24.06391 -9.61522,-10.06413 -18.57287,-12.69127 -46.55634,-13.65425 -5.984,-0.20592 -12.248,-0.53685 -13.92,-0.73541 l -3.04,-0.36101 v 53.18006 53.18006 h 7.04 7.04 z m 13.5685,-37.9213 c 7.26174,-1.53917 10.7515,-4.56405 10.7515,-9.31924 0,-6.66153 -3.50726,-8.95313 -14.68114,-9.59245 l -7.07886,-0.40503 v 9.59112 c 0,5.27512 0.192,9.78312 0.42667,10.01779 0.67,0.67001 6.84695,0.49945 10.58183,-0.29219 z m 364.78973,67.0155 c -1.71092,-2.8998 -3.95822,-8.01982 -3.95822,-9.01803 0,-0.43927 1.28657,-3.57066 2.85904,-6.95864 l 2.85903,-6.15997 h 11.86097 11.86096 v -36.16001 -36.16 h -9.18456 -9.18455 l -4.21018,-3.18718 c -6.16072,-4.66379 -6.22071,-4.7949 -6.22071,-13.59523 v -7.53759 h 33.36135 33.36133 l 6.94773,4 6.94774,4 0.0109,8.16 0.0109,8.16 h -13.12 -13.12 v 36.8 36.80001 l 5.28,0.0836 c 2.904,0.046 7.4322,0.26201 10.06266,0.48 l 4.78267,0.39636 2.05211,4.8 c 1.12866,2.64 2.07246,5.31517 2.09733,5.94483 0.0249,0.62966 -1.00284,3.43766 -2.28383,6.24 l -2.32906,5.09517 h -34.72773 -34.72772 z m 69.951,-4.19537 c 0.88593,-1.74829 1.61078,-3.33229 1.61078,-3.52 0,-0.1877 -5.472,-0.34127 -12.16,-0.34127 h -12.16 v -43.20001 -43.2 h -2.56 -2.56 v 43.2 43.20001 H 527.3415 510.82852 l -1.33932,3.17008 -1.33932,3.17008 3.6123,0.22891 c 1.98676,0.12589 15.91945,0.28336 30.96152,0.34992 l 27.34922,0.12101 z M 506.0825,269.406 c 2.40989,-3.96275 2.27016,-6.86323 -0.54393,-11.29092 -0.95623,-1.50452 -0.95722,-1.50382 -2.73014,1.92 -0.97546,1.8838 -1.78082,4.00108 -1.7897,4.70508 -0.0221,1.75196 2.29475,6.72 3.13387,6.72 0.37438,0 1.24284,-0.92438 1.9299,-2.05416 z m 66.45503,-7.21556 c 0.11312,-0.11312 -0.14788,-1.38571 -0.58,-2.82797 l -0.78566,-2.62231 -3.89869,-0.004 c -2.14429,-0.002 -6.2747,-0.1888 -9.1787,-0.41487 l -5.28,-0.41102 v 3.27574 3.27574 l 8.16,0.20995 c 7.50293,0.19304 11.03567,0.046 11.56305,-0.48143 z m -31.24305,-42.89029 v -43.2 h 17.28 17.28 v -5.12 -5.12 h -32 -32 v 4.72 4.72 l 2,0.4 c 1.1,0.22 5.08824,0.4 8.86274,0.4 h 6.86275 l 0.41725,6.81956 c 0.2295,3.75076 0.41726,21.46276 0.41726,39.36 v 32.54045 l -8.8,0.007 c -4.84,0.004 -9.88708,0.1867 -11.21574,0.40629 -2.62883,0.43446 -2.64305,0.5341 -0.74025,5.18666 l 0.85068,2.08 h 15.39265 15.39266 v -43.2 z m -33.2915,-50.08 -0.0115,-4.96 -3.18107,-2.08 c -1.74959,-1.144 -3.34053,-2.08 -3.53542,-2.08 -0.1949,0 -0.27024,2.22904 -0.16743,4.95343 l 0.18692,4.95342 3.19267,2.08658 c 1.75598,1.14762 3.26798,2.08657 3.36,2.08657 0.092,0 0.16215,-2.232 0.15582,-4.96 z m 60.8115,-7.87455 c -4.79863,-3.27385 -3.61597,-3.16545 -34.5345,-3.16545 -15.85402,0 -28.82172,0.216 -28.81711,0.48 0.004,0.264 0.94062,1.1101 2.08,1.88023 2.05637,1.38992 2.29288,1.40044 32.15161,1.43019 20.70113,0.0206 29.78067,-0.17423 29.12,-0.62497 z m 108.80007,56.19975 6e-5,-57.7652 5.39565,-3.68 5.39565,-3.68 h 8.04429 8.04428 v 48.96 48.96001 l 22.56001,0.0287 22.56,0.0287 3.88057,5.52069 3.88051,5.52069 -3.02342,6.7706 -3.02349,6.7706 -36.85709,0.16519 -36.85709,0.16521 7e-5,-57.76521 z m 67.39174,53.71197 c -0.28147,-0.46356 -1.49664,-2.19156 -2.70028,-3.84 l -2.18848,-2.99716 h -23.57152 -23.57153 v -50.58402 -50.58402 l -5.92,0.18401 -5.92,0.18402 -0.16358,54.24 -0.16365,54.24001 h 32.3554 c 26.59379,0 32.26432,-0.15009 31.84364,-0.84284 z m 6.89735,-4.37453 c 2.21971,-4.39724 2.18598,-4.63225 -1.35898,-9.47323 l -2.08742,-2.85058 -2.00723,2.32207 c -4.09108,4.73269 -4.10887,5.00453 -0.63616,9.73413 1.69811,2.31273 3.31584,4.20498 3.59488,4.20498 0.27904,0 1.40172,-1.77182 2.49491,-3.93737 z m -10.30125,-8.99941 c 2.36576,-2.97126 2.52947,-3.38697 1.49446,-3.79501 -0.63929,-0.25204 -9.65836,-0.47001 -20.04236,-0.48438 l -18.88001,-0.0261 -2.42316,3.34115 -2.42311,3.34115 18.10311,0.33502 c 9.95673,0.18426 18.87065,0.40026 19.8087,0.48 1.36941,0.1164 2.22925,-0.51274 4.36237,-3.1918 z m -40.28506,-51.9394 c -0.29766,-25.61651 -0.67635,-46.71069 -0.84166,-46.87595 -0.16525,-0.16527 -1.20064,0.45695 -2.3008,1.38271 l -2.00039,1.6832 v 33.43968 c 0,18.39182 0.18836,39.91167 0.41856,47.82188 l 0.41856,14.3822 2.42343,-2.62912 2.42349,-2.62912 z m -4.24851,-47.99036 c 1.2681,-0.96724 2.30566,-2.03195 2.30566,-2.36604 0,-0.8855 -9.68294,-0.70029 -11.25331,0.21525 -2.03353,1.1856 -4.74669,3.46489 -4.74669,3.98771 0,0.2564 2.56244,0.34367 5.69434,0.19393 4.9961,-0.23887 5.97709,-0.4879 8,-2.03085 z m 73.79328,112.27262 -3.64761,-4.43392 v -55.72608 -55.72609 h 33.48397 33.48403 l 4.11597,2.48733 4.11603,2.48733 0.19168,7.27267 c 0.10541,3.99997 0.0211,8.2051 -0.18752,9.34472 l -0.3792,2.07204 -23.17248,0.16796 -23.17248,0.16795 -0.17351,12.64 -0.17357,12.64 h 14.73357 14.73351 v 7.54187 7.54186 l -3.3801,3.33814 -3.38016,3.33813 h -10.98208 c -6.04019,0 -11.1401,0.25563 -11.33318,0.56808 -0.19316,0.31244 -0.16461,5.92844 0.0634,12.48 l 0.41446,11.91193 7.41882,0.002 c 4.08038,0.001 12.83302,0.19102 19.45037,0.42228 l 12.03161,0.42049 3.48839,4.83721 c 1.91865,2.66046 3.48844,5.18576 3.48844,5.61178 0,0.42601 -1.18726,3.53124 -2.63833,6.9005 l -2.63834,6.12593 h -31.15402 -31.15405 l -3.64768,-4.43392 z m 61.24525,0.43392 c -0.25453,-0.44 -1.01113,-1.592 -1.68141,-2.56 l -1.21862,-1.76 H 800.7709 c -21.62816,0 -28.43641,0.18314 -28.43641,0.76498 0,0.42074 0.77388,1.57274 1.71974,2.56 l 1.71974,1.79502 h 28.39802 c 22.53856,0 28.30259,-0.16507 27.93536,-0.8 z m 5.22234,-4.65825 c 0.86067,-1.94604 1.5648,-3.93479 1.5648,-4.41945 0,-0.48466 -0.97946,-2.05356 -2.17664,-3.48646 l -2.17664,-2.60525 -0.94535,2.3847 c -1.89952,4.79175 -1.90169,6.04127 -0.0154,8.95043 0.968,1.49286 1.85549,2.71428 1.97223,2.71428 0.11667,0 0.91635,-1.59222 1.77696,-3.53825 z m -6.86413,-7.82175 2.01133,-4.32 -3.35117,-0.41671 c -1.8432,-0.22919 -12.78323,-0.44519 -24.31123,-0.48 l -20.96,-0.0633 v -15.36 -15.36 h 15.68 15.68 v -5.44 -5.44 h -15.68 -15.68 v -21.65813 -21.65814 l 23.17779,-0.44705 c 17.02637,-0.3284 23.30848,-0.65268 23.67021,-1.22186 0.27085,-0.42615 0.49683,-2.54123 0.50221,-4.70018 0.009,-3.53377 -0.13389,-3.96385 -1.43021,-4.31125 -0.792,-0.21225 -14.472,-0.38985 -30.4,-0.39465 l -28.96,-0.009 v 13.3345 c 0,7.33398 0.19123,31.09398 0.42496,52.80001 l 0.42496,39.4655 h 28.59488 28.59488 z m -38.29107,-20.32 v -12.48001 h -2.56 -2.56 l 0.006,8.16001 c 0,4.488 0.18816,10.104 0.41254,12.48 l 0.408,4.32 h 2.14746 2.14745 v -12.48 z m 29.44,-25.0309 c 0,-2.24901 -0.25274,-4.08911 -0.56167,-4.08911 -1.74412,0 -2.96352,4.50118 -2.29356,8.46659 l 0.45254,2.67877 1.20134,-1.48358 c 0.89498,-1.10523 1.20135,-2.52642 1.20135,-5.57267 z m -3.92211,-5.9448 c 1.37574,-0.87149 -9.9353,-1.54411 -17.21024,-1.02342 -3.51885,0.25186 -6.55661,0.71469 -6.75053,1.02852 -0.45767,0.74047 22.79155,0.73553 23.96077,-0.005 z m -27.53338,-1.40692 2.01549,-0.7026 v -13.91028 -13.91028 l -2.56,-2.05727 -2.56,-2.05728 0.009,15.23017 c 0.008,13.06749 0.26656,18.11015 0.93036,18.11015 0.0824,0 1.05684,-0.31617 2.16538,-0.70261 z m 45.53549,-30.60884 c 1.54592,-0.44818 1.49299,-0.53257 -1.56531,-2.4962 l -3.16532,-2.03235 -20.83468,0.002 -20.83469,0.002 2.88,2.53099 2.88,2.53098 19.52,-0.0366 c 10.736,-0.0201 20.24,-0.24524 21.12,-0.50036 z m 4.48,-7.13062 c 0,-4.90779 -0.57632,-6.57631 -2.65607,-7.68934 -1.86464,-0.99792 -2.44198,0.11422 -2.45414,4.72749 -0.009,3.37554 0.1792,3.88872 2.05286,5.6 1.1344,1.03616 2.2864,1.88392 2.56,1.88392 0.27354,0 0.49735,-2.03493 0.49735,-4.52207 z m -596.16001,105.8816 c -5.34683,-1.33746 -19.39334,-6.44036 -23.12513,-8.40103 -5.45079,-2.86382 -7.29115,-4.38653 -11.41827,-9.44747 -8.38994,-10.2883 -13.30773,-30.38763 -11.32408,-46.28224 2.62797,-21.05745 10.90772,-35.63322 25.70747,-45.25579 11.11385,-7.22605 24.25478,-9.86314 38.40001,-7.70604 8.88807,1.35541 22.74816,4.71267 25.79626,6.24851 3.73826,1.88358 10.78791,9.28621 13.69368,14.37932 6.26497,10.98103 8.70935,20.31988 8.76973,33.50521 0.0628,13.70332 -2.01533,23.18939 -7.64106,34.88001 -6.32793,13.14983 -16.65367,22.28525 -30.05861,26.59356 -3.83683,1.23314 -6.13389,1.46615 -16,1.623 -6.336,0.10072 -12.096,0.039 -12.8,-0.13704 z m 26.88,-4.0679 c 12.74473,-4.0891 20.7413,-10.63699 27.95575,-22.89121 6.24684,-10.61071 8.82229,-20.42182 8.83584,-33.65988 0.0188,-18.30043 -5.05425,-31.72474 -16.26443,-43.03962 l -5.16716,-5.21541 -5.96834,-1.36276 c -3.28259,-0.74951 -6.40713,-1.36275 -6.94341,-1.36275 -0.5363,0 0.70945,1.28494 2.76833,2.85541 4.16043,3.17349 6.30396,5.60944 10.68717,12.14505 5.35056,7.97801 8.04053,17.26183 8.54165,29.47954 0.75318,18.36327 -4.83381,33.82986 -15.98348,44.24753 -17.3911,16.24932 -42.24203,11.75074 -52.58959,-9.5199 -4.53181,-9.31568 -5.69902,-14.92224 -5.29125,-25.41574 0.38371,-9.87404 1.58711,-14.87751 5.74373,-23.88134 1.42429,-3.0852 2.43255,-5.76651 2.24058,-5.95848 -0.54331,-0.54332 -4.90905,4.16462 -7.31343,7.88667 -6.31017,9.76834 -9.60854,26.62443 -7.92545,40.50249 0.9068,7.4771 2.1179,11.82326 4.86316,17.4519 4.64144,9.51638 10.08431,14.32025 19.57426,17.27621 7.36709,2.29473 7.35692,2.29357 18.15607,2.08505 7.84041,-0.15139 10.42113,-0.44883 14.08,-1.62276 z m -54.1817,-13.5643 c -2.87539,-7.56742 -5.09111,-18.03075 -5.46497,-25.80733 -0.89917,-18.70371 3.37304,-33.28869 12.74766,-43.51943 4.59127,-5.01057 8.20176,-6.99645 15.75833,-8.66756 7.34324,-1.62394 12.74568,-1.5824 18.66068,0.14349 4.4621,1.30197 5.16574,1.76389 9.99558,6.56203 7.71083,7.66021 11.0969,15.16974 13.43758,29.80147 0.90931,5.68411 0.95813,7.5402 0.31671,12.04073 -1.22845,8.61948 -2.7388,11.78388 -8.31637,17.42403 -2.68043,2.7105 -6.0255,5.50629 -7.4335,6.21286 -7.26231,3.64443 -18.54774,3.55446 -27.07305,-0.21584 -1.93804,-0.8571 -3.63721,-1.44485 -3.77593,-1.30613 -0.13873,0.13872 0.97888,1.30601 2.48358,2.59397 4.27984,3.66339 9.96244,5.1503 19.7254,5.16134 7.4647,0.008 8.24273,-0.11015 11.62771,-1.77245 4.92999,-2.421 13.83951,-11.76937 16.44564,-17.25568 4.49667,-9.46617 6.66022,-18.99202 6.65086,-29.28283 -0.0214,-23.50482 -12.46201,-41.70458 -31.97191,-46.7727 -6.13819,-1.59452 -16.88913,-1.9158 -21.9523,-0.65601 -10.70899,2.66456 -22.43146,11.8024 -28.9551,22.57093 -13.20361,21.79515 -11.22522,55.50113 4.22848,72.04067 2.06436,2.20942 3.83668,4.01712 3.93851,4.01712 0.10182,0 -0.38129,-1.49071 -1.07359,-3.31268 z m 47.4617,-8.16832 c 4.44835,-2.32256 6.90044,-4.42249 9.65361,-8.26725 3.76856,-5.26274 5.13239,-10.39805 5.12348,-19.29176 -0.0149,-14.8879 -3.35479,-23.98323 -12.06947,-32.86823 -4.8801,-4.97549 -8.72281,-6.68817 -16.15443,-7.19997 -5.43789,-0.3745 -6.44181,-0.26647 -9.4168,1.01334 -8.8684,3.81508 -16.22612,18.4496 -17.22216,34.25486 -1.02928,16.33277 6.63386,28.76871 20.56577,33.37463 1.66565,0.55067 5.01944,0.78376 9.6,0.66721 5.92574,-0.15078 7.49582,-0.41713 9.92,-1.68283 z"
       id="path2051" />
    <path
       style="fill:#ffffff;stroke:#ffffff;stroke-width:0.53996;stroke-opacity:0"
       d="m 3.1294851,66.073141 c 0.098143,-37.254957 0.3019233,-51.30979 0.7550618,-52.076953 0.5252569,-0.889259 0.6672607,-0.51583 0.9239869,2.42982 0.1668405,1.914309 0.4358819,24.619992 0.5978698,50.457073 l 0.2945235,46.976509 -1.3529315,1.61988 -1.3529315,1.61988 z"
       id="path2053"
       transform="translate(100.33448,152.42015)" />
    <path
       style="fill:#ffffff;stroke:#ffffff;stroke-width:0.53996;stroke-opacity:0"
       d="m 112.95893,101.66032 c -5.115,-5.652262 -9.43058,-15.396599 -11.21726,-25.327941 -1.04102,-5.786561 -0.9118,-19.114647 0.24192,-24.951442 3.02992,-15.328678 9.94127,-26.819311 21.13007,-35.130281 4.66443,-3.464706 8.60815,-5.608582 13.25036,-7.2031218 2.42931,-0.8344381 4.49291,-1.0153199 11.33916,-0.9939173 9.90441,0.030963 13.00046,0.6923275 20.51847,4.3830701 4.337,2.12912 5.88421,3.276245 10.01312,7.423878 4.18427,4.203249 5.28841,5.71742 7.71147,10.575223 7.54796,15.132287 7.8981,33.517573 0.96232,50.529717 -2.34477,5.751264 -5.50641,10.182499 -11.0267,15.454624 -5.78556,5.525481 -8.71492,6.982811 -14.72473,7.325481 -5.76882,0.32892 -14.13568,-0.6191 -17.89882,-2.02806 -2.6467,-0.99095 -7.22839,-4.172625 -6.72852,-4.672499 0.12174,-0.121734 1.34377,0.259791 2.71562,0.847835 8.07459,3.461174 18.99954,3.585194 26.18143,0.29722 3.72731,-1.706413 11.78782,-9.632646 13.74932,-13.52026 6.25688,-12.400854 2.23021,-37.585055 -7.85609,-49.134705 -7.05489,-8.078446 -9.85846,-9.770543 -18.39144,-11.100167 -6.96766,-1.085713 -18.67183,1.365806 -24.22505,5.074102 -8.26755,5.520862 -15.10504,17.776336 -17.23642,30.894486 -0.90865,5.5925 -0.91442,19.920546 -0.0101,25.108135 0.85444,4.901556 2.94982,13.430201 4.10003,16.687993 0.46198,1.30848 0.74582,2.4732 0.63075,2.58827 -0.11506,0.11507 -1.56806,-1.29238 -3.22889,-3.12764 z"
       id="path2055"
       transform="translate(100.33448,152.42015)" />
    <path
       style="fill:#ffffff;stroke:#ffffff;stroke-width:0.53996;stroke-opacity:0"
       d="m 269.90277,96.170462 c 0.9045,-2.516526 1.55361,-8.451252 1.24612,-11.393105 -0.19485,-1.864303 -1.02979,-4.747927 -1.93452,-6.681296 -1.73551,-3.708709 -3.18276,-5.258151 -17.6788,-18.927177 -7.50256,-7.074533 -9.00287,-8.765163 -10.52922,-11.864881 -1.71538,-3.483613 -1.77997,-3.851316 -1.77997,-10.132685 0,-6.445967 0.0224,-6.56324 2.02981,-10.626762 4.37103,-8.848135 13.84955,-14.260194 22.97751,-13.119731 5.33139,0.666113 8.01757,1.803171 12.30084,5.206927 l 4.12953,3.281587 -0.33536,2.446728 c -0.18445,1.3457 -0.33536,3.636778 -0.33536,5.091284 v 2.644556 l -3.10477,-2.103958 c -6.88455,-4.665335 -11.1433,-5.920415 -16.92809,-4.988803 -4.05407,0.65289 -6.67473,2.508532 -8.45002,5.983324 -2.6234,5.134767 -1.27646,8.570383 6.96723,17.771213 12.76899,14.251533 14.15784,16.146405 16.43726,22.426141 2.49676,6.878489 2.12858,13.597453 -1.12155,20.467676 -1.29711,2.741868 -4.65281,6.639493 -3.89064,4.518962 z"
       id="path2057"
       transform="translate(100.33448,152.42015)" />
    <path
       style="fill:#ffffff;stroke:#ffffff;stroke-width:0.53996;stroke-opacity:0"
       d="m 224.61005,104.67073 c -0.19598,-1.04467 -0.19108,-3.44252 0.0109,-5.328573 l 0.36723,-3.429178 2.79942,-0.336308 c 1.53968,-0.18497 4.04046,-0.338421 5.55729,-0.341003 l 2.75787,-0.0047 0.3469,3.318967 c 0.19079,1.825425 0.3469,4.101965 0.3469,5.058975 v 1.74001 l -4.76122,0.6106 c -7.05246,0.90444 -7.01254,0.91137 -7.42529,-1.2888 z"
       id="path2059"
       transform="translate(100.33448,152.42015)" />
    <path
       style="fill:#ffffff;stroke:#ffffff;stroke-width:0.53996;stroke-opacity:0"
       d="m 358.10964,94.556025 c 0.24633,-0.965178 0.44787,-4.427671 0.44787,-7.694428 0,-8.775909 -0.63824,-9.860202 -12.31317,-20.918543 -12.94415,-12.260538 -15.84397,-15.364917 -17.5318,-18.768509 -1.37622,-2.775225 -1.4727,-3.430473 -1.4727,-10.002042 0,-6.914472 0.0309,-7.095061 1.84645,-10.781496 3.34222,-6.786428 9.43954,-11.37123 16.9672,-12.758254 6.84001,-1.260322 15.25857,1.416562 19.73801,6.276175 2.14162,2.323388 2.21507,2.524973 2.20794,6.060127 -0.004,2.011236 -0.14932,4.186023 -0.3228,4.832859 -0.30944,1.153758 -0.36307,1.142043 -2.82742,-0.617596 -1.38159,-0.986514 -4.04638,-2.593799 -5.92175,-3.571745 -3.15839,-1.646996 -3.75277,-1.770707 -8.06225,-1.678035 -5.62317,0.12092 -8.51423,1.315835 -10.65392,4.403409 -1.8496,2.668968 -2.41926,7.480264 -1.21703,10.278919 0.44609,1.038455 4.27428,5.775811 8.50708,10.527458 8.81304,9.893327 11.88928,13.866075 14.05597,18.152339 3.82505,7.566917 3.30438,19.674908 -1.10801,25.766028 -1.99249,2.750556 -2.96826,2.956302 -2.33967,0.493334 z"
       id="path2061"
       transform="translate(100.33448,152.42015)" />
    <path
       style="fill:#ffffff;stroke:#ffffff;stroke-width:0.53996;stroke-opacity:0"
       d="m 312.74197,104.12079 c -0.19306,-1.40856 -0.35103,-3.82966 -0.35103,-5.380227 v -2.819205 l 2.83479,-0.340498 c 1.55914,-0.187274 4.10582,-0.34261 5.65929,-0.345192 3.34568,-0.0056 3.53158,0.34493 3.27754,6.179182 -0.18778,4.31252 -0.0782,4.23699 -7.10453,4.89542 l -3.96503,0.37155 z"
       id="path2063"
       transform="translate(100.33448,152.42015)" />
    <path
       style="fill:#ffffff;stroke:#ffffff;stroke-width:0.53996;stroke-opacity:0"
       d="m 409.3871,107.49701 c -1.18143,-3.09353 -1.11419,-3.97881 0.33161,-4.36627 0.6682,-0.17907 5.52784,-0.3289 10.7992,-0.33296 l 9.58429,-0.007 -0.003,-35.232379 c -0.002,-19.377811 -0.15928,-37.236984 -0.35001,-39.687052 l -0.34677,-4.454669 -6.80446,-0.0059 c -3.74245,-0.0033 -7.71564,-0.156552 -8.82931,-0.34063 l -2.02485,-0.334687 v -4.519009 -4.519009 h 31.85764 31.85763 v 4.859639 4.859639 H 458.18011 440.9014 V 66.613514 109.8103 h -15.3155 -15.3155 z"
       id="path2065"
       transform="translate(100.33448,152.42015)" />
    <path
       style="fill:#ffffff;stroke:#ffffff;stroke-width:0.53996;stroke-opacity:0"
       d="m 491.47634,113.61714 c -0.4566,-6.43263 -0.36901,-94.386258 0.0999,-100.307797 l 0.35138,-4.4373883 2.29094,1.4676083 2.29094,1.467609 0.004,50.771014 0.004,50.771014 -2.34112,2.66051 -2.34113,2.6605 -0.35867,-5.05307 z"
       id="path2067"
       transform="translate(100.33448,152.42015)" />
    <path
       style="fill:#ffffff;stroke:#ffffff;stroke-width:0.53996;stroke-opacity:0"
       d="m 580.84682,65.847924 c 0.0958,-29.524685 0.29566,-53.800281 0.44415,-53.945769 0.14849,-0.145487 2.76054,-0.439914 5.80457,-0.654281 l 5.53459,-0.389758 v 50.825788 50.825786 l 23.62324,0.0144 23.62325,0.0144 2.23977,3.15082 2.23978,3.15082 -4.07612,0.34455 c -2.24186,0.18951 -16.57065,0.34456 -31.84175,0.34456 h -27.76565 z"
       id="path2069"
       transform="translate(100.33448,152.42015)" />
    <path
       style="fill:#ffffff;stroke:#ffffff;stroke-width:0.53996;stroke-opacity:0"
       d="m 692.14167,20.425091 -2.61705,-2.40838 h 20.38845 20.38846 l 2.61208,1.676168 c 1.43664,0.921892 2.61208,1.855402 2.61208,2.074465 0,0.504204 -17.07659,1.112111 -30.50773,1.086041 l -10.25924,-0.01991 z"
       id="path2071"
       transform="translate(100.33448,152.42015)" />
    <path
       style="fill:#ffffff;stroke:#ffffff;stroke-width:0.53996;stroke-opacity:0"
       d="m 673.98568,117.03741 -1.84461,-2.0979 2.66946,-0.35767 c 1.46821,-0.19671 14.21111,-0.37594 28.31757,-0.39828 l 25.64809,-0.0406 1.25354,1.93454 c 0.68945,1.06399 1.11545,2.07263 0.94666,2.24142 -0.16879,0.16879 -12.64571,0.42153 -27.7265,0.56164 l -27.41961,0.25476 z"
       id="path2073"
       transform="translate(100.33448,152.42015)" />
  </g>
</svg>
