<svg xmlns="http://www.w3.org/2000/svg" width="24.003" height="23.306"><path fill="#FFF" d="M15.263 21.552l-2.332-3.256-1.154-1.547c-.027 0-1.006 1.314-2.316 3.113l-2.295 3.114c-.033 0-4.498-3.144-4.5-3.177-.006-.016 1.005-1.498 2.242-3.293l2.254-3.326c0-.055-.408-.193-3.557-1.245l-3.592-1.2c-.03-.018.156-.64.793-2.65L1.65 5.43c.014-.016 1.7.524 3.772 1.205L9.21 7.87c.022 0 .046-.03.053-.07.01-.03.03-1.786.04-3.9l.05-3.87c.02-.03.6-.03 2.73-.03l2.733.03c.025.016.065 1.186.136 3.78l.18 4.335c.025 0 1.66-.54 3.63-1.22l3.605-1.186c.03.044 1.65 5.3 1.635 5.325s-1.667.585-3.66 1.26l-3.647 1.3c-.014.03.93 1.455 2.146 3.2l2.143 3.18c-.015.046-4.44 3.302-4.483 3.302-.015 0-.585-.766-1.245-1.695l.005-.067z"/></svg>