<svg xmlns="http://www.w3.org/2000/svg" width="46" height="46" fill="none" stroke="#000" stroke-width="2" stroke-linecap="round" stroke-miterlimit="10"><path d="M23 1C10.852 1 1 9.953 1 21c0 4.746 1.824 9.105 4.86 12.535C8.098 37.273 2 43.602 2 44.098c0 .383.258.902 1.195.902 4.2 0 8.46-3.445 11.82-5.363C17.488 40.512 20.184 41 23 41c12.148 0 22-8.953 22-20S35.148 1 23 1zm2 20h12m-9.937 3.953S29.406 29.32 35 32m0-11s-1.207 7.984-10 11m6-11v-3m-19.61 2h6.13"/><path d="M10 24l4.5-13L19 24" stroke-linejoin="round"/></svg>