<svg xmlns="http://www.w3.org/2000/svg" height="30" width="20" fill-rule="evenodd"><path d="M9.994 1.02C4.47 1.02-.022 5.637-.022 11.314c0 .44.034.864.085 1.275.424 3.97 2.66 8.088 4.767 11.252 2.097 3.148 4.1 5.344 4.112 5.368.186.214.388.364.568.464l.008.004.056.03.487.16.487-.16.056-.03.008-.004a2.19 2.19 0 0 0 .563-.458v-.001S13.16 27 15.236 23.83s4.277-7.29 4.69-11.258a10.51 10.51 0 0 0 .083-1.259C20.008 5.636 15.52 1.02 9.994 1.02zm0 1.217c4.885 0 8.83 4.057 8.832 9.076 0 .37-.03.74-.075 1.114l-.001.005v.005c-.374 3.597-2.47 7.624-4.497 10.714s-3.95 5.242-3.95 5.242a.97.97 0 0 1-.226.192l-.018.006-.02-.006c-.07-.04-.134-.09-.218-.186l-.004-.005-.005-.005s-1.952-2.148-4.008-5.234-4.185-7.11-4.568-10.702v-.005l-.001-.005c-.047-.378-.076-.75-.076-1.128 0-5.02 3.947-9.077 8.832-9.077z" dominant-baseline="auto" stroke="none"/><path d="M17.418 11.43c0-4.246-3.35-7.69-7.48-7.69s-7.48 3.443-7.48 7.69 3.35 7.69 7.48 7.69 7.48-3.443 7.48-7.69m-7.48 6.505c-1.585 0-3.033-.6-4.143-1.6h8.287c-1.1 1-2.558 1.6-4.144 1.6m0-5.552l2.347 2.774H7.59zm0-1.907L7.592 7.702h4.7zm-4.59-3.52l3.785 4.474-3.785 4.475c-1.076-1.166-1.737-2.74-1.737-4.474a6.58 6.58 0 0 1 1.738-4.475m4.59-2.03c1.585 0 3.033.6 4.144 1.6H5.794c1.1-1 2.558-1.6 4.143-1.6m6.33 6.505c0 1.734-.66 3.308-1.737 4.474l-3.785-4.475 3.785-4.474c1.076 1.166 1.738 2.74 1.738 4.475"/></svg>