<svg xmlns="http://www.w3.org/2000/svg" height="78.567" width="99.995" viewBox="0 -256 99.995 78.567"><path d="M92.853-186.36v-42.855q-1.786 2.01-3.85 3.683-14.955 11.495-23.77 18.86-2.846 2.4-4.63 3.74-1.786 1.34-4.827 2.706-3.04 1.367-5.72 1.367h-.112q-2.678 0-5.72-1.367-3.04-1.367-4.827-2.706-1.786-1.34-4.63-3.74-8.817-7.366-23.77-18.86-2.065-1.674-3.85-3.683v42.855q0 .725.53 1.256.53.53 1.256.53h82.14q.725 0 1.256-.53.53-.53.53-1.256zm0-58.647v-1.367q0 0-.028-.725-.028-.725-.167-.698-.14.028-.307-.502-.167-.53-.502-.42-.335.112-.78-.14H8.928q-.725 0-1.256.53-.53.53-.53 1.256 0 9.375 8.203 15.847 10.77 8.482 22.376 17.69.335.28 1.953 1.646 1.618 1.367 2.567 2.093.95.725 2.483 1.758 1.535 1.032 2.818 1.535 1.283.502 2.4.502h.112q1.116 0 2.4-.502 1.283-.502 2.818-1.535 1.535-1.032 2.483-1.758.95-.725 2.567-2.093 1.618-1.367 1.953-1.646 11.607-9.207 22.376-17.69 3.013-2.4 5.608-6.445 2.595-4.046 2.595-7.338zm7.143-2.065v60.71q0 3.683-2.623 6.306-2.623 2.623-6.306 2.623H8.928q-3.683 0-6.306-2.623Q0-182.678 0-186.36v-60.71q0-3.683 2.623-6.306Q5.245-256 8.928-256h82.14q3.683 0 6.306 2.623 2.623 2.623 2.623 6.306z"/></svg>