<svg xmlns="http://www.w3.org/2000/svg" viewBox="0 0 24 24"><path fill="#FFF" d="M23.193 7.88c0-5.206-3.41-6.732-3.41-6.732C18.062.357 15.108.025 12.04 0h-.076c-3.068.025-6.02.357-7.74 1.147 0 0-3.41 1.526-3.41 6.732l.015 4.13c.124 5.092.934 10.11 5.64 11.355 2.17.574 4.034.695 5.535.612 2.722-.15 4.25-.972 4.25-.972l-.1-1.975s-1.945.613-4.13.54c-2.165-.074-4.45-.233-4.8-2.89a5.499 5.499 0 0 1-.048-.745s2.125.52 4.817.643c1.646.075 3.2-.097 4.758-.283 3.007-.36 5.625-2.212 5.954-3.905.517-2.665.475-6.507.475-6.507zm-4.024 6.71h-2.497V8.47c0-1.3-.543-1.944-1.628-1.944-1.2 0-1.802.776-1.802 2.312v3.35H10.76v-3.35c0-1.536-.602-2.312-1.802-2.312-1.085 0-1.628.655-1.628 1.944v6.12H4.832V8.284c0-1.29.328-2.313.987-3.07.68-.758 1.57-1.146 2.674-1.146 1.278 0 2.246.49 2.886 1.474L12 6.585l.622-1.043c.64-.983 1.608-1.474 2.886-1.474 1.104 0 1.994.388 2.674 1.146.658.757.986 1.78.986 3.07v6.304z"/></svg>