<svg xmlns="http://www.w3.org/2000/svg" width="24.001" height="19.507"><path fill="#FFF" d="M23.954 2.323a10 10 0 0 1-2.825.775A4.96 4.96 0 0 0 23.292.375c-.95.555-2.005.96-3.127 1.184A4.9 4.9 0 0 0 16.574 0a4.92 4.92 0 0 0-4.92 4.917c0 .4.045.765.127 1.124C7.69 5.848 4.066 3.884 1.64.915 1.213 1.637.974 2.476.974 3.4a4.92 4.92 0 0 0 2.188 4.096C2.355 7.46 1.596 7.238.934 6.87v.06c0 2.385 1.693 4.374 3.946 4.827-.413.11-.85.17-1.296.17-.314 0-.615-.03-.916-.086.63 1.953 2.445 3.377 4.604 3.417a9.87 9.87 0 0 1-6.102 2.105c-.4 0-.78-.023-1.17-.067 2.19 1.394 4.768 2.21 7.557 2.21 9.054 0 14-7.496 14-13.986 0-.21 0-.42-.015-.63.96-.69 1.8-1.56 2.46-2.548z"/></svg>